G04 #@! TF.GenerationSoftware,KiCad,Pcbnew,5.99.0-unknown-9f841da98e~134~ubuntu20.04.1*
G04 #@! TF.CreationDate,2021-11-20T10:56:18+01:00*
G04 #@! TF.ProjectId,slave-modbus,736c6176-652d-46d6-9f64-6275732e6b69,rev?*
G04 #@! TF.SameCoordinates,PX3a22d00PY8062360*
G04 #@! TF.FileFunction,Copper,L2,Bot*
G04 #@! TF.FilePolarity,Positive*
%FSLAX46Y46*%
G04 Gerber Fmt 4.6, Leading zero omitted, Abs format (unit mm)*
G04 Created by KiCad (PCBNEW 5.99.0-unknown-9f841da98e~134~ubuntu20.04.1) date 2021-11-20 10:56:18*
%MOMM*%
%LPD*%
G01*
G04 APERTURE LIST*
G04 #@! TA.AperFunction,ComponentPad*
%ADD10R,2.400000X2.400000*%
G04 #@! TD*
G04 #@! TA.AperFunction,ComponentPad*
%ADD11C,2.400000*%
G04 #@! TD*
G04 #@! TA.AperFunction,ComponentPad*
%ADD12O,1.524000X3.048000*%
G04 #@! TD*
G04 #@! TA.AperFunction,ComponentPad*
%ADD13C,2.200000*%
G04 #@! TD*
G04 #@! TA.AperFunction,ComponentPad*
%ADD14R,3.000000X1.700000*%
G04 #@! TD*
G04 #@! TA.AperFunction,ComponentPad*
%ADD15O,3.000000X1.700000*%
G04 #@! TD*
G04 #@! TA.AperFunction,Conductor*
%ADD16C,0.500000*%
G04 #@! TD*
G04 APERTURE END LIST*
D10*
X85034000Y-68010000D03*
D11*
X81534000Y-68010000D03*
X78034000Y-68010000D03*
D12*
X77732000Y-123063000D03*
X80272000Y-123063000D03*
X82812000Y-123063000D03*
X85352000Y-123063000D03*
X84082000Y-85598000D03*
X81542000Y-85598000D03*
X79002000Y-85598000D03*
D13*
X73922000Y-85598000D03*
X89162000Y-85598000D03*
D14*
X71890000Y-101575000D03*
D15*
X71890000Y-99035000D03*
X71890000Y-96495000D03*
X71890000Y-93955000D03*
X71890000Y-91415000D03*
X71890000Y-88875000D03*
D14*
X71890000Y-121955000D03*
D15*
X71890000Y-119415000D03*
X71890000Y-116875000D03*
X71890000Y-114335000D03*
X71890000Y-111795000D03*
X71890000Y-109255000D03*
D14*
X83492000Y-101575000D03*
D15*
X83492000Y-99035000D03*
X83492000Y-96495000D03*
X83492000Y-93955000D03*
X83492000Y-91415000D03*
X83492000Y-88875000D03*
D16*
X71890000Y-91415000D02*
X83492000Y-91415000D01*
X86589000Y-93955000D02*
X83492000Y-93955000D01*
X88138000Y-124460000D02*
X88138000Y-95504000D01*
X88138000Y-95504000D02*
X86589000Y-93955000D01*
X77732000Y-125484000D02*
X78740000Y-126492000D01*
X71890000Y-93955000D02*
X83492000Y-93955000D01*
X86106000Y-126492000D02*
X88138000Y-124460000D01*
X77732000Y-123063000D02*
X77732000Y-125484000D01*
X78740000Y-126492000D02*
X86106000Y-126492000D01*
X71890000Y-96495000D02*
X83492000Y-96495000D01*
X85352000Y-123063000D02*
X87122000Y-121293000D01*
X87122000Y-97282000D02*
X86335000Y-96495000D01*
X86335000Y-96495000D02*
X83492000Y-96495000D01*
X87122000Y-121293000D02*
X87122000Y-97282000D01*
X71890000Y-101575000D02*
X83492000Y-101575000D01*
X71890000Y-99035000D02*
X83492000Y-99035000D01*
X82812000Y-117610000D02*
X82812000Y-123063000D01*
X79537000Y-114335000D02*
X82812000Y-117610000D01*
X71890000Y-114335000D02*
X79537000Y-114335000D01*
X71890000Y-116875000D02*
X78521000Y-116875000D01*
X80272000Y-118626000D02*
X80272000Y-123063000D01*
X78521000Y-116875000D02*
X80272000Y-118626000D01*
X78034000Y-84630000D02*
X79002000Y-85598000D01*
X78034000Y-68010000D02*
X78034000Y-84630000D01*
X81534000Y-85590000D02*
X81542000Y-85598000D01*
X81534000Y-68010000D02*
X81534000Y-85590000D01*
X85034000Y-84646000D02*
X84082000Y-85598000D01*
X85034000Y-68010000D02*
X85034000Y-84646000D01*
X71890000Y-88875000D02*
X83492000Y-88875000D01*
M02*
