%FSLAX45Y45*%
G04 Gerber Fmt 4.5, Leading zero omitted, Abs format (unit mm)*
G04 Created by KiCad (PCBNEW 5.99.0-unknown-9f841da98e~134~ubuntu20.04.1) date 2021-11-20 10:56:18*
%MOMM*%
%LPD*%
G01*
G04 APERTURE LIST*
%TA.AperFunction,Profile*%
%ADD10C,0.050000*%
%TD*%
%ADD11C,0.200000*%
%ADD12C,0.076200*%
%ADD13C,0.100000*%
%ADD14C,0.120000*%
%ADD15C,0.220000*%
%ADD16C,0.320000*%
G04 APERTURE END LIST*
D10*
X9454100Y-12954000D02*
G75*
G02*
X9200100Y-13208000I-254000J0D01*
G01*
X6833400Y-6299200D02*
G75*
G02*
X7087400Y-6045200I254000J0D01*
G01*
X9199880Y-6045200D02*
G75*
G02*
X9453880Y-6299200I0J-254000D01*
G01*
X7087400Y-13208000D02*
G75*
G02*
X6833400Y-12954000I0J254000D01*
G01*
X7087400Y-6045200D02*
X9199880Y-6045200D01*
X9453880Y-6299200D02*
X9454100Y-12954000D01*
X7087400Y-13208000D02*
X9200100Y-13208000D01*
X6833400Y-12954000D02*
X6833400Y-6299200D01*
D11*
D12*
X7735100Y-12268200D02*
X7811300Y-12344400D01*
X7811300Y-12268200D02*
X7735100Y-12344400D01*
X7862100Y-8521700D02*
X7938300Y-8597900D01*
X7938300Y-8521700D02*
X7862100Y-8597900D01*
X7989100Y-12268200D02*
X8065300Y-12344400D01*
X8065300Y-12268200D02*
X7989100Y-12344400D01*
X8116100Y-8521700D02*
X8192300Y-8597900D01*
X8192300Y-8521700D02*
X8116100Y-8597900D01*
X8243100Y-12268200D02*
X8319300Y-12344400D01*
X8319300Y-12268200D02*
X8243100Y-12344400D01*
X8370100Y-8521700D02*
X8446300Y-8597900D01*
X8446300Y-8521700D02*
X8370100Y-8597900D01*
X8497100Y-12268200D02*
X8573300Y-12344400D01*
X8573300Y-12268200D02*
X8497100Y-12344400D01*
D13*
X7239000Y-8887500D02*
G75*
G03*
X7239000Y-8887500I-50000J0D01*
G01*
X7239000Y-9141500D02*
G75*
G03*
X7239000Y-9141500I-50000J0D01*
G01*
X7239000Y-9395500D02*
G75*
G03*
X7239000Y-9395500I-50000J0D01*
G01*
X7239000Y-9649500D02*
G75*
G03*
X7239000Y-9649500I-50000J0D01*
G01*
X7239000Y-9903500D02*
G75*
G03*
X7239000Y-9903500I-50000J0D01*
G01*
X7239000Y-10157500D02*
G75*
G03*
X7239000Y-10157500I-50000J0D01*
G01*
X7239000Y-10925500D02*
G75*
G03*
X7239000Y-10925500I-50000J0D01*
G01*
X7239000Y-11179500D02*
G75*
G03*
X7239000Y-11179500I-50000J0D01*
G01*
X7239000Y-11433500D02*
G75*
G03*
X7239000Y-11433500I-50000J0D01*
G01*
X7239000Y-11687500D02*
G75*
G03*
X7239000Y-11687500I-50000J0D01*
G01*
X7239000Y-11941500D02*
G75*
G03*
X7239000Y-11941500I-50000J0D01*
G01*
X7239000Y-12195500D02*
G75*
G03*
X7239000Y-12195500I-50000J0D01*
G01*
X8399200Y-8887500D02*
G75*
G03*
X8399200Y-8887500I-50000J0D01*
G01*
X8399200Y-9141500D02*
G75*
G03*
X8399200Y-9141500I-50000J0D01*
G01*
X8399200Y-9395500D02*
G75*
G03*
X8399200Y-9395500I-50000J0D01*
G01*
X8399200Y-9649500D02*
G75*
G03*
X8399200Y-9649500I-50000J0D01*
G01*
X8399200Y-9903500D02*
G75*
G03*
X8399200Y-9903500I-50000J0D01*
G01*
X8399200Y-10157500D02*
G75*
G03*
X8399200Y-10157500I-50000J0D01*
G01*
D14*
X7803400Y-6741000D02*
X7803400Y-6861000D01*
X7743400Y-6801000D02*
X7863400Y-6801000D01*
X8153400Y-6741000D02*
X8153400Y-6861000D01*
X8093400Y-6801000D02*
X8213400Y-6801000D01*
X8503400Y-6741000D02*
X8503400Y-6861000D01*
X8443400Y-6801000D02*
X8563400Y-6801000D01*
D15*
X7469982Y-8637583D02*
X7469982Y-8482018D01*
X7314417Y-8482018D01*
X7314417Y-8637583D01*
X7469982Y-8637583D01*
X8993983Y-8637583D02*
X8993983Y-8482018D01*
X8838418Y-8482018D01*
X8838418Y-8637583D01*
X8993983Y-8637583D01*
D16*
X7189000Y-6560800D02*
X7349000Y-6400800D01*
X7189000Y-6240800D01*
X7029000Y-6400800D01*
X7189000Y-6560800D01*
X7189000Y-13012400D02*
X7349000Y-12852400D01*
X7189000Y-12692400D01*
X7029000Y-12852400D01*
X7189000Y-13012400D01*
X9093200Y-6560800D02*
X9253200Y-6400800D01*
X9093200Y-6240800D01*
X8933200Y-6400800D01*
X9093200Y-6560800D01*
X9093200Y-13012400D02*
X9253200Y-12852400D01*
X9093200Y-12692400D01*
X8933200Y-12852400D01*
X9093200Y-13012400D01*
D11*
X7083519Y-13525976D02*
X7083519Y-13325976D01*
X7131138Y-13325976D01*
X7159709Y-13335500D01*
X7178757Y-13354548D01*
X7188281Y-13373595D01*
X7197805Y-13411690D01*
X7197805Y-13440262D01*
X7188281Y-13478357D01*
X7178757Y-13497405D01*
X7159709Y-13516452D01*
X7131138Y-13525976D01*
X7083519Y-13525976D01*
X7283519Y-13525976D02*
X7283519Y-13392643D01*
X7283519Y-13430738D02*
X7293043Y-13411690D01*
X7302567Y-13402167D01*
X7321614Y-13392643D01*
X7340662Y-13392643D01*
X7407328Y-13525976D02*
X7407328Y-13392643D01*
X7407328Y-13325976D02*
X7397805Y-13335500D01*
X7407328Y-13345024D01*
X7416852Y-13335500D01*
X7407328Y-13325976D01*
X7407328Y-13345024D01*
X7531138Y-13525976D02*
X7512090Y-13516452D01*
X7502567Y-13497405D01*
X7502567Y-13325976D01*
X7635900Y-13525976D02*
X7616852Y-13516452D01*
X7607328Y-13497405D01*
X7607328Y-13325976D01*
X7864471Y-13525976D02*
X7864471Y-13325976D01*
X7931138Y-13468833D01*
X7997805Y-13325976D01*
X7997805Y-13525976D01*
X8178757Y-13525976D02*
X8178757Y-13421214D01*
X8169233Y-13402167D01*
X8150186Y-13392643D01*
X8112090Y-13392643D01*
X8093043Y-13402167D01*
X8178757Y-13516452D02*
X8159709Y-13525976D01*
X8112090Y-13525976D01*
X8093043Y-13516452D01*
X8083519Y-13497405D01*
X8083519Y-13478357D01*
X8093043Y-13459309D01*
X8112090Y-13449786D01*
X8159709Y-13449786D01*
X8178757Y-13440262D01*
X8273995Y-13392643D02*
X8273995Y-13592643D01*
X8273995Y-13402167D02*
X8293043Y-13392643D01*
X8331138Y-13392643D01*
X8350186Y-13402167D01*
X8359709Y-13411690D01*
X8369233Y-13430738D01*
X8369233Y-13487881D01*
X8359709Y-13506928D01*
X8350186Y-13516452D01*
X8331138Y-13525976D01*
X8293043Y-13525976D01*
X8273995Y-13516452D01*
X8454948Y-13506928D02*
X8464471Y-13516452D01*
X8454948Y-13525976D01*
X8445424Y-13516452D01*
X8454948Y-13506928D01*
X8454948Y-13525976D01*
X8454948Y-13402167D02*
X8464471Y-13411690D01*
X8454948Y-13421214D01*
X8445424Y-13411690D01*
X8454948Y-13402167D01*
X8454948Y-13421214D01*
D12*
X6749700Y-13817400D02*
X6825900Y-13893600D01*
X6825900Y-13817400D02*
X6749700Y-13893600D01*
D11*
X7121614Y-13745976D02*
X7140662Y-13745976D01*
X7159709Y-13755500D01*
X7169233Y-13765024D01*
X7178757Y-13784071D01*
X7188281Y-13822167D01*
X7188281Y-13869786D01*
X7178757Y-13907881D01*
X7169233Y-13926928D01*
X7159709Y-13936452D01*
X7140662Y-13945976D01*
X7121614Y-13945976D01*
X7102567Y-13936452D01*
X7093043Y-13926928D01*
X7083519Y-13907881D01*
X7073995Y-13869786D01*
X7073995Y-13822167D01*
X7083519Y-13784071D01*
X7093043Y-13765024D01*
X7102567Y-13755500D01*
X7121614Y-13745976D01*
X7273995Y-13926928D02*
X7283519Y-13936452D01*
X7273995Y-13945976D01*
X7264471Y-13936452D01*
X7273995Y-13926928D01*
X7273995Y-13945976D01*
X7350186Y-13745976D02*
X7483519Y-13745976D01*
X7397805Y-13945976D01*
X7645424Y-13745976D02*
X7607328Y-13745976D01*
X7588281Y-13755500D01*
X7578757Y-13765024D01*
X7559709Y-13793595D01*
X7550186Y-13831690D01*
X7550186Y-13907881D01*
X7559709Y-13926928D01*
X7569233Y-13936452D01*
X7588281Y-13945976D01*
X7626376Y-13945976D01*
X7645424Y-13936452D01*
X7654948Y-13926928D01*
X7664471Y-13907881D01*
X7664471Y-13860262D01*
X7654948Y-13841214D01*
X7645424Y-13831690D01*
X7626376Y-13822167D01*
X7588281Y-13822167D01*
X7569233Y-13831690D01*
X7559709Y-13841214D01*
X7550186Y-13860262D01*
X7740662Y-13765024D02*
X7750186Y-13755500D01*
X7769233Y-13745976D01*
X7816852Y-13745976D01*
X7835900Y-13755500D01*
X7845424Y-13765024D01*
X7854948Y-13784071D01*
X7854948Y-13803119D01*
X7845424Y-13831690D01*
X7731138Y-13945976D01*
X7854948Y-13945976D01*
X7940662Y-13945976D02*
X7940662Y-13812643D01*
X7940662Y-13831690D02*
X7950186Y-13822167D01*
X7969233Y-13812643D01*
X7997805Y-13812643D01*
X8016852Y-13822167D01*
X8026376Y-13841214D01*
X8026376Y-13945976D01*
X8026376Y-13841214D02*
X8035900Y-13822167D01*
X8054948Y-13812643D01*
X8083519Y-13812643D01*
X8102567Y-13822167D01*
X8112090Y-13841214D01*
X8112090Y-13945976D01*
X8207328Y-13945976D02*
X8207328Y-13812643D01*
X8207328Y-13831690D02*
X8216852Y-13822167D01*
X8235900Y-13812643D01*
X8264471Y-13812643D01*
X8283519Y-13822167D01*
X8293043Y-13841214D01*
X8293043Y-13945976D01*
X8293043Y-13841214D02*
X8302567Y-13822167D01*
X8321614Y-13812643D01*
X8350186Y-13812643D01*
X8369233Y-13822167D01*
X8378757Y-13841214D01*
X8378757Y-13945976D01*
X8769233Y-13736452D02*
X8597805Y-13993595D01*
X9026376Y-13745976D02*
X9045424Y-13745976D01*
X9064471Y-13755500D01*
X9073995Y-13765024D01*
X9083519Y-13784071D01*
X9093043Y-13822167D01*
X9093043Y-13869786D01*
X9083519Y-13907881D01*
X9073995Y-13926928D01*
X9064471Y-13936452D01*
X9045424Y-13945976D01*
X9026376Y-13945976D01*
X9007329Y-13936452D01*
X8997805Y-13926928D01*
X8988281Y-13907881D01*
X8978757Y-13869786D01*
X8978757Y-13822167D01*
X8988281Y-13784071D01*
X8997805Y-13765024D01*
X9007329Y-13755500D01*
X9026376Y-13745976D01*
X9178757Y-13926928D02*
X9188281Y-13936452D01*
X9178757Y-13945976D01*
X9169233Y-13936452D01*
X9178757Y-13926928D01*
X9178757Y-13945976D01*
X9312090Y-13745976D02*
X9331138Y-13745976D01*
X9350186Y-13755500D01*
X9359710Y-13765024D01*
X9369233Y-13784071D01*
X9378757Y-13822167D01*
X9378757Y-13869786D01*
X9369233Y-13907881D01*
X9359710Y-13926928D01*
X9350186Y-13936452D01*
X9331138Y-13945976D01*
X9312090Y-13945976D01*
X9293043Y-13936452D01*
X9283519Y-13926928D01*
X9273995Y-13907881D01*
X9264471Y-13869786D01*
X9264471Y-13822167D01*
X9273995Y-13784071D01*
X9283519Y-13765024D01*
X9293043Y-13755500D01*
X9312090Y-13745976D01*
X9445424Y-13745976D02*
X9569233Y-13745976D01*
X9502567Y-13822167D01*
X9531138Y-13822167D01*
X9550186Y-13831690D01*
X9559710Y-13841214D01*
X9569233Y-13860262D01*
X9569233Y-13907881D01*
X9559710Y-13926928D01*
X9550186Y-13936452D01*
X9531138Y-13945976D01*
X9473995Y-13945976D01*
X9454948Y-13936452D01*
X9445424Y-13926928D01*
X9693043Y-13745976D02*
X9712090Y-13745976D01*
X9731138Y-13755500D01*
X9740662Y-13765024D01*
X9750186Y-13784071D01*
X9759710Y-13822167D01*
X9759710Y-13869786D01*
X9750186Y-13907881D01*
X9740662Y-13926928D01*
X9731138Y-13936452D01*
X9712090Y-13945976D01*
X9693043Y-13945976D01*
X9673995Y-13936452D01*
X9664471Y-13926928D01*
X9654948Y-13907881D01*
X9645424Y-13869786D01*
X9645424Y-13822167D01*
X9654948Y-13784071D01*
X9664471Y-13765024D01*
X9673995Y-13755500D01*
X9693043Y-13745976D01*
X9883519Y-13745976D02*
X9902567Y-13745976D01*
X9921614Y-13755500D01*
X9931138Y-13765024D01*
X9940662Y-13784071D01*
X9950186Y-13822167D01*
X9950186Y-13869786D01*
X9940662Y-13907881D01*
X9931138Y-13926928D01*
X9921614Y-13936452D01*
X9902567Y-13945976D01*
X9883519Y-13945976D01*
X9864471Y-13936452D01*
X9854948Y-13926928D01*
X9845424Y-13907881D01*
X9835900Y-13869786D01*
X9835900Y-13822167D01*
X9845424Y-13784071D01*
X9854948Y-13765024D01*
X9864471Y-13755500D01*
X9883519Y-13745976D01*
X10026376Y-13745976D02*
X10026376Y-13784071D01*
X10102567Y-13745976D02*
X10102567Y-13784071D01*
X10397805Y-14022167D02*
X10388281Y-14012643D01*
X10369233Y-13984071D01*
X10359710Y-13965024D01*
X10350186Y-13936452D01*
X10340662Y-13888833D01*
X10340662Y-13850738D01*
X10350186Y-13803119D01*
X10359710Y-13774548D01*
X10369233Y-13755500D01*
X10388281Y-13726928D01*
X10397805Y-13717405D01*
X10454948Y-13745976D02*
X10588281Y-13745976D01*
X10502567Y-13945976D01*
X10816852Y-13945976D02*
X10816852Y-13745976D01*
X10902567Y-13945976D02*
X10902567Y-13841214D01*
X10893043Y-13822167D01*
X10873995Y-13812643D01*
X10845424Y-13812643D01*
X10826376Y-13822167D01*
X10816852Y-13831690D01*
X11026376Y-13945976D02*
X11007329Y-13936452D01*
X10997805Y-13926928D01*
X10988281Y-13907881D01*
X10988281Y-13850738D01*
X10997805Y-13831690D01*
X11007329Y-13822167D01*
X11026376Y-13812643D01*
X11054948Y-13812643D01*
X11073995Y-13822167D01*
X11083519Y-13831690D01*
X11093043Y-13850738D01*
X11093043Y-13907881D01*
X11083519Y-13926928D01*
X11073995Y-13936452D01*
X11054948Y-13945976D01*
X11026376Y-13945976D01*
X11207328Y-13945976D02*
X11188281Y-13936452D01*
X11178757Y-13917405D01*
X11178757Y-13745976D01*
X11359709Y-13936452D02*
X11340662Y-13945976D01*
X11302567Y-13945976D01*
X11283519Y-13936452D01*
X11273995Y-13917405D01*
X11273995Y-13841214D01*
X11283519Y-13822167D01*
X11302567Y-13812643D01*
X11340662Y-13812643D01*
X11359709Y-13822167D01*
X11369233Y-13841214D01*
X11369233Y-13860262D01*
X11273995Y-13879309D01*
X11445424Y-13936452D02*
X11464471Y-13945976D01*
X11502567Y-13945976D01*
X11521614Y-13936452D01*
X11531138Y-13917405D01*
X11531138Y-13907881D01*
X11521614Y-13888833D01*
X11502567Y-13879309D01*
X11473995Y-13879309D01*
X11454948Y-13869786D01*
X11445424Y-13850738D01*
X11445424Y-13841214D01*
X11454948Y-13822167D01*
X11473995Y-13812643D01*
X11502567Y-13812643D01*
X11521614Y-13822167D01*
X11597805Y-14022167D02*
X11607328Y-14012643D01*
X11626376Y-13984071D01*
X11635900Y-13965024D01*
X11645424Y-13936452D01*
X11654948Y-13888833D01*
X11654948Y-13850738D01*
X11645424Y-13803119D01*
X11635900Y-13774548D01*
X11626376Y-13755500D01*
X11607328Y-13726928D01*
X11597805Y-13717405D01*
D13*
X6825900Y-14119500D02*
G75*
G03*
X6825900Y-14119500I-50000J0D01*
G01*
D11*
X7188281Y-14209976D02*
X7073995Y-14209976D01*
X7131138Y-14209976D02*
X7131138Y-14009976D01*
X7112090Y-14038548D01*
X7093043Y-14057595D01*
X7073995Y-14067119D01*
X7273995Y-14190928D02*
X7283519Y-14200452D01*
X7273995Y-14209976D01*
X7264471Y-14200452D01*
X7273995Y-14190928D01*
X7273995Y-14209976D01*
X7407328Y-14009976D02*
X7426376Y-14009976D01*
X7445424Y-14019500D01*
X7454948Y-14029024D01*
X7464471Y-14048071D01*
X7473995Y-14086167D01*
X7473995Y-14133786D01*
X7464471Y-14171881D01*
X7454948Y-14190928D01*
X7445424Y-14200452D01*
X7426376Y-14209976D01*
X7407328Y-14209976D01*
X7388281Y-14200452D01*
X7378757Y-14190928D01*
X7369233Y-14171881D01*
X7359709Y-14133786D01*
X7359709Y-14086167D01*
X7369233Y-14048071D01*
X7378757Y-14029024D01*
X7388281Y-14019500D01*
X7407328Y-14009976D01*
X7597805Y-14009976D02*
X7616852Y-14009976D01*
X7635900Y-14019500D01*
X7645424Y-14029024D01*
X7654948Y-14048071D01*
X7664471Y-14086167D01*
X7664471Y-14133786D01*
X7654948Y-14171881D01*
X7645424Y-14190928D01*
X7635900Y-14200452D01*
X7616852Y-14209976D01*
X7597805Y-14209976D01*
X7578757Y-14200452D01*
X7569233Y-14190928D01*
X7559709Y-14171881D01*
X7550186Y-14133786D01*
X7550186Y-14086167D01*
X7559709Y-14048071D01*
X7569233Y-14029024D01*
X7578757Y-14019500D01*
X7597805Y-14009976D01*
X7788281Y-14009976D02*
X7807328Y-14009976D01*
X7826376Y-14019500D01*
X7835900Y-14029024D01*
X7845424Y-14048071D01*
X7854948Y-14086167D01*
X7854948Y-14133786D01*
X7845424Y-14171881D01*
X7835900Y-14190928D01*
X7826376Y-14200452D01*
X7807328Y-14209976D01*
X7788281Y-14209976D01*
X7769233Y-14200452D01*
X7759709Y-14190928D01*
X7750186Y-14171881D01*
X7740662Y-14133786D01*
X7740662Y-14086167D01*
X7750186Y-14048071D01*
X7759709Y-14029024D01*
X7769233Y-14019500D01*
X7788281Y-14009976D01*
X7940662Y-14209976D02*
X7940662Y-14076643D01*
X7940662Y-14095690D02*
X7950186Y-14086167D01*
X7969233Y-14076643D01*
X7997805Y-14076643D01*
X8016852Y-14086167D01*
X8026376Y-14105214D01*
X8026376Y-14209976D01*
X8026376Y-14105214D02*
X8035900Y-14086167D01*
X8054948Y-14076643D01*
X8083519Y-14076643D01*
X8102567Y-14086167D01*
X8112090Y-14105214D01*
X8112090Y-14209976D01*
X8207328Y-14209976D02*
X8207328Y-14076643D01*
X8207328Y-14095690D02*
X8216852Y-14086167D01*
X8235900Y-14076643D01*
X8264471Y-14076643D01*
X8283519Y-14086167D01*
X8293043Y-14105214D01*
X8293043Y-14209976D01*
X8293043Y-14105214D02*
X8302567Y-14086167D01*
X8321614Y-14076643D01*
X8350186Y-14076643D01*
X8369233Y-14086167D01*
X8378757Y-14105214D01*
X8378757Y-14209976D01*
X8769233Y-14000452D02*
X8597805Y-14257595D01*
X9026376Y-14009976D02*
X9045424Y-14009976D01*
X9064471Y-14019500D01*
X9073995Y-14029024D01*
X9083519Y-14048071D01*
X9093043Y-14086167D01*
X9093043Y-14133786D01*
X9083519Y-14171881D01*
X9073995Y-14190928D01*
X9064471Y-14200452D01*
X9045424Y-14209976D01*
X9026376Y-14209976D01*
X9007329Y-14200452D01*
X8997805Y-14190928D01*
X8988281Y-14171881D01*
X8978757Y-14133786D01*
X8978757Y-14086167D01*
X8988281Y-14048071D01*
X8997805Y-14029024D01*
X9007329Y-14019500D01*
X9026376Y-14009976D01*
X9178757Y-14190928D02*
X9188281Y-14200452D01*
X9178757Y-14209976D01*
X9169233Y-14200452D01*
X9178757Y-14190928D01*
X9178757Y-14209976D01*
X9312090Y-14009976D02*
X9331138Y-14009976D01*
X9350186Y-14019500D01*
X9359710Y-14029024D01*
X9369233Y-14048071D01*
X9378757Y-14086167D01*
X9378757Y-14133786D01*
X9369233Y-14171881D01*
X9359710Y-14190928D01*
X9350186Y-14200452D01*
X9331138Y-14209976D01*
X9312090Y-14209976D01*
X9293043Y-14200452D01*
X9283519Y-14190928D01*
X9273995Y-14171881D01*
X9264471Y-14133786D01*
X9264471Y-14086167D01*
X9273995Y-14048071D01*
X9283519Y-14029024D01*
X9293043Y-14019500D01*
X9312090Y-14009976D01*
X9445424Y-14009976D02*
X9569233Y-14009976D01*
X9502567Y-14086167D01*
X9531138Y-14086167D01*
X9550186Y-14095690D01*
X9559710Y-14105214D01*
X9569233Y-14124262D01*
X9569233Y-14171881D01*
X9559710Y-14190928D01*
X9550186Y-14200452D01*
X9531138Y-14209976D01*
X9473995Y-14209976D01*
X9454948Y-14200452D01*
X9445424Y-14190928D01*
X9664471Y-14209976D02*
X9702567Y-14209976D01*
X9721614Y-14200452D01*
X9731138Y-14190928D01*
X9750186Y-14162357D01*
X9759710Y-14124262D01*
X9759710Y-14048071D01*
X9750186Y-14029024D01*
X9740662Y-14019500D01*
X9721614Y-14009976D01*
X9683519Y-14009976D01*
X9664471Y-14019500D01*
X9654948Y-14029024D01*
X9645424Y-14048071D01*
X9645424Y-14095690D01*
X9654948Y-14114738D01*
X9664471Y-14124262D01*
X9683519Y-14133786D01*
X9721614Y-14133786D01*
X9740662Y-14124262D01*
X9750186Y-14114738D01*
X9759710Y-14095690D01*
X9931138Y-14076643D02*
X9931138Y-14209976D01*
X9883519Y-14000452D02*
X9835900Y-14143309D01*
X9959710Y-14143309D01*
X10026376Y-14009976D02*
X10026376Y-14048071D01*
X10102567Y-14009976D02*
X10102567Y-14048071D01*
X10397805Y-14286167D02*
X10388281Y-14276643D01*
X10369233Y-14248071D01*
X10359710Y-14229024D01*
X10350186Y-14200452D01*
X10340662Y-14152833D01*
X10340662Y-14114738D01*
X10350186Y-14067119D01*
X10359710Y-14038548D01*
X10369233Y-14019500D01*
X10388281Y-13990928D01*
X10397805Y-13981405D01*
X10578757Y-14209976D02*
X10464471Y-14209976D01*
X10521614Y-14209976D02*
X10521614Y-14009976D01*
X10502567Y-14038548D01*
X10483519Y-14057595D01*
X10464471Y-14067119D01*
X10693043Y-14095690D02*
X10673995Y-14086167D01*
X10664471Y-14076643D01*
X10654948Y-14057595D01*
X10654948Y-14048071D01*
X10664471Y-14029024D01*
X10673995Y-14019500D01*
X10693043Y-14009976D01*
X10731138Y-14009976D01*
X10750186Y-14019500D01*
X10759710Y-14029024D01*
X10769233Y-14048071D01*
X10769233Y-14057595D01*
X10759710Y-14076643D01*
X10750186Y-14086167D01*
X10731138Y-14095690D01*
X10693043Y-14095690D01*
X10673995Y-14105214D01*
X10664471Y-14114738D01*
X10654948Y-14133786D01*
X10654948Y-14171881D01*
X10664471Y-14190928D01*
X10673995Y-14200452D01*
X10693043Y-14209976D01*
X10731138Y-14209976D01*
X10750186Y-14200452D01*
X10759710Y-14190928D01*
X10769233Y-14171881D01*
X10769233Y-14133786D01*
X10759710Y-14114738D01*
X10750186Y-14105214D01*
X10731138Y-14095690D01*
X11007329Y-14209976D02*
X11007329Y-14009976D01*
X11093043Y-14209976D02*
X11093043Y-14105214D01*
X11083519Y-14086167D01*
X11064471Y-14076643D01*
X11035900Y-14076643D01*
X11016852Y-14086167D01*
X11007329Y-14095690D01*
X11216852Y-14209976D02*
X11197805Y-14200452D01*
X11188281Y-14190928D01*
X11178757Y-14171881D01*
X11178757Y-14114738D01*
X11188281Y-14095690D01*
X11197805Y-14086167D01*
X11216852Y-14076643D01*
X11245424Y-14076643D01*
X11264471Y-14086167D01*
X11273995Y-14095690D01*
X11283519Y-14114738D01*
X11283519Y-14171881D01*
X11273995Y-14190928D01*
X11264471Y-14200452D01*
X11245424Y-14209976D01*
X11216852Y-14209976D01*
X11397805Y-14209976D02*
X11378757Y-14200452D01*
X11369233Y-14181405D01*
X11369233Y-14009976D01*
X11550186Y-14200452D02*
X11531138Y-14209976D01*
X11493043Y-14209976D01*
X11473995Y-14200452D01*
X11464471Y-14181405D01*
X11464471Y-14105214D01*
X11473995Y-14086167D01*
X11493043Y-14076643D01*
X11531138Y-14076643D01*
X11550186Y-14086167D01*
X11559709Y-14105214D01*
X11559709Y-14124262D01*
X11464471Y-14143309D01*
X11635900Y-14200452D02*
X11654948Y-14209976D01*
X11693043Y-14209976D01*
X11712090Y-14200452D01*
X11721614Y-14181405D01*
X11721614Y-14171881D01*
X11712090Y-14152833D01*
X11693043Y-14143309D01*
X11664471Y-14143309D01*
X11645424Y-14133786D01*
X11635900Y-14114738D01*
X11635900Y-14105214D01*
X11645424Y-14086167D01*
X11664471Y-14076643D01*
X11693043Y-14076643D01*
X11712090Y-14086167D01*
X11788281Y-14286167D02*
X11797805Y-14276643D01*
X11816852Y-14248071D01*
X11826376Y-14229024D01*
X11835900Y-14200452D01*
X11845424Y-14152833D01*
X11845424Y-14114738D01*
X11835900Y-14067119D01*
X11826376Y-14038548D01*
X11816852Y-14019500D01*
X11797805Y-13990928D01*
X11788281Y-13981405D01*
D14*
X6765900Y-14323500D02*
X6765900Y-14443500D01*
X6705900Y-14383500D02*
X6825900Y-14383500D01*
D11*
X7188281Y-14473976D02*
X7073995Y-14473976D01*
X7131138Y-14473976D02*
X7131138Y-14273976D01*
X7112090Y-14302548D01*
X7093043Y-14321595D01*
X7073995Y-14331119D01*
X7273995Y-14454928D02*
X7283519Y-14464452D01*
X7273995Y-14473976D01*
X7264471Y-14464452D01*
X7273995Y-14454928D01*
X7273995Y-14473976D01*
X7359709Y-14293024D02*
X7369233Y-14283500D01*
X7388281Y-14273976D01*
X7435900Y-14273976D01*
X7454948Y-14283500D01*
X7464471Y-14293024D01*
X7473995Y-14312071D01*
X7473995Y-14331119D01*
X7464471Y-14359690D01*
X7350186Y-14473976D01*
X7473995Y-14473976D01*
X7597805Y-14273976D02*
X7616852Y-14273976D01*
X7635900Y-14283500D01*
X7645424Y-14293024D01*
X7654948Y-14312071D01*
X7664471Y-14350167D01*
X7664471Y-14397786D01*
X7654948Y-14435881D01*
X7645424Y-14454928D01*
X7635900Y-14464452D01*
X7616852Y-14473976D01*
X7597805Y-14473976D01*
X7578757Y-14464452D01*
X7569233Y-14454928D01*
X7559709Y-14435881D01*
X7550186Y-14397786D01*
X7550186Y-14350167D01*
X7559709Y-14312071D01*
X7569233Y-14293024D01*
X7578757Y-14283500D01*
X7597805Y-14273976D01*
X7788281Y-14273976D02*
X7807328Y-14273976D01*
X7826376Y-14283500D01*
X7835900Y-14293024D01*
X7845424Y-14312071D01*
X7854948Y-14350167D01*
X7854948Y-14397786D01*
X7845424Y-14435881D01*
X7835900Y-14454928D01*
X7826376Y-14464452D01*
X7807328Y-14473976D01*
X7788281Y-14473976D01*
X7769233Y-14464452D01*
X7759709Y-14454928D01*
X7750186Y-14435881D01*
X7740662Y-14397786D01*
X7740662Y-14350167D01*
X7750186Y-14312071D01*
X7759709Y-14293024D01*
X7769233Y-14283500D01*
X7788281Y-14273976D01*
X7940662Y-14473976D02*
X7940662Y-14340643D01*
X7940662Y-14359690D02*
X7950186Y-14350167D01*
X7969233Y-14340643D01*
X7997805Y-14340643D01*
X8016852Y-14350167D01*
X8026376Y-14369214D01*
X8026376Y-14473976D01*
X8026376Y-14369214D02*
X8035900Y-14350167D01*
X8054948Y-14340643D01*
X8083519Y-14340643D01*
X8102567Y-14350167D01*
X8112090Y-14369214D01*
X8112090Y-14473976D01*
X8207328Y-14473976D02*
X8207328Y-14340643D01*
X8207328Y-14359690D02*
X8216852Y-14350167D01*
X8235900Y-14340643D01*
X8264471Y-14340643D01*
X8283519Y-14350167D01*
X8293043Y-14369214D01*
X8293043Y-14473976D01*
X8293043Y-14369214D02*
X8302567Y-14350167D01*
X8321614Y-14340643D01*
X8350186Y-14340643D01*
X8369233Y-14350167D01*
X8378757Y-14369214D01*
X8378757Y-14473976D01*
X8769233Y-14264452D02*
X8597805Y-14521595D01*
X9026376Y-14273976D02*
X9045424Y-14273976D01*
X9064471Y-14283500D01*
X9073995Y-14293024D01*
X9083519Y-14312071D01*
X9093043Y-14350167D01*
X9093043Y-14397786D01*
X9083519Y-14435881D01*
X9073995Y-14454928D01*
X9064471Y-14464452D01*
X9045424Y-14473976D01*
X9026376Y-14473976D01*
X9007329Y-14464452D01*
X8997805Y-14454928D01*
X8988281Y-14435881D01*
X8978757Y-14397786D01*
X8978757Y-14350167D01*
X8988281Y-14312071D01*
X8997805Y-14293024D01*
X9007329Y-14283500D01*
X9026376Y-14273976D01*
X9178757Y-14454928D02*
X9188281Y-14464452D01*
X9178757Y-14473976D01*
X9169233Y-14464452D01*
X9178757Y-14454928D01*
X9178757Y-14473976D01*
X9312090Y-14273976D02*
X9331138Y-14273976D01*
X9350186Y-14283500D01*
X9359710Y-14293024D01*
X9369233Y-14312071D01*
X9378757Y-14350167D01*
X9378757Y-14397786D01*
X9369233Y-14435881D01*
X9359710Y-14454928D01*
X9350186Y-14464452D01*
X9331138Y-14473976D01*
X9312090Y-14473976D01*
X9293043Y-14464452D01*
X9283519Y-14454928D01*
X9273995Y-14435881D01*
X9264471Y-14397786D01*
X9264471Y-14350167D01*
X9273995Y-14312071D01*
X9283519Y-14293024D01*
X9293043Y-14283500D01*
X9312090Y-14273976D01*
X9550186Y-14340643D02*
X9550186Y-14473976D01*
X9502567Y-14264452D02*
X9454948Y-14407309D01*
X9578757Y-14407309D01*
X9635900Y-14273976D02*
X9769233Y-14273976D01*
X9683519Y-14473976D01*
X9835900Y-14293024D02*
X9845424Y-14283500D01*
X9864471Y-14273976D01*
X9912090Y-14273976D01*
X9931138Y-14283500D01*
X9940662Y-14293024D01*
X9950186Y-14312071D01*
X9950186Y-14331119D01*
X9940662Y-14359690D01*
X9826376Y-14473976D01*
X9950186Y-14473976D01*
X10026376Y-14273976D02*
X10026376Y-14312071D01*
X10102567Y-14273976D02*
X10102567Y-14312071D01*
X10397805Y-14550167D02*
X10388281Y-14540643D01*
X10369233Y-14512071D01*
X10359710Y-14493024D01*
X10350186Y-14464452D01*
X10340662Y-14416833D01*
X10340662Y-14378738D01*
X10350186Y-14331119D01*
X10359710Y-14302548D01*
X10369233Y-14283500D01*
X10388281Y-14254928D01*
X10397805Y-14245405D01*
X10454948Y-14273976D02*
X10578757Y-14273976D01*
X10512090Y-14350167D01*
X10540662Y-14350167D01*
X10559710Y-14359690D01*
X10569233Y-14369214D01*
X10578757Y-14388262D01*
X10578757Y-14435881D01*
X10569233Y-14454928D01*
X10559710Y-14464452D01*
X10540662Y-14473976D01*
X10483519Y-14473976D01*
X10464471Y-14464452D01*
X10454948Y-14454928D01*
X10816852Y-14473976D02*
X10816852Y-14273976D01*
X10902567Y-14473976D02*
X10902567Y-14369214D01*
X10893043Y-14350167D01*
X10873995Y-14340643D01*
X10845424Y-14340643D01*
X10826376Y-14350167D01*
X10816852Y-14359690D01*
X11026376Y-14473976D02*
X11007329Y-14464452D01*
X10997805Y-14454928D01*
X10988281Y-14435881D01*
X10988281Y-14378738D01*
X10997805Y-14359690D01*
X11007329Y-14350167D01*
X11026376Y-14340643D01*
X11054948Y-14340643D01*
X11073995Y-14350167D01*
X11083519Y-14359690D01*
X11093043Y-14378738D01*
X11093043Y-14435881D01*
X11083519Y-14454928D01*
X11073995Y-14464452D01*
X11054948Y-14473976D01*
X11026376Y-14473976D01*
X11207328Y-14473976D02*
X11188281Y-14464452D01*
X11178757Y-14445405D01*
X11178757Y-14273976D01*
X11359709Y-14464452D02*
X11340662Y-14473976D01*
X11302567Y-14473976D01*
X11283519Y-14464452D01*
X11273995Y-14445405D01*
X11273995Y-14369214D01*
X11283519Y-14350167D01*
X11302567Y-14340643D01*
X11340662Y-14340643D01*
X11359709Y-14350167D01*
X11369233Y-14369214D01*
X11369233Y-14388262D01*
X11273995Y-14407309D01*
X11445424Y-14464452D02*
X11464471Y-14473976D01*
X11502567Y-14473976D01*
X11521614Y-14464452D01*
X11531138Y-14445405D01*
X11531138Y-14435881D01*
X11521614Y-14416833D01*
X11502567Y-14407309D01*
X11473995Y-14407309D01*
X11454948Y-14397786D01*
X11445424Y-14378738D01*
X11445424Y-14369214D01*
X11454948Y-14350167D01*
X11473995Y-14340643D01*
X11502567Y-14340643D01*
X11521614Y-14350167D01*
X11597805Y-14550167D02*
X11607328Y-14540643D01*
X11626376Y-14512071D01*
X11635900Y-14493024D01*
X11645424Y-14464452D01*
X11654948Y-14416833D01*
X11654948Y-14378738D01*
X11645424Y-14331119D01*
X11635900Y-14302548D01*
X11626376Y-14283500D01*
X11607328Y-14254928D01*
X11597805Y-14245405D01*
X6796611Y-14718211D02*
X6796611Y-14576789D01*
X6655189Y-14576789D01*
X6655189Y-14718211D01*
X6796611Y-14718211D01*
X7073995Y-14557024D02*
X7083519Y-14547500D01*
X7102567Y-14537976D01*
X7150186Y-14537976D01*
X7169233Y-14547500D01*
X7178757Y-14557024D01*
X7188281Y-14576071D01*
X7188281Y-14595119D01*
X7178757Y-14623690D01*
X7064471Y-14737976D01*
X7188281Y-14737976D01*
X7273995Y-14718928D02*
X7283519Y-14728452D01*
X7273995Y-14737976D01*
X7264471Y-14728452D01*
X7273995Y-14718928D01*
X7273995Y-14737976D01*
X7359709Y-14557024D02*
X7369233Y-14547500D01*
X7388281Y-14537976D01*
X7435900Y-14537976D01*
X7454948Y-14547500D01*
X7464471Y-14557024D01*
X7473995Y-14576071D01*
X7473995Y-14595119D01*
X7464471Y-14623690D01*
X7350186Y-14737976D01*
X7473995Y-14737976D01*
X7597805Y-14537976D02*
X7616852Y-14537976D01*
X7635900Y-14547500D01*
X7645424Y-14557024D01*
X7654948Y-14576071D01*
X7664471Y-14614167D01*
X7664471Y-14661786D01*
X7654948Y-14699881D01*
X7645424Y-14718928D01*
X7635900Y-14728452D01*
X7616852Y-14737976D01*
X7597805Y-14737976D01*
X7578757Y-14728452D01*
X7569233Y-14718928D01*
X7559709Y-14699881D01*
X7550186Y-14661786D01*
X7550186Y-14614167D01*
X7559709Y-14576071D01*
X7569233Y-14557024D01*
X7578757Y-14547500D01*
X7597805Y-14537976D01*
X7788281Y-14537976D02*
X7807328Y-14537976D01*
X7826376Y-14547500D01*
X7835900Y-14557024D01*
X7845424Y-14576071D01*
X7854948Y-14614167D01*
X7854948Y-14661786D01*
X7845424Y-14699881D01*
X7835900Y-14718928D01*
X7826376Y-14728452D01*
X7807328Y-14737976D01*
X7788281Y-14737976D01*
X7769233Y-14728452D01*
X7759709Y-14718928D01*
X7750186Y-14699881D01*
X7740662Y-14661786D01*
X7740662Y-14614167D01*
X7750186Y-14576071D01*
X7759709Y-14557024D01*
X7769233Y-14547500D01*
X7788281Y-14537976D01*
X7940662Y-14737976D02*
X7940662Y-14604643D01*
X7940662Y-14623690D02*
X7950186Y-14614167D01*
X7969233Y-14604643D01*
X7997805Y-14604643D01*
X8016852Y-14614167D01*
X8026376Y-14633214D01*
X8026376Y-14737976D01*
X8026376Y-14633214D02*
X8035900Y-14614167D01*
X8054948Y-14604643D01*
X8083519Y-14604643D01*
X8102567Y-14614167D01*
X8112090Y-14633214D01*
X8112090Y-14737976D01*
X8207328Y-14737976D02*
X8207328Y-14604643D01*
X8207328Y-14623690D02*
X8216852Y-14614167D01*
X8235900Y-14604643D01*
X8264471Y-14604643D01*
X8283519Y-14614167D01*
X8293043Y-14633214D01*
X8293043Y-14737976D01*
X8293043Y-14633214D02*
X8302567Y-14614167D01*
X8321614Y-14604643D01*
X8350186Y-14604643D01*
X8369233Y-14614167D01*
X8378757Y-14633214D01*
X8378757Y-14737976D01*
X8769233Y-14528452D02*
X8597805Y-14785595D01*
X9026376Y-14537976D02*
X9045424Y-14537976D01*
X9064471Y-14547500D01*
X9073995Y-14557024D01*
X9083519Y-14576071D01*
X9093043Y-14614167D01*
X9093043Y-14661786D01*
X9083519Y-14699881D01*
X9073995Y-14718928D01*
X9064471Y-14728452D01*
X9045424Y-14737976D01*
X9026376Y-14737976D01*
X9007329Y-14728452D01*
X8997805Y-14718928D01*
X8988281Y-14699881D01*
X8978757Y-14661786D01*
X8978757Y-14614167D01*
X8988281Y-14576071D01*
X8997805Y-14557024D01*
X9007329Y-14547500D01*
X9026376Y-14537976D01*
X9178757Y-14718928D02*
X9188281Y-14728452D01*
X9178757Y-14737976D01*
X9169233Y-14728452D01*
X9178757Y-14718928D01*
X9178757Y-14737976D01*
X9312090Y-14537976D02*
X9331138Y-14537976D01*
X9350186Y-14547500D01*
X9359710Y-14557024D01*
X9369233Y-14576071D01*
X9378757Y-14614167D01*
X9378757Y-14661786D01*
X9369233Y-14699881D01*
X9359710Y-14718928D01*
X9350186Y-14728452D01*
X9331138Y-14737976D01*
X9312090Y-14737976D01*
X9293043Y-14728452D01*
X9283519Y-14718928D01*
X9273995Y-14699881D01*
X9264471Y-14661786D01*
X9264471Y-14614167D01*
X9273995Y-14576071D01*
X9283519Y-14557024D01*
X9293043Y-14547500D01*
X9312090Y-14537976D01*
X9493043Y-14623690D02*
X9473995Y-14614167D01*
X9464471Y-14604643D01*
X9454948Y-14585595D01*
X9454948Y-14576071D01*
X9464471Y-14557024D01*
X9473995Y-14547500D01*
X9493043Y-14537976D01*
X9531138Y-14537976D01*
X9550186Y-14547500D01*
X9559710Y-14557024D01*
X9569233Y-14576071D01*
X9569233Y-14585595D01*
X9559710Y-14604643D01*
X9550186Y-14614167D01*
X9531138Y-14623690D01*
X9493043Y-14623690D01*
X9473995Y-14633214D01*
X9464471Y-14642738D01*
X9454948Y-14661786D01*
X9454948Y-14699881D01*
X9464471Y-14718928D01*
X9473995Y-14728452D01*
X9493043Y-14737976D01*
X9531138Y-14737976D01*
X9550186Y-14728452D01*
X9559710Y-14718928D01*
X9569233Y-14699881D01*
X9569233Y-14661786D01*
X9559710Y-14642738D01*
X9550186Y-14633214D01*
X9531138Y-14623690D01*
X9740662Y-14537976D02*
X9702567Y-14537976D01*
X9683519Y-14547500D01*
X9673995Y-14557024D01*
X9654948Y-14585595D01*
X9645424Y-14623690D01*
X9645424Y-14699881D01*
X9654948Y-14718928D01*
X9664471Y-14728452D01*
X9683519Y-14737976D01*
X9721614Y-14737976D01*
X9740662Y-14728452D01*
X9750186Y-14718928D01*
X9759710Y-14699881D01*
X9759710Y-14652262D01*
X9750186Y-14633214D01*
X9740662Y-14623690D01*
X9721614Y-14614167D01*
X9683519Y-14614167D01*
X9664471Y-14623690D01*
X9654948Y-14633214D01*
X9645424Y-14652262D01*
X9931138Y-14537976D02*
X9893043Y-14537976D01*
X9873995Y-14547500D01*
X9864471Y-14557024D01*
X9845424Y-14585595D01*
X9835900Y-14623690D01*
X9835900Y-14699881D01*
X9845424Y-14718928D01*
X9854948Y-14728452D01*
X9873995Y-14737976D01*
X9912090Y-14737976D01*
X9931138Y-14728452D01*
X9940662Y-14718928D01*
X9950186Y-14699881D01*
X9950186Y-14652262D01*
X9940662Y-14633214D01*
X9931138Y-14623690D01*
X9912090Y-14614167D01*
X9873995Y-14614167D01*
X9854948Y-14623690D01*
X9845424Y-14633214D01*
X9835900Y-14652262D01*
X10026376Y-14537976D02*
X10026376Y-14576071D01*
X10102567Y-14537976D02*
X10102567Y-14576071D01*
X10397805Y-14814167D02*
X10388281Y-14804643D01*
X10369233Y-14776071D01*
X10359710Y-14757024D01*
X10350186Y-14728452D01*
X10340662Y-14680833D01*
X10340662Y-14642738D01*
X10350186Y-14595119D01*
X10359710Y-14566548D01*
X10369233Y-14547500D01*
X10388281Y-14518928D01*
X10397805Y-14509405D01*
X10464471Y-14557024D02*
X10473995Y-14547500D01*
X10493043Y-14537976D01*
X10540662Y-14537976D01*
X10559710Y-14547500D01*
X10569233Y-14557024D01*
X10578757Y-14576071D01*
X10578757Y-14595119D01*
X10569233Y-14623690D01*
X10454948Y-14737976D01*
X10578757Y-14737976D01*
X10816852Y-14737976D02*
X10816852Y-14537976D01*
X10902567Y-14737976D02*
X10902567Y-14633214D01*
X10893043Y-14614167D01*
X10873995Y-14604643D01*
X10845424Y-14604643D01*
X10826376Y-14614167D01*
X10816852Y-14623690D01*
X11026376Y-14737976D02*
X11007329Y-14728452D01*
X10997805Y-14718928D01*
X10988281Y-14699881D01*
X10988281Y-14642738D01*
X10997805Y-14623690D01*
X11007329Y-14614167D01*
X11026376Y-14604643D01*
X11054948Y-14604643D01*
X11073995Y-14614167D01*
X11083519Y-14623690D01*
X11093043Y-14642738D01*
X11093043Y-14699881D01*
X11083519Y-14718928D01*
X11073995Y-14728452D01*
X11054948Y-14737976D01*
X11026376Y-14737976D01*
X11207328Y-14737976D02*
X11188281Y-14728452D01*
X11178757Y-14709405D01*
X11178757Y-14537976D01*
X11359709Y-14728452D02*
X11340662Y-14737976D01*
X11302567Y-14737976D01*
X11283519Y-14728452D01*
X11273995Y-14709405D01*
X11273995Y-14633214D01*
X11283519Y-14614167D01*
X11302567Y-14604643D01*
X11340662Y-14604643D01*
X11359709Y-14614167D01*
X11369233Y-14633214D01*
X11369233Y-14652262D01*
X11273995Y-14671309D01*
X11445424Y-14728452D02*
X11464471Y-14737976D01*
X11502567Y-14737976D01*
X11521614Y-14728452D01*
X11531138Y-14709405D01*
X11531138Y-14699881D01*
X11521614Y-14680833D01*
X11502567Y-14671309D01*
X11473995Y-14671309D01*
X11454948Y-14661786D01*
X11445424Y-14642738D01*
X11445424Y-14633214D01*
X11454948Y-14614167D01*
X11473995Y-14604643D01*
X11502567Y-14604643D01*
X11521614Y-14614167D01*
X11597805Y-14814167D02*
X11607328Y-14804643D01*
X11626376Y-14776071D01*
X11635900Y-14757024D01*
X11645424Y-14728452D01*
X11654948Y-14680833D01*
X11654948Y-14642738D01*
X11645424Y-14595119D01*
X11635900Y-14566548D01*
X11626376Y-14547500D01*
X11607328Y-14518928D01*
X11597805Y-14509405D01*
X6725900Y-15067500D02*
X6825900Y-14967500D01*
X6725900Y-14867500D01*
X6625900Y-14967500D01*
X6725900Y-15067500D01*
X7064471Y-14857976D02*
X7188281Y-14857976D01*
X7121614Y-14934167D01*
X7150186Y-14934167D01*
X7169233Y-14943690D01*
X7178757Y-14953214D01*
X7188281Y-14972262D01*
X7188281Y-15019881D01*
X7178757Y-15038928D01*
X7169233Y-15048452D01*
X7150186Y-15057976D01*
X7093043Y-15057976D01*
X7073995Y-15048452D01*
X7064471Y-15038928D01*
X7273995Y-15038928D02*
X7283519Y-15048452D01*
X7273995Y-15057976D01*
X7264471Y-15048452D01*
X7273995Y-15038928D01*
X7273995Y-15057976D01*
X7359709Y-14877024D02*
X7369233Y-14867500D01*
X7388281Y-14857976D01*
X7435900Y-14857976D01*
X7454948Y-14867500D01*
X7464471Y-14877024D01*
X7473995Y-14896071D01*
X7473995Y-14915119D01*
X7464471Y-14943690D01*
X7350186Y-15057976D01*
X7473995Y-15057976D01*
X7597805Y-14857976D02*
X7616852Y-14857976D01*
X7635900Y-14867500D01*
X7645424Y-14877024D01*
X7654948Y-14896071D01*
X7664471Y-14934167D01*
X7664471Y-14981786D01*
X7654948Y-15019881D01*
X7645424Y-15038928D01*
X7635900Y-15048452D01*
X7616852Y-15057976D01*
X7597805Y-15057976D01*
X7578757Y-15048452D01*
X7569233Y-15038928D01*
X7559709Y-15019881D01*
X7550186Y-14981786D01*
X7550186Y-14934167D01*
X7559709Y-14896071D01*
X7569233Y-14877024D01*
X7578757Y-14867500D01*
X7597805Y-14857976D01*
X7788281Y-14857976D02*
X7807328Y-14857976D01*
X7826376Y-14867500D01*
X7835900Y-14877024D01*
X7845424Y-14896071D01*
X7854948Y-14934167D01*
X7854948Y-14981786D01*
X7845424Y-15019881D01*
X7835900Y-15038928D01*
X7826376Y-15048452D01*
X7807328Y-15057976D01*
X7788281Y-15057976D01*
X7769233Y-15048452D01*
X7759709Y-15038928D01*
X7750186Y-15019881D01*
X7740662Y-14981786D01*
X7740662Y-14934167D01*
X7750186Y-14896071D01*
X7759709Y-14877024D01*
X7769233Y-14867500D01*
X7788281Y-14857976D01*
X7940662Y-15057976D02*
X7940662Y-14924643D01*
X7940662Y-14943690D02*
X7950186Y-14934167D01*
X7969233Y-14924643D01*
X7997805Y-14924643D01*
X8016852Y-14934167D01*
X8026376Y-14953214D01*
X8026376Y-15057976D01*
X8026376Y-14953214D02*
X8035900Y-14934167D01*
X8054948Y-14924643D01*
X8083519Y-14924643D01*
X8102567Y-14934167D01*
X8112090Y-14953214D01*
X8112090Y-15057976D01*
X8207328Y-15057976D02*
X8207328Y-14924643D01*
X8207328Y-14943690D02*
X8216852Y-14934167D01*
X8235900Y-14924643D01*
X8264471Y-14924643D01*
X8283519Y-14934167D01*
X8293043Y-14953214D01*
X8293043Y-15057976D01*
X8293043Y-14953214D02*
X8302567Y-14934167D01*
X8321614Y-14924643D01*
X8350186Y-14924643D01*
X8369233Y-14934167D01*
X8378757Y-14953214D01*
X8378757Y-15057976D01*
X8769233Y-14848452D02*
X8597805Y-15105595D01*
X9026376Y-14857976D02*
X9045424Y-14857976D01*
X9064471Y-14867500D01*
X9073995Y-14877024D01*
X9083519Y-14896071D01*
X9093043Y-14934167D01*
X9093043Y-14981786D01*
X9083519Y-15019881D01*
X9073995Y-15038928D01*
X9064471Y-15048452D01*
X9045424Y-15057976D01*
X9026376Y-15057976D01*
X9007329Y-15048452D01*
X8997805Y-15038928D01*
X8988281Y-15019881D01*
X8978757Y-14981786D01*
X8978757Y-14934167D01*
X8988281Y-14896071D01*
X8997805Y-14877024D01*
X9007329Y-14867500D01*
X9026376Y-14857976D01*
X9178757Y-15038928D02*
X9188281Y-15048452D01*
X9178757Y-15057976D01*
X9169233Y-15048452D01*
X9178757Y-15038928D01*
X9178757Y-15057976D01*
X9378757Y-15057976D02*
X9264471Y-15057976D01*
X9321614Y-15057976D02*
X9321614Y-14857976D01*
X9302567Y-14886548D01*
X9283519Y-14905595D01*
X9264471Y-14915119D01*
X9454948Y-14877024D02*
X9464471Y-14867500D01*
X9483519Y-14857976D01*
X9531138Y-14857976D01*
X9550186Y-14867500D01*
X9559710Y-14877024D01*
X9569233Y-14896071D01*
X9569233Y-14915119D01*
X9559710Y-14943690D01*
X9445424Y-15057976D01*
X9569233Y-15057976D01*
X9740662Y-14857976D02*
X9702567Y-14857976D01*
X9683519Y-14867500D01*
X9673995Y-14877024D01*
X9654948Y-14905595D01*
X9645424Y-14943690D01*
X9645424Y-15019881D01*
X9654948Y-15038928D01*
X9664471Y-15048452D01*
X9683519Y-15057976D01*
X9721614Y-15057976D01*
X9740662Y-15048452D01*
X9750186Y-15038928D01*
X9759710Y-15019881D01*
X9759710Y-14972262D01*
X9750186Y-14953214D01*
X9740662Y-14943690D01*
X9721614Y-14934167D01*
X9683519Y-14934167D01*
X9664471Y-14943690D01*
X9654948Y-14953214D01*
X9645424Y-14972262D01*
X9883519Y-14857976D02*
X9902567Y-14857976D01*
X9921614Y-14867500D01*
X9931138Y-14877024D01*
X9940662Y-14896071D01*
X9950186Y-14934167D01*
X9950186Y-14981786D01*
X9940662Y-15019881D01*
X9931138Y-15038928D01*
X9921614Y-15048452D01*
X9902567Y-15057976D01*
X9883519Y-15057976D01*
X9864471Y-15048452D01*
X9854948Y-15038928D01*
X9845424Y-15019881D01*
X9835900Y-14981786D01*
X9835900Y-14934167D01*
X9845424Y-14896071D01*
X9854948Y-14877024D01*
X9864471Y-14867500D01*
X9883519Y-14857976D01*
X10026376Y-14857976D02*
X10026376Y-14896071D01*
X10102567Y-14857976D02*
X10102567Y-14896071D01*
X10397805Y-15134167D02*
X10388281Y-15124643D01*
X10369233Y-15096071D01*
X10359710Y-15077024D01*
X10350186Y-15048452D01*
X10340662Y-15000833D01*
X10340662Y-14962738D01*
X10350186Y-14915119D01*
X10359710Y-14886548D01*
X10369233Y-14867500D01*
X10388281Y-14838928D01*
X10397805Y-14829405D01*
X10559710Y-14924643D02*
X10559710Y-15057976D01*
X10512090Y-14848452D02*
X10464471Y-14991309D01*
X10588281Y-14991309D01*
X10816852Y-15057976D02*
X10816852Y-14857976D01*
X10902567Y-15057976D02*
X10902567Y-14953214D01*
X10893043Y-14934167D01*
X10873995Y-14924643D01*
X10845424Y-14924643D01*
X10826376Y-14934167D01*
X10816852Y-14943690D01*
X11026376Y-15057976D02*
X11007329Y-15048452D01*
X10997805Y-15038928D01*
X10988281Y-15019881D01*
X10988281Y-14962738D01*
X10997805Y-14943690D01*
X11007329Y-14934167D01*
X11026376Y-14924643D01*
X11054948Y-14924643D01*
X11073995Y-14934167D01*
X11083519Y-14943690D01*
X11093043Y-14962738D01*
X11093043Y-15019881D01*
X11083519Y-15038928D01*
X11073995Y-15048452D01*
X11054948Y-15057976D01*
X11026376Y-15057976D01*
X11207328Y-15057976D02*
X11188281Y-15048452D01*
X11178757Y-15029405D01*
X11178757Y-14857976D01*
X11359709Y-15048452D02*
X11340662Y-15057976D01*
X11302567Y-15057976D01*
X11283519Y-15048452D01*
X11273995Y-15029405D01*
X11273995Y-14953214D01*
X11283519Y-14934167D01*
X11302567Y-14924643D01*
X11340662Y-14924643D01*
X11359709Y-14934167D01*
X11369233Y-14953214D01*
X11369233Y-14972262D01*
X11273995Y-14991309D01*
X11445424Y-15048452D02*
X11464471Y-15057976D01*
X11502567Y-15057976D01*
X11521614Y-15048452D01*
X11531138Y-15029405D01*
X11531138Y-15019881D01*
X11521614Y-15000833D01*
X11502567Y-14991309D01*
X11473995Y-14991309D01*
X11454948Y-14981786D01*
X11445424Y-14962738D01*
X11445424Y-14953214D01*
X11454948Y-14934167D01*
X11473995Y-14924643D01*
X11502567Y-14924643D01*
X11521614Y-14934167D01*
X11597805Y-15134167D02*
X11607328Y-15124643D01*
X11626376Y-15096071D01*
X11635900Y-15077024D01*
X11645424Y-15048452D01*
X11654948Y-15000833D01*
X11654948Y-14962738D01*
X11645424Y-14915119D01*
X11635900Y-14886548D01*
X11626376Y-14867500D01*
X11607328Y-14838928D01*
X11597805Y-14829405D01*
X11959709Y-15134167D02*
X11950186Y-15124643D01*
X11931138Y-15096071D01*
X11921614Y-15077024D01*
X11912090Y-15048452D01*
X11902567Y-15000833D01*
X11902567Y-14962738D01*
X11912090Y-14915119D01*
X11921614Y-14886548D01*
X11931138Y-14867500D01*
X11950186Y-14838928D01*
X11959709Y-14829405D01*
X12035900Y-14924643D02*
X12035900Y-15057976D01*
X12035900Y-14943690D02*
X12045424Y-14934167D01*
X12064471Y-14924643D01*
X12093043Y-14924643D01*
X12112090Y-14934167D01*
X12121614Y-14953214D01*
X12121614Y-15057976D01*
X12245424Y-15057976D02*
X12226376Y-15048452D01*
X12216852Y-15038928D01*
X12207328Y-15019881D01*
X12207328Y-14962738D01*
X12216852Y-14943690D01*
X12226376Y-14934167D01*
X12245424Y-14924643D01*
X12273995Y-14924643D01*
X12293043Y-14934167D01*
X12302567Y-14943690D01*
X12312090Y-14962738D01*
X12312090Y-15019881D01*
X12302567Y-15038928D01*
X12293043Y-15048452D01*
X12273995Y-15057976D01*
X12245424Y-15057976D01*
X12369233Y-14924643D02*
X12445424Y-14924643D01*
X12397805Y-14857976D02*
X12397805Y-15029405D01*
X12407328Y-15048452D01*
X12426376Y-15057976D01*
X12445424Y-15057976D01*
X12664471Y-14924643D02*
X12664471Y-15124643D01*
X12664471Y-14934167D02*
X12683519Y-14924643D01*
X12721614Y-14924643D01*
X12740662Y-14934167D01*
X12750186Y-14943690D01*
X12759709Y-14962738D01*
X12759709Y-15019881D01*
X12750186Y-15038928D01*
X12740662Y-15048452D01*
X12721614Y-15057976D01*
X12683519Y-15057976D01*
X12664471Y-15048452D01*
X12873995Y-15057976D02*
X12854948Y-15048452D01*
X12845424Y-15029405D01*
X12845424Y-14857976D01*
X13035900Y-15057976D02*
X13035900Y-14953214D01*
X13026376Y-14934167D01*
X13007328Y-14924643D01*
X12969233Y-14924643D01*
X12950186Y-14934167D01*
X13035900Y-15048452D02*
X13016852Y-15057976D01*
X12969233Y-15057976D01*
X12950186Y-15048452D01*
X12940662Y-15029405D01*
X12940662Y-15010357D01*
X12950186Y-14991309D01*
X12969233Y-14981786D01*
X13016852Y-14981786D01*
X13035900Y-14972262D01*
X13102567Y-14924643D02*
X13178757Y-14924643D01*
X13131138Y-14857976D02*
X13131138Y-15029405D01*
X13140662Y-15048452D01*
X13159709Y-15057976D01*
X13178757Y-15057976D01*
X13321614Y-15048452D02*
X13302567Y-15057976D01*
X13264471Y-15057976D01*
X13245424Y-15048452D01*
X13235900Y-15029405D01*
X13235900Y-14953214D01*
X13245424Y-14934167D01*
X13264471Y-14924643D01*
X13302567Y-14924643D01*
X13321614Y-14934167D01*
X13331138Y-14953214D01*
X13331138Y-14972262D01*
X13235900Y-14991309D01*
X13502567Y-15057976D02*
X13502567Y-14857976D01*
X13502567Y-15048452D02*
X13483519Y-15057976D01*
X13445424Y-15057976D01*
X13426376Y-15048452D01*
X13416852Y-15038928D01*
X13407328Y-15019881D01*
X13407328Y-14962738D01*
X13416852Y-14943690D01*
X13426376Y-14934167D01*
X13445424Y-14924643D01*
X13483519Y-14924643D01*
X13502567Y-14934167D01*
X13578757Y-15134167D02*
X13588281Y-15124643D01*
X13607328Y-15096071D01*
X13616852Y-15077024D01*
X13626376Y-15048452D01*
X13635900Y-15000833D01*
X13635900Y-14962738D01*
X13626376Y-14915119D01*
X13616852Y-14886548D01*
X13607328Y-14867500D01*
X13588281Y-14838928D01*
X13578757Y-14829405D01*
M02*
