M48
METRIC
T1C0.762
T2C1.000
T3C1.520
%
G90
G05
T1
X73.66Y-76.835
X74.93Y-116.84
X76.2Y-76.835
X77.47Y-116.84
X78.74Y-76.835
X80.01Y-116.84
X81.28Y-76.835
X82.55Y-116.84
X83.82Y-76.835
T2
X67.31Y-86.36
X67.31Y-88.9
X67.31Y-91.44
X67.31Y-93.98
X67.31Y-96.52
X67.31Y-99.06
X67.31Y-109.22
X67.31Y-111.76
X67.31Y-114.3
X67.31Y-116.84
X67.31Y-119.38
X67.31Y-121.92
X77.47Y-86.36
X77.47Y-88.9
X77.47Y-91.44
X77.47Y-93.98
X77.47Y-96.52
X77.47Y-99.06
T3
X71.12Y-60.452
X76.2Y-60.452
X81.28Y-60.452
T0
M30
