%FSLAX45Y45*%
G04 Gerber Fmt 4.5, Leading zero omitted, Abs format (unit mm)*
G04 Created by KiCad (PCBNEW 5.1.10-88a1d61d58~88~ubuntu20.04.1) date 2021-06-06 20:10:42*
%MOMM*%
%LPD*%
G01*
G04 APERTURE LIST*
%TA.AperFunction,Profile*%
%ADD10C,0.050000*%
%TD*%
%ADD11C,0.200000*%
%ADD12C,0.300000*%
G04 APERTURE END LIST*
D10*
X8636000Y-5461000D02*
G75*
G02*
X8890000Y-5715000I0J-254000D01*
G01*
X8890000Y-12446000D02*
G75*
G02*
X8636000Y-12700000I-254000J0D01*
G01*
X6604000Y-12700000D02*
G75*
G02*
X6350000Y-12446000I0J254000D01*
G01*
X6350000Y-5715000D02*
G75*
G02*
X6604000Y-5461000I254000J0D01*
G01*
X8890000Y-5715000D02*
X8890000Y-12446000D01*
X6604000Y-12700000D02*
X8636000Y-12700000D01*
X6604000Y-5461000D02*
X8636000Y-5461000D01*
X6350000Y-12446000D02*
X6350000Y-5715000D01*
D11*
X7327900Y-7645400D02*
X7404100Y-7721600D01*
X7404100Y-7645400D02*
X7327900Y-7721600D01*
X7454900Y-11645900D02*
X7531100Y-11722100D01*
X7531100Y-11645900D02*
X7454900Y-11722100D01*
X7581900Y-7645400D02*
X7658100Y-7721600D01*
X7658100Y-7645400D02*
X7581900Y-7721600D01*
X7708900Y-11645900D02*
X7785100Y-11722100D01*
X7785100Y-11645900D02*
X7708900Y-11722100D01*
X7835900Y-7645400D02*
X7912100Y-7721600D01*
X7912100Y-7645400D02*
X7835900Y-7721600D01*
X7962900Y-11645900D02*
X8039100Y-11722100D01*
X8039100Y-11645900D02*
X7962900Y-11722100D01*
X8089900Y-7645400D02*
X8166100Y-7721600D01*
X8166100Y-7645400D02*
X8089900Y-7721600D01*
X8216900Y-11645900D02*
X8293100Y-11722100D01*
X8293100Y-11645900D02*
X8216900Y-11722100D01*
X8343900Y-7645400D02*
X8420100Y-7721600D01*
X8420100Y-7645400D02*
X8343900Y-7721600D01*
X6781000Y-8636000D02*
G75*
G03*
X6781000Y-8636000I-50000J0D01*
G01*
X6781000Y-8890000D02*
G75*
G03*
X6781000Y-8890000I-50000J0D01*
G01*
X6781000Y-9144000D02*
G75*
G03*
X6781000Y-9144000I-50000J0D01*
G01*
X6781000Y-9398000D02*
G75*
G03*
X6781000Y-9398000I-50000J0D01*
G01*
X6781000Y-9652000D02*
G75*
G03*
X6781000Y-9652000I-50000J0D01*
G01*
X6781000Y-9906000D02*
G75*
G03*
X6781000Y-9906000I-50000J0D01*
G01*
X6781000Y-10922000D02*
G75*
G03*
X6781000Y-10922000I-50000J0D01*
G01*
X6781000Y-11176000D02*
G75*
G03*
X6781000Y-11176000I-50000J0D01*
G01*
X6781000Y-11430000D02*
G75*
G03*
X6781000Y-11430000I-50000J0D01*
G01*
X6781000Y-11684000D02*
G75*
G03*
X6781000Y-11684000I-50000J0D01*
G01*
X6781000Y-11938000D02*
G75*
G03*
X6781000Y-11938000I-50000J0D01*
G01*
X6781000Y-12192000D02*
G75*
G03*
X6781000Y-12192000I-50000J0D01*
G01*
X7797000Y-8636000D02*
G75*
G03*
X7797000Y-8636000I-50000J0D01*
G01*
X7797000Y-8890000D02*
G75*
G03*
X7797000Y-8890000I-50000J0D01*
G01*
X7797000Y-9144000D02*
G75*
G03*
X7797000Y-9144000I-50000J0D01*
G01*
X7797000Y-9398000D02*
G75*
G03*
X7797000Y-9398000I-50000J0D01*
G01*
X7797000Y-9652000D02*
G75*
G03*
X7797000Y-9652000I-50000J0D01*
G01*
X7797000Y-9906000D02*
G75*
G03*
X7797000Y-9906000I-50000J0D01*
G01*
X7112000Y-5969200D02*
X7112000Y-6121200D01*
X7036000Y-6045200D02*
X7188000Y-6045200D01*
X7620000Y-5969200D02*
X7620000Y-6121200D01*
X7544000Y-6045200D02*
X7696000Y-6045200D01*
X8128000Y-5969200D02*
X8128000Y-6121200D01*
X8052000Y-6045200D02*
X8204000Y-6045200D01*
D12*
X6633928Y-13168214D02*
X6633928Y-12868214D01*
X6705357Y-12868214D01*
X6748214Y-12882500D01*
X6776786Y-12911071D01*
X6791071Y-12939643D01*
X6805357Y-12996786D01*
X6805357Y-13039643D01*
X6791071Y-13096786D01*
X6776786Y-13125357D01*
X6748214Y-13153929D01*
X6705357Y-13168214D01*
X6633928Y-13168214D01*
X6933928Y-13168214D02*
X6933928Y-12968214D01*
X6933928Y-13025357D02*
X6948214Y-12996786D01*
X6962500Y-12982500D01*
X6991071Y-12968214D01*
X7019643Y-12968214D01*
X7119643Y-13168214D02*
X7119643Y-12968214D01*
X7119643Y-12868214D02*
X7105357Y-12882500D01*
X7119643Y-12896786D01*
X7133928Y-12882500D01*
X7119643Y-12868214D01*
X7119643Y-12896786D01*
X7305357Y-13168214D02*
X7276786Y-13153929D01*
X7262500Y-13125357D01*
X7262500Y-12868214D01*
X7462500Y-13168214D02*
X7433928Y-13153929D01*
X7419643Y-13125357D01*
X7419643Y-12868214D01*
X7805357Y-13168214D02*
X7805357Y-12868214D01*
X7905357Y-13082500D01*
X8005357Y-12868214D01*
X8005357Y-13168214D01*
X8276786Y-13168214D02*
X8276786Y-13011071D01*
X8262500Y-12982500D01*
X8233928Y-12968214D01*
X8176786Y-12968214D01*
X8148214Y-12982500D01*
X8276786Y-13153929D02*
X8248214Y-13168214D01*
X8176786Y-13168214D01*
X8148214Y-13153929D01*
X8133928Y-13125357D01*
X8133928Y-13096786D01*
X8148214Y-13068214D01*
X8176786Y-13053929D01*
X8248214Y-13053929D01*
X8276786Y-13039643D01*
X8419643Y-12968214D02*
X8419643Y-13268214D01*
X8419643Y-12982500D02*
X8448214Y-12968214D01*
X8505357Y-12968214D01*
X8533928Y-12982500D01*
X8548214Y-12996786D01*
X8562500Y-13025357D01*
X8562500Y-13111071D01*
X8548214Y-13139643D01*
X8533928Y-13153929D01*
X8505357Y-13168214D01*
X8448214Y-13168214D01*
X8419643Y-13153929D01*
X8691071Y-13139643D02*
X8705357Y-13153929D01*
X8691071Y-13168214D01*
X8676786Y-13153929D01*
X8691071Y-13139643D01*
X8691071Y-13168214D01*
X8691071Y-12982500D02*
X8705357Y-12996786D01*
X8691071Y-13011071D01*
X8676786Y-12996786D01*
X8691071Y-12982500D01*
X8691071Y-13011071D01*
X6271300Y-13624400D02*
X6347500Y-13700600D01*
X6347500Y-13624400D02*
X6271300Y-13700600D01*
X6691071Y-13498214D02*
X6719643Y-13498214D01*
X6748214Y-13512500D01*
X6762500Y-13526786D01*
X6776786Y-13555357D01*
X6791071Y-13612500D01*
X6791071Y-13683929D01*
X6776786Y-13741071D01*
X6762500Y-13769643D01*
X6748214Y-13783929D01*
X6719643Y-13798214D01*
X6691071Y-13798214D01*
X6662500Y-13783929D01*
X6648214Y-13769643D01*
X6633928Y-13741071D01*
X6619643Y-13683929D01*
X6619643Y-13612500D01*
X6633928Y-13555357D01*
X6648214Y-13526786D01*
X6662500Y-13512500D01*
X6691071Y-13498214D01*
X6919643Y-13769643D02*
X6933928Y-13783929D01*
X6919643Y-13798214D01*
X6905357Y-13783929D01*
X6919643Y-13769643D01*
X6919643Y-13798214D01*
X7033928Y-13498214D02*
X7233928Y-13498214D01*
X7105357Y-13798214D01*
X7476786Y-13498214D02*
X7419643Y-13498214D01*
X7391071Y-13512500D01*
X7376786Y-13526786D01*
X7348214Y-13569643D01*
X7333928Y-13626786D01*
X7333928Y-13741071D01*
X7348214Y-13769643D01*
X7362500Y-13783929D01*
X7391071Y-13798214D01*
X7448214Y-13798214D01*
X7476786Y-13783929D01*
X7491071Y-13769643D01*
X7505357Y-13741071D01*
X7505357Y-13669643D01*
X7491071Y-13641071D01*
X7476786Y-13626786D01*
X7448214Y-13612500D01*
X7391071Y-13612500D01*
X7362500Y-13626786D01*
X7348214Y-13641071D01*
X7333928Y-13669643D01*
X7619643Y-13526786D02*
X7633928Y-13512500D01*
X7662500Y-13498214D01*
X7733928Y-13498214D01*
X7762500Y-13512500D01*
X7776786Y-13526786D01*
X7791071Y-13555357D01*
X7791071Y-13583929D01*
X7776786Y-13626786D01*
X7605357Y-13798214D01*
X7791071Y-13798214D01*
X7919643Y-13798214D02*
X7919643Y-13598214D01*
X7919643Y-13626786D02*
X7933928Y-13612500D01*
X7962500Y-13598214D01*
X8005357Y-13598214D01*
X8033928Y-13612500D01*
X8048214Y-13641071D01*
X8048214Y-13798214D01*
X8048214Y-13641071D02*
X8062500Y-13612500D01*
X8091071Y-13598214D01*
X8133928Y-13598214D01*
X8162500Y-13612500D01*
X8176786Y-13641071D01*
X8176786Y-13798214D01*
X8319643Y-13798214D02*
X8319643Y-13598214D01*
X8319643Y-13626786D02*
X8333928Y-13612500D01*
X8362500Y-13598214D01*
X8405357Y-13598214D01*
X8433928Y-13612500D01*
X8448214Y-13641071D01*
X8448214Y-13798214D01*
X8448214Y-13641071D02*
X8462500Y-13612500D01*
X8491071Y-13598214D01*
X8533928Y-13598214D01*
X8562500Y-13612500D01*
X8576786Y-13641071D01*
X8576786Y-13798214D01*
X9162500Y-13483929D02*
X8905357Y-13869643D01*
X9548214Y-13498214D02*
X9576786Y-13498214D01*
X9605357Y-13512500D01*
X9619643Y-13526786D01*
X9633928Y-13555357D01*
X9648214Y-13612500D01*
X9648214Y-13683929D01*
X9633928Y-13741071D01*
X9619643Y-13769643D01*
X9605357Y-13783929D01*
X9576786Y-13798214D01*
X9548214Y-13798214D01*
X9519643Y-13783929D01*
X9505357Y-13769643D01*
X9491071Y-13741071D01*
X9476786Y-13683929D01*
X9476786Y-13612500D01*
X9491071Y-13555357D01*
X9505357Y-13526786D01*
X9519643Y-13512500D01*
X9548214Y-13498214D01*
X9776786Y-13769643D02*
X9791071Y-13783929D01*
X9776786Y-13798214D01*
X9762500Y-13783929D01*
X9776786Y-13769643D01*
X9776786Y-13798214D01*
X9976786Y-13498214D02*
X10005357Y-13498214D01*
X10033928Y-13512500D01*
X10048214Y-13526786D01*
X10062500Y-13555357D01*
X10076786Y-13612500D01*
X10076786Y-13683929D01*
X10062500Y-13741071D01*
X10048214Y-13769643D01*
X10033928Y-13783929D01*
X10005357Y-13798214D01*
X9976786Y-13798214D01*
X9948214Y-13783929D01*
X9933928Y-13769643D01*
X9919643Y-13741071D01*
X9905357Y-13683929D01*
X9905357Y-13612500D01*
X9919643Y-13555357D01*
X9933928Y-13526786D01*
X9948214Y-13512500D01*
X9976786Y-13498214D01*
X10176786Y-13498214D02*
X10362500Y-13498214D01*
X10262500Y-13612500D01*
X10305357Y-13612500D01*
X10333928Y-13626786D01*
X10348214Y-13641071D01*
X10362500Y-13669643D01*
X10362500Y-13741071D01*
X10348214Y-13769643D01*
X10333928Y-13783929D01*
X10305357Y-13798214D01*
X10219643Y-13798214D01*
X10191071Y-13783929D01*
X10176786Y-13769643D01*
X10548214Y-13498214D02*
X10576786Y-13498214D01*
X10605357Y-13512500D01*
X10619643Y-13526786D01*
X10633928Y-13555357D01*
X10648214Y-13612500D01*
X10648214Y-13683929D01*
X10633928Y-13741071D01*
X10619643Y-13769643D01*
X10605357Y-13783929D01*
X10576786Y-13798214D01*
X10548214Y-13798214D01*
X10519643Y-13783929D01*
X10505357Y-13769643D01*
X10491071Y-13741071D01*
X10476786Y-13683929D01*
X10476786Y-13612500D01*
X10491071Y-13555357D01*
X10505357Y-13526786D01*
X10519643Y-13512500D01*
X10548214Y-13498214D01*
X10833928Y-13498214D02*
X10862500Y-13498214D01*
X10891071Y-13512500D01*
X10905357Y-13526786D01*
X10919643Y-13555357D01*
X10933928Y-13612500D01*
X10933928Y-13683929D01*
X10919643Y-13741071D01*
X10905357Y-13769643D01*
X10891071Y-13783929D01*
X10862500Y-13798214D01*
X10833928Y-13798214D01*
X10805357Y-13783929D01*
X10791071Y-13769643D01*
X10776786Y-13741071D01*
X10762500Y-13683929D01*
X10762500Y-13612500D01*
X10776786Y-13555357D01*
X10791071Y-13526786D01*
X10805357Y-13512500D01*
X10833928Y-13498214D01*
X11048214Y-13498214D02*
X11048214Y-13555357D01*
X11162500Y-13498214D02*
X11162500Y-13555357D01*
X11605357Y-13912500D02*
X11591071Y-13898214D01*
X11562500Y-13855357D01*
X11548214Y-13826786D01*
X11533928Y-13783929D01*
X11519643Y-13712500D01*
X11519643Y-13655357D01*
X11533928Y-13583929D01*
X11548214Y-13541071D01*
X11562500Y-13512500D01*
X11591071Y-13469643D01*
X11605357Y-13455357D01*
X11733928Y-13798214D02*
X11791071Y-13798214D01*
X11819643Y-13783929D01*
X11833928Y-13769643D01*
X11862500Y-13726786D01*
X11876786Y-13669643D01*
X11876786Y-13555357D01*
X11862500Y-13526786D01*
X11848214Y-13512500D01*
X11819643Y-13498214D01*
X11762500Y-13498214D01*
X11733928Y-13512500D01*
X11719643Y-13526786D01*
X11705357Y-13555357D01*
X11705357Y-13626786D01*
X11719643Y-13655357D01*
X11733928Y-13669643D01*
X11762500Y-13683929D01*
X11819643Y-13683929D01*
X11848214Y-13669643D01*
X11862500Y-13655357D01*
X11876786Y-13626786D01*
X12233928Y-13798214D02*
X12233928Y-13498214D01*
X12362500Y-13798214D02*
X12362500Y-13641071D01*
X12348214Y-13612500D01*
X12319643Y-13598214D01*
X12276786Y-13598214D01*
X12248214Y-13612500D01*
X12233928Y-13626786D01*
X12548214Y-13798214D02*
X12519643Y-13783929D01*
X12505357Y-13769643D01*
X12491071Y-13741071D01*
X12491071Y-13655357D01*
X12505357Y-13626786D01*
X12519643Y-13612500D01*
X12548214Y-13598214D01*
X12591071Y-13598214D01*
X12619643Y-13612500D01*
X12633928Y-13626786D01*
X12648214Y-13655357D01*
X12648214Y-13741071D01*
X12633928Y-13769643D01*
X12619643Y-13783929D01*
X12591071Y-13798214D01*
X12548214Y-13798214D01*
X12819643Y-13798214D02*
X12791071Y-13783929D01*
X12776786Y-13755357D01*
X12776786Y-13498214D01*
X13048214Y-13783929D02*
X13019643Y-13798214D01*
X12962500Y-13798214D01*
X12933928Y-13783929D01*
X12919643Y-13755357D01*
X12919643Y-13641071D01*
X12933928Y-13612500D01*
X12962500Y-13598214D01*
X13019643Y-13598214D01*
X13048214Y-13612500D01*
X13062500Y-13641071D01*
X13062500Y-13669643D01*
X12919643Y-13698214D01*
X13176786Y-13783929D02*
X13205357Y-13798214D01*
X13262500Y-13798214D01*
X13291071Y-13783929D01*
X13305357Y-13755357D01*
X13305357Y-13741071D01*
X13291071Y-13712500D01*
X13262500Y-13698214D01*
X13219643Y-13698214D01*
X13191071Y-13683929D01*
X13176786Y-13655357D01*
X13176786Y-13641071D01*
X13191071Y-13612500D01*
X13219643Y-13598214D01*
X13262500Y-13598214D01*
X13291071Y-13612500D01*
X13405357Y-13912500D02*
X13419643Y-13898214D01*
X13448214Y-13855357D01*
X13462500Y-13826786D01*
X13476786Y-13783929D01*
X13491071Y-13712500D01*
X13491071Y-13655357D01*
X13476786Y-13583929D01*
X13462500Y-13541071D01*
X13448214Y-13512500D01*
X13419643Y-13469643D01*
X13405357Y-13455357D01*
X6347500Y-14058500D02*
G75*
G03*
X6347500Y-14058500I-50000J0D01*
G01*
X6791071Y-14194214D02*
X6619643Y-14194214D01*
X6705357Y-14194214D02*
X6705357Y-13894214D01*
X6676786Y-13937071D01*
X6648214Y-13965643D01*
X6619643Y-13979929D01*
X6919643Y-14165643D02*
X6933928Y-14179929D01*
X6919643Y-14194214D01*
X6905357Y-14179929D01*
X6919643Y-14165643D01*
X6919643Y-14194214D01*
X7119643Y-13894214D02*
X7148214Y-13894214D01*
X7176786Y-13908500D01*
X7191071Y-13922786D01*
X7205357Y-13951357D01*
X7219643Y-14008500D01*
X7219643Y-14079929D01*
X7205357Y-14137071D01*
X7191071Y-14165643D01*
X7176786Y-14179929D01*
X7148214Y-14194214D01*
X7119643Y-14194214D01*
X7091071Y-14179929D01*
X7076786Y-14165643D01*
X7062500Y-14137071D01*
X7048214Y-14079929D01*
X7048214Y-14008500D01*
X7062500Y-13951357D01*
X7076786Y-13922786D01*
X7091071Y-13908500D01*
X7119643Y-13894214D01*
X7405357Y-13894214D02*
X7433928Y-13894214D01*
X7462500Y-13908500D01*
X7476786Y-13922786D01*
X7491071Y-13951357D01*
X7505357Y-14008500D01*
X7505357Y-14079929D01*
X7491071Y-14137071D01*
X7476786Y-14165643D01*
X7462500Y-14179929D01*
X7433928Y-14194214D01*
X7405357Y-14194214D01*
X7376786Y-14179929D01*
X7362500Y-14165643D01*
X7348214Y-14137071D01*
X7333928Y-14079929D01*
X7333928Y-14008500D01*
X7348214Y-13951357D01*
X7362500Y-13922786D01*
X7376786Y-13908500D01*
X7405357Y-13894214D01*
X7691071Y-13894214D02*
X7719643Y-13894214D01*
X7748214Y-13908500D01*
X7762500Y-13922786D01*
X7776786Y-13951357D01*
X7791071Y-14008500D01*
X7791071Y-14079929D01*
X7776786Y-14137071D01*
X7762500Y-14165643D01*
X7748214Y-14179929D01*
X7719643Y-14194214D01*
X7691071Y-14194214D01*
X7662500Y-14179929D01*
X7648214Y-14165643D01*
X7633928Y-14137071D01*
X7619643Y-14079929D01*
X7619643Y-14008500D01*
X7633928Y-13951357D01*
X7648214Y-13922786D01*
X7662500Y-13908500D01*
X7691071Y-13894214D01*
X7919643Y-14194214D02*
X7919643Y-13994214D01*
X7919643Y-14022786D02*
X7933928Y-14008500D01*
X7962500Y-13994214D01*
X8005357Y-13994214D01*
X8033928Y-14008500D01*
X8048214Y-14037071D01*
X8048214Y-14194214D01*
X8048214Y-14037071D02*
X8062500Y-14008500D01*
X8091071Y-13994214D01*
X8133928Y-13994214D01*
X8162500Y-14008500D01*
X8176786Y-14037071D01*
X8176786Y-14194214D01*
X8319643Y-14194214D02*
X8319643Y-13994214D01*
X8319643Y-14022786D02*
X8333928Y-14008500D01*
X8362500Y-13994214D01*
X8405357Y-13994214D01*
X8433928Y-14008500D01*
X8448214Y-14037071D01*
X8448214Y-14194214D01*
X8448214Y-14037071D02*
X8462500Y-14008500D01*
X8491071Y-13994214D01*
X8533928Y-13994214D01*
X8562500Y-14008500D01*
X8576786Y-14037071D01*
X8576786Y-14194214D01*
X9162500Y-13879929D02*
X8905357Y-14265643D01*
X9548214Y-13894214D02*
X9576786Y-13894214D01*
X9605357Y-13908500D01*
X9619643Y-13922786D01*
X9633928Y-13951357D01*
X9648214Y-14008500D01*
X9648214Y-14079929D01*
X9633928Y-14137071D01*
X9619643Y-14165643D01*
X9605357Y-14179929D01*
X9576786Y-14194214D01*
X9548214Y-14194214D01*
X9519643Y-14179929D01*
X9505357Y-14165643D01*
X9491071Y-14137071D01*
X9476786Y-14079929D01*
X9476786Y-14008500D01*
X9491071Y-13951357D01*
X9505357Y-13922786D01*
X9519643Y-13908500D01*
X9548214Y-13894214D01*
X9776786Y-14165643D02*
X9791071Y-14179929D01*
X9776786Y-14194214D01*
X9762500Y-14179929D01*
X9776786Y-14165643D01*
X9776786Y-14194214D01*
X9976786Y-13894214D02*
X10005357Y-13894214D01*
X10033928Y-13908500D01*
X10048214Y-13922786D01*
X10062500Y-13951357D01*
X10076786Y-14008500D01*
X10076786Y-14079929D01*
X10062500Y-14137071D01*
X10048214Y-14165643D01*
X10033928Y-14179929D01*
X10005357Y-14194214D01*
X9976786Y-14194214D01*
X9948214Y-14179929D01*
X9933928Y-14165643D01*
X9919643Y-14137071D01*
X9905357Y-14079929D01*
X9905357Y-14008500D01*
X9919643Y-13951357D01*
X9933928Y-13922786D01*
X9948214Y-13908500D01*
X9976786Y-13894214D01*
X10176786Y-13894214D02*
X10362500Y-13894214D01*
X10262500Y-14008500D01*
X10305357Y-14008500D01*
X10333928Y-14022786D01*
X10348214Y-14037071D01*
X10362500Y-14065643D01*
X10362500Y-14137071D01*
X10348214Y-14165643D01*
X10333928Y-14179929D01*
X10305357Y-14194214D01*
X10219643Y-14194214D01*
X10191071Y-14179929D01*
X10176786Y-14165643D01*
X10505357Y-14194214D02*
X10562500Y-14194214D01*
X10591071Y-14179929D01*
X10605357Y-14165643D01*
X10633928Y-14122786D01*
X10648214Y-14065643D01*
X10648214Y-13951357D01*
X10633928Y-13922786D01*
X10619643Y-13908500D01*
X10591071Y-13894214D01*
X10533928Y-13894214D01*
X10505357Y-13908500D01*
X10491071Y-13922786D01*
X10476786Y-13951357D01*
X10476786Y-14022786D01*
X10491071Y-14051357D01*
X10505357Y-14065643D01*
X10533928Y-14079929D01*
X10591071Y-14079929D01*
X10619643Y-14065643D01*
X10633928Y-14051357D01*
X10648214Y-14022786D01*
X10905357Y-13994214D02*
X10905357Y-14194214D01*
X10833928Y-13879929D02*
X10762500Y-14094214D01*
X10948214Y-14094214D01*
X11048214Y-13894214D02*
X11048214Y-13951357D01*
X11162500Y-13894214D02*
X11162500Y-13951357D01*
X11605357Y-14308500D02*
X11591071Y-14294214D01*
X11562500Y-14251357D01*
X11548214Y-14222786D01*
X11533928Y-14179929D01*
X11519643Y-14108500D01*
X11519643Y-14051357D01*
X11533928Y-13979929D01*
X11548214Y-13937071D01*
X11562500Y-13908500D01*
X11591071Y-13865643D01*
X11605357Y-13851357D01*
X11876786Y-14194214D02*
X11705357Y-14194214D01*
X11791071Y-14194214D02*
X11791071Y-13894214D01*
X11762500Y-13937071D01*
X11733928Y-13965643D01*
X11705357Y-13979929D01*
X12048214Y-14022786D02*
X12019643Y-14008500D01*
X12005357Y-13994214D01*
X11991071Y-13965643D01*
X11991071Y-13951357D01*
X12005357Y-13922786D01*
X12019643Y-13908500D01*
X12048214Y-13894214D01*
X12105357Y-13894214D01*
X12133928Y-13908500D01*
X12148214Y-13922786D01*
X12162500Y-13951357D01*
X12162500Y-13965643D01*
X12148214Y-13994214D01*
X12133928Y-14008500D01*
X12105357Y-14022786D01*
X12048214Y-14022786D01*
X12019643Y-14037071D01*
X12005357Y-14051357D01*
X11991071Y-14079929D01*
X11991071Y-14137071D01*
X12005357Y-14165643D01*
X12019643Y-14179929D01*
X12048214Y-14194214D01*
X12105357Y-14194214D01*
X12133928Y-14179929D01*
X12148214Y-14165643D01*
X12162500Y-14137071D01*
X12162500Y-14079929D01*
X12148214Y-14051357D01*
X12133928Y-14037071D01*
X12105357Y-14022786D01*
X12519643Y-14194214D02*
X12519643Y-13894214D01*
X12648214Y-14194214D02*
X12648214Y-14037071D01*
X12633928Y-14008500D01*
X12605357Y-13994214D01*
X12562500Y-13994214D01*
X12533928Y-14008500D01*
X12519643Y-14022786D01*
X12833928Y-14194214D02*
X12805357Y-14179929D01*
X12791071Y-14165643D01*
X12776786Y-14137071D01*
X12776786Y-14051357D01*
X12791071Y-14022786D01*
X12805357Y-14008500D01*
X12833928Y-13994214D01*
X12876786Y-13994214D01*
X12905357Y-14008500D01*
X12919643Y-14022786D01*
X12933928Y-14051357D01*
X12933928Y-14137071D01*
X12919643Y-14165643D01*
X12905357Y-14179929D01*
X12876786Y-14194214D01*
X12833928Y-14194214D01*
X13105357Y-14194214D02*
X13076786Y-14179929D01*
X13062500Y-14151357D01*
X13062500Y-13894214D01*
X13333928Y-14179929D02*
X13305357Y-14194214D01*
X13248214Y-14194214D01*
X13219643Y-14179929D01*
X13205357Y-14151357D01*
X13205357Y-14037071D01*
X13219643Y-14008500D01*
X13248214Y-13994214D01*
X13305357Y-13994214D01*
X13333928Y-14008500D01*
X13348214Y-14037071D01*
X13348214Y-14065643D01*
X13205357Y-14094214D01*
X13462500Y-14179929D02*
X13491071Y-14194214D01*
X13548214Y-14194214D01*
X13576786Y-14179929D01*
X13591071Y-14151357D01*
X13591071Y-14137071D01*
X13576786Y-14108500D01*
X13548214Y-14094214D01*
X13505357Y-14094214D01*
X13476786Y-14079929D01*
X13462500Y-14051357D01*
X13462500Y-14037071D01*
X13476786Y-14008500D01*
X13505357Y-13994214D01*
X13548214Y-13994214D01*
X13576786Y-14008500D01*
X13691071Y-14308500D02*
X13705357Y-14294214D01*
X13733928Y-14251357D01*
X13748214Y-14222786D01*
X13762500Y-14179929D01*
X13776786Y-14108500D01*
X13776786Y-14051357D01*
X13762500Y-13979929D01*
X13748214Y-13937071D01*
X13733928Y-13908500D01*
X13705357Y-13865643D01*
X13691071Y-13851357D01*
X6271500Y-14378500D02*
X6271500Y-14530500D01*
X6195500Y-14454500D02*
X6347500Y-14454500D01*
X6791071Y-14590214D02*
X6619643Y-14590214D01*
X6705357Y-14590214D02*
X6705357Y-14290214D01*
X6676786Y-14333071D01*
X6648214Y-14361643D01*
X6619643Y-14375929D01*
X6919643Y-14561643D02*
X6933928Y-14575929D01*
X6919643Y-14590214D01*
X6905357Y-14575929D01*
X6919643Y-14561643D01*
X6919643Y-14590214D01*
X7205357Y-14290214D02*
X7062500Y-14290214D01*
X7048214Y-14433071D01*
X7062500Y-14418786D01*
X7091071Y-14404500D01*
X7162500Y-14404500D01*
X7191071Y-14418786D01*
X7205357Y-14433071D01*
X7219643Y-14461643D01*
X7219643Y-14533071D01*
X7205357Y-14561643D01*
X7191071Y-14575929D01*
X7162500Y-14590214D01*
X7091071Y-14590214D01*
X7062500Y-14575929D01*
X7048214Y-14561643D01*
X7333928Y-14318786D02*
X7348214Y-14304500D01*
X7376786Y-14290214D01*
X7448214Y-14290214D01*
X7476786Y-14304500D01*
X7491071Y-14318786D01*
X7505357Y-14347357D01*
X7505357Y-14375929D01*
X7491071Y-14418786D01*
X7319643Y-14590214D01*
X7505357Y-14590214D01*
X7691071Y-14290214D02*
X7719643Y-14290214D01*
X7748214Y-14304500D01*
X7762500Y-14318786D01*
X7776786Y-14347357D01*
X7791071Y-14404500D01*
X7791071Y-14475929D01*
X7776786Y-14533071D01*
X7762500Y-14561643D01*
X7748214Y-14575929D01*
X7719643Y-14590214D01*
X7691071Y-14590214D01*
X7662500Y-14575929D01*
X7648214Y-14561643D01*
X7633928Y-14533071D01*
X7619643Y-14475929D01*
X7619643Y-14404500D01*
X7633928Y-14347357D01*
X7648214Y-14318786D01*
X7662500Y-14304500D01*
X7691071Y-14290214D01*
X7919643Y-14590214D02*
X7919643Y-14390214D01*
X7919643Y-14418786D02*
X7933928Y-14404500D01*
X7962500Y-14390214D01*
X8005357Y-14390214D01*
X8033928Y-14404500D01*
X8048214Y-14433071D01*
X8048214Y-14590214D01*
X8048214Y-14433071D02*
X8062500Y-14404500D01*
X8091071Y-14390214D01*
X8133928Y-14390214D01*
X8162500Y-14404500D01*
X8176786Y-14433071D01*
X8176786Y-14590214D01*
X8319643Y-14590214D02*
X8319643Y-14390214D01*
X8319643Y-14418786D02*
X8333928Y-14404500D01*
X8362500Y-14390214D01*
X8405357Y-14390214D01*
X8433928Y-14404500D01*
X8448214Y-14433071D01*
X8448214Y-14590214D01*
X8448214Y-14433071D02*
X8462500Y-14404500D01*
X8491071Y-14390214D01*
X8533928Y-14390214D01*
X8562500Y-14404500D01*
X8576786Y-14433071D01*
X8576786Y-14590214D01*
X9162500Y-14275929D02*
X8905357Y-14661643D01*
X9548214Y-14290214D02*
X9576786Y-14290214D01*
X9605357Y-14304500D01*
X9619643Y-14318786D01*
X9633928Y-14347357D01*
X9648214Y-14404500D01*
X9648214Y-14475929D01*
X9633928Y-14533071D01*
X9619643Y-14561643D01*
X9605357Y-14575929D01*
X9576786Y-14590214D01*
X9548214Y-14590214D01*
X9519643Y-14575929D01*
X9505357Y-14561643D01*
X9491071Y-14533071D01*
X9476786Y-14475929D01*
X9476786Y-14404500D01*
X9491071Y-14347357D01*
X9505357Y-14318786D01*
X9519643Y-14304500D01*
X9548214Y-14290214D01*
X9776786Y-14561643D02*
X9791071Y-14575929D01*
X9776786Y-14590214D01*
X9762500Y-14575929D01*
X9776786Y-14561643D01*
X9776786Y-14590214D01*
X9976786Y-14290214D02*
X10005357Y-14290214D01*
X10033928Y-14304500D01*
X10048214Y-14318786D01*
X10062500Y-14347357D01*
X10076786Y-14404500D01*
X10076786Y-14475929D01*
X10062500Y-14533071D01*
X10048214Y-14561643D01*
X10033928Y-14575929D01*
X10005357Y-14590214D01*
X9976786Y-14590214D01*
X9948214Y-14575929D01*
X9933928Y-14561643D01*
X9919643Y-14533071D01*
X9905357Y-14475929D01*
X9905357Y-14404500D01*
X9919643Y-14347357D01*
X9933928Y-14318786D01*
X9948214Y-14304500D01*
X9976786Y-14290214D01*
X10348214Y-14290214D02*
X10205357Y-14290214D01*
X10191071Y-14433071D01*
X10205357Y-14418786D01*
X10233928Y-14404500D01*
X10305357Y-14404500D01*
X10333928Y-14418786D01*
X10348214Y-14433071D01*
X10362500Y-14461643D01*
X10362500Y-14533071D01*
X10348214Y-14561643D01*
X10333928Y-14575929D01*
X10305357Y-14590214D01*
X10233928Y-14590214D01*
X10205357Y-14575929D01*
X10191071Y-14561643D01*
X10505357Y-14590214D02*
X10562500Y-14590214D01*
X10591071Y-14575929D01*
X10605357Y-14561643D01*
X10633928Y-14518786D01*
X10648214Y-14461643D01*
X10648214Y-14347357D01*
X10633928Y-14318786D01*
X10619643Y-14304500D01*
X10591071Y-14290214D01*
X10533928Y-14290214D01*
X10505357Y-14304500D01*
X10491071Y-14318786D01*
X10476786Y-14347357D01*
X10476786Y-14418786D01*
X10491071Y-14447357D01*
X10505357Y-14461643D01*
X10533928Y-14475929D01*
X10591071Y-14475929D01*
X10619643Y-14461643D01*
X10633928Y-14447357D01*
X10648214Y-14418786D01*
X10819643Y-14418786D02*
X10791071Y-14404500D01*
X10776786Y-14390214D01*
X10762500Y-14361643D01*
X10762500Y-14347357D01*
X10776786Y-14318786D01*
X10791071Y-14304500D01*
X10819643Y-14290214D01*
X10876786Y-14290214D01*
X10905357Y-14304500D01*
X10919643Y-14318786D01*
X10933928Y-14347357D01*
X10933928Y-14361643D01*
X10919643Y-14390214D01*
X10905357Y-14404500D01*
X10876786Y-14418786D01*
X10819643Y-14418786D01*
X10791071Y-14433071D01*
X10776786Y-14447357D01*
X10762500Y-14475929D01*
X10762500Y-14533071D01*
X10776786Y-14561643D01*
X10791071Y-14575929D01*
X10819643Y-14590214D01*
X10876786Y-14590214D01*
X10905357Y-14575929D01*
X10919643Y-14561643D01*
X10933928Y-14533071D01*
X10933928Y-14475929D01*
X10919643Y-14447357D01*
X10905357Y-14433071D01*
X10876786Y-14418786D01*
X11048214Y-14290214D02*
X11048214Y-14347357D01*
X11162500Y-14290214D02*
X11162500Y-14347357D01*
X11605357Y-14704500D02*
X11591071Y-14690214D01*
X11562500Y-14647357D01*
X11548214Y-14618786D01*
X11533928Y-14575929D01*
X11519643Y-14504500D01*
X11519643Y-14447357D01*
X11533928Y-14375929D01*
X11548214Y-14333071D01*
X11562500Y-14304500D01*
X11591071Y-14261643D01*
X11605357Y-14247357D01*
X11691071Y-14290214D02*
X11876786Y-14290214D01*
X11776786Y-14404500D01*
X11819643Y-14404500D01*
X11848214Y-14418786D01*
X11862500Y-14433071D01*
X11876786Y-14461643D01*
X11876786Y-14533071D01*
X11862500Y-14561643D01*
X11848214Y-14575929D01*
X11819643Y-14590214D01*
X11733928Y-14590214D01*
X11705357Y-14575929D01*
X11691071Y-14561643D01*
X12233928Y-14590214D02*
X12233928Y-14290214D01*
X12362500Y-14590214D02*
X12362500Y-14433071D01*
X12348214Y-14404500D01*
X12319643Y-14390214D01*
X12276786Y-14390214D01*
X12248214Y-14404500D01*
X12233928Y-14418786D01*
X12548214Y-14590214D02*
X12519643Y-14575929D01*
X12505357Y-14561643D01*
X12491071Y-14533071D01*
X12491071Y-14447357D01*
X12505357Y-14418786D01*
X12519643Y-14404500D01*
X12548214Y-14390214D01*
X12591071Y-14390214D01*
X12619643Y-14404500D01*
X12633928Y-14418786D01*
X12648214Y-14447357D01*
X12648214Y-14533071D01*
X12633928Y-14561643D01*
X12619643Y-14575929D01*
X12591071Y-14590214D01*
X12548214Y-14590214D01*
X12819643Y-14590214D02*
X12791071Y-14575929D01*
X12776786Y-14547357D01*
X12776786Y-14290214D01*
X13048214Y-14575929D02*
X13019643Y-14590214D01*
X12962500Y-14590214D01*
X12933928Y-14575929D01*
X12919643Y-14547357D01*
X12919643Y-14433071D01*
X12933928Y-14404500D01*
X12962500Y-14390214D01*
X13019643Y-14390214D01*
X13048214Y-14404500D01*
X13062500Y-14433071D01*
X13062500Y-14461643D01*
X12919643Y-14490214D01*
X13176786Y-14575929D02*
X13205357Y-14590214D01*
X13262500Y-14590214D01*
X13291071Y-14575929D01*
X13305357Y-14547357D01*
X13305357Y-14533071D01*
X13291071Y-14504500D01*
X13262500Y-14490214D01*
X13219643Y-14490214D01*
X13191071Y-14475929D01*
X13176786Y-14447357D01*
X13176786Y-14433071D01*
X13191071Y-14404500D01*
X13219643Y-14390214D01*
X13262500Y-14390214D01*
X13291071Y-14404500D01*
X13405357Y-14704500D02*
X13419643Y-14690214D01*
X13448214Y-14647357D01*
X13462500Y-14618786D01*
X13476786Y-14575929D01*
X13491071Y-14504500D01*
X13491071Y-14447357D01*
X13476786Y-14375929D01*
X13462500Y-14333071D01*
X13448214Y-14304500D01*
X13419643Y-14261643D01*
X13405357Y-14247357D01*
M02*
