M48
METRIC
T1C0.762
T2C1.000
T3C1.200
T4C2.200
T5C3.200
%
G90
G05
T1
X77.732Y-123.063
X79.002Y-85.598
X80.272Y-123.063
X81.542Y-85.598
X82.812Y-123.063
X84.082Y-85.598
X85.352Y-123.063
T2
X71.89Y-88.875
X71.89Y-91.415
X71.89Y-93.955
X71.89Y-96.495
X71.89Y-99.035
X71.89Y-101.575
X71.89Y-109.255
X71.89Y-111.795
X71.89Y-114.335
X71.89Y-116.875
X71.89Y-119.415
X71.89Y-121.955
X83.492Y-88.875
X83.492Y-91.415
X83.492Y-93.955
X83.492Y-96.495
X83.492Y-99.035
X83.492Y-101.575
T3
X78.034Y-68.01
X81.534Y-68.01
X85.034Y-68.01
T4
X73.922Y-85.598
X89.162Y-85.598
T5
X71.89Y-64.008
X71.89Y-128.524
X90.932Y-64.008
X90.932Y-128.524
T0
M30
