G04 #@! TF.GenerationSoftware,KiCad,Pcbnew,5.1.10-88a1d61d58~88~ubuntu20.04.1*
G04 #@! TF.CreationDate,2021-06-06T20:10:42+02:00*
G04 #@! TF.ProjectId,slave-modbus,736c6176-652d-46d6-9f64-6275732e6b69,rev?*
G04 #@! TF.SameCoordinates,PX3a22d00PY8062360*
G04 #@! TF.FileFunction,Legend,Top*
G04 #@! TF.FilePolarity,Positive*
%FSLAX46Y46*%
G04 Gerber Fmt 4.6, Leading zero omitted, Abs format (unit mm)*
G04 Created by KiCad (PCBNEW 5.1.10-88a1d61d58~88~ubuntu20.04.1) date 2021-06-06 20:10:42*
%MOMM*%
%LPD*%
G01*
G04 APERTURE LIST*
%ADD10C,0.150000*%
%ADD11C,0.120000*%
%ADD12O,1.524000X3.048000*%
%ADD13C,3.000000*%
%ADD14R,3.000000X3.000000*%
%ADD15O,3.000000X1.700000*%
%ADD16R,3.000000X1.700000*%
G04 APERTURE END LIST*
D10*
X80518095Y-65794000D02*
X80422857Y-65746380D01*
X80280000Y-65746380D01*
X80137142Y-65794000D01*
X80041904Y-65889238D01*
X79994285Y-65984476D01*
X79946666Y-66174952D01*
X79946666Y-66317809D01*
X79994285Y-66508285D01*
X80041904Y-66603523D01*
X80137142Y-66698761D01*
X80280000Y-66746380D01*
X80375238Y-66746380D01*
X80518095Y-66698761D01*
X80565714Y-66651142D01*
X80565714Y-66317809D01*
X80375238Y-66317809D01*
X80994285Y-66746380D02*
X80994285Y-65746380D01*
X81565714Y-66746380D01*
X81565714Y-65746380D01*
X82041904Y-66746380D02*
X82041904Y-65746380D01*
X82280000Y-65746380D01*
X82422857Y-65794000D01*
X82518095Y-65889238D01*
X82565714Y-65984476D01*
X82613333Y-66174952D01*
X82613333Y-66317809D01*
X82565714Y-66508285D01*
X82518095Y-66603523D01*
X82422857Y-66698761D01*
X82280000Y-66746380D01*
X82041904Y-66746380D01*
X75906380Y-66222571D02*
X76049238Y-66270190D01*
X76096857Y-66317809D01*
X76144476Y-66413047D01*
X76144476Y-66555904D01*
X76096857Y-66651142D01*
X76049238Y-66698761D01*
X75954000Y-66746380D01*
X75573047Y-66746380D01*
X75573047Y-65746380D01*
X75906380Y-65746380D01*
X76001619Y-65794000D01*
X76049238Y-65841619D01*
X76096857Y-65936857D01*
X76096857Y-66032095D01*
X76049238Y-66127333D01*
X76001619Y-66174952D01*
X75906380Y-66222571D01*
X75573047Y-66222571D01*
X76573047Y-66365428D02*
X77334952Y-66365428D01*
X70516857Y-66460666D02*
X70993047Y-66460666D01*
X70421619Y-66746380D02*
X70754952Y-65746380D01*
X71088285Y-66746380D01*
X71421619Y-66365428D02*
X72183523Y-66365428D01*
X71802571Y-66746380D02*
X71802571Y-65984476D01*
X69643809Y-117292380D02*
X69643809Y-116292380D01*
X70310476Y-116292380D02*
X70500952Y-116292380D01*
X70596190Y-116340000D01*
X70691428Y-116435238D01*
X70739047Y-116625714D01*
X70739047Y-116959047D01*
X70691428Y-117149523D01*
X70596190Y-117244761D01*
X70500952Y-117292380D01*
X70310476Y-117292380D01*
X70215238Y-117244761D01*
X70120000Y-117149523D01*
X70072380Y-116959047D01*
X70072380Y-116625714D01*
X70120000Y-116435238D01*
X70215238Y-116340000D01*
X70310476Y-116292380D01*
X71691428Y-117292380D02*
X71120000Y-117292380D01*
X71405714Y-117292380D02*
X71405714Y-116292380D01*
X71310476Y-116435238D01*
X71215238Y-116530476D01*
X71120000Y-116578095D01*
X72548571Y-116625714D02*
X72548571Y-117292380D01*
X72310476Y-116244761D02*
X72072380Y-116959047D01*
X72691428Y-116959047D01*
X69643809Y-109672380D02*
X69643809Y-108672380D01*
X70310476Y-108672380D02*
X70500952Y-108672380D01*
X70596190Y-108720000D01*
X70691428Y-108815238D01*
X70739047Y-109005714D01*
X70739047Y-109339047D01*
X70691428Y-109529523D01*
X70596190Y-109624761D01*
X70500952Y-109672380D01*
X70310476Y-109672380D01*
X70215238Y-109624761D01*
X70120000Y-109529523D01*
X70072380Y-109339047D01*
X70072380Y-109005714D01*
X70120000Y-108815238D01*
X70215238Y-108720000D01*
X70310476Y-108672380D01*
X71072380Y-108672380D02*
X71691428Y-108672380D01*
X71358095Y-109053333D01*
X71500952Y-109053333D01*
X71596190Y-109100952D01*
X71643809Y-109148571D01*
X71691428Y-109243809D01*
X71691428Y-109481904D01*
X71643809Y-109577142D01*
X71596190Y-109624761D01*
X71500952Y-109672380D01*
X71215238Y-109672380D01*
X71120000Y-109624761D01*
X71072380Y-109577142D01*
X72548571Y-108672380D02*
X72358095Y-108672380D01*
X72262857Y-108720000D01*
X72215238Y-108767619D01*
X72120000Y-108910476D01*
X72072380Y-109100952D01*
X72072380Y-109481904D01*
X72120000Y-109577142D01*
X72167619Y-109624761D01*
X72262857Y-109672380D01*
X72453333Y-109672380D01*
X72548571Y-109624761D01*
X72596190Y-109577142D01*
X72643809Y-109481904D01*
X72643809Y-109243809D01*
X72596190Y-109148571D01*
X72548571Y-109100952D01*
X72453333Y-109053333D01*
X72262857Y-109053333D01*
X72167619Y-109100952D01*
X72120000Y-109148571D01*
X72072380Y-109243809D01*
X69643809Y-112212380D02*
X69643809Y-111212380D01*
X70310476Y-111212380D02*
X70500952Y-111212380D01*
X70596190Y-111260000D01*
X70691428Y-111355238D01*
X70739047Y-111545714D01*
X70739047Y-111879047D01*
X70691428Y-112069523D01*
X70596190Y-112164761D01*
X70500952Y-112212380D01*
X70310476Y-112212380D01*
X70215238Y-112164761D01*
X70120000Y-112069523D01*
X70072380Y-111879047D01*
X70072380Y-111545714D01*
X70120000Y-111355238D01*
X70215238Y-111260000D01*
X70310476Y-111212380D01*
X71072380Y-111212380D02*
X71691428Y-111212380D01*
X71358095Y-111593333D01*
X71500952Y-111593333D01*
X71596190Y-111640952D01*
X71643809Y-111688571D01*
X71691428Y-111783809D01*
X71691428Y-112021904D01*
X71643809Y-112117142D01*
X71596190Y-112164761D01*
X71500952Y-112212380D01*
X71215238Y-112212380D01*
X71120000Y-112164761D01*
X71072380Y-112117142D01*
X72596190Y-111212380D02*
X72120000Y-111212380D01*
X72072380Y-111688571D01*
X72120000Y-111640952D01*
X72215238Y-111593333D01*
X72453333Y-111593333D01*
X72548571Y-111640952D01*
X72596190Y-111688571D01*
X72643809Y-111783809D01*
X72643809Y-112021904D01*
X72596190Y-112117142D01*
X72548571Y-112164761D01*
X72453333Y-112212380D01*
X72215238Y-112212380D01*
X72120000Y-112164761D01*
X72072380Y-112117142D01*
X69612000Y-122372380D02*
X69612000Y-121372380D01*
X70278666Y-121372380D02*
X70469142Y-121372380D01*
X70564380Y-121420000D01*
X70659619Y-121515238D01*
X70707238Y-121705714D01*
X70707238Y-122039047D01*
X70659619Y-122229523D01*
X70564380Y-122324761D01*
X70469142Y-122372380D01*
X70278666Y-122372380D01*
X70183428Y-122324761D01*
X70088190Y-122229523D01*
X70040571Y-122039047D01*
X70040571Y-121705714D01*
X70088190Y-121515238D01*
X70183428Y-121420000D01*
X70278666Y-121372380D01*
X71564380Y-121705714D02*
X71564380Y-122372380D01*
X71326285Y-121324761D02*
X71088190Y-122039047D01*
X71707238Y-122039047D01*
X69612000Y-119832380D02*
X69612000Y-118832380D01*
X70278666Y-118832380D02*
X70469142Y-118832380D01*
X70564380Y-118880000D01*
X70659619Y-118975238D01*
X70707238Y-119165714D01*
X70707238Y-119499047D01*
X70659619Y-119689523D01*
X70564380Y-119784761D01*
X70469142Y-119832380D01*
X70278666Y-119832380D01*
X70183428Y-119784761D01*
X70088190Y-119689523D01*
X70040571Y-119499047D01*
X70040571Y-119165714D01*
X70088190Y-118975238D01*
X70183428Y-118880000D01*
X70278666Y-118832380D01*
X71612000Y-118832380D02*
X71135809Y-118832380D01*
X71088190Y-119308571D01*
X71135809Y-119260952D01*
X71231047Y-119213333D01*
X71469142Y-119213333D01*
X71564380Y-119260952D01*
X71612000Y-119308571D01*
X71659619Y-119403809D01*
X71659619Y-119641904D01*
X71612000Y-119737142D01*
X71564380Y-119784761D01*
X71469142Y-119832380D01*
X71231047Y-119832380D01*
X71135809Y-119784761D01*
X71088190Y-119737142D01*
X69643809Y-114752380D02*
X69643809Y-113752380D01*
X70310476Y-113752380D02*
X70500952Y-113752380D01*
X70596190Y-113800000D01*
X70691428Y-113895238D01*
X70739047Y-114085714D01*
X70739047Y-114419047D01*
X70691428Y-114609523D01*
X70596190Y-114704761D01*
X70500952Y-114752380D01*
X70310476Y-114752380D01*
X70215238Y-114704761D01*
X70120000Y-114609523D01*
X70072380Y-114419047D01*
X70072380Y-114085714D01*
X70120000Y-113895238D01*
X70215238Y-113800000D01*
X70310476Y-113752380D01*
X71691428Y-114752380D02*
X71120000Y-114752380D01*
X71405714Y-114752380D02*
X71405714Y-113752380D01*
X71310476Y-113895238D01*
X71215238Y-113990476D01*
X71120000Y-114038095D01*
X72596190Y-113752380D02*
X72120000Y-113752380D01*
X72072380Y-114228571D01*
X72120000Y-114180952D01*
X72215238Y-114133333D01*
X72453333Y-114133333D01*
X72548571Y-114180952D01*
X72596190Y-114228571D01*
X72643809Y-114323809D01*
X72643809Y-114561904D01*
X72596190Y-114657142D01*
X72548571Y-114704761D01*
X72453333Y-114752380D01*
X72215238Y-114752380D01*
X72120000Y-114704761D01*
X72072380Y-114657142D01*
X69929523Y-85907619D02*
X69977142Y-85860000D01*
X70072380Y-85812380D01*
X70310476Y-85812380D01*
X70405714Y-85860000D01*
X70453333Y-85907619D01*
X70500952Y-86002857D01*
X70500952Y-86098095D01*
X70453333Y-86240952D01*
X69881904Y-86812380D01*
X70500952Y-86812380D01*
X71358095Y-86145714D02*
X71358095Y-86812380D01*
X71120000Y-85764761D02*
X70881904Y-86479047D01*
X71500952Y-86479047D01*
X71739047Y-85812380D02*
X72072380Y-86812380D01*
X72405714Y-85812380D01*
X70056666Y-88400000D02*
X69961428Y-88352380D01*
X69818571Y-88352380D01*
X69675714Y-88400000D01*
X69580476Y-88495238D01*
X69532857Y-88590476D01*
X69485238Y-88780952D01*
X69485238Y-88923809D01*
X69532857Y-89114285D01*
X69580476Y-89209523D01*
X69675714Y-89304761D01*
X69818571Y-89352380D01*
X69913809Y-89352380D01*
X70056666Y-89304761D01*
X70104285Y-89257142D01*
X70104285Y-88923809D01*
X69913809Y-88923809D01*
X70532857Y-89352380D02*
X70532857Y-88352380D01*
X71104285Y-89352380D01*
X71104285Y-88352380D01*
X71580476Y-89352380D02*
X71580476Y-88352380D01*
X71818571Y-88352380D01*
X71961428Y-88400000D01*
X72056666Y-88495238D01*
X72104285Y-88590476D01*
X72151904Y-88780952D01*
X72151904Y-88923809D01*
X72104285Y-89114285D01*
X72056666Y-89209523D01*
X71961428Y-89304761D01*
X71818571Y-89352380D01*
X71580476Y-89352380D01*
X72580476Y-89352380D02*
X72580476Y-88352380D01*
X72961428Y-88352380D01*
X73056666Y-88400000D01*
X73104285Y-88447619D01*
X73151904Y-88542857D01*
X73151904Y-88685714D01*
X73104285Y-88780952D01*
X73056666Y-88828571D01*
X72961428Y-88876190D01*
X72580476Y-88876190D01*
X73485238Y-88352380D02*
X73723333Y-89352380D01*
X73913809Y-88638095D01*
X74104285Y-89352380D01*
X74342380Y-88352380D01*
X75294761Y-89352380D02*
X74961428Y-88876190D01*
X74723333Y-89352380D02*
X74723333Y-88352380D01*
X75104285Y-88352380D01*
X75199523Y-88400000D01*
X75247142Y-88447619D01*
X75294761Y-88542857D01*
X75294761Y-88685714D01*
X75247142Y-88780952D01*
X75199523Y-88828571D01*
X75104285Y-88876190D01*
X74723333Y-88876190D01*
X69643809Y-90892380D02*
X70262857Y-90892380D01*
X69929523Y-91273333D01*
X70072380Y-91273333D01*
X70167619Y-91320952D01*
X70215238Y-91368571D01*
X70262857Y-91463809D01*
X70262857Y-91701904D01*
X70215238Y-91797142D01*
X70167619Y-91844761D01*
X70072380Y-91892380D01*
X69786666Y-91892380D01*
X69691428Y-91844761D01*
X69643809Y-91797142D01*
X70691428Y-91797142D02*
X70739047Y-91844761D01*
X70691428Y-91892380D01*
X70643809Y-91844761D01*
X70691428Y-91797142D01*
X70691428Y-91892380D01*
X71072380Y-90892380D02*
X71691428Y-90892380D01*
X71358095Y-91273333D01*
X71500952Y-91273333D01*
X71596190Y-91320952D01*
X71643809Y-91368571D01*
X71691428Y-91463809D01*
X71691428Y-91701904D01*
X71643809Y-91797142D01*
X71596190Y-91844761D01*
X71500952Y-91892380D01*
X71215238Y-91892380D01*
X71120000Y-91844761D01*
X71072380Y-91797142D01*
X71977142Y-90892380D02*
X72310476Y-91892380D01*
X72643809Y-90892380D01*
X70358095Y-93480000D02*
X70262857Y-93432380D01*
X70120000Y-93432380D01*
X69977142Y-93480000D01*
X69881904Y-93575238D01*
X69834285Y-93670476D01*
X69786666Y-93860952D01*
X69786666Y-94003809D01*
X69834285Y-94194285D01*
X69881904Y-94289523D01*
X69977142Y-94384761D01*
X70120000Y-94432380D01*
X70215238Y-94432380D01*
X70358095Y-94384761D01*
X70405714Y-94337142D01*
X70405714Y-94003809D01*
X70215238Y-94003809D01*
X70834285Y-94432380D02*
X70834285Y-93432380D01*
X71405714Y-94432380D01*
X71405714Y-93432380D01*
X71881904Y-94432380D02*
X71881904Y-93432380D01*
X72120000Y-93432380D01*
X72262857Y-93480000D01*
X72358095Y-93575238D01*
X72405714Y-93670476D01*
X72453333Y-93860952D01*
X72453333Y-94003809D01*
X72405714Y-94194285D01*
X72358095Y-94289523D01*
X72262857Y-94384761D01*
X72120000Y-94432380D01*
X71881904Y-94432380D01*
X69905714Y-96924761D02*
X70048571Y-96972380D01*
X70286666Y-96972380D01*
X70381904Y-96924761D01*
X70429523Y-96877142D01*
X70477142Y-96781904D01*
X70477142Y-96686666D01*
X70429523Y-96591428D01*
X70381904Y-96543809D01*
X70286666Y-96496190D01*
X70096190Y-96448571D01*
X70000952Y-96400952D01*
X69953333Y-96353333D01*
X69905714Y-96258095D01*
X69905714Y-96162857D01*
X69953333Y-96067619D01*
X70000952Y-96020000D01*
X70096190Y-95972380D01*
X70334285Y-95972380D01*
X70477142Y-96020000D01*
X70905714Y-96972380D02*
X70905714Y-95972380D01*
X71143809Y-95972380D01*
X71286666Y-96020000D01*
X71381904Y-96115238D01*
X71429523Y-96210476D01*
X71477142Y-96400952D01*
X71477142Y-96543809D01*
X71429523Y-96734285D01*
X71381904Y-96829523D01*
X71286666Y-96924761D01*
X71143809Y-96972380D01*
X70905714Y-96972380D01*
X71858095Y-96686666D02*
X72334285Y-96686666D01*
X71762857Y-96972380D02*
X72096190Y-95972380D01*
X72429523Y-96972380D01*
X69929523Y-99464761D02*
X70072380Y-99512380D01*
X70310476Y-99512380D01*
X70405714Y-99464761D01*
X70453333Y-99417142D01*
X70500952Y-99321904D01*
X70500952Y-99226666D01*
X70453333Y-99131428D01*
X70405714Y-99083809D01*
X70310476Y-99036190D01*
X70120000Y-98988571D01*
X70024761Y-98940952D01*
X69977142Y-98893333D01*
X69929523Y-98798095D01*
X69929523Y-98702857D01*
X69977142Y-98607619D01*
X70024761Y-98560000D01*
X70120000Y-98512380D01*
X70358095Y-98512380D01*
X70500952Y-98560000D01*
X71500952Y-99417142D02*
X71453333Y-99464761D01*
X71310476Y-99512380D01*
X71215238Y-99512380D01*
X71072380Y-99464761D01*
X70977142Y-99369523D01*
X70929523Y-99274285D01*
X70881904Y-99083809D01*
X70881904Y-98940952D01*
X70929523Y-98750476D01*
X70977142Y-98655238D01*
X71072380Y-98560000D01*
X71215238Y-98512380D01*
X71310476Y-98512380D01*
X71453333Y-98560000D01*
X71500952Y-98607619D01*
X72405714Y-99512380D02*
X71929523Y-99512380D01*
X71929523Y-98512380D01*
D11*
X86995000Y-118110000D02*
X86995000Y-74295000D01*
X70485000Y-74295000D02*
X70485000Y-118110000D01*
X86995000Y-118110000D02*
X70485000Y-118110000D01*
X86995000Y-74295000D02*
X70485000Y-74295000D01*
X83820000Y-56642000D02*
X68580000Y-56642000D01*
X83820000Y-64262000D02*
X68580000Y-64262000D01*
X83820000Y-57912000D02*
X68580000Y-57912000D01*
X68580000Y-56642000D02*
X68580000Y-64262000D01*
X83820000Y-56642000D02*
X83820000Y-64262000D01*
X68580000Y-123190000D02*
X67310000Y-123190000D01*
X68580000Y-121920000D02*
X68580000Y-123190000D01*
X66267071Y-108840000D02*
X65870000Y-108840000D01*
X66267071Y-109600000D02*
X65870000Y-109600000D01*
X57210000Y-108840000D02*
X63210000Y-108840000D01*
X57210000Y-109600000D02*
X57210000Y-108840000D01*
X63210000Y-109600000D02*
X57210000Y-109600000D01*
X65870000Y-110490000D02*
X63210000Y-110490000D01*
X66267071Y-111380000D02*
X65870000Y-111380000D01*
X66267071Y-112140000D02*
X65870000Y-112140000D01*
X57210000Y-111380000D02*
X63210000Y-111380000D01*
X57210000Y-112140000D02*
X57210000Y-111380000D01*
X63210000Y-112140000D02*
X57210000Y-112140000D01*
X65870000Y-113030000D02*
X63210000Y-113030000D01*
X66267071Y-113920000D02*
X65870000Y-113920000D01*
X66267071Y-114680000D02*
X65870000Y-114680000D01*
X57210000Y-113920000D02*
X63210000Y-113920000D01*
X57210000Y-114680000D02*
X57210000Y-113920000D01*
X63210000Y-114680000D02*
X57210000Y-114680000D01*
X65870000Y-115570000D02*
X63210000Y-115570000D01*
X66267071Y-116460000D02*
X65870000Y-116460000D01*
X66267071Y-117220000D02*
X65870000Y-117220000D01*
X57210000Y-116460000D02*
X63210000Y-116460000D01*
X57210000Y-117220000D02*
X57210000Y-116460000D01*
X63210000Y-117220000D02*
X57210000Y-117220000D01*
X65870000Y-118110000D02*
X63210000Y-118110000D01*
X66267071Y-119000000D02*
X65870000Y-119000000D01*
X66267071Y-119760000D02*
X65870000Y-119760000D01*
X57210000Y-119000000D02*
X63210000Y-119000000D01*
X57210000Y-119760000D02*
X57210000Y-119000000D01*
X63210000Y-119760000D02*
X57210000Y-119760000D01*
X65870000Y-120650000D02*
X63210000Y-120650000D01*
X66200000Y-121540000D02*
X65870000Y-121540000D01*
X66200000Y-122300000D02*
X65870000Y-122300000D01*
X63210000Y-121640000D02*
X57210000Y-121640000D01*
X63210000Y-121760000D02*
X57210000Y-121760000D01*
X63210000Y-121880000D02*
X57210000Y-121880000D01*
X63210000Y-122000000D02*
X57210000Y-122000000D01*
X63210000Y-122120000D02*
X57210000Y-122120000D01*
X63210000Y-122240000D02*
X57210000Y-122240000D01*
X57210000Y-121540000D02*
X63210000Y-121540000D01*
X57210000Y-122300000D02*
X57210000Y-121540000D01*
X63210000Y-122300000D02*
X57210000Y-122300000D01*
X63210000Y-123250000D02*
X65870000Y-123250000D01*
X63210000Y-107890000D02*
X63210000Y-123250000D01*
X65870000Y-107890000D02*
X63210000Y-107890000D01*
X65870000Y-123250000D02*
X65870000Y-107890000D01*
X68580000Y-100330000D02*
X67310000Y-100330000D01*
X68580000Y-99060000D02*
X68580000Y-100330000D01*
X66267071Y-85980000D02*
X65870000Y-85980000D01*
X66267071Y-86740000D02*
X65870000Y-86740000D01*
X57210000Y-85980000D02*
X63210000Y-85980000D01*
X57210000Y-86740000D02*
X57210000Y-85980000D01*
X63210000Y-86740000D02*
X57210000Y-86740000D01*
X65870000Y-87630000D02*
X63210000Y-87630000D01*
X66267071Y-88520000D02*
X65870000Y-88520000D01*
X66267071Y-89280000D02*
X65870000Y-89280000D01*
X57210000Y-88520000D02*
X63210000Y-88520000D01*
X57210000Y-89280000D02*
X57210000Y-88520000D01*
X63210000Y-89280000D02*
X57210000Y-89280000D01*
X65870000Y-90170000D02*
X63210000Y-90170000D01*
X66267071Y-91060000D02*
X65870000Y-91060000D01*
X66267071Y-91820000D02*
X65870000Y-91820000D01*
X57210000Y-91060000D02*
X63210000Y-91060000D01*
X57210000Y-91820000D02*
X57210000Y-91060000D01*
X63210000Y-91820000D02*
X57210000Y-91820000D01*
X65870000Y-92710000D02*
X63210000Y-92710000D01*
X66267071Y-93600000D02*
X65870000Y-93600000D01*
X66267071Y-94360000D02*
X65870000Y-94360000D01*
X57210000Y-93600000D02*
X63210000Y-93600000D01*
X57210000Y-94360000D02*
X57210000Y-93600000D01*
X63210000Y-94360000D02*
X57210000Y-94360000D01*
X65870000Y-95250000D02*
X63210000Y-95250000D01*
X66267071Y-96140000D02*
X65870000Y-96140000D01*
X66267071Y-96900000D02*
X65870000Y-96900000D01*
X57210000Y-96140000D02*
X63210000Y-96140000D01*
X57210000Y-96900000D02*
X57210000Y-96140000D01*
X63210000Y-96900000D02*
X57210000Y-96900000D01*
X65870000Y-97790000D02*
X63210000Y-97790000D01*
X66200000Y-98680000D02*
X65870000Y-98680000D01*
X66200000Y-99440000D02*
X65870000Y-99440000D01*
X63210000Y-98780000D02*
X57210000Y-98780000D01*
X63210000Y-98900000D02*
X57210000Y-98900000D01*
X63210000Y-99020000D02*
X57210000Y-99020000D01*
X63210000Y-99140000D02*
X57210000Y-99140000D01*
X63210000Y-99260000D02*
X57210000Y-99260000D01*
X63210000Y-99380000D02*
X57210000Y-99380000D01*
X57210000Y-98680000D02*
X63210000Y-98680000D01*
X57210000Y-99440000D02*
X57210000Y-98680000D01*
X63210000Y-99440000D02*
X57210000Y-99440000D01*
X63210000Y-100390000D02*
X65870000Y-100390000D01*
X63210000Y-85030000D02*
X63210000Y-100390000D01*
X65870000Y-85030000D02*
X63210000Y-85030000D01*
X65870000Y-100390000D02*
X65870000Y-85030000D01*
X77470000Y-100390000D02*
X76360000Y-100390000D01*
X76360000Y-100390000D02*
X76360000Y-99060000D01*
X87560000Y-100390000D02*
X87560000Y-85030000D01*
X87560000Y-85030000D02*
X78930000Y-85030000D01*
X78930000Y-100390000D02*
X78930000Y-85030000D01*
X87560000Y-100390000D02*
X78930000Y-100390000D01*
X87560000Y-87630000D02*
X78930000Y-87630000D01*
X87560000Y-90170000D02*
X78930000Y-90170000D01*
X87560000Y-92710000D02*
X78930000Y-92710000D01*
X87560000Y-95250000D02*
X78930000Y-95250000D01*
X87560000Y-97790000D02*
X78930000Y-97790000D01*
X78930000Y-86000000D02*
X78520000Y-86000000D01*
X78930000Y-86720000D02*
X78520000Y-86720000D01*
X78930000Y-88540000D02*
X78520000Y-88540000D01*
X78930000Y-89260000D02*
X78520000Y-89260000D01*
X78930000Y-91080000D02*
X78520000Y-91080000D01*
X78930000Y-91800000D02*
X78520000Y-91800000D01*
X78930000Y-93620000D02*
X78520000Y-93620000D01*
X78930000Y-94340000D02*
X78520000Y-94340000D01*
X78930000Y-96160000D02*
X78520000Y-96160000D01*
X78930000Y-96880000D02*
X78520000Y-96880000D01*
X78930000Y-98700000D02*
X78580000Y-98700000D01*
X78930000Y-99420000D02*
X78580000Y-99420000D01*
X87560000Y-97908100D02*
X78930000Y-97908100D01*
X87560000Y-98026195D02*
X78930000Y-98026195D01*
X87560000Y-98144290D02*
X78930000Y-98144290D01*
X87560000Y-98262385D02*
X78930000Y-98262385D01*
X87560000Y-98380480D02*
X78930000Y-98380480D01*
X87560000Y-98498575D02*
X78930000Y-98498575D01*
X87560000Y-98616670D02*
X78930000Y-98616670D01*
X87560000Y-98734765D02*
X78930000Y-98734765D01*
X87560000Y-98852860D02*
X78930000Y-98852860D01*
X87560000Y-98970955D02*
X78930000Y-98970955D01*
X87560000Y-99089050D02*
X78930000Y-99089050D01*
X87560000Y-99207145D02*
X78930000Y-99207145D01*
X87560000Y-99325240D02*
X78930000Y-99325240D01*
X87560000Y-99443335D02*
X78930000Y-99443335D01*
X87560000Y-99561430D02*
X78930000Y-99561430D01*
X87560000Y-99679525D02*
X78930000Y-99679525D01*
X87560000Y-99797620D02*
X78930000Y-99797620D01*
X87560000Y-99915715D02*
X78930000Y-99915715D01*
X87560000Y-100033810D02*
X78930000Y-100033810D01*
X87560000Y-100151905D02*
X78930000Y-100151905D01*
X87560000Y-100270000D02*
X78930000Y-100270000D01*
D10*
X84328095Y-118832380D02*
X84328095Y-119641904D01*
X84375714Y-119737142D01*
X84423333Y-119784761D01*
X84518571Y-119832380D01*
X84709047Y-119832380D01*
X84804285Y-119784761D01*
X84851904Y-119737142D01*
X84899523Y-119641904D01*
X84899523Y-118832380D01*
X85899523Y-119832380D02*
X85328095Y-119832380D01*
X85613809Y-119832380D02*
X85613809Y-118832380D01*
X85518571Y-118975238D01*
X85423333Y-119070476D01*
X85328095Y-119118095D01*
X82423095Y-113800000D02*
X82327857Y-113752380D01*
X82185000Y-113752380D01*
X82042142Y-113800000D01*
X81946904Y-113895238D01*
X81899285Y-113990476D01*
X81851666Y-114180952D01*
X81851666Y-114323809D01*
X81899285Y-114514285D01*
X81946904Y-114609523D01*
X82042142Y-114704761D01*
X82185000Y-114752380D01*
X82280238Y-114752380D01*
X82423095Y-114704761D01*
X82470714Y-114657142D01*
X82470714Y-114323809D01*
X82280238Y-114323809D01*
X82899285Y-114752380D02*
X82899285Y-113752380D01*
X83470714Y-114752380D01*
X83470714Y-113752380D01*
X83946904Y-114752380D02*
X83946904Y-113752380D01*
X84185000Y-113752380D01*
X84327857Y-113800000D01*
X84423095Y-113895238D01*
X84470714Y-113990476D01*
X84518333Y-114180952D01*
X84518333Y-114323809D01*
X84470714Y-114514285D01*
X84423095Y-114609523D01*
X84327857Y-114704761D01*
X84185000Y-114752380D01*
X83946904Y-114752380D01*
X79843333Y-114752380D02*
X79510000Y-114276190D01*
X79271904Y-114752380D02*
X79271904Y-113752380D01*
X79652857Y-113752380D01*
X79748095Y-113800000D01*
X79795714Y-113847619D01*
X79843333Y-113942857D01*
X79843333Y-114085714D01*
X79795714Y-114180952D01*
X79748095Y-114228571D01*
X79652857Y-114276190D01*
X79271904Y-114276190D01*
X80176666Y-113752380D02*
X80843333Y-114752380D01*
X80843333Y-113752380D02*
X80176666Y-114752380D01*
X76708095Y-113752380D02*
X77279523Y-113752380D01*
X76993809Y-114752380D02*
X76993809Y-113752380D01*
X77517619Y-113752380D02*
X78184285Y-114752380D01*
X78184285Y-113752380D02*
X77517619Y-114752380D01*
X72961666Y-113752380D02*
X73295000Y-114752380D01*
X73628333Y-113752380D01*
X74533095Y-114657142D02*
X74485476Y-114704761D01*
X74342619Y-114752380D01*
X74247380Y-114752380D01*
X74104523Y-114704761D01*
X74009285Y-114609523D01*
X73961666Y-114514285D01*
X73914047Y-114323809D01*
X73914047Y-114180952D01*
X73961666Y-113990476D01*
X74009285Y-113895238D01*
X74104523Y-113800000D01*
X74247380Y-113752380D01*
X74342619Y-113752380D01*
X74485476Y-113800000D01*
X74533095Y-113847619D01*
X75533095Y-114657142D02*
X75485476Y-114704761D01*
X75342619Y-114752380D01*
X75247380Y-114752380D01*
X75104523Y-114704761D01*
X75009285Y-114609523D01*
X74961666Y-114514285D01*
X74914047Y-114323809D01*
X74914047Y-114180952D01*
X74961666Y-113990476D01*
X75009285Y-113895238D01*
X75104523Y-113800000D01*
X75247380Y-113752380D01*
X75342619Y-113752380D01*
X75485476Y-113800000D01*
X75533095Y-113847619D01*
X83058095Y-78875000D02*
X82962857Y-78827380D01*
X82820000Y-78827380D01*
X82677142Y-78875000D01*
X82581904Y-78970238D01*
X82534285Y-79065476D01*
X82486666Y-79255952D01*
X82486666Y-79398809D01*
X82534285Y-79589285D01*
X82581904Y-79684523D01*
X82677142Y-79779761D01*
X82820000Y-79827380D01*
X82915238Y-79827380D01*
X83058095Y-79779761D01*
X83105714Y-79732142D01*
X83105714Y-79398809D01*
X82915238Y-79398809D01*
X83534285Y-79827380D02*
X83534285Y-78827380D01*
X84105714Y-79827380D01*
X84105714Y-78827380D01*
X84581904Y-79827380D02*
X84581904Y-78827380D01*
X84820000Y-78827380D01*
X84962857Y-78875000D01*
X85058095Y-78970238D01*
X85105714Y-79065476D01*
X85153333Y-79255952D01*
X85153333Y-79398809D01*
X85105714Y-79589285D01*
X85058095Y-79684523D01*
X84962857Y-79779761D01*
X84820000Y-79827380D01*
X84581904Y-79827380D01*
X78192380Y-79303571D02*
X78335238Y-79351190D01*
X78382857Y-79398809D01*
X78430476Y-79494047D01*
X78430476Y-79636904D01*
X78382857Y-79732142D01*
X78335238Y-79779761D01*
X78240000Y-79827380D01*
X77859047Y-79827380D01*
X77859047Y-78827380D01*
X78192380Y-78827380D01*
X78287619Y-78875000D01*
X78335238Y-78922619D01*
X78382857Y-79017857D01*
X78382857Y-79113095D01*
X78335238Y-79208333D01*
X78287619Y-79255952D01*
X78192380Y-79303571D01*
X77859047Y-79303571D01*
X78859047Y-79446428D02*
X79620952Y-79446428D01*
X72802857Y-79541666D02*
X73279047Y-79541666D01*
X72707619Y-79827380D02*
X73040952Y-78827380D01*
X73374285Y-79827380D01*
X73707619Y-79446428D02*
X74469523Y-79446428D01*
X74088571Y-79827380D02*
X74088571Y-79065476D01*
X66468666Y-59904380D02*
X66468666Y-60618666D01*
X66421047Y-60761523D01*
X66325809Y-60856761D01*
X66182952Y-60904380D01*
X66087714Y-60904380D01*
X67373428Y-60237714D02*
X67373428Y-60904380D01*
X67135333Y-59856761D02*
X66897238Y-60571047D01*
X67516285Y-60571047D01*
X65706666Y-123912380D02*
X65706666Y-124626666D01*
X65659047Y-124769523D01*
X65563809Y-124864761D01*
X65420952Y-124912380D01*
X65325714Y-124912380D01*
X66135238Y-124007619D02*
X66182857Y-123960000D01*
X66278095Y-123912380D01*
X66516190Y-123912380D01*
X66611428Y-123960000D01*
X66659047Y-124007619D01*
X66706666Y-124102857D01*
X66706666Y-124198095D01*
X66659047Y-124340952D01*
X66087619Y-124912380D01*
X66706666Y-124912380D01*
X65706666Y-101052380D02*
X65706666Y-101766666D01*
X65659047Y-101909523D01*
X65563809Y-102004761D01*
X65420952Y-102052380D01*
X65325714Y-102052380D01*
X66706666Y-102052380D02*
X66135238Y-102052380D01*
X66420952Y-102052380D02*
X66420952Y-101052380D01*
X66325714Y-101195238D01*
X66230476Y-101290476D01*
X66135238Y-101338095D01*
X81516666Y-101282380D02*
X81516666Y-101996666D01*
X81469047Y-102139523D01*
X81373809Y-102234761D01*
X81230952Y-102282380D01*
X81135714Y-102282380D01*
X81897619Y-101282380D02*
X82516666Y-101282380D01*
X82183333Y-101663333D01*
X82326190Y-101663333D01*
X82421428Y-101710952D01*
X82469047Y-101758571D01*
X82516666Y-101853809D01*
X82516666Y-102091904D01*
X82469047Y-102187142D01*
X82421428Y-102234761D01*
X82326190Y-102282380D01*
X82040476Y-102282380D01*
X81945238Y-102234761D01*
X81897619Y-102187142D01*
%LPC*%
D12*
X76200000Y-76835000D03*
X81280000Y-76835000D03*
X73660000Y-76835000D03*
X78740000Y-76835000D03*
X83820000Y-76835000D03*
X82550000Y-116840000D03*
X80010000Y-116840000D03*
X77470000Y-116840000D03*
X74930000Y-116840000D03*
D13*
X71120000Y-60452000D03*
X76200000Y-60452000D03*
D14*
X81280000Y-60452000D03*
D15*
X67310000Y-109220000D03*
X67310000Y-111760000D03*
X67310000Y-114300000D03*
X67310000Y-116840000D03*
X67310000Y-119380000D03*
D16*
X67310000Y-121920000D03*
D15*
X67310000Y-86360000D03*
X67310000Y-88900000D03*
X67310000Y-91440000D03*
X67310000Y-93980000D03*
X67310000Y-96520000D03*
D16*
X67310000Y-99060000D03*
D15*
X77470000Y-86360000D03*
X77470000Y-88900000D03*
X77470000Y-91440000D03*
X77470000Y-93980000D03*
X77470000Y-96520000D03*
D16*
X77470000Y-99060000D03*
M02*
