G04 #@! TF.GenerationSoftware,KiCad,Pcbnew,5.99.0-unknown-9f841da98e~134~ubuntu20.04.1*
G04 #@! TF.CreationDate,2021-12-17T15:58:44+01:00*
G04 #@! TF.ProjectId,slave-8in-8out,736c6176-652d-4386-996e-2d386f75742e,rev?*
G04 #@! TF.SameCoordinates,PX3a22d00PY8062360*
G04 #@! TF.FileFunction,Copper,L2,Bot*
G04 #@! TF.FilePolarity,Positive*
%FSLAX46Y46*%
G04 Gerber Fmt 4.6, Leading zero omitted, Abs format (unit mm)*
G04 Created by KiCad (PCBNEW 5.99.0-unknown-9f841da98e~134~ubuntu20.04.1) date 2021-12-17 15:58:44*
%MOMM*%
%LPD*%
G01*
G04 APERTURE LIST*
G04 #@! TA.AperFunction,ComponentPad*
%ADD10R,3.000000X3.000000*%
G04 #@! TD*
G04 #@! TA.AperFunction,ComponentPad*
%ADD11C,3.000000*%
G04 #@! TD*
G04 #@! TA.AperFunction,ComponentPad*
%ADD12R,1.700000X1.700000*%
G04 #@! TD*
G04 #@! TA.AperFunction,ComponentPad*
%ADD13O,1.700000X1.700000*%
G04 #@! TD*
G04 #@! TA.AperFunction,ComponentPad*
%ADD14R,1.600000X1.600000*%
G04 #@! TD*
G04 #@! TA.AperFunction,ComponentPad*
%ADD15O,1.600000X1.600000*%
G04 #@! TD*
G04 #@! TA.AperFunction,ComponentPad*
%ADD16R,3.000000X1.700000*%
G04 #@! TD*
G04 #@! TA.AperFunction,ComponentPad*
%ADD17O,3.000000X1.700000*%
G04 #@! TD*
G04 #@! TA.AperFunction,ViaPad*
%ADD18C,0.600000*%
G04 #@! TD*
G04 #@! TA.AperFunction,Conductor*
%ADD19C,0.500000*%
G04 #@! TD*
G04 #@! TA.AperFunction,Conductor*
%ADD20C,0.250000*%
G04 #@! TD*
G04 APERTURE END LIST*
D10*
X86614000Y-68072000D03*
D11*
X81534000Y-68072000D03*
D10*
X127254000Y-68072000D03*
D11*
X122174000Y-68072000D03*
X117094000Y-68072000D03*
X112014000Y-68072000D03*
D10*
X106934000Y-68072000D03*
D11*
X101854000Y-68072000D03*
X96774000Y-68072000D03*
X91694000Y-68072000D03*
D12*
X98806000Y-115875700D03*
D13*
X101346000Y-115875700D03*
X103886000Y-115875700D03*
X106426000Y-115875700D03*
X108966000Y-115875700D03*
X111506000Y-115875700D03*
X114046000Y-115875700D03*
X116586000Y-115875700D03*
X119126000Y-115875700D03*
X121666000Y-115875700D03*
D10*
X111760000Y-123952000D03*
D11*
X116840000Y-123952000D03*
X121920000Y-123952000D03*
X127000000Y-123952000D03*
D10*
X91440000Y-123952000D03*
D11*
X96520000Y-123952000D03*
X101600000Y-123952000D03*
X106680000Y-123952000D03*
D10*
X81280000Y-123952000D03*
D11*
X86360000Y-123952000D03*
D14*
X74442000Y-114046000D03*
D15*
X76982000Y-114046000D03*
X79522000Y-114046000D03*
X79522000Y-106426000D03*
X76982000Y-106426000D03*
X74442000Y-106426000D03*
D16*
X73152000Y-101321000D03*
D17*
X73152000Y-98781000D03*
X73152000Y-96241000D03*
X73152000Y-93701000D03*
X73152000Y-91161000D03*
X73152000Y-88621000D03*
D14*
X85090000Y-114046000D03*
D15*
X87630000Y-114046000D03*
X87630000Y-106426000D03*
X85090000Y-106426000D03*
D16*
X128196000Y-101321000D03*
D17*
X128196000Y-98781000D03*
X128196000Y-96241000D03*
X128196000Y-93701000D03*
X128196000Y-91161000D03*
X128196000Y-88621000D03*
D18*
X97153000Y-97028000D03*
X93516000Y-94294498D03*
X97153000Y-93980000D03*
X97153000Y-95504000D03*
X97153000Y-103124000D03*
X97153000Y-104648000D03*
X97155000Y-100076000D03*
X97153000Y-98552000D03*
X97153000Y-101600000D03*
X79311500Y-101321000D03*
X90212900Y-100485900D03*
X79118300Y-99627000D03*
X89767309Y-99524803D03*
X86316000Y-101793502D03*
X115864000Y-89195500D03*
X98337500Y-89195500D03*
X104180000Y-89195500D03*
X82040000Y-100584000D03*
X105918000Y-93648000D03*
X86653500Y-89195500D03*
X121579000Y-89195500D03*
X92495500Y-89195500D03*
X110022000Y-89195500D03*
X80811500Y-89195500D03*
X116078000Y-93570000D03*
X98108500Y-94057300D03*
X110998000Y-93648000D03*
X102979300Y-96408100D03*
X92265700Y-105519000D03*
X103096600Y-105945900D03*
X108458000Y-93648000D03*
X104682500Y-94373400D03*
X87884000Y-100584000D03*
X80264000Y-95504000D03*
X88949000Y-97615200D03*
X90931600Y-90466500D03*
X87041600Y-91637100D03*
X104296200Y-90452300D03*
X100639400Y-87497000D03*
X112411300Y-87497000D03*
X90405900Y-92859300D03*
X114027200Y-95131700D03*
X116078000Y-102919000D03*
X114808000Y-102919000D03*
X113538000Y-102919000D03*
X112268000Y-102919000D03*
X110998000Y-102919000D03*
X109728000Y-102919000D03*
X108458000Y-102919000D03*
X107188000Y-102919000D03*
X81024000Y-94763900D03*
X87768000Y-94763900D03*
X81024000Y-99060000D03*
X79880900Y-97604500D03*
X85937900Y-93182900D03*
D19*
X73852000Y-91161000D02*
X80431000Y-84582000D01*
X81280000Y-123952000D02*
X83330300Y-123952000D01*
X91406600Y-115875700D02*
X98806000Y-115875700D01*
X73152000Y-91161000D02*
X73852000Y-91161000D01*
X120650000Y-84582000D02*
X127229000Y-91161000D01*
X83330300Y-123952000D02*
X91406600Y-115875700D01*
X80431000Y-84582000D02*
X120650000Y-84582000D01*
X127229000Y-91161000D02*
X128196000Y-91161000D01*
X77657200Y-114046000D02*
X78332300Y-114046000D01*
X79522000Y-113370800D02*
X79007500Y-113370800D01*
X97153000Y-100076000D02*
X97155000Y-100076000D01*
X84441400Y-107776300D02*
X79522000Y-112695700D01*
X73152000Y-93701000D02*
X74193000Y-93701000D01*
X97153000Y-98552000D02*
X97153000Y-100076000D01*
X119704000Y-85852000D02*
X127553000Y-93701000D01*
X79007500Y-113370800D02*
X78332300Y-114046000D01*
X74193000Y-93701000D02*
X82042000Y-85852000D01*
X97153000Y-100076000D02*
X97153000Y-101600000D01*
X97153000Y-93980000D02*
X97153000Y-95504000D01*
X97153000Y-97028000D02*
X97153000Y-98552000D01*
X97153000Y-93980000D02*
X93830498Y-93980000D01*
X93830498Y-93980000D02*
X93516000Y-94294498D01*
X97153000Y-101600000D02*
X97153000Y-103124000D01*
X127553000Y-93701000D02*
X128196000Y-93701000D01*
X97153000Y-103124000D02*
X97153000Y-104648000D01*
X79522000Y-113370800D02*
X79522000Y-112695700D01*
X79522000Y-114046000D02*
X79522000Y-113370800D01*
X77657200Y-114046000D02*
X76982000Y-114046000D01*
X85090000Y-106426000D02*
X87630000Y-106426000D01*
X82042000Y-85852000D02*
X119704000Y-85852000D01*
X97153000Y-95504000D02*
X97153000Y-97028000D01*
X76982000Y-114046000D02*
X74442000Y-114046000D01*
X85090000Y-106426000D02*
X85090000Y-107776300D01*
X85090000Y-107776300D02*
X84441400Y-107776300D01*
D20*
X87376000Y-104140000D02*
X90212900Y-101303100D01*
X75376700Y-100927300D02*
X74983000Y-101321000D01*
X90212900Y-101303100D02*
X90212900Y-100485900D01*
X76371300Y-101321000D02*
X75977600Y-100927300D01*
X75977600Y-100927300D02*
X75376700Y-100927300D01*
X95622100Y-105895100D02*
X98526800Y-105895100D01*
X74983000Y-101321000D02*
X73152000Y-101321000D01*
X82130500Y-104140000D02*
X87376000Y-104140000D01*
X98526800Y-105895100D02*
X103100900Y-101321000D01*
X79311500Y-101321000D02*
X82130500Y-104140000D01*
X79311500Y-101321000D02*
X76371300Y-101321000D01*
X90212900Y-100485900D02*
X95622100Y-105895100D01*
X103100900Y-101321000D02*
X128196000Y-101321000D01*
X89538389Y-100206507D02*
X89538389Y-100961611D01*
X97607900Y-105393900D02*
X104220800Y-98781000D01*
X89767309Y-99977587D02*
X89538389Y-100206507D01*
X89767309Y-99524803D02*
X89767309Y-99977587D01*
X104220800Y-98781000D02*
X128196000Y-98781000D01*
X79986011Y-101068011D02*
X79986011Y-100494711D01*
X91042100Y-99627000D02*
X96809000Y-105393900D01*
X89538389Y-100961611D02*
X86868000Y-103632000D01*
X78272300Y-98781000D02*
X79118300Y-99627000D01*
X96809000Y-105393900D02*
X97607900Y-105393900D01*
X74902200Y-98781000D02*
X78272300Y-98781000D01*
X79986011Y-100494711D02*
X79118300Y-99627000D01*
X73152000Y-98781000D02*
X74902200Y-98781000D01*
X82550000Y-103632000D02*
X79986011Y-101068011D01*
X86868000Y-103632000D02*
X82550000Y-103632000D01*
X89595100Y-99627000D02*
X91042100Y-99627000D01*
D19*
X75202300Y-95485700D02*
X80811500Y-89876500D01*
X105918000Y-89195500D02*
X110022000Y-89195500D01*
X115864000Y-89195500D02*
X121579000Y-89195500D01*
X126145700Y-93762200D02*
X121579000Y-89195500D01*
X85106498Y-100584000D02*
X86316000Y-101793502D01*
X82040000Y-100584000D02*
X85106498Y-100584000D01*
X86653500Y-89195500D02*
X92495500Y-89195500D01*
X73152000Y-96241000D02*
X75202300Y-96241000D01*
X92495500Y-89195500D02*
X98337500Y-89195500D01*
X80811500Y-89195500D02*
X86653500Y-89195500D01*
X80811500Y-89876500D02*
X80811500Y-89195500D01*
X110022000Y-89195500D02*
X115864000Y-89195500D01*
X105918000Y-93648000D02*
X105918000Y-89195500D01*
X126145700Y-96241000D02*
X126145700Y-93762200D01*
X128196000Y-96241000D02*
X126145700Y-96241000D01*
X98337500Y-89195500D02*
X104180000Y-89195500D01*
X75202300Y-96241000D02*
X75202300Y-95485700D01*
X104180000Y-89195500D02*
X105918000Y-89195500D01*
D20*
X116078000Y-94036000D02*
X116078000Y-93648000D01*
X98108500Y-94057300D02*
X101652900Y-97601700D01*
X116078000Y-94036000D02*
X112512300Y-97601700D01*
X101652900Y-97601700D02*
X112512300Y-97601700D01*
X110998000Y-93648000D02*
X108237900Y-96408100D01*
X108237900Y-96408100D02*
X102979300Y-96408100D01*
X102596300Y-106446200D02*
X103096600Y-105945900D01*
X93192900Y-106446200D02*
X102596300Y-106446200D01*
X92265700Y-105519000D02*
X93192900Y-106446200D01*
X107732600Y-94373400D02*
X104682500Y-94373400D01*
X108458000Y-93648000D02*
X107732600Y-94373400D01*
X87884000Y-100584000D02*
X87630000Y-100584000D01*
X80264000Y-95504000D02*
X82550000Y-95504000D01*
X87630000Y-100584000D02*
X82550000Y-95504000D01*
X86330800Y-91392900D02*
X87257200Y-90466500D01*
X88949000Y-97615200D02*
X88949000Y-94236300D01*
X88949000Y-94236300D02*
X87142000Y-92429300D01*
X86876700Y-92429300D02*
X86330800Y-91883400D01*
X87257200Y-90466500D02*
X90931600Y-90466500D01*
X87142000Y-92429300D02*
X86876700Y-92429300D01*
X86330800Y-91883400D02*
X86330800Y-91392900D01*
X104296200Y-90452300D02*
X104267900Y-90424000D01*
X104267900Y-90424000D02*
X92456000Y-90424000D01*
X91242900Y-91637100D02*
X87041600Y-91637100D01*
X92456000Y-90424000D02*
X91242900Y-91637100D01*
X100639400Y-87497000D02*
X112411300Y-87497000D01*
X114027200Y-95131700D02*
X112057500Y-97101400D01*
X102679200Y-97101400D02*
X98437100Y-92859300D01*
X98437100Y-92859300D02*
X90405900Y-92859300D01*
X112057500Y-97101400D02*
X102679200Y-97101400D01*
D19*
X119126000Y-115875700D02*
X119126000Y-114475400D01*
X116078000Y-102919000D02*
X116078000Y-111427400D01*
X116078000Y-111427400D02*
X119126000Y-114475400D01*
X114808000Y-112697400D02*
X116586000Y-114475400D01*
X114808000Y-102919000D02*
X114808000Y-112697400D01*
X116586000Y-115875700D02*
X116586000Y-114475400D01*
X113538000Y-113967400D02*
X114046000Y-114475400D01*
X113538000Y-102919000D02*
X113538000Y-113967400D01*
X114046000Y-115875700D02*
X114046000Y-114475400D01*
X111506000Y-115875700D02*
X111506000Y-114475400D01*
X112268000Y-102919000D02*
X112268000Y-113713400D01*
X112268000Y-113713400D02*
X111506000Y-114475400D01*
X108966000Y-115875700D02*
X108966000Y-114475400D01*
X110998000Y-102919000D02*
X110998000Y-112443400D01*
X110998000Y-112443400D02*
X108966000Y-114475400D01*
X109728000Y-102919000D02*
X109728000Y-111173400D01*
X109728000Y-111173400D02*
X106426000Y-114475400D01*
X106426000Y-115875700D02*
X106426000Y-114475400D01*
X108458000Y-109903400D02*
X103886000Y-114475400D01*
X103886000Y-115875700D02*
X103886000Y-114475400D01*
X108458000Y-102919000D02*
X108458000Y-109903400D01*
X107188000Y-102919000D02*
X107188000Y-108633400D01*
X100166300Y-117276000D02*
X93490300Y-123952000D01*
X107188000Y-108633400D02*
X101346000Y-114475400D01*
X101346000Y-115875700D02*
X101346000Y-114475400D01*
X101346000Y-117276000D02*
X100166300Y-117276000D01*
X101346000Y-115875700D02*
X101346000Y-117276000D01*
X91440000Y-123952000D02*
X93490300Y-123952000D01*
D20*
X81024000Y-93216000D02*
X81024000Y-94763900D01*
X71944500Y-97546300D02*
X74850915Y-97546300D01*
X71276600Y-102328900D02*
X71276600Y-98214200D01*
X81024000Y-94763900D02*
X87768000Y-94763900D01*
X75876820Y-96520395D02*
X75876820Y-95765096D01*
X74442000Y-105250700D02*
X74198400Y-105250700D01*
X74198400Y-105250700D02*
X71276600Y-102328900D01*
X74442000Y-106426000D02*
X74442000Y-105250700D01*
X75876820Y-95765096D02*
X79185916Y-92456000D01*
X71276600Y-98214200D02*
X71944500Y-97546300D01*
X79185916Y-92456000D02*
X80264000Y-92456000D01*
X74850915Y-97546300D02*
X75876820Y-96520395D01*
X80264000Y-92456000D02*
X81024000Y-93216000D01*
X88448600Y-94487500D02*
X87144000Y-93182900D01*
X81024000Y-101090000D02*
X83058000Y-103124000D01*
X87144000Y-93182900D02*
X85937900Y-93182900D01*
X81024000Y-99060000D02*
X81024000Y-101090000D01*
X88274489Y-97894593D02*
X88274489Y-97335807D01*
X86614000Y-103124000D02*
X88646000Y-101092000D01*
X83058000Y-103124000D02*
X86614000Y-103124000D01*
X88274489Y-97335807D02*
X88448600Y-97161696D01*
X88646000Y-101092000D02*
X88646000Y-98266104D01*
X88646000Y-98266104D02*
X88274489Y-97894593D01*
X88448600Y-97161696D02*
X88448600Y-94487500D01*
D19*
X86614000Y-77833200D02*
X81135200Y-83312000D01*
X73152000Y-88621000D02*
X73685000Y-88621000D01*
X81534000Y-68072000D02*
X86614000Y-68072000D01*
X73685000Y-88621000D02*
X78994000Y-83312000D01*
X81135200Y-83312000D02*
X121666000Y-83312000D01*
X121666000Y-83312000D02*
X126975000Y-88621000D01*
X78994000Y-83312000D02*
X81135200Y-83312000D01*
X126975000Y-88621000D02*
X128196000Y-88621000D01*
X86614000Y-68072000D02*
X86614000Y-77833200D01*
M02*
