G04 #@! TF.GenerationSoftware,KiCad,Pcbnew,5.99.0-unknown-9f841da98e~134~ubuntu20.04.1*
G04 #@! TF.CreationDate,2021-11-20T13:09:35+01:00*
G04 #@! TF.ProjectId,slave-8in-8out,736c6176-652d-4386-996e-2d386f75742e,rev?*
G04 #@! TF.SameCoordinates,PX3a22d00PY8062360*
G04 #@! TF.FileFunction,Soldermask,Bot*
G04 #@! TF.FilePolarity,Negative*
%FSLAX46Y46*%
G04 Gerber Fmt 4.6, Leading zero omitted, Abs format (unit mm)*
G04 Created by KiCad (PCBNEW 5.99.0-unknown-9f841da98e~134~ubuntu20.04.1) date 2021-11-20 13:09:35*
%MOMM*%
%LPD*%
G01*
G04 APERTURE LIST*
%ADD10R,3.000000X3.000000*%
%ADD11C,3.000000*%
%ADD12R,1.700000X3.048000*%
%ADD13O,1.700000X3.048000*%
%ADD14R,1.600000X1.600000*%
%ADD15O,1.600000X1.600000*%
%ADD16C,3.200000*%
%ADD17R,3.000000X1.700000*%
%ADD18O,3.000000X1.700000*%
G04 APERTURE END LIST*
D10*
X86360000Y-66802000D03*
D11*
X81280000Y-66802000D03*
D10*
X127000000Y-66802000D03*
D11*
X121920000Y-66802000D03*
X116840000Y-66802000D03*
X111760000Y-66802000D03*
D10*
X106680000Y-66802000D03*
D11*
X101600000Y-66802000D03*
X96520000Y-66802000D03*
X91440000Y-66802000D03*
D12*
X101605000Y-115291000D03*
D13*
X104145000Y-115291000D03*
X106685000Y-115291000D03*
X109225000Y-115291000D03*
X111765000Y-115291000D03*
X114305000Y-115291000D03*
X116845000Y-115291000D03*
X119385000Y-115291000D03*
X121925000Y-115291000D03*
X124465000Y-115291000D03*
D10*
X112014000Y-124689000D03*
D11*
X117094000Y-124689000D03*
X122174000Y-124689000D03*
X127254000Y-124689000D03*
D10*
X91694000Y-124689000D03*
D11*
X96774000Y-124689000D03*
X101854000Y-124689000D03*
X106934000Y-124689000D03*
D10*
X81534000Y-124689000D03*
D11*
X86614000Y-124689000D03*
D14*
X92202000Y-108433000D03*
D15*
X89662000Y-108433000D03*
X87122000Y-108433000D03*
X84582000Y-108433000D03*
X82042000Y-108433000D03*
X82042000Y-116053000D03*
X84582000Y-116053000D03*
X87122000Y-116053000D03*
X89662000Y-116053000D03*
X92202000Y-116053000D03*
D16*
X135636000Y-128270000D03*
D17*
X73152000Y-101321000D03*
D18*
X73152000Y-98781000D03*
X73152000Y-96241000D03*
X73152000Y-93701000D03*
X73152000Y-91161000D03*
X73152000Y-88621000D03*
D16*
X73152000Y-128270000D03*
X73152000Y-63754000D03*
X135636000Y-63754000D03*
D17*
X128196000Y-101321000D03*
D18*
X128196000Y-98781000D03*
X128196000Y-96241000D03*
X128196000Y-93701000D03*
X128196000Y-91161000D03*
X128196000Y-88621000D03*
M02*
