G04 #@! TF.GenerationSoftware,KiCad,Pcbnew,5.1.10-88a1d61d58~88~ubuntu20.04.1*
G04 #@! TF.CreationDate,2021-06-06T19:54:44+02:00*
G04 #@! TF.ProjectId,slave-8in-8out,736c6176-652d-4386-996e-2d386f75742e,rev?*
G04 #@! TF.SameCoordinates,PX3a22d00PY8062360*
G04 #@! TF.FileFunction,Legend,Bot*
G04 #@! TF.FilePolarity,Positive*
%FSLAX46Y46*%
G04 Gerber Fmt 4.6, Leading zero omitted, Abs format (unit mm)*
G04 Created by KiCad (PCBNEW 5.1.10-88a1d61d58~88~ubuntu20.04.1) date 2021-06-06 19:54:44*
%MOMM*%
%LPD*%
G01*
G04 APERTURE LIST*
%ADD10O,1.600000X3.048000*%
%ADD11R,1.600000X3.048000*%
%ADD12C,3.810000*%
%ADD13C,2.200000*%
%ADD14O,1.524000X3.048000*%
%ADD15C,3.000000*%
%ADD16R,3.000000X3.000000*%
%ADD17O,1.700000X3.048000*%
%ADD18R,1.700000X3.048000*%
%ADD19O,3.000000X1.700000*%
%ADD20R,3.000000X1.700000*%
G04 APERTURE END LIST*
%LPC*%
D10*
X92075000Y-106299000D03*
X86995000Y-98679000D03*
X89535000Y-106299000D03*
X89535000Y-98679000D03*
X86995000Y-106299000D03*
D11*
X92075000Y-98679000D03*
D12*
X66294000Y-105156000D03*
D13*
X81534000Y-75184000D03*
D14*
X67564000Y-110617000D03*
X70104000Y-110617000D03*
X72644000Y-110617000D03*
X75184000Y-110617000D03*
X77724000Y-110617000D03*
X80264000Y-110617000D03*
X67564000Y-69850000D03*
X70104000Y-69850000D03*
X72644000Y-69850000D03*
X75184000Y-69850000D03*
X77724000Y-69850000D03*
X80264000Y-69850000D03*
X82804000Y-110617000D03*
X65024000Y-110617000D03*
X65024000Y-69850000D03*
X82804000Y-69850000D03*
D15*
X75438000Y-121158000D03*
D16*
X70358000Y-121158000D03*
D17*
X117475000Y-112649000D03*
X114935000Y-112649000D03*
X112395000Y-112649000D03*
X109855000Y-112649000D03*
X107315000Y-112649000D03*
X104775000Y-112649000D03*
X102235000Y-112649000D03*
X99695000Y-112649000D03*
X97155000Y-112649000D03*
D18*
X94615000Y-112649000D03*
D15*
X116078000Y-121158000D03*
D16*
X100838000Y-121158000D03*
D15*
X110998000Y-121158000D03*
X105918000Y-121158000D03*
X95758000Y-121158000D03*
D16*
X80518000Y-121158000D03*
D15*
X90678000Y-121158000D03*
X85598000Y-121158000D03*
X80518000Y-60452000D03*
D16*
X95758000Y-60452000D03*
D15*
X85598000Y-60452000D03*
X90678000Y-60452000D03*
X100838000Y-60452000D03*
D16*
X116078000Y-60452000D03*
D15*
X105918000Y-60452000D03*
X110998000Y-60452000D03*
X70358000Y-60452000D03*
D16*
X75438000Y-60452000D03*
D19*
X67310000Y-86360000D03*
X67310000Y-88900000D03*
X67310000Y-91440000D03*
X67310000Y-93980000D03*
X67310000Y-96520000D03*
D20*
X67310000Y-99060000D03*
D19*
X113030000Y-86360000D03*
X113030000Y-88900000D03*
X113030000Y-91440000D03*
X113030000Y-93980000D03*
X113030000Y-96520000D03*
D20*
X113030000Y-99060000D03*
M02*
