M48
METRIC
T1C0.300
T2C0.800
T3C1.000
T4C1.520
T5C3.200
%
G90
G05
T1
X74.177Y-85.536
X77.013Y-96.241
X79.394Y-101.919
X79.686Y-99.727
X79.82Y-109.17
X80.621Y-110.483
X81.41Y-99.952
X84.177Y-71.822
X87.63Y-101.854
X87.63Y-102.87
X89.916Y-102.87
X90.464Y-71.822
X91.186Y-101.854
X92.823Y-94.35
X92.831Y-93.387
X92.964Y-99.568
X93.413Y-70.172
X93.938Y-90.673
X94.767Y-71.776
X95.142Y-91.41
X97.53Y-89.078
X98.619Y-104.623
X99.976Y-103.61
X100.838Y-93.218
X101.6Y-96.012
X102.108Y-94.234
X102.434Y-101.758
X102.966Y-92.699
X104.902Y-95.758
X105.876Y-90.73
X106.726Y-98.223
X108.381Y-97.432
X110.736Y-105.414
X110.757Y-94.4
X111.398Y-106.044
X111.76Y-96.52
X112.774Y-70.365
X112.776Y-97.536
X113.665Y-89.078
X113.999Y-97.536
X114.046Y-105.614
X114.294Y-106.578
X116.586Y-106.144
X117.856Y-98.124
X117.856Y-106.711
X118.521Y-90.632
X119.126Y-98.81
X119.38Y-103.683
X120.395Y-104.568
X122.174Y-106.573
X122.936Y-93.726
X122.936Y-96.099
X123.049Y-99.272
X124.643Y-96.241
T2
X82.042Y-108.433
X82.042Y-116.053
X84.582Y-108.433
X84.582Y-116.053
X87.122Y-108.433
X87.122Y-116.053
X89.662Y-108.433
X89.662Y-116.053
X92.202Y-108.433
X92.202Y-116.053
T3
X73.152Y-88.621
X73.152Y-91.161
X73.152Y-93.701
X73.152Y-96.241
X73.152Y-98.781
X73.152Y-101.321
X101.605Y-115.291
X104.145Y-115.291
X106.685Y-115.291
X109.225Y-115.291
X111.765Y-115.291
X114.305Y-115.291
X116.845Y-115.291
X119.385Y-115.291
X121.925Y-115.291
X124.465Y-115.291
X128.196Y-88.621
X128.196Y-91.161
X128.196Y-93.701
X128.196Y-96.241
X128.196Y-98.781
X128.196Y-101.321
T4
X81.28Y-66.802
X81.534Y-124.689
X86.36Y-66.802
X86.614Y-124.689
X91.44Y-66.802
X91.694Y-124.689
X96.52Y-66.802
X96.774Y-124.689
X101.6Y-66.802
X101.854Y-124.689
X106.68Y-66.802
X106.934Y-124.689
X111.76Y-66.802
X112.014Y-124.689
X116.84Y-66.802
X117.094Y-124.689
X121.92Y-66.802
X122.174Y-124.689
X127.0Y-66.802
X127.254Y-124.689
T5
X73.152Y-63.754
X73.152Y-128.27
X135.636Y-63.754
X135.636Y-128.27
T0
M30
