M48
METRIC
T1C0.300
T2C0.800
T3C1.000
T4C1.520
T5C3.200
%
G90
G05
T1
X79.248Y-99.568
X79.311Y-101.6
X79.881Y-97.605
X80.264Y-95.504
X80.264Y-99.06
X81.024Y-94.764
X81.788Y-89.195
X82.04Y-101.6
X84.836Y-101.6
X85.938Y-93.183
X87.042Y-91.637
X87.63Y-89.195
X87.768Y-94.764
X87.884Y-100.584
X88.949Y-97.615
X89.767Y-99.525
X90.213Y-100.486
X90.406Y-92.859
X90.932Y-90.466
X92.266Y-105.519
X93.472Y-89.154
X94.234Y-93.726
X98.044Y-93.98
X98.044Y-95.504
X98.044Y-97.028
X98.044Y-98.552
X98.044Y-100.076
X98.044Y-101.6
X98.044Y-103.124
X98.044Y-104.648
X99.314Y-89.195
X100.639Y-87.497
X100.934Y-93.218
X103.097Y-105.946
X103.886Y-96.427
X104.296Y-90.452
X105.156Y-89.195
X105.664Y-96.099
X105.918Y-94.996
X107.188Y-104.648
X108.458Y-94.996
X108.458Y-104.648
X109.728Y-104.648
X110.998Y-89.195
X110.998Y-95.25
X110.998Y-104.648
X112.268Y-104.648
X112.411Y-87.497
X113.538Y-104.648
X114.027Y-95.132
X114.808Y-104.648
X116.078Y-91.948
X116.078Y-104.648
X116.84Y-89.195
X121.579Y-90.17
T2
X74.442Y-106.426
X74.442Y-114.046
X76.982Y-106.426
X76.982Y-114.046
X79.522Y-106.426
X79.522Y-114.046
X85.09Y-106.426
X85.09Y-114.046
X87.63Y-106.426
X87.63Y-114.046
T3
X73.152Y-88.621
X73.152Y-91.161
X73.152Y-93.701
X73.152Y-96.241
X73.152Y-98.781
X73.152Y-101.321
X98.806Y-115.876
X101.346Y-115.876
X103.886Y-115.876
X106.426Y-115.876
X108.966Y-115.876
X111.506Y-115.876
X114.046Y-115.876
X116.586Y-115.876
X119.126Y-115.876
X121.666Y-115.876
X128.196Y-88.621
X128.196Y-91.161
X128.196Y-93.701
X128.196Y-96.241
X128.196Y-98.781
X128.196Y-101.321
T4
X81.28Y-123.952
X81.534Y-68.072
X86.36Y-123.952
X86.614Y-68.072
X91.44Y-123.952
X91.694Y-68.072
X96.52Y-123.952
X96.774Y-68.072
X101.6Y-123.952
X101.854Y-68.072
X106.68Y-123.952
X106.934Y-68.072
X111.76Y-123.952
X112.014Y-68.072
X116.84Y-123.952
X117.094Y-68.072
X121.92Y-123.952
X122.174Y-68.072
X127.0Y-123.952
X127.254Y-68.072
T5
X73.152Y-63.754
X73.152Y-128.27
X135.636Y-63.754
X135.636Y-128.27
T0
M30
