%FSLAX45Y45*%
G04 Gerber Fmt 4.5, Leading zero omitted, Abs format (unit mm)*
G04 Created by KiCad (PCBNEW 5.1.10-88a1d61d58~88~ubuntu20.04.1) date 2021-06-06 19:54:44*
%MOMM*%
%LPD*%
G01*
G04 APERTURE LIST*
%TA.AperFunction,Profile*%
%ADD10C,0.050000*%
%TD*%
%ADD11C,0.200000*%
%ADD12C,0.300000*%
G04 APERTURE END LIST*
D10*
X12192000Y-5461000D02*
G75*
G02*
X12446000Y-5715000I0J-254000D01*
G01*
X12446000Y-12446000D02*
G75*
G02*
X12192000Y-12700000I-254000J0D01*
G01*
X6604000Y-12700000D02*
G75*
G02*
X6350000Y-12446000I0J254000D01*
G01*
X6350000Y-5715000D02*
G75*
G02*
X6604000Y-5461000I254000J0D01*
G01*
X12446000Y-5715000D02*
X12446000Y-12446000D01*
X6604000Y-12700000D02*
X12192000Y-12700000D01*
X6604000Y-5461000D02*
X12192000Y-5461000D01*
X6350000Y-12446000D02*
X6350000Y-5715000D01*
D11*
X9992600Y-9154400D02*
X10022600Y-9184400D01*
X10022600Y-9154400D02*
X9992600Y-9184400D01*
X10133100Y-10360900D02*
X10163100Y-10390900D01*
X10163100Y-10360900D02*
X10133100Y-10390900D01*
X10995900Y-9700500D02*
X11025900Y-9730500D01*
X11025900Y-9700500D02*
X10995900Y-9730500D01*
X6540500Y-6985000D02*
G75*
G03*
X6540500Y-6985000I-38100J0D01*
G01*
X6540500Y-11061700D02*
G75*
G03*
X6540500Y-11061700I-38100J0D01*
G01*
X6794500Y-6985000D02*
G75*
G03*
X6794500Y-6985000I-38100J0D01*
G01*
X6794500Y-11061700D02*
G75*
G03*
X6794500Y-11061700I-38100J0D01*
G01*
X7048500Y-6985000D02*
G75*
G03*
X7048500Y-6985000I-38100J0D01*
G01*
X7048500Y-11061700D02*
G75*
G03*
X7048500Y-11061700I-38100J0D01*
G01*
X7302500Y-6985000D02*
G75*
G03*
X7302500Y-6985000I-38100J0D01*
G01*
X7302500Y-11061700D02*
G75*
G03*
X7302500Y-11061700I-38100J0D01*
G01*
X7556500Y-6985000D02*
G75*
G03*
X7556500Y-6985000I-38100J0D01*
G01*
X7556500Y-11061700D02*
G75*
G03*
X7556500Y-11061700I-38100J0D01*
G01*
X7810500Y-6985000D02*
G75*
G03*
X7810500Y-6985000I-38100J0D01*
G01*
X7810500Y-11061700D02*
G75*
G03*
X7810500Y-11061700I-38100J0D01*
G01*
X8064500Y-6985000D02*
G75*
G03*
X8064500Y-6985000I-38100J0D01*
G01*
X8064500Y-11061700D02*
G75*
G03*
X8064500Y-11061700I-38100J0D01*
G01*
X8318500Y-6985000D02*
G75*
G03*
X8318500Y-6985000I-38100J0D01*
G01*
X8318500Y-11061700D02*
G75*
G03*
X8318500Y-11061700I-38100J0D01*
G01*
X8699500Y-9827900D02*
X8699500Y-9907900D01*
X8659500Y-9867900D02*
X8739500Y-9867900D01*
X8699500Y-10589900D02*
X8699500Y-10669900D01*
X8659500Y-10629900D02*
X8739500Y-10629900D01*
X8953500Y-9827900D02*
X8953500Y-9907900D01*
X8913500Y-9867900D02*
X8993500Y-9867900D01*
X8953500Y-10589900D02*
X8953500Y-10669900D01*
X8913500Y-10629900D02*
X8993500Y-10629900D01*
X9207500Y-9827900D02*
X9207500Y-9907900D01*
X9167500Y-9867900D02*
X9247500Y-9867900D01*
X9207500Y-10589900D02*
X9207500Y-10669900D01*
X9167500Y-10629900D02*
X9247500Y-10629900D01*
X6766356Y-8671356D02*
X6766356Y-8600644D01*
X6695644Y-8600644D01*
X6695644Y-8671356D01*
X6766356Y-8671356D01*
X6766356Y-8925356D02*
X6766356Y-8854644D01*
X6695644Y-8854644D01*
X6695644Y-8925356D01*
X6766356Y-8925356D01*
X6766356Y-9179356D02*
X6766356Y-9108644D01*
X6695644Y-9108644D01*
X6695644Y-9179356D01*
X6766356Y-9179356D01*
X6766356Y-9433356D02*
X6766356Y-9362644D01*
X6695644Y-9362644D01*
X6695644Y-9433356D01*
X6766356Y-9433356D01*
X6766356Y-9687356D02*
X6766356Y-9616644D01*
X6695644Y-9616644D01*
X6695644Y-9687356D01*
X6766356Y-9687356D01*
X6766356Y-9941356D02*
X6766356Y-9870644D01*
X6695644Y-9870644D01*
X6695644Y-9941356D01*
X6766356Y-9941356D01*
X9496856Y-11300256D02*
X9496856Y-11229544D01*
X9426144Y-11229544D01*
X9426144Y-11300256D01*
X9496856Y-11300256D01*
X9750856Y-11300256D02*
X9750856Y-11229544D01*
X9680144Y-11229544D01*
X9680144Y-11300256D01*
X9750856Y-11300256D01*
X10004856Y-11300256D02*
X10004856Y-11229544D01*
X9934144Y-11229544D01*
X9934144Y-11300256D01*
X10004856Y-11300256D01*
X10258856Y-11300256D02*
X10258856Y-11229544D01*
X10188144Y-11229544D01*
X10188144Y-11300256D01*
X10258856Y-11300256D01*
X10512856Y-11300256D02*
X10512856Y-11229544D01*
X10442144Y-11229544D01*
X10442144Y-11300256D01*
X10512856Y-11300256D01*
X10766856Y-11300256D02*
X10766856Y-11229544D01*
X10696144Y-11229544D01*
X10696144Y-11300256D01*
X10766856Y-11300256D01*
X11020856Y-11300256D02*
X11020856Y-11229544D01*
X10950144Y-11229544D01*
X10950144Y-11300256D01*
X11020856Y-11300256D01*
X11274856Y-11300256D02*
X11274856Y-11229544D01*
X11204144Y-11229544D01*
X11204144Y-11300256D01*
X11274856Y-11300256D01*
X11338356Y-8671356D02*
X11338356Y-8600644D01*
X11267644Y-8600644D01*
X11267644Y-8671356D01*
X11338356Y-8671356D01*
X11338356Y-8925356D02*
X11338356Y-8854644D01*
X11267644Y-8854644D01*
X11267644Y-8925356D01*
X11338356Y-8925356D01*
X11338356Y-9179356D02*
X11338356Y-9108644D01*
X11267644Y-9108644D01*
X11267644Y-9179356D01*
X11338356Y-9179356D01*
X11338356Y-9433356D02*
X11338356Y-9362644D01*
X11267644Y-9362644D01*
X11267644Y-9433356D01*
X11338356Y-9433356D01*
X11338356Y-9687356D02*
X11338356Y-9616644D01*
X11267644Y-9616644D01*
X11267644Y-9687356D01*
X11338356Y-9687356D01*
X11338356Y-9941356D02*
X11338356Y-9870644D01*
X11267644Y-9870644D01*
X11267644Y-9941356D01*
X11338356Y-9941356D01*
X11528856Y-11300256D02*
X11528856Y-11229544D01*
X11458144Y-11229544D01*
X11458144Y-11300256D01*
X11528856Y-11300256D01*
X11782856Y-11300256D02*
X11782856Y-11229544D01*
X11712144Y-11229544D01*
X11712144Y-11300256D01*
X11782856Y-11300256D01*
X7035800Y-6121200D02*
X7111800Y-6045200D01*
X7035800Y-5969200D01*
X6959800Y-6045200D01*
X7035800Y-6121200D01*
X7035800Y-12191800D02*
X7111800Y-12115800D01*
X7035800Y-12039800D01*
X6959800Y-12115800D01*
X7035800Y-12191800D01*
X7543800Y-6121200D02*
X7619800Y-6045200D01*
X7543800Y-5969200D01*
X7467800Y-6045200D01*
X7543800Y-6121200D01*
X7543800Y-12191800D02*
X7619800Y-12115800D01*
X7543800Y-12039800D01*
X7467800Y-12115800D01*
X7543800Y-12191800D01*
X8051800Y-6121200D02*
X8127800Y-6045200D01*
X8051800Y-5969200D01*
X7975800Y-6045200D01*
X8051800Y-6121200D01*
X8051800Y-12191800D02*
X8127800Y-12115800D01*
X8051800Y-12039800D01*
X7975800Y-12115800D01*
X8051800Y-12191800D01*
X8559800Y-6121200D02*
X8635800Y-6045200D01*
X8559800Y-5969200D01*
X8483800Y-6045200D01*
X8559800Y-6121200D01*
X8559800Y-12191800D02*
X8635800Y-12115800D01*
X8559800Y-12039800D01*
X8483800Y-12115800D01*
X8559800Y-12191800D01*
X9067800Y-6121200D02*
X9143800Y-6045200D01*
X9067800Y-5969200D01*
X8991800Y-6045200D01*
X9067800Y-6121200D01*
X9067800Y-12191800D02*
X9143800Y-12115800D01*
X9067800Y-12039800D01*
X8991800Y-12115800D01*
X9067800Y-12191800D01*
X9575800Y-6121200D02*
X9651800Y-6045200D01*
X9575800Y-5969200D01*
X9499800Y-6045200D01*
X9575800Y-6121200D01*
X9575800Y-12191800D02*
X9651800Y-12115800D01*
X9575800Y-12039800D01*
X9499800Y-12115800D01*
X9575800Y-12191800D01*
X10083800Y-6121200D02*
X10159800Y-6045200D01*
X10083800Y-5969200D01*
X10007800Y-6045200D01*
X10083800Y-6121200D01*
X10083800Y-12191800D02*
X10159800Y-12115800D01*
X10083800Y-12039800D01*
X10007800Y-12115800D01*
X10083800Y-12191800D01*
X10591800Y-6121200D02*
X10667800Y-6045200D01*
X10591800Y-5969200D01*
X10515800Y-6045200D01*
X10591800Y-6121200D01*
X10591800Y-12191800D02*
X10667800Y-12115800D01*
X10591800Y-12039800D01*
X10515800Y-12115800D01*
X10591800Y-12191800D01*
X11099800Y-6121200D02*
X11175800Y-6045200D01*
X11099800Y-5969200D01*
X11023800Y-6045200D01*
X11099800Y-6121200D01*
X11099800Y-12191800D02*
X11175800Y-12115800D01*
X11099800Y-12039800D01*
X11023800Y-12115800D01*
X11099800Y-12191800D01*
X11607800Y-6121200D02*
X11683800Y-6045200D01*
X11607800Y-5969200D01*
X11531800Y-6045200D01*
X11607800Y-6121200D01*
X11607800Y-12191800D02*
X11683800Y-12115800D01*
X11607800Y-12039800D01*
X11531800Y-12115800D01*
X11607800Y-12191800D01*
X8043400Y-7408400D02*
X8263400Y-7628400D01*
X8263400Y-7408400D02*
X8043400Y-7628400D01*
X8263400Y-7518400D02*
G75*
G03*
X8263400Y-7518400I-110000J0D01*
G01*
X6438900Y-10325100D02*
X6819900Y-10706100D01*
X6819900Y-10325100D02*
X6438900Y-10706100D01*
X6629400Y-10325100D02*
X6629400Y-10706100D01*
X6438900Y-10515600D02*
X6819900Y-10515600D01*
D12*
X6633928Y-13168214D02*
X6633928Y-12868214D01*
X6705357Y-12868214D01*
X6748214Y-12882500D01*
X6776786Y-12911071D01*
X6791071Y-12939643D01*
X6805357Y-12996786D01*
X6805357Y-13039643D01*
X6791071Y-13096786D01*
X6776786Y-13125357D01*
X6748214Y-13153929D01*
X6705357Y-13168214D01*
X6633928Y-13168214D01*
X6933928Y-13168214D02*
X6933928Y-12968214D01*
X6933928Y-13025357D02*
X6948214Y-12996786D01*
X6962500Y-12982500D01*
X6991071Y-12968214D01*
X7019643Y-12968214D01*
X7119643Y-13168214D02*
X7119643Y-12968214D01*
X7119643Y-12868214D02*
X7105357Y-12882500D01*
X7119643Y-12896786D01*
X7133928Y-12882500D01*
X7119643Y-12868214D01*
X7119643Y-12896786D01*
X7305357Y-13168214D02*
X7276786Y-13153929D01*
X7262500Y-13125357D01*
X7262500Y-12868214D01*
X7462500Y-13168214D02*
X7433928Y-13153929D01*
X7419643Y-13125357D01*
X7419643Y-12868214D01*
X7805357Y-13168214D02*
X7805357Y-12868214D01*
X7905357Y-13082500D01*
X8005357Y-12868214D01*
X8005357Y-13168214D01*
X8276786Y-13168214D02*
X8276786Y-13011071D01*
X8262500Y-12982500D01*
X8233928Y-12968214D01*
X8176786Y-12968214D01*
X8148214Y-12982500D01*
X8276786Y-13153929D02*
X8248214Y-13168214D01*
X8176786Y-13168214D01*
X8148214Y-13153929D01*
X8133928Y-13125357D01*
X8133928Y-13096786D01*
X8148214Y-13068214D01*
X8176786Y-13053929D01*
X8248214Y-13053929D01*
X8276786Y-13039643D01*
X8419643Y-12968214D02*
X8419643Y-13268214D01*
X8419643Y-12982500D02*
X8448214Y-12968214D01*
X8505357Y-12968214D01*
X8533928Y-12982500D01*
X8548214Y-12996786D01*
X8562500Y-13025357D01*
X8562500Y-13111071D01*
X8548214Y-13139643D01*
X8533928Y-13153929D01*
X8505357Y-13168214D01*
X8448214Y-13168214D01*
X8419643Y-13153929D01*
X8691071Y-13139643D02*
X8705357Y-13153929D01*
X8691071Y-13168214D01*
X8676786Y-13153929D01*
X8691071Y-13139643D01*
X8691071Y-13168214D01*
X8691071Y-12982500D02*
X8705357Y-12996786D01*
X8691071Y-13011071D01*
X8676786Y-12996786D01*
X8691071Y-12982500D01*
X8691071Y-13011071D01*
X6317500Y-13647500D02*
X6347500Y-13677500D01*
X6347500Y-13647500D02*
X6317500Y-13677500D01*
X6691071Y-13498214D02*
X6719643Y-13498214D01*
X6748214Y-13512500D01*
X6762500Y-13526786D01*
X6776786Y-13555357D01*
X6791071Y-13612500D01*
X6791071Y-13683929D01*
X6776786Y-13741071D01*
X6762500Y-13769643D01*
X6748214Y-13783929D01*
X6719643Y-13798214D01*
X6691071Y-13798214D01*
X6662500Y-13783929D01*
X6648214Y-13769643D01*
X6633928Y-13741071D01*
X6619643Y-13683929D01*
X6619643Y-13612500D01*
X6633928Y-13555357D01*
X6648214Y-13526786D01*
X6662500Y-13512500D01*
X6691071Y-13498214D01*
X6919643Y-13769643D02*
X6933928Y-13783929D01*
X6919643Y-13798214D01*
X6905357Y-13783929D01*
X6919643Y-13769643D01*
X6919643Y-13798214D01*
X7033928Y-13498214D02*
X7219643Y-13498214D01*
X7119643Y-13612500D01*
X7162500Y-13612500D01*
X7191071Y-13626786D01*
X7205357Y-13641071D01*
X7219643Y-13669643D01*
X7219643Y-13741071D01*
X7205357Y-13769643D01*
X7191071Y-13783929D01*
X7162500Y-13798214D01*
X7076786Y-13798214D01*
X7048214Y-13783929D01*
X7033928Y-13769643D01*
X7405357Y-13498214D02*
X7433928Y-13498214D01*
X7462500Y-13512500D01*
X7476786Y-13526786D01*
X7491071Y-13555357D01*
X7505357Y-13612500D01*
X7505357Y-13683929D01*
X7491071Y-13741071D01*
X7476786Y-13769643D01*
X7462500Y-13783929D01*
X7433928Y-13798214D01*
X7405357Y-13798214D01*
X7376786Y-13783929D01*
X7362500Y-13769643D01*
X7348214Y-13741071D01*
X7333928Y-13683929D01*
X7333928Y-13612500D01*
X7348214Y-13555357D01*
X7362500Y-13526786D01*
X7376786Y-13512500D01*
X7405357Y-13498214D01*
X7691071Y-13498214D02*
X7719643Y-13498214D01*
X7748214Y-13512500D01*
X7762500Y-13526786D01*
X7776786Y-13555357D01*
X7791071Y-13612500D01*
X7791071Y-13683929D01*
X7776786Y-13741071D01*
X7762500Y-13769643D01*
X7748214Y-13783929D01*
X7719643Y-13798214D01*
X7691071Y-13798214D01*
X7662500Y-13783929D01*
X7648214Y-13769643D01*
X7633928Y-13741071D01*
X7619643Y-13683929D01*
X7619643Y-13612500D01*
X7633928Y-13555357D01*
X7648214Y-13526786D01*
X7662500Y-13512500D01*
X7691071Y-13498214D01*
X7919643Y-13798214D02*
X7919643Y-13598214D01*
X7919643Y-13626786D02*
X7933928Y-13612500D01*
X7962500Y-13598214D01*
X8005357Y-13598214D01*
X8033928Y-13612500D01*
X8048214Y-13641071D01*
X8048214Y-13798214D01*
X8048214Y-13641071D02*
X8062500Y-13612500D01*
X8091071Y-13598214D01*
X8133928Y-13598214D01*
X8162500Y-13612500D01*
X8176786Y-13641071D01*
X8176786Y-13798214D01*
X8319643Y-13798214D02*
X8319643Y-13598214D01*
X8319643Y-13626786D02*
X8333928Y-13612500D01*
X8362500Y-13598214D01*
X8405357Y-13598214D01*
X8433928Y-13612500D01*
X8448214Y-13641071D01*
X8448214Y-13798214D01*
X8448214Y-13641071D02*
X8462500Y-13612500D01*
X8491071Y-13598214D01*
X8533928Y-13598214D01*
X8562500Y-13612500D01*
X8576786Y-13641071D01*
X8576786Y-13798214D01*
X9162500Y-13483929D02*
X8905357Y-13869643D01*
X9548214Y-13498214D02*
X9576786Y-13498214D01*
X9605357Y-13512500D01*
X9619643Y-13526786D01*
X9633928Y-13555357D01*
X9648214Y-13612500D01*
X9648214Y-13683929D01*
X9633928Y-13741071D01*
X9619643Y-13769643D01*
X9605357Y-13783929D01*
X9576786Y-13798214D01*
X9548214Y-13798214D01*
X9519643Y-13783929D01*
X9505357Y-13769643D01*
X9491071Y-13741071D01*
X9476786Y-13683929D01*
X9476786Y-13612500D01*
X9491071Y-13555357D01*
X9505357Y-13526786D01*
X9519643Y-13512500D01*
X9548214Y-13498214D01*
X9776786Y-13769643D02*
X9791071Y-13783929D01*
X9776786Y-13798214D01*
X9762500Y-13783929D01*
X9776786Y-13769643D01*
X9776786Y-13798214D01*
X9976786Y-13498214D02*
X10005357Y-13498214D01*
X10033928Y-13512500D01*
X10048214Y-13526786D01*
X10062500Y-13555357D01*
X10076786Y-13612500D01*
X10076786Y-13683929D01*
X10062500Y-13741071D01*
X10048214Y-13769643D01*
X10033928Y-13783929D01*
X10005357Y-13798214D01*
X9976786Y-13798214D01*
X9948214Y-13783929D01*
X9933928Y-13769643D01*
X9919643Y-13741071D01*
X9905357Y-13683929D01*
X9905357Y-13612500D01*
X9919643Y-13555357D01*
X9933928Y-13526786D01*
X9948214Y-13512500D01*
X9976786Y-13498214D01*
X10362500Y-13798214D02*
X10191071Y-13798214D01*
X10276786Y-13798214D02*
X10276786Y-13498214D01*
X10248214Y-13541071D01*
X10219643Y-13569643D01*
X10191071Y-13583929D01*
X10648214Y-13798214D02*
X10476786Y-13798214D01*
X10562500Y-13798214D02*
X10562500Y-13498214D01*
X10533928Y-13541071D01*
X10505357Y-13569643D01*
X10476786Y-13583929D01*
X10819643Y-13626786D02*
X10791071Y-13612500D01*
X10776786Y-13598214D01*
X10762500Y-13569643D01*
X10762500Y-13555357D01*
X10776786Y-13526786D01*
X10791071Y-13512500D01*
X10819643Y-13498214D01*
X10876786Y-13498214D01*
X10905357Y-13512500D01*
X10919643Y-13526786D01*
X10933928Y-13555357D01*
X10933928Y-13569643D01*
X10919643Y-13598214D01*
X10905357Y-13612500D01*
X10876786Y-13626786D01*
X10819643Y-13626786D01*
X10791071Y-13641071D01*
X10776786Y-13655357D01*
X10762500Y-13683929D01*
X10762500Y-13741071D01*
X10776786Y-13769643D01*
X10791071Y-13783929D01*
X10819643Y-13798214D01*
X10876786Y-13798214D01*
X10905357Y-13783929D01*
X10919643Y-13769643D01*
X10933928Y-13741071D01*
X10933928Y-13683929D01*
X10919643Y-13655357D01*
X10905357Y-13641071D01*
X10876786Y-13626786D01*
X11048214Y-13498214D02*
X11048214Y-13555357D01*
X11162500Y-13498214D02*
X11162500Y-13555357D01*
X11605357Y-13912500D02*
X11591071Y-13898214D01*
X11562500Y-13855357D01*
X11548214Y-13826786D01*
X11533928Y-13783929D01*
X11519643Y-13712500D01*
X11519643Y-13655357D01*
X11533928Y-13583929D01*
X11548214Y-13541071D01*
X11562500Y-13512500D01*
X11591071Y-13469643D01*
X11605357Y-13455357D01*
X11691071Y-13498214D02*
X11876786Y-13498214D01*
X11776786Y-13612500D01*
X11819643Y-13612500D01*
X11848214Y-13626786D01*
X11862500Y-13641071D01*
X11876786Y-13669643D01*
X11876786Y-13741071D01*
X11862500Y-13769643D01*
X11848214Y-13783929D01*
X11819643Y-13798214D01*
X11733928Y-13798214D01*
X11705357Y-13783929D01*
X11691071Y-13769643D01*
X12233928Y-13798214D02*
X12233928Y-13498214D01*
X12362500Y-13798214D02*
X12362500Y-13641071D01*
X12348214Y-13612500D01*
X12319643Y-13598214D01*
X12276786Y-13598214D01*
X12248214Y-13612500D01*
X12233928Y-13626786D01*
X12548214Y-13798214D02*
X12519643Y-13783929D01*
X12505357Y-13769643D01*
X12491071Y-13741071D01*
X12491071Y-13655357D01*
X12505357Y-13626786D01*
X12519643Y-13612500D01*
X12548214Y-13598214D01*
X12591071Y-13598214D01*
X12619643Y-13612500D01*
X12633928Y-13626786D01*
X12648214Y-13655357D01*
X12648214Y-13741071D01*
X12633928Y-13769643D01*
X12619643Y-13783929D01*
X12591071Y-13798214D01*
X12548214Y-13798214D01*
X12819643Y-13798214D02*
X12791071Y-13783929D01*
X12776786Y-13755357D01*
X12776786Y-13498214D01*
X13048214Y-13783929D02*
X13019643Y-13798214D01*
X12962500Y-13798214D01*
X12933928Y-13783929D01*
X12919643Y-13755357D01*
X12919643Y-13641071D01*
X12933928Y-13612500D01*
X12962500Y-13598214D01*
X13019643Y-13598214D01*
X13048214Y-13612500D01*
X13062500Y-13641071D01*
X13062500Y-13669643D01*
X12919643Y-13698214D01*
X13176786Y-13783929D02*
X13205357Y-13798214D01*
X13262500Y-13798214D01*
X13291071Y-13783929D01*
X13305357Y-13755357D01*
X13305357Y-13741071D01*
X13291071Y-13712500D01*
X13262500Y-13698214D01*
X13219643Y-13698214D01*
X13191071Y-13683929D01*
X13176786Y-13655357D01*
X13176786Y-13641071D01*
X13191071Y-13612500D01*
X13219643Y-13598214D01*
X13262500Y-13598214D01*
X13291071Y-13612500D01*
X13405357Y-13912500D02*
X13419643Y-13898214D01*
X13448214Y-13855357D01*
X13462500Y-13826786D01*
X13476786Y-13783929D01*
X13491071Y-13712500D01*
X13491071Y-13655357D01*
X13476786Y-13583929D01*
X13462500Y-13541071D01*
X13448214Y-13512500D01*
X13419643Y-13469643D01*
X13405357Y-13455357D01*
X6347500Y-14058500D02*
G75*
G03*
X6347500Y-14058500I-38100J0D01*
G01*
X6691071Y-13894214D02*
X6719643Y-13894214D01*
X6748214Y-13908500D01*
X6762500Y-13922786D01*
X6776786Y-13951357D01*
X6791071Y-14008500D01*
X6791071Y-14079929D01*
X6776786Y-14137071D01*
X6762500Y-14165643D01*
X6748214Y-14179929D01*
X6719643Y-14194214D01*
X6691071Y-14194214D01*
X6662500Y-14179929D01*
X6648214Y-14165643D01*
X6633928Y-14137071D01*
X6619643Y-14079929D01*
X6619643Y-14008500D01*
X6633928Y-13951357D01*
X6648214Y-13922786D01*
X6662500Y-13908500D01*
X6691071Y-13894214D01*
X6919643Y-14165643D02*
X6933928Y-14179929D01*
X6919643Y-14194214D01*
X6905357Y-14179929D01*
X6919643Y-14165643D01*
X6919643Y-14194214D01*
X7033928Y-13894214D02*
X7233928Y-13894214D01*
X7105357Y-14194214D01*
X7476786Y-13894214D02*
X7419643Y-13894214D01*
X7391071Y-13908500D01*
X7376786Y-13922786D01*
X7348214Y-13965643D01*
X7333928Y-14022786D01*
X7333928Y-14137071D01*
X7348214Y-14165643D01*
X7362500Y-14179929D01*
X7391071Y-14194214D01*
X7448214Y-14194214D01*
X7476786Y-14179929D01*
X7491071Y-14165643D01*
X7505357Y-14137071D01*
X7505357Y-14065643D01*
X7491071Y-14037071D01*
X7476786Y-14022786D01*
X7448214Y-14008500D01*
X7391071Y-14008500D01*
X7362500Y-14022786D01*
X7348214Y-14037071D01*
X7333928Y-14065643D01*
X7619643Y-13922786D02*
X7633928Y-13908500D01*
X7662500Y-13894214D01*
X7733928Y-13894214D01*
X7762500Y-13908500D01*
X7776786Y-13922786D01*
X7791071Y-13951357D01*
X7791071Y-13979929D01*
X7776786Y-14022786D01*
X7605357Y-14194214D01*
X7791071Y-14194214D01*
X7919643Y-14194214D02*
X7919643Y-13994214D01*
X7919643Y-14022786D02*
X7933928Y-14008500D01*
X7962500Y-13994214D01*
X8005357Y-13994214D01*
X8033928Y-14008500D01*
X8048214Y-14037071D01*
X8048214Y-14194214D01*
X8048214Y-14037071D02*
X8062500Y-14008500D01*
X8091071Y-13994214D01*
X8133928Y-13994214D01*
X8162500Y-14008500D01*
X8176786Y-14037071D01*
X8176786Y-14194214D01*
X8319643Y-14194214D02*
X8319643Y-13994214D01*
X8319643Y-14022786D02*
X8333928Y-14008500D01*
X8362500Y-13994214D01*
X8405357Y-13994214D01*
X8433928Y-14008500D01*
X8448214Y-14037071D01*
X8448214Y-14194214D01*
X8448214Y-14037071D02*
X8462500Y-14008500D01*
X8491071Y-13994214D01*
X8533928Y-13994214D01*
X8562500Y-14008500D01*
X8576786Y-14037071D01*
X8576786Y-14194214D01*
X9162500Y-13879929D02*
X8905357Y-14265643D01*
X9548214Y-13894214D02*
X9576786Y-13894214D01*
X9605357Y-13908500D01*
X9619643Y-13922786D01*
X9633928Y-13951357D01*
X9648214Y-14008500D01*
X9648214Y-14079929D01*
X9633928Y-14137071D01*
X9619643Y-14165643D01*
X9605357Y-14179929D01*
X9576786Y-14194214D01*
X9548214Y-14194214D01*
X9519643Y-14179929D01*
X9505357Y-14165643D01*
X9491071Y-14137071D01*
X9476786Y-14079929D01*
X9476786Y-14008500D01*
X9491071Y-13951357D01*
X9505357Y-13922786D01*
X9519643Y-13908500D01*
X9548214Y-13894214D01*
X9776786Y-14165643D02*
X9791071Y-14179929D01*
X9776786Y-14194214D01*
X9762500Y-14179929D01*
X9776786Y-14165643D01*
X9776786Y-14194214D01*
X9976786Y-13894214D02*
X10005357Y-13894214D01*
X10033928Y-13908500D01*
X10048214Y-13922786D01*
X10062500Y-13951357D01*
X10076786Y-14008500D01*
X10076786Y-14079929D01*
X10062500Y-14137071D01*
X10048214Y-14165643D01*
X10033928Y-14179929D01*
X10005357Y-14194214D01*
X9976786Y-14194214D01*
X9948214Y-14179929D01*
X9933928Y-14165643D01*
X9919643Y-14137071D01*
X9905357Y-14079929D01*
X9905357Y-14008500D01*
X9919643Y-13951357D01*
X9933928Y-13922786D01*
X9948214Y-13908500D01*
X9976786Y-13894214D01*
X10176786Y-13894214D02*
X10362500Y-13894214D01*
X10262500Y-14008500D01*
X10305357Y-14008500D01*
X10333928Y-14022786D01*
X10348214Y-14037071D01*
X10362500Y-14065643D01*
X10362500Y-14137071D01*
X10348214Y-14165643D01*
X10333928Y-14179929D01*
X10305357Y-14194214D01*
X10219643Y-14194214D01*
X10191071Y-14179929D01*
X10176786Y-14165643D01*
X10548214Y-13894214D02*
X10576786Y-13894214D01*
X10605357Y-13908500D01*
X10619643Y-13922786D01*
X10633928Y-13951357D01*
X10648214Y-14008500D01*
X10648214Y-14079929D01*
X10633928Y-14137071D01*
X10619643Y-14165643D01*
X10605357Y-14179929D01*
X10576786Y-14194214D01*
X10548214Y-14194214D01*
X10519643Y-14179929D01*
X10505357Y-14165643D01*
X10491071Y-14137071D01*
X10476786Y-14079929D01*
X10476786Y-14008500D01*
X10491071Y-13951357D01*
X10505357Y-13922786D01*
X10519643Y-13908500D01*
X10548214Y-13894214D01*
X10833928Y-13894214D02*
X10862500Y-13894214D01*
X10891071Y-13908500D01*
X10905357Y-13922786D01*
X10919643Y-13951357D01*
X10933928Y-14008500D01*
X10933928Y-14079929D01*
X10919643Y-14137071D01*
X10905357Y-14165643D01*
X10891071Y-14179929D01*
X10862500Y-14194214D01*
X10833928Y-14194214D01*
X10805357Y-14179929D01*
X10791071Y-14165643D01*
X10776786Y-14137071D01*
X10762500Y-14079929D01*
X10762500Y-14008500D01*
X10776786Y-13951357D01*
X10791071Y-13922786D01*
X10805357Y-13908500D01*
X10833928Y-13894214D01*
X11048214Y-13894214D02*
X11048214Y-13951357D01*
X11162500Y-13894214D02*
X11162500Y-13951357D01*
X11605357Y-14308500D02*
X11591071Y-14294214D01*
X11562500Y-14251357D01*
X11548214Y-14222786D01*
X11533928Y-14179929D01*
X11519643Y-14108500D01*
X11519643Y-14051357D01*
X11533928Y-13979929D01*
X11548214Y-13937071D01*
X11562500Y-13908500D01*
X11591071Y-13865643D01*
X11605357Y-13851357D01*
X11876786Y-14194214D02*
X11705357Y-14194214D01*
X11791071Y-14194214D02*
X11791071Y-13894214D01*
X11762500Y-13937071D01*
X11733928Y-13965643D01*
X11705357Y-13979929D01*
X12133928Y-13894214D02*
X12076786Y-13894214D01*
X12048214Y-13908500D01*
X12033928Y-13922786D01*
X12005357Y-13965643D01*
X11991071Y-14022786D01*
X11991071Y-14137071D01*
X12005357Y-14165643D01*
X12019643Y-14179929D01*
X12048214Y-14194214D01*
X12105357Y-14194214D01*
X12133928Y-14179929D01*
X12148214Y-14165643D01*
X12162500Y-14137071D01*
X12162500Y-14065643D01*
X12148214Y-14037071D01*
X12133928Y-14022786D01*
X12105357Y-14008500D01*
X12048214Y-14008500D01*
X12019643Y-14022786D01*
X12005357Y-14037071D01*
X11991071Y-14065643D01*
X12519643Y-14194214D02*
X12519643Y-13894214D01*
X12648214Y-14194214D02*
X12648214Y-14037071D01*
X12633928Y-14008500D01*
X12605357Y-13994214D01*
X12562500Y-13994214D01*
X12533928Y-14008500D01*
X12519643Y-14022786D01*
X12833928Y-14194214D02*
X12805357Y-14179929D01*
X12791071Y-14165643D01*
X12776786Y-14137071D01*
X12776786Y-14051357D01*
X12791071Y-14022786D01*
X12805357Y-14008500D01*
X12833928Y-13994214D01*
X12876786Y-13994214D01*
X12905357Y-14008500D01*
X12919643Y-14022786D01*
X12933928Y-14051357D01*
X12933928Y-14137071D01*
X12919643Y-14165643D01*
X12905357Y-14179929D01*
X12876786Y-14194214D01*
X12833928Y-14194214D01*
X13105357Y-14194214D02*
X13076786Y-14179929D01*
X13062500Y-14151357D01*
X13062500Y-13894214D01*
X13333928Y-14179929D02*
X13305357Y-14194214D01*
X13248214Y-14194214D01*
X13219643Y-14179929D01*
X13205357Y-14151357D01*
X13205357Y-14037071D01*
X13219643Y-14008500D01*
X13248214Y-13994214D01*
X13305357Y-13994214D01*
X13333928Y-14008500D01*
X13348214Y-14037071D01*
X13348214Y-14065643D01*
X13205357Y-14094214D01*
X13462500Y-14179929D02*
X13491071Y-14194214D01*
X13548214Y-14194214D01*
X13576786Y-14179929D01*
X13591071Y-14151357D01*
X13591071Y-14137071D01*
X13576786Y-14108500D01*
X13548214Y-14094214D01*
X13505357Y-14094214D01*
X13476786Y-14079929D01*
X13462500Y-14051357D01*
X13462500Y-14037071D01*
X13476786Y-14008500D01*
X13505357Y-13994214D01*
X13548214Y-13994214D01*
X13576786Y-14008500D01*
X13691071Y-14308500D02*
X13705357Y-14294214D01*
X13733928Y-14251357D01*
X13748214Y-14222786D01*
X13762500Y-14179929D01*
X13776786Y-14108500D01*
X13776786Y-14051357D01*
X13762500Y-13979929D01*
X13748214Y-13937071D01*
X13733928Y-13908500D01*
X13705357Y-13865643D01*
X13691071Y-13851357D01*
X6307500Y-14414500D02*
X6307500Y-14494500D01*
X6267500Y-14454500D02*
X6347500Y-14454500D01*
X6691071Y-14290214D02*
X6719643Y-14290214D01*
X6748214Y-14304500D01*
X6762500Y-14318786D01*
X6776786Y-14347357D01*
X6791071Y-14404500D01*
X6791071Y-14475929D01*
X6776786Y-14533071D01*
X6762500Y-14561643D01*
X6748214Y-14575929D01*
X6719643Y-14590214D01*
X6691071Y-14590214D01*
X6662500Y-14575929D01*
X6648214Y-14561643D01*
X6633928Y-14533071D01*
X6619643Y-14475929D01*
X6619643Y-14404500D01*
X6633928Y-14347357D01*
X6648214Y-14318786D01*
X6662500Y-14304500D01*
X6691071Y-14290214D01*
X6919643Y-14561643D02*
X6933928Y-14575929D01*
X6919643Y-14590214D01*
X6905357Y-14575929D01*
X6919643Y-14561643D01*
X6919643Y-14590214D01*
X7105357Y-14418786D02*
X7076786Y-14404500D01*
X7062500Y-14390214D01*
X7048214Y-14361643D01*
X7048214Y-14347357D01*
X7062500Y-14318786D01*
X7076786Y-14304500D01*
X7105357Y-14290214D01*
X7162500Y-14290214D01*
X7191071Y-14304500D01*
X7205357Y-14318786D01*
X7219643Y-14347357D01*
X7219643Y-14361643D01*
X7205357Y-14390214D01*
X7191071Y-14404500D01*
X7162500Y-14418786D01*
X7105357Y-14418786D01*
X7076786Y-14433071D01*
X7062500Y-14447357D01*
X7048214Y-14475929D01*
X7048214Y-14533071D01*
X7062500Y-14561643D01*
X7076786Y-14575929D01*
X7105357Y-14590214D01*
X7162500Y-14590214D01*
X7191071Y-14575929D01*
X7205357Y-14561643D01*
X7219643Y-14533071D01*
X7219643Y-14475929D01*
X7205357Y-14447357D01*
X7191071Y-14433071D01*
X7162500Y-14418786D01*
X7405357Y-14290214D02*
X7433928Y-14290214D01*
X7462500Y-14304500D01*
X7476786Y-14318786D01*
X7491071Y-14347357D01*
X7505357Y-14404500D01*
X7505357Y-14475929D01*
X7491071Y-14533071D01*
X7476786Y-14561643D01*
X7462500Y-14575929D01*
X7433928Y-14590214D01*
X7405357Y-14590214D01*
X7376786Y-14575929D01*
X7362500Y-14561643D01*
X7348214Y-14533071D01*
X7333928Y-14475929D01*
X7333928Y-14404500D01*
X7348214Y-14347357D01*
X7362500Y-14318786D01*
X7376786Y-14304500D01*
X7405357Y-14290214D01*
X7691071Y-14290214D02*
X7719643Y-14290214D01*
X7748214Y-14304500D01*
X7762500Y-14318786D01*
X7776786Y-14347357D01*
X7791071Y-14404500D01*
X7791071Y-14475929D01*
X7776786Y-14533071D01*
X7762500Y-14561643D01*
X7748214Y-14575929D01*
X7719643Y-14590214D01*
X7691071Y-14590214D01*
X7662500Y-14575929D01*
X7648214Y-14561643D01*
X7633928Y-14533071D01*
X7619643Y-14475929D01*
X7619643Y-14404500D01*
X7633928Y-14347357D01*
X7648214Y-14318786D01*
X7662500Y-14304500D01*
X7691071Y-14290214D01*
X7919643Y-14590214D02*
X7919643Y-14390214D01*
X7919643Y-14418786D02*
X7933928Y-14404500D01*
X7962500Y-14390214D01*
X8005357Y-14390214D01*
X8033928Y-14404500D01*
X8048214Y-14433071D01*
X8048214Y-14590214D01*
X8048214Y-14433071D02*
X8062500Y-14404500D01*
X8091071Y-14390214D01*
X8133928Y-14390214D01*
X8162500Y-14404500D01*
X8176786Y-14433071D01*
X8176786Y-14590214D01*
X8319643Y-14590214D02*
X8319643Y-14390214D01*
X8319643Y-14418786D02*
X8333928Y-14404500D01*
X8362500Y-14390214D01*
X8405357Y-14390214D01*
X8433928Y-14404500D01*
X8448214Y-14433071D01*
X8448214Y-14590214D01*
X8448214Y-14433071D02*
X8462500Y-14404500D01*
X8491071Y-14390214D01*
X8533928Y-14390214D01*
X8562500Y-14404500D01*
X8576786Y-14433071D01*
X8576786Y-14590214D01*
X9162500Y-14275929D02*
X8905357Y-14661643D01*
X9548214Y-14290214D02*
X9576786Y-14290214D01*
X9605357Y-14304500D01*
X9619643Y-14318786D01*
X9633928Y-14347357D01*
X9648214Y-14404500D01*
X9648214Y-14475929D01*
X9633928Y-14533071D01*
X9619643Y-14561643D01*
X9605357Y-14575929D01*
X9576786Y-14590214D01*
X9548214Y-14590214D01*
X9519643Y-14575929D01*
X9505357Y-14561643D01*
X9491071Y-14533071D01*
X9476786Y-14475929D01*
X9476786Y-14404500D01*
X9491071Y-14347357D01*
X9505357Y-14318786D01*
X9519643Y-14304500D01*
X9548214Y-14290214D01*
X9776786Y-14561643D02*
X9791071Y-14575929D01*
X9776786Y-14590214D01*
X9762500Y-14575929D01*
X9776786Y-14561643D01*
X9776786Y-14590214D01*
X9976786Y-14290214D02*
X10005357Y-14290214D01*
X10033928Y-14304500D01*
X10048214Y-14318786D01*
X10062500Y-14347357D01*
X10076786Y-14404500D01*
X10076786Y-14475929D01*
X10062500Y-14533071D01*
X10048214Y-14561643D01*
X10033928Y-14575929D01*
X10005357Y-14590214D01*
X9976786Y-14590214D01*
X9948214Y-14575929D01*
X9933928Y-14561643D01*
X9919643Y-14533071D01*
X9905357Y-14475929D01*
X9905357Y-14404500D01*
X9919643Y-14347357D01*
X9933928Y-14318786D01*
X9948214Y-14304500D01*
X9976786Y-14290214D01*
X10176786Y-14290214D02*
X10362500Y-14290214D01*
X10262500Y-14404500D01*
X10305357Y-14404500D01*
X10333928Y-14418786D01*
X10348214Y-14433071D01*
X10362500Y-14461643D01*
X10362500Y-14533071D01*
X10348214Y-14561643D01*
X10333928Y-14575929D01*
X10305357Y-14590214D01*
X10219643Y-14590214D01*
X10191071Y-14575929D01*
X10176786Y-14561643D01*
X10648214Y-14590214D02*
X10476786Y-14590214D01*
X10562500Y-14590214D02*
X10562500Y-14290214D01*
X10533928Y-14333071D01*
X10505357Y-14361643D01*
X10476786Y-14375929D01*
X10919643Y-14290214D02*
X10776786Y-14290214D01*
X10762500Y-14433071D01*
X10776786Y-14418786D01*
X10805357Y-14404500D01*
X10876786Y-14404500D01*
X10905357Y-14418786D01*
X10919643Y-14433071D01*
X10933928Y-14461643D01*
X10933928Y-14533071D01*
X10919643Y-14561643D01*
X10905357Y-14575929D01*
X10876786Y-14590214D01*
X10805357Y-14590214D01*
X10776786Y-14575929D01*
X10762500Y-14561643D01*
X11048214Y-14290214D02*
X11048214Y-14347357D01*
X11162500Y-14290214D02*
X11162500Y-14347357D01*
X11605357Y-14704500D02*
X11591071Y-14690214D01*
X11562500Y-14647357D01*
X11548214Y-14618786D01*
X11533928Y-14575929D01*
X11519643Y-14504500D01*
X11519643Y-14447357D01*
X11533928Y-14375929D01*
X11548214Y-14333071D01*
X11562500Y-14304500D01*
X11591071Y-14261643D01*
X11605357Y-14247357D01*
X11848214Y-14290214D02*
X11791071Y-14290214D01*
X11762500Y-14304500D01*
X11748214Y-14318786D01*
X11719643Y-14361643D01*
X11705357Y-14418786D01*
X11705357Y-14533071D01*
X11719643Y-14561643D01*
X11733928Y-14575929D01*
X11762500Y-14590214D01*
X11819643Y-14590214D01*
X11848214Y-14575929D01*
X11862500Y-14561643D01*
X11876786Y-14533071D01*
X11876786Y-14461643D01*
X11862500Y-14433071D01*
X11848214Y-14418786D01*
X11819643Y-14404500D01*
X11762500Y-14404500D01*
X11733928Y-14418786D01*
X11719643Y-14433071D01*
X11705357Y-14461643D01*
X12233928Y-14590214D02*
X12233928Y-14290214D01*
X12362500Y-14590214D02*
X12362500Y-14433071D01*
X12348214Y-14404500D01*
X12319643Y-14390214D01*
X12276786Y-14390214D01*
X12248214Y-14404500D01*
X12233928Y-14418786D01*
X12548214Y-14590214D02*
X12519643Y-14575929D01*
X12505357Y-14561643D01*
X12491071Y-14533071D01*
X12491071Y-14447357D01*
X12505357Y-14418786D01*
X12519643Y-14404500D01*
X12548214Y-14390214D01*
X12591071Y-14390214D01*
X12619643Y-14404500D01*
X12633928Y-14418786D01*
X12648214Y-14447357D01*
X12648214Y-14533071D01*
X12633928Y-14561643D01*
X12619643Y-14575929D01*
X12591071Y-14590214D01*
X12548214Y-14590214D01*
X12819643Y-14590214D02*
X12791071Y-14575929D01*
X12776786Y-14547357D01*
X12776786Y-14290214D01*
X13048214Y-14575929D02*
X13019643Y-14590214D01*
X12962500Y-14590214D01*
X12933928Y-14575929D01*
X12919643Y-14547357D01*
X12919643Y-14433071D01*
X12933928Y-14404500D01*
X12962500Y-14390214D01*
X13019643Y-14390214D01*
X13048214Y-14404500D01*
X13062500Y-14433071D01*
X13062500Y-14461643D01*
X12919643Y-14490214D01*
X13176786Y-14575929D02*
X13205357Y-14590214D01*
X13262500Y-14590214D01*
X13291071Y-14575929D01*
X13305357Y-14547357D01*
X13305357Y-14533071D01*
X13291071Y-14504500D01*
X13262500Y-14490214D01*
X13219643Y-14490214D01*
X13191071Y-14475929D01*
X13176786Y-14447357D01*
X13176786Y-14433071D01*
X13191071Y-14404500D01*
X13219643Y-14390214D01*
X13262500Y-14390214D01*
X13291071Y-14404500D01*
X13405357Y-14704500D02*
X13419643Y-14690214D01*
X13448214Y-14647357D01*
X13462500Y-14618786D01*
X13476786Y-14575929D01*
X13491071Y-14504500D01*
X13491071Y-14447357D01*
X13476786Y-14375929D01*
X13462500Y-14333071D01*
X13448214Y-14304500D01*
X13419643Y-14261643D01*
X13405357Y-14247357D01*
X6332856Y-14885856D02*
X6332856Y-14815144D01*
X6262144Y-14815144D01*
X6262144Y-14885856D01*
X6332856Y-14885856D01*
X6791071Y-14986214D02*
X6619643Y-14986214D01*
X6705357Y-14986214D02*
X6705357Y-14686214D01*
X6676786Y-14729071D01*
X6648214Y-14757643D01*
X6619643Y-14771929D01*
X6919643Y-14957643D02*
X6933928Y-14971929D01*
X6919643Y-14986214D01*
X6905357Y-14971929D01*
X6919643Y-14957643D01*
X6919643Y-14986214D01*
X7119643Y-14686214D02*
X7148214Y-14686214D01*
X7176786Y-14700500D01*
X7191071Y-14714786D01*
X7205357Y-14743357D01*
X7219643Y-14800500D01*
X7219643Y-14871929D01*
X7205357Y-14929071D01*
X7191071Y-14957643D01*
X7176786Y-14971929D01*
X7148214Y-14986214D01*
X7119643Y-14986214D01*
X7091071Y-14971929D01*
X7076786Y-14957643D01*
X7062500Y-14929071D01*
X7048214Y-14871929D01*
X7048214Y-14800500D01*
X7062500Y-14743357D01*
X7076786Y-14714786D01*
X7091071Y-14700500D01*
X7119643Y-14686214D01*
X7405357Y-14686214D02*
X7433928Y-14686214D01*
X7462500Y-14700500D01*
X7476786Y-14714786D01*
X7491071Y-14743357D01*
X7505357Y-14800500D01*
X7505357Y-14871929D01*
X7491071Y-14929071D01*
X7476786Y-14957643D01*
X7462500Y-14971929D01*
X7433928Y-14986214D01*
X7405357Y-14986214D01*
X7376786Y-14971929D01*
X7362500Y-14957643D01*
X7348214Y-14929071D01*
X7333928Y-14871929D01*
X7333928Y-14800500D01*
X7348214Y-14743357D01*
X7362500Y-14714786D01*
X7376786Y-14700500D01*
X7405357Y-14686214D01*
X7691071Y-14686214D02*
X7719643Y-14686214D01*
X7748214Y-14700500D01*
X7762500Y-14714786D01*
X7776786Y-14743357D01*
X7791071Y-14800500D01*
X7791071Y-14871929D01*
X7776786Y-14929071D01*
X7762500Y-14957643D01*
X7748214Y-14971929D01*
X7719643Y-14986214D01*
X7691071Y-14986214D01*
X7662500Y-14971929D01*
X7648214Y-14957643D01*
X7633928Y-14929071D01*
X7619643Y-14871929D01*
X7619643Y-14800500D01*
X7633928Y-14743357D01*
X7648214Y-14714786D01*
X7662500Y-14700500D01*
X7691071Y-14686214D01*
X7919643Y-14986214D02*
X7919643Y-14786214D01*
X7919643Y-14814786D02*
X7933928Y-14800500D01*
X7962500Y-14786214D01*
X8005357Y-14786214D01*
X8033928Y-14800500D01*
X8048214Y-14829071D01*
X8048214Y-14986214D01*
X8048214Y-14829071D02*
X8062500Y-14800500D01*
X8091071Y-14786214D01*
X8133928Y-14786214D01*
X8162500Y-14800500D01*
X8176786Y-14829071D01*
X8176786Y-14986214D01*
X8319643Y-14986214D02*
X8319643Y-14786214D01*
X8319643Y-14814786D02*
X8333928Y-14800500D01*
X8362500Y-14786214D01*
X8405357Y-14786214D01*
X8433928Y-14800500D01*
X8448214Y-14829071D01*
X8448214Y-14986214D01*
X8448214Y-14829071D02*
X8462500Y-14800500D01*
X8491071Y-14786214D01*
X8533928Y-14786214D01*
X8562500Y-14800500D01*
X8576786Y-14829071D01*
X8576786Y-14986214D01*
X9162500Y-14671929D02*
X8905357Y-15057643D01*
X9548214Y-14686214D02*
X9576786Y-14686214D01*
X9605357Y-14700500D01*
X9619643Y-14714786D01*
X9633928Y-14743357D01*
X9648214Y-14800500D01*
X9648214Y-14871929D01*
X9633928Y-14929071D01*
X9619643Y-14957643D01*
X9605357Y-14971929D01*
X9576786Y-14986214D01*
X9548214Y-14986214D01*
X9519643Y-14971929D01*
X9505357Y-14957643D01*
X9491071Y-14929071D01*
X9476786Y-14871929D01*
X9476786Y-14800500D01*
X9491071Y-14743357D01*
X9505357Y-14714786D01*
X9519643Y-14700500D01*
X9548214Y-14686214D01*
X9776786Y-14957643D02*
X9791071Y-14971929D01*
X9776786Y-14986214D01*
X9762500Y-14971929D01*
X9776786Y-14957643D01*
X9776786Y-14986214D01*
X9976786Y-14686214D02*
X10005357Y-14686214D01*
X10033928Y-14700500D01*
X10048214Y-14714786D01*
X10062500Y-14743357D01*
X10076786Y-14800500D01*
X10076786Y-14871929D01*
X10062500Y-14929071D01*
X10048214Y-14957643D01*
X10033928Y-14971929D01*
X10005357Y-14986214D01*
X9976786Y-14986214D01*
X9948214Y-14971929D01*
X9933928Y-14957643D01*
X9919643Y-14929071D01*
X9905357Y-14871929D01*
X9905357Y-14800500D01*
X9919643Y-14743357D01*
X9933928Y-14714786D01*
X9948214Y-14700500D01*
X9976786Y-14686214D01*
X10176786Y-14686214D02*
X10362500Y-14686214D01*
X10262500Y-14800500D01*
X10305357Y-14800500D01*
X10333928Y-14814786D01*
X10348214Y-14829071D01*
X10362500Y-14857643D01*
X10362500Y-14929071D01*
X10348214Y-14957643D01*
X10333928Y-14971929D01*
X10305357Y-14986214D01*
X10219643Y-14986214D01*
X10191071Y-14971929D01*
X10176786Y-14957643D01*
X10505357Y-14986214D02*
X10562500Y-14986214D01*
X10591071Y-14971929D01*
X10605357Y-14957643D01*
X10633928Y-14914786D01*
X10648214Y-14857643D01*
X10648214Y-14743357D01*
X10633928Y-14714786D01*
X10619643Y-14700500D01*
X10591071Y-14686214D01*
X10533928Y-14686214D01*
X10505357Y-14700500D01*
X10491071Y-14714786D01*
X10476786Y-14743357D01*
X10476786Y-14814786D01*
X10491071Y-14843357D01*
X10505357Y-14857643D01*
X10533928Y-14871929D01*
X10591071Y-14871929D01*
X10619643Y-14857643D01*
X10633928Y-14843357D01*
X10648214Y-14814786D01*
X10905357Y-14786214D02*
X10905357Y-14986214D01*
X10833928Y-14671929D02*
X10762500Y-14886214D01*
X10948214Y-14886214D01*
X11048214Y-14686214D02*
X11048214Y-14743357D01*
X11162500Y-14686214D02*
X11162500Y-14743357D01*
X11605357Y-15100500D02*
X11591071Y-15086214D01*
X11562500Y-15043357D01*
X11548214Y-15014786D01*
X11533928Y-14971929D01*
X11519643Y-14900500D01*
X11519643Y-14843357D01*
X11533928Y-14771929D01*
X11548214Y-14729071D01*
X11562500Y-14700500D01*
X11591071Y-14657643D01*
X11605357Y-14643357D01*
X11705357Y-14714786D02*
X11719643Y-14700500D01*
X11748214Y-14686214D01*
X11819643Y-14686214D01*
X11848214Y-14700500D01*
X11862500Y-14714786D01*
X11876786Y-14743357D01*
X11876786Y-14771929D01*
X11862500Y-14814786D01*
X11691071Y-14986214D01*
X11876786Y-14986214D01*
X11991071Y-14714786D02*
X12005357Y-14700500D01*
X12033928Y-14686214D01*
X12105357Y-14686214D01*
X12133928Y-14700500D01*
X12148214Y-14714786D01*
X12162500Y-14743357D01*
X12162500Y-14771929D01*
X12148214Y-14814786D01*
X11976786Y-14986214D01*
X12162500Y-14986214D01*
X12519643Y-14986214D02*
X12519643Y-14686214D01*
X12648214Y-14986214D02*
X12648214Y-14829071D01*
X12633928Y-14800500D01*
X12605357Y-14786214D01*
X12562500Y-14786214D01*
X12533928Y-14800500D01*
X12519643Y-14814786D01*
X12833928Y-14986214D02*
X12805357Y-14971929D01*
X12791071Y-14957643D01*
X12776786Y-14929071D01*
X12776786Y-14843357D01*
X12791071Y-14814786D01*
X12805357Y-14800500D01*
X12833928Y-14786214D01*
X12876786Y-14786214D01*
X12905357Y-14800500D01*
X12919643Y-14814786D01*
X12933928Y-14843357D01*
X12933928Y-14929071D01*
X12919643Y-14957643D01*
X12905357Y-14971929D01*
X12876786Y-14986214D01*
X12833928Y-14986214D01*
X13105357Y-14986214D02*
X13076786Y-14971929D01*
X13062500Y-14943357D01*
X13062500Y-14686214D01*
X13333928Y-14971929D02*
X13305357Y-14986214D01*
X13248214Y-14986214D01*
X13219643Y-14971929D01*
X13205357Y-14943357D01*
X13205357Y-14829071D01*
X13219643Y-14800500D01*
X13248214Y-14786214D01*
X13305357Y-14786214D01*
X13333928Y-14800500D01*
X13348214Y-14829071D01*
X13348214Y-14857643D01*
X13205357Y-14886214D01*
X13462500Y-14971929D02*
X13491071Y-14986214D01*
X13548214Y-14986214D01*
X13576786Y-14971929D01*
X13591071Y-14943357D01*
X13591071Y-14929071D01*
X13576786Y-14900500D01*
X13548214Y-14886214D01*
X13505357Y-14886214D01*
X13476786Y-14871929D01*
X13462500Y-14843357D01*
X13462500Y-14829071D01*
X13476786Y-14800500D01*
X13505357Y-14786214D01*
X13548214Y-14786214D01*
X13576786Y-14800500D01*
X13691071Y-15100500D02*
X13705357Y-15086214D01*
X13733928Y-15043357D01*
X13748214Y-15014786D01*
X13762500Y-14971929D01*
X13776786Y-14900500D01*
X13776786Y-14843357D01*
X13762500Y-14771929D01*
X13748214Y-14729071D01*
X13733928Y-14700500D01*
X13705357Y-14657643D01*
X13691071Y-14643357D01*
X6271500Y-15322500D02*
X6347500Y-15246500D01*
X6271500Y-15170500D01*
X6195500Y-15246500D01*
X6271500Y-15322500D01*
X6791071Y-15382214D02*
X6619643Y-15382214D01*
X6705357Y-15382214D02*
X6705357Y-15082214D01*
X6676786Y-15125071D01*
X6648214Y-15153643D01*
X6619643Y-15167929D01*
X6919643Y-15353643D02*
X6933928Y-15367929D01*
X6919643Y-15382214D01*
X6905357Y-15367929D01*
X6919643Y-15353643D01*
X6919643Y-15382214D01*
X7205357Y-15082214D02*
X7062500Y-15082214D01*
X7048214Y-15225071D01*
X7062500Y-15210786D01*
X7091071Y-15196500D01*
X7162500Y-15196500D01*
X7191071Y-15210786D01*
X7205357Y-15225071D01*
X7219643Y-15253643D01*
X7219643Y-15325071D01*
X7205357Y-15353643D01*
X7191071Y-15367929D01*
X7162500Y-15382214D01*
X7091071Y-15382214D01*
X7062500Y-15367929D01*
X7048214Y-15353643D01*
X7333928Y-15110786D02*
X7348214Y-15096500D01*
X7376786Y-15082214D01*
X7448214Y-15082214D01*
X7476786Y-15096500D01*
X7491071Y-15110786D01*
X7505357Y-15139357D01*
X7505357Y-15167929D01*
X7491071Y-15210786D01*
X7319643Y-15382214D01*
X7505357Y-15382214D01*
X7691071Y-15082214D02*
X7719643Y-15082214D01*
X7748214Y-15096500D01*
X7762500Y-15110786D01*
X7776786Y-15139357D01*
X7791071Y-15196500D01*
X7791071Y-15267929D01*
X7776786Y-15325071D01*
X7762500Y-15353643D01*
X7748214Y-15367929D01*
X7719643Y-15382214D01*
X7691071Y-15382214D01*
X7662500Y-15367929D01*
X7648214Y-15353643D01*
X7633928Y-15325071D01*
X7619643Y-15267929D01*
X7619643Y-15196500D01*
X7633928Y-15139357D01*
X7648214Y-15110786D01*
X7662500Y-15096500D01*
X7691071Y-15082214D01*
X7919643Y-15382214D02*
X7919643Y-15182214D01*
X7919643Y-15210786D02*
X7933928Y-15196500D01*
X7962500Y-15182214D01*
X8005357Y-15182214D01*
X8033928Y-15196500D01*
X8048214Y-15225071D01*
X8048214Y-15382214D01*
X8048214Y-15225071D02*
X8062500Y-15196500D01*
X8091071Y-15182214D01*
X8133928Y-15182214D01*
X8162500Y-15196500D01*
X8176786Y-15225071D01*
X8176786Y-15382214D01*
X8319643Y-15382214D02*
X8319643Y-15182214D01*
X8319643Y-15210786D02*
X8333928Y-15196500D01*
X8362500Y-15182214D01*
X8405357Y-15182214D01*
X8433928Y-15196500D01*
X8448214Y-15225071D01*
X8448214Y-15382214D01*
X8448214Y-15225071D02*
X8462500Y-15196500D01*
X8491071Y-15182214D01*
X8533928Y-15182214D01*
X8562500Y-15196500D01*
X8576786Y-15225071D01*
X8576786Y-15382214D01*
X9162500Y-15067929D02*
X8905357Y-15453643D01*
X9548214Y-15082214D02*
X9576786Y-15082214D01*
X9605357Y-15096500D01*
X9619643Y-15110786D01*
X9633928Y-15139357D01*
X9648214Y-15196500D01*
X9648214Y-15267929D01*
X9633928Y-15325071D01*
X9619643Y-15353643D01*
X9605357Y-15367929D01*
X9576786Y-15382214D01*
X9548214Y-15382214D01*
X9519643Y-15367929D01*
X9505357Y-15353643D01*
X9491071Y-15325071D01*
X9476786Y-15267929D01*
X9476786Y-15196500D01*
X9491071Y-15139357D01*
X9505357Y-15110786D01*
X9519643Y-15096500D01*
X9548214Y-15082214D01*
X9776786Y-15353643D02*
X9791071Y-15367929D01*
X9776786Y-15382214D01*
X9762500Y-15367929D01*
X9776786Y-15353643D01*
X9776786Y-15382214D01*
X9976786Y-15082214D02*
X10005357Y-15082214D01*
X10033928Y-15096500D01*
X10048214Y-15110786D01*
X10062500Y-15139357D01*
X10076786Y-15196500D01*
X10076786Y-15267929D01*
X10062500Y-15325071D01*
X10048214Y-15353643D01*
X10033928Y-15367929D01*
X10005357Y-15382214D01*
X9976786Y-15382214D01*
X9948214Y-15367929D01*
X9933928Y-15353643D01*
X9919643Y-15325071D01*
X9905357Y-15267929D01*
X9905357Y-15196500D01*
X9919643Y-15139357D01*
X9933928Y-15110786D01*
X9948214Y-15096500D01*
X9976786Y-15082214D01*
X10348214Y-15082214D02*
X10205357Y-15082214D01*
X10191071Y-15225071D01*
X10205357Y-15210786D01*
X10233928Y-15196500D01*
X10305357Y-15196500D01*
X10333928Y-15210786D01*
X10348214Y-15225071D01*
X10362500Y-15253643D01*
X10362500Y-15325071D01*
X10348214Y-15353643D01*
X10333928Y-15367929D01*
X10305357Y-15382214D01*
X10233928Y-15382214D01*
X10205357Y-15367929D01*
X10191071Y-15353643D01*
X10505357Y-15382214D02*
X10562500Y-15382214D01*
X10591071Y-15367929D01*
X10605357Y-15353643D01*
X10633928Y-15310786D01*
X10648214Y-15253643D01*
X10648214Y-15139357D01*
X10633928Y-15110786D01*
X10619643Y-15096500D01*
X10591071Y-15082214D01*
X10533928Y-15082214D01*
X10505357Y-15096500D01*
X10491071Y-15110786D01*
X10476786Y-15139357D01*
X10476786Y-15210786D01*
X10491071Y-15239357D01*
X10505357Y-15253643D01*
X10533928Y-15267929D01*
X10591071Y-15267929D01*
X10619643Y-15253643D01*
X10633928Y-15239357D01*
X10648214Y-15210786D01*
X10819643Y-15210786D02*
X10791071Y-15196500D01*
X10776786Y-15182214D01*
X10762500Y-15153643D01*
X10762500Y-15139357D01*
X10776786Y-15110786D01*
X10791071Y-15096500D01*
X10819643Y-15082214D01*
X10876786Y-15082214D01*
X10905357Y-15096500D01*
X10919643Y-15110786D01*
X10933928Y-15139357D01*
X10933928Y-15153643D01*
X10919643Y-15182214D01*
X10905357Y-15196500D01*
X10876786Y-15210786D01*
X10819643Y-15210786D01*
X10791071Y-15225071D01*
X10776786Y-15239357D01*
X10762500Y-15267929D01*
X10762500Y-15325071D01*
X10776786Y-15353643D01*
X10791071Y-15367929D01*
X10819643Y-15382214D01*
X10876786Y-15382214D01*
X10905357Y-15367929D01*
X10919643Y-15353643D01*
X10933928Y-15325071D01*
X10933928Y-15267929D01*
X10919643Y-15239357D01*
X10905357Y-15225071D01*
X10876786Y-15210786D01*
X11048214Y-15082214D02*
X11048214Y-15139357D01*
X11162500Y-15082214D02*
X11162500Y-15139357D01*
X11605357Y-15496500D02*
X11591071Y-15482214D01*
X11562500Y-15439357D01*
X11548214Y-15410786D01*
X11533928Y-15367929D01*
X11519643Y-15296500D01*
X11519643Y-15239357D01*
X11533928Y-15167929D01*
X11548214Y-15125071D01*
X11562500Y-15096500D01*
X11591071Y-15053643D01*
X11605357Y-15039357D01*
X11705357Y-15110786D02*
X11719643Y-15096500D01*
X11748214Y-15082214D01*
X11819643Y-15082214D01*
X11848214Y-15096500D01*
X11862500Y-15110786D01*
X11876786Y-15139357D01*
X11876786Y-15167929D01*
X11862500Y-15210786D01*
X11691071Y-15382214D01*
X11876786Y-15382214D01*
X12062500Y-15082214D02*
X12091071Y-15082214D01*
X12119643Y-15096500D01*
X12133928Y-15110786D01*
X12148214Y-15139357D01*
X12162500Y-15196500D01*
X12162500Y-15267929D01*
X12148214Y-15325071D01*
X12133928Y-15353643D01*
X12119643Y-15367929D01*
X12091071Y-15382214D01*
X12062500Y-15382214D01*
X12033928Y-15367929D01*
X12019643Y-15353643D01*
X12005357Y-15325071D01*
X11991071Y-15267929D01*
X11991071Y-15196500D01*
X12005357Y-15139357D01*
X12019643Y-15110786D01*
X12033928Y-15096500D01*
X12062500Y-15082214D01*
X12519643Y-15382214D02*
X12519643Y-15082214D01*
X12648214Y-15382214D02*
X12648214Y-15225071D01*
X12633928Y-15196500D01*
X12605357Y-15182214D01*
X12562500Y-15182214D01*
X12533928Y-15196500D01*
X12519643Y-15210786D01*
X12833928Y-15382214D02*
X12805357Y-15367929D01*
X12791071Y-15353643D01*
X12776786Y-15325071D01*
X12776786Y-15239357D01*
X12791071Y-15210786D01*
X12805357Y-15196500D01*
X12833928Y-15182214D01*
X12876786Y-15182214D01*
X12905357Y-15196500D01*
X12919643Y-15210786D01*
X12933928Y-15239357D01*
X12933928Y-15325071D01*
X12919643Y-15353643D01*
X12905357Y-15367929D01*
X12876786Y-15382214D01*
X12833928Y-15382214D01*
X13105357Y-15382214D02*
X13076786Y-15367929D01*
X13062500Y-15339357D01*
X13062500Y-15082214D01*
X13333928Y-15367929D02*
X13305357Y-15382214D01*
X13248214Y-15382214D01*
X13219643Y-15367929D01*
X13205357Y-15339357D01*
X13205357Y-15225071D01*
X13219643Y-15196500D01*
X13248214Y-15182214D01*
X13305357Y-15182214D01*
X13333928Y-15196500D01*
X13348214Y-15225071D01*
X13348214Y-15253643D01*
X13205357Y-15282214D01*
X13462500Y-15367929D02*
X13491071Y-15382214D01*
X13548214Y-15382214D01*
X13576786Y-15367929D01*
X13591071Y-15339357D01*
X13591071Y-15325071D01*
X13576786Y-15296500D01*
X13548214Y-15282214D01*
X13505357Y-15282214D01*
X13476786Y-15267929D01*
X13462500Y-15239357D01*
X13462500Y-15225071D01*
X13476786Y-15196500D01*
X13505357Y-15182214D01*
X13548214Y-15182214D01*
X13576786Y-15196500D01*
X13691071Y-15496500D02*
X13705357Y-15482214D01*
X13733928Y-15439357D01*
X13748214Y-15410786D01*
X13762500Y-15367929D01*
X13776786Y-15296500D01*
X13776786Y-15239357D01*
X13762500Y-15167929D01*
X13748214Y-15125071D01*
X13733928Y-15096500D01*
X13705357Y-15053643D01*
X13691071Y-15039357D01*
X6127500Y-15532500D02*
X6347500Y-15752500D01*
X6347500Y-15532500D02*
X6127500Y-15752500D01*
X6347500Y-15642500D02*
G75*
G03*
X6347500Y-15642500I-110000J0D01*
G01*
X6619643Y-15506786D02*
X6633928Y-15492500D01*
X6662500Y-15478214D01*
X6733928Y-15478214D01*
X6762500Y-15492500D01*
X6776786Y-15506786D01*
X6791071Y-15535357D01*
X6791071Y-15563929D01*
X6776786Y-15606786D01*
X6605357Y-15778214D01*
X6791071Y-15778214D01*
X6919643Y-15749643D02*
X6933928Y-15763929D01*
X6919643Y-15778214D01*
X6905357Y-15763929D01*
X6919643Y-15749643D01*
X6919643Y-15778214D01*
X7048214Y-15506786D02*
X7062500Y-15492500D01*
X7091071Y-15478214D01*
X7162500Y-15478214D01*
X7191071Y-15492500D01*
X7205357Y-15506786D01*
X7219643Y-15535357D01*
X7219643Y-15563929D01*
X7205357Y-15606786D01*
X7033928Y-15778214D01*
X7219643Y-15778214D01*
X7405357Y-15478214D02*
X7433928Y-15478214D01*
X7462500Y-15492500D01*
X7476786Y-15506786D01*
X7491071Y-15535357D01*
X7505357Y-15592500D01*
X7505357Y-15663929D01*
X7491071Y-15721071D01*
X7476786Y-15749643D01*
X7462500Y-15763929D01*
X7433928Y-15778214D01*
X7405357Y-15778214D01*
X7376786Y-15763929D01*
X7362500Y-15749643D01*
X7348214Y-15721071D01*
X7333928Y-15663929D01*
X7333928Y-15592500D01*
X7348214Y-15535357D01*
X7362500Y-15506786D01*
X7376786Y-15492500D01*
X7405357Y-15478214D01*
X7691071Y-15478214D02*
X7719643Y-15478214D01*
X7748214Y-15492500D01*
X7762500Y-15506786D01*
X7776786Y-15535357D01*
X7791071Y-15592500D01*
X7791071Y-15663929D01*
X7776786Y-15721071D01*
X7762500Y-15749643D01*
X7748214Y-15763929D01*
X7719643Y-15778214D01*
X7691071Y-15778214D01*
X7662500Y-15763929D01*
X7648214Y-15749643D01*
X7633928Y-15721071D01*
X7619643Y-15663929D01*
X7619643Y-15592500D01*
X7633928Y-15535357D01*
X7648214Y-15506786D01*
X7662500Y-15492500D01*
X7691071Y-15478214D01*
X7919643Y-15778214D02*
X7919643Y-15578214D01*
X7919643Y-15606786D02*
X7933928Y-15592500D01*
X7962500Y-15578214D01*
X8005357Y-15578214D01*
X8033928Y-15592500D01*
X8048214Y-15621071D01*
X8048214Y-15778214D01*
X8048214Y-15621071D02*
X8062500Y-15592500D01*
X8091071Y-15578214D01*
X8133928Y-15578214D01*
X8162500Y-15592500D01*
X8176786Y-15621071D01*
X8176786Y-15778214D01*
X8319643Y-15778214D02*
X8319643Y-15578214D01*
X8319643Y-15606786D02*
X8333928Y-15592500D01*
X8362500Y-15578214D01*
X8405357Y-15578214D01*
X8433928Y-15592500D01*
X8448214Y-15621071D01*
X8448214Y-15778214D01*
X8448214Y-15621071D02*
X8462500Y-15592500D01*
X8491071Y-15578214D01*
X8533928Y-15578214D01*
X8562500Y-15592500D01*
X8576786Y-15621071D01*
X8576786Y-15778214D01*
X9162500Y-15463929D02*
X8905357Y-15849643D01*
X9548214Y-15478214D02*
X9576786Y-15478214D01*
X9605357Y-15492500D01*
X9619643Y-15506786D01*
X9633928Y-15535357D01*
X9648214Y-15592500D01*
X9648214Y-15663929D01*
X9633928Y-15721071D01*
X9619643Y-15749643D01*
X9605357Y-15763929D01*
X9576786Y-15778214D01*
X9548214Y-15778214D01*
X9519643Y-15763929D01*
X9505357Y-15749643D01*
X9491071Y-15721071D01*
X9476786Y-15663929D01*
X9476786Y-15592500D01*
X9491071Y-15535357D01*
X9505357Y-15506786D01*
X9519643Y-15492500D01*
X9548214Y-15478214D01*
X9776786Y-15749643D02*
X9791071Y-15763929D01*
X9776786Y-15778214D01*
X9762500Y-15763929D01*
X9776786Y-15749643D01*
X9776786Y-15778214D01*
X9976786Y-15478214D02*
X10005357Y-15478214D01*
X10033928Y-15492500D01*
X10048214Y-15506786D01*
X10062500Y-15535357D01*
X10076786Y-15592500D01*
X10076786Y-15663929D01*
X10062500Y-15721071D01*
X10048214Y-15749643D01*
X10033928Y-15763929D01*
X10005357Y-15778214D01*
X9976786Y-15778214D01*
X9948214Y-15763929D01*
X9933928Y-15749643D01*
X9919643Y-15721071D01*
X9905357Y-15663929D01*
X9905357Y-15592500D01*
X9919643Y-15535357D01*
X9933928Y-15506786D01*
X9948214Y-15492500D01*
X9976786Y-15478214D01*
X10248214Y-15606786D02*
X10219643Y-15592500D01*
X10205357Y-15578214D01*
X10191071Y-15549643D01*
X10191071Y-15535357D01*
X10205357Y-15506786D01*
X10219643Y-15492500D01*
X10248214Y-15478214D01*
X10305357Y-15478214D01*
X10333928Y-15492500D01*
X10348214Y-15506786D01*
X10362500Y-15535357D01*
X10362500Y-15549643D01*
X10348214Y-15578214D01*
X10333928Y-15592500D01*
X10305357Y-15606786D01*
X10248214Y-15606786D01*
X10219643Y-15621071D01*
X10205357Y-15635357D01*
X10191071Y-15663929D01*
X10191071Y-15721071D01*
X10205357Y-15749643D01*
X10219643Y-15763929D01*
X10248214Y-15778214D01*
X10305357Y-15778214D01*
X10333928Y-15763929D01*
X10348214Y-15749643D01*
X10362500Y-15721071D01*
X10362500Y-15663929D01*
X10348214Y-15635357D01*
X10333928Y-15621071D01*
X10305357Y-15606786D01*
X10619643Y-15478214D02*
X10562500Y-15478214D01*
X10533928Y-15492500D01*
X10519643Y-15506786D01*
X10491071Y-15549643D01*
X10476786Y-15606786D01*
X10476786Y-15721071D01*
X10491071Y-15749643D01*
X10505357Y-15763929D01*
X10533928Y-15778214D01*
X10591071Y-15778214D01*
X10619643Y-15763929D01*
X10633928Y-15749643D01*
X10648214Y-15721071D01*
X10648214Y-15649643D01*
X10633928Y-15621071D01*
X10619643Y-15606786D01*
X10591071Y-15592500D01*
X10533928Y-15592500D01*
X10505357Y-15606786D01*
X10491071Y-15621071D01*
X10476786Y-15649643D01*
X10905357Y-15478214D02*
X10848214Y-15478214D01*
X10819643Y-15492500D01*
X10805357Y-15506786D01*
X10776786Y-15549643D01*
X10762500Y-15606786D01*
X10762500Y-15721071D01*
X10776786Y-15749643D01*
X10791071Y-15763929D01*
X10819643Y-15778214D01*
X10876786Y-15778214D01*
X10905357Y-15763929D01*
X10919643Y-15749643D01*
X10933928Y-15721071D01*
X10933928Y-15649643D01*
X10919643Y-15621071D01*
X10905357Y-15606786D01*
X10876786Y-15592500D01*
X10819643Y-15592500D01*
X10791071Y-15606786D01*
X10776786Y-15621071D01*
X10762500Y-15649643D01*
X11048214Y-15478214D02*
X11048214Y-15535357D01*
X11162500Y-15478214D02*
X11162500Y-15535357D01*
X11605357Y-15892500D02*
X11591071Y-15878214D01*
X11562500Y-15835357D01*
X11548214Y-15806786D01*
X11533928Y-15763929D01*
X11519643Y-15692500D01*
X11519643Y-15635357D01*
X11533928Y-15563929D01*
X11548214Y-15521071D01*
X11562500Y-15492500D01*
X11591071Y-15449643D01*
X11605357Y-15435357D01*
X11876786Y-15778214D02*
X11705357Y-15778214D01*
X11791071Y-15778214D02*
X11791071Y-15478214D01*
X11762500Y-15521071D01*
X11733928Y-15549643D01*
X11705357Y-15563929D01*
X12233928Y-15778214D02*
X12233928Y-15478214D01*
X12362500Y-15778214D02*
X12362500Y-15621071D01*
X12348214Y-15592500D01*
X12319643Y-15578214D01*
X12276786Y-15578214D01*
X12248214Y-15592500D01*
X12233928Y-15606786D01*
X12548214Y-15778214D02*
X12519643Y-15763929D01*
X12505357Y-15749643D01*
X12491071Y-15721071D01*
X12491071Y-15635357D01*
X12505357Y-15606786D01*
X12519643Y-15592500D01*
X12548214Y-15578214D01*
X12591071Y-15578214D01*
X12619643Y-15592500D01*
X12633928Y-15606786D01*
X12648214Y-15635357D01*
X12648214Y-15721071D01*
X12633928Y-15749643D01*
X12619643Y-15763929D01*
X12591071Y-15778214D01*
X12548214Y-15778214D01*
X12819643Y-15778214D02*
X12791071Y-15763929D01*
X12776786Y-15735357D01*
X12776786Y-15478214D01*
X13048214Y-15763929D02*
X13019643Y-15778214D01*
X12962500Y-15778214D01*
X12933928Y-15763929D01*
X12919643Y-15735357D01*
X12919643Y-15621071D01*
X12933928Y-15592500D01*
X12962500Y-15578214D01*
X13019643Y-15578214D01*
X13048214Y-15592500D01*
X13062500Y-15621071D01*
X13062500Y-15649643D01*
X12919643Y-15678214D01*
X13162500Y-15892500D02*
X13176786Y-15878214D01*
X13205357Y-15835357D01*
X13219643Y-15806786D01*
X13233928Y-15763929D01*
X13248214Y-15692500D01*
X13248214Y-15635357D01*
X13233928Y-15563929D01*
X13219643Y-15521071D01*
X13205357Y-15492500D01*
X13176786Y-15449643D01*
X13162500Y-15435357D01*
X13705357Y-15892500D02*
X13691071Y-15878214D01*
X13662500Y-15835357D01*
X13648214Y-15806786D01*
X13633928Y-15763929D01*
X13619643Y-15692500D01*
X13619643Y-15635357D01*
X13633928Y-15563929D01*
X13648214Y-15521071D01*
X13662500Y-15492500D01*
X13691071Y-15449643D01*
X13705357Y-15435357D01*
X13819643Y-15578214D02*
X13819643Y-15778214D01*
X13819643Y-15606786D02*
X13833928Y-15592500D01*
X13862500Y-15578214D01*
X13905357Y-15578214D01*
X13933928Y-15592500D01*
X13948214Y-15621071D01*
X13948214Y-15778214D01*
X14133928Y-15778214D02*
X14105357Y-15763929D01*
X14091071Y-15749643D01*
X14076786Y-15721071D01*
X14076786Y-15635357D01*
X14091071Y-15606786D01*
X14105357Y-15592500D01*
X14133928Y-15578214D01*
X14176786Y-15578214D01*
X14205357Y-15592500D01*
X14219643Y-15606786D01*
X14233928Y-15635357D01*
X14233928Y-15721071D01*
X14219643Y-15749643D01*
X14205357Y-15763929D01*
X14176786Y-15778214D01*
X14133928Y-15778214D01*
X14319643Y-15578214D02*
X14433928Y-15578214D01*
X14362500Y-15478214D02*
X14362500Y-15735357D01*
X14376786Y-15763929D01*
X14405357Y-15778214D01*
X14433928Y-15778214D01*
X14762500Y-15578214D02*
X14762500Y-15878214D01*
X14762500Y-15592500D02*
X14791071Y-15578214D01*
X14848214Y-15578214D01*
X14876786Y-15592500D01*
X14891071Y-15606786D01*
X14905357Y-15635357D01*
X14905357Y-15721071D01*
X14891071Y-15749643D01*
X14876786Y-15763929D01*
X14848214Y-15778214D01*
X14791071Y-15778214D01*
X14762500Y-15763929D01*
X15076786Y-15778214D02*
X15048214Y-15763929D01*
X15033928Y-15735357D01*
X15033928Y-15478214D01*
X15319643Y-15778214D02*
X15319643Y-15621071D01*
X15305357Y-15592500D01*
X15276786Y-15578214D01*
X15219643Y-15578214D01*
X15191071Y-15592500D01*
X15319643Y-15763929D02*
X15291071Y-15778214D01*
X15219643Y-15778214D01*
X15191071Y-15763929D01*
X15176786Y-15735357D01*
X15176786Y-15706786D01*
X15191071Y-15678214D01*
X15219643Y-15663929D01*
X15291071Y-15663929D01*
X15319643Y-15649643D01*
X15419643Y-15578214D02*
X15533928Y-15578214D01*
X15462500Y-15478214D02*
X15462500Y-15735357D01*
X15476786Y-15763929D01*
X15505357Y-15778214D01*
X15533928Y-15778214D01*
X15748214Y-15763929D02*
X15719643Y-15778214D01*
X15662500Y-15778214D01*
X15633928Y-15763929D01*
X15619643Y-15735357D01*
X15619643Y-15621071D01*
X15633928Y-15592500D01*
X15662500Y-15578214D01*
X15719643Y-15578214D01*
X15748214Y-15592500D01*
X15762500Y-15621071D01*
X15762500Y-15649643D01*
X15619643Y-15678214D01*
X16019643Y-15778214D02*
X16019643Y-15478214D01*
X16019643Y-15763929D02*
X15991071Y-15778214D01*
X15933928Y-15778214D01*
X15905357Y-15763929D01*
X15891071Y-15749643D01*
X15876786Y-15721071D01*
X15876786Y-15635357D01*
X15891071Y-15606786D01*
X15905357Y-15592500D01*
X15933928Y-15578214D01*
X15991071Y-15578214D01*
X16019643Y-15592500D01*
X16133928Y-15892500D02*
X16148214Y-15878214D01*
X16176786Y-15835357D01*
X16191071Y-15806786D01*
X16205357Y-15763929D01*
X16219643Y-15692500D01*
X16219643Y-15635357D01*
X16205357Y-15563929D01*
X16191071Y-15521071D01*
X16176786Y-15492500D01*
X16148214Y-15449643D01*
X16133928Y-15435357D01*
X5966500Y-15848000D02*
X6347500Y-16229000D01*
X6347500Y-15848000D02*
X5966500Y-16229000D01*
X6157000Y-15848000D02*
X6157000Y-16229000D01*
X5966500Y-16038500D02*
X6347500Y-16038500D01*
X6605357Y-15874214D02*
X6791071Y-15874214D01*
X6691071Y-15988500D01*
X6733928Y-15988500D01*
X6762500Y-16002786D01*
X6776786Y-16017071D01*
X6791071Y-16045643D01*
X6791071Y-16117071D01*
X6776786Y-16145643D01*
X6762500Y-16159929D01*
X6733928Y-16174214D01*
X6648214Y-16174214D01*
X6619643Y-16159929D01*
X6605357Y-16145643D01*
X6919643Y-16145643D02*
X6933928Y-16159929D01*
X6919643Y-16174214D01*
X6905357Y-16159929D01*
X6919643Y-16145643D01*
X6919643Y-16174214D01*
X7105357Y-16002786D02*
X7076786Y-15988500D01*
X7062500Y-15974214D01*
X7048214Y-15945643D01*
X7048214Y-15931357D01*
X7062500Y-15902786D01*
X7076786Y-15888500D01*
X7105357Y-15874214D01*
X7162500Y-15874214D01*
X7191071Y-15888500D01*
X7205357Y-15902786D01*
X7219643Y-15931357D01*
X7219643Y-15945643D01*
X7205357Y-15974214D01*
X7191071Y-15988500D01*
X7162500Y-16002786D01*
X7105357Y-16002786D01*
X7076786Y-16017071D01*
X7062500Y-16031357D01*
X7048214Y-16059929D01*
X7048214Y-16117071D01*
X7062500Y-16145643D01*
X7076786Y-16159929D01*
X7105357Y-16174214D01*
X7162500Y-16174214D01*
X7191071Y-16159929D01*
X7205357Y-16145643D01*
X7219643Y-16117071D01*
X7219643Y-16059929D01*
X7205357Y-16031357D01*
X7191071Y-16017071D01*
X7162500Y-16002786D01*
X7505357Y-16174214D02*
X7333928Y-16174214D01*
X7419643Y-16174214D02*
X7419643Y-15874214D01*
X7391071Y-15917071D01*
X7362500Y-15945643D01*
X7333928Y-15959929D01*
X7691071Y-15874214D02*
X7719643Y-15874214D01*
X7748214Y-15888500D01*
X7762500Y-15902786D01*
X7776786Y-15931357D01*
X7791071Y-15988500D01*
X7791071Y-16059929D01*
X7776786Y-16117071D01*
X7762500Y-16145643D01*
X7748214Y-16159929D01*
X7719643Y-16174214D01*
X7691071Y-16174214D01*
X7662500Y-16159929D01*
X7648214Y-16145643D01*
X7633928Y-16117071D01*
X7619643Y-16059929D01*
X7619643Y-15988500D01*
X7633928Y-15931357D01*
X7648214Y-15902786D01*
X7662500Y-15888500D01*
X7691071Y-15874214D01*
X7919643Y-16174214D02*
X7919643Y-15974214D01*
X7919643Y-16002786D02*
X7933928Y-15988500D01*
X7962500Y-15974214D01*
X8005357Y-15974214D01*
X8033928Y-15988500D01*
X8048214Y-16017071D01*
X8048214Y-16174214D01*
X8048214Y-16017071D02*
X8062500Y-15988500D01*
X8091071Y-15974214D01*
X8133928Y-15974214D01*
X8162500Y-15988500D01*
X8176786Y-16017071D01*
X8176786Y-16174214D01*
X8319643Y-16174214D02*
X8319643Y-15974214D01*
X8319643Y-16002786D02*
X8333928Y-15988500D01*
X8362500Y-15974214D01*
X8405357Y-15974214D01*
X8433928Y-15988500D01*
X8448214Y-16017071D01*
X8448214Y-16174214D01*
X8448214Y-16017071D02*
X8462500Y-15988500D01*
X8491071Y-15974214D01*
X8533928Y-15974214D01*
X8562500Y-15988500D01*
X8576786Y-16017071D01*
X8576786Y-16174214D01*
X9162500Y-15859929D02*
X8905357Y-16245643D01*
X9548214Y-15874214D02*
X9576786Y-15874214D01*
X9605357Y-15888500D01*
X9619643Y-15902786D01*
X9633928Y-15931357D01*
X9648214Y-15988500D01*
X9648214Y-16059929D01*
X9633928Y-16117071D01*
X9619643Y-16145643D01*
X9605357Y-16159929D01*
X9576786Y-16174214D01*
X9548214Y-16174214D01*
X9519643Y-16159929D01*
X9505357Y-16145643D01*
X9491071Y-16117071D01*
X9476786Y-16059929D01*
X9476786Y-15988500D01*
X9491071Y-15931357D01*
X9505357Y-15902786D01*
X9519643Y-15888500D01*
X9548214Y-15874214D01*
X9776786Y-16145643D02*
X9791071Y-16159929D01*
X9776786Y-16174214D01*
X9762500Y-16159929D01*
X9776786Y-16145643D01*
X9776786Y-16174214D01*
X10076786Y-16174214D02*
X9905357Y-16174214D01*
X9991071Y-16174214D02*
X9991071Y-15874214D01*
X9962500Y-15917071D01*
X9933928Y-15945643D01*
X9905357Y-15959929D01*
X10348214Y-15874214D02*
X10205357Y-15874214D01*
X10191071Y-16017071D01*
X10205357Y-16002786D01*
X10233928Y-15988500D01*
X10305357Y-15988500D01*
X10333928Y-16002786D01*
X10348214Y-16017071D01*
X10362500Y-16045643D01*
X10362500Y-16117071D01*
X10348214Y-16145643D01*
X10333928Y-16159929D01*
X10305357Y-16174214D01*
X10233928Y-16174214D01*
X10205357Y-16159929D01*
X10191071Y-16145643D01*
X10548214Y-15874214D02*
X10576786Y-15874214D01*
X10605357Y-15888500D01*
X10619643Y-15902786D01*
X10633928Y-15931357D01*
X10648214Y-15988500D01*
X10648214Y-16059929D01*
X10633928Y-16117071D01*
X10619643Y-16145643D01*
X10605357Y-16159929D01*
X10576786Y-16174214D01*
X10548214Y-16174214D01*
X10519643Y-16159929D01*
X10505357Y-16145643D01*
X10491071Y-16117071D01*
X10476786Y-16059929D01*
X10476786Y-15988500D01*
X10491071Y-15931357D01*
X10505357Y-15902786D01*
X10519643Y-15888500D01*
X10548214Y-15874214D01*
X10833928Y-15874214D02*
X10862500Y-15874214D01*
X10891071Y-15888500D01*
X10905357Y-15902786D01*
X10919643Y-15931357D01*
X10933928Y-15988500D01*
X10933928Y-16059929D01*
X10919643Y-16117071D01*
X10905357Y-16145643D01*
X10891071Y-16159929D01*
X10862500Y-16174214D01*
X10833928Y-16174214D01*
X10805357Y-16159929D01*
X10791071Y-16145643D01*
X10776786Y-16117071D01*
X10762500Y-16059929D01*
X10762500Y-15988500D01*
X10776786Y-15931357D01*
X10791071Y-15902786D01*
X10805357Y-15888500D01*
X10833928Y-15874214D01*
X11048214Y-15874214D02*
X11048214Y-15931357D01*
X11162500Y-15874214D02*
X11162500Y-15931357D01*
X11605357Y-16288500D02*
X11591071Y-16274214D01*
X11562500Y-16231357D01*
X11548214Y-16202786D01*
X11533928Y-16159929D01*
X11519643Y-16088500D01*
X11519643Y-16031357D01*
X11533928Y-15959929D01*
X11548214Y-15917071D01*
X11562500Y-15888500D01*
X11591071Y-15845643D01*
X11605357Y-15831357D01*
X11876786Y-16174214D02*
X11705357Y-16174214D01*
X11791071Y-16174214D02*
X11791071Y-15874214D01*
X11762500Y-15917071D01*
X11733928Y-15945643D01*
X11705357Y-15959929D01*
X12233928Y-16174214D02*
X12233928Y-15874214D01*
X12362500Y-16174214D02*
X12362500Y-16017071D01*
X12348214Y-15988500D01*
X12319643Y-15974214D01*
X12276786Y-15974214D01*
X12248214Y-15988500D01*
X12233928Y-16002786D01*
X12548214Y-16174214D02*
X12519643Y-16159929D01*
X12505357Y-16145643D01*
X12491071Y-16117071D01*
X12491071Y-16031357D01*
X12505357Y-16002786D01*
X12519643Y-15988500D01*
X12548214Y-15974214D01*
X12591071Y-15974214D01*
X12619643Y-15988500D01*
X12633928Y-16002786D01*
X12648214Y-16031357D01*
X12648214Y-16117071D01*
X12633928Y-16145643D01*
X12619643Y-16159929D01*
X12591071Y-16174214D01*
X12548214Y-16174214D01*
X12819643Y-16174214D02*
X12791071Y-16159929D01*
X12776786Y-16131357D01*
X12776786Y-15874214D01*
X13048214Y-16159929D02*
X13019643Y-16174214D01*
X12962500Y-16174214D01*
X12933928Y-16159929D01*
X12919643Y-16131357D01*
X12919643Y-16017071D01*
X12933928Y-15988500D01*
X12962500Y-15974214D01*
X13019643Y-15974214D01*
X13048214Y-15988500D01*
X13062500Y-16017071D01*
X13062500Y-16045643D01*
X12919643Y-16074214D01*
X13162500Y-16288500D02*
X13176786Y-16274214D01*
X13205357Y-16231357D01*
X13219643Y-16202786D01*
X13233928Y-16159929D01*
X13248214Y-16088500D01*
X13248214Y-16031357D01*
X13233928Y-15959929D01*
X13219643Y-15917071D01*
X13205357Y-15888500D01*
X13176786Y-15845643D01*
X13162500Y-15831357D01*
X13705357Y-16288500D02*
X13691071Y-16274214D01*
X13662500Y-16231357D01*
X13648214Y-16202786D01*
X13633928Y-16159929D01*
X13619643Y-16088500D01*
X13619643Y-16031357D01*
X13633928Y-15959929D01*
X13648214Y-15917071D01*
X13662500Y-15888500D01*
X13691071Y-15845643D01*
X13705357Y-15831357D01*
X13819643Y-15974214D02*
X13819643Y-16174214D01*
X13819643Y-16002786D02*
X13833928Y-15988500D01*
X13862500Y-15974214D01*
X13905357Y-15974214D01*
X13933928Y-15988500D01*
X13948214Y-16017071D01*
X13948214Y-16174214D01*
X14133928Y-16174214D02*
X14105357Y-16159929D01*
X14091071Y-16145643D01*
X14076786Y-16117071D01*
X14076786Y-16031357D01*
X14091071Y-16002786D01*
X14105357Y-15988500D01*
X14133928Y-15974214D01*
X14176786Y-15974214D01*
X14205357Y-15988500D01*
X14219643Y-16002786D01*
X14233928Y-16031357D01*
X14233928Y-16117071D01*
X14219643Y-16145643D01*
X14205357Y-16159929D01*
X14176786Y-16174214D01*
X14133928Y-16174214D01*
X14319643Y-15974214D02*
X14433928Y-15974214D01*
X14362500Y-15874214D02*
X14362500Y-16131357D01*
X14376786Y-16159929D01*
X14405357Y-16174214D01*
X14433928Y-16174214D01*
X14762500Y-15974214D02*
X14762500Y-16274214D01*
X14762500Y-15988500D02*
X14791071Y-15974214D01*
X14848214Y-15974214D01*
X14876786Y-15988500D01*
X14891071Y-16002786D01*
X14905357Y-16031357D01*
X14905357Y-16117071D01*
X14891071Y-16145643D01*
X14876786Y-16159929D01*
X14848214Y-16174214D01*
X14791071Y-16174214D01*
X14762500Y-16159929D01*
X15076786Y-16174214D02*
X15048214Y-16159929D01*
X15033928Y-16131357D01*
X15033928Y-15874214D01*
X15319643Y-16174214D02*
X15319643Y-16017071D01*
X15305357Y-15988500D01*
X15276786Y-15974214D01*
X15219643Y-15974214D01*
X15191071Y-15988500D01*
X15319643Y-16159929D02*
X15291071Y-16174214D01*
X15219643Y-16174214D01*
X15191071Y-16159929D01*
X15176786Y-16131357D01*
X15176786Y-16102786D01*
X15191071Y-16074214D01*
X15219643Y-16059929D01*
X15291071Y-16059929D01*
X15319643Y-16045643D01*
X15419643Y-15974214D02*
X15533928Y-15974214D01*
X15462500Y-15874214D02*
X15462500Y-16131357D01*
X15476786Y-16159929D01*
X15505357Y-16174214D01*
X15533928Y-16174214D01*
X15748214Y-16159929D02*
X15719643Y-16174214D01*
X15662500Y-16174214D01*
X15633928Y-16159929D01*
X15619643Y-16131357D01*
X15619643Y-16017071D01*
X15633928Y-15988500D01*
X15662500Y-15974214D01*
X15719643Y-15974214D01*
X15748214Y-15988500D01*
X15762500Y-16017071D01*
X15762500Y-16045643D01*
X15619643Y-16074214D01*
X16019643Y-16174214D02*
X16019643Y-15874214D01*
X16019643Y-16159929D02*
X15991071Y-16174214D01*
X15933928Y-16174214D01*
X15905357Y-16159929D01*
X15891071Y-16145643D01*
X15876786Y-16117071D01*
X15876786Y-16031357D01*
X15891071Y-16002786D01*
X15905357Y-15988500D01*
X15933928Y-15974214D01*
X15991071Y-15974214D01*
X16019643Y-15988500D01*
X16133928Y-16288500D02*
X16148214Y-16274214D01*
X16176786Y-16231357D01*
X16191071Y-16202786D01*
X16205357Y-16159929D01*
X16219643Y-16088500D01*
X16219643Y-16031357D01*
X16205357Y-15959929D01*
X16191071Y-15917071D01*
X16176786Y-15888500D01*
X16148214Y-15845643D01*
X16133928Y-15831357D01*
M02*
