%FSLAX45Y45*%
G04 Gerber Fmt 4.5, Leading zero omitted, Abs format (unit mm)*
G04 Created by KiCad (PCBNEW 5.99.0-unknown-9f841da98e~134~ubuntu20.04.1) date 2021-12-17 15:58:44*
%MOMM*%
%LPD*%
G01*
G04 APERTURE LIST*
%TA.AperFunction,Profile*%
%ADD10C,0.050000*%
%TD*%
%ADD11C,0.200000*%
%ADD12C,0.030000*%
%ADD13C,0.080000*%
%ADD14C,0.100000*%
%ADD15C,0.152000*%
%ADD16C,0.320000*%
G04 APERTURE END LIST*
D10*
X7213600Y-13182600D02*
G75*
G02*
X6959600Y-12928600I0J254000D01*
G01*
X7213600Y-6019800D02*
X13670280Y-6019800D01*
X13670280Y-6019800D02*
G75*
G02*
X13924280Y-6273800I0J-254000D01*
G01*
X7213600Y-13182600D02*
X13670500Y-13182600D01*
X6959600Y-6273800D02*
G75*
G02*
X7213600Y-6019800I254000J0D01*
G01*
X13924280Y-6273800D02*
X13924500Y-12928600D01*
X13924500Y-12928600D02*
G75*
G02*
X13670500Y-13182600I-254000J0D01*
G01*
X6959600Y-12928600D02*
X6959600Y-6273800D01*
D11*
D12*
X7896830Y-9947700D02*
X7926830Y-9977700D01*
X7926830Y-9947700D02*
X7896830Y-9977700D01*
X7916150Y-10117100D02*
X7946150Y-10147100D01*
X7946150Y-10117100D02*
X7916150Y-10147100D01*
X7973090Y-9745450D02*
X8003090Y-9775450D01*
X8003090Y-9745450D02*
X7973090Y-9775450D01*
X8011400Y-9535400D02*
X8041400Y-9565400D01*
X8041400Y-9535400D02*
X8011400Y-9565400D01*
X8066150Y-8904550D02*
X8096150Y-8934550D01*
X8096150Y-8904550D02*
X8066150Y-8934550D01*
X8087400Y-9461390D02*
X8117400Y-9491390D01*
X8117400Y-9461390D02*
X8087400Y-9491390D01*
X8087400Y-9891000D02*
X8117400Y-9921000D01*
X8117400Y-9891000D02*
X8087400Y-9921000D01*
X8189000Y-10043400D02*
X8219000Y-10073400D01*
X8219000Y-10043400D02*
X8189000Y-10073400D01*
X8578790Y-9303290D02*
X8608790Y-9333290D01*
X8608790Y-9303290D02*
X8578790Y-9333290D01*
X8616600Y-10164350D02*
X8646600Y-10194350D01*
X8646600Y-10164350D02*
X8616600Y-10194350D01*
X8650350Y-8904550D02*
X8680350Y-8934550D01*
X8680350Y-8904550D02*
X8650350Y-8934550D01*
X8689160Y-9148710D02*
X8719160Y-9178710D01*
X8719160Y-9148710D02*
X8689160Y-9178710D01*
X8761800Y-9461390D02*
X8791800Y-9491390D01*
X8791800Y-9461390D02*
X8761800Y-9491390D01*
X8773400Y-10043400D02*
X8803400Y-10073400D01*
X8803400Y-10043400D02*
X8773400Y-10073400D01*
X8879900Y-9746520D02*
X8909900Y-9776520D01*
X8909900Y-9746520D02*
X8879900Y-9776520D01*
X8961731Y-9937480D02*
X8991731Y-9967480D01*
X8991731Y-9937480D02*
X8961731Y-9967480D01*
X9006290Y-10033590D02*
X9036290Y-10063590D01*
X9036290Y-10033590D02*
X9006290Y-10063590D01*
X9025590Y-9270930D02*
X9055590Y-9300930D01*
X9055590Y-9270930D02*
X9025590Y-9300930D01*
X9078160Y-9031650D02*
X9108160Y-9061650D01*
X9108160Y-9031650D02*
X9078160Y-9061650D01*
X9211570Y-10536900D02*
X9241570Y-10566900D01*
X9241570Y-10536900D02*
X9211570Y-10566900D01*
X9234550Y-8904550D02*
X9264550Y-8934550D01*
X9264550Y-8904550D02*
X9234550Y-8934550D01*
X9336600Y-9414450D02*
X9366600Y-9444450D01*
X9366600Y-9414450D02*
X9336600Y-9444450D01*
X9700300Y-9383000D02*
X9730300Y-9413000D01*
X9730300Y-9383000D02*
X9700300Y-9413000D01*
X9700300Y-9535400D02*
X9730300Y-9565400D01*
X9730300Y-9535400D02*
X9700300Y-9565400D01*
X9700300Y-9687800D02*
X9730300Y-9717800D01*
X9730300Y-9687800D02*
X9700300Y-9717800D01*
X9700300Y-9840200D02*
X9730300Y-9870200D01*
X9730300Y-9840200D02*
X9700300Y-9870200D01*
X9700300Y-10145000D02*
X9730300Y-10175000D01*
X9730300Y-10145000D02*
X9700300Y-10175000D01*
X9700300Y-10297400D02*
X9730300Y-10327400D01*
X9730300Y-10297400D02*
X9700300Y-10327400D01*
X9700300Y-10449800D02*
X9730300Y-10479800D01*
X9730300Y-10449800D02*
X9700300Y-10479800D01*
X9700500Y-9992600D02*
X9730500Y-10022600D01*
X9730500Y-9992600D02*
X9700500Y-10022600D01*
X9795850Y-9390730D02*
X9825850Y-9420730D01*
X9825850Y-9390730D02*
X9795850Y-9420730D01*
X9818750Y-8904550D02*
X9848750Y-8934550D01*
X9848750Y-8904550D02*
X9818750Y-8934550D01*
X10048940Y-8734700D02*
X10078940Y-8764700D01*
X10078940Y-8734700D02*
X10048940Y-8764700D01*
X10282930Y-9625810D02*
X10312930Y-9655810D01*
X10312930Y-9625810D02*
X10282930Y-9655810D01*
X10294660Y-10579590D02*
X10324660Y-10609590D01*
X10324660Y-10579590D02*
X10294660Y-10609590D01*
X10403000Y-8904550D02*
X10433000Y-8934550D01*
X10433000Y-8904550D02*
X10403000Y-8934550D01*
X10414620Y-9030230D02*
X10444620Y-9060230D01*
X10444620Y-9030230D02*
X10414620Y-9060230D01*
X10453250Y-9422340D02*
X10483250Y-9452340D01*
X10483250Y-9422340D02*
X10453250Y-9452340D01*
X10576800Y-9349800D02*
X10606800Y-9379800D01*
X10606800Y-9349800D02*
X10576800Y-9379800D01*
X10703800Y-10276900D02*
X10733800Y-10306900D01*
X10733800Y-10276900D02*
X10703800Y-10306900D01*
X10830800Y-9349800D02*
X10860800Y-9379800D01*
X10860800Y-9349800D02*
X10830800Y-9379800D01*
X10830800Y-10276900D02*
X10860800Y-10306900D01*
X10860800Y-10276900D02*
X10830800Y-10306900D01*
X10957800Y-10276900D02*
X10987800Y-10306900D01*
X10987800Y-10276900D02*
X10957800Y-10306900D01*
X10987200Y-8904550D02*
X11017200Y-8934550D01*
X11017200Y-8904550D02*
X10987200Y-8934550D01*
X11084800Y-9349800D02*
X11114800Y-9379800D01*
X11114800Y-9349800D02*
X11084800Y-9379800D01*
X11084800Y-10276900D02*
X11114800Y-10306900D01*
X11114800Y-10276900D02*
X11084800Y-10306900D01*
X11211800Y-10276900D02*
X11241800Y-10306900D01*
X11241800Y-10276900D02*
X11211800Y-10306900D01*
X11226130Y-8734700D02*
X11256130Y-8764700D01*
X11256130Y-8734700D02*
X11226130Y-8764700D01*
X11338800Y-10276900D02*
X11368800Y-10306900D01*
X11368800Y-10276900D02*
X11338800Y-10306900D01*
X11387720Y-9498170D02*
X11417720Y-9528170D01*
X11417720Y-9498170D02*
X11387720Y-9528170D01*
X11465800Y-10276900D02*
X11495800Y-10306900D01*
X11495800Y-10276900D02*
X11465800Y-10306900D01*
X11571400Y-8904550D02*
X11601400Y-8934550D01*
X11601400Y-8904550D02*
X11571400Y-8934550D01*
X11592800Y-9342000D02*
X11622800Y-9372000D01*
X11622800Y-9342000D02*
X11592800Y-9372000D01*
X11592800Y-10276900D02*
X11622800Y-10306900D01*
X11622800Y-10276900D02*
X11592800Y-10306900D01*
X12142900Y-8904550D02*
X12172900Y-8934550D01*
X12172900Y-8904550D02*
X12142900Y-8934550D01*
D13*
X7484200Y-10642600D02*
G75*
G03*
X7484200Y-10642600I-40000J0D01*
G01*
X7484200Y-11404600D02*
G75*
G03*
X7484200Y-11404600I-40000J0D01*
G01*
X7738200Y-10642600D02*
G75*
G03*
X7738200Y-10642600I-40000J0D01*
G01*
X7738200Y-11404600D02*
G75*
G03*
X7738200Y-11404600I-40000J0D01*
G01*
X7992200Y-10642600D02*
G75*
G03*
X7992200Y-10642600I-40000J0D01*
G01*
X7992200Y-11404600D02*
G75*
G03*
X7992200Y-11404600I-40000J0D01*
G01*
X8549000Y-10642600D02*
G75*
G03*
X8549000Y-10642600I-40000J0D01*
G01*
X8549000Y-11404600D02*
G75*
G03*
X8549000Y-11404600I-40000J0D01*
G01*
X8803000Y-10642600D02*
G75*
G03*
X8803000Y-10642600I-40000J0D01*
G01*
X8803000Y-11404600D02*
G75*
G03*
X8803000Y-11404600I-40000J0D01*
G01*
D14*
X7315200Y-8812100D02*
X7315200Y-8912100D01*
X7265200Y-8862100D02*
X7365200Y-8862100D01*
X7315200Y-9066100D02*
X7315200Y-9166100D01*
X7265200Y-9116100D02*
X7365200Y-9116100D01*
X7315200Y-9320100D02*
X7315200Y-9420100D01*
X7265200Y-9370100D02*
X7365200Y-9370100D01*
X7315200Y-9574100D02*
X7315200Y-9674100D01*
X7265200Y-9624100D02*
X7365200Y-9624100D01*
X7315200Y-9828100D02*
X7315200Y-9928100D01*
X7265200Y-9878100D02*
X7365200Y-9878100D01*
X7315200Y-10082100D02*
X7315200Y-10182100D01*
X7265200Y-10132100D02*
X7365200Y-10132100D01*
X9880600Y-11537570D02*
X9880600Y-11637570D01*
X9830600Y-11587570D02*
X9930600Y-11587570D01*
X10134600Y-11537570D02*
X10134600Y-11637570D01*
X10084600Y-11587570D02*
X10184600Y-11587570D01*
X10388600Y-11537570D02*
X10388600Y-11637570D01*
X10338600Y-11587570D02*
X10438600Y-11587570D01*
X10642600Y-11537570D02*
X10642600Y-11637570D01*
X10592600Y-11587570D02*
X10692600Y-11587570D01*
X10896600Y-11537570D02*
X10896600Y-11637570D01*
X10846600Y-11587570D02*
X10946600Y-11587570D01*
X11150600Y-11537570D02*
X11150600Y-11637570D01*
X11100600Y-11587570D02*
X11200600Y-11587570D01*
X11404600Y-11537570D02*
X11404600Y-11637570D01*
X11354600Y-11587570D02*
X11454600Y-11587570D01*
X11658600Y-11537570D02*
X11658600Y-11637570D01*
X11608600Y-11587570D02*
X11708600Y-11587570D01*
X11912600Y-11537570D02*
X11912600Y-11637570D01*
X11862600Y-11587570D02*
X11962600Y-11587570D01*
X12166600Y-11537570D02*
X12166600Y-11637570D01*
X12116600Y-11587570D02*
X12216600Y-11587570D01*
X12819600Y-8812100D02*
X12819600Y-8912100D01*
X12769600Y-8862100D02*
X12869600Y-8862100D01*
X12819600Y-9066100D02*
X12819600Y-9166100D01*
X12769600Y-9116100D02*
X12869600Y-9116100D01*
X12819600Y-9320100D02*
X12819600Y-9420100D01*
X12769600Y-9370100D02*
X12869600Y-9370100D01*
X12819600Y-9574100D02*
X12819600Y-9674100D01*
X12769600Y-9624100D02*
X12869600Y-9624100D01*
X12819600Y-9828100D02*
X12819600Y-9928100D01*
X12769600Y-9878100D02*
X12869600Y-9878100D01*
X12819600Y-10082100D02*
X12819600Y-10182100D01*
X12769600Y-10132100D02*
X12869600Y-10132100D01*
D15*
X8181741Y-12448941D02*
X8181741Y-12341459D01*
X8074259Y-12341459D01*
X8074259Y-12448941D01*
X8181741Y-12448941D01*
X8207141Y-6860941D02*
X8207141Y-6753459D01*
X8099659Y-6753459D01*
X8099659Y-6860941D01*
X8207141Y-6860941D01*
X8689741Y-12448941D02*
X8689741Y-12341459D01*
X8582259Y-12341459D01*
X8582259Y-12448941D01*
X8689741Y-12448941D01*
X8715141Y-6860941D02*
X8715141Y-6753459D01*
X8607659Y-6753459D01*
X8607659Y-6860941D01*
X8715141Y-6860941D01*
X9197741Y-12448941D02*
X9197741Y-12341459D01*
X9090259Y-12341459D01*
X9090259Y-12448941D01*
X9197741Y-12448941D01*
X9223141Y-6860941D02*
X9223141Y-6753459D01*
X9115659Y-6753459D01*
X9115659Y-6860941D01*
X9223141Y-6860941D01*
X9705741Y-12448941D02*
X9705741Y-12341459D01*
X9598259Y-12341459D01*
X9598259Y-12448941D01*
X9705741Y-12448941D01*
X9731141Y-6860941D02*
X9731141Y-6753459D01*
X9623659Y-6753459D01*
X9623659Y-6860941D01*
X9731141Y-6860941D01*
X10213741Y-12448941D02*
X10213741Y-12341459D01*
X10106259Y-12341459D01*
X10106259Y-12448941D01*
X10213741Y-12448941D01*
X10239141Y-6860941D02*
X10239141Y-6753459D01*
X10131659Y-6753459D01*
X10131659Y-6860941D01*
X10239141Y-6860941D01*
X10721741Y-12448941D02*
X10721741Y-12341459D01*
X10614259Y-12341459D01*
X10614259Y-12448941D01*
X10721741Y-12448941D01*
X10747141Y-6860941D02*
X10747141Y-6753459D01*
X10639659Y-6753459D01*
X10639659Y-6860941D01*
X10747141Y-6860941D01*
X11229741Y-12448941D02*
X11229741Y-12341459D01*
X11122259Y-12341459D01*
X11122259Y-12448941D01*
X11229741Y-12448941D01*
X11255141Y-6860941D02*
X11255141Y-6753459D01*
X11147659Y-6753459D01*
X11147659Y-6860941D01*
X11255141Y-6860941D01*
X11737741Y-12448941D02*
X11737741Y-12341459D01*
X11630259Y-12341459D01*
X11630259Y-12448941D01*
X11737741Y-12448941D01*
X11763141Y-6860941D02*
X11763141Y-6753459D01*
X11655659Y-6753459D01*
X11655659Y-6860941D01*
X11763141Y-6860941D01*
X12245741Y-12448941D02*
X12245741Y-12341459D01*
X12138259Y-12341459D01*
X12138259Y-12448941D01*
X12245741Y-12448941D01*
X12271141Y-6860941D02*
X12271141Y-6753459D01*
X12163659Y-6753459D01*
X12163659Y-6860941D01*
X12271141Y-6860941D01*
X12753741Y-12448941D02*
X12753741Y-12341459D01*
X12646259Y-12341459D01*
X12646259Y-12448941D01*
X12753741Y-12448941D01*
X12779141Y-6860941D02*
X12779141Y-6753459D01*
X12671659Y-6753459D01*
X12671659Y-6860941D01*
X12779141Y-6860941D01*
D16*
X7315200Y-6535400D02*
X7475200Y-6375400D01*
X7315200Y-6215400D01*
X7155200Y-6375400D01*
X7315200Y-6535400D01*
X7315200Y-12987000D02*
X7475200Y-12827000D01*
X7315200Y-12667000D01*
X7155200Y-12827000D01*
X7315200Y-12987000D01*
X13563600Y-6535400D02*
X13723600Y-6375400D01*
X13563600Y-6215400D01*
X13403600Y-6375400D01*
X13563600Y-6535400D01*
X13563600Y-12987000D02*
X13723600Y-12827000D01*
X13563600Y-12667000D01*
X13403600Y-12827000D01*
X13563600Y-12987000D01*
D11*
X7209719Y-13500576D02*
X7209719Y-13300576D01*
X7257338Y-13300576D01*
X7285909Y-13310100D01*
X7304957Y-13329148D01*
X7314481Y-13348195D01*
X7324005Y-13386290D01*
X7324005Y-13414862D01*
X7314481Y-13452957D01*
X7304957Y-13472005D01*
X7285909Y-13491052D01*
X7257338Y-13500576D01*
X7209719Y-13500576D01*
X7409719Y-13500576D02*
X7409719Y-13367243D01*
X7409719Y-13405338D02*
X7419243Y-13386290D01*
X7428767Y-13376767D01*
X7447814Y-13367243D01*
X7466862Y-13367243D01*
X7533528Y-13500576D02*
X7533528Y-13367243D01*
X7533528Y-13300576D02*
X7524005Y-13310100D01*
X7533528Y-13319624D01*
X7543052Y-13310100D01*
X7533528Y-13300576D01*
X7533528Y-13319624D01*
X7657338Y-13500576D02*
X7638290Y-13491052D01*
X7628767Y-13472005D01*
X7628767Y-13300576D01*
X7762100Y-13500576D02*
X7743052Y-13491052D01*
X7733528Y-13472005D01*
X7733528Y-13300576D01*
X7990671Y-13500576D02*
X7990671Y-13300576D01*
X8057338Y-13443433D01*
X8124005Y-13300576D01*
X8124005Y-13500576D01*
X8304957Y-13500576D02*
X8304957Y-13395814D01*
X8295433Y-13376767D01*
X8276386Y-13367243D01*
X8238290Y-13367243D01*
X8219243Y-13376767D01*
X8304957Y-13491052D02*
X8285909Y-13500576D01*
X8238290Y-13500576D01*
X8219243Y-13491052D01*
X8209719Y-13472005D01*
X8209719Y-13452957D01*
X8219243Y-13433909D01*
X8238290Y-13424386D01*
X8285909Y-13424386D01*
X8304957Y-13414862D01*
X8400195Y-13367243D02*
X8400195Y-13567243D01*
X8400195Y-13376767D02*
X8419243Y-13367243D01*
X8457338Y-13367243D01*
X8476386Y-13376767D01*
X8485910Y-13386290D01*
X8495433Y-13405338D01*
X8495433Y-13462481D01*
X8485910Y-13481528D01*
X8476386Y-13491052D01*
X8457338Y-13500576D01*
X8419243Y-13500576D01*
X8400195Y-13491052D01*
X8581148Y-13481528D02*
X8590671Y-13491052D01*
X8581148Y-13500576D01*
X8571624Y-13491052D01*
X8581148Y-13481528D01*
X8581148Y-13500576D01*
X8581148Y-13376767D02*
X8590671Y-13386290D01*
X8581148Y-13395814D01*
X8571624Y-13386290D01*
X8581148Y-13376767D01*
X8581148Y-13395814D01*
D12*
X6922100Y-13815100D02*
X6952100Y-13845100D01*
X6952100Y-13815100D02*
X6922100Y-13845100D01*
D11*
X7247814Y-13720576D02*
X7266862Y-13720576D01*
X7285909Y-13730100D01*
X7295433Y-13739624D01*
X7304957Y-13758671D01*
X7314481Y-13796767D01*
X7314481Y-13844386D01*
X7304957Y-13882481D01*
X7295433Y-13901528D01*
X7285909Y-13911052D01*
X7266862Y-13920576D01*
X7247814Y-13920576D01*
X7228767Y-13911052D01*
X7219243Y-13901528D01*
X7209719Y-13882481D01*
X7200195Y-13844386D01*
X7200195Y-13796767D01*
X7209719Y-13758671D01*
X7219243Y-13739624D01*
X7228767Y-13730100D01*
X7247814Y-13720576D01*
X7400195Y-13901528D02*
X7409719Y-13911052D01*
X7400195Y-13920576D01*
X7390671Y-13911052D01*
X7400195Y-13901528D01*
X7400195Y-13920576D01*
X7476386Y-13720576D02*
X7600195Y-13720576D01*
X7533528Y-13796767D01*
X7562100Y-13796767D01*
X7581148Y-13806290D01*
X7590671Y-13815814D01*
X7600195Y-13834862D01*
X7600195Y-13882481D01*
X7590671Y-13901528D01*
X7581148Y-13911052D01*
X7562100Y-13920576D01*
X7504957Y-13920576D01*
X7485909Y-13911052D01*
X7476386Y-13901528D01*
X7724005Y-13720576D02*
X7743052Y-13720576D01*
X7762100Y-13730100D01*
X7771624Y-13739624D01*
X7781148Y-13758671D01*
X7790671Y-13796767D01*
X7790671Y-13844386D01*
X7781148Y-13882481D01*
X7771624Y-13901528D01*
X7762100Y-13911052D01*
X7743052Y-13920576D01*
X7724005Y-13920576D01*
X7704957Y-13911052D01*
X7695433Y-13901528D01*
X7685909Y-13882481D01*
X7676386Y-13844386D01*
X7676386Y-13796767D01*
X7685909Y-13758671D01*
X7695433Y-13739624D01*
X7704957Y-13730100D01*
X7724005Y-13720576D01*
X7914481Y-13720576D02*
X7933528Y-13720576D01*
X7952576Y-13730100D01*
X7962100Y-13739624D01*
X7971624Y-13758671D01*
X7981148Y-13796767D01*
X7981148Y-13844386D01*
X7971624Y-13882481D01*
X7962100Y-13901528D01*
X7952576Y-13911052D01*
X7933528Y-13920576D01*
X7914481Y-13920576D01*
X7895433Y-13911052D01*
X7885909Y-13901528D01*
X7876386Y-13882481D01*
X7866862Y-13844386D01*
X7866862Y-13796767D01*
X7876386Y-13758671D01*
X7885909Y-13739624D01*
X7895433Y-13730100D01*
X7914481Y-13720576D01*
X8066862Y-13920576D02*
X8066862Y-13787243D01*
X8066862Y-13806290D02*
X8076386Y-13796767D01*
X8095433Y-13787243D01*
X8124005Y-13787243D01*
X8143052Y-13796767D01*
X8152576Y-13815814D01*
X8152576Y-13920576D01*
X8152576Y-13815814D02*
X8162100Y-13796767D01*
X8181148Y-13787243D01*
X8209719Y-13787243D01*
X8228767Y-13796767D01*
X8238290Y-13815814D01*
X8238290Y-13920576D01*
X8333528Y-13920576D02*
X8333528Y-13787243D01*
X8333528Y-13806290D02*
X8343052Y-13796767D01*
X8362100Y-13787243D01*
X8390671Y-13787243D01*
X8409719Y-13796767D01*
X8419243Y-13815814D01*
X8419243Y-13920576D01*
X8419243Y-13815814D02*
X8428767Y-13796767D01*
X8447814Y-13787243D01*
X8476386Y-13787243D01*
X8495433Y-13796767D01*
X8504957Y-13815814D01*
X8504957Y-13920576D01*
X8895433Y-13711052D02*
X8724005Y-13968195D01*
X9152576Y-13720576D02*
X9171624Y-13720576D01*
X9190671Y-13730100D01*
X9200195Y-13739624D01*
X9209719Y-13758671D01*
X9219243Y-13796767D01*
X9219243Y-13844386D01*
X9209719Y-13882481D01*
X9200195Y-13901528D01*
X9190671Y-13911052D01*
X9171624Y-13920576D01*
X9152576Y-13920576D01*
X9133529Y-13911052D01*
X9124005Y-13901528D01*
X9114481Y-13882481D01*
X9104957Y-13844386D01*
X9104957Y-13796767D01*
X9114481Y-13758671D01*
X9124005Y-13739624D01*
X9133529Y-13730100D01*
X9152576Y-13720576D01*
X9304957Y-13901528D02*
X9314481Y-13911052D01*
X9304957Y-13920576D01*
X9295433Y-13911052D01*
X9304957Y-13901528D01*
X9304957Y-13920576D01*
X9438290Y-13720576D02*
X9457338Y-13720576D01*
X9476386Y-13730100D01*
X9485910Y-13739624D01*
X9495433Y-13758671D01*
X9504957Y-13796767D01*
X9504957Y-13844386D01*
X9495433Y-13882481D01*
X9485910Y-13901528D01*
X9476386Y-13911052D01*
X9457338Y-13920576D01*
X9438290Y-13920576D01*
X9419243Y-13911052D01*
X9409719Y-13901528D01*
X9400195Y-13882481D01*
X9390671Y-13844386D01*
X9390671Y-13796767D01*
X9400195Y-13758671D01*
X9409719Y-13739624D01*
X9419243Y-13730100D01*
X9438290Y-13720576D01*
X9695433Y-13920576D02*
X9581148Y-13920576D01*
X9638290Y-13920576D02*
X9638290Y-13720576D01*
X9619243Y-13749148D01*
X9600195Y-13768195D01*
X9581148Y-13777719D01*
X9885910Y-13920576D02*
X9771624Y-13920576D01*
X9828767Y-13920576D02*
X9828767Y-13720576D01*
X9809719Y-13749148D01*
X9790671Y-13768195D01*
X9771624Y-13777719D01*
X10000195Y-13806290D02*
X9981148Y-13796767D01*
X9971624Y-13787243D01*
X9962100Y-13768195D01*
X9962100Y-13758671D01*
X9971624Y-13739624D01*
X9981148Y-13730100D01*
X10000195Y-13720576D01*
X10038290Y-13720576D01*
X10057338Y-13730100D01*
X10066862Y-13739624D01*
X10076386Y-13758671D01*
X10076386Y-13768195D01*
X10066862Y-13787243D01*
X10057338Y-13796767D01*
X10038290Y-13806290D01*
X10000195Y-13806290D01*
X9981148Y-13815814D01*
X9971624Y-13825338D01*
X9962100Y-13844386D01*
X9962100Y-13882481D01*
X9971624Y-13901528D01*
X9981148Y-13911052D01*
X10000195Y-13920576D01*
X10038290Y-13920576D01*
X10057338Y-13911052D01*
X10066862Y-13901528D01*
X10076386Y-13882481D01*
X10076386Y-13844386D01*
X10066862Y-13825338D01*
X10057338Y-13815814D01*
X10038290Y-13806290D01*
X10152576Y-13720576D02*
X10152576Y-13758671D01*
X10228767Y-13720576D02*
X10228767Y-13758671D01*
X10524005Y-13996767D02*
X10514481Y-13987243D01*
X10495433Y-13958671D01*
X10485910Y-13939624D01*
X10476386Y-13911052D01*
X10466862Y-13863433D01*
X10466862Y-13825338D01*
X10476386Y-13777719D01*
X10485910Y-13749148D01*
X10495433Y-13730100D01*
X10514481Y-13701528D01*
X10524005Y-13692005D01*
X10695433Y-13720576D02*
X10600195Y-13720576D01*
X10590671Y-13815814D01*
X10600195Y-13806290D01*
X10619243Y-13796767D01*
X10666862Y-13796767D01*
X10685910Y-13806290D01*
X10695433Y-13815814D01*
X10704957Y-13834862D01*
X10704957Y-13882481D01*
X10695433Y-13901528D01*
X10685910Y-13911052D01*
X10666862Y-13920576D01*
X10619243Y-13920576D01*
X10600195Y-13911052D01*
X10590671Y-13901528D01*
X10885910Y-13720576D02*
X10790671Y-13720576D01*
X10781148Y-13815814D01*
X10790671Y-13806290D01*
X10809719Y-13796767D01*
X10857338Y-13796767D01*
X10876386Y-13806290D01*
X10885910Y-13815814D01*
X10895433Y-13834862D01*
X10895433Y-13882481D01*
X10885910Y-13901528D01*
X10876386Y-13911052D01*
X10857338Y-13920576D01*
X10809719Y-13920576D01*
X10790671Y-13911052D01*
X10781148Y-13901528D01*
X11133529Y-13920576D02*
X11133529Y-13720576D01*
X11219243Y-13920576D02*
X11219243Y-13815814D01*
X11209719Y-13796767D01*
X11190671Y-13787243D01*
X11162100Y-13787243D01*
X11143052Y-13796767D01*
X11133529Y-13806290D01*
X11343052Y-13920576D02*
X11324005Y-13911052D01*
X11314481Y-13901528D01*
X11304957Y-13882481D01*
X11304957Y-13825338D01*
X11314481Y-13806290D01*
X11324005Y-13796767D01*
X11343052Y-13787243D01*
X11371624Y-13787243D01*
X11390671Y-13796767D01*
X11400195Y-13806290D01*
X11409719Y-13825338D01*
X11409719Y-13882481D01*
X11400195Y-13901528D01*
X11390671Y-13911052D01*
X11371624Y-13920576D01*
X11343052Y-13920576D01*
X11524005Y-13920576D02*
X11504957Y-13911052D01*
X11495433Y-13892005D01*
X11495433Y-13720576D01*
X11676386Y-13911052D02*
X11657338Y-13920576D01*
X11619243Y-13920576D01*
X11600195Y-13911052D01*
X11590671Y-13892005D01*
X11590671Y-13815814D01*
X11600195Y-13796767D01*
X11619243Y-13787243D01*
X11657338Y-13787243D01*
X11676386Y-13796767D01*
X11685909Y-13815814D01*
X11685909Y-13834862D01*
X11590671Y-13853909D01*
X11762100Y-13911052D02*
X11781148Y-13920576D01*
X11819243Y-13920576D01*
X11838290Y-13911052D01*
X11847814Y-13892005D01*
X11847814Y-13882481D01*
X11838290Y-13863433D01*
X11819243Y-13853909D01*
X11790671Y-13853909D01*
X11771624Y-13844386D01*
X11762100Y-13825338D01*
X11762100Y-13815814D01*
X11771624Y-13796767D01*
X11790671Y-13787243D01*
X11819243Y-13787243D01*
X11838290Y-13796767D01*
X11914481Y-13996767D02*
X11924005Y-13987243D01*
X11943052Y-13958671D01*
X11952576Y-13939624D01*
X11962100Y-13911052D01*
X11971624Y-13863433D01*
X11971624Y-13825338D01*
X11962100Y-13777719D01*
X11952576Y-13749148D01*
X11943052Y-13730100D01*
X11924005Y-13701528D01*
X11914481Y-13692005D01*
D13*
X6952100Y-14094100D02*
G75*
G03*
X6952100Y-14094100I-40000J0D01*
G01*
D11*
X7247814Y-13984576D02*
X7266862Y-13984576D01*
X7285909Y-13994100D01*
X7295433Y-14003624D01*
X7304957Y-14022671D01*
X7314481Y-14060767D01*
X7314481Y-14108386D01*
X7304957Y-14146481D01*
X7295433Y-14165528D01*
X7285909Y-14175052D01*
X7266862Y-14184576D01*
X7247814Y-14184576D01*
X7228767Y-14175052D01*
X7219243Y-14165528D01*
X7209719Y-14146481D01*
X7200195Y-14108386D01*
X7200195Y-14060767D01*
X7209719Y-14022671D01*
X7219243Y-14003624D01*
X7228767Y-13994100D01*
X7247814Y-13984576D01*
X7400195Y-14165528D02*
X7409719Y-14175052D01*
X7400195Y-14184576D01*
X7390671Y-14175052D01*
X7400195Y-14165528D01*
X7400195Y-14184576D01*
X7524005Y-14070290D02*
X7504957Y-14060767D01*
X7495433Y-14051243D01*
X7485909Y-14032195D01*
X7485909Y-14022671D01*
X7495433Y-14003624D01*
X7504957Y-13994100D01*
X7524005Y-13984576D01*
X7562100Y-13984576D01*
X7581148Y-13994100D01*
X7590671Y-14003624D01*
X7600195Y-14022671D01*
X7600195Y-14032195D01*
X7590671Y-14051243D01*
X7581148Y-14060767D01*
X7562100Y-14070290D01*
X7524005Y-14070290D01*
X7504957Y-14079814D01*
X7495433Y-14089338D01*
X7485909Y-14108386D01*
X7485909Y-14146481D01*
X7495433Y-14165528D01*
X7504957Y-14175052D01*
X7524005Y-14184576D01*
X7562100Y-14184576D01*
X7581148Y-14175052D01*
X7590671Y-14165528D01*
X7600195Y-14146481D01*
X7600195Y-14108386D01*
X7590671Y-14089338D01*
X7581148Y-14079814D01*
X7562100Y-14070290D01*
X7724005Y-13984576D02*
X7743052Y-13984576D01*
X7762100Y-13994100D01*
X7771624Y-14003624D01*
X7781148Y-14022671D01*
X7790671Y-14060767D01*
X7790671Y-14108386D01*
X7781148Y-14146481D01*
X7771624Y-14165528D01*
X7762100Y-14175052D01*
X7743052Y-14184576D01*
X7724005Y-14184576D01*
X7704957Y-14175052D01*
X7695433Y-14165528D01*
X7685909Y-14146481D01*
X7676386Y-14108386D01*
X7676386Y-14060767D01*
X7685909Y-14022671D01*
X7695433Y-14003624D01*
X7704957Y-13994100D01*
X7724005Y-13984576D01*
X7914481Y-13984576D02*
X7933528Y-13984576D01*
X7952576Y-13994100D01*
X7962100Y-14003624D01*
X7971624Y-14022671D01*
X7981148Y-14060767D01*
X7981148Y-14108386D01*
X7971624Y-14146481D01*
X7962100Y-14165528D01*
X7952576Y-14175052D01*
X7933528Y-14184576D01*
X7914481Y-14184576D01*
X7895433Y-14175052D01*
X7885909Y-14165528D01*
X7876386Y-14146481D01*
X7866862Y-14108386D01*
X7866862Y-14060767D01*
X7876386Y-14022671D01*
X7885909Y-14003624D01*
X7895433Y-13994100D01*
X7914481Y-13984576D01*
X8066862Y-14184576D02*
X8066862Y-14051243D01*
X8066862Y-14070290D02*
X8076386Y-14060767D01*
X8095433Y-14051243D01*
X8124005Y-14051243D01*
X8143052Y-14060767D01*
X8152576Y-14079814D01*
X8152576Y-14184576D01*
X8152576Y-14079814D02*
X8162100Y-14060767D01*
X8181148Y-14051243D01*
X8209719Y-14051243D01*
X8228767Y-14060767D01*
X8238290Y-14079814D01*
X8238290Y-14184576D01*
X8333528Y-14184576D02*
X8333528Y-14051243D01*
X8333528Y-14070290D02*
X8343052Y-14060767D01*
X8362100Y-14051243D01*
X8390671Y-14051243D01*
X8409719Y-14060767D01*
X8419243Y-14079814D01*
X8419243Y-14184576D01*
X8419243Y-14079814D02*
X8428767Y-14060767D01*
X8447814Y-14051243D01*
X8476386Y-14051243D01*
X8495433Y-14060767D01*
X8504957Y-14079814D01*
X8504957Y-14184576D01*
X8895433Y-13975052D02*
X8724005Y-14232195D01*
X9152576Y-13984576D02*
X9171624Y-13984576D01*
X9190671Y-13994100D01*
X9200195Y-14003624D01*
X9209719Y-14022671D01*
X9219243Y-14060767D01*
X9219243Y-14108386D01*
X9209719Y-14146481D01*
X9200195Y-14165528D01*
X9190671Y-14175052D01*
X9171624Y-14184576D01*
X9152576Y-14184576D01*
X9133529Y-14175052D01*
X9124005Y-14165528D01*
X9114481Y-14146481D01*
X9104957Y-14108386D01*
X9104957Y-14060767D01*
X9114481Y-14022671D01*
X9124005Y-14003624D01*
X9133529Y-13994100D01*
X9152576Y-13984576D01*
X9304957Y-14165528D02*
X9314481Y-14175052D01*
X9304957Y-14184576D01*
X9295433Y-14175052D01*
X9304957Y-14165528D01*
X9304957Y-14184576D01*
X9438290Y-13984576D02*
X9457338Y-13984576D01*
X9476386Y-13994100D01*
X9485910Y-14003624D01*
X9495433Y-14022671D01*
X9504957Y-14060767D01*
X9504957Y-14108386D01*
X9495433Y-14146481D01*
X9485910Y-14165528D01*
X9476386Y-14175052D01*
X9457338Y-14184576D01*
X9438290Y-14184576D01*
X9419243Y-14175052D01*
X9409719Y-14165528D01*
X9400195Y-14146481D01*
X9390671Y-14108386D01*
X9390671Y-14060767D01*
X9400195Y-14022671D01*
X9409719Y-14003624D01*
X9419243Y-13994100D01*
X9438290Y-13984576D01*
X9571624Y-13984576D02*
X9695433Y-13984576D01*
X9628767Y-14060767D01*
X9657338Y-14060767D01*
X9676386Y-14070290D01*
X9685910Y-14079814D01*
X9695433Y-14098862D01*
X9695433Y-14146481D01*
X9685910Y-14165528D01*
X9676386Y-14175052D01*
X9657338Y-14184576D01*
X9600195Y-14184576D01*
X9581148Y-14175052D01*
X9571624Y-14165528D01*
X9885910Y-14184576D02*
X9771624Y-14184576D01*
X9828767Y-14184576D02*
X9828767Y-13984576D01*
X9809719Y-14013148D01*
X9790671Y-14032195D01*
X9771624Y-14041719D01*
X10066862Y-13984576D02*
X9971624Y-13984576D01*
X9962100Y-14079814D01*
X9971624Y-14070290D01*
X9990671Y-14060767D01*
X10038290Y-14060767D01*
X10057338Y-14070290D01*
X10066862Y-14079814D01*
X10076386Y-14098862D01*
X10076386Y-14146481D01*
X10066862Y-14165528D01*
X10057338Y-14175052D01*
X10038290Y-14184576D01*
X9990671Y-14184576D01*
X9971624Y-14175052D01*
X9962100Y-14165528D01*
X10152576Y-13984576D02*
X10152576Y-14022671D01*
X10228767Y-13984576D02*
X10228767Y-14022671D01*
X10524005Y-14260767D02*
X10514481Y-14251243D01*
X10495433Y-14222671D01*
X10485910Y-14203624D01*
X10476386Y-14175052D01*
X10466862Y-14127433D01*
X10466862Y-14089338D01*
X10476386Y-14041719D01*
X10485910Y-14013148D01*
X10495433Y-13994100D01*
X10514481Y-13965528D01*
X10524005Y-13956005D01*
X10704957Y-14184576D02*
X10590671Y-14184576D01*
X10647814Y-14184576D02*
X10647814Y-13984576D01*
X10628767Y-14013148D01*
X10609719Y-14032195D01*
X10590671Y-14041719D01*
X10828767Y-13984576D02*
X10847814Y-13984576D01*
X10866862Y-13994100D01*
X10876386Y-14003624D01*
X10885910Y-14022671D01*
X10895433Y-14060767D01*
X10895433Y-14108386D01*
X10885910Y-14146481D01*
X10876386Y-14165528D01*
X10866862Y-14175052D01*
X10847814Y-14184576D01*
X10828767Y-14184576D01*
X10809719Y-14175052D01*
X10800195Y-14165528D01*
X10790671Y-14146481D01*
X10781148Y-14108386D01*
X10781148Y-14060767D01*
X10790671Y-14022671D01*
X10800195Y-14003624D01*
X10809719Y-13994100D01*
X10828767Y-13984576D01*
X11133529Y-14184576D02*
X11133529Y-13984576D01*
X11219243Y-14184576D02*
X11219243Y-14079814D01*
X11209719Y-14060767D01*
X11190671Y-14051243D01*
X11162100Y-14051243D01*
X11143052Y-14060767D01*
X11133529Y-14070290D01*
X11343052Y-14184576D02*
X11324005Y-14175052D01*
X11314481Y-14165528D01*
X11304957Y-14146481D01*
X11304957Y-14089338D01*
X11314481Y-14070290D01*
X11324005Y-14060767D01*
X11343052Y-14051243D01*
X11371624Y-14051243D01*
X11390671Y-14060767D01*
X11400195Y-14070290D01*
X11409719Y-14089338D01*
X11409719Y-14146481D01*
X11400195Y-14165528D01*
X11390671Y-14175052D01*
X11371624Y-14184576D01*
X11343052Y-14184576D01*
X11524005Y-14184576D02*
X11504957Y-14175052D01*
X11495433Y-14156005D01*
X11495433Y-13984576D01*
X11676386Y-14175052D02*
X11657338Y-14184576D01*
X11619243Y-14184576D01*
X11600195Y-14175052D01*
X11590671Y-14156005D01*
X11590671Y-14079814D01*
X11600195Y-14060767D01*
X11619243Y-14051243D01*
X11657338Y-14051243D01*
X11676386Y-14060767D01*
X11685909Y-14079814D01*
X11685909Y-14098862D01*
X11590671Y-14117909D01*
X11762100Y-14175052D02*
X11781148Y-14184576D01*
X11819243Y-14184576D01*
X11838290Y-14175052D01*
X11847814Y-14156005D01*
X11847814Y-14146481D01*
X11838290Y-14127433D01*
X11819243Y-14117909D01*
X11790671Y-14117909D01*
X11771624Y-14108386D01*
X11762100Y-14089338D01*
X11762100Y-14079814D01*
X11771624Y-14060767D01*
X11790671Y-14051243D01*
X11819243Y-14051243D01*
X11838290Y-14060767D01*
X11914481Y-14260767D02*
X11924005Y-14251243D01*
X11943052Y-14222671D01*
X11952576Y-14203624D01*
X11962100Y-14175052D01*
X11971624Y-14127433D01*
X11971624Y-14089338D01*
X11962100Y-14041719D01*
X11952576Y-14013148D01*
X11943052Y-13994100D01*
X11924005Y-13965528D01*
X11914481Y-13956005D01*
D14*
X6902100Y-14308100D02*
X6902100Y-14408100D01*
X6852100Y-14358100D02*
X6952100Y-14358100D01*
D11*
X7314481Y-14448576D02*
X7200195Y-14448576D01*
X7257338Y-14448576D02*
X7257338Y-14248576D01*
X7238290Y-14277148D01*
X7219243Y-14296195D01*
X7200195Y-14305719D01*
X7400195Y-14429528D02*
X7409719Y-14439052D01*
X7400195Y-14448576D01*
X7390671Y-14439052D01*
X7400195Y-14429528D01*
X7400195Y-14448576D01*
X7533528Y-14248576D02*
X7552576Y-14248576D01*
X7571624Y-14258100D01*
X7581148Y-14267624D01*
X7590671Y-14286671D01*
X7600195Y-14324767D01*
X7600195Y-14372386D01*
X7590671Y-14410481D01*
X7581148Y-14429528D01*
X7571624Y-14439052D01*
X7552576Y-14448576D01*
X7533528Y-14448576D01*
X7514481Y-14439052D01*
X7504957Y-14429528D01*
X7495433Y-14410481D01*
X7485909Y-14372386D01*
X7485909Y-14324767D01*
X7495433Y-14286671D01*
X7504957Y-14267624D01*
X7514481Y-14258100D01*
X7533528Y-14248576D01*
X7724005Y-14248576D02*
X7743052Y-14248576D01*
X7762100Y-14258100D01*
X7771624Y-14267624D01*
X7781148Y-14286671D01*
X7790671Y-14324767D01*
X7790671Y-14372386D01*
X7781148Y-14410481D01*
X7771624Y-14429528D01*
X7762100Y-14439052D01*
X7743052Y-14448576D01*
X7724005Y-14448576D01*
X7704957Y-14439052D01*
X7695433Y-14429528D01*
X7685909Y-14410481D01*
X7676386Y-14372386D01*
X7676386Y-14324767D01*
X7685909Y-14286671D01*
X7695433Y-14267624D01*
X7704957Y-14258100D01*
X7724005Y-14248576D01*
X7914481Y-14248576D02*
X7933528Y-14248576D01*
X7952576Y-14258100D01*
X7962100Y-14267624D01*
X7971624Y-14286671D01*
X7981148Y-14324767D01*
X7981148Y-14372386D01*
X7971624Y-14410481D01*
X7962100Y-14429528D01*
X7952576Y-14439052D01*
X7933528Y-14448576D01*
X7914481Y-14448576D01*
X7895433Y-14439052D01*
X7885909Y-14429528D01*
X7876386Y-14410481D01*
X7866862Y-14372386D01*
X7866862Y-14324767D01*
X7876386Y-14286671D01*
X7885909Y-14267624D01*
X7895433Y-14258100D01*
X7914481Y-14248576D01*
X8066862Y-14448576D02*
X8066862Y-14315243D01*
X8066862Y-14334290D02*
X8076386Y-14324767D01*
X8095433Y-14315243D01*
X8124005Y-14315243D01*
X8143052Y-14324767D01*
X8152576Y-14343814D01*
X8152576Y-14448576D01*
X8152576Y-14343814D02*
X8162100Y-14324767D01*
X8181148Y-14315243D01*
X8209719Y-14315243D01*
X8228767Y-14324767D01*
X8238290Y-14343814D01*
X8238290Y-14448576D01*
X8333528Y-14448576D02*
X8333528Y-14315243D01*
X8333528Y-14334290D02*
X8343052Y-14324767D01*
X8362100Y-14315243D01*
X8390671Y-14315243D01*
X8409719Y-14324767D01*
X8419243Y-14343814D01*
X8419243Y-14448576D01*
X8419243Y-14343814D02*
X8428767Y-14324767D01*
X8447814Y-14315243D01*
X8476386Y-14315243D01*
X8495433Y-14324767D01*
X8504957Y-14343814D01*
X8504957Y-14448576D01*
X8895433Y-14239052D02*
X8724005Y-14496195D01*
X9152576Y-14248576D02*
X9171624Y-14248576D01*
X9190671Y-14258100D01*
X9200195Y-14267624D01*
X9209719Y-14286671D01*
X9219243Y-14324767D01*
X9219243Y-14372386D01*
X9209719Y-14410481D01*
X9200195Y-14429528D01*
X9190671Y-14439052D01*
X9171624Y-14448576D01*
X9152576Y-14448576D01*
X9133529Y-14439052D01*
X9124005Y-14429528D01*
X9114481Y-14410481D01*
X9104957Y-14372386D01*
X9104957Y-14324767D01*
X9114481Y-14286671D01*
X9124005Y-14267624D01*
X9133529Y-14258100D01*
X9152576Y-14248576D01*
X9304957Y-14429528D02*
X9314481Y-14439052D01*
X9304957Y-14448576D01*
X9295433Y-14439052D01*
X9304957Y-14429528D01*
X9304957Y-14448576D01*
X9438290Y-14248576D02*
X9457338Y-14248576D01*
X9476386Y-14258100D01*
X9485910Y-14267624D01*
X9495433Y-14286671D01*
X9504957Y-14324767D01*
X9504957Y-14372386D01*
X9495433Y-14410481D01*
X9485910Y-14429528D01*
X9476386Y-14439052D01*
X9457338Y-14448576D01*
X9438290Y-14448576D01*
X9419243Y-14439052D01*
X9409719Y-14429528D01*
X9400195Y-14410481D01*
X9390671Y-14372386D01*
X9390671Y-14324767D01*
X9400195Y-14286671D01*
X9409719Y-14267624D01*
X9419243Y-14258100D01*
X9438290Y-14248576D01*
X9571624Y-14248576D02*
X9695433Y-14248576D01*
X9628767Y-14324767D01*
X9657338Y-14324767D01*
X9676386Y-14334290D01*
X9685910Y-14343814D01*
X9695433Y-14362862D01*
X9695433Y-14410481D01*
X9685910Y-14429528D01*
X9676386Y-14439052D01*
X9657338Y-14448576D01*
X9600195Y-14448576D01*
X9581148Y-14439052D01*
X9571624Y-14429528D01*
X9790671Y-14448576D02*
X9828767Y-14448576D01*
X9847814Y-14439052D01*
X9857338Y-14429528D01*
X9876386Y-14400957D01*
X9885910Y-14362862D01*
X9885910Y-14286671D01*
X9876386Y-14267624D01*
X9866862Y-14258100D01*
X9847814Y-14248576D01*
X9809719Y-14248576D01*
X9790671Y-14258100D01*
X9781148Y-14267624D01*
X9771624Y-14286671D01*
X9771624Y-14334290D01*
X9781148Y-14353338D01*
X9790671Y-14362862D01*
X9809719Y-14372386D01*
X9847814Y-14372386D01*
X9866862Y-14362862D01*
X9876386Y-14353338D01*
X9885910Y-14334290D01*
X10057338Y-14315243D02*
X10057338Y-14448576D01*
X10009719Y-14239052D02*
X9962100Y-14381909D01*
X10085910Y-14381909D01*
X10152576Y-14248576D02*
X10152576Y-14286671D01*
X10228767Y-14248576D02*
X10228767Y-14286671D01*
X10524005Y-14524767D02*
X10514481Y-14515243D01*
X10495433Y-14486671D01*
X10485910Y-14467624D01*
X10476386Y-14439052D01*
X10466862Y-14391433D01*
X10466862Y-14353338D01*
X10476386Y-14305719D01*
X10485910Y-14277148D01*
X10495433Y-14258100D01*
X10514481Y-14229528D01*
X10524005Y-14220005D01*
X10590671Y-14267624D02*
X10600195Y-14258100D01*
X10619243Y-14248576D01*
X10666862Y-14248576D01*
X10685910Y-14258100D01*
X10695433Y-14267624D01*
X10704957Y-14286671D01*
X10704957Y-14305719D01*
X10695433Y-14334290D01*
X10581148Y-14448576D01*
X10704957Y-14448576D01*
X10781148Y-14267624D02*
X10790671Y-14258100D01*
X10809719Y-14248576D01*
X10857338Y-14248576D01*
X10876386Y-14258100D01*
X10885910Y-14267624D01*
X10895433Y-14286671D01*
X10895433Y-14305719D01*
X10885910Y-14334290D01*
X10771624Y-14448576D01*
X10895433Y-14448576D01*
X11133529Y-14448576D02*
X11133529Y-14248576D01*
X11219243Y-14448576D02*
X11219243Y-14343814D01*
X11209719Y-14324767D01*
X11190671Y-14315243D01*
X11162100Y-14315243D01*
X11143052Y-14324767D01*
X11133529Y-14334290D01*
X11343052Y-14448576D02*
X11324005Y-14439052D01*
X11314481Y-14429528D01*
X11304957Y-14410481D01*
X11304957Y-14353338D01*
X11314481Y-14334290D01*
X11324005Y-14324767D01*
X11343052Y-14315243D01*
X11371624Y-14315243D01*
X11390671Y-14324767D01*
X11400195Y-14334290D01*
X11409719Y-14353338D01*
X11409719Y-14410481D01*
X11400195Y-14429528D01*
X11390671Y-14439052D01*
X11371624Y-14448576D01*
X11343052Y-14448576D01*
X11524005Y-14448576D02*
X11504957Y-14439052D01*
X11495433Y-14420005D01*
X11495433Y-14248576D01*
X11676386Y-14439052D02*
X11657338Y-14448576D01*
X11619243Y-14448576D01*
X11600195Y-14439052D01*
X11590671Y-14420005D01*
X11590671Y-14343814D01*
X11600195Y-14324767D01*
X11619243Y-14315243D01*
X11657338Y-14315243D01*
X11676386Y-14324767D01*
X11685909Y-14343814D01*
X11685909Y-14362862D01*
X11590671Y-14381909D01*
X11762100Y-14439052D02*
X11781148Y-14448576D01*
X11819243Y-14448576D01*
X11838290Y-14439052D01*
X11847814Y-14420005D01*
X11847814Y-14410481D01*
X11838290Y-14391433D01*
X11819243Y-14381909D01*
X11790671Y-14381909D01*
X11771624Y-14372386D01*
X11762100Y-14353338D01*
X11762100Y-14343814D01*
X11771624Y-14324767D01*
X11790671Y-14315243D01*
X11819243Y-14315243D01*
X11838290Y-14324767D01*
X11914481Y-14524767D02*
X11924005Y-14515243D01*
X11943052Y-14486671D01*
X11952576Y-14467624D01*
X11962100Y-14439052D01*
X11971624Y-14391433D01*
X11971624Y-14353338D01*
X11962100Y-14305719D01*
X11952576Y-14277148D01*
X11943052Y-14258100D01*
X11924005Y-14229528D01*
X11914481Y-14220005D01*
D15*
X6929841Y-14675841D02*
X6929841Y-14568359D01*
X6822359Y-14568359D01*
X6822359Y-14675841D01*
X6929841Y-14675841D01*
D11*
X7314481Y-14712576D02*
X7200195Y-14712576D01*
X7257338Y-14712576D02*
X7257338Y-14512576D01*
X7238290Y-14541148D01*
X7219243Y-14560195D01*
X7200195Y-14569719D01*
X7400195Y-14693528D02*
X7409719Y-14703052D01*
X7400195Y-14712576D01*
X7390671Y-14703052D01*
X7400195Y-14693528D01*
X7400195Y-14712576D01*
X7590671Y-14512576D02*
X7495433Y-14512576D01*
X7485909Y-14607814D01*
X7495433Y-14598290D01*
X7514481Y-14588767D01*
X7562100Y-14588767D01*
X7581148Y-14598290D01*
X7590671Y-14607814D01*
X7600195Y-14626862D01*
X7600195Y-14674481D01*
X7590671Y-14693528D01*
X7581148Y-14703052D01*
X7562100Y-14712576D01*
X7514481Y-14712576D01*
X7495433Y-14703052D01*
X7485909Y-14693528D01*
X7676386Y-14531624D02*
X7685909Y-14522100D01*
X7704957Y-14512576D01*
X7752576Y-14512576D01*
X7771624Y-14522100D01*
X7781148Y-14531624D01*
X7790671Y-14550671D01*
X7790671Y-14569719D01*
X7781148Y-14598290D01*
X7666862Y-14712576D01*
X7790671Y-14712576D01*
X7914481Y-14512576D02*
X7933528Y-14512576D01*
X7952576Y-14522100D01*
X7962100Y-14531624D01*
X7971624Y-14550671D01*
X7981148Y-14588767D01*
X7981148Y-14636386D01*
X7971624Y-14674481D01*
X7962100Y-14693528D01*
X7952576Y-14703052D01*
X7933528Y-14712576D01*
X7914481Y-14712576D01*
X7895433Y-14703052D01*
X7885909Y-14693528D01*
X7876386Y-14674481D01*
X7866862Y-14636386D01*
X7866862Y-14588767D01*
X7876386Y-14550671D01*
X7885909Y-14531624D01*
X7895433Y-14522100D01*
X7914481Y-14512576D01*
X8066862Y-14712576D02*
X8066862Y-14579243D01*
X8066862Y-14598290D02*
X8076386Y-14588767D01*
X8095433Y-14579243D01*
X8124005Y-14579243D01*
X8143052Y-14588767D01*
X8152576Y-14607814D01*
X8152576Y-14712576D01*
X8152576Y-14607814D02*
X8162100Y-14588767D01*
X8181148Y-14579243D01*
X8209719Y-14579243D01*
X8228767Y-14588767D01*
X8238290Y-14607814D01*
X8238290Y-14712576D01*
X8333528Y-14712576D02*
X8333528Y-14579243D01*
X8333528Y-14598290D02*
X8343052Y-14588767D01*
X8362100Y-14579243D01*
X8390671Y-14579243D01*
X8409719Y-14588767D01*
X8419243Y-14607814D01*
X8419243Y-14712576D01*
X8419243Y-14607814D02*
X8428767Y-14588767D01*
X8447814Y-14579243D01*
X8476386Y-14579243D01*
X8495433Y-14588767D01*
X8504957Y-14607814D01*
X8504957Y-14712576D01*
X8895433Y-14503052D02*
X8724005Y-14760195D01*
X9152576Y-14512576D02*
X9171624Y-14512576D01*
X9190671Y-14522100D01*
X9200195Y-14531624D01*
X9209719Y-14550671D01*
X9219243Y-14588767D01*
X9219243Y-14636386D01*
X9209719Y-14674481D01*
X9200195Y-14693528D01*
X9190671Y-14703052D01*
X9171624Y-14712576D01*
X9152576Y-14712576D01*
X9133529Y-14703052D01*
X9124005Y-14693528D01*
X9114481Y-14674481D01*
X9104957Y-14636386D01*
X9104957Y-14588767D01*
X9114481Y-14550671D01*
X9124005Y-14531624D01*
X9133529Y-14522100D01*
X9152576Y-14512576D01*
X9304957Y-14693528D02*
X9314481Y-14703052D01*
X9304957Y-14712576D01*
X9295433Y-14703052D01*
X9304957Y-14693528D01*
X9304957Y-14712576D01*
X9438290Y-14512576D02*
X9457338Y-14512576D01*
X9476386Y-14522100D01*
X9485910Y-14531624D01*
X9495433Y-14550671D01*
X9504957Y-14588767D01*
X9504957Y-14636386D01*
X9495433Y-14674481D01*
X9485910Y-14693528D01*
X9476386Y-14703052D01*
X9457338Y-14712576D01*
X9438290Y-14712576D01*
X9419243Y-14703052D01*
X9409719Y-14693528D01*
X9400195Y-14674481D01*
X9390671Y-14636386D01*
X9390671Y-14588767D01*
X9400195Y-14550671D01*
X9409719Y-14531624D01*
X9419243Y-14522100D01*
X9438290Y-14512576D01*
X9685910Y-14512576D02*
X9590671Y-14512576D01*
X9581148Y-14607814D01*
X9590671Y-14598290D01*
X9609719Y-14588767D01*
X9657338Y-14588767D01*
X9676386Y-14598290D01*
X9685910Y-14607814D01*
X9695433Y-14626862D01*
X9695433Y-14674481D01*
X9685910Y-14693528D01*
X9676386Y-14703052D01*
X9657338Y-14712576D01*
X9609719Y-14712576D01*
X9590671Y-14703052D01*
X9581148Y-14693528D01*
X9790671Y-14712576D02*
X9828767Y-14712576D01*
X9847814Y-14703052D01*
X9857338Y-14693528D01*
X9876386Y-14664957D01*
X9885910Y-14626862D01*
X9885910Y-14550671D01*
X9876386Y-14531624D01*
X9866862Y-14522100D01*
X9847814Y-14512576D01*
X9809719Y-14512576D01*
X9790671Y-14522100D01*
X9781148Y-14531624D01*
X9771624Y-14550671D01*
X9771624Y-14598290D01*
X9781148Y-14617338D01*
X9790671Y-14626862D01*
X9809719Y-14636386D01*
X9847814Y-14636386D01*
X9866862Y-14626862D01*
X9876386Y-14617338D01*
X9885910Y-14598290D01*
X10000195Y-14598290D02*
X9981148Y-14588767D01*
X9971624Y-14579243D01*
X9962100Y-14560195D01*
X9962100Y-14550671D01*
X9971624Y-14531624D01*
X9981148Y-14522100D01*
X10000195Y-14512576D01*
X10038290Y-14512576D01*
X10057338Y-14522100D01*
X10066862Y-14531624D01*
X10076386Y-14550671D01*
X10076386Y-14560195D01*
X10066862Y-14579243D01*
X10057338Y-14588767D01*
X10038290Y-14598290D01*
X10000195Y-14598290D01*
X9981148Y-14607814D01*
X9971624Y-14617338D01*
X9962100Y-14636386D01*
X9962100Y-14674481D01*
X9971624Y-14693528D01*
X9981148Y-14703052D01*
X10000195Y-14712576D01*
X10038290Y-14712576D01*
X10057338Y-14703052D01*
X10066862Y-14693528D01*
X10076386Y-14674481D01*
X10076386Y-14636386D01*
X10066862Y-14617338D01*
X10057338Y-14607814D01*
X10038290Y-14598290D01*
X10152576Y-14512576D02*
X10152576Y-14550671D01*
X10228767Y-14512576D02*
X10228767Y-14550671D01*
X10524005Y-14788767D02*
X10514481Y-14779243D01*
X10495433Y-14750671D01*
X10485910Y-14731624D01*
X10476386Y-14703052D01*
X10466862Y-14655433D01*
X10466862Y-14617338D01*
X10476386Y-14569719D01*
X10485910Y-14541148D01*
X10495433Y-14522100D01*
X10514481Y-14493528D01*
X10524005Y-14484005D01*
X10590671Y-14531624D02*
X10600195Y-14522100D01*
X10619243Y-14512576D01*
X10666862Y-14512576D01*
X10685910Y-14522100D01*
X10695433Y-14531624D01*
X10704957Y-14550671D01*
X10704957Y-14569719D01*
X10695433Y-14598290D01*
X10581148Y-14712576D01*
X10704957Y-14712576D01*
X10828767Y-14512576D02*
X10847814Y-14512576D01*
X10866862Y-14522100D01*
X10876386Y-14531624D01*
X10885910Y-14550671D01*
X10895433Y-14588767D01*
X10895433Y-14636386D01*
X10885910Y-14674481D01*
X10876386Y-14693528D01*
X10866862Y-14703052D01*
X10847814Y-14712576D01*
X10828767Y-14712576D01*
X10809719Y-14703052D01*
X10800195Y-14693528D01*
X10790671Y-14674481D01*
X10781148Y-14636386D01*
X10781148Y-14588767D01*
X10790671Y-14550671D01*
X10800195Y-14531624D01*
X10809719Y-14522100D01*
X10828767Y-14512576D01*
X11133529Y-14712576D02*
X11133529Y-14512576D01*
X11219243Y-14712576D02*
X11219243Y-14607814D01*
X11209719Y-14588767D01*
X11190671Y-14579243D01*
X11162100Y-14579243D01*
X11143052Y-14588767D01*
X11133529Y-14598290D01*
X11343052Y-14712576D02*
X11324005Y-14703052D01*
X11314481Y-14693528D01*
X11304957Y-14674481D01*
X11304957Y-14617338D01*
X11314481Y-14598290D01*
X11324005Y-14588767D01*
X11343052Y-14579243D01*
X11371624Y-14579243D01*
X11390671Y-14588767D01*
X11400195Y-14598290D01*
X11409719Y-14617338D01*
X11409719Y-14674481D01*
X11400195Y-14693528D01*
X11390671Y-14703052D01*
X11371624Y-14712576D01*
X11343052Y-14712576D01*
X11524005Y-14712576D02*
X11504957Y-14703052D01*
X11495433Y-14684005D01*
X11495433Y-14512576D01*
X11676386Y-14703052D02*
X11657338Y-14712576D01*
X11619243Y-14712576D01*
X11600195Y-14703052D01*
X11590671Y-14684005D01*
X11590671Y-14607814D01*
X11600195Y-14588767D01*
X11619243Y-14579243D01*
X11657338Y-14579243D01*
X11676386Y-14588767D01*
X11685909Y-14607814D01*
X11685909Y-14626862D01*
X11590671Y-14645909D01*
X11762100Y-14703052D02*
X11781148Y-14712576D01*
X11819243Y-14712576D01*
X11838290Y-14703052D01*
X11847814Y-14684005D01*
X11847814Y-14674481D01*
X11838290Y-14655433D01*
X11819243Y-14645909D01*
X11790671Y-14645909D01*
X11771624Y-14636386D01*
X11762100Y-14617338D01*
X11762100Y-14607814D01*
X11771624Y-14588767D01*
X11790671Y-14579243D01*
X11819243Y-14579243D01*
X11838290Y-14588767D01*
X11914481Y-14788767D02*
X11924005Y-14779243D01*
X11943052Y-14750671D01*
X11952576Y-14731624D01*
X11962100Y-14703052D01*
X11971624Y-14655433D01*
X11971624Y-14617338D01*
X11962100Y-14569719D01*
X11952576Y-14541148D01*
X11943052Y-14522100D01*
X11924005Y-14493528D01*
X11914481Y-14484005D01*
X6852100Y-14994100D02*
X6952100Y-14894100D01*
X6852100Y-14794100D01*
X6752100Y-14894100D01*
X6852100Y-14994100D01*
X7190671Y-14784576D02*
X7314481Y-14784576D01*
X7247814Y-14860767D01*
X7276386Y-14860767D01*
X7295433Y-14870290D01*
X7304957Y-14879814D01*
X7314481Y-14898862D01*
X7314481Y-14946481D01*
X7304957Y-14965528D01*
X7295433Y-14975052D01*
X7276386Y-14984576D01*
X7219243Y-14984576D01*
X7200195Y-14975052D01*
X7190671Y-14965528D01*
X7400195Y-14965528D02*
X7409719Y-14975052D01*
X7400195Y-14984576D01*
X7390671Y-14975052D01*
X7400195Y-14965528D01*
X7400195Y-14984576D01*
X7485909Y-14803624D02*
X7495433Y-14794100D01*
X7514481Y-14784576D01*
X7562100Y-14784576D01*
X7581148Y-14794100D01*
X7590671Y-14803624D01*
X7600195Y-14822671D01*
X7600195Y-14841719D01*
X7590671Y-14870290D01*
X7476386Y-14984576D01*
X7600195Y-14984576D01*
X7724005Y-14784576D02*
X7743052Y-14784576D01*
X7762100Y-14794100D01*
X7771624Y-14803624D01*
X7781148Y-14822671D01*
X7790671Y-14860767D01*
X7790671Y-14908386D01*
X7781148Y-14946481D01*
X7771624Y-14965528D01*
X7762100Y-14975052D01*
X7743052Y-14984576D01*
X7724005Y-14984576D01*
X7704957Y-14975052D01*
X7695433Y-14965528D01*
X7685909Y-14946481D01*
X7676386Y-14908386D01*
X7676386Y-14860767D01*
X7685909Y-14822671D01*
X7695433Y-14803624D01*
X7704957Y-14794100D01*
X7724005Y-14784576D01*
X7914481Y-14784576D02*
X7933528Y-14784576D01*
X7952576Y-14794100D01*
X7962100Y-14803624D01*
X7971624Y-14822671D01*
X7981148Y-14860767D01*
X7981148Y-14908386D01*
X7971624Y-14946481D01*
X7962100Y-14965528D01*
X7952576Y-14975052D01*
X7933528Y-14984576D01*
X7914481Y-14984576D01*
X7895433Y-14975052D01*
X7885909Y-14965528D01*
X7876386Y-14946481D01*
X7866862Y-14908386D01*
X7866862Y-14860767D01*
X7876386Y-14822671D01*
X7885909Y-14803624D01*
X7895433Y-14794100D01*
X7914481Y-14784576D01*
X8066862Y-14984576D02*
X8066862Y-14851243D01*
X8066862Y-14870290D02*
X8076386Y-14860767D01*
X8095433Y-14851243D01*
X8124005Y-14851243D01*
X8143052Y-14860767D01*
X8152576Y-14879814D01*
X8152576Y-14984576D01*
X8152576Y-14879814D02*
X8162100Y-14860767D01*
X8181148Y-14851243D01*
X8209719Y-14851243D01*
X8228767Y-14860767D01*
X8238290Y-14879814D01*
X8238290Y-14984576D01*
X8333528Y-14984576D02*
X8333528Y-14851243D01*
X8333528Y-14870290D02*
X8343052Y-14860767D01*
X8362100Y-14851243D01*
X8390671Y-14851243D01*
X8409719Y-14860767D01*
X8419243Y-14879814D01*
X8419243Y-14984576D01*
X8419243Y-14879814D02*
X8428767Y-14860767D01*
X8447814Y-14851243D01*
X8476386Y-14851243D01*
X8495433Y-14860767D01*
X8504957Y-14879814D01*
X8504957Y-14984576D01*
X8895433Y-14775052D02*
X8724005Y-15032195D01*
X9152576Y-14784576D02*
X9171624Y-14784576D01*
X9190671Y-14794100D01*
X9200195Y-14803624D01*
X9209719Y-14822671D01*
X9219243Y-14860767D01*
X9219243Y-14908386D01*
X9209719Y-14946481D01*
X9200195Y-14965528D01*
X9190671Y-14975052D01*
X9171624Y-14984576D01*
X9152576Y-14984576D01*
X9133529Y-14975052D01*
X9124005Y-14965528D01*
X9114481Y-14946481D01*
X9104957Y-14908386D01*
X9104957Y-14860767D01*
X9114481Y-14822671D01*
X9124005Y-14803624D01*
X9133529Y-14794100D01*
X9152576Y-14784576D01*
X9304957Y-14965528D02*
X9314481Y-14975052D01*
X9304957Y-14984576D01*
X9295433Y-14975052D01*
X9304957Y-14965528D01*
X9304957Y-14984576D01*
X9504957Y-14984576D02*
X9390671Y-14984576D01*
X9447814Y-14984576D02*
X9447814Y-14784576D01*
X9428767Y-14813148D01*
X9409719Y-14832195D01*
X9390671Y-14841719D01*
X9581148Y-14803624D02*
X9590671Y-14794100D01*
X9609719Y-14784576D01*
X9657338Y-14784576D01*
X9676386Y-14794100D01*
X9685910Y-14803624D01*
X9695433Y-14822671D01*
X9695433Y-14841719D01*
X9685910Y-14870290D01*
X9571624Y-14984576D01*
X9695433Y-14984576D01*
X9866862Y-14784576D02*
X9828767Y-14784576D01*
X9809719Y-14794100D01*
X9800195Y-14803624D01*
X9781148Y-14832195D01*
X9771624Y-14870290D01*
X9771624Y-14946481D01*
X9781148Y-14965528D01*
X9790671Y-14975052D01*
X9809719Y-14984576D01*
X9847814Y-14984576D01*
X9866862Y-14975052D01*
X9876386Y-14965528D01*
X9885910Y-14946481D01*
X9885910Y-14898862D01*
X9876386Y-14879814D01*
X9866862Y-14870290D01*
X9847814Y-14860767D01*
X9809719Y-14860767D01*
X9790671Y-14870290D01*
X9781148Y-14879814D01*
X9771624Y-14898862D01*
X10009719Y-14784576D02*
X10028767Y-14784576D01*
X10047814Y-14794100D01*
X10057338Y-14803624D01*
X10066862Y-14822671D01*
X10076386Y-14860767D01*
X10076386Y-14908386D01*
X10066862Y-14946481D01*
X10057338Y-14965528D01*
X10047814Y-14975052D01*
X10028767Y-14984576D01*
X10009719Y-14984576D01*
X9990671Y-14975052D01*
X9981148Y-14965528D01*
X9971624Y-14946481D01*
X9962100Y-14908386D01*
X9962100Y-14860767D01*
X9971624Y-14822671D01*
X9981148Y-14803624D01*
X9990671Y-14794100D01*
X10009719Y-14784576D01*
X10152576Y-14784576D02*
X10152576Y-14822671D01*
X10228767Y-14784576D02*
X10228767Y-14822671D01*
X10524005Y-15060767D02*
X10514481Y-15051243D01*
X10495433Y-15022671D01*
X10485910Y-15003624D01*
X10476386Y-14975052D01*
X10466862Y-14927433D01*
X10466862Y-14889338D01*
X10476386Y-14841719D01*
X10485910Y-14813148D01*
X10495433Y-14794100D01*
X10514481Y-14765528D01*
X10524005Y-14756005D01*
X10685910Y-14851243D02*
X10685910Y-14984576D01*
X10638290Y-14775052D02*
X10590671Y-14917909D01*
X10714481Y-14917909D01*
X10943052Y-14984576D02*
X10943052Y-14784576D01*
X11028767Y-14984576D02*
X11028767Y-14879814D01*
X11019243Y-14860767D01*
X11000195Y-14851243D01*
X10971624Y-14851243D01*
X10952576Y-14860767D01*
X10943052Y-14870290D01*
X11152576Y-14984576D02*
X11133529Y-14975052D01*
X11124005Y-14965528D01*
X11114481Y-14946481D01*
X11114481Y-14889338D01*
X11124005Y-14870290D01*
X11133529Y-14860767D01*
X11152576Y-14851243D01*
X11181148Y-14851243D01*
X11200195Y-14860767D01*
X11209719Y-14870290D01*
X11219243Y-14889338D01*
X11219243Y-14946481D01*
X11209719Y-14965528D01*
X11200195Y-14975052D01*
X11181148Y-14984576D01*
X11152576Y-14984576D01*
X11333528Y-14984576D02*
X11314481Y-14975052D01*
X11304957Y-14956005D01*
X11304957Y-14784576D01*
X11485909Y-14975052D02*
X11466862Y-14984576D01*
X11428767Y-14984576D01*
X11409719Y-14975052D01*
X11400195Y-14956005D01*
X11400195Y-14879814D01*
X11409719Y-14860767D01*
X11428767Y-14851243D01*
X11466862Y-14851243D01*
X11485909Y-14860767D01*
X11495433Y-14879814D01*
X11495433Y-14898862D01*
X11400195Y-14917909D01*
X11571624Y-14975052D02*
X11590671Y-14984576D01*
X11628767Y-14984576D01*
X11647814Y-14975052D01*
X11657338Y-14956005D01*
X11657338Y-14946481D01*
X11647814Y-14927433D01*
X11628767Y-14917909D01*
X11600195Y-14917909D01*
X11581148Y-14908386D01*
X11571624Y-14889338D01*
X11571624Y-14879814D01*
X11581148Y-14860767D01*
X11600195Y-14851243D01*
X11628767Y-14851243D01*
X11647814Y-14860767D01*
X11724005Y-15060767D02*
X11733528Y-15051243D01*
X11752576Y-15022671D01*
X11762100Y-15003624D01*
X11771624Y-14975052D01*
X11781148Y-14927433D01*
X11781148Y-14889338D01*
X11771624Y-14841719D01*
X11762100Y-14813148D01*
X11752576Y-14794100D01*
X11733528Y-14765528D01*
X11724005Y-14756005D01*
X12085909Y-15060767D02*
X12076386Y-15051243D01*
X12057338Y-15022671D01*
X12047814Y-15003624D01*
X12038290Y-14975052D01*
X12028767Y-14927433D01*
X12028767Y-14889338D01*
X12038290Y-14841719D01*
X12047814Y-14813148D01*
X12057338Y-14794100D01*
X12076386Y-14765528D01*
X12085909Y-14756005D01*
X12162100Y-14851243D02*
X12162100Y-14984576D01*
X12162100Y-14870290D02*
X12171624Y-14860767D01*
X12190671Y-14851243D01*
X12219243Y-14851243D01*
X12238290Y-14860767D01*
X12247814Y-14879814D01*
X12247814Y-14984576D01*
X12371624Y-14984576D02*
X12352576Y-14975052D01*
X12343052Y-14965528D01*
X12333528Y-14946481D01*
X12333528Y-14889338D01*
X12343052Y-14870290D01*
X12352576Y-14860767D01*
X12371624Y-14851243D01*
X12400195Y-14851243D01*
X12419243Y-14860767D01*
X12428767Y-14870290D01*
X12438290Y-14889338D01*
X12438290Y-14946481D01*
X12428767Y-14965528D01*
X12419243Y-14975052D01*
X12400195Y-14984576D01*
X12371624Y-14984576D01*
X12495433Y-14851243D02*
X12571624Y-14851243D01*
X12524005Y-14784576D02*
X12524005Y-14956005D01*
X12533528Y-14975052D01*
X12552576Y-14984576D01*
X12571624Y-14984576D01*
X12790671Y-14851243D02*
X12790671Y-15051243D01*
X12790671Y-14860767D02*
X12809719Y-14851243D01*
X12847814Y-14851243D01*
X12866862Y-14860767D01*
X12876386Y-14870290D01*
X12885909Y-14889338D01*
X12885909Y-14946481D01*
X12876386Y-14965528D01*
X12866862Y-14975052D01*
X12847814Y-14984576D01*
X12809719Y-14984576D01*
X12790671Y-14975052D01*
X13000195Y-14984576D02*
X12981148Y-14975052D01*
X12971624Y-14956005D01*
X12971624Y-14784576D01*
X13162100Y-14984576D02*
X13162100Y-14879814D01*
X13152576Y-14860767D01*
X13133528Y-14851243D01*
X13095433Y-14851243D01*
X13076386Y-14860767D01*
X13162100Y-14975052D02*
X13143052Y-14984576D01*
X13095433Y-14984576D01*
X13076386Y-14975052D01*
X13066862Y-14956005D01*
X13066862Y-14936957D01*
X13076386Y-14917909D01*
X13095433Y-14908386D01*
X13143052Y-14908386D01*
X13162100Y-14898862D01*
X13228767Y-14851243D02*
X13304957Y-14851243D01*
X13257338Y-14784576D02*
X13257338Y-14956005D01*
X13266862Y-14975052D01*
X13285909Y-14984576D01*
X13304957Y-14984576D01*
X13447814Y-14975052D02*
X13428767Y-14984576D01*
X13390671Y-14984576D01*
X13371624Y-14975052D01*
X13362100Y-14956005D01*
X13362100Y-14879814D01*
X13371624Y-14860767D01*
X13390671Y-14851243D01*
X13428767Y-14851243D01*
X13447814Y-14860767D01*
X13457338Y-14879814D01*
X13457338Y-14898862D01*
X13362100Y-14917909D01*
X13628767Y-14984576D02*
X13628767Y-14784576D01*
X13628767Y-14975052D02*
X13609719Y-14984576D01*
X13571624Y-14984576D01*
X13552576Y-14975052D01*
X13543052Y-14965528D01*
X13533528Y-14946481D01*
X13533528Y-14889338D01*
X13543052Y-14870290D01*
X13552576Y-14860767D01*
X13571624Y-14851243D01*
X13609719Y-14851243D01*
X13628767Y-14860767D01*
X13704957Y-15060767D02*
X13714481Y-15051243D01*
X13733528Y-15022671D01*
X13743052Y-15003624D01*
X13752576Y-14975052D01*
X13762100Y-14927433D01*
X13762100Y-14889338D01*
X13752576Y-14841719D01*
X13743052Y-14813148D01*
X13733528Y-14794100D01*
X13714481Y-14765528D01*
X13704957Y-14756005D01*
M02*
