M48
METRIC
T1C0.300
T2C0.762
T3C0.800
T4C1.000
T5C1.520
T6C2.200
T7C3.810
%
G90
G05
T1
X100.076Y-91.694
X101.481Y-103.759
X110.109Y-97.155
T2
X65.024Y-69.85
X65.024Y-110.617
X67.564Y-69.85
X67.564Y-110.617
X70.104Y-69.85
X70.104Y-110.617
X72.644Y-69.85
X72.644Y-110.617
X75.184Y-69.85
X75.184Y-110.617
X77.724Y-69.85
X77.724Y-110.617
X80.264Y-69.85
X80.264Y-110.617
X82.804Y-69.85
X82.804Y-110.617
T3
X86.995Y-98.679
X86.995Y-106.299
X89.535Y-98.679
X89.535Y-106.299
X92.075Y-98.679
X92.075Y-106.299
T4
X67.31Y-86.36
X67.31Y-88.9
X67.31Y-91.44
X67.31Y-93.98
X67.31Y-96.52
X67.31Y-99.06
X94.615Y-112.649
X97.155Y-112.649
X99.695Y-112.649
X102.235Y-112.649
X104.775Y-112.649
X107.315Y-112.649
X109.855Y-112.649
X112.395Y-112.649
X113.03Y-86.36
X113.03Y-88.9
X113.03Y-91.44
X113.03Y-93.98
X113.03Y-96.52
X113.03Y-99.06
X114.935Y-112.649
X117.475Y-112.649
T5
X70.358Y-60.452
X70.358Y-121.158
X75.438Y-60.452
X75.438Y-121.158
X80.518Y-60.452
X80.518Y-121.158
X85.598Y-60.452
X85.598Y-121.158
X90.678Y-60.452
X90.678Y-121.158
X95.758Y-60.452
X95.758Y-121.158
X100.838Y-60.452
X100.838Y-121.158
X105.918Y-60.452
X105.918Y-121.158
X110.998Y-60.452
X110.998Y-121.158
X116.078Y-60.452
X116.078Y-121.158
T6
X81.534Y-75.184
T7
X66.294Y-105.156
T0
M30
