G04 #@! TF.GenerationSoftware,KiCad,Pcbnew,5.99.0-unknown-9f841da98e~134~ubuntu20.04.1*
G04 #@! TF.CreationDate,2021-11-20T12:42:39+01:00*
G04 #@! TF.ProjectId,slave-8in-8out,736c6176-652d-4386-996e-2d386f75742e,rev?*
G04 #@! TF.SameCoordinates,PX3a22d00PY8062360*
G04 #@! TF.FileFunction,Copper,L1,Top*
G04 #@! TF.FilePolarity,Positive*
%FSLAX46Y46*%
G04 Gerber Fmt 4.6, Leading zero omitted, Abs format (unit mm)*
G04 Created by KiCad (PCBNEW 5.99.0-unknown-9f841da98e~134~ubuntu20.04.1) date 2021-11-20 12:42:39*
%MOMM*%
%LPD*%
G01*
G04 APERTURE LIST*
G04 Aperture macros list*
%AMRoundRect*
0 Rectangle with rounded corners*
0 $1 Rounding radius*
0 $2 $3 $4 $5 $6 $7 $8 $9 X,Y pos of 4 corners*
0 Add a 4 corners polygon primitive as box body*
4,1,4,$2,$3,$4,$5,$6,$7,$8,$9,$2,$3,0*
0 Add four circle primitives for the rounded corners*
1,1,$1+$1,$2,$3*
1,1,$1+$1,$4,$5*
1,1,$1+$1,$6,$7*
1,1,$1+$1,$8,$9*
0 Add four rect primitives between the rounded corners*
20,1,$1+$1,$2,$3,$4,$5,0*
20,1,$1+$1,$4,$5,$6,$7,0*
20,1,$1+$1,$6,$7,$8,$9,0*
20,1,$1+$1,$8,$9,$2,$3,0*%
G04 Aperture macros list end*
G04 #@! TA.AperFunction,SMDPad,CuDef*
%ADD10RoundRect,0.135000X0.185000X-0.135000X0.185000X0.135000X-0.185000X0.135000X-0.185000X-0.135000X0*%
G04 #@! TD*
G04 #@! TA.AperFunction,ComponentPad*
%ADD11R,3.000000X3.000000*%
G04 #@! TD*
G04 #@! TA.AperFunction,ComponentPad*
%ADD12C,3.000000*%
G04 #@! TD*
G04 #@! TA.AperFunction,SMDPad,CuDef*
%ADD13R,1.780000X2.000000*%
G04 #@! TD*
G04 #@! TA.AperFunction,ComponentPad*
%ADD14R,1.700000X3.048000*%
G04 #@! TD*
G04 #@! TA.AperFunction,ComponentPad*
%ADD15O,1.700000X3.048000*%
G04 #@! TD*
G04 #@! TA.AperFunction,SMDPad,CuDef*
%ADD16RoundRect,0.135000X-0.135000X-0.185000X0.135000X-0.185000X0.135000X0.185000X-0.135000X0.185000X0*%
G04 #@! TD*
G04 #@! TA.AperFunction,SMDPad,CuDef*
%ADD17RoundRect,0.250000X-0.475000X0.250000X-0.475000X-0.250000X0.475000X-0.250000X0.475000X0.250000X0*%
G04 #@! TD*
G04 #@! TA.AperFunction,SMDPad,CuDef*
%ADD18RoundRect,0.135000X-0.185000X0.135000X-0.185000X-0.135000X0.185000X-0.135000X0.185000X0.135000X0*%
G04 #@! TD*
G04 #@! TA.AperFunction,SMDPad,CuDef*
%ADD19RoundRect,0.150000X-0.150000X0.875000X-0.150000X-0.875000X0.150000X-0.875000X0.150000X0.875000X0*%
G04 #@! TD*
G04 #@! TA.AperFunction,SMDPad,CuDef*
%ADD20RoundRect,0.250000X-0.262500X-0.450000X0.262500X-0.450000X0.262500X0.450000X-0.262500X0.450000X0*%
G04 #@! TD*
G04 #@! TA.AperFunction,ComponentPad*
%ADD21R,1.600000X1.600000*%
G04 #@! TD*
G04 #@! TA.AperFunction,ComponentPad*
%ADD22O,1.600000X1.600000*%
G04 #@! TD*
G04 #@! TA.AperFunction,SMDPad,CuDef*
%ADD23RoundRect,0.250000X0.450000X-0.262500X0.450000X0.262500X-0.450000X0.262500X-0.450000X-0.262500X0*%
G04 #@! TD*
G04 #@! TA.AperFunction,SMDPad,CuDef*
%ADD24RoundRect,0.250000X0.262500X0.450000X-0.262500X0.450000X-0.262500X-0.450000X0.262500X-0.450000X0*%
G04 #@! TD*
G04 #@! TA.AperFunction,ComponentPad*
%ADD25R,3.000000X1.700000*%
G04 #@! TD*
G04 #@! TA.AperFunction,ComponentPad*
%ADD26O,3.000000X1.700000*%
G04 #@! TD*
G04 #@! TA.AperFunction,SMDPad,CuDef*
%ADD27R,1.750000X0.450000*%
G04 #@! TD*
G04 #@! TA.AperFunction,ViaPad*
%ADD28C,0.600000*%
G04 #@! TD*
G04 #@! TA.AperFunction,Conductor*
%ADD29C,0.500000*%
G04 #@! TD*
G04 #@! TA.AperFunction,Conductor*
%ADD30C,0.250000*%
G04 #@! TD*
G04 APERTURE END LIST*
D10*
X119507000Y-87861000D03*
X119507000Y-86841000D03*
D11*
X86360000Y-66802000D03*
D12*
X81280000Y-66802000D03*
D11*
X127000000Y-66802000D03*
D12*
X121920000Y-66802000D03*
X116840000Y-66802000D03*
X111760000Y-66802000D03*
D11*
X106680000Y-66802000D03*
D12*
X101600000Y-66802000D03*
X96520000Y-66802000D03*
X91440000Y-66802000D03*
D10*
X117602000Y-73637000D03*
X117602000Y-72617000D03*
D13*
X99060000Y-75474000D03*
X96520000Y-75474000D03*
X96520000Y-85004000D03*
X99060000Y-85004000D03*
X104902000Y-75474000D03*
X102362000Y-75474000D03*
X102362000Y-85004000D03*
X104902000Y-85004000D03*
X122428000Y-75474000D03*
X119888000Y-75474000D03*
X119888000Y-85004000D03*
X122428000Y-85004000D03*
X110744000Y-75474000D03*
X108204000Y-75474000D03*
X108204000Y-85004000D03*
X110744000Y-85004000D03*
D10*
X123444000Y-73637000D03*
X123444000Y-72617000D03*
D13*
X116586000Y-75474000D03*
X114046000Y-75474000D03*
X114046000Y-85004000D03*
X116586000Y-85004000D03*
D14*
X101605000Y-115291000D03*
D15*
X104145000Y-115291000D03*
X106685000Y-115291000D03*
X109225000Y-115291000D03*
X111765000Y-115291000D03*
X114305000Y-115291000D03*
X116845000Y-115291000D03*
X119385000Y-115291000D03*
X121925000Y-115291000D03*
X124465000Y-115291000D03*
D11*
X112014000Y-124689000D03*
D12*
X117094000Y-124689000D03*
X122174000Y-124689000D03*
X127254000Y-124689000D03*
D16*
X77722000Y-103861000D03*
X78742000Y-103861000D03*
D17*
X78232000Y-99167000D03*
X78232000Y-101067000D03*
D16*
X77722000Y-102591000D03*
X78742000Y-102591000D03*
D11*
X91694000Y-124689000D03*
D12*
X96774000Y-124689000D03*
X101854000Y-124689000D03*
X106934000Y-124689000D03*
D10*
X111760000Y-73637000D03*
X111760000Y-72617000D03*
D13*
X87376000Y-75474000D03*
X84836000Y-75474000D03*
X84836000Y-85004000D03*
X87376000Y-85004000D03*
D11*
X81534000Y-124689000D03*
D12*
X86614000Y-124689000D03*
D13*
X93218000Y-75474000D03*
X90678000Y-75474000D03*
X90678000Y-85004000D03*
X93218000Y-85004000D03*
D10*
X113665000Y-87861000D03*
X113665000Y-86841000D03*
D13*
X81534000Y-75474000D03*
X78994000Y-75474000D03*
X78994000Y-85004000D03*
X81534000Y-85004000D03*
D18*
X87376000Y-72617000D03*
X87376000Y-73637000D03*
D10*
X90424000Y-87861000D03*
X90424000Y-86841000D03*
D18*
X104902000Y-72617000D03*
X104902000Y-73637000D03*
D19*
X120396000Y-92099000D03*
X119126000Y-92099000D03*
X117856000Y-92099000D03*
X116586000Y-92099000D03*
X115316000Y-92099000D03*
X114046000Y-92099000D03*
X112776000Y-92099000D03*
X111506000Y-92099000D03*
X110236000Y-92099000D03*
X110236000Y-101399000D03*
X111506000Y-101399000D03*
X112776000Y-101399000D03*
X114046000Y-101399000D03*
X115316000Y-101399000D03*
X116586000Y-101399000D03*
X117856000Y-101399000D03*
X119126000Y-101399000D03*
X120396000Y-101399000D03*
D10*
X107569000Y-87861000D03*
X107569000Y-86841000D03*
D20*
X119229500Y-73127000D03*
X121054500Y-73127000D03*
D16*
X113795000Y-110973000D03*
X114815000Y-110973000D03*
D18*
X116586000Y-72617000D03*
X116586000Y-73637000D03*
D21*
X92202000Y-108433000D03*
D22*
X89662000Y-108433000D03*
X87122000Y-108433000D03*
X84582000Y-108433000D03*
X82042000Y-108433000D03*
X82042000Y-116053000D03*
X84582000Y-116053000D03*
X87122000Y-116053000D03*
X89662000Y-116053000D03*
X92202000Y-116053000D03*
D16*
X121669000Y-110973000D03*
X122689000Y-110973000D03*
D23*
X116840000Y-109599500D03*
X116840000Y-107774500D03*
D18*
X93218000Y-72617000D03*
X93218000Y-73637000D03*
D24*
X99337500Y-87351000D03*
X97512500Y-87351000D03*
D20*
X113387500Y-73127000D03*
X115212500Y-73127000D03*
D10*
X96139000Y-87861000D03*
X96139000Y-86841000D03*
D16*
X111255000Y-110973000D03*
X112275000Y-110973000D03*
D18*
X83312000Y-104367000D03*
X83312000Y-105387000D03*
D23*
X111760000Y-109599500D03*
X111760000Y-107774500D03*
D24*
X93622500Y-87351000D03*
X91797500Y-87351000D03*
D25*
X73152000Y-101321000D03*
D26*
X73152000Y-98781000D03*
X73152000Y-96241000D03*
X73152000Y-93701000D03*
X73152000Y-91161000D03*
X73152000Y-88621000D03*
D18*
X81534000Y-72617000D03*
X81534000Y-73637000D03*
D10*
X101981000Y-87861000D03*
X101981000Y-86841000D03*
D23*
X122174000Y-109599500D03*
X122174000Y-107774500D03*
D16*
X118875000Y-110973000D03*
X119895000Y-110973000D03*
D23*
X114300000Y-109599500D03*
X114300000Y-107774500D03*
D10*
X105918000Y-73637000D03*
X105918000Y-72617000D03*
D20*
X95861500Y-73127000D03*
X97686500Y-73127000D03*
D16*
X103635000Y-110973000D03*
X104655000Y-110973000D03*
D23*
X106680000Y-109599500D03*
X106680000Y-107774500D03*
D10*
X100076000Y-73637000D03*
X100076000Y-72617000D03*
D23*
X109220000Y-109599500D03*
X109220000Y-107774500D03*
X119380000Y-109599500D03*
X119380000Y-107774500D03*
D18*
X110744000Y-72617000D03*
X110744000Y-73637000D03*
D10*
X94234000Y-73637000D03*
X94234000Y-72617000D03*
X78740000Y-87861000D03*
X78740000Y-86841000D03*
D16*
X116335000Y-110973000D03*
X117355000Y-110973000D03*
D23*
X104140000Y-109599500D03*
X104140000Y-107774500D03*
D24*
X87780500Y-87351000D03*
X85955500Y-87351000D03*
D18*
X86360000Y-104367000D03*
X86360000Y-105387000D03*
D24*
X105179500Y-87351000D03*
X103354500Y-87351000D03*
D20*
X107545500Y-73127000D03*
X109370500Y-73127000D03*
D18*
X99060000Y-72617000D03*
X99060000Y-73637000D03*
D10*
X84328000Y-87861000D03*
X84328000Y-86841000D03*
D24*
X111021500Y-87351000D03*
X109196500Y-87351000D03*
D20*
X84177500Y-73127000D03*
X86002500Y-73127000D03*
D10*
X88392000Y-73637000D03*
X88392000Y-72617000D03*
D16*
X106175000Y-110973000D03*
X107195000Y-110973000D03*
X108715000Y-110973000D03*
X109735000Y-110973000D03*
D10*
X82550000Y-73637000D03*
X82550000Y-72617000D03*
D20*
X78335500Y-73127000D03*
X80160500Y-73127000D03*
D24*
X122705500Y-87351000D03*
X120880500Y-87351000D03*
X81938500Y-87351000D03*
X80113500Y-87351000D03*
X116863500Y-87351000D03*
X115038500Y-87351000D03*
D18*
X122428000Y-72617000D03*
X122428000Y-73637000D03*
D20*
X101703500Y-73127000D03*
X103528500Y-73127000D03*
X90019500Y-73127000D03*
X91844500Y-73127000D03*
D18*
X84836000Y-104367000D03*
X84836000Y-105387000D03*
D25*
X128196000Y-101321000D03*
D26*
X128196000Y-98781000D03*
X128196000Y-96241000D03*
X128196000Y-93701000D03*
X128196000Y-91161000D03*
X128196000Y-88621000D03*
D27*
X91396000Y-93174000D03*
X91396000Y-93824000D03*
X91396000Y-94474000D03*
X91396000Y-95124000D03*
X91396000Y-95774000D03*
X91396000Y-96424000D03*
X91396000Y-97074000D03*
X91396000Y-97724000D03*
X91396000Y-98374000D03*
X91396000Y-99024000D03*
X91396000Y-99674000D03*
X91396000Y-100324000D03*
X98596000Y-100324000D03*
X98596000Y-99674000D03*
X98596000Y-99024000D03*
X98596000Y-98374000D03*
X98596000Y-97724000D03*
X98596000Y-97074000D03*
X98596000Y-96424000D03*
X98596000Y-95774000D03*
X98596000Y-95124000D03*
X98596000Y-94474000D03*
X98596000Y-93824000D03*
X98596000Y-93174000D03*
D28*
X100838000Y-93218000D03*
X101600000Y-96012000D03*
X104902000Y-95758000D03*
X89916000Y-102870000D03*
X87630000Y-102870000D03*
X77013200Y-96241000D03*
X124642800Y-96241000D03*
X79686200Y-99726500D03*
X111760000Y-96520000D03*
X102965600Y-92698900D03*
X102108000Y-94234000D03*
X122936000Y-96099500D03*
X87630000Y-101854000D03*
X81409906Y-99951906D03*
X79394400Y-101919100D03*
X91186000Y-101854000D03*
X122936000Y-93726000D03*
X112774000Y-70365500D03*
X93413300Y-70172300D03*
X108380800Y-97432000D03*
X122174000Y-106572700D03*
X123049100Y-99272000D03*
X98618600Y-104622800D03*
X119380000Y-103682900D03*
X119126000Y-98809600D03*
X117856000Y-98124000D03*
X106725900Y-98222900D03*
X120395400Y-104568300D03*
X113998700Y-97536000D03*
X102434100Y-101758500D03*
X112776000Y-97536000D03*
X99975900Y-103610300D03*
X110756684Y-94400500D03*
X92964000Y-99568000D03*
X93938000Y-90673200D03*
X105876000Y-90729600D03*
X97529800Y-89078400D03*
X113665000Y-89078400D03*
X118520600Y-90632300D03*
X95141900Y-91409700D03*
X117856000Y-106710700D03*
X116586000Y-106144300D03*
X114294200Y-106578200D03*
X114046000Y-105614400D03*
X111398500Y-106044200D03*
X110736000Y-105413600D03*
X79819700Y-109170300D03*
X92823500Y-94349900D03*
X80620700Y-110482700D03*
X92831400Y-93386800D03*
X74177200Y-85536000D03*
X94767000Y-71776100D03*
X90464300Y-71822000D03*
X84177500Y-71822000D03*
D29*
X71145000Y-91161000D02*
X70612000Y-91694000D01*
X80010000Y-111967600D02*
X80644600Y-111333000D01*
X80644600Y-111333000D02*
X80973000Y-111333000D01*
X82649300Y-77030600D02*
X83395700Y-76284200D01*
X76200000Y-90170000D02*
X76200000Y-77547900D01*
X121728300Y-77024300D02*
X131826000Y-87122000D01*
X131826000Y-90170000D02*
X130835000Y-91161000D01*
X70612000Y-103124000D02*
X78821000Y-111333000D01*
X111865600Y-77024300D02*
X108204000Y-77024300D01*
X83395700Y-76284200D02*
X83395700Y-75474000D01*
X114046000Y-75474000D02*
X112605700Y-75474000D01*
X119888000Y-75474000D02*
X119888000Y-77024300D01*
X79830500Y-77030600D02*
X82649300Y-77030600D01*
X80973000Y-111333000D02*
X82042000Y-110264000D01*
X108204000Y-75474000D02*
X108204000Y-76824200D01*
X82042000Y-108433000D02*
X82042000Y-109783300D01*
X114046000Y-75474000D02*
X114046000Y-77024300D01*
X130835000Y-91161000D02*
X128196000Y-91161000D01*
X88497600Y-77024300D02*
X84836000Y-77024300D01*
X108204000Y-76824200D02*
X108204000Y-77024300D01*
X75209000Y-91161000D02*
X76200000Y-90170000D01*
X96520000Y-75474000D02*
X95079700Y-75474000D01*
X91514500Y-77030600D02*
X94333300Y-77030600D01*
X81534000Y-122638700D02*
X80010000Y-121114700D01*
X76200000Y-77547900D02*
X78273900Y-75474000D01*
X112605700Y-76284200D02*
X111865600Y-77024300D01*
X78821000Y-111333000D02*
X80644600Y-111333000D01*
X84836000Y-75474000D02*
X83395700Y-75474000D01*
X112605700Y-75474000D02*
X112605700Y-76284200D01*
X119888000Y-77024300D02*
X121728300Y-77024300D01*
X89957900Y-75474000D02*
X89237700Y-75474000D01*
X131826000Y-87122000D02*
X131826000Y-90170000D01*
X95079700Y-76284200D02*
X95079700Y-75474000D01*
X73152000Y-91161000D02*
X71145000Y-91161000D01*
X80010000Y-121114700D02*
X80010000Y-111967600D01*
X89237700Y-76284200D02*
X88497600Y-77024300D01*
X73152000Y-91161000D02*
X75209000Y-91161000D01*
X119888000Y-77024300D02*
X114046000Y-77024300D01*
X90678000Y-75474000D02*
X89957900Y-75474000D01*
X102362000Y-77024300D02*
X96520000Y-77024300D01*
X78994000Y-75474000D02*
X78273900Y-75474000D01*
X84836000Y-75474000D02*
X84836000Y-77024300D01*
X78273900Y-75474000D02*
X79830500Y-77030600D01*
X102362000Y-75474000D02*
X102362000Y-77024300D01*
X89237700Y-75474000D02*
X89237700Y-76284200D01*
X96520000Y-75474000D02*
X96520000Y-77024300D01*
X94333300Y-77030600D02*
X95079700Y-76284200D01*
X108204000Y-77024300D02*
X102362000Y-77024300D01*
X82042000Y-110264000D02*
X82042000Y-109783300D01*
X81534000Y-124689000D02*
X81534000Y-122638700D01*
X70612000Y-91694000D02*
X70612000Y-103124000D01*
X89957900Y-75474000D02*
X91514500Y-77030600D01*
X75413000Y-93701000D02*
X76200000Y-94488000D01*
X87122000Y-108433000D02*
X89662000Y-108433000D01*
X73152000Y-93701000D02*
X75413000Y-93701000D01*
X100838000Y-93218000D02*
X100719489Y-93099489D01*
X77722000Y-102591000D02*
X76906200Y-101775200D01*
X100719489Y-93099489D02*
X98596000Y-93099489D01*
X104648000Y-96012000D02*
X101600000Y-96012000D01*
X89662000Y-108433000D02*
X92202000Y-108433000D01*
X88900000Y-101346000D02*
X86430200Y-98876200D01*
X88900000Y-105304700D02*
X88900000Y-101346000D01*
X76906200Y-101775200D02*
X76906200Y-100492800D01*
X87122000Y-107082700D02*
X88900000Y-105304700D01*
X76200000Y-97135000D02*
X78232000Y-99167000D01*
X87122000Y-108433000D02*
X87122000Y-107082700D01*
X78522800Y-98876200D02*
X78232000Y-99167000D01*
X77722000Y-102591000D02*
X77722000Y-103861000D01*
X104902000Y-95758000D02*
X104648000Y-96012000D01*
X76906200Y-100492800D02*
X78232000Y-99167000D01*
X86430200Y-98876200D02*
X78522800Y-98876200D01*
X76200000Y-94488000D02*
X76200000Y-97135000D01*
X108204000Y-84228800D02*
X107428900Y-83453700D01*
X89553100Y-85004000D02*
X89237700Y-85004000D01*
X95079700Y-84193800D02*
X95079700Y-85004000D01*
X96520000Y-85004000D02*
X95079700Y-85004000D01*
X102362000Y-84228800D02*
X102362000Y-83453700D01*
X78994000Y-85004000D02*
X78994000Y-83453700D01*
X112605700Y-88921000D02*
X112605700Y-85004000D01*
X87230900Y-103947900D02*
X84350000Y-101067000D01*
X114046000Y-85004000D02*
X113686000Y-85004000D01*
X113686000Y-85004000D02*
X113325900Y-85004000D01*
X83312000Y-105387000D02*
X84836000Y-105387000D01*
X117707500Y-83453600D02*
X118447700Y-84193800D01*
X96520000Y-85004000D02*
X96520000Y-83453700D01*
X90678000Y-85004000D02*
X89957900Y-85004000D01*
X108204000Y-84228800D02*
X108204000Y-83453700D01*
X84836000Y-85004000D02*
X83626600Y-85004000D01*
X83312000Y-105387000D02*
X83312000Y-105812700D01*
X84836000Y-105387000D02*
X86360000Y-105387000D01*
X119888000Y-83453700D02*
X123550400Y-83453700D01*
X107428900Y-83453700D02*
X102362000Y-83453700D01*
X78994000Y-83453700D02*
X82655600Y-83453700D01*
X102362000Y-84228800D02*
X101586900Y-83453700D01*
X89595600Y-85004000D02*
X89553100Y-85004000D01*
X87230900Y-104816800D02*
X87230900Y-103947900D01*
X89916000Y-100838000D02*
X90305489Y-100448511D01*
X123550400Y-83453700D02*
X124642800Y-84546100D01*
X118447700Y-84193800D02*
X118447700Y-85004000D01*
X110236000Y-91290700D02*
X112605700Y-88921000D01*
X87230900Y-103947900D02*
X87630000Y-103548800D01*
X89237700Y-84193800D02*
X88497600Y-83453700D01*
X84836000Y-85004000D02*
X84836000Y-83453700D01*
X113325900Y-84907000D02*
X111872600Y-83453700D01*
X89237700Y-85004000D02*
X89237700Y-84193800D01*
X77013200Y-85544500D02*
X77013200Y-96241000D01*
X119888000Y-85004000D02*
X119888000Y-83453700D01*
X79686200Y-101067000D02*
X79686200Y-99726500D01*
X89916000Y-102870000D02*
X89916000Y-100838000D01*
X82655600Y-83453700D02*
X83395700Y-84193800D01*
X79686200Y-101067000D02*
X78232000Y-101067000D01*
X84582000Y-108433000D02*
X84582000Y-107082700D01*
X102362000Y-85004000D02*
X102362000Y-84228800D01*
X87630000Y-103548800D02*
X87630000Y-102870000D01*
X83457100Y-85004000D02*
X83395700Y-85004000D01*
X77553700Y-85004000D02*
X77013200Y-85544500D01*
X113325900Y-85004000D02*
X113325900Y-84907000D01*
X83312000Y-105812700D02*
X84582000Y-107082700D01*
X83626600Y-85004000D02*
X83457100Y-85004000D01*
X90305489Y-100448511D02*
X91396000Y-100448511D01*
X84350000Y-101067000D02*
X79686200Y-101067000D01*
X119888000Y-85004000D02*
X118447700Y-85004000D01*
X88497600Y-83453700D02*
X84836000Y-83453700D01*
X115236400Y-83453600D02*
X117707500Y-83453600D01*
X94339500Y-83453600D02*
X95079700Y-84193800D01*
X110236000Y-92099000D02*
X110236000Y-91290700D01*
X113325900Y-85004000D02*
X112605700Y-85004000D01*
X101586900Y-83453700D02*
X96520000Y-83453700D01*
X89957900Y-85004000D02*
X89595600Y-85004000D01*
X113686000Y-85004000D02*
X115236400Y-83453600D01*
X108204000Y-85004000D02*
X108204000Y-84228800D01*
X78994000Y-85004000D02*
X77553700Y-85004000D01*
X83395700Y-84193800D02*
X83395700Y-85004000D01*
X86360000Y-105387000D02*
X86660700Y-105387000D01*
X124642800Y-84546100D02*
X124642800Y-96241000D01*
X111872600Y-83453700D02*
X108204000Y-83453700D01*
X89957900Y-85004000D02*
X91508300Y-83453600D01*
X86660700Y-105387000D02*
X87230900Y-104816800D01*
X91508300Y-83453600D02*
X94339500Y-83453600D01*
D30*
X102189600Y-95250000D02*
X100571022Y-95250000D01*
X99795022Y-94474000D02*
X98596000Y-94474000D01*
X102965600Y-94474000D02*
X102189600Y-95250000D01*
X77480190Y-104663500D02*
X78124400Y-104663500D01*
X78742000Y-104045900D02*
X78742000Y-103861000D01*
X100571022Y-95250000D02*
X99795022Y-94474000D01*
X77077480Y-103239480D02*
X77077480Y-104260790D01*
X102965600Y-94474000D02*
X102965600Y-92698900D01*
X109714000Y-94474000D02*
X102965600Y-94474000D01*
X73152000Y-101321000D02*
X75159000Y-101321000D01*
X111760000Y-96520000D02*
X109714000Y-94474000D01*
X75159000Y-101321000D02*
X77077480Y-103239480D01*
X77077480Y-104260790D02*
X77480190Y-104663500D01*
X78124400Y-104663500D02*
X78742000Y-104045900D01*
X95345280Y-95875698D02*
X97396978Y-93824000D01*
X99851450Y-93824000D02*
X100515450Y-94488000D01*
X78742000Y-102591000D02*
X79394400Y-101938600D01*
X98596000Y-93824000D02*
X99851450Y-93824000D01*
X85727906Y-99951906D02*
X87630000Y-101854000D01*
X100515450Y-94488000D02*
X101854000Y-94488000D01*
X95345280Y-98140624D02*
X95345280Y-95875698D01*
X91631904Y-101854000D02*
X95345280Y-98140624D01*
X81409906Y-99951906D02*
X85727906Y-99951906D01*
X91186000Y-101854000D02*
X91631904Y-101854000D01*
X122936000Y-93726000D02*
X122936000Y-96099500D01*
X79394400Y-101938600D02*
X79394400Y-101919100D01*
X101854000Y-94488000D02*
X102108000Y-94234000D01*
X97396978Y-93824000D02*
X98596000Y-93824000D01*
X123444000Y-72617000D02*
X127000000Y-69061000D01*
X127000000Y-69061000D02*
X127000000Y-66802000D01*
X122428000Y-72617000D02*
X123444000Y-72617000D01*
X116586000Y-72617000D02*
X117602000Y-72617000D01*
X117602000Y-72617000D02*
X117602000Y-71120000D01*
X117602000Y-71120000D02*
X121920000Y-66802000D01*
X123444000Y-73637000D02*
X123444000Y-74458000D01*
X123444000Y-74458000D02*
X122428000Y-75474000D01*
X112774000Y-71603000D02*
X112774000Y-70365500D01*
X110744000Y-72617000D02*
X111760000Y-72617000D01*
X111760000Y-72617000D02*
X112774000Y-71603000D01*
X105918000Y-72617000D02*
X111733000Y-66802000D01*
X105918000Y-72617000D02*
X104902000Y-72617000D01*
X111733000Y-66802000D02*
X111760000Y-66802000D01*
X106680000Y-66802000D02*
X104804700Y-66802000D01*
X100076000Y-71530700D02*
X104804700Y-66802000D01*
X100076000Y-72617000D02*
X99060000Y-72617000D01*
X100076000Y-72617000D02*
X100076000Y-71530700D01*
X117602000Y-74458000D02*
X117602000Y-73637000D01*
X116586000Y-75474000D02*
X117602000Y-74458000D01*
X93413300Y-72617000D02*
X93413300Y-70172300D01*
X93413300Y-72617000D02*
X93218000Y-72617000D01*
X94234000Y-72617000D02*
X93413300Y-72617000D01*
X122428000Y-73637000D02*
X121564500Y-73637000D01*
X121564500Y-73637000D02*
X121054500Y-73127000D01*
X94207000Y-66802000D02*
X96520000Y-66802000D01*
X88392000Y-72617000D02*
X87376000Y-72617000D01*
X88392000Y-72617000D02*
X94207000Y-66802000D01*
X91440000Y-66802000D02*
X87178500Y-71063500D01*
X82550000Y-72337500D02*
X82550000Y-72617000D01*
X87178500Y-71063500D02*
X83824000Y-71063500D01*
X83824000Y-71063500D02*
X82550000Y-72337500D01*
X81534000Y-72617000D02*
X82550000Y-72617000D01*
X111760000Y-73637000D02*
X111760000Y-74458000D01*
X111760000Y-74458000D02*
X110744000Y-75474000D01*
X120396000Y-96618900D02*
X123049100Y-99272000D01*
X108230800Y-97282000D02*
X108380800Y-97432000D01*
X101303022Y-97282000D02*
X108230800Y-97282000D01*
X99795022Y-95774000D02*
X101303022Y-97282000D01*
X122174000Y-107774500D02*
X122174000Y-106572700D01*
X98596000Y-95774000D02*
X99795022Y-95774000D01*
X120396000Y-92099000D02*
X120396000Y-96618900D01*
X97345700Y-96424000D02*
X96345100Y-97424600D01*
X119126000Y-92099000D02*
X119126000Y-98809600D01*
X98596000Y-96424000D02*
X97345700Y-96424000D01*
X119380000Y-107774500D02*
X119380000Y-103682900D01*
X96345100Y-97424600D02*
X96345100Y-102349300D01*
X96345100Y-102349300D02*
X98618600Y-104622800D01*
X117752500Y-108687000D02*
X116840000Y-107774500D01*
X117856000Y-92099000D02*
X117856000Y-98124000D01*
X106725900Y-98222900D02*
X106293000Y-97790000D01*
X100511022Y-97790000D02*
X99795022Y-97074000D01*
X120484900Y-108276400D02*
X120074300Y-108687000D01*
X120484900Y-104657800D02*
X120484900Y-108276400D01*
X99795022Y-97074000D02*
X98596000Y-97074000D01*
X120074300Y-108687000D02*
X117752500Y-108687000D01*
X106293000Y-97790000D02*
X100511022Y-97790000D01*
X120395400Y-104568300D02*
X120484900Y-104657800D01*
X98596000Y-97724000D02*
X97345700Y-97724000D01*
X116586000Y-97282000D02*
X116586000Y-92099000D01*
X114300000Y-107774500D02*
X112852100Y-107774500D01*
X112852100Y-107202900D02*
X112509200Y-106860000D01*
X96845400Y-101546100D02*
X99642400Y-104343100D01*
X112852100Y-107774500D02*
X112852100Y-107202900D01*
X97345700Y-97724000D02*
X96845400Y-98224300D01*
X112509200Y-106860000D02*
X111110800Y-106860000D01*
X109479500Y-105228700D02*
X109479500Y-100246400D01*
X99642400Y-104343100D02*
X99642400Y-104876700D01*
X109479500Y-100246400D02*
X110919900Y-98806000D01*
X112852100Y-108344900D02*
X112852100Y-107774500D01*
X96845400Y-98224300D02*
X96845400Y-101546100D01*
X115062000Y-98806000D02*
X116586000Y-97282000D01*
X111110800Y-106860000D02*
X109479500Y-105228700D01*
X112510000Y-108687000D02*
X112852100Y-108344900D01*
X103452700Y-108687000D02*
X112510000Y-108687000D01*
X110919900Y-98806000D02*
X115062000Y-98806000D01*
X99642400Y-104876700D02*
X103452700Y-108687000D01*
X111317700Y-107774500D02*
X107777200Y-104234000D01*
X98596000Y-98374000D02*
X104910200Y-98374000D01*
X111760000Y-107774500D02*
X111317700Y-107774500D01*
X107777200Y-101241000D02*
X110720200Y-98298000D01*
X107777200Y-104234000D02*
X107777200Y-101241000D01*
X104910200Y-98374000D02*
X107777200Y-101241000D01*
X114808000Y-98298000D02*
X115316000Y-97790000D01*
X110720200Y-98298000D02*
X114808000Y-98298000D01*
X115316000Y-97790000D02*
X115316000Y-92099000D01*
X113998700Y-97536000D02*
X113998700Y-92146300D01*
X113998700Y-92146300D02*
X114046000Y-92099000D01*
X108450100Y-107774500D02*
X102434100Y-101758500D01*
X98596000Y-99024000D02*
X99846300Y-99024000D01*
X109220000Y-107774500D02*
X108450100Y-107774500D01*
X99846300Y-99170700D02*
X99846300Y-99024000D01*
X102434100Y-101758500D02*
X99846300Y-99170700D01*
X97345700Y-100980100D02*
X97345700Y-99674000D01*
X99975900Y-103610400D02*
X99975900Y-103610300D01*
X104140000Y-107774500D02*
X99975900Y-103610400D01*
X98596000Y-99674000D02*
X97345700Y-99674000D01*
X112776000Y-92099000D02*
X112776000Y-97536000D01*
X99975900Y-103610300D02*
X97345700Y-100980100D01*
X98596000Y-100324000D02*
X99846300Y-100324000D01*
X99846300Y-100940800D02*
X106680000Y-107774500D01*
X99846300Y-100324000D02*
X99846300Y-100940800D01*
X91396000Y-99674000D02*
X92858000Y-99674000D01*
X88181916Y-99674000D02*
X78740000Y-90232084D01*
X111506000Y-93651184D02*
X110756684Y-94400500D01*
X111506000Y-92099000D02*
X111506000Y-93651184D01*
X92858000Y-99674000D02*
X92964000Y-99568000D01*
X91396000Y-99674000D02*
X88181916Y-99674000D01*
X78740000Y-90232084D02*
X78740000Y-87861000D01*
X91396000Y-99024000D02*
X89925300Y-99024000D01*
X89925300Y-99024000D02*
X84328000Y-93426700D01*
X84328000Y-93426700D02*
X84328000Y-87861000D01*
X90424000Y-87861000D02*
X89145100Y-89139900D01*
X89145100Y-97465200D02*
X90053900Y-98374000D01*
X90053900Y-98374000D02*
X91396000Y-98374000D01*
X89145100Y-89139900D02*
X89145100Y-97465200D01*
X90441500Y-91741100D02*
X89645400Y-92537200D01*
X91396000Y-97724000D02*
X90145700Y-97724000D01*
X89645400Y-92537200D02*
X89645400Y-97223700D01*
X96139000Y-87861000D02*
X95029200Y-87861000D01*
X91149100Y-91741100D02*
X90441500Y-91741100D01*
X95029200Y-87861000D02*
X91149100Y-91741100D01*
X89645400Y-97223700D02*
X90145700Y-97724000D01*
X101981000Y-87861000D02*
X101859300Y-87861000D01*
X91396000Y-97074000D02*
X92646300Y-97074000D01*
X101859300Y-87861000D02*
X92646300Y-97074000D01*
X92192800Y-92418400D02*
X93938000Y-90673200D01*
X90145700Y-96424000D02*
X90145700Y-92744500D01*
X107569000Y-89036600D02*
X107569000Y-87861000D01*
X90471800Y-92418400D02*
X92192800Y-92418400D01*
X105876000Y-90729600D02*
X107569000Y-89036600D01*
X90145700Y-92744500D02*
X90471800Y-92418400D01*
X91396000Y-96424000D02*
X90145700Y-96424000D01*
X97529800Y-89078400D02*
X97529800Y-91306300D01*
X97529800Y-91306300D02*
X93062100Y-95774000D01*
X93062100Y-95774000D02*
X91396000Y-95774000D01*
X113665000Y-87861000D02*
X113665000Y-89078400D01*
X91396000Y-95124000D02*
X92646300Y-95124000D01*
X118520600Y-88847400D02*
X118520600Y-90632300D01*
X95141900Y-92986600D02*
X93004500Y-95124000D01*
X93004500Y-95124000D02*
X92646300Y-95124000D01*
X119507000Y-87861000D02*
X118520600Y-88847400D01*
X95141900Y-91409700D02*
X95141900Y-92986600D01*
D29*
X125247000Y-115291000D02*
X125984000Y-114554000D01*
X111067000Y-99790000D02*
X122364600Y-99790000D01*
X124465000Y-115291000D02*
X125247000Y-115291000D01*
X73152000Y-88621000D02*
X73152000Y-74930000D01*
X110236000Y-101399000D02*
X110236000Y-100621000D01*
X110236000Y-100621000D02*
X111067000Y-99790000D01*
X124132700Y-100122300D02*
X125492311Y-98762689D01*
X125476000Y-88621000D02*
X128196000Y-88621000D01*
X125984000Y-104902000D02*
X124132700Y-103050700D01*
X73152000Y-74930000D02*
X81280000Y-66802000D01*
X125492311Y-95889120D02*
X125476000Y-95872809D01*
X125476000Y-95872809D02*
X125476000Y-88621000D01*
X122364600Y-99790000D02*
X122696900Y-100122300D01*
X124132700Y-103050700D02*
X124132700Y-100122300D01*
X125492311Y-98762689D02*
X125492311Y-95889120D01*
X125984000Y-114554000D02*
X125984000Y-104902000D01*
X122696900Y-100122300D02*
X124132700Y-100122300D01*
X124968000Y-105971000D02*
X120396000Y-101399000D01*
X121925000Y-115291000D02*
X121925000Y-114549000D01*
X121925000Y-119360000D02*
X121925000Y-115291000D01*
X127254000Y-124689000D02*
X121925000Y-119360000D01*
X121925000Y-114549000D02*
X124968000Y-111506000D01*
X124968000Y-111506000D02*
X124968000Y-105971000D01*
X123522000Y-111478200D02*
X123522000Y-106492300D01*
X119385000Y-121900000D02*
X119385000Y-115291000D01*
X123522000Y-106492300D02*
X120747700Y-103718000D01*
X120747700Y-103718000D02*
X120619500Y-103718000D01*
X119385000Y-112620520D02*
X122379680Y-112620520D01*
X119126000Y-102224500D02*
X119126000Y-101399000D01*
X120619500Y-103718000D02*
X119126000Y-102224500D01*
X122174000Y-124689000D02*
X119385000Y-121900000D01*
X119385000Y-115291000D02*
X119385000Y-112620520D01*
X122379680Y-112620520D02*
X123522000Y-111478200D01*
X117856000Y-101399000D02*
X117856000Y-106710700D01*
X117094000Y-124689000D02*
X116845000Y-124440000D01*
X116845000Y-124440000D02*
X116845000Y-115291000D01*
X112014000Y-124689000D02*
X112014000Y-122638700D01*
X112014000Y-122638700D02*
X114305000Y-120347700D01*
X116586000Y-101399000D02*
X116586000Y-106144300D01*
X114305000Y-120347700D02*
X114305000Y-115291000D01*
X115316000Y-101399000D02*
X115316000Y-105556400D01*
X106934000Y-124689000D02*
X106934000Y-122428000D01*
X106934000Y-122428000D02*
X111765000Y-117597000D01*
X115316000Y-105556400D02*
X114294200Y-106578200D01*
X111765000Y-117597000D02*
X111765000Y-115291000D01*
X101854000Y-124689000D02*
X101854000Y-121920000D01*
X114046000Y-101399000D02*
X114046000Y-105614400D01*
X101854000Y-121920000D02*
X103898480Y-119875520D01*
X103898480Y-119875520D02*
X106714780Y-119875520D01*
X106714780Y-119875520D02*
X109225000Y-117365300D01*
X109225000Y-117365300D02*
X109225000Y-115291000D01*
X106685000Y-117343000D02*
X106685000Y-115291000D01*
X99568000Y-119126000D02*
X104902000Y-119126000D01*
X96774000Y-121920000D02*
X99568000Y-119126000D01*
X112776000Y-101399000D02*
X112776000Y-104666700D01*
X96774000Y-124689000D02*
X96774000Y-121920000D01*
X112776000Y-104666700D02*
X111398500Y-106044200D01*
X104902000Y-119126000D02*
X106685000Y-117343000D01*
X103124000Y-118364000D02*
X104145000Y-117343000D01*
X111506000Y-104643600D02*
X110736000Y-105413600D01*
X104145000Y-117343000D02*
X104145000Y-115291000D01*
X96774000Y-118364000D02*
X103124000Y-118364000D01*
X91694000Y-124689000D02*
X91694000Y-123444000D01*
X111506000Y-101399000D02*
X111506000Y-104643600D01*
X91694000Y-123444000D02*
X96774000Y-118364000D01*
D30*
X122428000Y-85004000D02*
X122428000Y-86379300D01*
X122705500Y-86656800D02*
X122428000Y-86379300D01*
X122705500Y-87351000D02*
X122705500Y-86656800D01*
X85149200Y-103156200D02*
X82751500Y-103156200D01*
X91396000Y-94474000D02*
X92646300Y-94474000D01*
X86360000Y-104367000D02*
X85149200Y-103156200D01*
X92770400Y-94349900D02*
X92823500Y-94349900D01*
X79819700Y-106088000D02*
X79819700Y-109170300D01*
X92646300Y-94474000D02*
X92770400Y-94349900D01*
X82751500Y-103156200D02*
X79819700Y-106088000D01*
X92394200Y-93824000D02*
X91396000Y-93824000D01*
X84152100Y-103683100D02*
X84836000Y-104367000D01*
X80620700Y-106000300D02*
X82937900Y-103683100D01*
X92831400Y-93386800D02*
X92394200Y-93824000D01*
X80620700Y-110482700D02*
X80620700Y-106000300D01*
X82937900Y-103683100D02*
X84152100Y-103683100D01*
X83312000Y-104367000D02*
X83184500Y-104367000D01*
X83312000Y-107191800D02*
X83312000Y-111067700D01*
X95844800Y-96624900D02*
X95844800Y-107068800D01*
X95844800Y-107068800D02*
X88035900Y-114877700D01*
X82560000Y-104991500D02*
X82560000Y-106439800D01*
X87122000Y-116053000D02*
X87122000Y-114877700D01*
X97345700Y-95124000D02*
X95844800Y-96624900D01*
X82560000Y-106439800D02*
X83312000Y-107191800D01*
X88035900Y-114877700D02*
X87122000Y-114877700D01*
X83312000Y-111067700D02*
X87122000Y-114877700D01*
X83184500Y-104367000D02*
X82560000Y-104991500D01*
X98596000Y-95124000D02*
X97345700Y-95124000D01*
X120370500Y-86841000D02*
X119507000Y-86841000D01*
X120880500Y-87351000D02*
X120370500Y-86841000D01*
X115722500Y-73637000D02*
X116586000Y-73637000D01*
X115212500Y-73127000D02*
X115722500Y-73637000D01*
X116586000Y-87073500D02*
X116586000Y-85004000D01*
X116863500Y-87351000D02*
X116586000Y-87073500D01*
X115038500Y-87351000D02*
X114528500Y-86841000D01*
X114528500Y-86841000D02*
X113665000Y-86841000D01*
X109370500Y-73127000D02*
X109880500Y-73637000D01*
X109880500Y-73637000D02*
X110744000Y-73637000D01*
X110744000Y-85004000D02*
X110744000Y-86379300D01*
X111021500Y-87351000D02*
X111021500Y-86656800D01*
X111021500Y-86656800D02*
X110744000Y-86379300D01*
X108686500Y-86841000D02*
X107569000Y-86841000D01*
X109196500Y-87351000D02*
X108686500Y-86841000D01*
X104038500Y-73637000D02*
X104902000Y-73637000D01*
X103528500Y-73127000D02*
X104038500Y-73637000D01*
X105179500Y-87351000D02*
X105179500Y-86656800D01*
X104902000Y-85004000D02*
X104902000Y-86379300D01*
X105179500Y-86656800D02*
X104902000Y-86379300D01*
X102844500Y-86841000D02*
X101981000Y-86841000D01*
X103354500Y-87351000D02*
X102844500Y-86841000D01*
X98196500Y-73637000D02*
X99060000Y-73637000D01*
X97686500Y-73127000D02*
X98196500Y-73637000D01*
X99337500Y-87351000D02*
X99337500Y-86656800D01*
X99337500Y-86656800D02*
X99060000Y-86379300D01*
X99060000Y-85004000D02*
X99060000Y-86379300D01*
X97002500Y-86841000D02*
X97512500Y-87351000D01*
X96139000Y-86841000D02*
X97002500Y-86841000D01*
X92354500Y-73637000D02*
X93218000Y-73637000D01*
X91844500Y-73127000D02*
X92354500Y-73637000D01*
X93622500Y-87351000D02*
X93218000Y-86946500D01*
X93218000Y-86946500D02*
X93218000Y-85004000D01*
X91797500Y-87351000D02*
X91287500Y-86841000D01*
X91287500Y-86841000D02*
X90424000Y-86841000D01*
X86002500Y-73127000D02*
X86512500Y-73637000D01*
X86512500Y-73637000D02*
X87376000Y-73637000D01*
X87376000Y-85004000D02*
X87376000Y-86379300D01*
X87780500Y-86783800D02*
X87376000Y-86379300D01*
X87780500Y-87351000D02*
X87780500Y-86783800D01*
X85445500Y-86841000D02*
X85955500Y-87351000D01*
X84328000Y-86841000D02*
X85445500Y-86841000D01*
X80160500Y-73127000D02*
X80670500Y-73637000D01*
X80670500Y-73637000D02*
X81534000Y-73637000D01*
X81938500Y-87351000D02*
X81938500Y-86783800D01*
X81534000Y-85004000D02*
X81534000Y-86379300D01*
X81938500Y-86783800D02*
X81534000Y-86379300D01*
X80113500Y-87351000D02*
X79603500Y-86841000D01*
X79603500Y-86841000D02*
X78740000Y-86841000D01*
X105918000Y-74458000D02*
X104902000Y-75474000D01*
X105918000Y-73637000D02*
X105918000Y-74458000D01*
X100076000Y-74458000D02*
X99060000Y-75474000D01*
X100076000Y-73637000D02*
X100076000Y-74458000D01*
X94234000Y-73637000D02*
X94234000Y-74458000D01*
X94234000Y-74458000D02*
X93218000Y-75474000D01*
X88392000Y-74458000D02*
X87376000Y-75474000D01*
X88392000Y-73637000D02*
X88392000Y-74458000D01*
X82550000Y-73637000D02*
X82550000Y-74458000D01*
X82550000Y-74458000D02*
X81534000Y-75474000D01*
D29*
X113668000Y-69504400D02*
X113668000Y-72846500D01*
X108483000Y-68852400D02*
X108730400Y-68605000D01*
X110873400Y-64751600D02*
X112629000Y-64751600D01*
X74177200Y-77285300D02*
X78335500Y-73127000D01*
X115051400Y-64743800D02*
X113836300Y-65958900D01*
X108730400Y-66894600D02*
X109641200Y-65983800D01*
X123995800Y-65977900D02*
X122761700Y-64743800D01*
X113668000Y-72846500D02*
X113387500Y-73127000D01*
X94767000Y-71776100D02*
X95861500Y-72870600D01*
X113836300Y-69336100D02*
X113668000Y-69504400D01*
X84177500Y-73127000D02*
X84177500Y-71822000D01*
X90019500Y-72266800D02*
X90464300Y-71822000D01*
X108730400Y-68605000D02*
X108730400Y-66894600D01*
X74177200Y-85536000D02*
X74177200Y-77285300D01*
X101703500Y-73127000D02*
X101703500Y-73033600D01*
X109641200Y-65983800D02*
X108379500Y-64722200D01*
X123995800Y-67885600D02*
X123995800Y-65977900D01*
X101703500Y-73033600D02*
X105884700Y-68852400D01*
X113668000Y-69504400D02*
X111042900Y-69504400D01*
X95861500Y-72870600D02*
X95861500Y-73127000D01*
X122761700Y-64743800D02*
X115051400Y-64743800D01*
X119229500Y-72651900D02*
X123995800Y-67885600D01*
X105884700Y-68852400D02*
X108483000Y-68852400D01*
X100716900Y-64722200D02*
X99060000Y-66379100D01*
X112629000Y-64751600D02*
X113836300Y-65958900D01*
X107545500Y-73001800D02*
X107545500Y-73127000D01*
X90019500Y-73127000D02*
X90019500Y-72266800D01*
X108379500Y-64722200D02*
X100716900Y-64722200D01*
X119229500Y-73127000D02*
X119229500Y-72651900D01*
X113836300Y-65958900D02*
X113836300Y-69336100D01*
X99060000Y-66379100D02*
X99060000Y-67483100D01*
X111042900Y-69504400D02*
X107545500Y-73001800D01*
X99060000Y-67483100D02*
X94767000Y-71776100D01*
X109641200Y-65983800D02*
X110873400Y-64751600D01*
X106015800Y-111132200D02*
X106790200Y-111906700D01*
X118875000Y-110973000D02*
X118004100Y-111843900D01*
X115464100Y-111843900D02*
X114394400Y-111843900D01*
X104263100Y-111876400D02*
X103635000Y-111248300D01*
X105271600Y-111876400D02*
X104263100Y-111876400D01*
X116335000Y-111244500D02*
X116335000Y-110973000D01*
X116934400Y-111843900D02*
X116335000Y-111244500D01*
X111081200Y-111146800D02*
X111778300Y-111843900D01*
X84582000Y-117403300D02*
X85542700Y-118364000D01*
X118004100Y-111843900D02*
X116934400Y-111843900D01*
X93746000Y-118364000D02*
X100861700Y-111248300D01*
X113195600Y-111843900D02*
X113795000Y-111244500D01*
X84582000Y-116053000D02*
X84582000Y-117403300D01*
X108715000Y-110973000D02*
X108715000Y-111250800D01*
X108059100Y-111906700D02*
X108715000Y-111250800D01*
X108715000Y-111250800D02*
X109357000Y-111892800D01*
X120771000Y-111871000D02*
X121669000Y-110973000D01*
X111778300Y-111843900D02*
X113195600Y-111843900D01*
X100861700Y-111248300D02*
X103635000Y-111248300D01*
X113795000Y-111244500D02*
X113795000Y-110973000D01*
X106015800Y-111132200D02*
X105271600Y-111876400D01*
X106175000Y-110973000D02*
X106015800Y-111132200D01*
X106790200Y-111906700D02*
X108059100Y-111906700D01*
X114394400Y-111843900D02*
X113795000Y-111244500D01*
X118875000Y-111267700D02*
X119478300Y-111871000D01*
X119478300Y-111871000D02*
X120771000Y-111871000D01*
X118875000Y-110973000D02*
X118875000Y-111267700D01*
X111081200Y-111146800D02*
X111255000Y-110973000D01*
X110335200Y-111892800D02*
X111081200Y-111146800D01*
X116335000Y-110973000D02*
X115464100Y-111843900D01*
X109357000Y-111892800D02*
X110335200Y-111892800D01*
X103635000Y-111248300D02*
X103635000Y-110973000D01*
X85542700Y-118364000D02*
X93746000Y-118364000D01*
D30*
X122174000Y-109599500D02*
X122689000Y-110114500D01*
X122689000Y-110114500D02*
X122689000Y-110973000D01*
X119380000Y-109599500D02*
X119895000Y-110114500D01*
X119895000Y-110114500D02*
X119895000Y-110973000D01*
X117355000Y-110973000D02*
X117355000Y-110114500D01*
X117355000Y-110114500D02*
X116840000Y-109599500D01*
X114815000Y-110114500D02*
X114815000Y-110973000D01*
X114300000Y-109599500D02*
X114815000Y-110114500D01*
X111760000Y-109599500D02*
X112275000Y-110114500D01*
X112275000Y-110114500D02*
X112275000Y-110973000D01*
X109735000Y-110114500D02*
X109220000Y-109599500D01*
X109735000Y-110973000D02*
X109735000Y-110114500D01*
X104655000Y-110114500D02*
X104655000Y-110973000D01*
X104140000Y-109599500D02*
X104655000Y-110114500D01*
X107195000Y-110114500D02*
X106680000Y-109599500D01*
X107195000Y-110973000D02*
X107195000Y-110114500D01*
M02*
