G04 #@! TF.GenerationSoftware,KiCad,Pcbnew,5.99.0-unknown-9f841da98e~134~ubuntu20.04.1*
G04 #@! TF.CreationDate,2021-12-17T15:36:43+01:00*
G04 #@! TF.ProjectId,slave-8in-8out,736c6176-652d-4386-996e-2d386f75742e,rev?*
G04 #@! TF.SameCoordinates,PX3a22d00PY8062360*
G04 #@! TF.FileFunction,Soldermask,Top*
G04 #@! TF.FilePolarity,Negative*
%FSLAX46Y46*%
G04 Gerber Fmt 4.6, Leading zero omitted, Abs format (unit mm)*
G04 Created by KiCad (PCBNEW 5.99.0-unknown-9f841da98e~134~ubuntu20.04.1) date 2021-12-17 15:36:43*
%MOMM*%
%LPD*%
G01*
G04 APERTURE LIST*
G04 Aperture macros list*
%AMRoundRect*
0 Rectangle with rounded corners*
0 $1 Rounding radius*
0 $2 $3 $4 $5 $6 $7 $8 $9 X,Y pos of 4 corners*
0 Add a 4 corners polygon primitive as box body*
4,1,4,$2,$3,$4,$5,$6,$7,$8,$9,$2,$3,0*
0 Add four circle primitives for the rounded corners*
1,1,$1+$1,$2,$3*
1,1,$1+$1,$4,$5*
1,1,$1+$1,$6,$7*
1,1,$1+$1,$8,$9*
0 Add four rect primitives between the rounded corners*
20,1,$1+$1,$2,$3,$4,$5,0*
20,1,$1+$1,$4,$5,$6,$7,0*
20,1,$1+$1,$6,$7,$8,$9,0*
20,1,$1+$1,$8,$9,$2,$3,0*%
G04 Aperture macros list end*
%ADD10RoundRect,0.135000X0.135000X0.185000X-0.135000X0.185000X-0.135000X-0.185000X0.135000X-0.185000X0*%
%ADD11R,3.000000X3.000000*%
%ADD12C,3.000000*%
%ADD13RoundRect,0.135000X0.185000X-0.135000X0.185000X0.135000X-0.185000X0.135000X-0.185000X-0.135000X0*%
%ADD14R,1.524000X3.048000*%
%ADD15R,1.700000X1.700000*%
%ADD16O,1.700000X1.700000*%
%ADD17RoundRect,0.135000X-0.135000X-0.185000X0.135000X-0.185000X0.135000X0.185000X-0.135000X0.185000X0*%
%ADD18RoundRect,0.250000X-0.475000X0.250000X-0.475000X-0.250000X0.475000X-0.250000X0.475000X0.250000X0*%
%ADD19RoundRect,0.135000X-0.185000X0.135000X-0.185000X-0.135000X0.185000X-0.135000X0.185000X0.135000X0*%
%ADD20RoundRect,0.150000X-0.150000X0.875000X-0.150000X-0.875000X0.150000X-0.875000X0.150000X0.875000X0*%
%ADD21RoundRect,0.243750X-0.243750X-0.456250X0.243750X-0.456250X0.243750X0.456250X-0.243750X0.456250X0*%
%ADD22R,1.600000X1.600000*%
%ADD23O,1.600000X1.600000*%
%ADD24RoundRect,0.243750X0.456250X-0.243750X0.456250X0.243750X-0.456250X0.243750X-0.456250X-0.243750X0*%
%ADD25C,3.200000*%
%ADD26R,3.000000X1.700000*%
%ADD27O,3.000000X1.700000*%
%ADD28R,1.750000X0.450000*%
G04 APERTURE END LIST*
D10*
X121580500Y-89195500D03*
X120560500Y-89195500D03*
D11*
X86614000Y-68072000D03*
D12*
X81534000Y-68072000D03*
D11*
X127254000Y-68072000D03*
D12*
X122174000Y-68072000D03*
X117094000Y-68072000D03*
X112014000Y-68072000D03*
D11*
X106934000Y-68072000D03*
D12*
X101854000Y-68072000D03*
X96774000Y-68072000D03*
X91694000Y-68072000D03*
D13*
X117766500Y-74277500D03*
X117766500Y-73257500D03*
D14*
X99224500Y-76749500D03*
X96684500Y-76749500D03*
X96684500Y-86655500D03*
X99224500Y-86655500D03*
X105066500Y-76749500D03*
X102526500Y-76749500D03*
X102526500Y-86655500D03*
X105066500Y-86655500D03*
X122592500Y-76749500D03*
X120052500Y-76749500D03*
X120052500Y-86655500D03*
X122592500Y-86655500D03*
X110908500Y-76749500D03*
X108368500Y-76749500D03*
X108368500Y-86655500D03*
X110908500Y-86655500D03*
D13*
X123608500Y-74277500D03*
X123608500Y-73257500D03*
D14*
X116750500Y-76749500D03*
X114210500Y-76749500D03*
X114210500Y-86655500D03*
X116750500Y-86655500D03*
D15*
X98806000Y-115875700D03*
D16*
X101346000Y-115875700D03*
X103886000Y-115875700D03*
X106426000Y-115875700D03*
X108966000Y-115875700D03*
X111506000Y-115875700D03*
X114046000Y-115875700D03*
X116586000Y-115875700D03*
X119126000Y-115875700D03*
X121666000Y-115875700D03*
D11*
X111760000Y-123952000D03*
D12*
X116840000Y-123952000D03*
X121920000Y-123952000D03*
X127000000Y-123952000D03*
D17*
X77468000Y-101600000D03*
X78488000Y-101600000D03*
D18*
X77978000Y-96906000D03*
X77978000Y-98806000D03*
D17*
X77468000Y-100330000D03*
X78488000Y-100330000D03*
D11*
X91440000Y-123952000D03*
D12*
X96520000Y-123952000D03*
X101600000Y-123952000D03*
X106680000Y-123952000D03*
D13*
X111924500Y-74277500D03*
X111924500Y-73257500D03*
D14*
X87540500Y-76749500D03*
X85000500Y-76749500D03*
X85000500Y-86655500D03*
X87540500Y-86655500D03*
D11*
X81280000Y-123952000D03*
D12*
X86360000Y-123952000D03*
D14*
X93382500Y-76749500D03*
X90842500Y-76749500D03*
X90842500Y-86655500D03*
X93382500Y-86655500D03*
D10*
X115863500Y-89195500D03*
X114843500Y-89195500D03*
D14*
X81698500Y-76749500D03*
X79158500Y-76749500D03*
X79158500Y-86655500D03*
X81698500Y-86655500D03*
D19*
X87540500Y-73257500D03*
X87540500Y-74277500D03*
D10*
X92495500Y-89195500D03*
X91475500Y-89195500D03*
D19*
X105066500Y-73257500D03*
X105066500Y-74277500D03*
D20*
X116078000Y-93570000D03*
X114808000Y-93570000D03*
X113538000Y-93570000D03*
X112268000Y-93570000D03*
X110998000Y-93570000D03*
X109728000Y-93570000D03*
X108458000Y-93570000D03*
X107188000Y-93570000D03*
X105918000Y-93570000D03*
X105918000Y-102870000D03*
X107188000Y-102870000D03*
X108458000Y-102870000D03*
X109728000Y-102870000D03*
X110998000Y-102870000D03*
X112268000Y-102870000D03*
X113538000Y-102870000D03*
X114808000Y-102870000D03*
X116078000Y-102870000D03*
D10*
X110021500Y-89195500D03*
X109001500Y-89195500D03*
D21*
X119369000Y-73767500D03*
X121244000Y-73767500D03*
D19*
X116750500Y-73257500D03*
X116750500Y-74277500D03*
D22*
X74442000Y-114046000D03*
D23*
X76982000Y-114046000D03*
X79522000Y-114046000D03*
X79522000Y-106426000D03*
X76982000Y-106426000D03*
X74442000Y-106426000D03*
D10*
X97155000Y-103124000D03*
X96135000Y-103124000D03*
X97155000Y-95504000D03*
X96135000Y-95504000D03*
D17*
X103376000Y-108001700D03*
X104396000Y-108001700D03*
D24*
X106426000Y-111225200D03*
X106426000Y-109350200D03*
D10*
X97155000Y-101600000D03*
X96135000Y-101600000D03*
D19*
X93382500Y-73257500D03*
X93382500Y-74277500D03*
D21*
X113527000Y-73767500D03*
X115402000Y-73767500D03*
D10*
X98337500Y-89195500D03*
X97317500Y-89195500D03*
D17*
X118616000Y-108001700D03*
X119636000Y-108001700D03*
X81024000Y-100584000D03*
X82044000Y-100584000D03*
D25*
X135636000Y-128270000D03*
D24*
X111506000Y-111225200D03*
X111506000Y-109350200D03*
D26*
X73152000Y-101321000D03*
D27*
X73152000Y-98781000D03*
X73152000Y-96241000D03*
X73152000Y-93701000D03*
X73152000Y-91161000D03*
X73152000Y-88621000D03*
D10*
X97157000Y-97028000D03*
X96137000Y-97028000D03*
D19*
X81698500Y-73257500D03*
X81698500Y-74277500D03*
D10*
X104179500Y-89195500D03*
X103159500Y-89195500D03*
D24*
X101346000Y-111225200D03*
X101346000Y-109350200D03*
X108966000Y-111225200D03*
X108966000Y-109350200D03*
D13*
X106082500Y-74277500D03*
X106082500Y-73257500D03*
D21*
X96001000Y-73767500D03*
X97876000Y-73767500D03*
D24*
X119126000Y-111225200D03*
X119126000Y-109350200D03*
D13*
X100240500Y-74277500D03*
X100240500Y-73257500D03*
D10*
X97155000Y-100076000D03*
X96135000Y-100076000D03*
D24*
X114046000Y-111225200D03*
X114046000Y-109350200D03*
X103886000Y-111225200D03*
X103886000Y-109350200D03*
D19*
X110908500Y-73257500D03*
X110908500Y-74277500D03*
D13*
X94398500Y-74277500D03*
X94398500Y-73257500D03*
D17*
X105916000Y-108001700D03*
X106936000Y-108001700D03*
D25*
X73152000Y-128270000D03*
D17*
X110996000Y-108001700D03*
X112016000Y-108001700D03*
D10*
X80811500Y-89195500D03*
X79791500Y-89195500D03*
D17*
X116076000Y-108001700D03*
X117096000Y-108001700D03*
D24*
X116586000Y-111225200D03*
X116586000Y-109350200D03*
D17*
X81024000Y-97536000D03*
X82044000Y-97536000D03*
D21*
X107685000Y-73767500D03*
X109560000Y-73767500D03*
D19*
X99224500Y-73257500D03*
X99224500Y-74277500D03*
D17*
X100836000Y-108001700D03*
X101856000Y-108001700D03*
D25*
X73152000Y-63754000D03*
D10*
X86653500Y-89195500D03*
X85633500Y-89195500D03*
D17*
X113536000Y-108001700D03*
X114556000Y-108001700D03*
D25*
X135636000Y-63754000D03*
D21*
X84317000Y-73767500D03*
X86192000Y-73767500D03*
D17*
X108456000Y-108001700D03*
X109476000Y-108001700D03*
D13*
X88556500Y-74277500D03*
X88556500Y-73257500D03*
D22*
X85090000Y-114046000D03*
D23*
X87630000Y-114046000D03*
X87630000Y-106426000D03*
X85090000Y-106426000D03*
D13*
X82714500Y-74277500D03*
X82714500Y-73257500D03*
D21*
X78475000Y-73767500D03*
X80350000Y-73767500D03*
D19*
X122592500Y-73257500D03*
X122592500Y-74277500D03*
D21*
X101843000Y-73767500D03*
X103718000Y-73767500D03*
X90159000Y-73767500D03*
X92034000Y-73767500D03*
D10*
X97155000Y-104648000D03*
X96135000Y-104648000D03*
D17*
X81024000Y-99060000D03*
X82044000Y-99060000D03*
D10*
X97155000Y-98552000D03*
D26*
X128196000Y-101321000D03*
D27*
X128196000Y-98781000D03*
X128196000Y-96241000D03*
X128196000Y-93701000D03*
X128196000Y-91161000D03*
X128196000Y-88621000D03*
D10*
X97155000Y-93980000D03*
X96135000Y-93980000D03*
D28*
X86316000Y-94469000D03*
X86316000Y-95119000D03*
X86316000Y-95769000D03*
X86316000Y-96419000D03*
X86316000Y-97069000D03*
X86316000Y-97719000D03*
X86316000Y-98369000D03*
X86316000Y-99019000D03*
X86316000Y-99669000D03*
X86316000Y-100319000D03*
X86316000Y-100969000D03*
X86316000Y-101619000D03*
X93516000Y-101619000D03*
X93516000Y-100969000D03*
X93516000Y-100319000D03*
X93516000Y-99669000D03*
X93516000Y-99019000D03*
X93516000Y-98369000D03*
X93516000Y-97719000D03*
X93516000Y-97069000D03*
X93516000Y-96419000D03*
X93516000Y-95769000D03*
X93516000Y-95119000D03*
X93516000Y-94469000D03*
M02*
