G04 #@! TF.GenerationSoftware,KiCad,Pcbnew,5.99.0-unknown-9f841da98e~134~ubuntu20.04.1*
G04 #@! TF.CreationDate,2021-11-20T12:42:39+01:00*
G04 #@! TF.ProjectId,slave-8in-8out,736c6176-652d-4386-996e-2d386f75742e,rev?*
G04 #@! TF.SameCoordinates,PX3a22d00PY8062360*
G04 #@! TF.FileFunction,Soldermask,Top*
G04 #@! TF.FilePolarity,Negative*
%FSLAX46Y46*%
G04 Gerber Fmt 4.6, Leading zero omitted, Abs format (unit mm)*
G04 Created by KiCad (PCBNEW 5.99.0-unknown-9f841da98e~134~ubuntu20.04.1) date 2021-11-20 12:42:39*
%MOMM*%
%LPD*%
G01*
G04 APERTURE LIST*
G04 Aperture macros list*
%AMRoundRect*
0 Rectangle with rounded corners*
0 $1 Rounding radius*
0 $2 $3 $4 $5 $6 $7 $8 $9 X,Y pos of 4 corners*
0 Add a 4 corners polygon primitive as box body*
4,1,4,$2,$3,$4,$5,$6,$7,$8,$9,$2,$3,0*
0 Add four circle primitives for the rounded corners*
1,1,$1+$1,$2,$3*
1,1,$1+$1,$4,$5*
1,1,$1+$1,$6,$7*
1,1,$1+$1,$8,$9*
0 Add four rect primitives between the rounded corners*
20,1,$1+$1,$2,$3,$4,$5,0*
20,1,$1+$1,$4,$5,$6,$7,0*
20,1,$1+$1,$6,$7,$8,$9,0*
20,1,$1+$1,$8,$9,$2,$3,0*%
G04 Aperture macros list end*
%ADD10RoundRect,0.135000X0.185000X-0.135000X0.185000X0.135000X-0.185000X0.135000X-0.185000X-0.135000X0*%
%ADD11R,3.000000X3.000000*%
%ADD12C,3.000000*%
%ADD13R,1.780000X2.000000*%
%ADD14R,1.700000X3.048000*%
%ADD15O,1.700000X3.048000*%
%ADD16RoundRect,0.135000X-0.135000X-0.185000X0.135000X-0.185000X0.135000X0.185000X-0.135000X0.185000X0*%
%ADD17RoundRect,0.250000X-0.475000X0.250000X-0.475000X-0.250000X0.475000X-0.250000X0.475000X0.250000X0*%
%ADD18RoundRect,0.135000X-0.185000X0.135000X-0.185000X-0.135000X0.185000X-0.135000X0.185000X0.135000X0*%
%ADD19RoundRect,0.150000X-0.150000X0.875000X-0.150000X-0.875000X0.150000X-0.875000X0.150000X0.875000X0*%
%ADD20RoundRect,0.250000X-0.262500X-0.450000X0.262500X-0.450000X0.262500X0.450000X-0.262500X0.450000X0*%
%ADD21R,1.600000X1.600000*%
%ADD22O,1.600000X1.600000*%
%ADD23RoundRect,0.250000X0.450000X-0.262500X0.450000X0.262500X-0.450000X0.262500X-0.450000X-0.262500X0*%
%ADD24RoundRect,0.250000X0.262500X0.450000X-0.262500X0.450000X-0.262500X-0.450000X0.262500X-0.450000X0*%
%ADD25C,3.200000*%
%ADD26R,3.000000X1.700000*%
%ADD27O,3.000000X1.700000*%
%ADD28R,1.750000X0.450000*%
G04 APERTURE END LIST*
D10*
X119507000Y-87861000D03*
X119507000Y-86841000D03*
D11*
X86360000Y-66802000D03*
D12*
X81280000Y-66802000D03*
D11*
X127000000Y-66802000D03*
D12*
X121920000Y-66802000D03*
X116840000Y-66802000D03*
X111760000Y-66802000D03*
D11*
X106680000Y-66802000D03*
D12*
X101600000Y-66802000D03*
X96520000Y-66802000D03*
X91440000Y-66802000D03*
D10*
X117602000Y-73637000D03*
X117602000Y-72617000D03*
D13*
X99060000Y-75474000D03*
X96520000Y-75474000D03*
X96520000Y-85004000D03*
X99060000Y-85004000D03*
X104902000Y-75474000D03*
X102362000Y-75474000D03*
X102362000Y-85004000D03*
X104902000Y-85004000D03*
X122428000Y-75474000D03*
X119888000Y-75474000D03*
X119888000Y-85004000D03*
X122428000Y-85004000D03*
X110744000Y-75474000D03*
X108204000Y-75474000D03*
X108204000Y-85004000D03*
X110744000Y-85004000D03*
D10*
X123444000Y-73637000D03*
X123444000Y-72617000D03*
D13*
X116586000Y-75474000D03*
X114046000Y-75474000D03*
X114046000Y-85004000D03*
X116586000Y-85004000D03*
D14*
X101605000Y-115291000D03*
D15*
X104145000Y-115291000D03*
X106685000Y-115291000D03*
X109225000Y-115291000D03*
X111765000Y-115291000D03*
X114305000Y-115291000D03*
X116845000Y-115291000D03*
X119385000Y-115291000D03*
X121925000Y-115291000D03*
X124465000Y-115291000D03*
D11*
X112014000Y-124689000D03*
D12*
X117094000Y-124689000D03*
X122174000Y-124689000D03*
X127254000Y-124689000D03*
D16*
X77722000Y-103861000D03*
X78742000Y-103861000D03*
D17*
X78232000Y-99167000D03*
X78232000Y-101067000D03*
D16*
X77722000Y-102591000D03*
X78742000Y-102591000D03*
D11*
X91694000Y-124689000D03*
D12*
X96774000Y-124689000D03*
X101854000Y-124689000D03*
X106934000Y-124689000D03*
D10*
X111760000Y-73637000D03*
X111760000Y-72617000D03*
D13*
X87376000Y-75474000D03*
X84836000Y-75474000D03*
X84836000Y-85004000D03*
X87376000Y-85004000D03*
D11*
X81534000Y-124689000D03*
D12*
X86614000Y-124689000D03*
D13*
X93218000Y-75474000D03*
X90678000Y-75474000D03*
X90678000Y-85004000D03*
X93218000Y-85004000D03*
D10*
X113665000Y-87861000D03*
X113665000Y-86841000D03*
D13*
X81534000Y-75474000D03*
X78994000Y-75474000D03*
X78994000Y-85004000D03*
X81534000Y-85004000D03*
D18*
X87376000Y-72617000D03*
X87376000Y-73637000D03*
D10*
X90424000Y-87861000D03*
X90424000Y-86841000D03*
D18*
X104902000Y-72617000D03*
X104902000Y-73637000D03*
D19*
X120396000Y-92099000D03*
X119126000Y-92099000D03*
X117856000Y-92099000D03*
X116586000Y-92099000D03*
X115316000Y-92099000D03*
X114046000Y-92099000D03*
X112776000Y-92099000D03*
X111506000Y-92099000D03*
X110236000Y-92099000D03*
X110236000Y-101399000D03*
X111506000Y-101399000D03*
X112776000Y-101399000D03*
X114046000Y-101399000D03*
X115316000Y-101399000D03*
X116586000Y-101399000D03*
X117856000Y-101399000D03*
X119126000Y-101399000D03*
X120396000Y-101399000D03*
D10*
X107569000Y-87861000D03*
X107569000Y-86841000D03*
D20*
X119229500Y-73127000D03*
X121054500Y-73127000D03*
D16*
X113795000Y-110973000D03*
X114815000Y-110973000D03*
D18*
X116586000Y-72617000D03*
X116586000Y-73637000D03*
D21*
X92202000Y-108433000D03*
D22*
X89662000Y-108433000D03*
X87122000Y-108433000D03*
X84582000Y-108433000D03*
X82042000Y-108433000D03*
X82042000Y-116053000D03*
X84582000Y-116053000D03*
X87122000Y-116053000D03*
X89662000Y-116053000D03*
X92202000Y-116053000D03*
D16*
X121669000Y-110973000D03*
X122689000Y-110973000D03*
D23*
X116840000Y-109599500D03*
X116840000Y-107774500D03*
D18*
X93218000Y-72617000D03*
X93218000Y-73637000D03*
D24*
X99337500Y-87351000D03*
X97512500Y-87351000D03*
D20*
X113387500Y-73127000D03*
X115212500Y-73127000D03*
D10*
X96139000Y-87861000D03*
X96139000Y-86841000D03*
D16*
X111255000Y-110973000D03*
X112275000Y-110973000D03*
D18*
X83312000Y-104367000D03*
X83312000Y-105387000D03*
D25*
X135636000Y-128270000D03*
D23*
X111760000Y-109599500D03*
X111760000Y-107774500D03*
D24*
X93622500Y-87351000D03*
X91797500Y-87351000D03*
D26*
X73152000Y-101321000D03*
D27*
X73152000Y-98781000D03*
X73152000Y-96241000D03*
X73152000Y-93701000D03*
X73152000Y-91161000D03*
X73152000Y-88621000D03*
D18*
X81534000Y-72617000D03*
X81534000Y-73637000D03*
D10*
X101981000Y-87861000D03*
X101981000Y-86841000D03*
D23*
X122174000Y-109599500D03*
X122174000Y-107774500D03*
D16*
X118875000Y-110973000D03*
X119895000Y-110973000D03*
D23*
X114300000Y-109599500D03*
X114300000Y-107774500D03*
D10*
X105918000Y-73637000D03*
X105918000Y-72617000D03*
D20*
X95861500Y-73127000D03*
X97686500Y-73127000D03*
D16*
X103635000Y-110973000D03*
X104655000Y-110973000D03*
D23*
X106680000Y-109599500D03*
X106680000Y-107774500D03*
D10*
X100076000Y-73637000D03*
X100076000Y-72617000D03*
D23*
X109220000Y-109599500D03*
X109220000Y-107774500D03*
X119380000Y-109599500D03*
X119380000Y-107774500D03*
D18*
X110744000Y-72617000D03*
X110744000Y-73637000D03*
D10*
X94234000Y-73637000D03*
X94234000Y-72617000D03*
D25*
X73152000Y-128270000D03*
D10*
X78740000Y-87861000D03*
X78740000Y-86841000D03*
D16*
X116335000Y-110973000D03*
X117355000Y-110973000D03*
D23*
X104140000Y-109599500D03*
X104140000Y-107774500D03*
D24*
X87780500Y-87351000D03*
X85955500Y-87351000D03*
D18*
X86360000Y-104367000D03*
X86360000Y-105387000D03*
D24*
X105179500Y-87351000D03*
X103354500Y-87351000D03*
D20*
X107545500Y-73127000D03*
X109370500Y-73127000D03*
D18*
X99060000Y-72617000D03*
X99060000Y-73637000D03*
D25*
X73152000Y-63754000D03*
D10*
X84328000Y-87861000D03*
X84328000Y-86841000D03*
D24*
X111021500Y-87351000D03*
X109196500Y-87351000D03*
D25*
X135636000Y-63754000D03*
D20*
X84177500Y-73127000D03*
X86002500Y-73127000D03*
D10*
X88392000Y-73637000D03*
X88392000Y-72617000D03*
D16*
X106175000Y-110973000D03*
X107195000Y-110973000D03*
X108715000Y-110973000D03*
X109735000Y-110973000D03*
D10*
X82550000Y-73637000D03*
X82550000Y-72617000D03*
D20*
X78335500Y-73127000D03*
X80160500Y-73127000D03*
D24*
X122705500Y-87351000D03*
X120880500Y-87351000D03*
X81938500Y-87351000D03*
X80113500Y-87351000D03*
X116863500Y-87351000D03*
X115038500Y-87351000D03*
D18*
X122428000Y-72617000D03*
X122428000Y-73637000D03*
D20*
X101703500Y-73127000D03*
X103528500Y-73127000D03*
X90019500Y-73127000D03*
X91844500Y-73127000D03*
D18*
X84836000Y-104367000D03*
X84836000Y-105387000D03*
D26*
X128196000Y-101321000D03*
D27*
X128196000Y-98781000D03*
X128196000Y-96241000D03*
X128196000Y-93701000D03*
X128196000Y-91161000D03*
X128196000Y-88621000D03*
D28*
X91396000Y-93174000D03*
X91396000Y-93824000D03*
X91396000Y-94474000D03*
X91396000Y-95124000D03*
X91396000Y-95774000D03*
X91396000Y-96424000D03*
X91396000Y-97074000D03*
X91396000Y-97724000D03*
X91396000Y-98374000D03*
X91396000Y-99024000D03*
X91396000Y-99674000D03*
X91396000Y-100324000D03*
X98596000Y-100324000D03*
X98596000Y-99674000D03*
X98596000Y-99024000D03*
X98596000Y-98374000D03*
X98596000Y-97724000D03*
X98596000Y-97074000D03*
X98596000Y-96424000D03*
X98596000Y-95774000D03*
X98596000Y-95124000D03*
X98596000Y-94474000D03*
X98596000Y-93824000D03*
X98596000Y-93174000D03*
M02*
