G04 #@! TF.GenerationSoftware,KiCad,Pcbnew,5.99.0-unknown-9f841da98e~134~ubuntu20.04.1*
G04 #@! TF.CreationDate,2021-12-17T15:58:44+01:00*
G04 #@! TF.ProjectId,slave-8in-8out,736c6176-652d-4386-996e-2d386f75742e,rev?*
G04 #@! TF.SameCoordinates,PX3a22d00PY8062360*
G04 #@! TF.FileFunction,Legend,Top*
G04 #@! TF.FilePolarity,Positive*
%FSLAX46Y46*%
G04 Gerber Fmt 4.6, Leading zero omitted, Abs format (unit mm)*
G04 Created by KiCad (PCBNEW 5.99.0-unknown-9f841da98e~134~ubuntu20.04.1) date 2021-12-17 15:58:44*
%MOMM*%
%LPD*%
G01*
G04 APERTURE LIST*
G04 Aperture macros list*
%AMRoundRect*
0 Rectangle with rounded corners*
0 $1 Rounding radius*
0 $2 $3 $4 $5 $6 $7 $8 $9 X,Y pos of 4 corners*
0 Add a 4 corners polygon primitive as box body*
4,1,4,$2,$3,$4,$5,$6,$7,$8,$9,$2,$3,0*
0 Add four circle primitives for the rounded corners*
1,1,$1+$1,$2,$3*
1,1,$1+$1,$4,$5*
1,1,$1+$1,$6,$7*
1,1,$1+$1,$8,$9*
0 Add four rect primitives between the rounded corners*
20,1,$1+$1,$2,$3,$4,$5,0*
20,1,$1+$1,$4,$5,$6,$7,0*
20,1,$1+$1,$6,$7,$8,$9,0*
20,1,$1+$1,$8,$9,$2,$3,0*%
G04 Aperture macros list end*
%ADD10C,0.150000*%
%ADD11C,0.015000*%
%ADD12C,0.120000*%
%ADD13C,0.200000*%
%ADD14RoundRect,0.135000X0.135000X0.185000X-0.135000X0.185000X-0.135000X-0.185000X0.135000X-0.185000X0*%
%ADD15R,3.000000X3.000000*%
%ADD16C,3.000000*%
%ADD17RoundRect,0.135000X0.185000X-0.135000X0.185000X0.135000X-0.185000X0.135000X-0.185000X-0.135000X0*%
%ADD18R,1.524000X3.048000*%
%ADD19R,1.700000X1.700000*%
%ADD20O,1.700000X1.700000*%
%ADD21RoundRect,0.135000X-0.135000X-0.185000X0.135000X-0.185000X0.135000X0.185000X-0.135000X0.185000X0*%
%ADD22RoundRect,0.250000X-0.475000X0.250000X-0.475000X-0.250000X0.475000X-0.250000X0.475000X0.250000X0*%
%ADD23RoundRect,0.135000X-0.185000X0.135000X-0.185000X-0.135000X0.185000X-0.135000X0.185000X0.135000X0*%
%ADD24RoundRect,0.150000X-0.150000X0.875000X-0.150000X-0.875000X0.150000X-0.875000X0.150000X0.875000X0*%
%ADD25RoundRect,0.243750X-0.243750X-0.456250X0.243750X-0.456250X0.243750X0.456250X-0.243750X0.456250X0*%
%ADD26R,1.600000X1.600000*%
%ADD27O,1.600000X1.600000*%
%ADD28RoundRect,0.243750X0.456250X-0.243750X0.456250X0.243750X-0.456250X0.243750X-0.456250X-0.243750X0*%
%ADD29C,3.200000*%
%ADD30R,3.000000X1.700000*%
%ADD31O,3.000000X1.700000*%
%ADD32R,1.750000X0.450000*%
G04 APERTURE END LIST*
D10*
X90986428Y-129500380D02*
X91204142Y-129500380D01*
X91312999Y-129548000D01*
X91421857Y-129643238D01*
X91476285Y-129833714D01*
X91476285Y-130167047D01*
X91421857Y-130357523D01*
X91312999Y-130452761D01*
X91204142Y-130500380D01*
X90986428Y-130500380D01*
X90877571Y-130452761D01*
X90768714Y-130357523D01*
X90714285Y-130167047D01*
X90714285Y-129833714D01*
X90768714Y-129643238D01*
X90877571Y-129548000D01*
X90986428Y-129500380D01*
X92564857Y-130500380D02*
X91911714Y-130500380D01*
X92238285Y-130500380D02*
X92238285Y-129500380D01*
X92129428Y-129643238D01*
X92020571Y-129738476D01*
X91911714Y-129786095D01*
X96755857Y-129500380D02*
X96973571Y-129500380D01*
X97082428Y-129548000D01*
X97191285Y-129643238D01*
X97245714Y-129833714D01*
X97245714Y-130167047D01*
X97191285Y-130357523D01*
X97082428Y-130452761D01*
X96973571Y-130500380D01*
X96755857Y-130500380D01*
X96646999Y-130452761D01*
X96538142Y-130357523D01*
X96483714Y-130167047D01*
X96483714Y-129833714D01*
X96538142Y-129643238D01*
X96646999Y-129548000D01*
X96755857Y-129500380D01*
X97681142Y-129595619D02*
X97735571Y-129548000D01*
X97844428Y-129500380D01*
X98116571Y-129500380D01*
X98225428Y-129548000D01*
X98279857Y-129595619D01*
X98334285Y-129690857D01*
X98334285Y-129786095D01*
X98279857Y-129928952D01*
X97626714Y-130500380D01*
X98334285Y-130500380D01*
X101654428Y-129500380D02*
X101872142Y-129500380D01*
X101980999Y-129548000D01*
X102089857Y-129643238D01*
X102144285Y-129833714D01*
X102144285Y-130167047D01*
X102089857Y-130357523D01*
X101980999Y-130452761D01*
X101872142Y-130500380D01*
X101654428Y-130500380D01*
X101545571Y-130452761D01*
X101436714Y-130357523D01*
X101382285Y-130167047D01*
X101382285Y-129833714D01*
X101436714Y-129643238D01*
X101545571Y-129548000D01*
X101654428Y-129500380D01*
X102525285Y-129500380D02*
X103232857Y-129500380D01*
X102851857Y-129881333D01*
X103015142Y-129881333D01*
X103123999Y-129928952D01*
X103178428Y-129976571D01*
X103232857Y-130071809D01*
X103232857Y-130309904D01*
X103178428Y-130405142D01*
X103123999Y-130452761D01*
X103015142Y-130500380D01*
X102688571Y-130500380D01*
X102579714Y-130452761D01*
X102525285Y-130405142D01*
X106553000Y-129500380D02*
X106770714Y-129500380D01*
X106879571Y-129548000D01*
X106988428Y-129643238D01*
X107042857Y-129833714D01*
X107042857Y-130167047D01*
X106988428Y-130357523D01*
X106879571Y-130452761D01*
X106770714Y-130500380D01*
X106553000Y-130500380D01*
X106444142Y-130452761D01*
X106335285Y-130357523D01*
X106280857Y-130167047D01*
X106280857Y-129833714D01*
X106335285Y-129643238D01*
X106444142Y-129548000D01*
X106553000Y-129500380D01*
X108022571Y-129833714D02*
X108022571Y-130500380D01*
X107750428Y-129452761D02*
X107478285Y-130167047D01*
X108185857Y-130167047D01*
X111451571Y-129500380D02*
X111669285Y-129500380D01*
X111778142Y-129548000D01*
X111886999Y-129643238D01*
X111941428Y-129833714D01*
X111941428Y-130167047D01*
X111886999Y-130357523D01*
X111778142Y-130452761D01*
X111669285Y-130500380D01*
X111451571Y-130500380D01*
X111342714Y-130452761D01*
X111233857Y-130357523D01*
X111179428Y-130167047D01*
X111179428Y-129833714D01*
X111233857Y-129643238D01*
X111342714Y-129548000D01*
X111451571Y-129500380D01*
X112975571Y-129500380D02*
X112431285Y-129500380D01*
X112376857Y-129976571D01*
X112431285Y-129928952D01*
X112540142Y-129881333D01*
X112812285Y-129881333D01*
X112921142Y-129928952D01*
X112975571Y-129976571D01*
X113029999Y-130071809D01*
X113029999Y-130309904D01*
X112975571Y-130405142D01*
X112921142Y-130452761D01*
X112812285Y-130500380D01*
X112540142Y-130500380D01*
X112431285Y-130452761D01*
X112376857Y-130405142D01*
X116350142Y-129500380D02*
X116567857Y-129500380D01*
X116676714Y-129548000D01*
X116785571Y-129643238D01*
X116839999Y-129833714D01*
X116839999Y-130167047D01*
X116785571Y-130357523D01*
X116676714Y-130452761D01*
X116567857Y-130500380D01*
X116350142Y-130500380D01*
X116241285Y-130452761D01*
X116132428Y-130357523D01*
X116077999Y-130167047D01*
X116077999Y-129833714D01*
X116132428Y-129643238D01*
X116241285Y-129548000D01*
X116350142Y-129500380D01*
X117819714Y-129500380D02*
X117601999Y-129500380D01*
X117493142Y-129548000D01*
X117438714Y-129595619D01*
X117329857Y-129738476D01*
X117275428Y-129928952D01*
X117275428Y-130309904D01*
X117329857Y-130405142D01*
X117384285Y-130452761D01*
X117493142Y-130500380D01*
X117710857Y-130500380D01*
X117819714Y-130452761D01*
X117874142Y-130405142D01*
X117928571Y-130309904D01*
X117928571Y-130071809D01*
X117874142Y-129976571D01*
X117819714Y-129928952D01*
X117710857Y-129881333D01*
X117493142Y-129881333D01*
X117384285Y-129928952D01*
X117329857Y-129976571D01*
X117275428Y-130071809D01*
X121248714Y-129500380D02*
X121466428Y-129500380D01*
X121575285Y-129548000D01*
X121684142Y-129643238D01*
X121738571Y-129833714D01*
X121738571Y-130167047D01*
X121684142Y-130357523D01*
X121575285Y-130452761D01*
X121466428Y-130500380D01*
X121248714Y-130500380D01*
X121139857Y-130452761D01*
X121030999Y-130357523D01*
X120976571Y-130167047D01*
X120976571Y-129833714D01*
X121030999Y-129643238D01*
X121139857Y-129548000D01*
X121248714Y-129500380D01*
X122119571Y-129500380D02*
X122881571Y-129500380D01*
X122391714Y-130500380D01*
X126147285Y-129500380D02*
X126364999Y-129500380D01*
X126473857Y-129548000D01*
X126582714Y-129643238D01*
X126637142Y-129833714D01*
X126637142Y-130167047D01*
X126582714Y-130357523D01*
X126473857Y-130452761D01*
X126364999Y-130500380D01*
X126147285Y-130500380D01*
X126038428Y-130452761D01*
X125929571Y-130357523D01*
X125875142Y-130167047D01*
X125875142Y-129833714D01*
X125929571Y-129643238D01*
X126038428Y-129548000D01*
X126147285Y-129500380D01*
X127290285Y-129928952D02*
X127181428Y-129881333D01*
X127126999Y-129833714D01*
X127072571Y-129738476D01*
X127072571Y-129690857D01*
X127126999Y-129595619D01*
X127181428Y-129548000D01*
X127290285Y-129500380D01*
X127507999Y-129500380D01*
X127616857Y-129548000D01*
X127671285Y-129595619D01*
X127725714Y-129690857D01*
X127725714Y-129738476D01*
X127671285Y-129833714D01*
X127616857Y-129881333D01*
X127507999Y-129928952D01*
X127290285Y-129928952D01*
X127181428Y-129976571D01*
X127126999Y-130024190D01*
X127072571Y-130119428D01*
X127072571Y-130309904D01*
X127126999Y-130405142D01*
X127181428Y-130452761D01*
X127290285Y-130500380D01*
X127507999Y-130500380D01*
X127616857Y-130452761D01*
X127671285Y-130405142D01*
X127725714Y-130309904D01*
X127725714Y-130119428D01*
X127671285Y-130024190D01*
X127616857Y-129976571D01*
X127507999Y-129928952D01*
X84566285Y-130119428D02*
X85328190Y-130119428D01*
X84947238Y-130500380D02*
X84947238Y-129738476D01*
X86280571Y-129500380D02*
X85804380Y-129500380D01*
X85756761Y-129976571D01*
X85804380Y-129928952D01*
X85899619Y-129881333D01*
X86137714Y-129881333D01*
X86232952Y-129928952D01*
X86280571Y-129976571D01*
X86328190Y-130071809D01*
X86328190Y-130309904D01*
X86280571Y-130405142D01*
X86232952Y-130452761D01*
X86137714Y-130500380D01*
X85899619Y-130500380D01*
X85804380Y-130452761D01*
X85756761Y-130405142D01*
X86613904Y-129500380D02*
X86947238Y-130500380D01*
X87280571Y-129500380D01*
X80010095Y-129548000D02*
X79914857Y-129500380D01*
X79772000Y-129500380D01*
X79629142Y-129548000D01*
X79533904Y-129643238D01*
X79486285Y-129738476D01*
X79438666Y-129928952D01*
X79438666Y-130071809D01*
X79486285Y-130262285D01*
X79533904Y-130357523D01*
X79629142Y-130452761D01*
X79772000Y-130500380D01*
X79867238Y-130500380D01*
X80010095Y-130452761D01*
X80057714Y-130405142D01*
X80057714Y-130071809D01*
X79867238Y-130071809D01*
X80486285Y-130500380D02*
X80486285Y-129500380D01*
X81057714Y-130500380D01*
X81057714Y-129500380D01*
X81533904Y-130500380D02*
X81533904Y-129500380D01*
X81772000Y-129500380D01*
X81914857Y-129548000D01*
X82010095Y-129643238D01*
X82057714Y-129738476D01*
X82105333Y-129928952D01*
X82105333Y-130071809D01*
X82057714Y-130262285D01*
X82010095Y-130357523D01*
X81914857Y-130452761D01*
X81772000Y-130500380D01*
X81533904Y-130500380D01*
X85979142Y-62428380D02*
X85979142Y-61428380D01*
X86455333Y-62428380D02*
X86455333Y-61428380D01*
X87026761Y-62428380D01*
X87026761Y-61428380D01*
X87502952Y-62047428D02*
X88264857Y-62047428D01*
X87883904Y-62428380D02*
X87883904Y-61666476D01*
X80899142Y-62428380D02*
X80899142Y-61428380D01*
X81375333Y-62428380D02*
X81375333Y-61428380D01*
X81946761Y-62428380D01*
X81946761Y-61428380D01*
X82422952Y-62047428D02*
X83184857Y-62047428D01*
X82803904Y-62428380D02*
X82803904Y-61666476D01*
X91482761Y-62428380D02*
X91482761Y-61428380D01*
X92083238Y-61856952D02*
X91990857Y-61809333D01*
X91944666Y-61761714D01*
X91898476Y-61666476D01*
X91898476Y-61618857D01*
X91944666Y-61523619D01*
X91990857Y-61476000D01*
X92083238Y-61428380D01*
X92268000Y-61428380D01*
X92360380Y-61476000D01*
X92406571Y-61523619D01*
X92452761Y-61618857D01*
X92452761Y-61666476D01*
X92406571Y-61761714D01*
X92360380Y-61809333D01*
X92268000Y-61856952D01*
X92083238Y-61856952D01*
X91990857Y-61904571D01*
X91944666Y-61952190D01*
X91898476Y-62047428D01*
X91898476Y-62237904D01*
X91944666Y-62333142D01*
X91990857Y-62380761D01*
X92083238Y-62428380D01*
X92268000Y-62428380D01*
X92360380Y-62380761D01*
X92406571Y-62333142D01*
X92452761Y-62237904D01*
X92452761Y-62047428D01*
X92406571Y-61952190D01*
X92360380Y-61904571D01*
X92268000Y-61856952D01*
X96563714Y-62428380D02*
X96563714Y-61428380D01*
X96933238Y-61428380D02*
X97579904Y-61428380D01*
X97164190Y-62428380D01*
X101644666Y-62428380D02*
X101644666Y-61428380D01*
X102522285Y-61428380D02*
X102337523Y-61428380D01*
X102245142Y-61476000D01*
X102198952Y-61523619D01*
X102106571Y-61666476D01*
X102060380Y-61856952D01*
X102060380Y-62237904D01*
X102106571Y-62333142D01*
X102152761Y-62380761D01*
X102245142Y-62428380D01*
X102429904Y-62428380D01*
X102522285Y-62380761D01*
X102568476Y-62333142D01*
X102614666Y-62237904D01*
X102614666Y-61999809D01*
X102568476Y-61904571D01*
X102522285Y-61856952D01*
X102429904Y-61809333D01*
X102245142Y-61809333D01*
X102152761Y-61856952D01*
X102106571Y-61904571D01*
X102060380Y-61999809D01*
X106725619Y-62428380D02*
X106725619Y-61428380D01*
X107649428Y-61428380D02*
X107187523Y-61428380D01*
X107141333Y-61904571D01*
X107187523Y-61856952D01*
X107279904Y-61809333D01*
X107510857Y-61809333D01*
X107603238Y-61856952D01*
X107649428Y-61904571D01*
X107695619Y-61999809D01*
X107695619Y-62237904D01*
X107649428Y-62333142D01*
X107603238Y-62380761D01*
X107510857Y-62428380D01*
X107279904Y-62428380D01*
X107187523Y-62380761D01*
X107141333Y-62333142D01*
X111806571Y-62428380D02*
X111806571Y-61428380D01*
X112684190Y-61761714D02*
X112684190Y-62428380D01*
X112453238Y-61380761D02*
X112222285Y-62095047D01*
X112822761Y-62095047D01*
X116887523Y-62428380D02*
X116887523Y-61428380D01*
X117257047Y-61428380D02*
X117857523Y-61428380D01*
X117534190Y-61809333D01*
X117672761Y-61809333D01*
X117765142Y-61856952D01*
X117811333Y-61904571D01*
X117857523Y-61999809D01*
X117857523Y-62237904D01*
X117811333Y-62333142D01*
X117765142Y-62380761D01*
X117672761Y-62428380D01*
X117395619Y-62428380D01*
X117303238Y-62380761D01*
X117257047Y-62333142D01*
X121968476Y-62428380D02*
X121968476Y-61428380D01*
X122384190Y-61523619D02*
X122430380Y-61476000D01*
X122522761Y-61428380D01*
X122753714Y-61428380D01*
X122846095Y-61476000D01*
X122892285Y-61523619D01*
X122938476Y-61618857D01*
X122938476Y-61714095D01*
X122892285Y-61856952D01*
X122338000Y-62428380D01*
X122938476Y-62428380D01*
X127049428Y-62428380D02*
X127049428Y-61428380D01*
X128019428Y-62428380D02*
X127465142Y-62428380D01*
X127742285Y-62428380D02*
X127742285Y-61428380D01*
X127649904Y-61571238D01*
X127557523Y-61666476D01*
X127465142Y-61714095D01*
X84820285Y-118689428D02*
X85582190Y-118689428D01*
X85201238Y-119070380D02*
X85201238Y-118308476D01*
X86534571Y-118070380D02*
X86058380Y-118070380D01*
X86010761Y-118546571D01*
X86058380Y-118498952D01*
X86153619Y-118451333D01*
X86391714Y-118451333D01*
X86486952Y-118498952D01*
X86534571Y-118546571D01*
X86582190Y-118641809D01*
X86582190Y-118879904D01*
X86534571Y-118975142D01*
X86486952Y-119022761D01*
X86391714Y-119070380D01*
X86153619Y-119070380D01*
X86058380Y-119022761D01*
X86010761Y-118975142D01*
X86867904Y-118070380D02*
X87201238Y-119070380D01*
X87534571Y-118070380D01*
X82875904Y-117292380D02*
X82875904Y-116292380D01*
X83304476Y-116387619D02*
X83352095Y-116340000D01*
X83447333Y-116292380D01*
X83685428Y-116292380D01*
X83780666Y-116340000D01*
X83828285Y-116387619D01*
X83875904Y-116482857D01*
X83875904Y-116578095D01*
X83828285Y-116720952D01*
X83256857Y-117292380D01*
X83875904Y-117292380D01*
X84875904Y-117197142D02*
X84828285Y-117244761D01*
X84685428Y-117292380D01*
X84590190Y-117292380D01*
X84447333Y-117244761D01*
X84352095Y-117149523D01*
X84304476Y-117054285D01*
X84256857Y-116863809D01*
X84256857Y-116720952D01*
X84304476Y-116530476D01*
X84352095Y-116435238D01*
X84447333Y-116340000D01*
X84590190Y-116292380D01*
X84685428Y-116292380D01*
X84828285Y-116340000D01*
X84875904Y-116387619D01*
X86066380Y-117292380D02*
X86066380Y-116292380D01*
X86447333Y-116292380D01*
X86542571Y-116340000D01*
X86590190Y-116387619D01*
X86637809Y-116482857D01*
X86637809Y-116625714D01*
X86590190Y-116720952D01*
X86542571Y-116768571D01*
X86447333Y-116816190D01*
X86066380Y-116816190D01*
X87494952Y-116625714D02*
X87494952Y-117292380D01*
X87066380Y-116625714D02*
X87066380Y-117149523D01*
X87114000Y-117244761D01*
X87209238Y-117292380D01*
X87352095Y-117292380D01*
X87447333Y-117244761D01*
X87494952Y-117197142D01*
X88114000Y-117292380D02*
X88018761Y-117244761D01*
X87971142Y-117149523D01*
X87971142Y-116292380D01*
X88637809Y-117292380D02*
X88542571Y-117244761D01*
X88494952Y-117149523D01*
X88494952Y-116292380D01*
X89447333Y-116625714D02*
X89447333Y-117292380D01*
X89018761Y-116625714D02*
X89018761Y-117149523D01*
X89066380Y-117244761D01*
X89161619Y-117292380D01*
X89304476Y-117292380D01*
X89399714Y-117244761D01*
X89447333Y-117197142D01*
X89923523Y-116625714D02*
X89923523Y-117625714D01*
X89923523Y-116673333D02*
X90018761Y-116625714D01*
X90209238Y-116625714D01*
X90304476Y-116673333D01*
X90352095Y-116720952D01*
X90399714Y-116816190D01*
X90399714Y-117101904D01*
X90352095Y-117197142D01*
X90304476Y-117244761D01*
X90209238Y-117292380D01*
X90018761Y-117292380D01*
X89923523Y-117244761D01*
X72032761Y-84073047D02*
X72080380Y-83977809D01*
X72080380Y-83787333D01*
X72032761Y-83692095D01*
X71937523Y-83644476D01*
X71889904Y-83644476D01*
X71794666Y-83692095D01*
X71747047Y-83787333D01*
X71747047Y-83930190D01*
X71699428Y-84025428D01*
X71604190Y-84073047D01*
X71556571Y-84073047D01*
X71461333Y-84025428D01*
X71413714Y-83930190D01*
X71413714Y-83787333D01*
X71461333Y-83692095D01*
X72080380Y-83073047D02*
X72032761Y-83168285D01*
X71937523Y-83215904D01*
X71080380Y-83215904D01*
X72080380Y-82263523D02*
X71556571Y-82263523D01*
X71461333Y-82311142D01*
X71413714Y-82406380D01*
X71413714Y-82596857D01*
X71461333Y-82692095D01*
X72032761Y-82263523D02*
X72080380Y-82358761D01*
X72080380Y-82596857D01*
X72032761Y-82692095D01*
X71937523Y-82739714D01*
X71842285Y-82739714D01*
X71747047Y-82692095D01*
X71699428Y-82596857D01*
X71699428Y-82358761D01*
X71651809Y-82263523D01*
X71413714Y-81882571D02*
X72080380Y-81644476D01*
X71413714Y-81406380D01*
X72032761Y-80644476D02*
X72080380Y-80739714D01*
X72080380Y-80930190D01*
X72032761Y-81025428D01*
X71937523Y-81073047D01*
X71556571Y-81073047D01*
X71461333Y-81025428D01*
X71413714Y-80930190D01*
X71413714Y-80739714D01*
X71461333Y-80644476D01*
X71556571Y-80596857D01*
X71651809Y-80596857D01*
X71747047Y-81073047D01*
X71699428Y-80168285D02*
X71699428Y-79406380D01*
X71508952Y-78787333D02*
X71461333Y-78882571D01*
X71413714Y-78930190D01*
X71318476Y-78977809D01*
X71270857Y-78977809D01*
X71175619Y-78930190D01*
X71128000Y-78882571D01*
X71080380Y-78787333D01*
X71080380Y-78596857D01*
X71128000Y-78501619D01*
X71175619Y-78454000D01*
X71270857Y-78406380D01*
X71318476Y-78406380D01*
X71413714Y-78454000D01*
X71461333Y-78501619D01*
X71508952Y-78596857D01*
X71508952Y-78787333D01*
X71556571Y-78882571D01*
X71604190Y-78930190D01*
X71699428Y-78977809D01*
X71889904Y-78977809D01*
X71985142Y-78930190D01*
X72032761Y-78882571D01*
X72080380Y-78787333D01*
X72080380Y-78596857D01*
X72032761Y-78501619D01*
X71985142Y-78454000D01*
X71889904Y-78406380D01*
X71699428Y-78406380D01*
X71604190Y-78454000D01*
X71556571Y-78501619D01*
X71508952Y-78596857D01*
X72080380Y-77977809D02*
X71413714Y-77977809D01*
X71080380Y-77977809D02*
X71128000Y-78025428D01*
X71175619Y-77977809D01*
X71128000Y-77930190D01*
X71080380Y-77977809D01*
X71175619Y-77977809D01*
X71413714Y-77501619D02*
X72080380Y-77501619D01*
X71508952Y-77501619D02*
X71461333Y-77454000D01*
X71413714Y-77358761D01*
X71413714Y-77215904D01*
X71461333Y-77120666D01*
X71556571Y-77073047D01*
X72080380Y-77073047D01*
X71699428Y-76596857D02*
X71699428Y-75834952D01*
X71508952Y-75215904D02*
X71461333Y-75311142D01*
X71413714Y-75358761D01*
X71318476Y-75406380D01*
X71270857Y-75406380D01*
X71175619Y-75358761D01*
X71128000Y-75311142D01*
X71080380Y-75215904D01*
X71080380Y-75025428D01*
X71128000Y-74930190D01*
X71175619Y-74882571D01*
X71270857Y-74834952D01*
X71318476Y-74834952D01*
X71413714Y-74882571D01*
X71461333Y-74930190D01*
X71508952Y-75025428D01*
X71508952Y-75215904D01*
X71556571Y-75311142D01*
X71604190Y-75358761D01*
X71699428Y-75406380D01*
X71889904Y-75406380D01*
X71985142Y-75358761D01*
X72032761Y-75311142D01*
X72080380Y-75215904D01*
X72080380Y-75025428D01*
X72032761Y-74930190D01*
X71985142Y-74882571D01*
X71889904Y-74834952D01*
X71699428Y-74834952D01*
X71604190Y-74882571D01*
X71556571Y-74930190D01*
X71508952Y-75025428D01*
X72080380Y-74263523D02*
X72032761Y-74358761D01*
X71985142Y-74406380D01*
X71889904Y-74454000D01*
X71604190Y-74454000D01*
X71508952Y-74406380D01*
X71461333Y-74358761D01*
X71413714Y-74263523D01*
X71413714Y-74120666D01*
X71461333Y-74025428D01*
X71508952Y-73977809D01*
X71604190Y-73930190D01*
X71889904Y-73930190D01*
X71985142Y-73977809D01*
X72032761Y-74025428D01*
X72080380Y-74120666D01*
X72080380Y-74263523D01*
X71413714Y-73073047D02*
X72080380Y-73073047D01*
X71413714Y-73501619D02*
X71937523Y-73501619D01*
X72032761Y-73454000D01*
X72080380Y-73358761D01*
X72080380Y-73215904D01*
X72032761Y-73120666D01*
X71985142Y-73073047D01*
X71413714Y-72739714D02*
X71413714Y-72358761D01*
X71080380Y-72596857D02*
X71937523Y-72596857D01*
X72032761Y-72549238D01*
X72080380Y-72454000D01*
X72080380Y-72358761D01*
X71699428Y-72025428D02*
X71699428Y-71263523D01*
X72080380Y-70263523D02*
X72080380Y-70834952D01*
X72080380Y-70549238D02*
X71080380Y-70549238D01*
X71223238Y-70644476D01*
X71318476Y-70739714D01*
X71366095Y-70834952D01*
X71985142Y-69834952D02*
X72032761Y-69787333D01*
X72080380Y-69834952D01*
X72032761Y-69882571D01*
X71985142Y-69834952D01*
X72080380Y-69834952D01*
X71080380Y-69168285D02*
X71080380Y-69073047D01*
X71128000Y-68977809D01*
X71175619Y-68930190D01*
X71270857Y-68882571D01*
X71461333Y-68834952D01*
X71699428Y-68834952D01*
X71889904Y-68882571D01*
X71985142Y-68930190D01*
X72032761Y-68977809D01*
X72080380Y-69073047D01*
X72080380Y-69168285D01*
X72032761Y-69263523D01*
X71985142Y-69311142D01*
X71889904Y-69358761D01*
X71699428Y-69406380D01*
X71461333Y-69406380D01*
X71270857Y-69358761D01*
X71175619Y-69311142D01*
X71128000Y-69263523D01*
X71080380Y-69168285D01*
X121172285Y-112874178D02*
X121934190Y-112874178D01*
X121553238Y-113255130D02*
X121553238Y-112493226D01*
X122886571Y-112255130D02*
X122410380Y-112255130D01*
X122362761Y-112731321D01*
X122410380Y-112683702D01*
X122505619Y-112636083D01*
X122743714Y-112636083D01*
X122838952Y-112683702D01*
X122886571Y-112731321D01*
X122934190Y-112826559D01*
X122934190Y-113064654D01*
X122886571Y-113159892D01*
X122838952Y-113207511D01*
X122743714Y-113255130D01*
X122505619Y-113255130D01*
X122410380Y-113207511D01*
X122362761Y-113159892D01*
X123219904Y-112255130D02*
X123553238Y-113255130D01*
X123886571Y-112255130D01*
X124322523Y-88073380D02*
X123846333Y-88073380D01*
X123798714Y-88549571D01*
X123846333Y-88501952D01*
X123941571Y-88454333D01*
X124179666Y-88454333D01*
X124274904Y-88501952D01*
X124322523Y-88549571D01*
X124370142Y-88644809D01*
X124370142Y-88882904D01*
X124322523Y-88978142D01*
X124274904Y-89025761D01*
X124179666Y-89073380D01*
X123941571Y-89073380D01*
X123846333Y-89025761D01*
X123798714Y-88978142D01*
X124655857Y-88073380D02*
X124989190Y-89073380D01*
X125322523Y-88073380D01*
X75739809Y-93153380D02*
X76358857Y-93153380D01*
X76025523Y-93534333D01*
X76168380Y-93534333D01*
X76263619Y-93581952D01*
X76311238Y-93629571D01*
X76358857Y-93724809D01*
X76358857Y-93962904D01*
X76311238Y-94058142D01*
X76263619Y-94105761D01*
X76168380Y-94153380D01*
X75882666Y-94153380D01*
X75787428Y-94105761D01*
X75739809Y-94058142D01*
X76787428Y-94058142D02*
X76835047Y-94105761D01*
X76787428Y-94153380D01*
X76739809Y-94105761D01*
X76787428Y-94058142D01*
X76787428Y-94153380D01*
X77168380Y-93153380D02*
X77787428Y-93153380D01*
X77454095Y-93534333D01*
X77596952Y-93534333D01*
X77692190Y-93581952D01*
X77739809Y-93629571D01*
X77787428Y-93724809D01*
X77787428Y-93962904D01*
X77739809Y-94058142D01*
X77692190Y-94105761D01*
X77596952Y-94153380D01*
X77311238Y-94153380D01*
X77216000Y-94105761D01*
X77168380Y-94058142D01*
X78073142Y-93153380D02*
X78406476Y-94153380D01*
X78739809Y-93153380D01*
X101305711Y-112382136D02*
X101477139Y-112382136D01*
X101562854Y-112429756D01*
X101648568Y-112524994D01*
X101691425Y-112715470D01*
X101691425Y-113048803D01*
X101648568Y-113239279D01*
X101562854Y-113334517D01*
X101477139Y-113382136D01*
X101305711Y-113382136D01*
X101219997Y-113334517D01*
X101134282Y-113239279D01*
X101091425Y-113048803D01*
X101091425Y-112715470D01*
X101134282Y-112524994D01*
X101219997Y-112429756D01*
X101305711Y-112382136D01*
X102548568Y-113382136D02*
X102034282Y-113382136D01*
X102291425Y-113382136D02*
X102291425Y-112382136D01*
X102205711Y-112524994D01*
X102119997Y-112620232D01*
X102034282Y-112667851D01*
X103791425Y-112382136D02*
X103962854Y-112382136D01*
X104048568Y-112429756D01*
X104134282Y-112524994D01*
X104177139Y-112715470D01*
X104177139Y-113048803D01*
X104134282Y-113239279D01*
X104048568Y-113334517D01*
X103962854Y-113382136D01*
X103791425Y-113382136D01*
X103705711Y-113334517D01*
X103619997Y-113239279D01*
X103577139Y-113048803D01*
X103577139Y-112715470D01*
X103619997Y-112524994D01*
X103705711Y-112429756D01*
X103791425Y-112382136D01*
X104519997Y-112477375D02*
X104562854Y-112429756D01*
X104648568Y-112382136D01*
X104862854Y-112382136D01*
X104948568Y-112429756D01*
X104991425Y-112477375D01*
X105034282Y-112572613D01*
X105034282Y-112667851D01*
X104991425Y-112810708D01*
X104477139Y-113382136D01*
X105034282Y-113382136D01*
X106277139Y-112382136D02*
X106448568Y-112382136D01*
X106534282Y-112429756D01*
X106619997Y-112524994D01*
X106662854Y-112715470D01*
X106662854Y-113048803D01*
X106619997Y-113239279D01*
X106534282Y-113334517D01*
X106448568Y-113382136D01*
X106277139Y-113382136D01*
X106191425Y-113334517D01*
X106105711Y-113239279D01*
X106062854Y-113048803D01*
X106062854Y-112715470D01*
X106105711Y-112524994D01*
X106191425Y-112429756D01*
X106277139Y-112382136D01*
X106962854Y-112382136D02*
X107519997Y-112382136D01*
X107219997Y-112763089D01*
X107348568Y-112763089D01*
X107434282Y-112810708D01*
X107477139Y-112858327D01*
X107519997Y-112953565D01*
X107519997Y-113191660D01*
X107477139Y-113286898D01*
X107434282Y-113334517D01*
X107348568Y-113382136D01*
X107091425Y-113382136D01*
X107005711Y-113334517D01*
X106962854Y-113286898D01*
X108762854Y-112382136D02*
X108934282Y-112382136D01*
X109019997Y-112429756D01*
X109105711Y-112524994D01*
X109148568Y-112715470D01*
X109148568Y-113048803D01*
X109105711Y-113239279D01*
X109019997Y-113334517D01*
X108934282Y-113382136D01*
X108762854Y-113382136D01*
X108677139Y-113334517D01*
X108591425Y-113239279D01*
X108548568Y-113048803D01*
X108548568Y-112715470D01*
X108591425Y-112524994D01*
X108677139Y-112429756D01*
X108762854Y-112382136D01*
X109919997Y-112715470D02*
X109919997Y-113382136D01*
X109705711Y-112334517D02*
X109491425Y-113048803D01*
X110048568Y-113048803D01*
X111248568Y-112382136D02*
X111419997Y-112382136D01*
X111505711Y-112429756D01*
X111591425Y-112524994D01*
X111634282Y-112715470D01*
X111634282Y-113048803D01*
X111591425Y-113239279D01*
X111505711Y-113334517D01*
X111419997Y-113382136D01*
X111248568Y-113382136D01*
X111162854Y-113334517D01*
X111077139Y-113239279D01*
X111034282Y-113048803D01*
X111034282Y-112715470D01*
X111077139Y-112524994D01*
X111162854Y-112429756D01*
X111248568Y-112382136D01*
X112448568Y-112382136D02*
X112019997Y-112382136D01*
X111977139Y-112858327D01*
X112019997Y-112810708D01*
X112105711Y-112763089D01*
X112319997Y-112763089D01*
X112405711Y-112810708D01*
X112448568Y-112858327D01*
X112491425Y-112953565D01*
X112491425Y-113191660D01*
X112448568Y-113286898D01*
X112405711Y-113334517D01*
X112319997Y-113382136D01*
X112105711Y-113382136D01*
X112019997Y-113334517D01*
X111977139Y-113286898D01*
X113734282Y-112382136D02*
X113905711Y-112382136D01*
X113991425Y-112429756D01*
X114077139Y-112524994D01*
X114119997Y-112715470D01*
X114119997Y-113048803D01*
X114077139Y-113239279D01*
X113991425Y-113334517D01*
X113905711Y-113382136D01*
X113734282Y-113382136D01*
X113648568Y-113334517D01*
X113562854Y-113239279D01*
X113519997Y-113048803D01*
X113519997Y-112715470D01*
X113562854Y-112524994D01*
X113648568Y-112429756D01*
X113734282Y-112382136D01*
X114891425Y-112382136D02*
X114719997Y-112382136D01*
X114634282Y-112429756D01*
X114591425Y-112477375D01*
X114505711Y-112620232D01*
X114462854Y-112810708D01*
X114462854Y-113191660D01*
X114505711Y-113286898D01*
X114548568Y-113334517D01*
X114634282Y-113382136D01*
X114805711Y-113382136D01*
X114891425Y-113334517D01*
X114934282Y-113286898D01*
X114977139Y-113191660D01*
X114977139Y-112953565D01*
X114934282Y-112858327D01*
X114891425Y-112810708D01*
X114805711Y-112763089D01*
X114634282Y-112763089D01*
X114548568Y-112810708D01*
X114505711Y-112858327D01*
X114462854Y-112953565D01*
X116219997Y-112382136D02*
X116391425Y-112382136D01*
X116477139Y-112429756D01*
X116562854Y-112524994D01*
X116605711Y-112715470D01*
X116605711Y-113048803D01*
X116562854Y-113239279D01*
X116477139Y-113334517D01*
X116391425Y-113382136D01*
X116219997Y-113382136D01*
X116134282Y-113334517D01*
X116048568Y-113239279D01*
X116005711Y-113048803D01*
X116005711Y-112715470D01*
X116048568Y-112524994D01*
X116134282Y-112429756D01*
X116219997Y-112382136D01*
X116905711Y-112382136D02*
X117505711Y-112382136D01*
X117119997Y-113382136D01*
X118705711Y-112382136D02*
X118877139Y-112382136D01*
X118962854Y-112429756D01*
X119048568Y-112524994D01*
X119091425Y-112715470D01*
X119091425Y-113048803D01*
X119048568Y-113239279D01*
X118962854Y-113334517D01*
X118877139Y-113382136D01*
X118705711Y-113382136D01*
X118619997Y-113334517D01*
X118534282Y-113239279D01*
X118491425Y-113048803D01*
X118491425Y-112715470D01*
X118534282Y-112524994D01*
X118619997Y-112429756D01*
X118705711Y-112382136D01*
X119605711Y-112810708D02*
X119519997Y-112763089D01*
X119477139Y-112715470D01*
X119434282Y-112620232D01*
X119434282Y-112572613D01*
X119477139Y-112477375D01*
X119519997Y-112429756D01*
X119605711Y-112382136D01*
X119777139Y-112382136D01*
X119862854Y-112429756D01*
X119905711Y-112477375D01*
X119948568Y-112572613D01*
X119948568Y-112620232D01*
X119905711Y-112715470D01*
X119862854Y-112763089D01*
X119777139Y-112810708D01*
X119605711Y-112810708D01*
X119519997Y-112858327D01*
X119477139Y-112905946D01*
X119434282Y-113001184D01*
X119434282Y-113191660D01*
X119477139Y-113286898D01*
X119519997Y-113334517D01*
X119605711Y-113382136D01*
X119777139Y-113382136D01*
X119862854Y-113334517D01*
X119905711Y-113286898D01*
X119948568Y-113191660D01*
X119948568Y-113001184D01*
X119905711Y-112905946D01*
X119862854Y-112858327D01*
X119777139Y-112810708D01*
X97947095Y-112429750D02*
X97851857Y-112382130D01*
X97709000Y-112382130D01*
X97566142Y-112429750D01*
X97470904Y-112524988D01*
X97423285Y-112620226D01*
X97375666Y-112810702D01*
X97375666Y-112953559D01*
X97423285Y-113144035D01*
X97470904Y-113239273D01*
X97566142Y-113334511D01*
X97709000Y-113382130D01*
X97804238Y-113382130D01*
X97947095Y-113334511D01*
X97994714Y-113286892D01*
X97994714Y-112953559D01*
X97804238Y-112953559D01*
X98423285Y-113382130D02*
X98423285Y-112382130D01*
X98994714Y-113382130D01*
X98994714Y-112382130D01*
X99470904Y-113382130D02*
X99470904Y-112382130D01*
X99709000Y-112382130D01*
X99851857Y-112429750D01*
X99947095Y-112524988D01*
X99994714Y-112620226D01*
X100042333Y-112810702D01*
X100042333Y-112953559D01*
X99994714Y-113144035D01*
X99947095Y-113239273D01*
X99851857Y-113334511D01*
X99709000Y-113382130D01*
X99470904Y-113382130D01*
X123243095Y-95741000D02*
X123147857Y-95693380D01*
X123005000Y-95693380D01*
X122862142Y-95741000D01*
X122766904Y-95836238D01*
X122719285Y-95931476D01*
X122671666Y-96121952D01*
X122671666Y-96264809D01*
X122719285Y-96455285D01*
X122766904Y-96550523D01*
X122862142Y-96645761D01*
X123005000Y-96693380D01*
X123100238Y-96693380D01*
X123243095Y-96645761D01*
X123290714Y-96598142D01*
X123290714Y-96264809D01*
X123100238Y-96264809D01*
X123719285Y-96693380D02*
X123719285Y-95693380D01*
X124290714Y-96693380D01*
X124290714Y-95693380D01*
X124766904Y-96693380D02*
X124766904Y-95693380D01*
X125005000Y-95693380D01*
X125147857Y-95741000D01*
X125243095Y-95836238D01*
X125290714Y-95931476D01*
X125338333Y-96121952D01*
X125338333Y-96264809D01*
X125290714Y-96455285D01*
X125243095Y-96550523D01*
X125147857Y-96645761D01*
X125005000Y-96693380D01*
X124766904Y-96693380D01*
X80264095Y-118118000D02*
X80168857Y-118070380D01*
X80026000Y-118070380D01*
X79883142Y-118118000D01*
X79787904Y-118213238D01*
X79740285Y-118308476D01*
X79692666Y-118498952D01*
X79692666Y-118641809D01*
X79740285Y-118832285D01*
X79787904Y-118927523D01*
X79883142Y-119022761D01*
X80026000Y-119070380D01*
X80121238Y-119070380D01*
X80264095Y-119022761D01*
X80311714Y-118975142D01*
X80311714Y-118641809D01*
X80121238Y-118641809D01*
X80740285Y-119070380D02*
X80740285Y-118070380D01*
X81311714Y-119070380D01*
X81311714Y-118070380D01*
X81787904Y-119070380D02*
X81787904Y-118070380D01*
X82026000Y-118070380D01*
X82168857Y-118118000D01*
X82264095Y-118213238D01*
X82311714Y-118308476D01*
X82359333Y-118498952D01*
X82359333Y-118641809D01*
X82311714Y-118832285D01*
X82264095Y-118927523D01*
X82168857Y-119022761D01*
X82026000Y-119070380D01*
X81787904Y-119070380D01*
X76152666Y-90661000D02*
X76057428Y-90613380D01*
X75914571Y-90613380D01*
X75771714Y-90661000D01*
X75676476Y-90756238D01*
X75628857Y-90851476D01*
X75581238Y-91041952D01*
X75581238Y-91184809D01*
X75628857Y-91375285D01*
X75676476Y-91470523D01*
X75771714Y-91565761D01*
X75914571Y-91613380D01*
X76009809Y-91613380D01*
X76152666Y-91565761D01*
X76200285Y-91518142D01*
X76200285Y-91184809D01*
X76009809Y-91184809D01*
X76628857Y-91613380D02*
X76628857Y-90613380D01*
X77200285Y-91613380D01*
X77200285Y-90613380D01*
X77676476Y-91613380D02*
X77676476Y-90613380D01*
X77914571Y-90613380D01*
X78057428Y-90661000D01*
X78152666Y-90756238D01*
X78200285Y-90851476D01*
X78247904Y-91041952D01*
X78247904Y-91184809D01*
X78200285Y-91375285D01*
X78152666Y-91470523D01*
X78057428Y-91565761D01*
X77914571Y-91613380D01*
X77676476Y-91613380D01*
X78676476Y-91613380D02*
X78676476Y-90613380D01*
X79057428Y-90613380D01*
X79152666Y-90661000D01*
X79200285Y-90708619D01*
X79247904Y-90803857D01*
X79247904Y-90946714D01*
X79200285Y-91041952D01*
X79152666Y-91089571D01*
X79057428Y-91137190D01*
X78676476Y-91137190D01*
X79581238Y-90613380D02*
X79819333Y-91613380D01*
X80009809Y-90899095D01*
X80200285Y-91613380D01*
X80438380Y-90613380D01*
X81390761Y-91613380D02*
X81057428Y-91137190D01*
X80819333Y-91613380D02*
X80819333Y-90613380D01*
X81200285Y-90613380D01*
X81295523Y-90661000D01*
X81343142Y-90708619D01*
X81390761Y-90803857D01*
X81390761Y-90946714D01*
X81343142Y-91041952D01*
X81295523Y-91089571D01*
X81200285Y-91137190D01*
X80819333Y-91137190D01*
X122814523Y-101725761D02*
X122957380Y-101773380D01*
X123195476Y-101773380D01*
X123290714Y-101725761D01*
X123338333Y-101678142D01*
X123385952Y-101582904D01*
X123385952Y-101487666D01*
X123338333Y-101392428D01*
X123290714Y-101344809D01*
X123195476Y-101297190D01*
X123005000Y-101249571D01*
X122909761Y-101201952D01*
X122862142Y-101154333D01*
X122814523Y-101059095D01*
X122814523Y-100963857D01*
X122862142Y-100868619D01*
X122909761Y-100821000D01*
X123005000Y-100773380D01*
X123243095Y-100773380D01*
X123385952Y-100821000D01*
X124385952Y-101678142D02*
X124338333Y-101725761D01*
X124195476Y-101773380D01*
X124100238Y-101773380D01*
X123957380Y-101725761D01*
X123862142Y-101630523D01*
X123814523Y-101535285D01*
X123766904Y-101344809D01*
X123766904Y-101201952D01*
X123814523Y-101011476D01*
X123862142Y-100916238D01*
X123957380Y-100821000D01*
X124100238Y-100773380D01*
X124195476Y-100773380D01*
X124338333Y-100821000D01*
X124385952Y-100868619D01*
X125290714Y-101773380D02*
X124814523Y-101773380D01*
X124814523Y-100773380D01*
X122790714Y-99185761D02*
X122933571Y-99233380D01*
X123171666Y-99233380D01*
X123266904Y-99185761D01*
X123314523Y-99138142D01*
X123362142Y-99042904D01*
X123362142Y-98947666D01*
X123314523Y-98852428D01*
X123266904Y-98804809D01*
X123171666Y-98757190D01*
X122981190Y-98709571D01*
X122885952Y-98661952D01*
X122838333Y-98614333D01*
X122790714Y-98519095D01*
X122790714Y-98423857D01*
X122838333Y-98328619D01*
X122885952Y-98281000D01*
X122981190Y-98233380D01*
X123219285Y-98233380D01*
X123362142Y-98281000D01*
X123790714Y-99233380D02*
X123790714Y-98233380D01*
X124028809Y-98233380D01*
X124171666Y-98281000D01*
X124266904Y-98376238D01*
X124314523Y-98471476D01*
X124362142Y-98661952D01*
X124362142Y-98804809D01*
X124314523Y-98995285D01*
X124266904Y-99090523D01*
X124171666Y-99185761D01*
X124028809Y-99233380D01*
X123790714Y-99233380D01*
X124743095Y-98947666D02*
X125219285Y-98947666D01*
X124647857Y-99233380D02*
X124981190Y-98233380D01*
X125314523Y-99233380D01*
X122528809Y-93153380D02*
X123147857Y-93153380D01*
X122814523Y-93534333D01*
X122957380Y-93534333D01*
X123052619Y-93581952D01*
X123100238Y-93629571D01*
X123147857Y-93724809D01*
X123147857Y-93962904D01*
X123100238Y-94058142D01*
X123052619Y-94105761D01*
X122957380Y-94153380D01*
X122671666Y-94153380D01*
X122576428Y-94105761D01*
X122528809Y-94058142D01*
X123576428Y-94058142D02*
X123624047Y-94105761D01*
X123576428Y-94153380D01*
X123528809Y-94105761D01*
X123576428Y-94058142D01*
X123576428Y-94153380D01*
X123957380Y-93153380D02*
X124576428Y-93153380D01*
X124243095Y-93534333D01*
X124385952Y-93534333D01*
X124481190Y-93581952D01*
X124528809Y-93629571D01*
X124576428Y-93724809D01*
X124576428Y-93962904D01*
X124528809Y-94058142D01*
X124481190Y-94105761D01*
X124385952Y-94153380D01*
X124100238Y-94153380D01*
X124005000Y-94105761D01*
X123957380Y-94058142D01*
X124862142Y-93153380D02*
X125195476Y-94153380D01*
X125528809Y-93153380D01*
X91240428Y-118070380D02*
X91458142Y-118070380D01*
X91566999Y-118118000D01*
X91675857Y-118213238D01*
X91730285Y-118403714D01*
X91730285Y-118737047D01*
X91675857Y-118927523D01*
X91566999Y-119022761D01*
X91458142Y-119070380D01*
X91240428Y-119070380D01*
X91131571Y-119022761D01*
X91022714Y-118927523D01*
X90968285Y-118737047D01*
X90968285Y-118403714D01*
X91022714Y-118213238D01*
X91131571Y-118118000D01*
X91240428Y-118070380D01*
X92818857Y-119070380D02*
X92165714Y-119070380D01*
X92492285Y-119070380D02*
X92492285Y-118070380D01*
X92383428Y-118213238D01*
X92274571Y-118308476D01*
X92165714Y-118356095D01*
X97009857Y-118070380D02*
X97227571Y-118070380D01*
X97336428Y-118118000D01*
X97445285Y-118213238D01*
X97499714Y-118403714D01*
X97499714Y-118737047D01*
X97445285Y-118927523D01*
X97336428Y-119022761D01*
X97227571Y-119070380D01*
X97009857Y-119070380D01*
X96900999Y-119022761D01*
X96792142Y-118927523D01*
X96737714Y-118737047D01*
X96737714Y-118403714D01*
X96792142Y-118213238D01*
X96900999Y-118118000D01*
X97009857Y-118070380D01*
X97935142Y-118165619D02*
X97989571Y-118118000D01*
X98098428Y-118070380D01*
X98370571Y-118070380D01*
X98479428Y-118118000D01*
X98533857Y-118165619D01*
X98588285Y-118260857D01*
X98588285Y-118356095D01*
X98533857Y-118498952D01*
X97880714Y-119070380D01*
X98588285Y-119070380D01*
X101908428Y-118070380D02*
X102126142Y-118070380D01*
X102234999Y-118118000D01*
X102343857Y-118213238D01*
X102398285Y-118403714D01*
X102398285Y-118737047D01*
X102343857Y-118927523D01*
X102234999Y-119022761D01*
X102126142Y-119070380D01*
X101908428Y-119070380D01*
X101799571Y-119022761D01*
X101690714Y-118927523D01*
X101636285Y-118737047D01*
X101636285Y-118403714D01*
X101690714Y-118213238D01*
X101799571Y-118118000D01*
X101908428Y-118070380D01*
X102779285Y-118070380D02*
X103486857Y-118070380D01*
X103105857Y-118451333D01*
X103269142Y-118451333D01*
X103377999Y-118498952D01*
X103432428Y-118546571D01*
X103486857Y-118641809D01*
X103486857Y-118879904D01*
X103432428Y-118975142D01*
X103377999Y-119022761D01*
X103269142Y-119070380D01*
X102942571Y-119070380D01*
X102833714Y-119022761D01*
X102779285Y-118975142D01*
X106807000Y-118070380D02*
X107024714Y-118070380D01*
X107133571Y-118118000D01*
X107242428Y-118213238D01*
X107296857Y-118403714D01*
X107296857Y-118737047D01*
X107242428Y-118927523D01*
X107133571Y-119022761D01*
X107024714Y-119070380D01*
X106807000Y-119070380D01*
X106698142Y-119022761D01*
X106589285Y-118927523D01*
X106534857Y-118737047D01*
X106534857Y-118403714D01*
X106589285Y-118213238D01*
X106698142Y-118118000D01*
X106807000Y-118070380D01*
X108276571Y-118403714D02*
X108276571Y-119070380D01*
X108004428Y-118022761D02*
X107732285Y-118737047D01*
X108439857Y-118737047D01*
X111705571Y-118070380D02*
X111923285Y-118070380D01*
X112032142Y-118118000D01*
X112140999Y-118213238D01*
X112195428Y-118403714D01*
X112195428Y-118737047D01*
X112140999Y-118927523D01*
X112032142Y-119022761D01*
X111923285Y-119070380D01*
X111705571Y-119070380D01*
X111596714Y-119022761D01*
X111487857Y-118927523D01*
X111433428Y-118737047D01*
X111433428Y-118403714D01*
X111487857Y-118213238D01*
X111596714Y-118118000D01*
X111705571Y-118070380D01*
X113229571Y-118070380D02*
X112685285Y-118070380D01*
X112630857Y-118546571D01*
X112685285Y-118498952D01*
X112794142Y-118451333D01*
X113066285Y-118451333D01*
X113175142Y-118498952D01*
X113229571Y-118546571D01*
X113283999Y-118641809D01*
X113283999Y-118879904D01*
X113229571Y-118975142D01*
X113175142Y-119022761D01*
X113066285Y-119070380D01*
X112794142Y-119070380D01*
X112685285Y-119022761D01*
X112630857Y-118975142D01*
X116604142Y-118070380D02*
X116821857Y-118070380D01*
X116930714Y-118118000D01*
X117039571Y-118213238D01*
X117093999Y-118403714D01*
X117093999Y-118737047D01*
X117039571Y-118927523D01*
X116930714Y-119022761D01*
X116821857Y-119070380D01*
X116604142Y-119070380D01*
X116495285Y-119022761D01*
X116386428Y-118927523D01*
X116331999Y-118737047D01*
X116331999Y-118403714D01*
X116386428Y-118213238D01*
X116495285Y-118118000D01*
X116604142Y-118070380D01*
X118073714Y-118070380D02*
X117855999Y-118070380D01*
X117747142Y-118118000D01*
X117692714Y-118165619D01*
X117583857Y-118308476D01*
X117529428Y-118498952D01*
X117529428Y-118879904D01*
X117583857Y-118975142D01*
X117638285Y-119022761D01*
X117747142Y-119070380D01*
X117964857Y-119070380D01*
X118073714Y-119022761D01*
X118128142Y-118975142D01*
X118182571Y-118879904D01*
X118182571Y-118641809D01*
X118128142Y-118546571D01*
X118073714Y-118498952D01*
X117964857Y-118451333D01*
X117747142Y-118451333D01*
X117638285Y-118498952D01*
X117583857Y-118546571D01*
X117529428Y-118641809D01*
X121502714Y-118070380D02*
X121720428Y-118070380D01*
X121829285Y-118118000D01*
X121938142Y-118213238D01*
X121992571Y-118403714D01*
X121992571Y-118737047D01*
X121938142Y-118927523D01*
X121829285Y-119022761D01*
X121720428Y-119070380D01*
X121502714Y-119070380D01*
X121393857Y-119022761D01*
X121284999Y-118927523D01*
X121230571Y-118737047D01*
X121230571Y-118403714D01*
X121284999Y-118213238D01*
X121393857Y-118118000D01*
X121502714Y-118070380D01*
X122373571Y-118070380D02*
X123135571Y-118070380D01*
X122645714Y-119070380D01*
X126401285Y-118070380D02*
X126618999Y-118070380D01*
X126727857Y-118118000D01*
X126836714Y-118213238D01*
X126891142Y-118403714D01*
X126891142Y-118737047D01*
X126836714Y-118927523D01*
X126727857Y-119022761D01*
X126618999Y-119070380D01*
X126401285Y-119070380D01*
X126292428Y-119022761D01*
X126183571Y-118927523D01*
X126129142Y-118737047D01*
X126129142Y-118403714D01*
X126183571Y-118213238D01*
X126292428Y-118118000D01*
X126401285Y-118070380D01*
X127544285Y-118498952D02*
X127435428Y-118451333D01*
X127380999Y-118403714D01*
X127326571Y-118308476D01*
X127326571Y-118260857D01*
X127380999Y-118165619D01*
X127435428Y-118118000D01*
X127544285Y-118070380D01*
X127761999Y-118070380D01*
X127870857Y-118118000D01*
X127925285Y-118165619D01*
X127979714Y-118260857D01*
X127979714Y-118308476D01*
X127925285Y-118403714D01*
X127870857Y-118451333D01*
X127761999Y-118498952D01*
X127544285Y-118498952D01*
X127435428Y-118546571D01*
X127380999Y-118594190D01*
X127326571Y-118689428D01*
X127326571Y-118879904D01*
X127380999Y-118975142D01*
X127435428Y-119022761D01*
X127544285Y-119070380D01*
X127761999Y-119070380D01*
X127870857Y-119022761D01*
X127925285Y-118975142D01*
X127979714Y-118879904D01*
X127979714Y-118689428D01*
X127925285Y-118594190D01*
X127870857Y-118546571D01*
X127761999Y-118498952D01*
X76517523Y-88073380D02*
X76041333Y-88073380D01*
X75993714Y-88549571D01*
X76041333Y-88501952D01*
X76136571Y-88454333D01*
X76374666Y-88454333D01*
X76469904Y-88501952D01*
X76517523Y-88549571D01*
X76565142Y-88644809D01*
X76565142Y-88882904D01*
X76517523Y-88978142D01*
X76469904Y-89025761D01*
X76374666Y-89073380D01*
X76136571Y-89073380D01*
X76041333Y-89025761D01*
X75993714Y-88978142D01*
X76850857Y-88073380D02*
X77184190Y-89073380D01*
X77517523Y-88073380D01*
X76025523Y-101725761D02*
X76168380Y-101773380D01*
X76406476Y-101773380D01*
X76501714Y-101725761D01*
X76549333Y-101678142D01*
X76596952Y-101582904D01*
X76596952Y-101487666D01*
X76549333Y-101392428D01*
X76501714Y-101344809D01*
X76406476Y-101297190D01*
X76216000Y-101249571D01*
X76120761Y-101201952D01*
X76073142Y-101154333D01*
X76025523Y-101059095D01*
X76025523Y-100963857D01*
X76073142Y-100868619D01*
X76120761Y-100821000D01*
X76216000Y-100773380D01*
X76454095Y-100773380D01*
X76596952Y-100821000D01*
X77596952Y-101678142D02*
X77549333Y-101725761D01*
X77406476Y-101773380D01*
X77311238Y-101773380D01*
X77168380Y-101725761D01*
X77073142Y-101630523D01*
X77025523Y-101535285D01*
X76977904Y-101344809D01*
X76977904Y-101201952D01*
X77025523Y-101011476D01*
X77073142Y-100916238D01*
X77168380Y-100821000D01*
X77311238Y-100773380D01*
X77406476Y-100773380D01*
X77549333Y-100821000D01*
X77596952Y-100868619D01*
X78501714Y-101773380D02*
X78025523Y-101773380D01*
X78025523Y-100773380D01*
X120356666Y-90686000D02*
X120261428Y-90638380D01*
X120118571Y-90638380D01*
X119975714Y-90686000D01*
X119880476Y-90781238D01*
X119832857Y-90876476D01*
X119785238Y-91066952D01*
X119785238Y-91209809D01*
X119832857Y-91400285D01*
X119880476Y-91495523D01*
X119975714Y-91590761D01*
X120118571Y-91638380D01*
X120213809Y-91638380D01*
X120356666Y-91590761D01*
X120404285Y-91543142D01*
X120404285Y-91209809D01*
X120213809Y-91209809D01*
X120832857Y-91638380D02*
X120832857Y-90638380D01*
X121404285Y-91638380D01*
X121404285Y-90638380D01*
X121880476Y-91638380D02*
X121880476Y-90638380D01*
X122118571Y-90638380D01*
X122261428Y-90686000D01*
X122356666Y-90781238D01*
X122404285Y-90876476D01*
X122451904Y-91066952D01*
X122451904Y-91209809D01*
X122404285Y-91400285D01*
X122356666Y-91495523D01*
X122261428Y-91590761D01*
X122118571Y-91638380D01*
X121880476Y-91638380D01*
X122880476Y-91638380D02*
X122880476Y-90638380D01*
X123261428Y-90638380D01*
X123356666Y-90686000D01*
X123404285Y-90733619D01*
X123451904Y-90828857D01*
X123451904Y-90971714D01*
X123404285Y-91066952D01*
X123356666Y-91114571D01*
X123261428Y-91162190D01*
X122880476Y-91162190D01*
X123785238Y-90638380D02*
X124023333Y-91638380D01*
X124213809Y-90924095D01*
X124404285Y-91638380D01*
X124642380Y-90638380D01*
X125594761Y-91638380D02*
X125261428Y-91162190D01*
X125023333Y-91638380D02*
X125023333Y-90638380D01*
X125404285Y-90638380D01*
X125499523Y-90686000D01*
X125547142Y-90733619D01*
X125594761Y-90828857D01*
X125594761Y-90971714D01*
X125547142Y-91066952D01*
X125499523Y-91114571D01*
X125404285Y-91162190D01*
X125023333Y-91162190D01*
X76454095Y-95741000D02*
X76358857Y-95693380D01*
X76216000Y-95693380D01*
X76073142Y-95741000D01*
X75977904Y-95836238D01*
X75930285Y-95931476D01*
X75882666Y-96121952D01*
X75882666Y-96264809D01*
X75930285Y-96455285D01*
X75977904Y-96550523D01*
X76073142Y-96645761D01*
X76216000Y-96693380D01*
X76311238Y-96693380D01*
X76454095Y-96645761D01*
X76501714Y-96598142D01*
X76501714Y-96264809D01*
X76311238Y-96264809D01*
X76930285Y-96693380D02*
X76930285Y-95693380D01*
X77501714Y-96693380D01*
X77501714Y-95693380D01*
X77977904Y-96693380D02*
X77977904Y-95693380D01*
X78216000Y-95693380D01*
X78358857Y-95741000D01*
X78454095Y-95836238D01*
X78501714Y-95931476D01*
X78549333Y-96121952D01*
X78549333Y-96264809D01*
X78501714Y-96455285D01*
X78454095Y-96550523D01*
X78358857Y-96645761D01*
X78216000Y-96693380D01*
X77977904Y-96693380D01*
X76001714Y-99185761D02*
X76144571Y-99233380D01*
X76382666Y-99233380D01*
X76477904Y-99185761D01*
X76525523Y-99138142D01*
X76573142Y-99042904D01*
X76573142Y-98947666D01*
X76525523Y-98852428D01*
X76477904Y-98804809D01*
X76382666Y-98757190D01*
X76192190Y-98709571D01*
X76096952Y-98661952D01*
X76049333Y-98614333D01*
X76001714Y-98519095D01*
X76001714Y-98423857D01*
X76049333Y-98328619D01*
X76096952Y-98281000D01*
X76192190Y-98233380D01*
X76430285Y-98233380D01*
X76573142Y-98281000D01*
X77001714Y-99233380D02*
X77001714Y-98233380D01*
X77239809Y-98233380D01*
X77382666Y-98281000D01*
X77477904Y-98376238D01*
X77525523Y-98471476D01*
X77573142Y-98661952D01*
X77573142Y-98804809D01*
X77525523Y-98995285D01*
X77477904Y-99090523D01*
X77382666Y-99185761D01*
X77239809Y-99233380D01*
X77001714Y-99233380D01*
X77954095Y-98947666D02*
X78430285Y-98947666D01*
X77858857Y-99233380D02*
X78192190Y-98233380D01*
X78525523Y-99233380D01*
X72469904Y-117292380D02*
X72469904Y-116292380D01*
X72898476Y-116387619D02*
X72946095Y-116340000D01*
X73041333Y-116292380D01*
X73279428Y-116292380D01*
X73374666Y-116340000D01*
X73422285Y-116387619D01*
X73469904Y-116482857D01*
X73469904Y-116578095D01*
X73422285Y-116720952D01*
X72850857Y-117292380D01*
X73469904Y-117292380D01*
X74469904Y-117197142D02*
X74422285Y-117244761D01*
X74279428Y-117292380D01*
X74184190Y-117292380D01*
X74041333Y-117244761D01*
X73946095Y-117149523D01*
X73898476Y-117054285D01*
X73850857Y-116863809D01*
X73850857Y-116720952D01*
X73898476Y-116530476D01*
X73946095Y-116435238D01*
X74041333Y-116340000D01*
X74184190Y-116292380D01*
X74279428Y-116292380D01*
X74422285Y-116340000D01*
X74469904Y-116387619D01*
X75612761Y-117006666D02*
X76088952Y-117006666D01*
X75517523Y-117292380D02*
X75850857Y-116292380D01*
X76184190Y-117292380D01*
X76946095Y-117292380D02*
X76946095Y-116292380D01*
X76946095Y-117244761D02*
X76850857Y-117292380D01*
X76660380Y-117292380D01*
X76565142Y-117244761D01*
X76517523Y-117197142D01*
X76469904Y-117101904D01*
X76469904Y-116816190D01*
X76517523Y-116720952D01*
X76565142Y-116673333D01*
X76660380Y-116625714D01*
X76850857Y-116625714D01*
X76946095Y-116673333D01*
X77850857Y-117292380D02*
X77850857Y-116292380D01*
X77850857Y-117244761D02*
X77755619Y-117292380D01*
X77565142Y-117292380D01*
X77469904Y-117244761D01*
X77422285Y-117197142D01*
X77374666Y-117101904D01*
X77374666Y-116816190D01*
X77422285Y-116720952D01*
X77469904Y-116673333D01*
X77565142Y-116625714D01*
X77755619Y-116625714D01*
X77850857Y-116673333D01*
X78327047Y-117292380D02*
X78327047Y-116625714D01*
X78327047Y-116816190D02*
X78374666Y-116720952D01*
X78422285Y-116673333D01*
X78517523Y-116625714D01*
X78612761Y-116625714D01*
X79327047Y-117244761D02*
X79231809Y-117292380D01*
X79041333Y-117292380D01*
X78946095Y-117244761D01*
X78898476Y-117149523D01*
X78898476Y-116768571D01*
X78946095Y-116673333D01*
X79041333Y-116625714D01*
X79231809Y-116625714D01*
X79327047Y-116673333D01*
X79374666Y-116768571D01*
X79374666Y-116863809D01*
X78898476Y-116959047D01*
X79755619Y-117244761D02*
X79850857Y-117292380D01*
X80041333Y-117292380D01*
X80136571Y-117244761D01*
X80184190Y-117149523D01*
X80184190Y-117101904D01*
X80136571Y-117006666D01*
X80041333Y-116959047D01*
X79898476Y-116959047D01*
X79803238Y-116911428D01*
X79755619Y-116816190D01*
X79755619Y-116768571D01*
X79803238Y-116673333D01*
X79898476Y-116625714D01*
X80041333Y-116625714D01*
X80136571Y-116673333D01*
X80565142Y-117244761D02*
X80660380Y-117292380D01*
X80850857Y-117292380D01*
X80946095Y-117244761D01*
X80993714Y-117149523D01*
X80993714Y-117101904D01*
X80946095Y-117006666D01*
X80850857Y-116959047D01*
X80708000Y-116959047D01*
X80612761Y-116911428D01*
X80565142Y-116816190D01*
X80565142Y-116768571D01*
X80612761Y-116673333D01*
X80708000Y-116625714D01*
X80850857Y-116625714D01*
X80946095Y-116673333D01*
X83486666Y-70064380D02*
X83486666Y-70778666D01*
X83439047Y-70921523D01*
X83343809Y-71016761D01*
X83200952Y-71064380D01*
X83105714Y-71064380D01*
X83915238Y-70159619D02*
X83962857Y-70112000D01*
X84058095Y-70064380D01*
X84296190Y-70064380D01*
X84391428Y-70112000D01*
X84439047Y-70159619D01*
X84486666Y-70254857D01*
X84486666Y-70350095D01*
X84439047Y-70492952D01*
X83867619Y-71064380D01*
X84486666Y-71064380D01*
X119173666Y-69937380D02*
X119173666Y-70651666D01*
X119126047Y-70794523D01*
X119030809Y-70889761D01*
X118887952Y-70937380D01*
X118792714Y-70937380D01*
X120078428Y-70270714D02*
X120078428Y-70937380D01*
X119840333Y-69889761D02*
X119602238Y-70604047D01*
X120221285Y-70604047D01*
X98980666Y-69937380D02*
X98980666Y-70651666D01*
X98933047Y-70794523D01*
X98837809Y-70889761D01*
X98694952Y-70937380D01*
X98599714Y-70937380D01*
X99933047Y-69937380D02*
X99456857Y-69937380D01*
X99409238Y-70413571D01*
X99456857Y-70365952D01*
X99552095Y-70318333D01*
X99790190Y-70318333D01*
X99885428Y-70365952D01*
X99933047Y-70413571D01*
X99980666Y-70508809D01*
X99980666Y-70746904D01*
X99933047Y-70842142D01*
X99885428Y-70889761D01*
X99790190Y-70937380D01*
X99552095Y-70937380D01*
X99456857Y-70889761D01*
X99409238Y-70842142D01*
D11*
X98168880Y-80874404D02*
X98978404Y-80874404D01*
X99073642Y-80826785D01*
X99121261Y-80779166D01*
X99168880Y-80683928D01*
X99168880Y-80493452D01*
X99121261Y-80398214D01*
X99073642Y-80350595D01*
X98978404Y-80302976D01*
X98168880Y-80302976D01*
X98168880Y-79398214D02*
X98168880Y-79588690D01*
X98216500Y-79683928D01*
X98264119Y-79731547D01*
X98406976Y-79826785D01*
X98597452Y-79874404D01*
X98978404Y-79874404D01*
X99073642Y-79826785D01*
X99121261Y-79779166D01*
X99168880Y-79683928D01*
X99168880Y-79493452D01*
X99121261Y-79398214D01*
X99073642Y-79350595D01*
X98978404Y-79302976D01*
X98740309Y-79302976D01*
X98645071Y-79350595D01*
X98597452Y-79398214D01*
X98549833Y-79493452D01*
X98549833Y-79683928D01*
X98597452Y-79779166D01*
X98645071Y-79826785D01*
X98740309Y-79874404D01*
X104264880Y-80874404D02*
X105074404Y-80874404D01*
X105169642Y-80826785D01*
X105217261Y-80779166D01*
X105264880Y-80683928D01*
X105264880Y-80493452D01*
X105217261Y-80398214D01*
X105169642Y-80350595D01*
X105074404Y-80302976D01*
X104264880Y-80302976D01*
X104264880Y-79350595D02*
X104264880Y-79826785D01*
X104741071Y-79874404D01*
X104693452Y-79826785D01*
X104645833Y-79731547D01*
X104645833Y-79493452D01*
X104693452Y-79398214D01*
X104741071Y-79350595D01*
X104836309Y-79302976D01*
X105074404Y-79302976D01*
X105169642Y-79350595D01*
X105217261Y-79398214D01*
X105264880Y-79493452D01*
X105264880Y-79731547D01*
X105217261Y-79826785D01*
X105169642Y-79874404D01*
X120901880Y-80940404D02*
X121711404Y-80940404D01*
X121806642Y-80892785D01*
X121854261Y-80845166D01*
X121901880Y-80749928D01*
X121901880Y-80559452D01*
X121854261Y-80464214D01*
X121806642Y-80416595D01*
X121711404Y-80368976D01*
X120901880Y-80368976D01*
X120997119Y-79940404D02*
X120949500Y-79892785D01*
X120901880Y-79797547D01*
X120901880Y-79559452D01*
X120949500Y-79464214D01*
X120997119Y-79416595D01*
X121092357Y-79368976D01*
X121187595Y-79368976D01*
X121330452Y-79416595D01*
X121901880Y-79988023D01*
X121901880Y-79368976D01*
X109725880Y-80874404D02*
X110535404Y-80874404D01*
X110630642Y-80826785D01*
X110678261Y-80779166D01*
X110725880Y-80683928D01*
X110725880Y-80493452D01*
X110678261Y-80398214D01*
X110630642Y-80350595D01*
X110535404Y-80302976D01*
X109725880Y-80302976D01*
X110059214Y-79398214D02*
X110725880Y-79398214D01*
X109678261Y-79636309D02*
X110392547Y-79874404D01*
X110392547Y-79255357D01*
X115186880Y-80874404D02*
X115996404Y-80874404D01*
X116091642Y-80826785D01*
X116139261Y-80779166D01*
X116186880Y-80683928D01*
X116186880Y-80493452D01*
X116139261Y-80398214D01*
X116091642Y-80350595D01*
X115996404Y-80302976D01*
X115186880Y-80302976D01*
X115186880Y-79922023D02*
X115186880Y-79302976D01*
X115567833Y-79636309D01*
X115567833Y-79493452D01*
X115615452Y-79398214D01*
X115663071Y-79350595D01*
X115758309Y-79302976D01*
X115996404Y-79302976D01*
X116091642Y-79350595D01*
X116139261Y-79398214D01*
X116186880Y-79493452D01*
X116186880Y-79779166D01*
X116139261Y-79874404D01*
X116091642Y-79922023D01*
D10*
X95488380Y-116209033D02*
X96202666Y-116209033D01*
X96345523Y-116256652D01*
X96440761Y-116351890D01*
X96488380Y-116494747D01*
X96488380Y-116589985D01*
X95916952Y-115589985D02*
X95869333Y-115685223D01*
X95821714Y-115732842D01*
X95726476Y-115780461D01*
X95678857Y-115780461D01*
X95583619Y-115732842D01*
X95536000Y-115685223D01*
X95488380Y-115589985D01*
X95488380Y-115399509D01*
X95536000Y-115304271D01*
X95583619Y-115256652D01*
X95678857Y-115209033D01*
X95726476Y-115209033D01*
X95821714Y-115256652D01*
X95869333Y-115304271D01*
X95916952Y-115399509D01*
X95916952Y-115589985D01*
X95964571Y-115685223D01*
X96012190Y-115732842D01*
X96107428Y-115780461D01*
X96297904Y-115780461D01*
X96393142Y-115732842D01*
X96440761Y-115685223D01*
X96488380Y-115589985D01*
X96488380Y-115399509D01*
X96440761Y-115304271D01*
X96393142Y-115256652D01*
X96297904Y-115209033D01*
X96107428Y-115209033D01*
X96012190Y-115256652D01*
X95964571Y-115304271D01*
X95916952Y-115399509D01*
X119173666Y-120864380D02*
X119173666Y-121578666D01*
X119126047Y-121721523D01*
X119030809Y-121816761D01*
X118887952Y-121864380D01*
X118792714Y-121864380D01*
X119554619Y-120864380D02*
X120221285Y-120864380D01*
X119792714Y-121864380D01*
X98726666Y-120610380D02*
X98726666Y-121324666D01*
X98679047Y-121467523D01*
X98583809Y-121562761D01*
X98440952Y-121610380D01*
X98345714Y-121610380D01*
X99631428Y-120610380D02*
X99440952Y-120610380D01*
X99345714Y-120658000D01*
X99298095Y-120705619D01*
X99202857Y-120848476D01*
X99155238Y-121038952D01*
X99155238Y-121419904D01*
X99202857Y-121515142D01*
X99250476Y-121562761D01*
X99345714Y-121610380D01*
X99536190Y-121610380D01*
X99631428Y-121562761D01*
X99679047Y-121515142D01*
X99726666Y-121419904D01*
X99726666Y-121181809D01*
X99679047Y-121086571D01*
X99631428Y-121038952D01*
X99536190Y-120991333D01*
X99345714Y-120991333D01*
X99250476Y-121038952D01*
X99202857Y-121086571D01*
X99155238Y-121181809D01*
D11*
X86357880Y-80874404D02*
X87167404Y-80874404D01*
X87262642Y-80826785D01*
X87310261Y-80779166D01*
X87357880Y-80683928D01*
X87357880Y-80493452D01*
X87310261Y-80398214D01*
X87262642Y-80350595D01*
X87167404Y-80302976D01*
X86357880Y-80302976D01*
X86786452Y-79683928D02*
X86738833Y-79779166D01*
X86691214Y-79826785D01*
X86595976Y-79874404D01*
X86548357Y-79874404D01*
X86453119Y-79826785D01*
X86405500Y-79779166D01*
X86357880Y-79683928D01*
X86357880Y-79493452D01*
X86405500Y-79398214D01*
X86453119Y-79350595D01*
X86548357Y-79302976D01*
X86595976Y-79302976D01*
X86691214Y-79350595D01*
X86738833Y-79398214D01*
X86786452Y-79493452D01*
X86786452Y-79683928D01*
X86834071Y-79779166D01*
X86881690Y-79826785D01*
X86976928Y-79874404D01*
X87167404Y-79874404D01*
X87262642Y-79826785D01*
X87310261Y-79779166D01*
X87357880Y-79683928D01*
X87357880Y-79493452D01*
X87310261Y-79398214D01*
X87262642Y-79350595D01*
X87167404Y-79302976D01*
X86976928Y-79302976D01*
X86881690Y-79350595D01*
X86834071Y-79398214D01*
X86786452Y-79493452D01*
D10*
X83613666Y-120737380D02*
X83613666Y-121451666D01*
X83566047Y-121594523D01*
X83470809Y-121689761D01*
X83327952Y-121737380D01*
X83232714Y-121737380D01*
X84137476Y-121737380D02*
X84327952Y-121737380D01*
X84423190Y-121689761D01*
X84470809Y-121642142D01*
X84566047Y-121499285D01*
X84613666Y-121308809D01*
X84613666Y-120927857D01*
X84566047Y-120832619D01*
X84518428Y-120785000D01*
X84423190Y-120737380D01*
X84232714Y-120737380D01*
X84137476Y-120785000D01*
X84089857Y-120832619D01*
X84042238Y-120927857D01*
X84042238Y-121165952D01*
X84089857Y-121261190D01*
X84137476Y-121308809D01*
X84232714Y-121356428D01*
X84423190Y-121356428D01*
X84518428Y-121308809D01*
X84566047Y-121261190D01*
X84613666Y-121165952D01*
D11*
X92072880Y-80874404D02*
X92882404Y-80874404D01*
X92977642Y-80826785D01*
X93025261Y-80779166D01*
X93072880Y-80683928D01*
X93072880Y-80493452D01*
X93025261Y-80398214D01*
X92977642Y-80350595D01*
X92882404Y-80302976D01*
X92072880Y-80302976D01*
X92072880Y-79922023D02*
X92072880Y-79255357D01*
X93072880Y-79683928D01*
X80642880Y-80940404D02*
X81452404Y-80940404D01*
X81547642Y-80892785D01*
X81595261Y-80845166D01*
X81642880Y-80749928D01*
X81642880Y-80559452D01*
X81595261Y-80464214D01*
X81547642Y-80416595D01*
X81452404Y-80368976D01*
X80642880Y-80368976D01*
X81642880Y-79845166D02*
X81642880Y-79654690D01*
X81595261Y-79559452D01*
X81547642Y-79511833D01*
X81404785Y-79416595D01*
X81214309Y-79368976D01*
X80833357Y-79368976D01*
X80738119Y-79416595D01*
X80690500Y-79464214D01*
X80642880Y-79559452D01*
X80642880Y-79749928D01*
X80690500Y-79845166D01*
X80738119Y-79892785D01*
X80833357Y-79940404D01*
X81071452Y-79940404D01*
X81166690Y-79892785D01*
X81214309Y-79845166D01*
X81261928Y-79749928D01*
X81261928Y-79559452D01*
X81214309Y-79464214D01*
X81166690Y-79416595D01*
X81071452Y-79368976D01*
D10*
X117170380Y-99458095D02*
X117979904Y-99458095D01*
X118075142Y-99410476D01*
X118122761Y-99362857D01*
X118170380Y-99267619D01*
X118170380Y-99077142D01*
X118122761Y-98981904D01*
X118075142Y-98934285D01*
X117979904Y-98886666D01*
X117170380Y-98886666D01*
X118170380Y-97886666D02*
X118170380Y-98458095D01*
X118170380Y-98172380D02*
X117170380Y-98172380D01*
X117313238Y-98267619D01*
X117408476Y-98362857D01*
X117456095Y-98458095D01*
X117170380Y-97267619D02*
X117170380Y-97172380D01*
X117218000Y-97077142D01*
X117265619Y-97029523D01*
X117360857Y-96981904D01*
X117551333Y-96934285D01*
X117789428Y-96934285D01*
X117979904Y-96981904D01*
X118075142Y-97029523D01*
X118122761Y-97077142D01*
X118170380Y-97172380D01*
X118170380Y-97267619D01*
X118122761Y-97362857D01*
X118075142Y-97410476D01*
X117979904Y-97458095D01*
X117789428Y-97505714D01*
X117551333Y-97505714D01*
X117360857Y-97458095D01*
X117265619Y-97410476D01*
X117218000Y-97362857D01*
X117170380Y-97267619D01*
X119568404Y-72569880D02*
X119568404Y-71569880D01*
X119806500Y-71569880D01*
X119949357Y-71617500D01*
X120044595Y-71712738D01*
X120092214Y-71807976D01*
X120139833Y-71998452D01*
X120139833Y-72141309D01*
X120092214Y-72331785D01*
X120044595Y-72427023D01*
X119949357Y-72522261D01*
X119806500Y-72569880D01*
X119568404Y-72569880D01*
X120616023Y-72569880D02*
X120806500Y-72569880D01*
X120901738Y-72522261D01*
X120949357Y-72474642D01*
X121044595Y-72331785D01*
X121092214Y-72141309D01*
X121092214Y-71760357D01*
X121044595Y-71665119D01*
X120996976Y-71617500D01*
X120901738Y-71569880D01*
X120711261Y-71569880D01*
X120616023Y-71617500D01*
X120568404Y-71665119D01*
X120520785Y-71760357D01*
X120520785Y-71998452D01*
X120568404Y-72093690D01*
X120616023Y-72141309D01*
X120711261Y-72188928D01*
X120901738Y-72188928D01*
X120996976Y-72141309D01*
X121044595Y-72093690D01*
X121092214Y-71998452D01*
X71426761Y-111569333D02*
X71474380Y-111426476D01*
X71474380Y-111188380D01*
X71426761Y-111093142D01*
X71379142Y-111045523D01*
X71283904Y-110997904D01*
X71188666Y-110997904D01*
X71093428Y-111045523D01*
X71045809Y-111093142D01*
X70998190Y-111188380D01*
X70950571Y-111378857D01*
X70902952Y-111474095D01*
X70855333Y-111521714D01*
X70760095Y-111569333D01*
X70664857Y-111569333D01*
X70569619Y-111521714D01*
X70522000Y-111474095D01*
X70474380Y-111378857D01*
X70474380Y-111140761D01*
X70522000Y-110997904D01*
X70474380Y-110664571D02*
X71474380Y-110426476D01*
X70760095Y-110236000D01*
X71474380Y-110045523D01*
X70474380Y-109807428D01*
X71474380Y-108902666D02*
X71474380Y-109474095D01*
X71474380Y-109188380D02*
X70474380Y-109188380D01*
X70617238Y-109283619D01*
X70712476Y-109378857D01*
X70760095Y-109474095D01*
X96002142Y-104746380D02*
X95668809Y-104270190D01*
X95430714Y-104746380D02*
X95430714Y-103746380D01*
X95811666Y-103746380D01*
X95906904Y-103794000D01*
X95954523Y-103841619D01*
X96002142Y-103936857D01*
X96002142Y-104079714D01*
X95954523Y-104174952D01*
X95906904Y-104222571D01*
X95811666Y-104270190D01*
X95430714Y-104270190D01*
X96383095Y-103841619D02*
X96430714Y-103794000D01*
X96525952Y-103746380D01*
X96764047Y-103746380D01*
X96859285Y-103794000D01*
X96906904Y-103841619D01*
X96954523Y-103936857D01*
X96954523Y-104032095D01*
X96906904Y-104174952D01*
X96335476Y-104746380D01*
X96954523Y-104746380D01*
X97859285Y-103746380D02*
X97383095Y-103746380D01*
X97335476Y-104222571D01*
X97383095Y-104174952D01*
X97478333Y-104127333D01*
X97716428Y-104127333D01*
X97811666Y-104174952D01*
X97859285Y-104222571D01*
X97906904Y-104317809D01*
X97906904Y-104555904D01*
X97859285Y-104651142D01*
X97811666Y-104698761D01*
X97716428Y-104746380D01*
X97478333Y-104746380D01*
X97383095Y-104698761D01*
X97335476Y-104651142D01*
X96002142Y-97126380D02*
X95668809Y-96650190D01*
X95430714Y-97126380D02*
X95430714Y-96126380D01*
X95811666Y-96126380D01*
X95906904Y-96174000D01*
X95954523Y-96221619D01*
X96002142Y-96316857D01*
X96002142Y-96459714D01*
X95954523Y-96554952D01*
X95906904Y-96602571D01*
X95811666Y-96650190D01*
X95430714Y-96650190D01*
X96383095Y-96221619D02*
X96430714Y-96174000D01*
X96525952Y-96126380D01*
X96764047Y-96126380D01*
X96859285Y-96174000D01*
X96906904Y-96221619D01*
X96954523Y-96316857D01*
X96954523Y-96412095D01*
X96906904Y-96554952D01*
X96335476Y-97126380D01*
X96954523Y-97126380D01*
X97573571Y-96126380D02*
X97668809Y-96126380D01*
X97764047Y-96174000D01*
X97811666Y-96221619D01*
X97859285Y-96316857D01*
X97906904Y-96507333D01*
X97906904Y-96745428D01*
X97859285Y-96935904D01*
X97811666Y-97031142D01*
X97764047Y-97078761D01*
X97668809Y-97126380D01*
X97573571Y-97126380D01*
X97478333Y-97078761D01*
X97430714Y-97031142D01*
X97383095Y-96935904D01*
X97335476Y-96745428D01*
X97335476Y-96507333D01*
X97383095Y-96316857D01*
X97430714Y-96221619D01*
X97478333Y-96174000D01*
X97573571Y-96126380D01*
X105228380Y-111025795D02*
X104228380Y-111025795D01*
X104228380Y-110787700D01*
X104276000Y-110644842D01*
X104371238Y-110549604D01*
X104466476Y-110501985D01*
X104656952Y-110454366D01*
X104799809Y-110454366D01*
X104990285Y-110501985D01*
X105085523Y-110549604D01*
X105180761Y-110644842D01*
X105228380Y-110787700D01*
X105228380Y-111025795D01*
X104228380Y-110121033D02*
X104228380Y-109501985D01*
X104609333Y-109835319D01*
X104609333Y-109692461D01*
X104656952Y-109597223D01*
X104704571Y-109549604D01*
X104799809Y-109501985D01*
X105037904Y-109501985D01*
X105133142Y-109549604D01*
X105180761Y-109597223D01*
X105228380Y-109692461D01*
X105228380Y-109978176D01*
X105180761Y-110073414D01*
X105133142Y-110121033D01*
X96002142Y-103222380D02*
X95668809Y-102746190D01*
X95430714Y-103222380D02*
X95430714Y-102222380D01*
X95811666Y-102222380D01*
X95906904Y-102270000D01*
X95954523Y-102317619D01*
X96002142Y-102412857D01*
X96002142Y-102555714D01*
X95954523Y-102650952D01*
X95906904Y-102698571D01*
X95811666Y-102746190D01*
X95430714Y-102746190D01*
X96383095Y-102317619D02*
X96430714Y-102270000D01*
X96525952Y-102222380D01*
X96764047Y-102222380D01*
X96859285Y-102270000D01*
X96906904Y-102317619D01*
X96954523Y-102412857D01*
X96954523Y-102508095D01*
X96906904Y-102650952D01*
X96335476Y-103222380D01*
X96954523Y-103222380D01*
X97811666Y-102555714D02*
X97811666Y-103222380D01*
X97573571Y-102174761D02*
X97335476Y-102889047D01*
X97954523Y-102889047D01*
X113250214Y-72569880D02*
X113250214Y-71569880D01*
X113488309Y-71569880D01*
X113631166Y-71617500D01*
X113726404Y-71712738D01*
X113774023Y-71807976D01*
X113821642Y-71998452D01*
X113821642Y-72141309D01*
X113774023Y-72331785D01*
X113726404Y-72427023D01*
X113631166Y-72522261D01*
X113488309Y-72569880D01*
X113250214Y-72569880D01*
X114774023Y-72569880D02*
X114202595Y-72569880D01*
X114488309Y-72569880D02*
X114488309Y-71569880D01*
X114393071Y-71712738D01*
X114297833Y-71807976D01*
X114202595Y-71855595D01*
X115726404Y-72569880D02*
X115154976Y-72569880D01*
X115440690Y-72569880D02*
X115440690Y-71569880D01*
X115345452Y-71712738D01*
X115250214Y-71807976D01*
X115154976Y-71855595D01*
X110308380Y-111025795D02*
X109308380Y-111025795D01*
X109308380Y-110787700D01*
X109356000Y-110644842D01*
X109451238Y-110549604D01*
X109546476Y-110501985D01*
X109736952Y-110454366D01*
X109879809Y-110454366D01*
X110070285Y-110501985D01*
X110165523Y-110549604D01*
X110260761Y-110644842D01*
X110308380Y-110787700D01*
X110308380Y-111025795D01*
X109308380Y-109549604D02*
X109308380Y-110025795D01*
X109784571Y-110073414D01*
X109736952Y-110025795D01*
X109689333Y-109930557D01*
X109689333Y-109692461D01*
X109736952Y-109597223D01*
X109784571Y-109549604D01*
X109879809Y-109501985D01*
X110117904Y-109501985D01*
X110213142Y-109549604D01*
X110260761Y-109597223D01*
X110308380Y-109692461D01*
X110308380Y-109930557D01*
X110260761Y-110025795D01*
X110213142Y-110073414D01*
X71548666Y-103313380D02*
X71548666Y-104027666D01*
X71501047Y-104170523D01*
X71405809Y-104265761D01*
X71262952Y-104313380D01*
X71167714Y-104313380D01*
X72548666Y-104313380D02*
X71977238Y-104313380D01*
X72262952Y-104313380D02*
X72262952Y-103313380D01*
X72167714Y-103456238D01*
X72072476Y-103551476D01*
X71977238Y-103599095D01*
X96004142Y-98650380D02*
X95670809Y-98174190D01*
X95432714Y-98650380D02*
X95432714Y-97650380D01*
X95813666Y-97650380D01*
X95908904Y-97698000D01*
X95956523Y-97745619D01*
X96004142Y-97840857D01*
X96004142Y-97983714D01*
X95956523Y-98078952D01*
X95908904Y-98126571D01*
X95813666Y-98174190D01*
X95432714Y-98174190D01*
X96385095Y-97745619D02*
X96432714Y-97698000D01*
X96527952Y-97650380D01*
X96766047Y-97650380D01*
X96861285Y-97698000D01*
X96908904Y-97745619D01*
X96956523Y-97840857D01*
X96956523Y-97936095D01*
X96908904Y-98078952D01*
X96337476Y-98650380D01*
X96956523Y-98650380D01*
X97908904Y-98650380D02*
X97337476Y-98650380D01*
X97623190Y-98650380D02*
X97623190Y-97650380D01*
X97527952Y-97793238D01*
X97432714Y-97888476D01*
X97337476Y-97936095D01*
X100148380Y-111025795D02*
X99148380Y-111025795D01*
X99148380Y-110787700D01*
X99196000Y-110644842D01*
X99291238Y-110549604D01*
X99386476Y-110501985D01*
X99576952Y-110454366D01*
X99719809Y-110454366D01*
X99910285Y-110501985D01*
X100005523Y-110549604D01*
X100100761Y-110644842D01*
X100148380Y-110787700D01*
X100148380Y-111025795D01*
X100148380Y-109501985D02*
X100148380Y-110073414D01*
X100148380Y-109787700D02*
X99148380Y-109787700D01*
X99291238Y-109882938D01*
X99386476Y-109978176D01*
X99434095Y-110073414D01*
X107768380Y-111025795D02*
X106768380Y-111025795D01*
X106768380Y-110787700D01*
X106816000Y-110644842D01*
X106911238Y-110549604D01*
X107006476Y-110501985D01*
X107196952Y-110454366D01*
X107339809Y-110454366D01*
X107530285Y-110501985D01*
X107625523Y-110549604D01*
X107720761Y-110644842D01*
X107768380Y-110787700D01*
X107768380Y-111025795D01*
X107101714Y-109597223D02*
X107768380Y-109597223D01*
X106720761Y-109835319D02*
X107435047Y-110073414D01*
X107435047Y-109454366D01*
X95724214Y-72569880D02*
X95724214Y-71569880D01*
X95962309Y-71569880D01*
X96105166Y-71617500D01*
X96200404Y-71712738D01*
X96248023Y-71807976D01*
X96295642Y-71998452D01*
X96295642Y-72141309D01*
X96248023Y-72331785D01*
X96200404Y-72427023D01*
X96105166Y-72522261D01*
X95962309Y-72569880D01*
X95724214Y-72569880D01*
X97248023Y-72569880D02*
X96676595Y-72569880D01*
X96962309Y-72569880D02*
X96962309Y-71569880D01*
X96867071Y-71712738D01*
X96771833Y-71807976D01*
X96676595Y-71855595D01*
X97581357Y-71569880D02*
X98248023Y-71569880D01*
X97819452Y-72569880D01*
X117928380Y-111025795D02*
X116928380Y-111025795D01*
X116928380Y-110787700D01*
X116976000Y-110644842D01*
X117071238Y-110549604D01*
X117166476Y-110501985D01*
X117356952Y-110454366D01*
X117499809Y-110454366D01*
X117690285Y-110501985D01*
X117785523Y-110549604D01*
X117880761Y-110644842D01*
X117928380Y-110787700D01*
X117928380Y-111025795D01*
X117356952Y-109882938D02*
X117309333Y-109978176D01*
X117261714Y-110025795D01*
X117166476Y-110073414D01*
X117118857Y-110073414D01*
X117023619Y-110025795D01*
X116976000Y-109978176D01*
X116928380Y-109882938D01*
X116928380Y-109692461D01*
X116976000Y-109597223D01*
X117023619Y-109549604D01*
X117118857Y-109501985D01*
X117166476Y-109501985D01*
X117261714Y-109549604D01*
X117309333Y-109597223D01*
X117356952Y-109692461D01*
X117356952Y-109882938D01*
X117404571Y-109978176D01*
X117452190Y-110025795D01*
X117547428Y-110073414D01*
X117737904Y-110073414D01*
X117833142Y-110025795D01*
X117880761Y-109978176D01*
X117928380Y-109882938D01*
X117928380Y-109692461D01*
X117880761Y-109597223D01*
X117833142Y-109549604D01*
X117737904Y-109501985D01*
X117547428Y-109501985D01*
X117452190Y-109549604D01*
X117404571Y-109597223D01*
X117356952Y-109692461D01*
X96002142Y-101698380D02*
X95668809Y-101222190D01*
X95430714Y-101698380D02*
X95430714Y-100698380D01*
X95811666Y-100698380D01*
X95906904Y-100746000D01*
X95954523Y-100793619D01*
X96002142Y-100888857D01*
X96002142Y-101031714D01*
X95954523Y-101126952D01*
X95906904Y-101174571D01*
X95811666Y-101222190D01*
X95430714Y-101222190D01*
X96383095Y-100793619D02*
X96430714Y-100746000D01*
X96525952Y-100698380D01*
X96764047Y-100698380D01*
X96859285Y-100746000D01*
X96906904Y-100793619D01*
X96954523Y-100888857D01*
X96954523Y-100984095D01*
X96906904Y-101126952D01*
X96335476Y-101698380D01*
X96954523Y-101698380D01*
X97287857Y-100698380D02*
X97906904Y-100698380D01*
X97573571Y-101079333D01*
X97716428Y-101079333D01*
X97811666Y-101126952D01*
X97859285Y-101174571D01*
X97906904Y-101269809D01*
X97906904Y-101507904D01*
X97859285Y-101603142D01*
X97811666Y-101650761D01*
X97716428Y-101698380D01*
X97430714Y-101698380D01*
X97335476Y-101650761D01*
X97287857Y-101603142D01*
X112848380Y-111025795D02*
X111848380Y-111025795D01*
X111848380Y-110787700D01*
X111896000Y-110644842D01*
X111991238Y-110549604D01*
X112086476Y-110501985D01*
X112276952Y-110454366D01*
X112419809Y-110454366D01*
X112610285Y-110501985D01*
X112705523Y-110549604D01*
X112800761Y-110644842D01*
X112848380Y-110787700D01*
X112848380Y-111025795D01*
X111848380Y-109597223D02*
X111848380Y-109787700D01*
X111896000Y-109882938D01*
X111943619Y-109930557D01*
X112086476Y-110025795D01*
X112276952Y-110073414D01*
X112657904Y-110073414D01*
X112753142Y-110025795D01*
X112800761Y-109978176D01*
X112848380Y-109882938D01*
X112848380Y-109692461D01*
X112800761Y-109597223D01*
X112753142Y-109549604D01*
X112657904Y-109501985D01*
X112419809Y-109501985D01*
X112324571Y-109549604D01*
X112276952Y-109597223D01*
X112229333Y-109692461D01*
X112229333Y-109882938D01*
X112276952Y-109978176D01*
X112324571Y-110025795D01*
X112419809Y-110073414D01*
X102688380Y-111025795D02*
X101688380Y-111025795D01*
X101688380Y-110787700D01*
X101736000Y-110644842D01*
X101831238Y-110549604D01*
X101926476Y-110501985D01*
X102116952Y-110454366D01*
X102259809Y-110454366D01*
X102450285Y-110501985D01*
X102545523Y-110549604D01*
X102640761Y-110644842D01*
X102688380Y-110787700D01*
X102688380Y-111025795D01*
X101783619Y-110073414D02*
X101736000Y-110025795D01*
X101688380Y-109930557D01*
X101688380Y-109692461D01*
X101736000Y-109597223D01*
X101783619Y-109549604D01*
X101878857Y-109501985D01*
X101974095Y-109501985D01*
X102116952Y-109549604D01*
X102688380Y-110121033D01*
X102688380Y-109501985D01*
X115388380Y-111025795D02*
X114388380Y-111025795D01*
X114388380Y-110787700D01*
X114436000Y-110644842D01*
X114531238Y-110549604D01*
X114626476Y-110501985D01*
X114816952Y-110454366D01*
X114959809Y-110454366D01*
X115150285Y-110501985D01*
X115245523Y-110549604D01*
X115340761Y-110644842D01*
X115388380Y-110787700D01*
X115388380Y-111025795D01*
X114388380Y-110121033D02*
X114388380Y-109454366D01*
X115388380Y-109882938D01*
X107408214Y-72569880D02*
X107408214Y-71569880D01*
X107646309Y-71569880D01*
X107789166Y-71617500D01*
X107884404Y-71712738D01*
X107932023Y-71807976D01*
X107979642Y-71998452D01*
X107979642Y-72141309D01*
X107932023Y-72331785D01*
X107884404Y-72427023D01*
X107789166Y-72522261D01*
X107646309Y-72569880D01*
X107408214Y-72569880D01*
X108932023Y-72569880D02*
X108360595Y-72569880D01*
X108646309Y-72569880D02*
X108646309Y-71569880D01*
X108551071Y-71712738D01*
X108455833Y-71807976D01*
X108360595Y-71855595D01*
X109265357Y-71569880D02*
X109884404Y-71569880D01*
X109551071Y-71950833D01*
X109693928Y-71950833D01*
X109789166Y-71998452D01*
X109836785Y-72046071D01*
X109884404Y-72141309D01*
X109884404Y-72379404D01*
X109836785Y-72474642D01*
X109789166Y-72522261D01*
X109693928Y-72569880D01*
X109408214Y-72569880D01*
X109312976Y-72522261D01*
X109265357Y-72474642D01*
X84040214Y-72569880D02*
X84040214Y-71569880D01*
X84278309Y-71569880D01*
X84421166Y-71617500D01*
X84516404Y-71712738D01*
X84564023Y-71807976D01*
X84611642Y-71998452D01*
X84611642Y-72141309D01*
X84564023Y-72331785D01*
X84516404Y-72427023D01*
X84421166Y-72522261D01*
X84278309Y-72569880D01*
X84040214Y-72569880D01*
X84992595Y-71665119D02*
X85040214Y-71617500D01*
X85135452Y-71569880D01*
X85373547Y-71569880D01*
X85468785Y-71617500D01*
X85516404Y-71665119D01*
X85564023Y-71760357D01*
X85564023Y-71855595D01*
X85516404Y-71998452D01*
X84944976Y-72569880D01*
X85564023Y-72569880D01*
X86516404Y-72569880D02*
X85944976Y-72569880D01*
X86230690Y-72569880D02*
X86230690Y-71569880D01*
X86135452Y-71712738D01*
X86040214Y-71807976D01*
X85944976Y-71855595D01*
X82074761Y-111569333D02*
X82122380Y-111426476D01*
X82122380Y-111188380D01*
X82074761Y-111093142D01*
X82027142Y-111045523D01*
X81931904Y-110997904D01*
X81836666Y-110997904D01*
X81741428Y-111045523D01*
X81693809Y-111093142D01*
X81646190Y-111188380D01*
X81598571Y-111378857D01*
X81550952Y-111474095D01*
X81503333Y-111521714D01*
X81408095Y-111569333D01*
X81312857Y-111569333D01*
X81217619Y-111521714D01*
X81170000Y-111474095D01*
X81122380Y-111378857D01*
X81122380Y-111140761D01*
X81170000Y-110997904D01*
X81122380Y-110664571D02*
X82122380Y-110426476D01*
X81408095Y-110236000D01*
X82122380Y-110045523D01*
X81122380Y-109807428D01*
X81217619Y-109474095D02*
X81170000Y-109426476D01*
X81122380Y-109331238D01*
X81122380Y-109093142D01*
X81170000Y-108997904D01*
X81217619Y-108950285D01*
X81312857Y-108902666D01*
X81408095Y-108902666D01*
X81550952Y-108950285D01*
X82122380Y-109521714D01*
X82122380Y-108902666D01*
X78198214Y-72569880D02*
X78198214Y-71569880D01*
X78436309Y-71569880D01*
X78579166Y-71617500D01*
X78674404Y-71712738D01*
X78722023Y-71807976D01*
X78769642Y-71998452D01*
X78769642Y-72141309D01*
X78722023Y-72331785D01*
X78674404Y-72427023D01*
X78579166Y-72522261D01*
X78436309Y-72569880D01*
X78198214Y-72569880D01*
X79150595Y-71665119D02*
X79198214Y-71617500D01*
X79293452Y-71569880D01*
X79531547Y-71569880D01*
X79626785Y-71617500D01*
X79674404Y-71665119D01*
X79722023Y-71760357D01*
X79722023Y-71855595D01*
X79674404Y-71998452D01*
X79102976Y-72569880D01*
X79722023Y-72569880D01*
X80055357Y-71569880D02*
X80674404Y-71569880D01*
X80341071Y-71950833D01*
X80483928Y-71950833D01*
X80579166Y-71998452D01*
X80626785Y-72046071D01*
X80674404Y-72141309D01*
X80674404Y-72379404D01*
X80626785Y-72474642D01*
X80579166Y-72522261D01*
X80483928Y-72569880D01*
X80198214Y-72569880D01*
X80102976Y-72522261D01*
X80055357Y-72474642D01*
X101566214Y-72569880D02*
X101566214Y-71569880D01*
X101804309Y-71569880D01*
X101947166Y-71617500D01*
X102042404Y-71712738D01*
X102090023Y-71807976D01*
X102137642Y-71998452D01*
X102137642Y-72141309D01*
X102090023Y-72331785D01*
X102042404Y-72427023D01*
X101947166Y-72522261D01*
X101804309Y-72569880D01*
X101566214Y-72569880D01*
X103090023Y-72569880D02*
X102518595Y-72569880D01*
X102804309Y-72569880D02*
X102804309Y-71569880D01*
X102709071Y-71712738D01*
X102613833Y-71807976D01*
X102518595Y-71855595D01*
X103994785Y-71569880D02*
X103518595Y-71569880D01*
X103470976Y-72046071D01*
X103518595Y-71998452D01*
X103613833Y-71950833D01*
X103851928Y-71950833D01*
X103947166Y-71998452D01*
X103994785Y-72046071D01*
X104042404Y-72141309D01*
X104042404Y-72379404D01*
X103994785Y-72474642D01*
X103947166Y-72522261D01*
X103851928Y-72569880D01*
X103613833Y-72569880D01*
X103518595Y-72522261D01*
X103470976Y-72474642D01*
X89882214Y-72569880D02*
X89882214Y-71569880D01*
X90120309Y-71569880D01*
X90263166Y-71617500D01*
X90358404Y-71712738D01*
X90406023Y-71807976D01*
X90453642Y-71998452D01*
X90453642Y-72141309D01*
X90406023Y-72331785D01*
X90358404Y-72427023D01*
X90263166Y-72522261D01*
X90120309Y-72569880D01*
X89882214Y-72569880D01*
X91406023Y-72569880D02*
X90834595Y-72569880D01*
X91120309Y-72569880D02*
X91120309Y-71569880D01*
X91025071Y-71712738D01*
X90929833Y-71807976D01*
X90834595Y-71855595D01*
X91882214Y-72569880D02*
X92072690Y-72569880D01*
X92167928Y-72522261D01*
X92215547Y-72474642D01*
X92310785Y-72331785D01*
X92358404Y-72141309D01*
X92358404Y-71760357D01*
X92310785Y-71665119D01*
X92263166Y-71617500D01*
X92167928Y-71569880D01*
X91977452Y-71569880D01*
X91882214Y-71617500D01*
X91834595Y-71665119D01*
X91786976Y-71760357D01*
X91786976Y-71998452D01*
X91834595Y-72093690D01*
X91882214Y-72141309D01*
X91977452Y-72188928D01*
X92167928Y-72188928D01*
X92263166Y-72141309D01*
X92310785Y-72093690D01*
X92358404Y-71998452D01*
X96002142Y-106270380D02*
X95668809Y-105794190D01*
X95430714Y-106270380D02*
X95430714Y-105270380D01*
X95811666Y-105270380D01*
X95906904Y-105318000D01*
X95954523Y-105365619D01*
X96002142Y-105460857D01*
X96002142Y-105603714D01*
X95954523Y-105698952D01*
X95906904Y-105746571D01*
X95811666Y-105794190D01*
X95430714Y-105794190D01*
X96383095Y-105365619D02*
X96430714Y-105318000D01*
X96525952Y-105270380D01*
X96764047Y-105270380D01*
X96859285Y-105318000D01*
X96906904Y-105365619D01*
X96954523Y-105460857D01*
X96954523Y-105556095D01*
X96906904Y-105698952D01*
X96335476Y-106270380D01*
X96954523Y-106270380D01*
X97811666Y-105270380D02*
X97621190Y-105270380D01*
X97525952Y-105318000D01*
X97478333Y-105365619D01*
X97383095Y-105508476D01*
X97335476Y-105698952D01*
X97335476Y-106079904D01*
X97383095Y-106175142D01*
X97430714Y-106222761D01*
X97525952Y-106270380D01*
X97716428Y-106270380D01*
X97811666Y-106222761D01*
X97859285Y-106175142D01*
X97906904Y-106079904D01*
X97906904Y-105841809D01*
X97859285Y-105746571D01*
X97811666Y-105698952D01*
X97716428Y-105651333D01*
X97525952Y-105651333D01*
X97430714Y-105698952D01*
X97383095Y-105746571D01*
X97335476Y-105841809D01*
X96002142Y-100174380D02*
X95668809Y-99698190D01*
X95430714Y-100174380D02*
X95430714Y-99174380D01*
X95811666Y-99174380D01*
X95906904Y-99222000D01*
X95954523Y-99269619D01*
X96002142Y-99364857D01*
X96002142Y-99507714D01*
X95954523Y-99602952D01*
X95906904Y-99650571D01*
X95811666Y-99698190D01*
X95430714Y-99698190D01*
X96383095Y-99269619D02*
X96430714Y-99222000D01*
X96525952Y-99174380D01*
X96764047Y-99174380D01*
X96859285Y-99222000D01*
X96906904Y-99269619D01*
X96954523Y-99364857D01*
X96954523Y-99460095D01*
X96906904Y-99602952D01*
X96335476Y-100174380D01*
X96954523Y-100174380D01*
X97335476Y-99269619D02*
X97383095Y-99222000D01*
X97478333Y-99174380D01*
X97716428Y-99174380D01*
X97811666Y-99222000D01*
X97859285Y-99269619D01*
X97906904Y-99364857D01*
X97906904Y-99460095D01*
X97859285Y-99602952D01*
X97287857Y-100174380D01*
X97906904Y-100174380D01*
X132242666Y-98258380D02*
X132242666Y-98972666D01*
X132195047Y-99115523D01*
X132099809Y-99210761D01*
X131956952Y-99258380D01*
X131861714Y-99258380D01*
X132623619Y-98258380D02*
X133242666Y-98258380D01*
X132909333Y-98639333D01*
X133052190Y-98639333D01*
X133147428Y-98686952D01*
X133195047Y-98734571D01*
X133242666Y-98829809D01*
X133242666Y-99067904D01*
X133195047Y-99163142D01*
X133147428Y-99210761D01*
X133052190Y-99258380D01*
X132766476Y-99258380D01*
X132671238Y-99210761D01*
X132623619Y-99163142D01*
X96002142Y-95602380D02*
X95668809Y-95126190D01*
X95430714Y-95602380D02*
X95430714Y-94602380D01*
X95811666Y-94602380D01*
X95906904Y-94650000D01*
X95954523Y-94697619D01*
X96002142Y-94792857D01*
X96002142Y-94935714D01*
X95954523Y-95030952D01*
X95906904Y-95078571D01*
X95811666Y-95126190D01*
X95430714Y-95126190D01*
X96954523Y-95602380D02*
X96383095Y-95602380D01*
X96668809Y-95602380D02*
X96668809Y-94602380D01*
X96573571Y-94745238D01*
X96478333Y-94840476D01*
X96383095Y-94888095D01*
X97430714Y-95602380D02*
X97621190Y-95602380D01*
X97716428Y-95554761D01*
X97764047Y-95507142D01*
X97859285Y-95364285D01*
X97906904Y-95173809D01*
X97906904Y-94792857D01*
X97859285Y-94697619D01*
X97811666Y-94650000D01*
X97716428Y-94602380D01*
X97525952Y-94602380D01*
X97430714Y-94650000D01*
X97383095Y-94697619D01*
X97335476Y-94792857D01*
X97335476Y-95030952D01*
X97383095Y-95126190D01*
X97430714Y-95173809D01*
X97525952Y-95221428D01*
X97716428Y-95221428D01*
X97811666Y-95173809D01*
X97859285Y-95126190D01*
X97906904Y-95030952D01*
X89154095Y-92246380D02*
X89154095Y-93055904D01*
X89201714Y-93151142D01*
X89249333Y-93198761D01*
X89344571Y-93246380D01*
X89535047Y-93246380D01*
X89630285Y-93198761D01*
X89677904Y-93151142D01*
X89725523Y-93055904D01*
X89725523Y-92246380D01*
X90725523Y-93246380D02*
X90154095Y-93246380D01*
X90439809Y-93246380D02*
X90439809Y-92246380D01*
X90344571Y-92389238D01*
X90249333Y-92484476D01*
X90154095Y-92532095D01*
D12*
X121224141Y-89575500D02*
X120916859Y-89575500D01*
X121224141Y-88815500D02*
X120916859Y-88815500D01*
X89154000Y-64262000D02*
X78994000Y-64262000D01*
X89154000Y-71882000D02*
X89154000Y-64262000D01*
X78994000Y-71882000D02*
X89154000Y-71882000D01*
X78994000Y-64262000D02*
X78994000Y-71882000D01*
X78994000Y-65532000D02*
X89154000Y-65532000D01*
X129794000Y-71882000D02*
X129794000Y-64262000D01*
X129794000Y-71882000D02*
X109474000Y-71882000D01*
X129794000Y-64262000D02*
X109474000Y-64262000D01*
X109474000Y-64262000D02*
X109474000Y-71882000D01*
X109474000Y-65532000D02*
X129794000Y-65532000D01*
X89154000Y-64262000D02*
X89154000Y-71882000D01*
X89154000Y-65532000D02*
X109474000Y-65532000D01*
X109474000Y-71882000D02*
X89154000Y-71882000D01*
X109474000Y-64262000D02*
X89154000Y-64262000D01*
X109474000Y-71882000D02*
X109474000Y-64262000D01*
X118146500Y-73921141D02*
X118146500Y-73613859D01*
X117386500Y-73921141D02*
X117386500Y-73613859D01*
X95668500Y-78400500D02*
X95668500Y-85004500D01*
X100240500Y-78400500D02*
X100240500Y-85004500D01*
X100240500Y-85004500D02*
X95668500Y-85004500D01*
X100240500Y-78400500D02*
X95668500Y-78400500D01*
D13*
X100467500Y-76876500D02*
G75*
G03*
X100467500Y-76876500I-100000J0D01*
G01*
X99832500Y-78908500D02*
G75*
G03*
X99832500Y-78908500I-100000J0D01*
G01*
D12*
X106082500Y-78400500D02*
X101510500Y-78400500D01*
X106082500Y-78400500D02*
X106082500Y-85004500D01*
X106082500Y-85004500D02*
X101510500Y-85004500D01*
X101510500Y-78400500D02*
X101510500Y-85004500D01*
D13*
X106309500Y-76876500D02*
G75*
G03*
X106309500Y-76876500I-100000J0D01*
G01*
X105674500Y-78908500D02*
G75*
G03*
X105674500Y-78908500I-100000J0D01*
G01*
D12*
X123608500Y-85004500D02*
X119036500Y-85004500D01*
X123608500Y-78400500D02*
X123608500Y-85004500D01*
X119036500Y-78400500D02*
X119036500Y-85004500D01*
X123608500Y-78400500D02*
X119036500Y-78400500D01*
D13*
X123835500Y-76876500D02*
G75*
G03*
X123835500Y-76876500I-100000J0D01*
G01*
X123200500Y-78908500D02*
G75*
G03*
X123200500Y-78908500I-100000J0D01*
G01*
D12*
X111924500Y-85004500D02*
X107352500Y-85004500D01*
X107352500Y-78400500D02*
X107352500Y-85004500D01*
X111924500Y-78400500D02*
X111924500Y-85004500D01*
X111924500Y-78400500D02*
X107352500Y-78400500D01*
D13*
X111516500Y-78908500D02*
G75*
G03*
X111516500Y-78908500I-100000J0D01*
G01*
X112151500Y-76876500D02*
G75*
G03*
X112151500Y-76876500I-100000J0D01*
G01*
D12*
X123988500Y-73921141D02*
X123988500Y-73613859D01*
X123228500Y-73921141D02*
X123228500Y-73613859D01*
X117766500Y-85004500D02*
X113194500Y-85004500D01*
X117766500Y-78400500D02*
X113194500Y-78400500D01*
X113194500Y-78400500D02*
X113194500Y-85004500D01*
X117766500Y-78400500D02*
X117766500Y-85004500D01*
D13*
X117993500Y-76876500D02*
G75*
G03*
X117993500Y-76876500I-100000J0D01*
G01*
X117358500Y-78908500D02*
G75*
G03*
X117358500Y-78908500I-100000J0D01*
G01*
D12*
X100076000Y-117205700D02*
X122996000Y-117205700D01*
X97476000Y-114545700D02*
X98806000Y-114545700D01*
X122996000Y-117205700D02*
X122996000Y-114545700D01*
X97476000Y-115875700D02*
X97476000Y-114545700D01*
X100076000Y-114545700D02*
X122996000Y-114545700D01*
X100076000Y-117205700D02*
X100076000Y-114545700D01*
X129540000Y-126492000D02*
X109220000Y-126492000D01*
X109220000Y-120142000D02*
X129540000Y-120142000D01*
X129540000Y-127762000D02*
X129540000Y-120142000D01*
X109220000Y-127762000D02*
X129540000Y-127762000D01*
X109220000Y-120142000D02*
X109220000Y-127762000D01*
X77824359Y-101220000D02*
X78131641Y-101220000D01*
X77824359Y-101980000D02*
X78131641Y-101980000D01*
X77243000Y-97594748D02*
X77243000Y-98117252D01*
X78713000Y-97594748D02*
X78713000Y-98117252D01*
X77824359Y-100710000D02*
X78131641Y-100710000D01*
X77824359Y-99950000D02*
X78131641Y-99950000D01*
X109220000Y-126492000D02*
X88900000Y-126492000D01*
X88900000Y-120142000D02*
X109220000Y-120142000D01*
X109220000Y-127762000D02*
X109220000Y-120142000D01*
X88900000Y-127762000D02*
X109220000Y-127762000D01*
X88900000Y-120142000D02*
X88900000Y-127762000D01*
X111544500Y-73921141D02*
X111544500Y-73613859D01*
X112304500Y-73921141D02*
X112304500Y-73613859D01*
X88556500Y-85004500D02*
X83984500Y-85004500D01*
X88556500Y-78400500D02*
X88556500Y-85004500D01*
X88556500Y-78400500D02*
X83984500Y-78400500D01*
X83984500Y-78400500D02*
X83984500Y-85004500D01*
D13*
X88148500Y-78908500D02*
G75*
G03*
X88148500Y-78908500I-100000J0D01*
G01*
X88783500Y-76876500D02*
G75*
G03*
X88783500Y-76876500I-100000J0D01*
G01*
D12*
X78740000Y-120142000D02*
X78740000Y-127762000D01*
X88900000Y-120142000D02*
X78740000Y-120142000D01*
X78740000Y-127762000D02*
X88900000Y-127762000D01*
X88900000Y-126492000D02*
X78740000Y-126492000D01*
X88900000Y-127762000D02*
X88900000Y-120142000D01*
X94398500Y-78400500D02*
X94398500Y-85004500D01*
X94398500Y-85004500D02*
X89826500Y-85004500D01*
X89826500Y-78400500D02*
X89826500Y-85004500D01*
X94398500Y-78400500D02*
X89826500Y-78400500D01*
D13*
X94625500Y-76876500D02*
G75*
G03*
X94625500Y-76876500I-100000J0D01*
G01*
X93990500Y-78908500D02*
G75*
G03*
X93990500Y-78908500I-100000J0D01*
G01*
D12*
X115507141Y-88815500D02*
X115199859Y-88815500D01*
X115507141Y-89575500D02*
X115199859Y-89575500D01*
X82714500Y-85004500D02*
X78142500Y-85004500D01*
X78142500Y-78400500D02*
X78142500Y-85004500D01*
X82714500Y-78400500D02*
X82714500Y-85004500D01*
X82714500Y-78400500D02*
X78142500Y-78400500D01*
D13*
X82306500Y-78908500D02*
G75*
G03*
X82306500Y-78908500I-100000J0D01*
G01*
X82941500Y-76876500D02*
G75*
G03*
X82941500Y-76876500I-100000J0D01*
G01*
D12*
X87920500Y-73613859D02*
X87920500Y-73921141D01*
X87160500Y-73613859D02*
X87160500Y-73921141D01*
X92139141Y-89575500D02*
X91831859Y-89575500D01*
X92139141Y-88815500D02*
X91831859Y-88815500D01*
X105446500Y-73613859D02*
X105446500Y-73921141D01*
X104686500Y-73613859D02*
X104686500Y-73921141D01*
X116638000Y-94360000D02*
X116638000Y-92545000D01*
X116883000Y-98220000D02*
X116883000Y-102080000D01*
X116883000Y-98220000D02*
X116883000Y-94360000D01*
X105113000Y-94360000D02*
X105358000Y-94360000D01*
X116883000Y-102080000D02*
X116638000Y-102080000D01*
X116883000Y-94360000D02*
X116638000Y-94360000D01*
X105113000Y-98220000D02*
X105113000Y-94360000D01*
X105113000Y-98220000D02*
X105113000Y-102080000D01*
X105113000Y-102080000D02*
X105358000Y-102080000D01*
X109665141Y-88815500D02*
X109357859Y-88815500D01*
X109665141Y-89575500D02*
X109357859Y-89575500D01*
X118621500Y-72807500D02*
X118621500Y-74727500D01*
X118621500Y-74727500D02*
X121306500Y-74727500D01*
X121306500Y-72807500D02*
X118621500Y-72807500D01*
X116370500Y-73613859D02*
X116370500Y-73921141D01*
X117130500Y-73613859D02*
X117130500Y-73921141D01*
X79127000Y-112266000D02*
X79127000Y-110912667D01*
X72022000Y-105286000D02*
X81942000Y-105286000D01*
X80157000Y-112266000D02*
X80157000Y-108206000D01*
X77427000Y-112266000D02*
X77427000Y-110912667D01*
X78887000Y-112266000D02*
X80157000Y-112266000D01*
X75007000Y-112266000D02*
X75007000Y-110912667D01*
X79367000Y-112266000D02*
X79367000Y-110912667D01*
X79607000Y-112266000D02*
X79607000Y-110912667D01*
X78887000Y-108206000D02*
X78887000Y-112266000D01*
X79247000Y-112266000D02*
X79247000Y-110912667D01*
X73927000Y-112266000D02*
X73927000Y-110912667D01*
X80087000Y-112266000D02*
X80087000Y-110912667D01*
X75077000Y-108206000D02*
X73807000Y-108206000D01*
X76707000Y-112266000D02*
X76707000Y-110912667D01*
X73807000Y-110912667D02*
X75077000Y-110912667D01*
X76827000Y-112266000D02*
X76827000Y-110912667D01*
X79007000Y-112266000D02*
X79007000Y-110912667D01*
X77617000Y-112266000D02*
X77617000Y-108206000D01*
X72022000Y-115186000D02*
X81942000Y-115186000D01*
X80157000Y-108206000D02*
X78887000Y-108206000D01*
X76347000Y-112266000D02*
X77617000Y-112266000D01*
X81942000Y-115186000D02*
X81942000Y-105286000D01*
X76947000Y-112266000D02*
X76947000Y-110912667D01*
X77187000Y-112266000D02*
X77187000Y-110912667D01*
X71782000Y-115426000D02*
X71782000Y-114042000D01*
X73807000Y-108206000D02*
X73807000Y-112266000D01*
X79967000Y-112266000D02*
X79967000Y-110912667D01*
X76467000Y-112266000D02*
X76467000Y-110912667D01*
X74647000Y-112266000D02*
X74647000Y-110912667D01*
X74407000Y-112266000D02*
X74407000Y-110912667D01*
X78887000Y-110912667D02*
X80157000Y-110912667D01*
X74887000Y-112266000D02*
X74887000Y-110912667D01*
X74047000Y-112266000D02*
X74047000Y-110912667D01*
X74167000Y-112266000D02*
X74167000Y-110912667D01*
X77067000Y-112266000D02*
X77067000Y-110912667D01*
X76347000Y-108206000D02*
X76347000Y-112266000D01*
X77547000Y-112266000D02*
X77547000Y-110912667D01*
X72022000Y-115186000D02*
X72022000Y-105286000D01*
X77307000Y-112266000D02*
X77307000Y-110912667D01*
X74287000Y-112266000D02*
X74287000Y-110912667D01*
X77617000Y-108206000D02*
X76347000Y-108206000D01*
X75077000Y-112266000D02*
X75077000Y-108206000D01*
X76347000Y-110912667D02*
X77617000Y-110912667D01*
X74767000Y-112266000D02*
X74767000Y-110912667D01*
X76587000Y-112266000D02*
X76587000Y-110912667D01*
X79487000Y-112266000D02*
X79487000Y-110912667D01*
X79847000Y-112266000D02*
X79847000Y-110912667D01*
X71782000Y-115426000D02*
X73165000Y-115426000D01*
X73807000Y-112266000D02*
X75077000Y-112266000D01*
X79727000Y-112266000D02*
X79727000Y-110912667D01*
X74527000Y-112266000D02*
X74527000Y-110912667D01*
X96798641Y-102744000D02*
X96491359Y-102744000D01*
X96798641Y-103504000D02*
X96491359Y-103504000D01*
X96798641Y-95884000D02*
X96491359Y-95884000D01*
X96798641Y-95124000D02*
X96491359Y-95124000D01*
X103732359Y-107621700D02*
X104039641Y-107621700D01*
X103732359Y-108381700D02*
X104039641Y-108381700D01*
X105466000Y-111972700D02*
X107386000Y-111972700D01*
X105466000Y-109287700D02*
X105466000Y-111972700D01*
X107386000Y-111972700D02*
X107386000Y-109287700D01*
X96798641Y-101980000D02*
X96491359Y-101980000D01*
X96798641Y-101220000D02*
X96491359Y-101220000D01*
X93002500Y-73613859D02*
X93002500Y-73921141D01*
X93762500Y-73613859D02*
X93762500Y-73921141D01*
X115464500Y-72807500D02*
X112779500Y-72807500D01*
X112779500Y-72807500D02*
X112779500Y-74727500D01*
X112779500Y-74727500D02*
X115464500Y-74727500D01*
X97981141Y-89575500D02*
X97673859Y-89575500D01*
X97981141Y-88815500D02*
X97673859Y-88815500D01*
X118972359Y-108381700D02*
X119279641Y-108381700D01*
X118972359Y-107621700D02*
X119279641Y-107621700D01*
X81380359Y-100964000D02*
X81687641Y-100964000D01*
X81380359Y-100204000D02*
X81687641Y-100204000D01*
X110546000Y-111972700D02*
X112466000Y-111972700D01*
X110546000Y-109287700D02*
X110546000Y-111972700D01*
X112466000Y-111972700D02*
X112466000Y-109287700D01*
X71712000Y-87291000D02*
X69052000Y-87291000D01*
X69052000Y-102651000D02*
X71712000Y-102651000D01*
X63052000Y-95861000D02*
X69052000Y-95861000D01*
X72109071Y-99161000D02*
X71712000Y-99161000D01*
X69052000Y-101641000D02*
X63052000Y-101641000D01*
X71712000Y-89891000D02*
X69052000Y-89891000D01*
X69052000Y-101161000D02*
X63052000Y-101161000D01*
X63052000Y-96621000D02*
X63052000Y-95861000D01*
X72109071Y-96621000D02*
X71712000Y-96621000D01*
X69052000Y-94081000D02*
X63052000Y-94081000D01*
X72042000Y-100941000D02*
X71712000Y-100941000D01*
X69052000Y-87291000D02*
X69052000Y-102651000D01*
X63052000Y-93321000D02*
X69052000Y-93321000D01*
X63052000Y-91541000D02*
X63052000Y-90781000D01*
X72109071Y-89001000D02*
X71712000Y-89001000D01*
X63052000Y-90781000D02*
X69052000Y-90781000D01*
X69052000Y-89001000D02*
X63052000Y-89001000D01*
X69052000Y-101041000D02*
X63052000Y-101041000D01*
X71712000Y-94971000D02*
X69052000Y-94971000D01*
X63052000Y-89001000D02*
X63052000Y-88241000D01*
X63052000Y-101701000D02*
X63052000Y-100941000D01*
X74422000Y-101321000D02*
X74422000Y-102591000D01*
X72109071Y-91541000D02*
X71712000Y-91541000D01*
X63052000Y-88241000D02*
X69052000Y-88241000D01*
X72109071Y-94081000D02*
X71712000Y-94081000D01*
X69052000Y-91541000D02*
X63052000Y-91541000D01*
X69052000Y-101701000D02*
X63052000Y-101701000D01*
X72042000Y-101701000D02*
X71712000Y-101701000D01*
X69052000Y-99161000D02*
X63052000Y-99161000D01*
X71712000Y-102651000D02*
X71712000Y-87291000D01*
X74422000Y-102591000D02*
X73152000Y-102591000D01*
X72109071Y-95861000D02*
X71712000Y-95861000D01*
X71712000Y-92431000D02*
X69052000Y-92431000D01*
X71712000Y-97511000D02*
X69052000Y-97511000D01*
X72109071Y-93321000D02*
X71712000Y-93321000D01*
X71712000Y-100051000D02*
X69052000Y-100051000D01*
X63052000Y-100941000D02*
X69052000Y-100941000D01*
X69052000Y-101281000D02*
X63052000Y-101281000D01*
X69052000Y-96621000D02*
X63052000Y-96621000D01*
X72109071Y-98401000D02*
X71712000Y-98401000D01*
X69052000Y-101401000D02*
X63052000Y-101401000D01*
X63052000Y-99161000D02*
X63052000Y-98401000D01*
X63052000Y-98401000D02*
X69052000Y-98401000D01*
X72109071Y-88241000D02*
X71712000Y-88241000D01*
X69052000Y-101521000D02*
X63052000Y-101521000D01*
X63052000Y-94081000D02*
X63052000Y-93321000D01*
X72109071Y-90781000D02*
X71712000Y-90781000D01*
X96800641Y-96648000D02*
X96493359Y-96648000D01*
X96800641Y-97408000D02*
X96493359Y-97408000D01*
X81318500Y-73613859D02*
X81318500Y-73921141D01*
X82078500Y-73613859D02*
X82078500Y-73921141D01*
X103823141Y-88815500D02*
X103515859Y-88815500D01*
X103823141Y-89575500D02*
X103515859Y-89575500D01*
X102306000Y-111972700D02*
X102306000Y-109287700D01*
X100386000Y-109287700D02*
X100386000Y-111972700D01*
X100386000Y-111972700D02*
X102306000Y-111972700D01*
X108006000Y-109287700D02*
X108006000Y-111972700D01*
X109926000Y-111972700D02*
X109926000Y-109287700D01*
X108006000Y-111972700D02*
X109926000Y-111972700D01*
X106462500Y-73921141D02*
X106462500Y-73613859D01*
X105702500Y-73921141D02*
X105702500Y-73613859D01*
X95253500Y-72807500D02*
X95253500Y-74727500D01*
X95253500Y-74727500D02*
X97938500Y-74727500D01*
X97938500Y-72807500D02*
X95253500Y-72807500D01*
X120086000Y-111972700D02*
X120086000Y-109287700D01*
X118166000Y-109287700D02*
X118166000Y-111972700D01*
X118166000Y-111972700D02*
X120086000Y-111972700D01*
X100620500Y-73921141D02*
X100620500Y-73613859D01*
X99860500Y-73921141D02*
X99860500Y-73613859D01*
X96798641Y-99696000D02*
X96491359Y-99696000D01*
X96798641Y-100456000D02*
X96491359Y-100456000D01*
X113086000Y-109287700D02*
X113086000Y-111972700D01*
X115006000Y-111972700D02*
X115006000Y-109287700D01*
X113086000Y-111972700D02*
X115006000Y-111972700D01*
X102926000Y-109287700D02*
X102926000Y-111972700D01*
X102926000Y-111972700D02*
X104846000Y-111972700D01*
X104846000Y-111972700D02*
X104846000Y-109287700D01*
X111288500Y-73613859D02*
X111288500Y-73921141D01*
X110528500Y-73613859D02*
X110528500Y-73921141D01*
X94018500Y-73921141D02*
X94018500Y-73613859D01*
X94778500Y-73921141D02*
X94778500Y-73613859D01*
X106272359Y-108381700D02*
X106579641Y-108381700D01*
X106272359Y-107621700D02*
X106579641Y-107621700D01*
X111352359Y-107621700D02*
X111659641Y-107621700D01*
X111352359Y-108381700D02*
X111659641Y-108381700D01*
X80455141Y-89575500D02*
X80147859Y-89575500D01*
X80455141Y-88815500D02*
X80147859Y-88815500D01*
X116432359Y-107621700D02*
X116739641Y-107621700D01*
X116432359Y-108381700D02*
X116739641Y-108381700D01*
X117546000Y-111972700D02*
X117546000Y-109287700D01*
X115626000Y-109287700D02*
X115626000Y-111972700D01*
X115626000Y-111972700D02*
X117546000Y-111972700D01*
X81380359Y-97156000D02*
X81687641Y-97156000D01*
X81380359Y-97916000D02*
X81687641Y-97916000D01*
X106937500Y-74727500D02*
X109622500Y-74727500D01*
X109622500Y-72807500D02*
X106937500Y-72807500D01*
X106937500Y-72807500D02*
X106937500Y-74727500D01*
X99604500Y-73613859D02*
X99604500Y-73921141D01*
X98844500Y-73613859D02*
X98844500Y-73921141D01*
X101192359Y-108381700D02*
X101499641Y-108381700D01*
X101192359Y-107621700D02*
X101499641Y-107621700D01*
X86297141Y-88815500D02*
X85989859Y-88815500D01*
X86297141Y-89575500D02*
X85989859Y-89575500D01*
X113892359Y-107621700D02*
X114199641Y-107621700D01*
X113892359Y-108381700D02*
X114199641Y-108381700D01*
X86254500Y-72807500D02*
X83569500Y-72807500D01*
X83569500Y-72807500D02*
X83569500Y-74727500D01*
X83569500Y-74727500D02*
X86254500Y-74727500D01*
X108812359Y-108381700D02*
X109119641Y-108381700D01*
X108812359Y-107621700D02*
X109119641Y-107621700D01*
X88176500Y-73921141D02*
X88176500Y-73613859D01*
X88936500Y-73921141D02*
X88936500Y-73613859D01*
X84455000Y-110912667D02*
X85725000Y-110912667D01*
X82670000Y-105286000D02*
X90050000Y-105286000D01*
X85415000Y-112266000D02*
X85415000Y-110912667D01*
X84455000Y-108206000D02*
X84455000Y-112266000D01*
X90050000Y-115186000D02*
X90050000Y-105286000D01*
X87955000Y-112266000D02*
X87955000Y-110912667D01*
X85295000Y-112266000D02*
X85295000Y-110912667D01*
X88265000Y-108206000D02*
X86995000Y-108206000D01*
X86995000Y-110912667D02*
X88265000Y-110912667D01*
X82430000Y-115426000D02*
X83813000Y-115426000D01*
X88195000Y-112266000D02*
X88195000Y-110912667D01*
X82430000Y-115426000D02*
X82430000Y-114042000D01*
X87355000Y-112266000D02*
X87355000Y-110912667D01*
X84815000Y-112266000D02*
X84815000Y-110912667D01*
X85055000Y-112266000D02*
X85055000Y-110912667D01*
X87475000Y-112266000D02*
X87475000Y-110912667D01*
X86995000Y-108206000D02*
X86995000Y-112266000D01*
X87115000Y-112266000D02*
X87115000Y-110912667D01*
X84695000Y-112266000D02*
X84695000Y-110912667D01*
X82670000Y-115186000D02*
X82670000Y-105286000D01*
X85175000Y-112266000D02*
X85175000Y-110912667D01*
X87835000Y-112266000D02*
X87835000Y-110912667D01*
X84575000Y-112266000D02*
X84575000Y-110912667D01*
X87235000Y-112266000D02*
X87235000Y-110912667D01*
X85655000Y-112266000D02*
X85655000Y-110912667D01*
X88075000Y-112266000D02*
X88075000Y-110912667D01*
X88265000Y-112266000D02*
X88265000Y-108206000D01*
X87595000Y-112266000D02*
X87595000Y-110912667D01*
X86995000Y-112266000D02*
X88265000Y-112266000D01*
X85535000Y-112266000D02*
X85535000Y-110912667D01*
X84935000Y-112266000D02*
X84935000Y-110912667D01*
X87715000Y-112266000D02*
X87715000Y-110912667D01*
X82670000Y-115186000D02*
X90050000Y-115186000D01*
X85725000Y-108206000D02*
X84455000Y-108206000D01*
X84455000Y-112266000D02*
X85725000Y-112266000D01*
X85725000Y-112266000D02*
X85725000Y-108206000D01*
X82334500Y-73921141D02*
X82334500Y-73613859D01*
X83094500Y-73921141D02*
X83094500Y-73613859D01*
X80412500Y-72807500D02*
X77727500Y-72807500D01*
X77727500Y-72807500D02*
X77727500Y-74727500D01*
X77727500Y-74727500D02*
X80412500Y-74727500D01*
X122212500Y-73613859D02*
X122212500Y-73921141D01*
X122972500Y-73613859D02*
X122972500Y-73921141D01*
X103780500Y-72807500D02*
X101095500Y-72807500D01*
X101095500Y-74727500D02*
X103780500Y-74727500D01*
X101095500Y-72807500D02*
X101095500Y-74727500D01*
X92096500Y-72807500D02*
X89411500Y-72807500D01*
X89411500Y-74727500D02*
X92096500Y-74727500D01*
X89411500Y-72807500D02*
X89411500Y-74727500D01*
X96798641Y-104268000D02*
X96491359Y-104268000D01*
X96798641Y-105028000D02*
X96491359Y-105028000D01*
X81380359Y-99440000D02*
X81687641Y-99440000D01*
X81380359Y-98680000D02*
X81687641Y-98680000D01*
X96798641Y-98172000D02*
X96491359Y-98172000D01*
X96798641Y-98932000D02*
X96491359Y-98932000D01*
X138286000Y-100995765D02*
X129656000Y-100995765D01*
X129656000Y-100961000D02*
X129306000Y-100961000D01*
X138286000Y-100169100D02*
X129656000Y-100169100D01*
X138286000Y-102058620D02*
X129656000Y-102058620D01*
X138286000Y-100405290D02*
X129656000Y-100405290D01*
X138286000Y-102294810D02*
X129656000Y-102294810D01*
X138286000Y-100641480D02*
X129656000Y-100641480D01*
X129656000Y-88261000D02*
X129246000Y-88261000D01*
X138286000Y-102176715D02*
X129656000Y-102176715D01*
X138286000Y-101113860D02*
X129656000Y-101113860D01*
X138286000Y-100287195D02*
X129656000Y-100287195D01*
X138286000Y-97511000D02*
X129656000Y-97511000D01*
X138286000Y-102531000D02*
X129656000Y-102531000D01*
X129656000Y-93341000D02*
X129246000Y-93341000D01*
X129656000Y-90801000D02*
X129246000Y-90801000D01*
X138286000Y-100877670D02*
X129656000Y-100877670D01*
X138286000Y-102651000D02*
X129656000Y-102651000D01*
X138286000Y-87291000D02*
X129656000Y-87291000D01*
X129656000Y-102651000D02*
X129656000Y-87291000D01*
X129656000Y-101681000D02*
X129306000Y-101681000D01*
X129656000Y-94061000D02*
X129246000Y-94061000D01*
X138286000Y-89891000D02*
X129656000Y-89891000D01*
X138286000Y-100759575D02*
X129656000Y-100759575D01*
X129656000Y-95881000D02*
X129246000Y-95881000D01*
X138286000Y-101231955D02*
X129656000Y-101231955D01*
X138286000Y-101704335D02*
X129656000Y-101704335D01*
X138286000Y-101586240D02*
X129656000Y-101586240D01*
X138286000Y-101940525D02*
X129656000Y-101940525D01*
X138286000Y-102412905D02*
X129656000Y-102412905D01*
X138286000Y-101822430D02*
X129656000Y-101822430D01*
X129656000Y-98421000D02*
X129246000Y-98421000D01*
X129656000Y-96601000D02*
X129246000Y-96601000D01*
X138286000Y-100051000D02*
X129656000Y-100051000D01*
X127086000Y-102651000D02*
X127086000Y-101321000D01*
X138286000Y-102651000D02*
X138286000Y-87291000D01*
X128196000Y-102651000D02*
X127086000Y-102651000D01*
X138286000Y-100523385D02*
X129656000Y-100523385D01*
X129656000Y-88981000D02*
X129246000Y-88981000D01*
X138286000Y-101468145D02*
X129656000Y-101468145D01*
X129656000Y-99141000D02*
X129246000Y-99141000D01*
X138286000Y-92431000D02*
X129656000Y-92431000D01*
X138286000Y-94971000D02*
X129656000Y-94971000D01*
X138286000Y-101350050D02*
X129656000Y-101350050D01*
X129656000Y-91521000D02*
X129246000Y-91521000D01*
X96798641Y-93600000D02*
X96491359Y-93600000D01*
X96798641Y-94360000D02*
X96491359Y-94360000D01*
D10*
X92791000Y-93719000D02*
X92791000Y-94019000D01*
X92791000Y-102369000D02*
X92791000Y-102069000D01*
X87041000Y-93719000D02*
X92791000Y-93719000D01*
X87041000Y-93944000D02*
X85441000Y-93944000D01*
X87041000Y-93719000D02*
X87041000Y-93944000D01*
X87041000Y-102369000D02*
X92791000Y-102369000D01*
X87041000Y-102369000D02*
X87041000Y-102069000D01*
%LPC*%
D14*
X121580500Y-89195500D03*
X120560500Y-89195500D03*
D15*
X86614000Y-68072000D03*
D16*
X81534000Y-68072000D03*
D15*
X127254000Y-68072000D03*
D16*
X122174000Y-68072000D03*
X117094000Y-68072000D03*
X112014000Y-68072000D03*
D15*
X106934000Y-68072000D03*
D16*
X101854000Y-68072000D03*
X96774000Y-68072000D03*
X91694000Y-68072000D03*
D17*
X117766500Y-74277500D03*
X117766500Y-73257500D03*
D18*
X99224500Y-76749500D03*
X96684500Y-76749500D03*
X96684500Y-86655500D03*
X99224500Y-86655500D03*
X105066500Y-76749500D03*
X102526500Y-76749500D03*
X102526500Y-86655500D03*
X105066500Y-86655500D03*
X122592500Y-76749500D03*
X120052500Y-76749500D03*
X120052500Y-86655500D03*
X122592500Y-86655500D03*
X110908500Y-76749500D03*
X108368500Y-76749500D03*
X108368500Y-86655500D03*
X110908500Y-86655500D03*
D17*
X123608500Y-74277500D03*
X123608500Y-73257500D03*
D18*
X116750500Y-76749500D03*
X114210500Y-76749500D03*
X114210500Y-86655500D03*
X116750500Y-86655500D03*
D19*
X98806000Y-115875700D03*
D20*
X101346000Y-115875700D03*
X103886000Y-115875700D03*
X106426000Y-115875700D03*
X108966000Y-115875700D03*
X111506000Y-115875700D03*
X114046000Y-115875700D03*
X116586000Y-115875700D03*
X119126000Y-115875700D03*
X121666000Y-115875700D03*
D15*
X111760000Y-123952000D03*
D16*
X116840000Y-123952000D03*
X121920000Y-123952000D03*
X127000000Y-123952000D03*
D21*
X77468000Y-101600000D03*
X78488000Y-101600000D03*
D22*
X77978000Y-96906000D03*
X77978000Y-98806000D03*
D21*
X77468000Y-100330000D03*
X78488000Y-100330000D03*
D15*
X91440000Y-123952000D03*
D16*
X96520000Y-123952000D03*
X101600000Y-123952000D03*
X106680000Y-123952000D03*
D17*
X111924500Y-74277500D03*
X111924500Y-73257500D03*
D18*
X87540500Y-76749500D03*
X85000500Y-76749500D03*
X85000500Y-86655500D03*
X87540500Y-86655500D03*
D15*
X81280000Y-123952000D03*
D16*
X86360000Y-123952000D03*
D18*
X93382500Y-76749500D03*
X90842500Y-76749500D03*
X90842500Y-86655500D03*
X93382500Y-86655500D03*
D14*
X115863500Y-89195500D03*
X114843500Y-89195500D03*
D18*
X81698500Y-76749500D03*
X79158500Y-76749500D03*
X79158500Y-86655500D03*
X81698500Y-86655500D03*
D23*
X87540500Y-73257500D03*
X87540500Y-74277500D03*
D14*
X92495500Y-89195500D03*
X91475500Y-89195500D03*
D23*
X105066500Y-73257500D03*
X105066500Y-74277500D03*
D24*
X116078000Y-93570000D03*
X114808000Y-93570000D03*
X113538000Y-93570000D03*
X112268000Y-93570000D03*
X110998000Y-93570000D03*
X109728000Y-93570000D03*
X108458000Y-93570000D03*
X107188000Y-93570000D03*
X105918000Y-93570000D03*
X105918000Y-102870000D03*
X107188000Y-102870000D03*
X108458000Y-102870000D03*
X109728000Y-102870000D03*
X110998000Y-102870000D03*
X112268000Y-102870000D03*
X113538000Y-102870000D03*
X114808000Y-102870000D03*
X116078000Y-102870000D03*
D14*
X110021500Y-89195500D03*
X109001500Y-89195500D03*
D25*
X119369000Y-73767500D03*
X121244000Y-73767500D03*
D23*
X116750500Y-73257500D03*
X116750500Y-74277500D03*
D26*
X74442000Y-114046000D03*
D27*
X76982000Y-114046000D03*
X79522000Y-114046000D03*
X79522000Y-106426000D03*
X76982000Y-106426000D03*
X74442000Y-106426000D03*
D14*
X97155000Y-103124000D03*
X96135000Y-103124000D03*
X97155000Y-95504000D03*
X96135000Y-95504000D03*
D21*
X103376000Y-108001700D03*
X104396000Y-108001700D03*
D28*
X106426000Y-111225200D03*
X106426000Y-109350200D03*
D14*
X97155000Y-101600000D03*
X96135000Y-101600000D03*
D23*
X93382500Y-73257500D03*
X93382500Y-74277500D03*
D25*
X113527000Y-73767500D03*
X115402000Y-73767500D03*
D14*
X98337500Y-89195500D03*
X97317500Y-89195500D03*
D21*
X118616000Y-108001700D03*
X119636000Y-108001700D03*
X81024000Y-100584000D03*
X82044000Y-100584000D03*
D29*
X135636000Y-128270000D03*
D28*
X111506000Y-111225200D03*
X111506000Y-109350200D03*
D30*
X73152000Y-101321000D03*
D31*
X73152000Y-98781000D03*
X73152000Y-96241000D03*
X73152000Y-93701000D03*
X73152000Y-91161000D03*
X73152000Y-88621000D03*
D14*
X97157000Y-97028000D03*
X96137000Y-97028000D03*
D23*
X81698500Y-73257500D03*
X81698500Y-74277500D03*
D14*
X104179500Y-89195500D03*
X103159500Y-89195500D03*
D28*
X101346000Y-111225200D03*
X101346000Y-109350200D03*
X108966000Y-111225200D03*
X108966000Y-109350200D03*
D17*
X106082500Y-74277500D03*
X106082500Y-73257500D03*
D25*
X96001000Y-73767500D03*
X97876000Y-73767500D03*
D28*
X119126000Y-111225200D03*
X119126000Y-109350200D03*
D17*
X100240500Y-74277500D03*
X100240500Y-73257500D03*
D14*
X97155000Y-100076000D03*
X96135000Y-100076000D03*
D28*
X114046000Y-111225200D03*
X114046000Y-109350200D03*
X103886000Y-111225200D03*
X103886000Y-109350200D03*
D23*
X110908500Y-73257500D03*
X110908500Y-74277500D03*
D17*
X94398500Y-74277500D03*
X94398500Y-73257500D03*
D21*
X105916000Y-108001700D03*
X106936000Y-108001700D03*
D29*
X73152000Y-128270000D03*
D21*
X110996000Y-108001700D03*
X112016000Y-108001700D03*
D14*
X80811500Y-89195500D03*
X79791500Y-89195500D03*
D21*
X116076000Y-108001700D03*
X117096000Y-108001700D03*
D28*
X116586000Y-111225200D03*
X116586000Y-109350200D03*
D21*
X81024000Y-97536000D03*
X82044000Y-97536000D03*
D25*
X107685000Y-73767500D03*
X109560000Y-73767500D03*
D23*
X99224500Y-73257500D03*
X99224500Y-74277500D03*
D21*
X100836000Y-108001700D03*
X101856000Y-108001700D03*
D29*
X73152000Y-63754000D03*
D14*
X86653500Y-89195500D03*
X85633500Y-89195500D03*
D21*
X113536000Y-108001700D03*
X114556000Y-108001700D03*
D29*
X135636000Y-63754000D03*
D25*
X84317000Y-73767500D03*
X86192000Y-73767500D03*
D21*
X108456000Y-108001700D03*
X109476000Y-108001700D03*
D17*
X88556500Y-74277500D03*
X88556500Y-73257500D03*
D26*
X85090000Y-114046000D03*
D27*
X87630000Y-114046000D03*
X87630000Y-106426000D03*
X85090000Y-106426000D03*
D17*
X82714500Y-74277500D03*
X82714500Y-73257500D03*
D25*
X78475000Y-73767500D03*
X80350000Y-73767500D03*
D23*
X122592500Y-73257500D03*
X122592500Y-74277500D03*
D25*
X101843000Y-73767500D03*
X103718000Y-73767500D03*
X90159000Y-73767500D03*
X92034000Y-73767500D03*
D14*
X97155000Y-104648000D03*
X96135000Y-104648000D03*
D21*
X81024000Y-99060000D03*
X82044000Y-99060000D03*
D14*
X97155000Y-98552000D03*
D30*
X128196000Y-101321000D03*
D31*
X128196000Y-98781000D03*
X128196000Y-96241000D03*
X128196000Y-93701000D03*
X128196000Y-91161000D03*
X128196000Y-88621000D03*
D14*
X97155000Y-93980000D03*
X96135000Y-93980000D03*
D32*
X86316000Y-94469000D03*
X86316000Y-95119000D03*
X86316000Y-95769000D03*
X86316000Y-96419000D03*
X86316000Y-97069000D03*
X86316000Y-97719000D03*
X86316000Y-98369000D03*
X86316000Y-99019000D03*
X86316000Y-99669000D03*
X86316000Y-100319000D03*
X86316000Y-100969000D03*
X86316000Y-101619000D03*
X93516000Y-101619000D03*
X93516000Y-100969000D03*
X93516000Y-100319000D03*
X93516000Y-99669000D03*
X93516000Y-99019000D03*
X93516000Y-98369000D03*
X93516000Y-97719000D03*
X93516000Y-97069000D03*
X93516000Y-96419000D03*
X93516000Y-95769000D03*
X93516000Y-95119000D03*
X93516000Y-94469000D03*
M02*
