G04 #@! TF.GenerationSoftware,KiCad,Pcbnew,5.99.0-unknown-9f841da98e~134~ubuntu20.04.1*
G04 #@! TF.CreationDate,2021-11-20T10:06:44+01:00*
G04 #@! TF.ProjectId,master-wt32,6d617374-6572-42d7-9774-33322e6b6963,rev?*
G04 #@! TF.SameCoordinates,PX3a22d00PY8062360*
G04 #@! TF.FileFunction,Copper,L2,Bot*
G04 #@! TF.FilePolarity,Positive*
%FSLAX46Y46*%
G04 Gerber Fmt 4.6, Leading zero omitted, Abs format (unit mm)*
G04 Created by KiCad (PCBNEW 5.99.0-unknown-9f841da98e~134~ubuntu20.04.1) date 2021-11-20 10:06:44*
%MOMM*%
%LPD*%
G01*
G04 APERTURE LIST*
G04 #@! TA.AperFunction,ComponentPad*
%ADD10O,3.048000X1.524000*%
G04 #@! TD*
G04 #@! TA.AperFunction,ComponentPad*
%ADD11R,3.000000X1.700000*%
G04 #@! TD*
G04 #@! TA.AperFunction,ComponentPad*
%ADD12O,3.000000X1.700000*%
G04 #@! TD*
G04 #@! TA.AperFunction,ComponentPad*
%ADD13R,3.000000X3.000000*%
G04 #@! TD*
G04 #@! TA.AperFunction,ComponentPad*
%ADD14C,3.000000*%
G04 #@! TD*
G04 #@! TA.AperFunction,ComponentPad*
%ADD15C,1.600000*%
G04 #@! TD*
G04 #@! TA.AperFunction,ComponentPad*
%ADD16O,1.600000X1.600000*%
G04 #@! TD*
G04 #@! TA.AperFunction,ComponentPad*
%ADD17R,1.600000X1.600000*%
G04 #@! TD*
G04 #@! TA.AperFunction,ComponentPad*
%ADD18R,1.800000X1.800000*%
G04 #@! TD*
G04 #@! TA.AperFunction,ComponentPad*
%ADD19C,1.800000*%
G04 #@! TD*
G04 #@! TA.AperFunction,ComponentPad*
%ADD20O,1.524000X3.048000*%
G04 #@! TD*
G04 #@! TA.AperFunction,ComponentPad*
%ADD21R,2.000000X1.905000*%
G04 #@! TD*
G04 #@! TA.AperFunction,ComponentPad*
%ADD22O,2.000000X1.905000*%
G04 #@! TD*
G04 #@! TA.AperFunction,Conductor*
%ADD23C,0.500000*%
G04 #@! TD*
G04 #@! TA.AperFunction,Conductor*
%ADD24C,0.200000*%
G04 #@! TD*
G04 APERTURE END LIST*
D10*
X94234000Y-77470000D03*
X94234000Y-80010000D03*
X94234000Y-82550000D03*
X94234000Y-85090000D03*
X94234000Y-87630000D03*
X94234000Y-90170000D03*
X94234000Y-92710000D03*
X94234000Y-95250000D03*
X94234000Y-97790000D03*
X94234000Y-100330000D03*
X94234000Y-102870000D03*
X94234000Y-105410000D03*
X94234000Y-107950000D03*
X71374000Y-107950000D03*
X71374000Y-105410000D03*
X71374000Y-102870000D03*
X71374000Y-100330000D03*
X71374000Y-97790000D03*
X71374000Y-95250000D03*
X71374000Y-92710000D03*
X71374000Y-90170000D03*
X71374000Y-87630000D03*
X71374000Y-85090000D03*
X71374000Y-82550000D03*
X71374000Y-80010000D03*
X71374000Y-77470000D03*
D11*
X116483200Y-96495000D03*
D12*
X116483200Y-93955000D03*
X116483200Y-91415000D03*
X116483200Y-88875000D03*
X116483200Y-86335000D03*
X116483200Y-83795000D03*
D13*
X109474000Y-119888000D03*
D14*
X104394000Y-119888000D03*
X99314000Y-119888000D03*
D15*
X85090000Y-102362000D03*
D16*
X85090000Y-94742000D03*
D13*
X77216000Y-62484000D03*
D14*
X82296000Y-62484000D03*
X87376000Y-62484000D03*
X92456000Y-62484000D03*
D15*
X77470000Y-80772000D03*
D16*
X77470000Y-73152000D03*
D15*
X88900000Y-102362000D03*
D16*
X88900000Y-94742000D03*
D17*
X81783000Y-80762000D03*
D16*
X84323000Y-80762000D03*
X84323000Y-73142000D03*
X81783000Y-73142000D03*
D15*
X88646000Y-80772000D03*
D16*
X88646000Y-73152000D03*
D15*
X86868000Y-85090000D03*
D16*
X79248000Y-85090000D03*
D18*
X120650000Y-78740000D03*
D19*
X123190000Y-78740000D03*
D20*
X114300000Y-100457000D03*
X106680000Y-100457000D03*
X109220000Y-100457000D03*
X104140000Y-100457000D03*
X111760000Y-100457000D03*
X104140000Y-59690000D03*
X114300000Y-59690000D03*
X109220000Y-59690000D03*
X101600000Y-59690000D03*
X106680000Y-59690000D03*
X111760000Y-59690000D03*
X101600000Y-100457000D03*
X116840000Y-59690000D03*
X99060000Y-59690000D03*
X99060000Y-100457000D03*
X116840000Y-100457000D03*
D17*
X104282500Y-72390000D03*
D16*
X109362500Y-72390000D03*
X109362500Y-64770000D03*
X104282500Y-64770000D03*
D17*
X101600000Y-107950000D03*
D15*
X99100000Y-107950000D03*
D11*
X116483200Y-116875000D03*
D12*
X116483200Y-114335000D03*
X116483200Y-111795000D03*
X116483200Y-109255000D03*
X116483200Y-106715000D03*
X116483200Y-104175000D03*
D15*
X108458000Y-77470000D03*
D16*
X116078000Y-77470000D03*
D15*
X104140000Y-77470000D03*
X104140000Y-82470000D03*
D21*
X124135000Y-72390000D03*
D22*
X124135000Y-69850000D03*
X124135000Y-67310000D03*
D23*
X113677000Y-98183500D02*
X114926000Y-98183500D01*
X116483000Y-83795000D02*
X115277000Y-83795000D01*
X116078000Y-82994000D02*
X116078000Y-77470000D01*
X113030000Y-84836000D02*
X113030000Y-97536000D01*
X115277000Y-83795000D02*
X114071000Y-83795000D01*
X116840000Y-100097000D02*
X116840000Y-100457000D01*
X114926000Y-98183500D02*
X116840000Y-100097000D01*
X115277000Y-83795000D02*
X116078000Y-82994000D01*
X113030000Y-97536000D02*
X113677000Y-98183500D01*
X114071000Y-83795000D02*
X113030000Y-84836000D01*
X116483200Y-83795000D02*
X116483000Y-83795000D01*
X123190000Y-83058000D02*
X119913000Y-86335000D01*
X99100000Y-111038000D02*
X99100000Y-107950000D01*
X119913000Y-86335000D02*
X116483200Y-86335000D01*
X99060000Y-87550000D02*
X99060000Y-100457000D01*
X104140000Y-82470000D02*
X99060000Y-87550000D01*
X94234000Y-102870000D02*
X96647000Y-102870000D01*
X116483200Y-86335000D02*
X116483000Y-86335000D01*
X104394000Y-119888000D02*
X104394000Y-116332000D01*
X123190000Y-78740000D02*
X123190000Y-83058000D01*
X96647000Y-102870000D02*
X99060000Y-100457000D01*
X104394000Y-116332000D02*
X99100000Y-111038000D01*
X109474000Y-117638000D02*
X101600000Y-109764000D01*
X109474000Y-119888000D02*
X109474000Y-117638000D01*
X101600000Y-109764000D02*
X101600000Y-107950000D01*
D24*
X94234000Y-90170000D02*
X91440000Y-90170000D01*
X91440000Y-90170000D02*
X88900000Y-92710000D01*
X88900000Y-92710000D02*
X88900000Y-94742000D01*
X110998000Y-74930000D02*
X118364000Y-74930000D01*
X108458000Y-77470000D02*
X110998000Y-74930000D01*
X120650000Y-77216000D02*
X120650000Y-78740000D01*
X118364000Y-74930000D02*
X120650000Y-77216000D01*
M02*
