M48
METRIC
T1C0.762
T2C0.800
T3C0.900
T4C1.000
T5C1.100
T6C1.520
T7C2.032
T8C3.200
%
G90
G05
T1
X71.374Y-77.47
X71.374Y-80.01
X71.374Y-82.55
X71.374Y-85.09
X71.374Y-87.63
X71.374Y-90.17
X71.374Y-92.71
X71.374Y-95.25
X71.374Y-97.79
X71.374Y-100.33
X71.374Y-102.87
X71.374Y-105.41
X71.374Y-107.95
X94.234Y-77.47
X94.234Y-80.01
X94.234Y-82.55
X94.234Y-85.09
X94.234Y-87.63
X94.234Y-90.17
X94.234Y-92.71
X94.234Y-95.25
X94.234Y-97.79
X94.234Y-100.33
X94.234Y-102.87
X94.234Y-105.41
X94.234Y-107.95
X99.06Y-59.69
X99.06Y-100.457
X101.6Y-59.69
X101.6Y-100.457
X104.14Y-59.69
X104.14Y-100.457
X106.68Y-59.69
X106.68Y-100.457
X109.22Y-59.69
X109.22Y-100.457
X111.76Y-59.69
X111.76Y-100.457
X114.3Y-59.69
X114.3Y-100.457
X116.84Y-59.69
X116.84Y-100.457
T2
X77.47Y-73.152
X77.47Y-80.772
X79.248Y-85.09
X81.783Y-73.142
X81.783Y-80.762
X84.323Y-73.142
X84.323Y-80.762
X85.09Y-94.742
X85.09Y-102.362
X86.868Y-85.09
X88.646Y-73.152
X88.646Y-80.772
X88.9Y-94.742
X88.9Y-102.362
X99.1Y-107.95
X101.6Y-107.95
X104.14Y-77.47
X104.14Y-82.47
X104.282Y-64.77
X104.282Y-72.39
X108.458Y-77.47
X109.362Y-64.77
X109.362Y-72.39
X116.078Y-77.47
T3
X120.65Y-78.74
X123.19Y-78.74
T4
X116.483Y-83.795
X116.483Y-86.335
X116.483Y-88.875
X116.483Y-91.415
X116.483Y-93.955
X116.483Y-96.495
X116.483Y-104.175
X116.483Y-106.715
X116.483Y-109.255
X116.483Y-111.795
X116.483Y-114.335
X116.483Y-116.875
T5
X124.135Y-67.31
X124.135Y-69.85
X124.135Y-72.39
T6
X77.216Y-62.484
X82.296Y-62.484
X87.376Y-62.484
X92.456Y-62.484
X99.314Y-119.888
X104.394Y-119.888
X109.474Y-119.888
T7
X71.374Y-122.555
X94.234Y-122.555
T8
X67.056Y-58.928
X67.056Y-123.444
X123.923Y-58.928
X123.923Y-123.444
T0
M30
