%FSLAX45Y45*%
G04 Gerber Fmt 4.5, Leading zero omitted, Abs format (unit mm)*
G04 Created by KiCad (PCBNEW 5.99.0-unknown-9f841da98e~134~ubuntu20.04.1) date 2021-11-20 10:06:44*
%MOMM*%
%LPD*%
G01*
G04 APERTURE LIST*
%TA.AperFunction,Profile*%
%ADD10C,0.050000*%
%TD*%
%ADD11C,0.200000*%
%ADD12C,0.076200*%
%ADD13C,0.080000*%
%ADD14C,0.090000*%
%ADD15C,0.100000*%
%ADD16C,0.110000*%
%ADD17C,0.152000*%
%ADD18C,0.203200*%
%ADD19C,0.320000*%
G04 APERTURE END LIST*
D10*
X6350000Y-5791200D02*
G75*
G02*
X6604000Y-5537200I254000J0D01*
G01*
X6604000Y-12700000D02*
X12499220Y-12700000D01*
X6350000Y-12446000D02*
X6350000Y-5791200D01*
X12753220Y-12446000D02*
G75*
G02*
X12499220Y-12700000I-254000J0D01*
G01*
X6604000Y-5537200D02*
X12499000Y-5537200D01*
X12499000Y-5537200D02*
G75*
G02*
X12753000Y-5791200I0J-254000D01*
G01*
X12753000Y-5791200D02*
X12753220Y-12446000D01*
X6604000Y-12700000D02*
G75*
G02*
X6350000Y-12446000I0J254000D01*
G01*
D11*
D12*
X7099300Y-7708900D02*
X7175500Y-7785100D01*
X7175500Y-7708900D02*
X7099300Y-7785100D01*
X7099300Y-7962900D02*
X7175500Y-8039100D01*
X7175500Y-7962900D02*
X7099300Y-8039100D01*
X7099300Y-8216900D02*
X7175500Y-8293100D01*
X7175500Y-8216900D02*
X7099300Y-8293100D01*
X7099300Y-8470900D02*
X7175500Y-8547100D01*
X7175500Y-8470900D02*
X7099300Y-8547100D01*
X7099300Y-8724900D02*
X7175500Y-8801100D01*
X7175500Y-8724900D02*
X7099300Y-8801100D01*
X7099300Y-8978900D02*
X7175500Y-9055100D01*
X7175500Y-8978900D02*
X7099300Y-9055100D01*
X7099300Y-9232900D02*
X7175500Y-9309100D01*
X7175500Y-9232900D02*
X7099300Y-9309100D01*
X7099300Y-9486900D02*
X7175500Y-9563100D01*
X7175500Y-9486900D02*
X7099300Y-9563100D01*
X7099300Y-9740900D02*
X7175500Y-9817100D01*
X7175500Y-9740900D02*
X7099300Y-9817100D01*
X7099300Y-9994900D02*
X7175500Y-10071100D01*
X7175500Y-9994900D02*
X7099300Y-10071100D01*
X7099300Y-10248900D02*
X7175500Y-10325100D01*
X7175500Y-10248900D02*
X7099300Y-10325100D01*
X7099300Y-10502900D02*
X7175500Y-10579100D01*
X7175500Y-10502900D02*
X7099300Y-10579100D01*
X7099300Y-10756900D02*
X7175500Y-10833100D01*
X7175500Y-10756900D02*
X7099300Y-10833100D01*
X9385300Y-7708900D02*
X9461500Y-7785100D01*
X9461500Y-7708900D02*
X9385300Y-7785100D01*
X9385300Y-7962900D02*
X9461500Y-8039100D01*
X9461500Y-7962900D02*
X9385300Y-8039100D01*
X9385300Y-8216900D02*
X9461500Y-8293100D01*
X9461500Y-8216900D02*
X9385300Y-8293100D01*
X9385300Y-8470900D02*
X9461500Y-8547100D01*
X9461500Y-8470900D02*
X9385300Y-8547100D01*
X9385300Y-8724900D02*
X9461500Y-8801100D01*
X9461500Y-8724900D02*
X9385300Y-8801100D01*
X9385300Y-8978900D02*
X9461500Y-9055100D01*
X9461500Y-8978900D02*
X9385300Y-9055100D01*
X9385300Y-9232900D02*
X9461500Y-9309100D01*
X9461500Y-9232900D02*
X9385300Y-9309100D01*
X9385300Y-9486900D02*
X9461500Y-9563100D01*
X9461500Y-9486900D02*
X9385300Y-9563100D01*
X9385300Y-9740900D02*
X9461500Y-9817100D01*
X9461500Y-9740900D02*
X9385300Y-9817100D01*
X9385300Y-9994900D02*
X9461500Y-10071100D01*
X9461500Y-9994900D02*
X9385300Y-10071100D01*
X9385300Y-10248900D02*
X9461500Y-10325100D01*
X9461500Y-10248900D02*
X9385300Y-10325100D01*
X9385300Y-10502900D02*
X9461500Y-10579100D01*
X9461500Y-10502900D02*
X9385300Y-10579100D01*
X9385300Y-10756900D02*
X9461500Y-10833100D01*
X9461500Y-10756900D02*
X9385300Y-10833100D01*
X9867900Y-5930900D02*
X9944100Y-6007100D01*
X9944100Y-5930900D02*
X9867900Y-6007100D01*
X9867900Y-10007600D02*
X9944100Y-10083800D01*
X9944100Y-10007600D02*
X9867900Y-10083800D01*
X10121900Y-5930900D02*
X10198100Y-6007100D01*
X10198100Y-5930900D02*
X10121900Y-6007100D01*
X10121900Y-10007600D02*
X10198100Y-10083800D01*
X10198100Y-10007600D02*
X10121900Y-10083800D01*
X10375900Y-5930900D02*
X10452100Y-6007100D01*
X10452100Y-5930900D02*
X10375900Y-6007100D01*
X10375900Y-10007600D02*
X10452100Y-10083800D01*
X10452100Y-10007600D02*
X10375900Y-10083800D01*
X10629900Y-5930900D02*
X10706100Y-6007100D01*
X10706100Y-5930900D02*
X10629900Y-6007100D01*
X10629900Y-10007600D02*
X10706100Y-10083800D01*
X10706100Y-10007600D02*
X10629900Y-10083800D01*
X10883900Y-5930900D02*
X10960100Y-6007100D01*
X10960100Y-5930900D02*
X10883900Y-6007100D01*
X10883900Y-10007600D02*
X10960100Y-10083800D01*
X10960100Y-10007600D02*
X10883900Y-10083800D01*
X11137900Y-5930900D02*
X11214100Y-6007100D01*
X11214100Y-5930900D02*
X11137900Y-6007100D01*
X11137900Y-10007600D02*
X11214100Y-10083800D01*
X11214100Y-10007600D02*
X11137900Y-10083800D01*
X11391900Y-5930900D02*
X11468100Y-6007100D01*
X11468100Y-5930900D02*
X11391900Y-6007100D01*
X11391900Y-10007600D02*
X11468100Y-10083800D01*
X11468100Y-10007600D02*
X11391900Y-10083800D01*
X11645900Y-5930900D02*
X11722100Y-6007100D01*
X11722100Y-5930900D02*
X11645900Y-6007100D01*
X11645900Y-10007600D02*
X11722100Y-10083800D01*
X11722100Y-10007600D02*
X11645900Y-10083800D01*
D13*
X7787000Y-7315200D02*
G75*
G03*
X7787000Y-7315200I-40000J0D01*
G01*
X7787000Y-8077200D02*
G75*
G03*
X7787000Y-8077200I-40000J0D01*
G01*
X7964800Y-8509000D02*
G75*
G03*
X7964800Y-8509000I-40000J0D01*
G01*
X8218300Y-7314200D02*
G75*
G03*
X8218300Y-7314200I-40000J0D01*
G01*
X8218300Y-8076200D02*
G75*
G03*
X8218300Y-8076200I-40000J0D01*
G01*
X8472300Y-7314200D02*
G75*
G03*
X8472300Y-7314200I-40000J0D01*
G01*
X8472300Y-8076200D02*
G75*
G03*
X8472300Y-8076200I-40000J0D01*
G01*
X8549000Y-9474200D02*
G75*
G03*
X8549000Y-9474200I-40000J0D01*
G01*
X8549000Y-10236200D02*
G75*
G03*
X8549000Y-10236200I-40000J0D01*
G01*
X8726800Y-8509000D02*
G75*
G03*
X8726800Y-8509000I-40000J0D01*
G01*
X8904600Y-7315200D02*
G75*
G03*
X8904600Y-7315200I-40000J0D01*
G01*
X8904600Y-8077200D02*
G75*
G03*
X8904600Y-8077200I-40000J0D01*
G01*
X8930000Y-9474200D02*
G75*
G03*
X8930000Y-9474200I-40000J0D01*
G01*
X8930000Y-10236200D02*
G75*
G03*
X8930000Y-10236200I-40000J0D01*
G01*
X9950000Y-10795000D02*
G75*
G03*
X9950000Y-10795000I-40000J0D01*
G01*
X10200000Y-10795000D02*
G75*
G03*
X10200000Y-10795000I-40000J0D01*
G01*
X10454000Y-7747000D02*
G75*
G03*
X10454000Y-7747000I-40000J0D01*
G01*
X10454000Y-8247000D02*
G75*
G03*
X10454000Y-8247000I-40000J0D01*
G01*
X10468250Y-6477000D02*
G75*
G03*
X10468250Y-6477000I-40000J0D01*
G01*
X10468250Y-7239000D02*
G75*
G03*
X10468250Y-7239000I-40000J0D01*
G01*
X10885800Y-7747000D02*
G75*
G03*
X10885800Y-7747000I-40000J0D01*
G01*
X10976250Y-6477000D02*
G75*
G03*
X10976250Y-6477000I-40000J0D01*
G01*
X10976250Y-7239000D02*
G75*
G03*
X10976250Y-7239000I-40000J0D01*
G01*
X11647800Y-7747000D02*
G75*
G03*
X11647800Y-7747000I-40000J0D01*
G01*
D14*
X12065000Y-7829000D02*
X12065000Y-7919000D01*
X12020000Y-7874000D02*
X12110000Y-7874000D01*
X12319000Y-7829000D02*
X12319000Y-7919000D01*
X12274000Y-7874000D02*
X12364000Y-7874000D01*
D15*
X11683676Y-8414856D02*
X11683676Y-8344144D01*
X11612964Y-8344144D01*
X11612964Y-8414856D01*
X11683676Y-8414856D01*
X11683676Y-8668856D02*
X11683676Y-8598144D01*
X11612964Y-8598144D01*
X11612964Y-8668856D01*
X11683676Y-8668856D01*
X11683676Y-8922856D02*
X11683676Y-8852144D01*
X11612964Y-8852144D01*
X11612964Y-8922856D01*
X11683676Y-8922856D01*
X11683676Y-9176856D02*
X11683676Y-9106144D01*
X11612964Y-9106144D01*
X11612964Y-9176856D01*
X11683676Y-9176856D01*
X11683676Y-9430856D02*
X11683676Y-9360144D01*
X11612964Y-9360144D01*
X11612964Y-9430856D01*
X11683676Y-9430856D01*
X11683676Y-9684856D02*
X11683676Y-9614144D01*
X11612964Y-9614144D01*
X11612964Y-9684856D01*
X11683676Y-9684856D01*
X11683676Y-10452856D02*
X11683676Y-10382144D01*
X11612964Y-10382144D01*
X11612964Y-10452856D01*
X11683676Y-10452856D01*
X11683676Y-10706856D02*
X11683676Y-10636144D01*
X11612964Y-10636144D01*
X11612964Y-10706856D01*
X11683676Y-10706856D01*
X11683676Y-10960856D02*
X11683676Y-10890144D01*
X11612964Y-10890144D01*
X11612964Y-10960856D01*
X11683676Y-10960856D01*
X11683676Y-11214856D02*
X11683676Y-11144144D01*
X11612964Y-11144144D01*
X11612964Y-11214856D01*
X11683676Y-11214856D01*
X11683676Y-11468856D02*
X11683676Y-11398144D01*
X11612964Y-11398144D01*
X11612964Y-11468856D01*
X11683676Y-11468856D01*
X11683676Y-11722856D02*
X11683676Y-11652144D01*
X11612964Y-11652144D01*
X11612964Y-11722856D01*
X11683676Y-11722856D01*
D16*
X12413500Y-6786000D02*
X12468500Y-6731000D01*
X12413500Y-6676000D01*
X12358500Y-6731000D01*
X12413500Y-6786000D01*
X12413500Y-7040000D02*
X12468500Y-6985000D01*
X12413500Y-6930000D01*
X12358500Y-6985000D01*
X12413500Y-7040000D01*
X12413500Y-7294000D02*
X12468500Y-7239000D01*
X12413500Y-7184000D01*
X12358500Y-7239000D01*
X12413500Y-7294000D01*
D17*
X7645600Y-6172400D02*
X7797600Y-6324400D01*
X7797600Y-6172400D02*
X7645600Y-6324400D01*
X7797600Y-6248400D02*
G75*
G03*
X7797600Y-6248400I-76000J0D01*
G01*
X8153600Y-6172400D02*
X8305600Y-6324400D01*
X8305600Y-6172400D02*
X8153600Y-6324400D01*
X8305600Y-6248400D02*
G75*
G03*
X8305600Y-6248400I-76000J0D01*
G01*
X8661600Y-6172400D02*
X8813600Y-6324400D01*
X8813600Y-6172400D02*
X8661600Y-6324400D01*
X8813600Y-6248400D02*
G75*
G03*
X8813600Y-6248400I-76000J0D01*
G01*
X9169600Y-6172400D02*
X9321600Y-6324400D01*
X9321600Y-6172400D02*
X9169600Y-6324400D01*
X9321600Y-6248400D02*
G75*
G03*
X9321600Y-6248400I-76000J0D01*
G01*
X9855400Y-11912800D02*
X10007400Y-12064800D01*
X10007400Y-11912800D02*
X9855400Y-12064800D01*
X10007400Y-11988800D02*
G75*
G03*
X10007400Y-11988800I-76000J0D01*
G01*
X10363400Y-11912800D02*
X10515400Y-12064800D01*
X10515400Y-11912800D02*
X10363400Y-12064800D01*
X10515400Y-11988800D02*
G75*
G03*
X10515400Y-11988800I-76000J0D01*
G01*
X10871400Y-11912800D02*
X11023400Y-12064800D01*
X11023400Y-11912800D02*
X10871400Y-12064800D01*
X11023400Y-11988800D02*
G75*
G03*
X11023400Y-11988800I-76000J0D01*
G01*
D18*
X7035800Y-12153900D02*
X7239000Y-12357100D01*
X7239000Y-12153900D02*
X7035800Y-12357100D01*
X7137400Y-12153900D02*
X7137400Y-12357100D01*
X7035800Y-12255500D02*
X7239000Y-12255500D01*
X9321800Y-12153900D02*
X9525000Y-12357100D01*
X9525000Y-12153900D02*
X9321800Y-12357100D01*
X9423400Y-12153900D02*
X9423400Y-12357100D01*
X9321800Y-12255500D02*
X9525000Y-12255500D01*
D19*
X6545600Y-5732800D02*
X6865600Y-6052800D01*
X6865600Y-5732800D02*
X6545600Y-6052800D01*
X6818738Y-6005938D02*
X6818738Y-5779662D01*
X6592462Y-5779662D01*
X6592462Y-6005938D01*
X6818738Y-6005938D01*
X6545600Y-12184400D02*
X6865600Y-12504400D01*
X6865600Y-12184400D02*
X6545600Y-12504400D01*
X6818738Y-12457538D02*
X6818738Y-12231262D01*
X6592462Y-12231262D01*
X6592462Y-12457538D01*
X6818738Y-12457538D01*
X12232320Y-5732800D02*
X12552320Y-6052800D01*
X12552320Y-5732800D02*
X12232320Y-6052800D01*
X12505458Y-6005938D02*
X12505458Y-5779662D01*
X12279182Y-5779662D01*
X12279182Y-6005938D01*
X12505458Y-6005938D01*
X12232320Y-12184400D02*
X12552320Y-12504400D01*
X12552320Y-12184400D02*
X12232320Y-12504400D01*
X12505458Y-12457538D02*
X12505458Y-12231262D01*
X12279182Y-12231262D01*
X12279182Y-12457538D01*
X12505458Y-12457538D01*
D11*
X6600119Y-13017976D02*
X6600119Y-12817976D01*
X6647738Y-12817976D01*
X6676309Y-12827500D01*
X6695357Y-12846548D01*
X6704881Y-12865595D01*
X6714405Y-12903690D01*
X6714405Y-12932262D01*
X6704881Y-12970357D01*
X6695357Y-12989405D01*
X6676309Y-13008452D01*
X6647738Y-13017976D01*
X6600119Y-13017976D01*
X6800119Y-13017976D02*
X6800119Y-12884643D01*
X6800119Y-12922738D02*
X6809643Y-12903690D01*
X6819167Y-12894167D01*
X6838214Y-12884643D01*
X6857262Y-12884643D01*
X6923928Y-13017976D02*
X6923928Y-12884643D01*
X6923928Y-12817976D02*
X6914405Y-12827500D01*
X6923928Y-12837024D01*
X6933452Y-12827500D01*
X6923928Y-12817976D01*
X6923928Y-12837024D01*
X7047738Y-13017976D02*
X7028690Y-13008452D01*
X7019167Y-12989405D01*
X7019167Y-12817976D01*
X7152500Y-13017976D02*
X7133452Y-13008452D01*
X7123928Y-12989405D01*
X7123928Y-12817976D01*
X7381071Y-13017976D02*
X7381071Y-12817976D01*
X7447738Y-12960833D01*
X7514405Y-12817976D01*
X7514405Y-13017976D01*
X7695357Y-13017976D02*
X7695357Y-12913214D01*
X7685833Y-12894167D01*
X7666786Y-12884643D01*
X7628690Y-12884643D01*
X7609643Y-12894167D01*
X7695357Y-13008452D02*
X7676309Y-13017976D01*
X7628690Y-13017976D01*
X7609643Y-13008452D01*
X7600119Y-12989405D01*
X7600119Y-12970357D01*
X7609643Y-12951309D01*
X7628690Y-12941786D01*
X7676309Y-12941786D01*
X7695357Y-12932262D01*
X7790595Y-12884643D02*
X7790595Y-13084643D01*
X7790595Y-12894167D02*
X7809643Y-12884643D01*
X7847738Y-12884643D01*
X7866786Y-12894167D01*
X7876309Y-12903690D01*
X7885833Y-12922738D01*
X7885833Y-12979881D01*
X7876309Y-12998928D01*
X7866786Y-13008452D01*
X7847738Y-13017976D01*
X7809643Y-13017976D01*
X7790595Y-13008452D01*
X7971548Y-12998928D02*
X7981071Y-13008452D01*
X7971548Y-13017976D01*
X7962024Y-13008452D01*
X7971548Y-12998928D01*
X7971548Y-13017976D01*
X7971548Y-12894167D02*
X7981071Y-12903690D01*
X7971548Y-12913214D01*
X7962024Y-12903690D01*
X7971548Y-12894167D01*
X7971548Y-12913214D01*
D12*
X6266300Y-13309400D02*
X6342500Y-13385600D01*
X6342500Y-13309400D02*
X6266300Y-13385600D01*
D11*
X6638214Y-13237976D02*
X6657262Y-13237976D01*
X6676309Y-13247500D01*
X6685833Y-13257024D01*
X6695357Y-13276071D01*
X6704881Y-13314167D01*
X6704881Y-13361786D01*
X6695357Y-13399881D01*
X6685833Y-13418928D01*
X6676309Y-13428452D01*
X6657262Y-13437976D01*
X6638214Y-13437976D01*
X6619167Y-13428452D01*
X6609643Y-13418928D01*
X6600119Y-13399881D01*
X6590595Y-13361786D01*
X6590595Y-13314167D01*
X6600119Y-13276071D01*
X6609643Y-13257024D01*
X6619167Y-13247500D01*
X6638214Y-13237976D01*
X6790595Y-13418928D02*
X6800119Y-13428452D01*
X6790595Y-13437976D01*
X6781071Y-13428452D01*
X6790595Y-13418928D01*
X6790595Y-13437976D01*
X6866786Y-13237976D02*
X7000119Y-13237976D01*
X6914405Y-13437976D01*
X7162024Y-13237976D02*
X7123928Y-13237976D01*
X7104881Y-13247500D01*
X7095357Y-13257024D01*
X7076309Y-13285595D01*
X7066786Y-13323690D01*
X7066786Y-13399881D01*
X7076309Y-13418928D01*
X7085833Y-13428452D01*
X7104881Y-13437976D01*
X7142976Y-13437976D01*
X7162024Y-13428452D01*
X7171548Y-13418928D01*
X7181071Y-13399881D01*
X7181071Y-13352262D01*
X7171548Y-13333214D01*
X7162024Y-13323690D01*
X7142976Y-13314167D01*
X7104881Y-13314167D01*
X7085833Y-13323690D01*
X7076309Y-13333214D01*
X7066786Y-13352262D01*
X7257262Y-13257024D02*
X7266786Y-13247500D01*
X7285833Y-13237976D01*
X7333452Y-13237976D01*
X7352500Y-13247500D01*
X7362024Y-13257024D01*
X7371548Y-13276071D01*
X7371548Y-13295119D01*
X7362024Y-13323690D01*
X7247738Y-13437976D01*
X7371548Y-13437976D01*
X7457262Y-13437976D02*
X7457262Y-13304643D01*
X7457262Y-13323690D02*
X7466786Y-13314167D01*
X7485833Y-13304643D01*
X7514405Y-13304643D01*
X7533452Y-13314167D01*
X7542976Y-13333214D01*
X7542976Y-13437976D01*
X7542976Y-13333214D02*
X7552500Y-13314167D01*
X7571548Y-13304643D01*
X7600119Y-13304643D01*
X7619167Y-13314167D01*
X7628690Y-13333214D01*
X7628690Y-13437976D01*
X7723928Y-13437976D02*
X7723928Y-13304643D01*
X7723928Y-13323690D02*
X7733452Y-13314167D01*
X7752500Y-13304643D01*
X7781071Y-13304643D01*
X7800119Y-13314167D01*
X7809643Y-13333214D01*
X7809643Y-13437976D01*
X7809643Y-13333214D02*
X7819167Y-13314167D01*
X7838214Y-13304643D01*
X7866786Y-13304643D01*
X7885833Y-13314167D01*
X7895357Y-13333214D01*
X7895357Y-13437976D01*
X8285833Y-13228452D02*
X8114405Y-13485595D01*
X8542976Y-13237976D02*
X8562024Y-13237976D01*
X8581071Y-13247500D01*
X8590595Y-13257024D01*
X8600119Y-13276071D01*
X8609643Y-13314167D01*
X8609643Y-13361786D01*
X8600119Y-13399881D01*
X8590595Y-13418928D01*
X8581071Y-13428452D01*
X8562024Y-13437976D01*
X8542976Y-13437976D01*
X8523929Y-13428452D01*
X8514405Y-13418928D01*
X8504881Y-13399881D01*
X8495357Y-13361786D01*
X8495357Y-13314167D01*
X8504881Y-13276071D01*
X8514405Y-13257024D01*
X8523929Y-13247500D01*
X8542976Y-13237976D01*
X8695357Y-13418928D02*
X8704881Y-13428452D01*
X8695357Y-13437976D01*
X8685833Y-13428452D01*
X8695357Y-13418928D01*
X8695357Y-13437976D01*
X8828690Y-13237976D02*
X8847738Y-13237976D01*
X8866786Y-13247500D01*
X8876310Y-13257024D01*
X8885833Y-13276071D01*
X8895357Y-13314167D01*
X8895357Y-13361786D01*
X8885833Y-13399881D01*
X8876310Y-13418928D01*
X8866786Y-13428452D01*
X8847738Y-13437976D01*
X8828690Y-13437976D01*
X8809643Y-13428452D01*
X8800119Y-13418928D01*
X8790595Y-13399881D01*
X8781071Y-13361786D01*
X8781071Y-13314167D01*
X8790595Y-13276071D01*
X8800119Y-13257024D01*
X8809643Y-13247500D01*
X8828690Y-13237976D01*
X8962024Y-13237976D02*
X9085833Y-13237976D01*
X9019167Y-13314167D01*
X9047738Y-13314167D01*
X9066786Y-13323690D01*
X9076310Y-13333214D01*
X9085833Y-13352262D01*
X9085833Y-13399881D01*
X9076310Y-13418928D01*
X9066786Y-13428452D01*
X9047738Y-13437976D01*
X8990595Y-13437976D01*
X8971548Y-13428452D01*
X8962024Y-13418928D01*
X9209643Y-13237976D02*
X9228690Y-13237976D01*
X9247738Y-13247500D01*
X9257262Y-13257024D01*
X9266786Y-13276071D01*
X9276310Y-13314167D01*
X9276310Y-13361786D01*
X9266786Y-13399881D01*
X9257262Y-13418928D01*
X9247738Y-13428452D01*
X9228690Y-13437976D01*
X9209643Y-13437976D01*
X9190595Y-13428452D01*
X9181071Y-13418928D01*
X9171548Y-13399881D01*
X9162024Y-13361786D01*
X9162024Y-13314167D01*
X9171548Y-13276071D01*
X9181071Y-13257024D01*
X9190595Y-13247500D01*
X9209643Y-13237976D01*
X9400119Y-13237976D02*
X9419167Y-13237976D01*
X9438214Y-13247500D01*
X9447738Y-13257024D01*
X9457262Y-13276071D01*
X9466786Y-13314167D01*
X9466786Y-13361786D01*
X9457262Y-13399881D01*
X9447738Y-13418928D01*
X9438214Y-13428452D01*
X9419167Y-13437976D01*
X9400119Y-13437976D01*
X9381071Y-13428452D01*
X9371548Y-13418928D01*
X9362024Y-13399881D01*
X9352500Y-13361786D01*
X9352500Y-13314167D01*
X9362024Y-13276071D01*
X9371548Y-13257024D01*
X9381071Y-13247500D01*
X9400119Y-13237976D01*
X9542976Y-13237976D02*
X9542976Y-13276071D01*
X9619167Y-13237976D02*
X9619167Y-13276071D01*
X9914405Y-13514167D02*
X9904881Y-13504643D01*
X9885833Y-13476071D01*
X9876310Y-13457024D01*
X9866786Y-13428452D01*
X9857262Y-13380833D01*
X9857262Y-13342738D01*
X9866786Y-13295119D01*
X9876310Y-13266548D01*
X9885833Y-13247500D01*
X9904881Y-13218928D01*
X9914405Y-13209405D01*
X10076310Y-13304643D02*
X10076310Y-13437976D01*
X10028690Y-13228452D02*
X9981071Y-13371309D01*
X10104881Y-13371309D01*
X10171548Y-13257024D02*
X10181071Y-13247500D01*
X10200119Y-13237976D01*
X10247738Y-13237976D01*
X10266786Y-13247500D01*
X10276310Y-13257024D01*
X10285833Y-13276071D01*
X10285833Y-13295119D01*
X10276310Y-13323690D01*
X10162024Y-13437976D01*
X10285833Y-13437976D01*
X10523929Y-13437976D02*
X10523929Y-13237976D01*
X10609643Y-13437976D02*
X10609643Y-13333214D01*
X10600119Y-13314167D01*
X10581071Y-13304643D01*
X10552500Y-13304643D01*
X10533452Y-13314167D01*
X10523929Y-13323690D01*
X10733452Y-13437976D02*
X10714405Y-13428452D01*
X10704881Y-13418928D01*
X10695357Y-13399881D01*
X10695357Y-13342738D01*
X10704881Y-13323690D01*
X10714405Y-13314167D01*
X10733452Y-13304643D01*
X10762024Y-13304643D01*
X10781071Y-13314167D01*
X10790595Y-13323690D01*
X10800119Y-13342738D01*
X10800119Y-13399881D01*
X10790595Y-13418928D01*
X10781071Y-13428452D01*
X10762024Y-13437976D01*
X10733452Y-13437976D01*
X10914405Y-13437976D02*
X10895357Y-13428452D01*
X10885833Y-13409405D01*
X10885833Y-13237976D01*
X11066786Y-13428452D02*
X11047738Y-13437976D01*
X11009643Y-13437976D01*
X10990595Y-13428452D01*
X10981071Y-13409405D01*
X10981071Y-13333214D01*
X10990595Y-13314167D01*
X11009643Y-13304643D01*
X11047738Y-13304643D01*
X11066786Y-13314167D01*
X11076310Y-13333214D01*
X11076310Y-13352262D01*
X10981071Y-13371309D01*
X11152500Y-13428452D02*
X11171548Y-13437976D01*
X11209643Y-13437976D01*
X11228690Y-13428452D01*
X11238214Y-13409405D01*
X11238214Y-13399881D01*
X11228690Y-13380833D01*
X11209643Y-13371309D01*
X11181071Y-13371309D01*
X11162024Y-13361786D01*
X11152500Y-13342738D01*
X11152500Y-13333214D01*
X11162024Y-13314167D01*
X11181071Y-13304643D01*
X11209643Y-13304643D01*
X11228690Y-13314167D01*
X11304881Y-13514167D02*
X11314405Y-13504643D01*
X11333452Y-13476071D01*
X11342976Y-13457024D01*
X11352500Y-13428452D01*
X11362024Y-13380833D01*
X11362024Y-13342738D01*
X11352500Y-13295119D01*
X11342976Y-13266548D01*
X11333452Y-13247500D01*
X11314405Y-13218928D01*
X11304881Y-13209405D01*
D13*
X6342500Y-13611500D02*
G75*
G03*
X6342500Y-13611500I-40000J0D01*
G01*
D11*
X6638214Y-13501976D02*
X6657262Y-13501976D01*
X6676309Y-13511500D01*
X6685833Y-13521024D01*
X6695357Y-13540071D01*
X6704881Y-13578167D01*
X6704881Y-13625786D01*
X6695357Y-13663881D01*
X6685833Y-13682928D01*
X6676309Y-13692452D01*
X6657262Y-13701976D01*
X6638214Y-13701976D01*
X6619167Y-13692452D01*
X6609643Y-13682928D01*
X6600119Y-13663881D01*
X6590595Y-13625786D01*
X6590595Y-13578167D01*
X6600119Y-13540071D01*
X6609643Y-13521024D01*
X6619167Y-13511500D01*
X6638214Y-13501976D01*
X6790595Y-13682928D02*
X6800119Y-13692452D01*
X6790595Y-13701976D01*
X6781071Y-13692452D01*
X6790595Y-13682928D01*
X6790595Y-13701976D01*
X6914405Y-13587690D02*
X6895357Y-13578167D01*
X6885833Y-13568643D01*
X6876309Y-13549595D01*
X6876309Y-13540071D01*
X6885833Y-13521024D01*
X6895357Y-13511500D01*
X6914405Y-13501976D01*
X6952500Y-13501976D01*
X6971548Y-13511500D01*
X6981071Y-13521024D01*
X6990595Y-13540071D01*
X6990595Y-13549595D01*
X6981071Y-13568643D01*
X6971548Y-13578167D01*
X6952500Y-13587690D01*
X6914405Y-13587690D01*
X6895357Y-13597214D01*
X6885833Y-13606738D01*
X6876309Y-13625786D01*
X6876309Y-13663881D01*
X6885833Y-13682928D01*
X6895357Y-13692452D01*
X6914405Y-13701976D01*
X6952500Y-13701976D01*
X6971548Y-13692452D01*
X6981071Y-13682928D01*
X6990595Y-13663881D01*
X6990595Y-13625786D01*
X6981071Y-13606738D01*
X6971548Y-13597214D01*
X6952500Y-13587690D01*
X7114405Y-13501976D02*
X7133452Y-13501976D01*
X7152500Y-13511500D01*
X7162024Y-13521024D01*
X7171548Y-13540071D01*
X7181071Y-13578167D01*
X7181071Y-13625786D01*
X7171548Y-13663881D01*
X7162024Y-13682928D01*
X7152500Y-13692452D01*
X7133452Y-13701976D01*
X7114405Y-13701976D01*
X7095357Y-13692452D01*
X7085833Y-13682928D01*
X7076309Y-13663881D01*
X7066786Y-13625786D01*
X7066786Y-13578167D01*
X7076309Y-13540071D01*
X7085833Y-13521024D01*
X7095357Y-13511500D01*
X7114405Y-13501976D01*
X7304881Y-13501976D02*
X7323928Y-13501976D01*
X7342976Y-13511500D01*
X7352500Y-13521024D01*
X7362024Y-13540071D01*
X7371548Y-13578167D01*
X7371548Y-13625786D01*
X7362024Y-13663881D01*
X7352500Y-13682928D01*
X7342976Y-13692452D01*
X7323928Y-13701976D01*
X7304881Y-13701976D01*
X7285833Y-13692452D01*
X7276309Y-13682928D01*
X7266786Y-13663881D01*
X7257262Y-13625786D01*
X7257262Y-13578167D01*
X7266786Y-13540071D01*
X7276309Y-13521024D01*
X7285833Y-13511500D01*
X7304881Y-13501976D01*
X7457262Y-13701976D02*
X7457262Y-13568643D01*
X7457262Y-13587690D02*
X7466786Y-13578167D01*
X7485833Y-13568643D01*
X7514405Y-13568643D01*
X7533452Y-13578167D01*
X7542976Y-13597214D01*
X7542976Y-13701976D01*
X7542976Y-13597214D02*
X7552500Y-13578167D01*
X7571548Y-13568643D01*
X7600119Y-13568643D01*
X7619167Y-13578167D01*
X7628690Y-13597214D01*
X7628690Y-13701976D01*
X7723928Y-13701976D02*
X7723928Y-13568643D01*
X7723928Y-13587690D02*
X7733452Y-13578167D01*
X7752500Y-13568643D01*
X7781071Y-13568643D01*
X7800119Y-13578167D01*
X7809643Y-13597214D01*
X7809643Y-13701976D01*
X7809643Y-13597214D02*
X7819167Y-13578167D01*
X7838214Y-13568643D01*
X7866786Y-13568643D01*
X7885833Y-13578167D01*
X7895357Y-13597214D01*
X7895357Y-13701976D01*
X8285833Y-13492452D02*
X8114405Y-13749595D01*
X8542976Y-13501976D02*
X8562024Y-13501976D01*
X8581071Y-13511500D01*
X8590595Y-13521024D01*
X8600119Y-13540071D01*
X8609643Y-13578167D01*
X8609643Y-13625786D01*
X8600119Y-13663881D01*
X8590595Y-13682928D01*
X8581071Y-13692452D01*
X8562024Y-13701976D01*
X8542976Y-13701976D01*
X8523929Y-13692452D01*
X8514405Y-13682928D01*
X8504881Y-13663881D01*
X8495357Y-13625786D01*
X8495357Y-13578167D01*
X8504881Y-13540071D01*
X8514405Y-13521024D01*
X8523929Y-13511500D01*
X8542976Y-13501976D01*
X8695357Y-13682928D02*
X8704881Y-13692452D01*
X8695357Y-13701976D01*
X8685833Y-13692452D01*
X8695357Y-13682928D01*
X8695357Y-13701976D01*
X8828690Y-13501976D02*
X8847738Y-13501976D01*
X8866786Y-13511500D01*
X8876310Y-13521024D01*
X8885833Y-13540071D01*
X8895357Y-13578167D01*
X8895357Y-13625786D01*
X8885833Y-13663881D01*
X8876310Y-13682928D01*
X8866786Y-13692452D01*
X8847738Y-13701976D01*
X8828690Y-13701976D01*
X8809643Y-13692452D01*
X8800119Y-13682928D01*
X8790595Y-13663881D01*
X8781071Y-13625786D01*
X8781071Y-13578167D01*
X8790595Y-13540071D01*
X8800119Y-13521024D01*
X8809643Y-13511500D01*
X8828690Y-13501976D01*
X8962024Y-13501976D02*
X9085833Y-13501976D01*
X9019167Y-13578167D01*
X9047738Y-13578167D01*
X9066786Y-13587690D01*
X9076310Y-13597214D01*
X9085833Y-13616262D01*
X9085833Y-13663881D01*
X9076310Y-13682928D01*
X9066786Y-13692452D01*
X9047738Y-13701976D01*
X8990595Y-13701976D01*
X8971548Y-13692452D01*
X8962024Y-13682928D01*
X9276310Y-13701976D02*
X9162024Y-13701976D01*
X9219167Y-13701976D02*
X9219167Y-13501976D01*
X9200119Y-13530548D01*
X9181071Y-13549595D01*
X9162024Y-13559119D01*
X9457262Y-13501976D02*
X9362024Y-13501976D01*
X9352500Y-13597214D01*
X9362024Y-13587690D01*
X9381071Y-13578167D01*
X9428690Y-13578167D01*
X9447738Y-13587690D01*
X9457262Y-13597214D01*
X9466786Y-13616262D01*
X9466786Y-13663881D01*
X9457262Y-13682928D01*
X9447738Y-13692452D01*
X9428690Y-13701976D01*
X9381071Y-13701976D01*
X9362024Y-13692452D01*
X9352500Y-13682928D01*
X9542976Y-13501976D02*
X9542976Y-13540071D01*
X9619167Y-13501976D02*
X9619167Y-13540071D01*
X9914405Y-13778167D02*
X9904881Y-13768643D01*
X9885833Y-13740071D01*
X9876310Y-13721024D01*
X9866786Y-13692452D01*
X9857262Y-13644833D01*
X9857262Y-13606738D01*
X9866786Y-13559119D01*
X9876310Y-13530548D01*
X9885833Y-13511500D01*
X9904881Y-13482928D01*
X9914405Y-13473405D01*
X9981071Y-13521024D02*
X9990595Y-13511500D01*
X10009643Y-13501976D01*
X10057262Y-13501976D01*
X10076310Y-13511500D01*
X10085833Y-13521024D01*
X10095357Y-13540071D01*
X10095357Y-13559119D01*
X10085833Y-13587690D01*
X9971548Y-13701976D01*
X10095357Y-13701976D01*
X10266786Y-13568643D02*
X10266786Y-13701976D01*
X10219167Y-13492452D02*
X10171548Y-13635309D01*
X10295357Y-13635309D01*
X10523929Y-13701976D02*
X10523929Y-13501976D01*
X10609643Y-13701976D02*
X10609643Y-13597214D01*
X10600119Y-13578167D01*
X10581071Y-13568643D01*
X10552500Y-13568643D01*
X10533452Y-13578167D01*
X10523929Y-13587690D01*
X10733452Y-13701976D02*
X10714405Y-13692452D01*
X10704881Y-13682928D01*
X10695357Y-13663881D01*
X10695357Y-13606738D01*
X10704881Y-13587690D01*
X10714405Y-13578167D01*
X10733452Y-13568643D01*
X10762024Y-13568643D01*
X10781071Y-13578167D01*
X10790595Y-13587690D01*
X10800119Y-13606738D01*
X10800119Y-13663881D01*
X10790595Y-13682928D01*
X10781071Y-13692452D01*
X10762024Y-13701976D01*
X10733452Y-13701976D01*
X10914405Y-13701976D02*
X10895357Y-13692452D01*
X10885833Y-13673405D01*
X10885833Y-13501976D01*
X11066786Y-13692452D02*
X11047738Y-13701976D01*
X11009643Y-13701976D01*
X10990595Y-13692452D01*
X10981071Y-13673405D01*
X10981071Y-13597214D01*
X10990595Y-13578167D01*
X11009643Y-13568643D01*
X11047738Y-13568643D01*
X11066786Y-13578167D01*
X11076310Y-13597214D01*
X11076310Y-13616262D01*
X10981071Y-13635309D01*
X11152500Y-13692452D02*
X11171548Y-13701976D01*
X11209643Y-13701976D01*
X11228690Y-13692452D01*
X11238214Y-13673405D01*
X11238214Y-13663881D01*
X11228690Y-13644833D01*
X11209643Y-13635309D01*
X11181071Y-13635309D01*
X11162024Y-13625786D01*
X11152500Y-13606738D01*
X11152500Y-13597214D01*
X11162024Y-13578167D01*
X11181071Y-13568643D01*
X11209643Y-13568643D01*
X11228690Y-13578167D01*
X11304881Y-13778167D02*
X11314405Y-13768643D01*
X11333452Y-13740071D01*
X11342976Y-13721024D01*
X11352500Y-13692452D01*
X11362024Y-13644833D01*
X11362024Y-13606738D01*
X11352500Y-13559119D01*
X11342976Y-13530548D01*
X11333452Y-13511500D01*
X11314405Y-13482928D01*
X11304881Y-13473405D01*
D14*
X6297500Y-13830500D02*
X6297500Y-13920500D01*
X6252500Y-13875500D02*
X6342500Y-13875500D01*
D11*
X6638214Y-13765976D02*
X6657262Y-13765976D01*
X6676309Y-13775500D01*
X6685833Y-13785024D01*
X6695357Y-13804071D01*
X6704881Y-13842167D01*
X6704881Y-13889786D01*
X6695357Y-13927881D01*
X6685833Y-13946928D01*
X6676309Y-13956452D01*
X6657262Y-13965976D01*
X6638214Y-13965976D01*
X6619167Y-13956452D01*
X6609643Y-13946928D01*
X6600119Y-13927881D01*
X6590595Y-13889786D01*
X6590595Y-13842167D01*
X6600119Y-13804071D01*
X6609643Y-13785024D01*
X6619167Y-13775500D01*
X6638214Y-13765976D01*
X6790595Y-13946928D02*
X6800119Y-13956452D01*
X6790595Y-13965976D01*
X6781071Y-13956452D01*
X6790595Y-13946928D01*
X6790595Y-13965976D01*
X6895357Y-13965976D02*
X6933452Y-13965976D01*
X6952500Y-13956452D01*
X6962024Y-13946928D01*
X6981071Y-13918357D01*
X6990595Y-13880262D01*
X6990595Y-13804071D01*
X6981071Y-13785024D01*
X6971548Y-13775500D01*
X6952500Y-13765976D01*
X6914405Y-13765976D01*
X6895357Y-13775500D01*
X6885833Y-13785024D01*
X6876309Y-13804071D01*
X6876309Y-13851690D01*
X6885833Y-13870738D01*
X6895357Y-13880262D01*
X6914405Y-13889786D01*
X6952500Y-13889786D01*
X6971548Y-13880262D01*
X6981071Y-13870738D01*
X6990595Y-13851690D01*
X7114405Y-13765976D02*
X7133452Y-13765976D01*
X7152500Y-13775500D01*
X7162024Y-13785024D01*
X7171548Y-13804071D01*
X7181071Y-13842167D01*
X7181071Y-13889786D01*
X7171548Y-13927881D01*
X7162024Y-13946928D01*
X7152500Y-13956452D01*
X7133452Y-13965976D01*
X7114405Y-13965976D01*
X7095357Y-13956452D01*
X7085833Y-13946928D01*
X7076309Y-13927881D01*
X7066786Y-13889786D01*
X7066786Y-13842167D01*
X7076309Y-13804071D01*
X7085833Y-13785024D01*
X7095357Y-13775500D01*
X7114405Y-13765976D01*
X7304881Y-13765976D02*
X7323928Y-13765976D01*
X7342976Y-13775500D01*
X7352500Y-13785024D01*
X7362024Y-13804071D01*
X7371548Y-13842167D01*
X7371548Y-13889786D01*
X7362024Y-13927881D01*
X7352500Y-13946928D01*
X7342976Y-13956452D01*
X7323928Y-13965976D01*
X7304881Y-13965976D01*
X7285833Y-13956452D01*
X7276309Y-13946928D01*
X7266786Y-13927881D01*
X7257262Y-13889786D01*
X7257262Y-13842167D01*
X7266786Y-13804071D01*
X7276309Y-13785024D01*
X7285833Y-13775500D01*
X7304881Y-13765976D01*
X7457262Y-13965976D02*
X7457262Y-13832643D01*
X7457262Y-13851690D02*
X7466786Y-13842167D01*
X7485833Y-13832643D01*
X7514405Y-13832643D01*
X7533452Y-13842167D01*
X7542976Y-13861214D01*
X7542976Y-13965976D01*
X7542976Y-13861214D02*
X7552500Y-13842167D01*
X7571548Y-13832643D01*
X7600119Y-13832643D01*
X7619167Y-13842167D01*
X7628690Y-13861214D01*
X7628690Y-13965976D01*
X7723928Y-13965976D02*
X7723928Y-13832643D01*
X7723928Y-13851690D02*
X7733452Y-13842167D01*
X7752500Y-13832643D01*
X7781071Y-13832643D01*
X7800119Y-13842167D01*
X7809643Y-13861214D01*
X7809643Y-13965976D01*
X7809643Y-13861214D02*
X7819167Y-13842167D01*
X7838214Y-13832643D01*
X7866786Y-13832643D01*
X7885833Y-13842167D01*
X7895357Y-13861214D01*
X7895357Y-13965976D01*
X8285833Y-13756452D02*
X8114405Y-14013595D01*
X8542976Y-13765976D02*
X8562024Y-13765976D01*
X8581071Y-13775500D01*
X8590595Y-13785024D01*
X8600119Y-13804071D01*
X8609643Y-13842167D01*
X8609643Y-13889786D01*
X8600119Y-13927881D01*
X8590595Y-13946928D01*
X8581071Y-13956452D01*
X8562024Y-13965976D01*
X8542976Y-13965976D01*
X8523929Y-13956452D01*
X8514405Y-13946928D01*
X8504881Y-13927881D01*
X8495357Y-13889786D01*
X8495357Y-13842167D01*
X8504881Y-13804071D01*
X8514405Y-13785024D01*
X8523929Y-13775500D01*
X8542976Y-13765976D01*
X8695357Y-13946928D02*
X8704881Y-13956452D01*
X8695357Y-13965976D01*
X8685833Y-13956452D01*
X8695357Y-13946928D01*
X8695357Y-13965976D01*
X8828690Y-13765976D02*
X8847738Y-13765976D01*
X8866786Y-13775500D01*
X8876310Y-13785024D01*
X8885833Y-13804071D01*
X8895357Y-13842167D01*
X8895357Y-13889786D01*
X8885833Y-13927881D01*
X8876310Y-13946928D01*
X8866786Y-13956452D01*
X8847738Y-13965976D01*
X8828690Y-13965976D01*
X8809643Y-13956452D01*
X8800119Y-13946928D01*
X8790595Y-13927881D01*
X8781071Y-13889786D01*
X8781071Y-13842167D01*
X8790595Y-13804071D01*
X8800119Y-13785024D01*
X8809643Y-13775500D01*
X8828690Y-13765976D01*
X8962024Y-13765976D02*
X9085833Y-13765976D01*
X9019167Y-13842167D01*
X9047738Y-13842167D01*
X9066786Y-13851690D01*
X9076310Y-13861214D01*
X9085833Y-13880262D01*
X9085833Y-13927881D01*
X9076310Y-13946928D01*
X9066786Y-13956452D01*
X9047738Y-13965976D01*
X8990595Y-13965976D01*
X8971548Y-13956452D01*
X8962024Y-13946928D01*
X9266786Y-13765976D02*
X9171548Y-13765976D01*
X9162024Y-13861214D01*
X9171548Y-13851690D01*
X9190595Y-13842167D01*
X9238214Y-13842167D01*
X9257262Y-13851690D01*
X9266786Y-13861214D01*
X9276310Y-13880262D01*
X9276310Y-13927881D01*
X9266786Y-13946928D01*
X9257262Y-13956452D01*
X9238214Y-13965976D01*
X9190595Y-13965976D01*
X9171548Y-13956452D01*
X9162024Y-13946928D01*
X9447738Y-13832643D02*
X9447738Y-13965976D01*
X9400119Y-13756452D02*
X9352500Y-13899309D01*
X9476310Y-13899309D01*
X9542976Y-13765976D02*
X9542976Y-13804071D01*
X9619167Y-13765976D02*
X9619167Y-13804071D01*
X9914405Y-14042167D02*
X9904881Y-14032643D01*
X9885833Y-14004071D01*
X9876310Y-13985024D01*
X9866786Y-13956452D01*
X9857262Y-13908833D01*
X9857262Y-13870738D01*
X9866786Y-13823119D01*
X9876310Y-13794548D01*
X9885833Y-13775500D01*
X9904881Y-13746928D01*
X9914405Y-13737405D01*
X9981071Y-13785024D02*
X9990595Y-13775500D01*
X10009643Y-13765976D01*
X10057262Y-13765976D01*
X10076310Y-13775500D01*
X10085833Y-13785024D01*
X10095357Y-13804071D01*
X10095357Y-13823119D01*
X10085833Y-13851690D01*
X9971548Y-13965976D01*
X10095357Y-13965976D01*
X10333452Y-13965976D02*
X10333452Y-13765976D01*
X10419167Y-13965976D02*
X10419167Y-13861214D01*
X10409643Y-13842167D01*
X10390595Y-13832643D01*
X10362024Y-13832643D01*
X10342976Y-13842167D01*
X10333452Y-13851690D01*
X10542976Y-13965976D02*
X10523929Y-13956452D01*
X10514405Y-13946928D01*
X10504881Y-13927881D01*
X10504881Y-13870738D01*
X10514405Y-13851690D01*
X10523929Y-13842167D01*
X10542976Y-13832643D01*
X10571548Y-13832643D01*
X10590595Y-13842167D01*
X10600119Y-13851690D01*
X10609643Y-13870738D01*
X10609643Y-13927881D01*
X10600119Y-13946928D01*
X10590595Y-13956452D01*
X10571548Y-13965976D01*
X10542976Y-13965976D01*
X10723929Y-13965976D02*
X10704881Y-13956452D01*
X10695357Y-13937405D01*
X10695357Y-13765976D01*
X10876310Y-13956452D02*
X10857262Y-13965976D01*
X10819167Y-13965976D01*
X10800119Y-13956452D01*
X10790595Y-13937405D01*
X10790595Y-13861214D01*
X10800119Y-13842167D01*
X10819167Y-13832643D01*
X10857262Y-13832643D01*
X10876310Y-13842167D01*
X10885833Y-13861214D01*
X10885833Y-13880262D01*
X10790595Y-13899309D01*
X10962024Y-13956452D02*
X10981071Y-13965976D01*
X11019167Y-13965976D01*
X11038214Y-13956452D01*
X11047738Y-13937405D01*
X11047738Y-13927881D01*
X11038214Y-13908833D01*
X11019167Y-13899309D01*
X10990595Y-13899309D01*
X10971548Y-13889786D01*
X10962024Y-13870738D01*
X10962024Y-13861214D01*
X10971548Y-13842167D01*
X10990595Y-13832643D01*
X11019167Y-13832643D01*
X11038214Y-13842167D01*
X11114405Y-14042167D02*
X11123929Y-14032643D01*
X11142976Y-14004071D01*
X11152500Y-13985024D01*
X11162024Y-13956452D01*
X11171548Y-13908833D01*
X11171548Y-13870738D01*
X11162024Y-13823119D01*
X11152500Y-13794548D01*
X11142976Y-13775500D01*
X11123929Y-13746928D01*
X11114405Y-13737405D01*
D15*
X6327856Y-14174856D02*
X6327856Y-14104144D01*
X6257144Y-14104144D01*
X6257144Y-14174856D01*
X6327856Y-14174856D01*
D11*
X6704881Y-14229976D02*
X6590595Y-14229976D01*
X6647738Y-14229976D02*
X6647738Y-14029976D01*
X6628690Y-14058548D01*
X6609643Y-14077595D01*
X6590595Y-14087119D01*
X6790595Y-14210928D02*
X6800119Y-14220452D01*
X6790595Y-14229976D01*
X6781071Y-14220452D01*
X6790595Y-14210928D01*
X6790595Y-14229976D01*
X6923928Y-14029976D02*
X6942976Y-14029976D01*
X6962024Y-14039500D01*
X6971548Y-14049024D01*
X6981071Y-14068071D01*
X6990595Y-14106167D01*
X6990595Y-14153786D01*
X6981071Y-14191881D01*
X6971548Y-14210928D01*
X6962024Y-14220452D01*
X6942976Y-14229976D01*
X6923928Y-14229976D01*
X6904881Y-14220452D01*
X6895357Y-14210928D01*
X6885833Y-14191881D01*
X6876309Y-14153786D01*
X6876309Y-14106167D01*
X6885833Y-14068071D01*
X6895357Y-14049024D01*
X6904881Y-14039500D01*
X6923928Y-14029976D01*
X7114405Y-14029976D02*
X7133452Y-14029976D01*
X7152500Y-14039500D01*
X7162024Y-14049024D01*
X7171548Y-14068071D01*
X7181071Y-14106167D01*
X7181071Y-14153786D01*
X7171548Y-14191881D01*
X7162024Y-14210928D01*
X7152500Y-14220452D01*
X7133452Y-14229976D01*
X7114405Y-14229976D01*
X7095357Y-14220452D01*
X7085833Y-14210928D01*
X7076309Y-14191881D01*
X7066786Y-14153786D01*
X7066786Y-14106167D01*
X7076309Y-14068071D01*
X7085833Y-14049024D01*
X7095357Y-14039500D01*
X7114405Y-14029976D01*
X7304881Y-14029976D02*
X7323928Y-14029976D01*
X7342976Y-14039500D01*
X7352500Y-14049024D01*
X7362024Y-14068071D01*
X7371548Y-14106167D01*
X7371548Y-14153786D01*
X7362024Y-14191881D01*
X7352500Y-14210928D01*
X7342976Y-14220452D01*
X7323928Y-14229976D01*
X7304881Y-14229976D01*
X7285833Y-14220452D01*
X7276309Y-14210928D01*
X7266786Y-14191881D01*
X7257262Y-14153786D01*
X7257262Y-14106167D01*
X7266786Y-14068071D01*
X7276309Y-14049024D01*
X7285833Y-14039500D01*
X7304881Y-14029976D01*
X7457262Y-14229976D02*
X7457262Y-14096643D01*
X7457262Y-14115690D02*
X7466786Y-14106167D01*
X7485833Y-14096643D01*
X7514405Y-14096643D01*
X7533452Y-14106167D01*
X7542976Y-14125214D01*
X7542976Y-14229976D01*
X7542976Y-14125214D02*
X7552500Y-14106167D01*
X7571548Y-14096643D01*
X7600119Y-14096643D01*
X7619167Y-14106167D01*
X7628690Y-14125214D01*
X7628690Y-14229976D01*
X7723928Y-14229976D02*
X7723928Y-14096643D01*
X7723928Y-14115690D02*
X7733452Y-14106167D01*
X7752500Y-14096643D01*
X7781071Y-14096643D01*
X7800119Y-14106167D01*
X7809643Y-14125214D01*
X7809643Y-14229976D01*
X7809643Y-14125214D02*
X7819167Y-14106167D01*
X7838214Y-14096643D01*
X7866786Y-14096643D01*
X7885833Y-14106167D01*
X7895357Y-14125214D01*
X7895357Y-14229976D01*
X8285833Y-14020452D02*
X8114405Y-14277595D01*
X8542976Y-14029976D02*
X8562024Y-14029976D01*
X8581071Y-14039500D01*
X8590595Y-14049024D01*
X8600119Y-14068071D01*
X8609643Y-14106167D01*
X8609643Y-14153786D01*
X8600119Y-14191881D01*
X8590595Y-14210928D01*
X8581071Y-14220452D01*
X8562024Y-14229976D01*
X8542976Y-14229976D01*
X8523929Y-14220452D01*
X8514405Y-14210928D01*
X8504881Y-14191881D01*
X8495357Y-14153786D01*
X8495357Y-14106167D01*
X8504881Y-14068071D01*
X8514405Y-14049024D01*
X8523929Y-14039500D01*
X8542976Y-14029976D01*
X8695357Y-14210928D02*
X8704881Y-14220452D01*
X8695357Y-14229976D01*
X8685833Y-14220452D01*
X8695357Y-14210928D01*
X8695357Y-14229976D01*
X8828690Y-14029976D02*
X8847738Y-14029976D01*
X8866786Y-14039500D01*
X8876310Y-14049024D01*
X8885833Y-14068071D01*
X8895357Y-14106167D01*
X8895357Y-14153786D01*
X8885833Y-14191881D01*
X8876310Y-14210928D01*
X8866786Y-14220452D01*
X8847738Y-14229976D01*
X8828690Y-14229976D01*
X8809643Y-14220452D01*
X8800119Y-14210928D01*
X8790595Y-14191881D01*
X8781071Y-14153786D01*
X8781071Y-14106167D01*
X8790595Y-14068071D01*
X8800119Y-14049024D01*
X8809643Y-14039500D01*
X8828690Y-14029976D01*
X8962024Y-14029976D02*
X9085833Y-14029976D01*
X9019167Y-14106167D01*
X9047738Y-14106167D01*
X9066786Y-14115690D01*
X9076310Y-14125214D01*
X9085833Y-14144262D01*
X9085833Y-14191881D01*
X9076310Y-14210928D01*
X9066786Y-14220452D01*
X9047738Y-14229976D01*
X8990595Y-14229976D01*
X8971548Y-14220452D01*
X8962024Y-14210928D01*
X9181071Y-14229976D02*
X9219167Y-14229976D01*
X9238214Y-14220452D01*
X9247738Y-14210928D01*
X9266786Y-14182357D01*
X9276310Y-14144262D01*
X9276310Y-14068071D01*
X9266786Y-14049024D01*
X9257262Y-14039500D01*
X9238214Y-14029976D01*
X9200119Y-14029976D01*
X9181071Y-14039500D01*
X9171548Y-14049024D01*
X9162024Y-14068071D01*
X9162024Y-14115690D01*
X9171548Y-14134738D01*
X9181071Y-14144262D01*
X9200119Y-14153786D01*
X9238214Y-14153786D01*
X9257262Y-14144262D01*
X9266786Y-14134738D01*
X9276310Y-14115690D01*
X9447738Y-14096643D02*
X9447738Y-14229976D01*
X9400119Y-14020452D02*
X9352500Y-14163309D01*
X9476310Y-14163309D01*
X9542976Y-14029976D02*
X9542976Y-14068071D01*
X9619167Y-14029976D02*
X9619167Y-14068071D01*
X9914405Y-14306167D02*
X9904881Y-14296643D01*
X9885833Y-14268071D01*
X9876310Y-14249024D01*
X9866786Y-14220452D01*
X9857262Y-14172833D01*
X9857262Y-14134738D01*
X9866786Y-14087119D01*
X9876310Y-14058548D01*
X9885833Y-14039500D01*
X9904881Y-14010928D01*
X9914405Y-14001405D01*
X10095357Y-14229976D02*
X9981071Y-14229976D01*
X10038214Y-14229976D02*
X10038214Y-14029976D01*
X10019167Y-14058548D01*
X10000119Y-14077595D01*
X9981071Y-14087119D01*
X10171548Y-14049024D02*
X10181071Y-14039500D01*
X10200119Y-14029976D01*
X10247738Y-14029976D01*
X10266786Y-14039500D01*
X10276310Y-14049024D01*
X10285833Y-14068071D01*
X10285833Y-14087119D01*
X10276310Y-14115690D01*
X10162024Y-14229976D01*
X10285833Y-14229976D01*
X10523929Y-14229976D02*
X10523929Y-14029976D01*
X10609643Y-14229976D02*
X10609643Y-14125214D01*
X10600119Y-14106167D01*
X10581071Y-14096643D01*
X10552500Y-14096643D01*
X10533452Y-14106167D01*
X10523929Y-14115690D01*
X10733452Y-14229976D02*
X10714405Y-14220452D01*
X10704881Y-14210928D01*
X10695357Y-14191881D01*
X10695357Y-14134738D01*
X10704881Y-14115690D01*
X10714405Y-14106167D01*
X10733452Y-14096643D01*
X10762024Y-14096643D01*
X10781071Y-14106167D01*
X10790595Y-14115690D01*
X10800119Y-14134738D01*
X10800119Y-14191881D01*
X10790595Y-14210928D01*
X10781071Y-14220452D01*
X10762024Y-14229976D01*
X10733452Y-14229976D01*
X10914405Y-14229976D02*
X10895357Y-14220452D01*
X10885833Y-14201405D01*
X10885833Y-14029976D01*
X11066786Y-14220452D02*
X11047738Y-14229976D01*
X11009643Y-14229976D01*
X10990595Y-14220452D01*
X10981071Y-14201405D01*
X10981071Y-14125214D01*
X10990595Y-14106167D01*
X11009643Y-14096643D01*
X11047738Y-14096643D01*
X11066786Y-14106167D01*
X11076310Y-14125214D01*
X11076310Y-14144262D01*
X10981071Y-14163309D01*
X11152500Y-14220452D02*
X11171548Y-14229976D01*
X11209643Y-14229976D01*
X11228690Y-14220452D01*
X11238214Y-14201405D01*
X11238214Y-14191881D01*
X11228690Y-14172833D01*
X11209643Y-14163309D01*
X11181071Y-14163309D01*
X11162024Y-14153786D01*
X11152500Y-14134738D01*
X11152500Y-14125214D01*
X11162024Y-14106167D01*
X11181071Y-14096643D01*
X11209643Y-14096643D01*
X11228690Y-14106167D01*
X11304881Y-14306167D02*
X11314405Y-14296643D01*
X11333452Y-14268071D01*
X11342976Y-14249024D01*
X11352500Y-14220452D01*
X11362024Y-14172833D01*
X11362024Y-14134738D01*
X11352500Y-14087119D01*
X11342976Y-14058548D01*
X11333452Y-14039500D01*
X11314405Y-14010928D01*
X11304881Y-14001405D01*
D16*
X6287500Y-14458500D02*
X6342500Y-14403500D01*
X6287500Y-14348500D01*
X6232500Y-14403500D01*
X6287500Y-14458500D01*
D11*
X6704881Y-14493976D02*
X6590595Y-14493976D01*
X6647738Y-14493976D02*
X6647738Y-14293976D01*
X6628690Y-14322548D01*
X6609643Y-14341595D01*
X6590595Y-14351119D01*
X6790595Y-14474928D02*
X6800119Y-14484452D01*
X6790595Y-14493976D01*
X6781071Y-14484452D01*
X6790595Y-14474928D01*
X6790595Y-14493976D01*
X6990595Y-14493976D02*
X6876309Y-14493976D01*
X6933452Y-14493976D02*
X6933452Y-14293976D01*
X6914405Y-14322548D01*
X6895357Y-14341595D01*
X6876309Y-14351119D01*
X7114405Y-14293976D02*
X7133452Y-14293976D01*
X7152500Y-14303500D01*
X7162024Y-14313024D01*
X7171548Y-14332071D01*
X7181071Y-14370167D01*
X7181071Y-14417786D01*
X7171548Y-14455881D01*
X7162024Y-14474928D01*
X7152500Y-14484452D01*
X7133452Y-14493976D01*
X7114405Y-14493976D01*
X7095357Y-14484452D01*
X7085833Y-14474928D01*
X7076309Y-14455881D01*
X7066786Y-14417786D01*
X7066786Y-14370167D01*
X7076309Y-14332071D01*
X7085833Y-14313024D01*
X7095357Y-14303500D01*
X7114405Y-14293976D01*
X7304881Y-14293976D02*
X7323928Y-14293976D01*
X7342976Y-14303500D01*
X7352500Y-14313024D01*
X7362024Y-14332071D01*
X7371548Y-14370167D01*
X7371548Y-14417786D01*
X7362024Y-14455881D01*
X7352500Y-14474928D01*
X7342976Y-14484452D01*
X7323928Y-14493976D01*
X7304881Y-14493976D01*
X7285833Y-14484452D01*
X7276309Y-14474928D01*
X7266786Y-14455881D01*
X7257262Y-14417786D01*
X7257262Y-14370167D01*
X7266786Y-14332071D01*
X7276309Y-14313024D01*
X7285833Y-14303500D01*
X7304881Y-14293976D01*
X7457262Y-14493976D02*
X7457262Y-14360643D01*
X7457262Y-14379690D02*
X7466786Y-14370167D01*
X7485833Y-14360643D01*
X7514405Y-14360643D01*
X7533452Y-14370167D01*
X7542976Y-14389214D01*
X7542976Y-14493976D01*
X7542976Y-14389214D02*
X7552500Y-14370167D01*
X7571548Y-14360643D01*
X7600119Y-14360643D01*
X7619167Y-14370167D01*
X7628690Y-14389214D01*
X7628690Y-14493976D01*
X7723928Y-14493976D02*
X7723928Y-14360643D01*
X7723928Y-14379690D02*
X7733452Y-14370167D01*
X7752500Y-14360643D01*
X7781071Y-14360643D01*
X7800119Y-14370167D01*
X7809643Y-14389214D01*
X7809643Y-14493976D01*
X7809643Y-14389214D02*
X7819167Y-14370167D01*
X7838214Y-14360643D01*
X7866786Y-14360643D01*
X7885833Y-14370167D01*
X7895357Y-14389214D01*
X7895357Y-14493976D01*
X8285833Y-14284452D02*
X8114405Y-14541595D01*
X8542976Y-14293976D02*
X8562024Y-14293976D01*
X8581071Y-14303500D01*
X8590595Y-14313024D01*
X8600119Y-14332071D01*
X8609643Y-14370167D01*
X8609643Y-14417786D01*
X8600119Y-14455881D01*
X8590595Y-14474928D01*
X8581071Y-14484452D01*
X8562024Y-14493976D01*
X8542976Y-14493976D01*
X8523929Y-14484452D01*
X8514405Y-14474928D01*
X8504881Y-14455881D01*
X8495357Y-14417786D01*
X8495357Y-14370167D01*
X8504881Y-14332071D01*
X8514405Y-14313024D01*
X8523929Y-14303500D01*
X8542976Y-14293976D01*
X8695357Y-14474928D02*
X8704881Y-14484452D01*
X8695357Y-14493976D01*
X8685833Y-14484452D01*
X8695357Y-14474928D01*
X8695357Y-14493976D01*
X8828690Y-14293976D02*
X8847738Y-14293976D01*
X8866786Y-14303500D01*
X8876310Y-14313024D01*
X8885833Y-14332071D01*
X8895357Y-14370167D01*
X8895357Y-14417786D01*
X8885833Y-14455881D01*
X8876310Y-14474928D01*
X8866786Y-14484452D01*
X8847738Y-14493976D01*
X8828690Y-14493976D01*
X8809643Y-14484452D01*
X8800119Y-14474928D01*
X8790595Y-14455881D01*
X8781071Y-14417786D01*
X8781071Y-14370167D01*
X8790595Y-14332071D01*
X8800119Y-14313024D01*
X8809643Y-14303500D01*
X8828690Y-14293976D01*
X9066786Y-14360643D02*
X9066786Y-14493976D01*
X9019167Y-14284452D02*
X8971548Y-14427309D01*
X9095357Y-14427309D01*
X9152500Y-14293976D02*
X9276310Y-14293976D01*
X9209643Y-14370167D01*
X9238214Y-14370167D01*
X9257262Y-14379690D01*
X9266786Y-14389214D01*
X9276310Y-14408262D01*
X9276310Y-14455881D01*
X9266786Y-14474928D01*
X9257262Y-14484452D01*
X9238214Y-14493976D01*
X9181071Y-14493976D01*
X9162024Y-14484452D01*
X9152500Y-14474928D01*
X9342976Y-14293976D02*
X9466786Y-14293976D01*
X9400119Y-14370167D01*
X9428690Y-14370167D01*
X9447738Y-14379690D01*
X9457262Y-14389214D01*
X9466786Y-14408262D01*
X9466786Y-14455881D01*
X9457262Y-14474928D01*
X9447738Y-14484452D01*
X9428690Y-14493976D01*
X9371548Y-14493976D01*
X9352500Y-14484452D01*
X9342976Y-14474928D01*
X9542976Y-14293976D02*
X9542976Y-14332071D01*
X9619167Y-14293976D02*
X9619167Y-14332071D01*
X9914405Y-14570167D02*
X9904881Y-14560643D01*
X9885833Y-14532071D01*
X9876310Y-14513024D01*
X9866786Y-14484452D01*
X9857262Y-14436833D01*
X9857262Y-14398738D01*
X9866786Y-14351119D01*
X9876310Y-14322548D01*
X9885833Y-14303500D01*
X9904881Y-14274928D01*
X9914405Y-14265405D01*
X9971548Y-14293976D02*
X10095357Y-14293976D01*
X10028690Y-14370167D01*
X10057262Y-14370167D01*
X10076310Y-14379690D01*
X10085833Y-14389214D01*
X10095357Y-14408262D01*
X10095357Y-14455881D01*
X10085833Y-14474928D01*
X10076310Y-14484452D01*
X10057262Y-14493976D01*
X10000119Y-14493976D01*
X9981071Y-14484452D01*
X9971548Y-14474928D01*
X10333452Y-14493976D02*
X10333452Y-14293976D01*
X10419167Y-14493976D02*
X10419167Y-14389214D01*
X10409643Y-14370167D01*
X10390595Y-14360643D01*
X10362024Y-14360643D01*
X10342976Y-14370167D01*
X10333452Y-14379690D01*
X10542976Y-14493976D02*
X10523929Y-14484452D01*
X10514405Y-14474928D01*
X10504881Y-14455881D01*
X10504881Y-14398738D01*
X10514405Y-14379690D01*
X10523929Y-14370167D01*
X10542976Y-14360643D01*
X10571548Y-14360643D01*
X10590595Y-14370167D01*
X10600119Y-14379690D01*
X10609643Y-14398738D01*
X10609643Y-14455881D01*
X10600119Y-14474928D01*
X10590595Y-14484452D01*
X10571548Y-14493976D01*
X10542976Y-14493976D01*
X10723929Y-14493976D02*
X10704881Y-14484452D01*
X10695357Y-14465405D01*
X10695357Y-14293976D01*
X10876310Y-14484452D02*
X10857262Y-14493976D01*
X10819167Y-14493976D01*
X10800119Y-14484452D01*
X10790595Y-14465405D01*
X10790595Y-14389214D01*
X10800119Y-14370167D01*
X10819167Y-14360643D01*
X10857262Y-14360643D01*
X10876310Y-14370167D01*
X10885833Y-14389214D01*
X10885833Y-14408262D01*
X10790595Y-14427309D01*
X10962024Y-14484452D02*
X10981071Y-14493976D01*
X11019167Y-14493976D01*
X11038214Y-14484452D01*
X11047738Y-14465405D01*
X11047738Y-14455881D01*
X11038214Y-14436833D01*
X11019167Y-14427309D01*
X10990595Y-14427309D01*
X10971548Y-14417786D01*
X10962024Y-14398738D01*
X10962024Y-14389214D01*
X10971548Y-14370167D01*
X10990595Y-14360643D01*
X11019167Y-14360643D01*
X11038214Y-14370167D01*
X11114405Y-14570167D02*
X11123929Y-14560643D01*
X11142976Y-14532071D01*
X11152500Y-14513024D01*
X11162024Y-14484452D01*
X11171548Y-14436833D01*
X11171548Y-14398738D01*
X11162024Y-14351119D01*
X11152500Y-14322548D01*
X11142976Y-14303500D01*
X11123929Y-14274928D01*
X11114405Y-14265405D01*
D17*
X6190500Y-14591500D02*
X6342500Y-14743500D01*
X6342500Y-14591500D02*
X6190500Y-14743500D01*
X6342500Y-14667500D02*
G75*
G03*
X6342500Y-14667500I-76000J0D01*
G01*
D11*
X6704881Y-14757976D02*
X6590595Y-14757976D01*
X6647738Y-14757976D02*
X6647738Y-14557976D01*
X6628690Y-14586548D01*
X6609643Y-14605595D01*
X6590595Y-14615119D01*
X6790595Y-14738928D02*
X6800119Y-14748452D01*
X6790595Y-14757976D01*
X6781071Y-14748452D01*
X6790595Y-14738928D01*
X6790595Y-14757976D01*
X6981071Y-14557976D02*
X6885833Y-14557976D01*
X6876309Y-14653214D01*
X6885833Y-14643690D01*
X6904881Y-14634167D01*
X6952500Y-14634167D01*
X6971548Y-14643690D01*
X6981071Y-14653214D01*
X6990595Y-14672262D01*
X6990595Y-14719881D01*
X6981071Y-14738928D01*
X6971548Y-14748452D01*
X6952500Y-14757976D01*
X6904881Y-14757976D01*
X6885833Y-14748452D01*
X6876309Y-14738928D01*
X7066786Y-14577024D02*
X7076309Y-14567500D01*
X7095357Y-14557976D01*
X7142976Y-14557976D01*
X7162024Y-14567500D01*
X7171548Y-14577024D01*
X7181071Y-14596071D01*
X7181071Y-14615119D01*
X7171548Y-14643690D01*
X7057262Y-14757976D01*
X7181071Y-14757976D01*
X7304881Y-14557976D02*
X7323928Y-14557976D01*
X7342976Y-14567500D01*
X7352500Y-14577024D01*
X7362024Y-14596071D01*
X7371548Y-14634167D01*
X7371548Y-14681786D01*
X7362024Y-14719881D01*
X7352500Y-14738928D01*
X7342976Y-14748452D01*
X7323928Y-14757976D01*
X7304881Y-14757976D01*
X7285833Y-14748452D01*
X7276309Y-14738928D01*
X7266786Y-14719881D01*
X7257262Y-14681786D01*
X7257262Y-14634167D01*
X7266786Y-14596071D01*
X7276309Y-14577024D01*
X7285833Y-14567500D01*
X7304881Y-14557976D01*
X7457262Y-14757976D02*
X7457262Y-14624643D01*
X7457262Y-14643690D02*
X7466786Y-14634167D01*
X7485833Y-14624643D01*
X7514405Y-14624643D01*
X7533452Y-14634167D01*
X7542976Y-14653214D01*
X7542976Y-14757976D01*
X7542976Y-14653214D02*
X7552500Y-14634167D01*
X7571548Y-14624643D01*
X7600119Y-14624643D01*
X7619167Y-14634167D01*
X7628690Y-14653214D01*
X7628690Y-14757976D01*
X7723928Y-14757976D02*
X7723928Y-14624643D01*
X7723928Y-14643690D02*
X7733452Y-14634167D01*
X7752500Y-14624643D01*
X7781071Y-14624643D01*
X7800119Y-14634167D01*
X7809643Y-14653214D01*
X7809643Y-14757976D01*
X7809643Y-14653214D02*
X7819167Y-14634167D01*
X7838214Y-14624643D01*
X7866786Y-14624643D01*
X7885833Y-14634167D01*
X7895357Y-14653214D01*
X7895357Y-14757976D01*
X8285833Y-14548452D02*
X8114405Y-14805595D01*
X8542976Y-14557976D02*
X8562024Y-14557976D01*
X8581071Y-14567500D01*
X8590595Y-14577024D01*
X8600119Y-14596071D01*
X8609643Y-14634167D01*
X8609643Y-14681786D01*
X8600119Y-14719881D01*
X8590595Y-14738928D01*
X8581071Y-14748452D01*
X8562024Y-14757976D01*
X8542976Y-14757976D01*
X8523929Y-14748452D01*
X8514405Y-14738928D01*
X8504881Y-14719881D01*
X8495357Y-14681786D01*
X8495357Y-14634167D01*
X8504881Y-14596071D01*
X8514405Y-14577024D01*
X8523929Y-14567500D01*
X8542976Y-14557976D01*
X8695357Y-14738928D02*
X8704881Y-14748452D01*
X8695357Y-14757976D01*
X8685833Y-14748452D01*
X8695357Y-14738928D01*
X8695357Y-14757976D01*
X8828690Y-14557976D02*
X8847738Y-14557976D01*
X8866786Y-14567500D01*
X8876310Y-14577024D01*
X8885833Y-14596071D01*
X8895357Y-14634167D01*
X8895357Y-14681786D01*
X8885833Y-14719881D01*
X8876310Y-14738928D01*
X8866786Y-14748452D01*
X8847738Y-14757976D01*
X8828690Y-14757976D01*
X8809643Y-14748452D01*
X8800119Y-14738928D01*
X8790595Y-14719881D01*
X8781071Y-14681786D01*
X8781071Y-14634167D01*
X8790595Y-14596071D01*
X8800119Y-14577024D01*
X8809643Y-14567500D01*
X8828690Y-14557976D01*
X9076310Y-14557976D02*
X8981071Y-14557976D01*
X8971548Y-14653214D01*
X8981071Y-14643690D01*
X9000119Y-14634167D01*
X9047738Y-14634167D01*
X9066786Y-14643690D01*
X9076310Y-14653214D01*
X9085833Y-14672262D01*
X9085833Y-14719881D01*
X9076310Y-14738928D01*
X9066786Y-14748452D01*
X9047738Y-14757976D01*
X9000119Y-14757976D01*
X8981071Y-14748452D01*
X8971548Y-14738928D01*
X9181071Y-14757976D02*
X9219167Y-14757976D01*
X9238214Y-14748452D01*
X9247738Y-14738928D01*
X9266786Y-14710357D01*
X9276310Y-14672262D01*
X9276310Y-14596071D01*
X9266786Y-14577024D01*
X9257262Y-14567500D01*
X9238214Y-14557976D01*
X9200119Y-14557976D01*
X9181071Y-14567500D01*
X9171548Y-14577024D01*
X9162024Y-14596071D01*
X9162024Y-14643690D01*
X9171548Y-14662738D01*
X9181071Y-14672262D01*
X9200119Y-14681786D01*
X9238214Y-14681786D01*
X9257262Y-14672262D01*
X9266786Y-14662738D01*
X9276310Y-14643690D01*
X9390595Y-14643690D02*
X9371548Y-14634167D01*
X9362024Y-14624643D01*
X9352500Y-14605595D01*
X9352500Y-14596071D01*
X9362024Y-14577024D01*
X9371548Y-14567500D01*
X9390595Y-14557976D01*
X9428690Y-14557976D01*
X9447738Y-14567500D01*
X9457262Y-14577024D01*
X9466786Y-14596071D01*
X9466786Y-14605595D01*
X9457262Y-14624643D01*
X9447738Y-14634167D01*
X9428690Y-14643690D01*
X9390595Y-14643690D01*
X9371548Y-14653214D01*
X9362024Y-14662738D01*
X9352500Y-14681786D01*
X9352500Y-14719881D01*
X9362024Y-14738928D01*
X9371548Y-14748452D01*
X9390595Y-14757976D01*
X9428690Y-14757976D01*
X9447738Y-14748452D01*
X9457262Y-14738928D01*
X9466786Y-14719881D01*
X9466786Y-14681786D01*
X9457262Y-14662738D01*
X9447738Y-14653214D01*
X9428690Y-14643690D01*
X9542976Y-14557976D02*
X9542976Y-14596071D01*
X9619167Y-14557976D02*
X9619167Y-14596071D01*
X9914405Y-14834167D02*
X9904881Y-14824643D01*
X9885833Y-14796071D01*
X9876310Y-14777024D01*
X9866786Y-14748452D01*
X9857262Y-14700833D01*
X9857262Y-14662738D01*
X9866786Y-14615119D01*
X9876310Y-14586548D01*
X9885833Y-14567500D01*
X9904881Y-14538928D01*
X9914405Y-14529405D01*
X9971548Y-14557976D02*
X10104881Y-14557976D01*
X10019167Y-14757976D01*
X10333452Y-14757976D02*
X10333452Y-14557976D01*
X10419167Y-14757976D02*
X10419167Y-14653214D01*
X10409643Y-14634167D01*
X10390595Y-14624643D01*
X10362024Y-14624643D01*
X10342976Y-14634167D01*
X10333452Y-14643690D01*
X10542976Y-14757976D02*
X10523929Y-14748452D01*
X10514405Y-14738928D01*
X10504881Y-14719881D01*
X10504881Y-14662738D01*
X10514405Y-14643690D01*
X10523929Y-14634167D01*
X10542976Y-14624643D01*
X10571548Y-14624643D01*
X10590595Y-14634167D01*
X10600119Y-14643690D01*
X10609643Y-14662738D01*
X10609643Y-14719881D01*
X10600119Y-14738928D01*
X10590595Y-14748452D01*
X10571548Y-14757976D01*
X10542976Y-14757976D01*
X10723929Y-14757976D02*
X10704881Y-14748452D01*
X10695357Y-14729405D01*
X10695357Y-14557976D01*
X10876310Y-14748452D02*
X10857262Y-14757976D01*
X10819167Y-14757976D01*
X10800119Y-14748452D01*
X10790595Y-14729405D01*
X10790595Y-14653214D01*
X10800119Y-14634167D01*
X10819167Y-14624643D01*
X10857262Y-14624643D01*
X10876310Y-14634167D01*
X10885833Y-14653214D01*
X10885833Y-14672262D01*
X10790595Y-14691309D01*
X10962024Y-14748452D02*
X10981071Y-14757976D01*
X11019167Y-14757976D01*
X11038214Y-14748452D01*
X11047738Y-14729405D01*
X11047738Y-14719881D01*
X11038214Y-14700833D01*
X11019167Y-14691309D01*
X10990595Y-14691309D01*
X10971548Y-14681786D01*
X10962024Y-14662738D01*
X10962024Y-14653214D01*
X10971548Y-14634167D01*
X10990595Y-14624643D01*
X11019167Y-14624643D01*
X11038214Y-14634167D01*
X11114405Y-14834167D02*
X11123929Y-14824643D01*
X11142976Y-14796071D01*
X11152500Y-14777024D01*
X11162024Y-14748452D01*
X11171548Y-14700833D01*
X11171548Y-14662738D01*
X11162024Y-14615119D01*
X11152500Y-14586548D01*
X11142976Y-14567500D01*
X11123929Y-14538928D01*
X11114405Y-14529405D01*
X6142500Y-14839500D02*
X6342500Y-15039500D01*
X6342500Y-14839500D02*
X6142500Y-15039500D01*
X6242500Y-14839500D02*
X6242500Y-15039500D01*
X6142500Y-14939500D02*
X6342500Y-14939500D01*
X6590595Y-14849024D02*
X6600119Y-14839500D01*
X6619167Y-14829976D01*
X6666786Y-14829976D01*
X6685833Y-14839500D01*
X6695357Y-14849024D01*
X6704881Y-14868071D01*
X6704881Y-14887119D01*
X6695357Y-14915690D01*
X6581071Y-15029976D01*
X6704881Y-15029976D01*
X6790595Y-15010928D02*
X6800119Y-15020452D01*
X6790595Y-15029976D01*
X6781071Y-15020452D01*
X6790595Y-15010928D01*
X6790595Y-15029976D01*
X6923928Y-14829976D02*
X6942976Y-14829976D01*
X6962024Y-14839500D01*
X6971548Y-14849024D01*
X6981071Y-14868071D01*
X6990595Y-14906167D01*
X6990595Y-14953786D01*
X6981071Y-14991881D01*
X6971548Y-15010928D01*
X6962024Y-15020452D01*
X6942976Y-15029976D01*
X6923928Y-15029976D01*
X6904881Y-15020452D01*
X6895357Y-15010928D01*
X6885833Y-14991881D01*
X6876309Y-14953786D01*
X6876309Y-14906167D01*
X6885833Y-14868071D01*
X6895357Y-14849024D01*
X6904881Y-14839500D01*
X6923928Y-14829976D01*
X7057262Y-14829976D02*
X7181071Y-14829976D01*
X7114405Y-14906167D01*
X7142976Y-14906167D01*
X7162024Y-14915690D01*
X7171548Y-14925214D01*
X7181071Y-14944262D01*
X7181071Y-14991881D01*
X7171548Y-15010928D01*
X7162024Y-15020452D01*
X7142976Y-15029976D01*
X7085833Y-15029976D01*
X7066786Y-15020452D01*
X7057262Y-15010928D01*
X7257262Y-14849024D02*
X7266786Y-14839500D01*
X7285833Y-14829976D01*
X7333452Y-14829976D01*
X7352500Y-14839500D01*
X7362024Y-14849024D01*
X7371548Y-14868071D01*
X7371548Y-14887119D01*
X7362024Y-14915690D01*
X7247738Y-15029976D01*
X7371548Y-15029976D01*
X7457262Y-15029976D02*
X7457262Y-14896643D01*
X7457262Y-14915690D02*
X7466786Y-14906167D01*
X7485833Y-14896643D01*
X7514405Y-14896643D01*
X7533452Y-14906167D01*
X7542976Y-14925214D01*
X7542976Y-15029976D01*
X7542976Y-14925214D02*
X7552500Y-14906167D01*
X7571548Y-14896643D01*
X7600119Y-14896643D01*
X7619167Y-14906167D01*
X7628690Y-14925214D01*
X7628690Y-15029976D01*
X7723928Y-15029976D02*
X7723928Y-14896643D01*
X7723928Y-14915690D02*
X7733452Y-14906167D01*
X7752500Y-14896643D01*
X7781071Y-14896643D01*
X7800119Y-14906167D01*
X7809643Y-14925214D01*
X7809643Y-15029976D01*
X7809643Y-14925214D02*
X7819167Y-14906167D01*
X7838214Y-14896643D01*
X7866786Y-14896643D01*
X7885833Y-14906167D01*
X7895357Y-14925214D01*
X7895357Y-15029976D01*
X8285833Y-14820452D02*
X8114405Y-15077595D01*
X8542976Y-14829976D02*
X8562024Y-14829976D01*
X8581071Y-14839500D01*
X8590595Y-14849024D01*
X8600119Y-14868071D01*
X8609643Y-14906167D01*
X8609643Y-14953786D01*
X8600119Y-14991881D01*
X8590595Y-15010928D01*
X8581071Y-15020452D01*
X8562024Y-15029976D01*
X8542976Y-15029976D01*
X8523929Y-15020452D01*
X8514405Y-15010928D01*
X8504881Y-14991881D01*
X8495357Y-14953786D01*
X8495357Y-14906167D01*
X8504881Y-14868071D01*
X8514405Y-14849024D01*
X8523929Y-14839500D01*
X8542976Y-14829976D01*
X8695357Y-15010928D02*
X8704881Y-15020452D01*
X8695357Y-15029976D01*
X8685833Y-15020452D01*
X8695357Y-15010928D01*
X8695357Y-15029976D01*
X8828690Y-14829976D02*
X8847738Y-14829976D01*
X8866786Y-14839500D01*
X8876310Y-14849024D01*
X8885833Y-14868071D01*
X8895357Y-14906167D01*
X8895357Y-14953786D01*
X8885833Y-14991881D01*
X8876310Y-15010928D01*
X8866786Y-15020452D01*
X8847738Y-15029976D01*
X8828690Y-15029976D01*
X8809643Y-15020452D01*
X8800119Y-15010928D01*
X8790595Y-14991881D01*
X8781071Y-14953786D01*
X8781071Y-14906167D01*
X8790595Y-14868071D01*
X8800119Y-14849024D01*
X8809643Y-14839500D01*
X8828690Y-14829976D01*
X9009643Y-14915690D02*
X8990595Y-14906167D01*
X8981071Y-14896643D01*
X8971548Y-14877595D01*
X8971548Y-14868071D01*
X8981071Y-14849024D01*
X8990595Y-14839500D01*
X9009643Y-14829976D01*
X9047738Y-14829976D01*
X9066786Y-14839500D01*
X9076310Y-14849024D01*
X9085833Y-14868071D01*
X9085833Y-14877595D01*
X9076310Y-14896643D01*
X9066786Y-14906167D01*
X9047738Y-14915690D01*
X9009643Y-14915690D01*
X8990595Y-14925214D01*
X8981071Y-14934738D01*
X8971548Y-14953786D01*
X8971548Y-14991881D01*
X8981071Y-15010928D01*
X8990595Y-15020452D01*
X9009643Y-15029976D01*
X9047738Y-15029976D01*
X9066786Y-15020452D01*
X9076310Y-15010928D01*
X9085833Y-14991881D01*
X9085833Y-14953786D01*
X9076310Y-14934738D01*
X9066786Y-14925214D01*
X9047738Y-14915690D01*
X9209643Y-14829976D02*
X9228690Y-14829976D01*
X9247738Y-14839500D01*
X9257262Y-14849024D01*
X9266786Y-14868071D01*
X9276310Y-14906167D01*
X9276310Y-14953786D01*
X9266786Y-14991881D01*
X9257262Y-15010928D01*
X9247738Y-15020452D01*
X9228690Y-15029976D01*
X9209643Y-15029976D01*
X9190595Y-15020452D01*
X9181071Y-15010928D01*
X9171548Y-14991881D01*
X9162024Y-14953786D01*
X9162024Y-14906167D01*
X9171548Y-14868071D01*
X9181071Y-14849024D01*
X9190595Y-14839500D01*
X9209643Y-14829976D01*
X9400119Y-14829976D02*
X9419167Y-14829976D01*
X9438214Y-14839500D01*
X9447738Y-14849024D01*
X9457262Y-14868071D01*
X9466786Y-14906167D01*
X9466786Y-14953786D01*
X9457262Y-14991881D01*
X9447738Y-15010928D01*
X9438214Y-15020452D01*
X9419167Y-15029976D01*
X9400119Y-15029976D01*
X9381071Y-15020452D01*
X9371548Y-15010928D01*
X9362024Y-14991881D01*
X9352500Y-14953786D01*
X9352500Y-14906167D01*
X9362024Y-14868071D01*
X9371548Y-14849024D01*
X9381071Y-14839500D01*
X9400119Y-14829976D01*
X9542976Y-14829976D02*
X9542976Y-14868071D01*
X9619167Y-14829976D02*
X9619167Y-14868071D01*
X9914405Y-15106167D02*
X9904881Y-15096643D01*
X9885833Y-15068071D01*
X9876310Y-15049024D01*
X9866786Y-15020452D01*
X9857262Y-14972833D01*
X9857262Y-14934738D01*
X9866786Y-14887119D01*
X9876310Y-14858548D01*
X9885833Y-14839500D01*
X9904881Y-14810928D01*
X9914405Y-14801405D01*
X9981071Y-14849024D02*
X9990595Y-14839500D01*
X10009643Y-14829976D01*
X10057262Y-14829976D01*
X10076310Y-14839500D01*
X10085833Y-14849024D01*
X10095357Y-14868071D01*
X10095357Y-14887119D01*
X10085833Y-14915690D01*
X9971548Y-15029976D01*
X10095357Y-15029976D01*
X10333452Y-15029976D02*
X10333452Y-14829976D01*
X10419167Y-15029976D02*
X10419167Y-14925214D01*
X10409643Y-14906167D01*
X10390595Y-14896643D01*
X10362024Y-14896643D01*
X10342976Y-14906167D01*
X10333452Y-14915690D01*
X10542976Y-15029976D02*
X10523929Y-15020452D01*
X10514405Y-15010928D01*
X10504881Y-14991881D01*
X10504881Y-14934738D01*
X10514405Y-14915690D01*
X10523929Y-14906167D01*
X10542976Y-14896643D01*
X10571548Y-14896643D01*
X10590595Y-14906167D01*
X10600119Y-14915690D01*
X10609643Y-14934738D01*
X10609643Y-14991881D01*
X10600119Y-15010928D01*
X10590595Y-15020452D01*
X10571548Y-15029976D01*
X10542976Y-15029976D01*
X10723929Y-15029976D02*
X10704881Y-15020452D01*
X10695357Y-15001405D01*
X10695357Y-14829976D01*
X10876310Y-15020452D02*
X10857262Y-15029976D01*
X10819167Y-15029976D01*
X10800119Y-15020452D01*
X10790595Y-15001405D01*
X10790595Y-14925214D01*
X10800119Y-14906167D01*
X10819167Y-14896643D01*
X10857262Y-14896643D01*
X10876310Y-14906167D01*
X10885833Y-14925214D01*
X10885833Y-14944262D01*
X10790595Y-14963309D01*
X10962024Y-15020452D02*
X10981071Y-15029976D01*
X11019167Y-15029976D01*
X11038214Y-15020452D01*
X11047738Y-15001405D01*
X11047738Y-14991881D01*
X11038214Y-14972833D01*
X11019167Y-14963309D01*
X10990595Y-14963309D01*
X10971548Y-14953786D01*
X10962024Y-14934738D01*
X10962024Y-14925214D01*
X10971548Y-14906167D01*
X10990595Y-14896643D01*
X11019167Y-14896643D01*
X11038214Y-14906167D01*
X11114405Y-15106167D02*
X11123929Y-15096643D01*
X11142976Y-15068071D01*
X11152500Y-15049024D01*
X11162024Y-15020452D01*
X11171548Y-14972833D01*
X11171548Y-14934738D01*
X11162024Y-14887119D01*
X11152500Y-14858548D01*
X11142976Y-14839500D01*
X11123929Y-14810928D01*
X11114405Y-14801405D01*
X6142500Y-15159500D02*
X6342500Y-15359500D01*
X6342500Y-15159500D02*
X6142500Y-15359500D01*
X6313211Y-15330211D02*
X6313211Y-15188789D01*
X6171789Y-15188789D01*
X6171789Y-15330211D01*
X6313211Y-15330211D01*
X6581071Y-15149976D02*
X6704881Y-15149976D01*
X6638214Y-15226167D01*
X6666786Y-15226167D01*
X6685833Y-15235690D01*
X6695357Y-15245214D01*
X6704881Y-15264262D01*
X6704881Y-15311881D01*
X6695357Y-15330928D01*
X6685833Y-15340452D01*
X6666786Y-15349976D01*
X6609643Y-15349976D01*
X6590595Y-15340452D01*
X6581071Y-15330928D01*
X6790595Y-15330928D02*
X6800119Y-15340452D01*
X6790595Y-15349976D01*
X6781071Y-15340452D01*
X6790595Y-15330928D01*
X6790595Y-15349976D01*
X6876309Y-15169024D02*
X6885833Y-15159500D01*
X6904881Y-15149976D01*
X6952500Y-15149976D01*
X6971548Y-15159500D01*
X6981071Y-15169024D01*
X6990595Y-15188071D01*
X6990595Y-15207119D01*
X6981071Y-15235690D01*
X6866786Y-15349976D01*
X6990595Y-15349976D01*
X7114405Y-15149976D02*
X7133452Y-15149976D01*
X7152500Y-15159500D01*
X7162024Y-15169024D01*
X7171548Y-15188071D01*
X7181071Y-15226167D01*
X7181071Y-15273786D01*
X7171548Y-15311881D01*
X7162024Y-15330928D01*
X7152500Y-15340452D01*
X7133452Y-15349976D01*
X7114405Y-15349976D01*
X7095357Y-15340452D01*
X7085833Y-15330928D01*
X7076309Y-15311881D01*
X7066786Y-15273786D01*
X7066786Y-15226167D01*
X7076309Y-15188071D01*
X7085833Y-15169024D01*
X7095357Y-15159500D01*
X7114405Y-15149976D01*
X7304881Y-15149976D02*
X7323928Y-15149976D01*
X7342976Y-15159500D01*
X7352500Y-15169024D01*
X7362024Y-15188071D01*
X7371548Y-15226167D01*
X7371548Y-15273786D01*
X7362024Y-15311881D01*
X7352500Y-15330928D01*
X7342976Y-15340452D01*
X7323928Y-15349976D01*
X7304881Y-15349976D01*
X7285833Y-15340452D01*
X7276309Y-15330928D01*
X7266786Y-15311881D01*
X7257262Y-15273786D01*
X7257262Y-15226167D01*
X7266786Y-15188071D01*
X7276309Y-15169024D01*
X7285833Y-15159500D01*
X7304881Y-15149976D01*
X7457262Y-15349976D02*
X7457262Y-15216643D01*
X7457262Y-15235690D02*
X7466786Y-15226167D01*
X7485833Y-15216643D01*
X7514405Y-15216643D01*
X7533452Y-15226167D01*
X7542976Y-15245214D01*
X7542976Y-15349976D01*
X7542976Y-15245214D02*
X7552500Y-15226167D01*
X7571548Y-15216643D01*
X7600119Y-15216643D01*
X7619167Y-15226167D01*
X7628690Y-15245214D01*
X7628690Y-15349976D01*
X7723928Y-15349976D02*
X7723928Y-15216643D01*
X7723928Y-15235690D02*
X7733452Y-15226167D01*
X7752500Y-15216643D01*
X7781071Y-15216643D01*
X7800119Y-15226167D01*
X7809643Y-15245214D01*
X7809643Y-15349976D01*
X7809643Y-15245214D02*
X7819167Y-15226167D01*
X7838214Y-15216643D01*
X7866786Y-15216643D01*
X7885833Y-15226167D01*
X7895357Y-15245214D01*
X7895357Y-15349976D01*
X8285833Y-15140452D02*
X8114405Y-15397595D01*
X8542976Y-15149976D02*
X8562024Y-15149976D01*
X8581071Y-15159500D01*
X8590595Y-15169024D01*
X8600119Y-15188071D01*
X8609643Y-15226167D01*
X8609643Y-15273786D01*
X8600119Y-15311881D01*
X8590595Y-15330928D01*
X8581071Y-15340452D01*
X8562024Y-15349976D01*
X8542976Y-15349976D01*
X8523929Y-15340452D01*
X8514405Y-15330928D01*
X8504881Y-15311881D01*
X8495357Y-15273786D01*
X8495357Y-15226167D01*
X8504881Y-15188071D01*
X8514405Y-15169024D01*
X8523929Y-15159500D01*
X8542976Y-15149976D01*
X8695357Y-15330928D02*
X8704881Y-15340452D01*
X8695357Y-15349976D01*
X8685833Y-15340452D01*
X8695357Y-15330928D01*
X8695357Y-15349976D01*
X8895357Y-15349976D02*
X8781071Y-15349976D01*
X8838214Y-15349976D02*
X8838214Y-15149976D01*
X8819167Y-15178548D01*
X8800119Y-15197595D01*
X8781071Y-15207119D01*
X8971548Y-15169024D02*
X8981071Y-15159500D01*
X9000119Y-15149976D01*
X9047738Y-15149976D01*
X9066786Y-15159500D01*
X9076310Y-15169024D01*
X9085833Y-15188071D01*
X9085833Y-15207119D01*
X9076310Y-15235690D01*
X8962024Y-15349976D01*
X9085833Y-15349976D01*
X9257262Y-15149976D02*
X9219167Y-15149976D01*
X9200119Y-15159500D01*
X9190595Y-15169024D01*
X9171548Y-15197595D01*
X9162024Y-15235690D01*
X9162024Y-15311881D01*
X9171548Y-15330928D01*
X9181071Y-15340452D01*
X9200119Y-15349976D01*
X9238214Y-15349976D01*
X9257262Y-15340452D01*
X9266786Y-15330928D01*
X9276310Y-15311881D01*
X9276310Y-15264262D01*
X9266786Y-15245214D01*
X9257262Y-15235690D01*
X9238214Y-15226167D01*
X9200119Y-15226167D01*
X9181071Y-15235690D01*
X9171548Y-15245214D01*
X9162024Y-15264262D01*
X9400119Y-15149976D02*
X9419167Y-15149976D01*
X9438214Y-15159500D01*
X9447738Y-15169024D01*
X9457262Y-15188071D01*
X9466786Y-15226167D01*
X9466786Y-15273786D01*
X9457262Y-15311881D01*
X9447738Y-15330928D01*
X9438214Y-15340452D01*
X9419167Y-15349976D01*
X9400119Y-15349976D01*
X9381071Y-15340452D01*
X9371548Y-15330928D01*
X9362024Y-15311881D01*
X9352500Y-15273786D01*
X9352500Y-15226167D01*
X9362024Y-15188071D01*
X9371548Y-15169024D01*
X9381071Y-15159500D01*
X9400119Y-15149976D01*
X9542976Y-15149976D02*
X9542976Y-15188071D01*
X9619167Y-15149976D02*
X9619167Y-15188071D01*
X9914405Y-15426167D02*
X9904881Y-15416643D01*
X9885833Y-15388071D01*
X9876310Y-15369024D01*
X9866786Y-15340452D01*
X9857262Y-15292833D01*
X9857262Y-15254738D01*
X9866786Y-15207119D01*
X9876310Y-15178548D01*
X9885833Y-15159500D01*
X9904881Y-15130928D01*
X9914405Y-15121405D01*
X10076310Y-15216643D02*
X10076310Y-15349976D01*
X10028690Y-15140452D02*
X9981071Y-15283309D01*
X10104881Y-15283309D01*
X10333452Y-15349976D02*
X10333452Y-15149976D01*
X10419167Y-15349976D02*
X10419167Y-15245214D01*
X10409643Y-15226167D01*
X10390595Y-15216643D01*
X10362024Y-15216643D01*
X10342976Y-15226167D01*
X10333452Y-15235690D01*
X10542976Y-15349976D02*
X10523929Y-15340452D01*
X10514405Y-15330928D01*
X10504881Y-15311881D01*
X10504881Y-15254738D01*
X10514405Y-15235690D01*
X10523929Y-15226167D01*
X10542976Y-15216643D01*
X10571548Y-15216643D01*
X10590595Y-15226167D01*
X10600119Y-15235690D01*
X10609643Y-15254738D01*
X10609643Y-15311881D01*
X10600119Y-15330928D01*
X10590595Y-15340452D01*
X10571548Y-15349976D01*
X10542976Y-15349976D01*
X10723929Y-15349976D02*
X10704881Y-15340452D01*
X10695357Y-15321405D01*
X10695357Y-15149976D01*
X10876310Y-15340452D02*
X10857262Y-15349976D01*
X10819167Y-15349976D01*
X10800119Y-15340452D01*
X10790595Y-15321405D01*
X10790595Y-15245214D01*
X10800119Y-15226167D01*
X10819167Y-15216643D01*
X10857262Y-15216643D01*
X10876310Y-15226167D01*
X10885833Y-15245214D01*
X10885833Y-15264262D01*
X10790595Y-15283309D01*
X10962024Y-15340452D02*
X10981071Y-15349976D01*
X11019167Y-15349976D01*
X11038214Y-15340452D01*
X11047738Y-15321405D01*
X11047738Y-15311881D01*
X11038214Y-15292833D01*
X11019167Y-15283309D01*
X10990595Y-15283309D01*
X10971548Y-15273786D01*
X10962024Y-15254738D01*
X10962024Y-15245214D01*
X10971548Y-15226167D01*
X10990595Y-15216643D01*
X11019167Y-15216643D01*
X11038214Y-15226167D01*
X11114405Y-15426167D02*
X11123929Y-15416643D01*
X11142976Y-15388071D01*
X11152500Y-15369024D01*
X11162024Y-15340452D01*
X11171548Y-15292833D01*
X11171548Y-15254738D01*
X11162024Y-15207119D01*
X11152500Y-15178548D01*
X11142976Y-15159500D01*
X11123929Y-15130928D01*
X11114405Y-15121405D01*
X11476309Y-15426167D02*
X11466786Y-15416643D01*
X11447738Y-15388071D01*
X11438214Y-15369024D01*
X11428690Y-15340452D01*
X11419167Y-15292833D01*
X11419167Y-15254738D01*
X11428690Y-15207119D01*
X11438214Y-15178548D01*
X11447738Y-15159500D01*
X11466786Y-15130928D01*
X11476309Y-15121405D01*
X11552500Y-15216643D02*
X11552500Y-15349976D01*
X11552500Y-15235690D02*
X11562024Y-15226167D01*
X11581071Y-15216643D01*
X11609643Y-15216643D01*
X11628690Y-15226167D01*
X11638214Y-15245214D01*
X11638214Y-15349976D01*
X11762024Y-15349976D02*
X11742976Y-15340452D01*
X11733452Y-15330928D01*
X11723928Y-15311881D01*
X11723928Y-15254738D01*
X11733452Y-15235690D01*
X11742976Y-15226167D01*
X11762024Y-15216643D01*
X11790595Y-15216643D01*
X11809643Y-15226167D01*
X11819167Y-15235690D01*
X11828690Y-15254738D01*
X11828690Y-15311881D01*
X11819167Y-15330928D01*
X11809643Y-15340452D01*
X11790595Y-15349976D01*
X11762024Y-15349976D01*
X11885833Y-15216643D02*
X11962024Y-15216643D01*
X11914405Y-15149976D02*
X11914405Y-15321405D01*
X11923928Y-15340452D01*
X11942976Y-15349976D01*
X11962024Y-15349976D01*
X12181071Y-15216643D02*
X12181071Y-15416643D01*
X12181071Y-15226167D02*
X12200119Y-15216643D01*
X12238214Y-15216643D01*
X12257262Y-15226167D01*
X12266786Y-15235690D01*
X12276309Y-15254738D01*
X12276309Y-15311881D01*
X12266786Y-15330928D01*
X12257262Y-15340452D01*
X12238214Y-15349976D01*
X12200119Y-15349976D01*
X12181071Y-15340452D01*
X12390595Y-15349976D02*
X12371548Y-15340452D01*
X12362024Y-15321405D01*
X12362024Y-15149976D01*
X12552500Y-15349976D02*
X12552500Y-15245214D01*
X12542976Y-15226167D01*
X12523928Y-15216643D01*
X12485833Y-15216643D01*
X12466786Y-15226167D01*
X12552500Y-15340452D02*
X12533452Y-15349976D01*
X12485833Y-15349976D01*
X12466786Y-15340452D01*
X12457262Y-15321405D01*
X12457262Y-15302357D01*
X12466786Y-15283309D01*
X12485833Y-15273786D01*
X12533452Y-15273786D01*
X12552500Y-15264262D01*
X12619167Y-15216643D02*
X12695357Y-15216643D01*
X12647738Y-15149976D02*
X12647738Y-15321405D01*
X12657262Y-15340452D01*
X12676309Y-15349976D01*
X12695357Y-15349976D01*
X12838214Y-15340452D02*
X12819167Y-15349976D01*
X12781071Y-15349976D01*
X12762024Y-15340452D01*
X12752500Y-15321405D01*
X12752500Y-15245214D01*
X12762024Y-15226167D01*
X12781071Y-15216643D01*
X12819167Y-15216643D01*
X12838214Y-15226167D01*
X12847738Y-15245214D01*
X12847738Y-15264262D01*
X12752500Y-15283309D01*
X13019167Y-15349976D02*
X13019167Y-15149976D01*
X13019167Y-15340452D02*
X13000119Y-15349976D01*
X12962024Y-15349976D01*
X12942976Y-15340452D01*
X12933452Y-15330928D01*
X12923928Y-15311881D01*
X12923928Y-15254738D01*
X12933452Y-15235690D01*
X12942976Y-15226167D01*
X12962024Y-15216643D01*
X13000119Y-15216643D01*
X13019167Y-15226167D01*
X13095357Y-15426167D02*
X13104881Y-15416643D01*
X13123928Y-15388071D01*
X13133452Y-15369024D01*
X13142976Y-15340452D01*
X13152500Y-15292833D01*
X13152500Y-15254738D01*
X13142976Y-15207119D01*
X13133452Y-15178548D01*
X13123928Y-15159500D01*
X13104881Y-15130928D01*
X13095357Y-15121405D01*
M02*
