G04 #@! TF.GenerationSoftware,KiCad,Pcbnew,5.99.0-unknown-9f841da98e~134~ubuntu20.04.1*
G04 #@! TF.CreationDate,2021-11-20T10:06:44+01:00*
G04 #@! TF.ProjectId,master-wt32,6d617374-6572-42d7-9774-33322e6b6963,rev?*
G04 #@! TF.SameCoordinates,PX3a22d00PY8062360*
G04 #@! TF.FileFunction,Copper,L1,Top*
G04 #@! TF.FilePolarity,Positive*
%FSLAX46Y46*%
G04 Gerber Fmt 4.6, Leading zero omitted, Abs format (unit mm)*
G04 Created by KiCad (PCBNEW 5.99.0-unknown-9f841da98e~134~ubuntu20.04.1) date 2021-11-20 10:06:44*
%MOMM*%
%LPD*%
G01*
G04 APERTURE LIST*
G04 #@! TA.AperFunction,ComponentPad*
%ADD10C,2.032000*%
G04 #@! TD*
G04 #@! TA.AperFunction,ComponentPad*
%ADD11O,3.048000X1.524000*%
G04 #@! TD*
G04 #@! TA.AperFunction,ComponentPad*
%ADD12R,3.000000X1.700000*%
G04 #@! TD*
G04 #@! TA.AperFunction,ComponentPad*
%ADD13O,3.000000X1.700000*%
G04 #@! TD*
G04 #@! TA.AperFunction,ComponentPad*
%ADD14R,3.000000X3.000000*%
G04 #@! TD*
G04 #@! TA.AperFunction,ComponentPad*
%ADD15C,3.000000*%
G04 #@! TD*
G04 #@! TA.AperFunction,ComponentPad*
%ADD16C,1.600000*%
G04 #@! TD*
G04 #@! TA.AperFunction,ComponentPad*
%ADD17O,1.600000X1.600000*%
G04 #@! TD*
G04 #@! TA.AperFunction,ComponentPad*
%ADD18R,1.600000X1.600000*%
G04 #@! TD*
G04 #@! TA.AperFunction,ComponentPad*
%ADD19R,1.800000X1.800000*%
G04 #@! TD*
G04 #@! TA.AperFunction,ComponentPad*
%ADD20C,1.800000*%
G04 #@! TD*
G04 #@! TA.AperFunction,ComponentPad*
%ADD21O,1.524000X3.048000*%
G04 #@! TD*
G04 #@! TA.AperFunction,ComponentPad*
%ADD22R,2.000000X1.905000*%
G04 #@! TD*
G04 #@! TA.AperFunction,ComponentPad*
%ADD23O,2.000000X1.905000*%
G04 #@! TD*
G04 #@! TA.AperFunction,Conductor*
%ADD24C,0.200000*%
G04 #@! TD*
G04 #@! TA.AperFunction,Conductor*
%ADD25C,0.500000*%
G04 #@! TD*
G04 APERTURE END LIST*
D10*
X71374000Y-122555000D03*
X94234000Y-122555000D03*
D11*
X94234000Y-77470000D03*
X94234000Y-80010000D03*
X94234000Y-82550000D03*
X94234000Y-85090000D03*
X94234000Y-87630000D03*
X94234000Y-90170000D03*
X94234000Y-92710000D03*
X94234000Y-95250000D03*
X94234000Y-97790000D03*
X94234000Y-100330000D03*
X94234000Y-102870000D03*
X94234000Y-105410000D03*
X94234000Y-107950000D03*
X71374000Y-107950000D03*
X71374000Y-105410000D03*
X71374000Y-102870000D03*
X71374000Y-100330000D03*
X71374000Y-97790000D03*
X71374000Y-95250000D03*
X71374000Y-92710000D03*
X71374000Y-90170000D03*
X71374000Y-87630000D03*
X71374000Y-85090000D03*
X71374000Y-82550000D03*
X71374000Y-80010000D03*
X71374000Y-77470000D03*
D12*
X116483200Y-96495000D03*
D13*
X116483200Y-93955000D03*
X116483200Y-91415000D03*
X116483200Y-88875000D03*
X116483200Y-86335000D03*
X116483200Y-83795000D03*
D14*
X109474000Y-119888000D03*
D15*
X104394000Y-119888000D03*
X99314000Y-119888000D03*
D16*
X85090000Y-102362000D03*
D17*
X85090000Y-94742000D03*
D14*
X77216000Y-62484000D03*
D15*
X82296000Y-62484000D03*
X87376000Y-62484000D03*
X92456000Y-62484000D03*
D16*
X77470000Y-80772000D03*
D17*
X77470000Y-73152000D03*
D16*
X88900000Y-102362000D03*
D17*
X88900000Y-94742000D03*
D18*
X81783000Y-80762000D03*
D17*
X84323000Y-80762000D03*
X84323000Y-73142000D03*
X81783000Y-73142000D03*
D16*
X88646000Y-80772000D03*
D17*
X88646000Y-73152000D03*
D16*
X86868000Y-85090000D03*
D17*
X79248000Y-85090000D03*
D19*
X120650000Y-78740000D03*
D20*
X123190000Y-78740000D03*
D21*
X114300000Y-100457000D03*
X106680000Y-100457000D03*
X109220000Y-100457000D03*
X104140000Y-100457000D03*
X111760000Y-100457000D03*
X104140000Y-59690000D03*
X114300000Y-59690000D03*
X109220000Y-59690000D03*
X101600000Y-59690000D03*
X106680000Y-59690000D03*
X111760000Y-59690000D03*
X101600000Y-100457000D03*
X116840000Y-59690000D03*
X99060000Y-59690000D03*
X99060000Y-100457000D03*
X116840000Y-100457000D03*
D18*
X104282500Y-72390000D03*
D17*
X109362500Y-72390000D03*
X109362500Y-64770000D03*
X104282500Y-64770000D03*
D18*
X101600000Y-107950000D03*
D16*
X99100000Y-107950000D03*
D12*
X116483200Y-116875000D03*
D13*
X116483200Y-114335000D03*
X116483200Y-111795000D03*
X116483200Y-109255000D03*
X116483200Y-106715000D03*
X116483200Y-104175000D03*
D16*
X108458000Y-77470000D03*
D17*
X116078000Y-77470000D03*
D16*
X104140000Y-77470000D03*
X104140000Y-82470000D03*
D22*
X124135000Y-72390000D03*
D23*
X124135000Y-69850000D03*
X124135000Y-67310000D03*
D24*
X81783000Y-73142000D02*
X81783000Y-71633000D01*
X81783000Y-71633000D02*
X82296000Y-71120000D01*
X82296000Y-71120000D02*
X88138000Y-71120000D01*
X88138000Y-71120000D02*
X88646000Y-71628000D01*
X88646000Y-71628000D02*
X88646000Y-73152000D01*
X116483200Y-106715000D02*
X118583000Y-106715000D01*
X118872000Y-95250000D02*
X99164400Y-95250000D01*
X118583000Y-106715000D02*
X119634000Y-105664000D01*
X119634000Y-105664000D02*
X119634000Y-96012000D01*
X119634000Y-96012000D02*
X118872000Y-95250000D01*
X99164400Y-95250000D02*
X96624400Y-92710000D01*
X96624400Y-92710000D02*
X94234000Y-92710000D01*
D25*
X124135000Y-67310000D02*
X119380000Y-67310000D01*
X119380000Y-67310000D02*
X111760000Y-74930000D01*
X111760000Y-79332100D02*
X106002100Y-79332100D01*
X106002100Y-79332100D02*
X104140000Y-77470000D01*
X92456000Y-65786000D02*
X104140000Y-77470000D01*
X116483000Y-83795000D02*
X116483200Y-83795000D01*
X111760000Y-74930000D02*
X111760000Y-79332100D01*
X114837000Y-98094500D02*
X114234000Y-98094500D01*
X92456000Y-62484000D02*
X92456000Y-65786000D01*
X111760000Y-80144200D02*
X115411000Y-83795000D01*
X114234000Y-98094500D02*
X113484000Y-97344500D01*
X116840000Y-100457000D02*
X116840000Y-100097000D01*
X96774000Y-105410000D02*
X94234000Y-105410000D01*
X116840000Y-100097000D02*
X114837000Y-98094500D01*
X97028000Y-105156000D02*
X96774000Y-105410000D01*
X97028000Y-98552000D02*
X97028000Y-105156000D01*
X115411000Y-83795000D02*
X116483000Y-83795000D01*
X111760000Y-79332100D02*
X111760000Y-80144200D01*
X113484000Y-97344500D02*
X98235500Y-97344500D01*
X98235500Y-97344500D02*
X97028000Y-98552000D01*
X124135000Y-72390000D02*
X124135000Y-74092800D01*
X113030000Y-90424000D02*
X114021000Y-91415000D01*
X99060000Y-107910000D02*
X99100000Y-107950000D01*
X124135000Y-74092800D02*
X123190000Y-75037800D01*
X113030000Y-86335000D02*
X113030000Y-90424000D01*
X85873300Y-80762000D02*
X84323000Y-80762000D01*
X86158200Y-75957700D02*
X95701800Y-75957700D01*
X84323000Y-74692300D02*
X85873300Y-76242600D01*
X114021000Y-91415000D02*
X116483000Y-91415000D01*
X84323000Y-73142000D02*
X84323000Y-74692300D01*
X114233000Y-86335000D02*
X113030000Y-86335000D01*
X95701800Y-75957700D02*
X102214000Y-82470000D01*
X102214000Y-82470000D02*
X104140000Y-82470000D01*
X108005000Y-86335000D02*
X104140000Y-82470000D01*
X114233000Y-86335000D02*
X113030000Y-86335000D01*
X116483000Y-91415000D02*
X116483200Y-91415000D01*
X85873300Y-76242600D02*
X85873300Y-80762000D01*
X123190000Y-75037800D02*
X123190000Y-78740000D01*
X116483200Y-86335000D02*
X116483000Y-86335000D01*
X116483000Y-86335000D02*
X114233000Y-86335000D01*
X85873300Y-76242600D02*
X86158200Y-75957700D01*
X113030000Y-86335000D02*
X108005000Y-86335000D01*
X99060000Y-100457000D02*
X99060000Y-107910000D01*
X118734000Y-88875000D02*
X120142000Y-87466500D01*
X120142000Y-87466500D02*
X120142000Y-83058000D01*
X88900000Y-102362000D02*
X85090000Y-102362000D01*
X121412000Y-91553500D02*
X118734000Y-88875000D01*
X116483000Y-88875000D02*
X116483200Y-88875000D01*
X82804000Y-100076000D02*
X85090000Y-102362000D01*
X118364000Y-69850000D02*
X124135000Y-69850000D01*
X120142000Y-83058000D02*
X118618000Y-81534000D01*
X113030000Y-75184000D02*
X118364000Y-69850000D01*
X121412000Y-116586000D02*
X121412000Y-91553500D01*
X92456000Y-110490000D02*
X100330000Y-110490000D01*
X116483200Y-88875000D02*
X118734000Y-88875000D01*
X101600000Y-109220000D02*
X101600000Y-107950000D01*
X86868000Y-85090000D02*
X82804000Y-89154000D01*
X88900000Y-106934000D02*
X92456000Y-110490000D01*
X118110000Y-119888000D02*
X121412000Y-116586000D01*
X115824000Y-81534000D02*
X113030000Y-78740000D01*
X100330000Y-110490000D02*
X101600000Y-109220000D01*
X88646000Y-80772000D02*
X88646000Y-83312000D01*
X88646000Y-83312000D02*
X86868000Y-85090000D01*
X118618000Y-81534000D02*
X115824000Y-81534000D01*
X113030000Y-78740000D02*
X113030000Y-75184000D01*
X82804000Y-89154000D02*
X82804000Y-100076000D01*
X109474000Y-119888000D02*
X118110000Y-119888000D01*
X88900000Y-102362000D02*
X88900000Y-106934000D01*
D24*
X89916000Y-90123700D02*
X92409700Y-87630000D01*
X92202000Y-93980000D02*
X96774000Y-93980000D01*
X86083000Y-92479000D02*
X89893000Y-92479000D01*
X92409700Y-87630000D02*
X94234000Y-87630000D01*
X89916000Y-92456000D02*
X89916000Y-90123700D01*
X89893000Y-92479000D02*
X90701000Y-92479000D01*
X96774000Y-93980000D02*
X99289000Y-96495000D01*
X99289000Y-96495000D02*
X116483000Y-96495000D01*
X89893000Y-92479000D02*
X89916000Y-92456000D01*
X116483000Y-96495000D02*
X116483200Y-96495000D01*
X85090000Y-93472000D02*
X86083000Y-92479000D01*
X90701000Y-92479000D02*
X92202000Y-93980000D01*
X85090000Y-94742000D02*
X85090000Y-93472000D01*
X100813000Y-93955000D02*
X116483000Y-93955000D01*
X97028000Y-90170000D02*
X100813000Y-93955000D01*
X94234000Y-90170000D02*
X97028000Y-90170000D01*
X116483000Y-93955000D02*
X116483200Y-93955000D01*
X74422000Y-92710000D02*
X75800500Y-94088500D01*
X75800500Y-96882500D02*
X91186000Y-112268000D01*
X71374000Y-92710000D02*
X74422000Y-92710000D01*
X91186000Y-112268000D02*
X109220000Y-112268000D01*
X112233000Y-109255000D02*
X116483000Y-109255000D01*
X116483000Y-109255000D02*
X116483200Y-109255000D01*
X109220000Y-112268000D02*
X112233000Y-109255000D01*
X75800500Y-94088500D02*
X75800500Y-96882500D01*
X89443000Y-114335000D02*
X75438000Y-100330000D01*
X75438000Y-100330000D02*
X71374000Y-100330000D01*
X116483000Y-114335000D02*
X116483200Y-114335000D01*
X116483000Y-114335000D02*
X89443000Y-114335000D01*
X87884000Y-115316000D02*
X75438000Y-102870000D01*
X116483000Y-116875000D02*
X116483200Y-116875000D01*
X113065000Y-116875000D02*
X111506000Y-115316000D01*
X111506000Y-115316000D02*
X87884000Y-115316000D01*
X116483000Y-116875000D02*
X113065000Y-116875000D01*
X75438000Y-102870000D02*
X71374000Y-102870000D01*
X76200000Y-92456000D02*
X73914000Y-90170000D01*
X116483000Y-104175000D02*
X116483200Y-104175000D01*
X113249000Y-104175000D02*
X105918000Y-111506000D01*
X73914000Y-90170000D02*
X71374000Y-90170000D01*
X76200000Y-96520000D02*
X76200000Y-92456000D01*
X91186000Y-111506000D02*
X76200000Y-96520000D01*
X105918000Y-111506000D02*
X91186000Y-111506000D01*
X116483000Y-104175000D02*
X113249000Y-104175000D01*
X116483000Y-106715000D02*
X116483200Y-106715000D01*
X116483000Y-111795000D02*
X111979000Y-111795000D01*
X116483000Y-111795000D02*
X116483200Y-111795000D01*
X91186000Y-113030000D02*
X73406000Y-95250000D01*
X111979000Y-111795000D02*
X110744000Y-113030000D01*
X73406000Y-95250000D02*
X71374000Y-95250000D01*
X110744000Y-113030000D02*
X91186000Y-113030000D01*
D25*
X99060000Y-59690000D02*
X99060000Y-61097800D01*
X99060000Y-61097800D02*
X102732000Y-64770000D01*
X102732000Y-64770000D02*
X104282000Y-64770000D01*
X104282000Y-64770000D02*
X104282500Y-64770000D01*
X104002000Y-68580000D02*
X107950000Y-68580000D01*
X92572200Y-57150000D02*
X104002000Y-68580000D01*
X109362000Y-69992500D02*
X109362000Y-71191200D01*
X107950000Y-68580000D02*
X109362000Y-69992500D01*
X77216000Y-58674000D02*
X78740000Y-57150000D01*
X109362000Y-71191200D02*
X109362500Y-71191700D01*
X109362000Y-71191200D02*
X109362000Y-72390000D01*
X78740000Y-57150000D02*
X92572200Y-57150000D01*
X77216000Y-62484000D02*
X77216000Y-58674000D01*
X109362500Y-71191700D02*
X109362500Y-72390000D01*
X116840000Y-59690000D02*
X116840000Y-61964300D01*
X116840000Y-61964300D02*
X114034000Y-64770000D01*
X114034000Y-64770000D02*
X109362500Y-64770000D01*
X109362500Y-64770000D02*
X109362000Y-64770000D01*
X104282000Y-71155100D02*
X104282000Y-72390000D01*
X83820000Y-58420000D02*
X92782200Y-58420000D01*
X92782200Y-58420000D02*
X104282000Y-69920300D01*
X104282000Y-69920300D02*
X104282000Y-71155100D01*
X104282500Y-71155600D02*
X104282500Y-72390000D01*
X104282000Y-71155100D02*
X104282500Y-71155600D01*
X82296000Y-62484000D02*
X82296000Y-59944000D01*
X82296000Y-59944000D02*
X83820000Y-58420000D01*
D24*
X77470000Y-72390000D02*
X87376000Y-62484000D01*
X77470000Y-73152000D02*
X77470000Y-72390000D01*
X79248000Y-85090000D02*
X78147700Y-85090000D01*
X89662000Y-119888000D02*
X75184000Y-105410000D01*
X74337700Y-88900000D02*
X69088000Y-88900000D01*
X78147700Y-85090000D02*
X74337700Y-88900000D01*
X69088000Y-88900000D02*
X68072000Y-89916000D01*
X68072000Y-89916000D02*
X68072000Y-105410000D01*
X68072000Y-105410000D02*
X71374000Y-105410000D01*
X99314000Y-119888000D02*
X89662000Y-119888000D01*
X75184000Y-105410000D02*
X71374000Y-105410000D01*
X81783000Y-80762000D02*
X77480000Y-80762000D01*
X77480000Y-80762000D02*
X77470000Y-80772000D01*
X71374000Y-87630000D02*
X73198300Y-87630000D01*
X73198300Y-87630000D02*
X73198300Y-82148100D01*
X81783000Y-73142000D02*
X82204400Y-73142000D01*
X73198300Y-82148100D02*
X82204400Y-73142000D01*
M02*
