G04 #@! TF.GenerationSoftware,KiCad,Pcbnew,5.99.0-unknown-9f841da98e~134~ubuntu20.04.1*
G04 #@! TF.CreationDate,2021-11-20T10:06:44+01:00*
G04 #@! TF.ProjectId,master-wt32,6d617374-6572-42d7-9774-33322e6b6963,rev?*
G04 #@! TF.SameCoordinates,PX3a22d00PY8062360*
G04 #@! TF.FileFunction,Soldermask,Top*
G04 #@! TF.FilePolarity,Negative*
%FSLAX46Y46*%
G04 Gerber Fmt 4.6, Leading zero omitted, Abs format (unit mm)*
G04 Created by KiCad (PCBNEW 5.99.0-unknown-9f841da98e~134~ubuntu20.04.1) date 2021-11-20 10:06:44*
%MOMM*%
%LPD*%
G01*
G04 APERTURE LIST*
%ADD10C,3.200000*%
%ADD11C,2.032000*%
%ADD12O,3.048000X1.524000*%
%ADD13R,3.000000X1.700000*%
%ADD14O,3.000000X1.700000*%
%ADD15R,3.000000X3.000000*%
%ADD16C,3.000000*%
%ADD17C,1.600000*%
%ADD18O,1.600000X1.600000*%
%ADD19R,1.600000X1.600000*%
%ADD20R,1.800000X1.800000*%
%ADD21C,1.800000*%
%ADD22O,1.524000X3.048000*%
%ADD23R,2.000000X1.905000*%
%ADD24O,2.000000X1.905000*%
G04 APERTURE END LIST*
D10*
X67056000Y-123444000D03*
D11*
X71374000Y-122555000D03*
X94234000Y-122555000D03*
D12*
X94234000Y-77470000D03*
X94234000Y-80010000D03*
X94234000Y-82550000D03*
X94234000Y-85090000D03*
X94234000Y-87630000D03*
X94234000Y-90170000D03*
X94234000Y-92710000D03*
X94234000Y-95250000D03*
X94234000Y-97790000D03*
X94234000Y-100330000D03*
X94234000Y-102870000D03*
X94234000Y-105410000D03*
X94234000Y-107950000D03*
X71374000Y-107950000D03*
X71374000Y-105410000D03*
X71374000Y-102870000D03*
X71374000Y-100330000D03*
X71374000Y-97790000D03*
X71374000Y-95250000D03*
X71374000Y-92710000D03*
X71374000Y-90170000D03*
X71374000Y-87630000D03*
X71374000Y-85090000D03*
X71374000Y-82550000D03*
X71374000Y-80010000D03*
X71374000Y-77470000D03*
D13*
X116483200Y-96495000D03*
D14*
X116483200Y-93955000D03*
X116483200Y-91415000D03*
X116483200Y-88875000D03*
X116483200Y-86335000D03*
X116483200Y-83795000D03*
D15*
X109474000Y-119888000D03*
D16*
X104394000Y-119888000D03*
X99314000Y-119888000D03*
D17*
X85090000Y-102362000D03*
D18*
X85090000Y-94742000D03*
D15*
X77216000Y-62484000D03*
D16*
X82296000Y-62484000D03*
X87376000Y-62484000D03*
X92456000Y-62484000D03*
D17*
X77470000Y-80772000D03*
D18*
X77470000Y-73152000D03*
D17*
X88900000Y-102362000D03*
D18*
X88900000Y-94742000D03*
D10*
X67056000Y-58928000D03*
D19*
X81783000Y-80762000D03*
D18*
X84323000Y-80762000D03*
X84323000Y-73142000D03*
X81783000Y-73142000D03*
D17*
X88646000Y-80772000D03*
D18*
X88646000Y-73152000D03*
D17*
X86868000Y-85090000D03*
D18*
X79248000Y-85090000D03*
D10*
X123923200Y-123444000D03*
D20*
X120650000Y-78740000D03*
D21*
X123190000Y-78740000D03*
D22*
X114300000Y-100457000D03*
X106680000Y-100457000D03*
X109220000Y-100457000D03*
X104140000Y-100457000D03*
X111760000Y-100457000D03*
X104140000Y-59690000D03*
X114300000Y-59690000D03*
X109220000Y-59690000D03*
X101600000Y-59690000D03*
X106680000Y-59690000D03*
X111760000Y-59690000D03*
X101600000Y-100457000D03*
X116840000Y-59690000D03*
X99060000Y-59690000D03*
X99060000Y-100457000D03*
X116840000Y-100457000D03*
D19*
X104282500Y-72390000D03*
D18*
X109362500Y-72390000D03*
X109362500Y-64770000D03*
X104282500Y-64770000D03*
D19*
X101600000Y-107950000D03*
D17*
X99100000Y-107950000D03*
D13*
X116483200Y-116875000D03*
D14*
X116483200Y-114335000D03*
X116483200Y-111795000D03*
X116483200Y-109255000D03*
X116483200Y-106715000D03*
X116483200Y-104175000D03*
D17*
X108458000Y-77470000D03*
D18*
X116078000Y-77470000D03*
D10*
X123923200Y-58928000D03*
D17*
X104140000Y-77470000D03*
X104140000Y-82470000D03*
D23*
X124135000Y-72390000D03*
D24*
X124135000Y-69850000D03*
X124135000Y-67310000D03*
M02*
