G04 #@! TF.GenerationSoftware,KiCad,Pcbnew,5.99.0-unknown-9f841da98e~134~ubuntu20.04.1*
G04 #@! TF.CreationDate,2021-11-20T10:06:44+01:00*
G04 #@! TF.ProjectId,master-wt32,6d617374-6572-42d7-9774-33322e6b6963,rev?*
G04 #@! TF.SameCoordinates,PX3a22d00PY8062360*
G04 #@! TF.FileFunction,Legend,Top*
G04 #@! TF.FilePolarity,Positive*
%FSLAX46Y46*%
G04 Gerber Fmt 4.6, Leading zero omitted, Abs format (unit mm)*
G04 Created by KiCad (PCBNEW 5.99.0-unknown-9f841da98e~134~ubuntu20.04.1) date 2021-11-20 10:06:44*
%MOMM*%
%LPD*%
G01*
G04 APERTURE LIST*
%ADD10C,0.300000*%
%ADD11C,0.150000*%
%ADD12C,0.120000*%
%ADD13C,3.200000*%
%ADD14C,2.032000*%
%ADD15O,3.048000X1.524000*%
%ADD16R,3.000000X1.700000*%
%ADD17O,3.000000X1.700000*%
%ADD18R,3.000000X3.000000*%
%ADD19C,3.000000*%
%ADD20C,1.600000*%
%ADD21O,1.600000X1.600000*%
%ADD22R,1.600000X1.600000*%
%ADD23R,1.800000X1.800000*%
%ADD24C,1.800000*%
%ADD25O,1.524000X3.048000*%
%ADD26R,2.000000X1.905000*%
%ADD27O,2.000000X1.905000*%
G04 APERTURE END LIST*
D10*
X66972571Y-102968000D02*
X65972571Y-102968000D01*
X66115428Y-102968000D02*
X66044000Y-102896571D01*
X65972571Y-102753714D01*
X65972571Y-102539428D01*
X66044000Y-102396571D01*
X66186857Y-102325142D01*
X66972571Y-102325142D01*
X66186857Y-102325142D02*
X66044000Y-102253714D01*
X65972571Y-102110857D01*
X65972571Y-101896571D01*
X66044000Y-101753714D01*
X66186857Y-101682285D01*
X66972571Y-101682285D01*
X66972571Y-100325142D02*
X66186857Y-100325142D01*
X66044000Y-100396571D01*
X65972571Y-100539428D01*
X65972571Y-100825142D01*
X66044000Y-100968000D01*
X66901142Y-100325142D02*
X66972571Y-100468000D01*
X66972571Y-100825142D01*
X66901142Y-100968000D01*
X66758285Y-101039428D01*
X66615428Y-101039428D01*
X66472571Y-100968000D01*
X66401142Y-100825142D01*
X66401142Y-100468000D01*
X66329714Y-100325142D01*
X66901142Y-99682285D02*
X66972571Y-99539428D01*
X66972571Y-99253714D01*
X66901142Y-99110857D01*
X66758285Y-99039428D01*
X66686857Y-99039428D01*
X66544000Y-99110857D01*
X66472571Y-99253714D01*
X66472571Y-99468000D01*
X66401142Y-99610857D01*
X66258285Y-99682285D01*
X66186857Y-99682285D01*
X66044000Y-99610857D01*
X65972571Y-99468000D01*
X65972571Y-99253714D01*
X66044000Y-99110857D01*
X65972571Y-98610857D02*
X65972571Y-98039428D01*
X65472571Y-98396571D02*
X66758285Y-98396571D01*
X66901142Y-98325142D01*
X66972571Y-98182285D01*
X66972571Y-98039428D01*
X66901142Y-96968000D02*
X66972571Y-97110857D01*
X66972571Y-97396571D01*
X66901142Y-97539428D01*
X66758285Y-97610857D01*
X66186857Y-97610857D01*
X66044000Y-97539428D01*
X65972571Y-97396571D01*
X65972571Y-97110857D01*
X66044000Y-96968000D01*
X66186857Y-96896571D01*
X66329714Y-96896571D01*
X66472571Y-97610857D01*
X66972571Y-96253714D02*
X65972571Y-96253714D01*
X66258285Y-96253714D02*
X66115428Y-96182285D01*
X66044000Y-96110857D01*
X65972571Y-95968000D01*
X65972571Y-95825142D01*
X66401142Y-95325142D02*
X66401142Y-94182285D01*
X65972571Y-93610857D02*
X66972571Y-93325142D01*
X66258285Y-93039428D01*
X66972571Y-92753714D01*
X65972571Y-92468000D01*
X65972571Y-92110857D02*
X65972571Y-91539428D01*
X65472571Y-91896571D02*
X66758285Y-91896571D01*
X66901142Y-91825142D01*
X66972571Y-91682285D01*
X66972571Y-91539428D01*
X65472571Y-91182285D02*
X65472571Y-90253714D01*
X66044000Y-90753714D01*
X66044000Y-90539428D01*
X66115428Y-90396571D01*
X66186857Y-90325142D01*
X66329714Y-90253714D01*
X66686857Y-90253714D01*
X66829714Y-90325142D01*
X66901142Y-90396571D01*
X66972571Y-90539428D01*
X66972571Y-90968000D01*
X66901142Y-91110857D01*
X66829714Y-91182285D01*
X65615428Y-89682285D02*
X65544000Y-89610857D01*
X65472571Y-89468000D01*
X65472571Y-89110857D01*
X65544000Y-88968000D01*
X65615428Y-88896571D01*
X65758285Y-88825142D01*
X65901142Y-88825142D01*
X66115428Y-88896571D01*
X66972571Y-89753714D01*
X66972571Y-88825142D01*
X66401142Y-88182285D02*
X66401142Y-87039428D01*
X66972571Y-85539428D02*
X66972571Y-86396571D01*
X66972571Y-85968000D02*
X65472571Y-85968000D01*
X65686857Y-86110857D01*
X65829714Y-86253714D01*
X65901142Y-86396571D01*
X66829714Y-84896571D02*
X66901142Y-84825142D01*
X66972571Y-84896571D01*
X66901142Y-84968000D01*
X66829714Y-84896571D01*
X66972571Y-84896571D01*
X65472571Y-83896571D02*
X65472571Y-83753714D01*
X65544000Y-83610857D01*
X65615428Y-83539428D01*
X65758285Y-83468000D01*
X66044000Y-83396571D01*
X66401142Y-83396571D01*
X66686857Y-83468000D01*
X66829714Y-83539428D01*
X66901142Y-83610857D01*
X66972571Y-83753714D01*
X66972571Y-83896571D01*
X66901142Y-84039428D01*
X66829714Y-84110857D01*
X66686857Y-84182285D01*
X66401142Y-84253714D01*
X66044000Y-84253714D01*
X65758285Y-84182285D01*
X65615428Y-84110857D01*
X65544000Y-84039428D01*
X65472571Y-83896571D01*
D11*
X111800200Y-114787380D02*
X111800200Y-113787380D01*
X112466866Y-113787380D02*
X112657342Y-113787380D01*
X112752580Y-113835000D01*
X112847819Y-113930238D01*
X112895438Y-114120714D01*
X112895438Y-114454047D01*
X112847819Y-114644523D01*
X112752580Y-114739761D01*
X112657342Y-114787380D01*
X112466866Y-114787380D01*
X112371628Y-114739761D01*
X112276390Y-114644523D01*
X112228771Y-114454047D01*
X112228771Y-114120714D01*
X112276390Y-113930238D01*
X112371628Y-113835000D01*
X112466866Y-113787380D01*
X113800200Y-113787380D02*
X113324009Y-113787380D01*
X113276390Y-114263571D01*
X113324009Y-114215952D01*
X113419247Y-114168333D01*
X113657342Y-114168333D01*
X113752580Y-114215952D01*
X113800200Y-114263571D01*
X113847819Y-114358809D01*
X113847819Y-114596904D01*
X113800200Y-114692142D01*
X113752580Y-114739761D01*
X113657342Y-114787380D01*
X113419247Y-114787380D01*
X113324009Y-114739761D01*
X113276390Y-114692142D01*
X92703142Y-125420380D02*
X92131714Y-125420380D01*
X92417428Y-125420380D02*
X92417428Y-124420380D01*
X92322190Y-124563238D01*
X92226952Y-124658476D01*
X92131714Y-124706095D01*
X93036476Y-124420380D02*
X93274571Y-125420380D01*
X93465047Y-124706095D01*
X93655523Y-125420380D01*
X93893619Y-124420380D01*
X94274571Y-125420380D02*
X94274571Y-124420380D01*
X95322190Y-125420380D02*
X94988857Y-124944190D01*
X94750761Y-125420380D02*
X94750761Y-124420380D01*
X95131714Y-124420380D01*
X95226952Y-124468000D01*
X95274571Y-124515619D01*
X95322190Y-124610857D01*
X95322190Y-124753714D01*
X95274571Y-124848952D01*
X95226952Y-124896571D01*
X95131714Y-124944190D01*
X94750761Y-124944190D01*
X95750761Y-124896571D02*
X96084095Y-124896571D01*
X96226952Y-125420380D02*
X95750761Y-125420380D01*
X95750761Y-124420380D01*
X96226952Y-124420380D01*
X98179333Y-125420380D02*
X98179333Y-124420380D01*
X98417428Y-124420380D01*
X98560285Y-124468000D01*
X98655523Y-124563238D01*
X98703142Y-124658476D01*
X98750761Y-124848952D01*
X98750761Y-124991809D01*
X98703142Y-125182285D01*
X98655523Y-125277523D01*
X98560285Y-125372761D01*
X98417428Y-125420380D01*
X98179333Y-125420380D01*
X99131714Y-125134666D02*
X99607904Y-125134666D01*
X99036476Y-125420380D02*
X99369809Y-124420380D01*
X99703142Y-125420380D01*
X99893619Y-124420380D02*
X100465047Y-124420380D01*
X100179333Y-125420380D02*
X100179333Y-124420380D01*
X100750761Y-125134666D02*
X101226952Y-125134666D01*
X100655523Y-125420380D02*
X100988857Y-124420380D01*
X101322190Y-125420380D01*
X103703142Y-124468000D02*
X103607904Y-124420380D01*
X103465047Y-124420380D01*
X103322190Y-124468000D01*
X103226952Y-124563238D01*
X103179333Y-124658476D01*
X103131714Y-124848952D01*
X103131714Y-124991809D01*
X103179333Y-125182285D01*
X103226952Y-125277523D01*
X103322190Y-125372761D01*
X103465047Y-125420380D01*
X103560285Y-125420380D01*
X103703142Y-125372761D01*
X103750761Y-125325142D01*
X103750761Y-124991809D01*
X103560285Y-124991809D01*
X104179333Y-125420380D02*
X104179333Y-124420380D01*
X104750761Y-125420380D01*
X104750761Y-124420380D01*
X105226952Y-125420380D02*
X105226952Y-124420380D01*
X105465047Y-124420380D01*
X105607904Y-124468000D01*
X105703142Y-124563238D01*
X105750761Y-124658476D01*
X105798380Y-124848952D01*
X105798380Y-124991809D01*
X105750761Y-125182285D01*
X105703142Y-125277523D01*
X105607904Y-125372761D01*
X105465047Y-125420380D01*
X105226952Y-125420380D01*
X107655523Y-124420380D02*
X108274571Y-124420380D01*
X107941238Y-124801333D01*
X108084095Y-124801333D01*
X108179333Y-124848952D01*
X108226952Y-124896571D01*
X108274571Y-124991809D01*
X108274571Y-125229904D01*
X108226952Y-125325142D01*
X108179333Y-125372761D01*
X108084095Y-125420380D01*
X107798380Y-125420380D01*
X107703142Y-125372761D01*
X107655523Y-125325142D01*
X108703142Y-125325142D02*
X108750761Y-125372761D01*
X108703142Y-125420380D01*
X108655523Y-125372761D01*
X108703142Y-125325142D01*
X108703142Y-125420380D01*
X109084095Y-124420380D02*
X109703142Y-124420380D01*
X109369809Y-124801333D01*
X109512666Y-124801333D01*
X109607904Y-124848952D01*
X109655523Y-124896571D01*
X109703142Y-124991809D01*
X109703142Y-125229904D01*
X109655523Y-125325142D01*
X109607904Y-125372761D01*
X109512666Y-125420380D01*
X109226952Y-125420380D01*
X109131714Y-125372761D01*
X109084095Y-125325142D01*
X109988857Y-124420380D02*
X110322190Y-125420380D01*
X110655523Y-124420380D01*
X111101723Y-96899761D02*
X111244580Y-96947380D01*
X111482676Y-96947380D01*
X111577914Y-96899761D01*
X111625533Y-96852142D01*
X111673152Y-96756904D01*
X111673152Y-96661666D01*
X111625533Y-96566428D01*
X111577914Y-96518809D01*
X111482676Y-96471190D01*
X111292200Y-96423571D01*
X111196961Y-96375952D01*
X111149342Y-96328333D01*
X111101723Y-96233095D01*
X111101723Y-96137857D01*
X111149342Y-96042619D01*
X111196961Y-95995000D01*
X111292200Y-95947380D01*
X111530295Y-95947380D01*
X111673152Y-95995000D01*
X112673152Y-96852142D02*
X112625533Y-96899761D01*
X112482676Y-96947380D01*
X112387438Y-96947380D01*
X112244580Y-96899761D01*
X112149342Y-96804523D01*
X112101723Y-96709285D01*
X112054104Y-96518809D01*
X112054104Y-96375952D01*
X112101723Y-96185476D01*
X112149342Y-96090238D01*
X112244580Y-95995000D01*
X112387438Y-95947380D01*
X112482676Y-95947380D01*
X112625533Y-95995000D01*
X112673152Y-96042619D01*
X113577914Y-96947380D02*
X113101723Y-96947380D01*
X113101723Y-95947380D01*
X111800200Y-117327380D02*
X111800200Y-116327380D01*
X112466866Y-116327380D02*
X112657342Y-116327380D01*
X112752580Y-116375000D01*
X112847819Y-116470238D01*
X112895438Y-116660714D01*
X112895438Y-116994047D01*
X112847819Y-117184523D01*
X112752580Y-117279761D01*
X112657342Y-117327380D01*
X112466866Y-117327380D01*
X112371628Y-117279761D01*
X112276390Y-117184523D01*
X112228771Y-116994047D01*
X112228771Y-116660714D01*
X112276390Y-116470238D01*
X112371628Y-116375000D01*
X112466866Y-116327380D01*
X113752580Y-116660714D02*
X113752580Y-117327380D01*
X113514485Y-116279761D02*
X113276390Y-116994047D01*
X113895438Y-116994047D01*
X110816009Y-112247380D02*
X110816009Y-111247380D01*
X111482676Y-111247380D02*
X111673152Y-111247380D01*
X111768390Y-111295000D01*
X111863628Y-111390238D01*
X111911247Y-111580714D01*
X111911247Y-111914047D01*
X111863628Y-112104523D01*
X111768390Y-112199761D01*
X111673152Y-112247380D01*
X111482676Y-112247380D01*
X111387438Y-112199761D01*
X111292200Y-112104523D01*
X111244580Y-111914047D01*
X111244580Y-111580714D01*
X111292200Y-111390238D01*
X111387438Y-111295000D01*
X111482676Y-111247380D01*
X112863628Y-112247380D02*
X112292200Y-112247380D01*
X112577914Y-112247380D02*
X112577914Y-111247380D01*
X112482676Y-111390238D01*
X112387438Y-111485476D01*
X112292200Y-111533095D01*
X113720771Y-111580714D02*
X113720771Y-112247380D01*
X113482676Y-111199761D02*
X113244580Y-111914047D01*
X113863628Y-111914047D01*
X111530295Y-90915000D02*
X111435057Y-90867380D01*
X111292200Y-90867380D01*
X111149342Y-90915000D01*
X111054104Y-91010238D01*
X111006485Y-91105476D01*
X110958866Y-91295952D01*
X110958866Y-91438809D01*
X111006485Y-91629285D01*
X111054104Y-91724523D01*
X111149342Y-91819761D01*
X111292200Y-91867380D01*
X111387438Y-91867380D01*
X111530295Y-91819761D01*
X111577914Y-91772142D01*
X111577914Y-91438809D01*
X111387438Y-91438809D01*
X112006485Y-91867380D02*
X112006485Y-90867380D01*
X112577914Y-91867380D01*
X112577914Y-90867380D01*
X113054104Y-91867380D02*
X113054104Y-90867380D01*
X113292200Y-90867380D01*
X113435057Y-90915000D01*
X113530295Y-91010238D01*
X113577914Y-91105476D01*
X113625533Y-91295952D01*
X113625533Y-91438809D01*
X113577914Y-91629285D01*
X113530295Y-91724523D01*
X113435057Y-91819761D01*
X113292200Y-91867380D01*
X113054104Y-91867380D01*
X110816009Y-109707380D02*
X110816009Y-108707380D01*
X111482676Y-108707380D02*
X111673152Y-108707380D01*
X111768390Y-108755000D01*
X111863628Y-108850238D01*
X111911247Y-109040714D01*
X111911247Y-109374047D01*
X111863628Y-109564523D01*
X111768390Y-109659761D01*
X111673152Y-109707380D01*
X111482676Y-109707380D01*
X111387438Y-109659761D01*
X111292200Y-109564523D01*
X111244580Y-109374047D01*
X111244580Y-109040714D01*
X111292200Y-108850238D01*
X111387438Y-108755000D01*
X111482676Y-108707380D01*
X112863628Y-109707380D02*
X112292200Y-109707380D01*
X112577914Y-109707380D02*
X112577914Y-108707380D01*
X112482676Y-108850238D01*
X112387438Y-108945476D01*
X112292200Y-108993095D01*
X113768390Y-108707380D02*
X113292200Y-108707380D01*
X113244580Y-109183571D01*
X113292200Y-109135952D01*
X113387438Y-109088333D01*
X113625533Y-109088333D01*
X113720771Y-109135952D01*
X113768390Y-109183571D01*
X113816009Y-109278809D01*
X113816009Y-109516904D01*
X113768390Y-109612142D01*
X113720771Y-109659761D01*
X113625533Y-109707380D01*
X113387438Y-109707380D01*
X113292200Y-109659761D01*
X113244580Y-109612142D01*
X112609723Y-83247380D02*
X112133533Y-83247380D01*
X112085914Y-83723571D01*
X112133533Y-83675952D01*
X112228771Y-83628333D01*
X112466866Y-83628333D01*
X112562104Y-83675952D01*
X112609723Y-83723571D01*
X112657342Y-83818809D01*
X112657342Y-84056904D01*
X112609723Y-84152142D01*
X112562104Y-84199761D01*
X112466866Y-84247380D01*
X112228771Y-84247380D01*
X112133533Y-84199761D01*
X112085914Y-84152142D01*
X112943057Y-83247380D02*
X113276390Y-84247380D01*
X113609723Y-83247380D01*
X110816009Y-104627380D02*
X110816009Y-103627380D01*
X111482676Y-103627380D02*
X111673152Y-103627380D01*
X111768390Y-103675000D01*
X111863628Y-103770238D01*
X111911247Y-103960714D01*
X111911247Y-104294047D01*
X111863628Y-104484523D01*
X111768390Y-104579761D01*
X111673152Y-104627380D01*
X111482676Y-104627380D01*
X111387438Y-104579761D01*
X111292200Y-104484523D01*
X111244580Y-104294047D01*
X111244580Y-103960714D01*
X111292200Y-103770238D01*
X111387438Y-103675000D01*
X111482676Y-103627380D01*
X112244580Y-103627380D02*
X112863628Y-103627380D01*
X112530295Y-104008333D01*
X112673152Y-104008333D01*
X112768390Y-104055952D01*
X112816009Y-104103571D01*
X112863628Y-104198809D01*
X112863628Y-104436904D01*
X112816009Y-104532142D01*
X112768390Y-104579761D01*
X112673152Y-104627380D01*
X112387438Y-104627380D01*
X112292200Y-104579761D01*
X112244580Y-104532142D01*
X113720771Y-103627380D02*
X113530295Y-103627380D01*
X113435057Y-103675000D01*
X113387438Y-103722619D01*
X113292200Y-103865476D01*
X113244580Y-104055952D01*
X113244580Y-104436904D01*
X113292200Y-104532142D01*
X113339819Y-104579761D01*
X113435057Y-104627380D01*
X113625533Y-104627380D01*
X113720771Y-104579761D01*
X113768390Y-104532142D01*
X113816009Y-104436904D01*
X113816009Y-104198809D01*
X113768390Y-104103571D01*
X113720771Y-104055952D01*
X113625533Y-104008333D01*
X113435057Y-104008333D01*
X113339819Y-104055952D01*
X113292200Y-104103571D01*
X113244580Y-104198809D01*
X110816009Y-107167380D02*
X110816009Y-106167380D01*
X111482676Y-106167380D02*
X111673152Y-106167380D01*
X111768390Y-106215000D01*
X111863628Y-106310238D01*
X111911247Y-106500714D01*
X111911247Y-106834047D01*
X111863628Y-107024523D01*
X111768390Y-107119761D01*
X111673152Y-107167380D01*
X111482676Y-107167380D01*
X111387438Y-107119761D01*
X111292200Y-107024523D01*
X111244580Y-106834047D01*
X111244580Y-106500714D01*
X111292200Y-106310238D01*
X111387438Y-106215000D01*
X111482676Y-106167380D01*
X112244580Y-106167380D02*
X112863628Y-106167380D01*
X112530295Y-106548333D01*
X112673152Y-106548333D01*
X112768390Y-106595952D01*
X112816009Y-106643571D01*
X112863628Y-106738809D01*
X112863628Y-106976904D01*
X112816009Y-107072142D01*
X112768390Y-107119761D01*
X112673152Y-107167380D01*
X112387438Y-107167380D01*
X112292200Y-107119761D01*
X112244580Y-107072142D01*
X113768390Y-106167380D02*
X113292200Y-106167380D01*
X113244580Y-106643571D01*
X113292200Y-106595952D01*
X113387438Y-106548333D01*
X113625533Y-106548333D01*
X113720771Y-106595952D01*
X113768390Y-106643571D01*
X113816009Y-106738809D01*
X113816009Y-106976904D01*
X113768390Y-107072142D01*
X113720771Y-107119761D01*
X113625533Y-107167380D01*
X113387438Y-107167380D01*
X113292200Y-107119761D01*
X113244580Y-107072142D01*
X111077914Y-94359761D02*
X111220771Y-94407380D01*
X111458866Y-94407380D01*
X111554104Y-94359761D01*
X111601723Y-94312142D01*
X111649342Y-94216904D01*
X111649342Y-94121666D01*
X111601723Y-94026428D01*
X111554104Y-93978809D01*
X111458866Y-93931190D01*
X111268390Y-93883571D01*
X111173152Y-93835952D01*
X111125533Y-93788333D01*
X111077914Y-93693095D01*
X111077914Y-93597857D01*
X111125533Y-93502619D01*
X111173152Y-93455000D01*
X111268390Y-93407380D01*
X111506485Y-93407380D01*
X111649342Y-93455000D01*
X112077914Y-94407380D02*
X112077914Y-93407380D01*
X112316009Y-93407380D01*
X112458866Y-93455000D01*
X112554104Y-93550238D01*
X112601723Y-93645476D01*
X112649342Y-93835952D01*
X112649342Y-93978809D01*
X112601723Y-94169285D01*
X112554104Y-94264523D01*
X112458866Y-94359761D01*
X112316009Y-94407380D01*
X112077914Y-94407380D01*
X113030295Y-94121666D02*
X113506485Y-94121666D01*
X112935057Y-94407380D02*
X113268390Y-93407380D01*
X113601723Y-94407380D01*
X110816009Y-88327380D02*
X111435057Y-88327380D01*
X111101723Y-88708333D01*
X111244580Y-88708333D01*
X111339819Y-88755952D01*
X111387438Y-88803571D01*
X111435057Y-88898809D01*
X111435057Y-89136904D01*
X111387438Y-89232142D01*
X111339819Y-89279761D01*
X111244580Y-89327380D01*
X110958866Y-89327380D01*
X110863628Y-89279761D01*
X110816009Y-89232142D01*
X111863628Y-89232142D02*
X111911247Y-89279761D01*
X111863628Y-89327380D01*
X111816009Y-89279761D01*
X111863628Y-89232142D01*
X111863628Y-89327380D01*
X112244580Y-88327380D02*
X112863628Y-88327380D01*
X112530295Y-88708333D01*
X112673152Y-88708333D01*
X112768390Y-88755952D01*
X112816009Y-88803571D01*
X112863628Y-88898809D01*
X112863628Y-89136904D01*
X112816009Y-89232142D01*
X112768390Y-89279761D01*
X112673152Y-89327380D01*
X112387438Y-89327380D01*
X112292200Y-89279761D01*
X112244580Y-89232142D01*
X113149342Y-88327380D02*
X113482676Y-89327380D01*
X113816009Y-88327380D01*
X108643866Y-85860000D02*
X108548628Y-85812380D01*
X108405771Y-85812380D01*
X108262914Y-85860000D01*
X108167676Y-85955238D01*
X108120057Y-86050476D01*
X108072438Y-86240952D01*
X108072438Y-86383809D01*
X108120057Y-86574285D01*
X108167676Y-86669523D01*
X108262914Y-86764761D01*
X108405771Y-86812380D01*
X108501009Y-86812380D01*
X108643866Y-86764761D01*
X108691485Y-86717142D01*
X108691485Y-86383809D01*
X108501009Y-86383809D01*
X109120057Y-86812380D02*
X109120057Y-85812380D01*
X109691485Y-86812380D01*
X109691485Y-85812380D01*
X110167676Y-86812380D02*
X110167676Y-85812380D01*
X110405771Y-85812380D01*
X110548628Y-85860000D01*
X110643866Y-85955238D01*
X110691485Y-86050476D01*
X110739104Y-86240952D01*
X110739104Y-86383809D01*
X110691485Y-86574285D01*
X110643866Y-86669523D01*
X110548628Y-86764761D01*
X110405771Y-86812380D01*
X110167676Y-86812380D01*
X111167676Y-86812380D02*
X111167676Y-85812380D01*
X111548628Y-85812380D01*
X111643866Y-85860000D01*
X111691485Y-85907619D01*
X111739104Y-86002857D01*
X111739104Y-86145714D01*
X111691485Y-86240952D01*
X111643866Y-86288571D01*
X111548628Y-86336190D01*
X111167676Y-86336190D01*
X112072438Y-85812380D02*
X112310533Y-86812380D01*
X112501009Y-86098095D01*
X112691485Y-86812380D01*
X112929580Y-85812380D01*
X113881961Y-86812380D02*
X113548628Y-86336190D01*
X113310533Y-86812380D02*
X113310533Y-85812380D01*
X113691485Y-85812380D01*
X113786723Y-85860000D01*
X113834342Y-85907619D01*
X113881961Y-86002857D01*
X113881961Y-86145714D01*
X113834342Y-86240952D01*
X113786723Y-86288571D01*
X113691485Y-86336190D01*
X113310533Y-86336190D01*
X118427523Y-77684380D02*
X117951333Y-77684380D01*
X117903714Y-78160571D01*
X117951333Y-78112952D01*
X118046571Y-78065333D01*
X118284666Y-78065333D01*
X118379904Y-78112952D01*
X118427523Y-78160571D01*
X118475142Y-78255809D01*
X118475142Y-78493904D01*
X118427523Y-78589142D01*
X118379904Y-78636761D01*
X118284666Y-78684380D01*
X118046571Y-78684380D01*
X117951333Y-78636761D01*
X117903714Y-78589142D01*
X118760857Y-77684380D02*
X119094190Y-78684380D01*
X119427523Y-77684380D01*
X91387142Y-52762382D02*
X91196666Y-52762382D01*
X91101428Y-52810002D01*
X91053809Y-52857621D01*
X90958571Y-53000478D01*
X90910952Y-53190954D01*
X90910952Y-53571906D01*
X90958571Y-53667144D01*
X91006190Y-53714763D01*
X91101428Y-53762382D01*
X91291904Y-53762382D01*
X91387142Y-53714763D01*
X91434761Y-53667144D01*
X91482380Y-53571906D01*
X91482380Y-53333811D01*
X91434761Y-53238573D01*
X91387142Y-53190954D01*
X91291904Y-53143335D01*
X91101428Y-53143335D01*
X91006190Y-53190954D01*
X90958571Y-53238573D01*
X90910952Y-53333811D01*
X92339523Y-53095716D02*
X92339523Y-53762382D01*
X92101428Y-52714763D02*
X91863333Y-53429049D01*
X92482380Y-53429049D01*
X92910952Y-53714763D02*
X92910952Y-53762382D01*
X92863333Y-53857621D01*
X92815714Y-53905240D01*
X93530000Y-52762382D02*
X93625238Y-52762382D01*
X93720476Y-52810002D01*
X93768095Y-52857621D01*
X93815714Y-52952859D01*
X93863333Y-53143335D01*
X93863333Y-53381430D01*
X93815714Y-53571906D01*
X93768095Y-53667144D01*
X93720476Y-53714763D01*
X93625238Y-53762382D01*
X93530000Y-53762382D01*
X93434761Y-53714763D01*
X93387142Y-53667144D01*
X93339523Y-53571906D01*
X93291904Y-53381430D01*
X93291904Y-53143335D01*
X93339523Y-52952859D01*
X93387142Y-52857621D01*
X93434761Y-52810002D01*
X93530000Y-52762382D01*
X94482380Y-52762382D02*
X94577619Y-52762382D01*
X94672857Y-52810002D01*
X94720476Y-52857621D01*
X94768095Y-52952859D01*
X94815714Y-53143335D01*
X94815714Y-53381430D01*
X94768095Y-53571906D01*
X94720476Y-53667144D01*
X94672857Y-53714763D01*
X94577619Y-53762382D01*
X94482380Y-53762382D01*
X94387142Y-53714763D01*
X94339523Y-53667144D01*
X94291904Y-53571906D01*
X94244285Y-53381430D01*
X94244285Y-53143335D01*
X94291904Y-52952859D01*
X94339523Y-52857621D01*
X94387142Y-52810002D01*
X94482380Y-52762382D01*
X95434761Y-52762382D02*
X95530000Y-52762382D01*
X95625238Y-52810002D01*
X95672857Y-52857621D01*
X95720476Y-52952859D01*
X95768095Y-53143335D01*
X95768095Y-53381430D01*
X95720476Y-53571906D01*
X95672857Y-53667144D01*
X95625238Y-53714763D01*
X95530000Y-53762382D01*
X95434761Y-53762382D01*
X95339523Y-53714763D01*
X95291904Y-53667144D01*
X95244285Y-53571906D01*
X95196666Y-53381430D01*
X95196666Y-53143335D01*
X95244285Y-52952859D01*
X95291904Y-52857621D01*
X95339523Y-52810002D01*
X95434761Y-52762382D01*
X96387142Y-52762382D02*
X96482380Y-52762382D01*
X96577619Y-52810002D01*
X96625238Y-52857621D01*
X96672857Y-52952859D01*
X96720476Y-53143335D01*
X96720476Y-53381430D01*
X96672857Y-53571906D01*
X96625238Y-53667144D01*
X96577619Y-53714763D01*
X96482380Y-53762382D01*
X96387142Y-53762382D01*
X96291904Y-53714763D01*
X96244285Y-53667144D01*
X96196666Y-53571906D01*
X96149047Y-53381430D01*
X96149047Y-53143335D01*
X96196666Y-52952859D01*
X96244285Y-52857621D01*
X96291904Y-52810002D01*
X96387142Y-52762382D01*
X97910952Y-53762382D02*
X97910952Y-53095716D01*
X97910952Y-53190954D02*
X97958571Y-53143335D01*
X98053809Y-53095716D01*
X98196666Y-53095716D01*
X98291904Y-53143335D01*
X98339523Y-53238573D01*
X98339523Y-53762382D01*
X98339523Y-53238573D02*
X98387142Y-53143335D01*
X98482380Y-53095716D01*
X98625238Y-53095716D01*
X98720476Y-53143335D01*
X98768095Y-53238573D01*
X98768095Y-53762382D01*
X99244285Y-53762382D02*
X99244285Y-53095716D01*
X99244285Y-53190954D02*
X99291904Y-53143335D01*
X99387142Y-53095716D01*
X99530000Y-53095716D01*
X99625238Y-53143335D01*
X99672857Y-53238573D01*
X99672857Y-53762382D01*
X99672857Y-53238573D02*
X99720476Y-53143335D01*
X99815714Y-53095716D01*
X99958571Y-53095716D01*
X100053809Y-53143335D01*
X100101428Y-53238573D01*
X100101428Y-53762382D01*
D12*
X63530000Y-54210000D02*
X63530000Y-55046422D01*
X127530000Y-54210000D02*
X127530000Y-55046422D01*
X63530000Y-54460002D02*
X90145476Y-54460002D01*
X100914524Y-54460002D02*
X127530000Y-54460002D01*
X63530000Y-54460002D02*
X64656504Y-55046423D01*
X63530000Y-54460002D02*
X64656504Y-53873581D01*
X127530000Y-54460002D02*
X126403496Y-53873581D01*
X127530000Y-54460002D02*
X126403496Y-55046423D01*
D11*
X70866095Y-73620380D02*
X70866095Y-74429904D01*
X70913714Y-74525142D01*
X70961333Y-74572761D01*
X71056571Y-74620380D01*
X71247047Y-74620380D01*
X71342285Y-74572761D01*
X71389904Y-74525142D01*
X71437523Y-74429904D01*
X71437523Y-73620380D01*
X71818476Y-73620380D02*
X72437523Y-73620380D01*
X72104190Y-74001333D01*
X72247047Y-74001333D01*
X72342285Y-74048952D01*
X72389904Y-74096571D01*
X72437523Y-74191809D01*
X72437523Y-74429904D01*
X72389904Y-74525142D01*
X72342285Y-74572761D01*
X72247047Y-74620380D01*
X71961333Y-74620380D01*
X71866095Y-74572761D01*
X71818476Y-74525142D01*
X120529866Y-93432380D02*
X120529866Y-94146666D01*
X120482247Y-94289523D01*
X120387009Y-94384761D01*
X120244152Y-94432380D01*
X120148914Y-94432380D01*
X120910819Y-93432380D02*
X121529866Y-93432380D01*
X121196533Y-93813333D01*
X121339390Y-93813333D01*
X121434628Y-93860952D01*
X121482247Y-93908571D01*
X121529866Y-94003809D01*
X121529866Y-94241904D01*
X121482247Y-94337142D01*
X121434628Y-94384761D01*
X121339390Y-94432380D01*
X121053676Y-94432380D01*
X120958438Y-94384761D01*
X120910819Y-94337142D01*
X101520666Y-121880380D02*
X101520666Y-122594666D01*
X101473047Y-122737523D01*
X101377809Y-122832761D01*
X101234952Y-122880380D01*
X101139714Y-122880380D01*
X101949238Y-121975619D02*
X101996857Y-121928000D01*
X102092095Y-121880380D01*
X102330190Y-121880380D01*
X102425428Y-121928000D01*
X102473047Y-121975619D01*
X102520666Y-122070857D01*
X102520666Y-122166095D01*
X102473047Y-122308952D01*
X101901619Y-122880380D01*
X102520666Y-122880380D01*
X83172380Y-98718666D02*
X82696190Y-99052000D01*
X83172380Y-99290095D02*
X82172380Y-99290095D01*
X82172380Y-98909142D01*
X82220000Y-98813904D01*
X82267619Y-98766285D01*
X82362857Y-98718666D01*
X82505714Y-98718666D01*
X82600952Y-98766285D01*
X82648571Y-98813904D01*
X82696190Y-98909142D01*
X82696190Y-99290095D01*
X82172380Y-97813904D02*
X82172380Y-98290095D01*
X82648571Y-98337714D01*
X82600952Y-98290095D01*
X82553333Y-98194857D01*
X82553333Y-97956761D01*
X82600952Y-97861523D01*
X82648571Y-97813904D01*
X82743809Y-97766285D01*
X82981904Y-97766285D01*
X83077142Y-97813904D01*
X83124761Y-97861523D01*
X83172380Y-97956761D01*
X83172380Y-98194857D01*
X83124761Y-98290095D01*
X83077142Y-98337714D01*
X84502666Y-59142380D02*
X84502666Y-59856666D01*
X84455047Y-59999523D01*
X84359809Y-60094761D01*
X84216952Y-60142380D01*
X84121714Y-60142380D01*
X85502666Y-60142380D02*
X84931238Y-60142380D01*
X85216952Y-60142380D02*
X85216952Y-59142380D01*
X85121714Y-59285238D01*
X85026476Y-59380476D01*
X84931238Y-59428095D01*
X75552380Y-77128666D02*
X75076190Y-77462000D01*
X75552380Y-77700095D02*
X74552380Y-77700095D01*
X74552380Y-77319142D01*
X74600000Y-77223904D01*
X74647619Y-77176285D01*
X74742857Y-77128666D01*
X74885714Y-77128666D01*
X74980952Y-77176285D01*
X75028571Y-77223904D01*
X75076190Y-77319142D01*
X75076190Y-77700095D01*
X75552380Y-76176285D02*
X75552380Y-76747714D01*
X75552380Y-76462000D02*
X74552380Y-76462000D01*
X74695238Y-76557238D01*
X74790476Y-76652476D01*
X74838095Y-76747714D01*
X86982380Y-98718666D02*
X86506190Y-99052000D01*
X86982380Y-99290095D02*
X85982380Y-99290095D01*
X85982380Y-98909142D01*
X86030000Y-98813904D01*
X86077619Y-98766285D01*
X86172857Y-98718666D01*
X86315714Y-98718666D01*
X86410952Y-98766285D01*
X86458571Y-98813904D01*
X86506190Y-98909142D01*
X86506190Y-99290095D01*
X86315714Y-97861523D02*
X86982380Y-97861523D01*
X85934761Y-98099619D02*
X86649047Y-98337714D01*
X86649047Y-97718666D01*
X78905380Y-77713904D02*
X79714904Y-77713904D01*
X79810142Y-77666285D01*
X79857761Y-77618666D01*
X79905380Y-77523428D01*
X79905380Y-77332952D01*
X79857761Y-77237714D01*
X79810142Y-77190095D01*
X79714904Y-77142476D01*
X78905380Y-77142476D01*
X79000619Y-76713904D02*
X78953000Y-76666285D01*
X78905380Y-76571047D01*
X78905380Y-76332952D01*
X78953000Y-76237714D01*
X79000619Y-76190095D01*
X79095857Y-76142476D01*
X79191095Y-76142476D01*
X79333952Y-76190095D01*
X79905380Y-76761523D01*
X79905380Y-76142476D01*
X86728380Y-77128666D02*
X86252190Y-77462000D01*
X86728380Y-77700095D02*
X85728380Y-77700095D01*
X85728380Y-77319142D01*
X85776000Y-77223904D01*
X85823619Y-77176285D01*
X85918857Y-77128666D01*
X86061714Y-77128666D01*
X86156952Y-77176285D01*
X86204571Y-77223904D01*
X86252190Y-77319142D01*
X86252190Y-77700095D01*
X85728380Y-76795333D02*
X85728380Y-76176285D01*
X86109333Y-76509619D01*
X86109333Y-76366761D01*
X86156952Y-76271523D01*
X86204571Y-76223904D01*
X86299809Y-76176285D01*
X86537904Y-76176285D01*
X86633142Y-76223904D01*
X86680761Y-76271523D01*
X86728380Y-76366761D01*
X86728380Y-76652476D01*
X86680761Y-76747714D01*
X86633142Y-76795333D01*
X82891333Y-87912380D02*
X82558000Y-87436190D01*
X82319904Y-87912380D02*
X82319904Y-86912380D01*
X82700857Y-86912380D01*
X82796095Y-86960000D01*
X82843714Y-87007619D01*
X82891333Y-87102857D01*
X82891333Y-87245714D01*
X82843714Y-87340952D01*
X82796095Y-87388571D01*
X82700857Y-87436190D01*
X82319904Y-87436190D01*
X83272285Y-87007619D02*
X83319904Y-86960000D01*
X83415142Y-86912380D01*
X83653238Y-86912380D01*
X83748476Y-86960000D01*
X83796095Y-87007619D01*
X83843714Y-87102857D01*
X83843714Y-87198095D01*
X83796095Y-87340952D01*
X83224666Y-87912380D01*
X83843714Y-87912380D01*
X121181904Y-76692380D02*
X121181904Y-75692380D01*
X121420000Y-75692380D01*
X121562857Y-75740000D01*
X121658095Y-75835238D01*
X121705714Y-75930476D01*
X121753333Y-76120952D01*
X121753333Y-76263809D01*
X121705714Y-76454285D01*
X121658095Y-76549523D01*
X121562857Y-76644761D01*
X121420000Y-76692380D01*
X121181904Y-76692380D01*
X122610476Y-76025714D02*
X122610476Y-76692380D01*
X122372380Y-75644761D02*
X122134285Y-76359047D01*
X122753333Y-76359047D01*
X118832380Y-62991904D02*
X119641904Y-62991904D01*
X119737142Y-62944285D01*
X119784761Y-62896666D01*
X119832380Y-62801428D01*
X119832380Y-62610952D01*
X119784761Y-62515714D01*
X119737142Y-62468095D01*
X119641904Y-62420476D01*
X118832380Y-62420476D01*
X119832380Y-61420476D02*
X119832380Y-61991904D01*
X119832380Y-61706190D02*
X118832380Y-61706190D01*
X118975238Y-61801428D01*
X119070476Y-61896666D01*
X119118095Y-61991904D01*
X117292380Y-64642857D02*
X116292380Y-64642857D01*
X117292380Y-64166666D02*
X116292380Y-64166666D01*
X117292380Y-63595238D01*
X116292380Y-63595238D01*
X116911428Y-63119047D02*
X116911428Y-62357142D01*
X117292380Y-62738095D02*
X116530476Y-62738095D01*
X98512380Y-97504047D02*
X98512380Y-97313571D01*
X98560000Y-97218333D01*
X98655238Y-97123095D01*
X98845714Y-97075476D01*
X99179047Y-97075476D01*
X99369523Y-97123095D01*
X99464761Y-97218333D01*
X99512380Y-97313571D01*
X99512380Y-97504047D01*
X99464761Y-97599285D01*
X99369523Y-97694523D01*
X99179047Y-97742142D01*
X98845714Y-97742142D01*
X98655238Y-97694523D01*
X98560000Y-97599285D01*
X98512380Y-97504047D01*
X98512380Y-96646904D02*
X99321904Y-96646904D01*
X99417142Y-96599285D01*
X99464761Y-96551666D01*
X99512380Y-96456428D01*
X99512380Y-96265952D01*
X99464761Y-96170714D01*
X99417142Y-96123095D01*
X99321904Y-96075476D01*
X98512380Y-96075476D01*
X98512380Y-95742142D02*
X98512380Y-95170714D01*
X99512380Y-95456428D02*
X98512380Y-95456428D01*
X99131428Y-94837380D02*
X99131428Y-94075476D01*
X116292380Y-97504047D02*
X116292380Y-97313571D01*
X116340000Y-97218333D01*
X116435238Y-97123095D01*
X116625714Y-97075476D01*
X116959047Y-97075476D01*
X117149523Y-97123095D01*
X117244761Y-97218333D01*
X117292380Y-97313571D01*
X117292380Y-97504047D01*
X117244761Y-97599285D01*
X117149523Y-97694523D01*
X116959047Y-97742142D01*
X116625714Y-97742142D01*
X116435238Y-97694523D01*
X116340000Y-97599285D01*
X116292380Y-97504047D01*
X116292380Y-96646904D02*
X117101904Y-96646904D01*
X117197142Y-96599285D01*
X117244761Y-96551666D01*
X117292380Y-96456428D01*
X117292380Y-96265952D01*
X117244761Y-96170714D01*
X117197142Y-96123095D01*
X117101904Y-96075476D01*
X116292380Y-96075476D01*
X116292380Y-95742142D02*
X116292380Y-95170714D01*
X117292380Y-95456428D02*
X116292380Y-95456428D01*
X116911428Y-94837380D02*
X116911428Y-94075476D01*
X117292380Y-94456428D02*
X116530476Y-94456428D01*
X99512380Y-64642857D02*
X98512380Y-64642857D01*
X99512380Y-64166666D02*
X98512380Y-64166666D01*
X99512380Y-63595238D01*
X98512380Y-63595238D01*
X99131428Y-63119047D02*
X99131428Y-62357142D01*
X102034880Y-69328095D02*
X101034880Y-69328095D01*
X101034880Y-69090000D01*
X101082500Y-68947142D01*
X101177738Y-68851904D01*
X101272976Y-68804285D01*
X101463452Y-68756666D01*
X101606309Y-68756666D01*
X101796785Y-68804285D01*
X101892023Y-68851904D01*
X101987261Y-68947142D01*
X102034880Y-69090000D01*
X102034880Y-69328095D01*
X102034880Y-67804285D02*
X102034880Y-68375714D01*
X102034880Y-68090000D02*
X101034880Y-68090000D01*
X101177738Y-68185238D01*
X101272976Y-68280476D01*
X101320595Y-68375714D01*
X100183333Y-112057142D02*
X100135714Y-112104761D01*
X99992857Y-112152380D01*
X99897619Y-112152380D01*
X99754761Y-112104761D01*
X99659523Y-112009523D01*
X99611904Y-111914285D01*
X99564285Y-111723809D01*
X99564285Y-111580952D01*
X99611904Y-111390476D01*
X99659523Y-111295238D01*
X99754761Y-111200000D01*
X99897619Y-111152380D01*
X99992857Y-111152380D01*
X100135714Y-111200000D01*
X100183333Y-111247619D01*
X101040476Y-111485714D02*
X101040476Y-112152380D01*
X100802380Y-111104761D02*
X100564285Y-111819047D01*
X101183333Y-111819047D01*
X120529866Y-113752380D02*
X120529866Y-114466666D01*
X120482247Y-114609523D01*
X120387009Y-114704761D01*
X120244152Y-114752380D01*
X120148914Y-114752380D01*
X121434628Y-114085714D02*
X121434628Y-114752380D01*
X121196533Y-113704761D02*
X120958438Y-114419047D01*
X121577485Y-114419047D01*
X112101333Y-77668380D02*
X111768000Y-77192190D01*
X111529904Y-77668380D02*
X111529904Y-76668380D01*
X111910857Y-76668380D01*
X112006095Y-76716000D01*
X112053714Y-76763619D01*
X112101333Y-76858857D01*
X112101333Y-77001714D01*
X112053714Y-77096952D01*
X112006095Y-77144571D01*
X111910857Y-77192190D01*
X111529904Y-77192190D01*
X112434666Y-76668380D02*
X113101333Y-76668380D01*
X112672761Y-77668380D01*
X106747142Y-80136666D02*
X106794761Y-80184285D01*
X106842380Y-80327142D01*
X106842380Y-80422380D01*
X106794761Y-80565238D01*
X106699523Y-80660476D01*
X106604285Y-80708095D01*
X106413809Y-80755714D01*
X106270952Y-80755714D01*
X106080476Y-80708095D01*
X105985238Y-80660476D01*
X105890000Y-80565238D01*
X105842380Y-80422380D01*
X105842380Y-80327142D01*
X105890000Y-80184285D01*
X105937619Y-80136666D01*
X105842380Y-79803333D02*
X105842380Y-79184285D01*
X106223333Y-79517619D01*
X106223333Y-79374761D01*
X106270952Y-79279523D01*
X106318571Y-79231904D01*
X106413809Y-79184285D01*
X106651904Y-79184285D01*
X106747142Y-79231904D01*
X106794761Y-79279523D01*
X106842380Y-79374761D01*
X106842380Y-79660476D01*
X106794761Y-79755714D01*
X106747142Y-79803333D01*
X119317380Y-70611904D02*
X120126904Y-70611904D01*
X120222142Y-70564285D01*
X120269761Y-70516666D01*
X120317380Y-70421428D01*
X120317380Y-70230952D01*
X120269761Y-70135714D01*
X120222142Y-70088095D01*
X120126904Y-70040476D01*
X119317380Y-70040476D01*
X119650714Y-69135714D02*
X120317380Y-69135714D01*
X119269761Y-69373809D02*
X119984047Y-69611904D01*
X119984047Y-68992857D01*
D12*
X94234000Y-68580000D02*
X71374000Y-68580000D01*
X71374000Y-123825000D02*
X94234000Y-123825000D01*
X70104000Y-69850000D02*
X70104000Y-122555000D01*
X91059000Y-128905000D02*
X74549000Y-128905000D01*
X74549000Y-107950000D02*
X91059000Y-107950000D01*
X74549000Y-128905000D02*
X74549000Y-107950000D01*
X91059000Y-107950000D02*
X91059000Y-128905000D01*
X95504000Y-122555000D02*
X95504000Y-69850000D01*
X95504000Y-122555000D02*
G75*
G02*
X94234000Y-123825000I-1270000J0D01*
G01*
X70104000Y-69850000D02*
G75*
G02*
X71374000Y-68580000I1270000J0D01*
G01*
X94234000Y-68580000D02*
G75*
G02*
X95504000Y-69850000I0J-1270000D01*
G01*
X71374000Y-123825000D02*
G75*
G02*
X70104000Y-122555000I0J1270000D01*
G01*
X126573200Y-96169765D02*
X117943200Y-96169765D01*
X117943200Y-96135000D02*
X117593200Y-96135000D01*
X126573200Y-95343100D02*
X117943200Y-95343100D01*
X126573200Y-97232620D02*
X117943200Y-97232620D01*
X126573200Y-95579290D02*
X117943200Y-95579290D01*
X126573200Y-97468810D02*
X117943200Y-97468810D01*
X126573200Y-95815480D02*
X117943200Y-95815480D01*
X117943200Y-83435000D02*
X117533200Y-83435000D01*
X126573200Y-97350715D02*
X117943200Y-97350715D01*
X126573200Y-96287860D02*
X117943200Y-96287860D01*
X126573200Y-95461195D02*
X117943200Y-95461195D01*
X126573200Y-92685000D02*
X117943200Y-92685000D01*
X126573200Y-97705000D02*
X117943200Y-97705000D01*
X117943200Y-88515000D02*
X117533200Y-88515000D01*
X117943200Y-85975000D02*
X117533200Y-85975000D01*
X126573200Y-96051670D02*
X117943200Y-96051670D01*
X126573200Y-97825000D02*
X117943200Y-97825000D01*
X126573200Y-82465000D02*
X117943200Y-82465000D01*
X117943200Y-97825000D02*
X117943200Y-82465000D01*
X117943200Y-96855000D02*
X117593200Y-96855000D01*
X117943200Y-89235000D02*
X117533200Y-89235000D01*
X126573200Y-85065000D02*
X117943200Y-85065000D01*
X126573200Y-95933575D02*
X117943200Y-95933575D01*
X117943200Y-91055000D02*
X117533200Y-91055000D01*
X126573200Y-96405955D02*
X117943200Y-96405955D01*
X126573200Y-96878335D02*
X117943200Y-96878335D01*
X126573200Y-96760240D02*
X117943200Y-96760240D01*
X126573200Y-97114525D02*
X117943200Y-97114525D01*
X126573200Y-97586905D02*
X117943200Y-97586905D01*
X126573200Y-96996430D02*
X117943200Y-96996430D01*
X117943200Y-93595000D02*
X117533200Y-93595000D01*
X117943200Y-91775000D02*
X117533200Y-91775000D01*
X126573200Y-95225000D02*
X117943200Y-95225000D01*
X115373200Y-97825000D02*
X115373200Y-96495000D01*
X126573200Y-97825000D02*
X126573200Y-82465000D01*
X116483200Y-97825000D02*
X115373200Y-97825000D01*
X126573200Y-95697385D02*
X117943200Y-95697385D01*
X117943200Y-84155000D02*
X117533200Y-84155000D01*
X126573200Y-96642145D02*
X117943200Y-96642145D01*
X117943200Y-94315000D02*
X117533200Y-94315000D01*
X126573200Y-87605000D02*
X117943200Y-87605000D01*
X126573200Y-90145000D02*
X117943200Y-90145000D01*
X126573200Y-96524050D02*
X117943200Y-96524050D01*
X117943200Y-86695000D02*
X117533200Y-86695000D01*
X112014000Y-116078000D02*
X112014000Y-123698000D01*
X112014000Y-117348000D02*
X96774000Y-117348000D01*
X96774000Y-116078000D02*
X96774000Y-123698000D01*
X112014000Y-123698000D02*
X96774000Y-123698000D01*
X112014000Y-116078000D02*
X96774000Y-116078000D01*
X86460000Y-95282000D02*
X86130000Y-95282000D01*
X86460000Y-101822000D02*
X86460000Y-95282000D01*
X86130000Y-101822000D02*
X86460000Y-101822000D01*
X84050000Y-101822000D02*
X83720000Y-101822000D01*
X83720000Y-101822000D02*
X83720000Y-95282000D01*
X83720000Y-95282000D02*
X84050000Y-95282000D01*
X94996000Y-65024000D02*
X74676000Y-65024000D01*
X94996000Y-66294000D02*
X94996000Y-58674000D01*
X74676000Y-58674000D02*
X94996000Y-58674000D01*
X74676000Y-58674000D02*
X74676000Y-66294000D01*
X74676000Y-66294000D02*
X94996000Y-66294000D01*
X78840000Y-73692000D02*
X78510000Y-73692000D01*
X78840000Y-80232000D02*
X78840000Y-73692000D01*
X78510000Y-80232000D02*
X78840000Y-80232000D01*
X76430000Y-80232000D02*
X76100000Y-80232000D01*
X76100000Y-80232000D02*
X76100000Y-73692000D01*
X76100000Y-73692000D02*
X76430000Y-73692000D01*
X87530000Y-95282000D02*
X87860000Y-95282000D01*
X87530000Y-101822000D02*
X87530000Y-95282000D01*
X87860000Y-101822000D02*
X87530000Y-101822000D01*
X90270000Y-95282000D02*
X89940000Y-95282000D01*
X90270000Y-101822000D02*
X90270000Y-95282000D01*
X89940000Y-101822000D02*
X90270000Y-101822000D01*
X85653000Y-74302000D02*
X80453000Y-74302000D01*
X80453000Y-77952000D02*
X80453000Y-79602000D01*
X85653000Y-79602000D02*
X85653000Y-74302000D01*
X80453000Y-74302000D02*
X80453000Y-75952000D01*
X80453000Y-79602000D02*
X85653000Y-79602000D01*
X80453000Y-75952000D02*
G75*
G02*
X80453000Y-77952000I0J-1000000D01*
G01*
X90016000Y-80232000D02*
X90016000Y-73692000D01*
X87276000Y-80232000D02*
X87276000Y-73692000D01*
X89686000Y-80232000D02*
X90016000Y-80232000D01*
X90016000Y-73692000D02*
X89686000Y-73692000D01*
X87606000Y-80232000D02*
X87276000Y-80232000D01*
X87276000Y-73692000D02*
X87606000Y-73692000D01*
X79788000Y-83720000D02*
X79788000Y-84050000D01*
X86328000Y-84050000D02*
X86328000Y-83720000D01*
X86328000Y-86130000D02*
X86328000Y-86460000D01*
X79788000Y-86460000D02*
X79788000Y-86130000D01*
X86328000Y-83720000D02*
X79788000Y-83720000D01*
X86328000Y-86460000D02*
X79788000Y-86460000D01*
X119360000Y-77195000D02*
X119360000Y-80285000D01*
X124910000Y-78740462D02*
G75*
G03*
X119360000Y-77195170I-2990000J462D01*
G01*
X124910000Y-78739538D02*
G75*
G02*
X119360000Y-80284830I-2990000J-462D01*
G01*
X124420000Y-78740000D02*
G75*
G03*
X124420000Y-78740000I-2500000J0D01*
G01*
X113030000Y-91440000D02*
X116840000Y-91440000D01*
X111760000Y-91440000D02*
X99060000Y-91440000D01*
X111760000Y-80010000D02*
X111760000Y-91440000D01*
X105410000Y-68580000D02*
X116840000Y-68580000D01*
X116840000Y-78740000D02*
X105410000Y-78740000D01*
X99060000Y-91440000D02*
X99060000Y-80010000D01*
X116840000Y-68580000D02*
X116840000Y-78740000D01*
X99060000Y-80010000D02*
X111760000Y-80010000D01*
X97790000Y-101727000D02*
X97790000Y-58420000D01*
X118110000Y-58420000D02*
X118110000Y-101727000D01*
X116840000Y-82550000D02*
X113030000Y-82550000D01*
X118110000Y-101727000D02*
X97790000Y-101727000D01*
X116840000Y-91440000D02*
X116840000Y-82550000D01*
X97790000Y-58420000D02*
X118110000Y-58420000D01*
X105410000Y-78740000D02*
X105410000Y-68580000D01*
X113030000Y-82550000D02*
X113030000Y-91440000D01*
X116332000Y-83820000D02*
G75*
G03*
X116332000Y-83820000I-762000J0D01*
G01*
X102382500Y-71350000D02*
X110982500Y-71350000D01*
X110982500Y-65810000D02*
X102382500Y-65810000D01*
X102382500Y-65810000D02*
X102382500Y-67580000D01*
X102382500Y-69580000D02*
X102382500Y-71350000D01*
X110982500Y-71350000D02*
X110982500Y-65810000D01*
X102382500Y-67580000D02*
G75*
G02*
X102382500Y-69580000I0J-1000000D01*
G01*
X99469000Y-110378000D02*
X99469000Y-108990000D01*
X100270000Y-110529000D02*
X100270000Y-105371000D01*
X98669000Y-109921000D02*
X98669000Y-108990000D01*
X98789000Y-106910000D02*
X98789000Y-105885000D01*
X98829000Y-106910000D02*
X98829000Y-105855000D01*
X99670000Y-110441000D02*
X99670000Y-108990000D01*
X98389000Y-106910000D02*
X98389000Y-106251000D01*
X98589000Y-106910000D02*
X98589000Y-106049000D01*
X98749000Y-106910000D02*
X98749000Y-105915000D01*
X99149000Y-106910000D02*
X99149000Y-105660000D01*
X98869000Y-106910000D02*
X98869000Y-105828000D01*
X99149000Y-110240000D02*
X99149000Y-108990000D01*
X98669000Y-106910000D02*
X98669000Y-105979000D01*
X99750000Y-106910000D02*
X99750000Y-105439000D01*
X99509000Y-110392000D02*
X99509000Y-108990000D01*
X100110000Y-106910000D02*
X100110000Y-105381000D01*
X98309000Y-106910000D02*
X98309000Y-106345000D01*
X99229000Y-106910000D02*
X99229000Y-105621000D01*
X99309000Y-106910000D02*
X99309000Y-105585000D01*
X98789000Y-110015000D02*
X98789000Y-108990000D01*
X98109000Y-109269000D02*
X98109000Y-108990000D01*
X99629000Y-110430000D02*
X99629000Y-108990000D01*
X97949000Y-108961000D02*
X97949000Y-106939000D01*
X99069000Y-110197000D02*
X99069000Y-108990000D01*
X98709000Y-109954000D02*
X98709000Y-108990000D01*
X99109000Y-110218000D02*
X99109000Y-108990000D01*
X98709000Y-106910000D02*
X98709000Y-105946000D01*
X99830000Y-110478000D02*
X99830000Y-108990000D01*
X99830000Y-106910000D02*
X99830000Y-105422000D01*
X99029000Y-106910000D02*
X99029000Y-105726000D01*
X99389000Y-106910000D02*
X99389000Y-105552000D01*
X99790000Y-106910000D02*
X99790000Y-105430000D01*
X99429000Y-106910000D02*
X99429000Y-105536000D01*
X98029000Y-109128000D02*
X98029000Y-106772000D01*
X98229000Y-109450000D02*
X98229000Y-108990000D01*
X99189000Y-110260000D02*
X99189000Y-108990000D01*
X99710000Y-106910000D02*
X99710000Y-105449000D01*
X100230000Y-110528000D02*
X100230000Y-105372000D01*
X99549000Y-106910000D02*
X99549000Y-105495000D01*
X99870000Y-106910000D02*
X99870000Y-105414000D01*
X99950000Y-110500000D02*
X99950000Y-108990000D01*
X99269000Y-106910000D02*
X99269000Y-105602000D01*
X98989000Y-106910000D02*
X98989000Y-105750000D01*
X99910000Y-110493000D02*
X99910000Y-108990000D01*
X98149000Y-106910000D02*
X98149000Y-106567000D01*
X98629000Y-109887000D02*
X98629000Y-108990000D01*
X99589000Y-106910000D02*
X99589000Y-105482000D01*
X99910000Y-106910000D02*
X99910000Y-105407000D01*
X99950000Y-106910000D02*
X99950000Y-105400000D01*
X97869000Y-108755000D02*
X97869000Y-107145000D01*
X98429000Y-106910000D02*
X98429000Y-106207000D01*
X98989000Y-110150000D02*
X98989000Y-108990000D01*
X98909000Y-110099000D02*
X98909000Y-108990000D01*
X98109000Y-106910000D02*
X98109000Y-106631000D01*
X98389000Y-109649000D02*
X98389000Y-108990000D01*
X99629000Y-106910000D02*
X99629000Y-105470000D01*
X100190000Y-110526000D02*
X100190000Y-105374000D01*
X100030000Y-110511000D02*
X100030000Y-108990000D01*
X98549000Y-106910000D02*
X98549000Y-106086000D01*
X100070000Y-106910000D02*
X100070000Y-105385000D01*
X98149000Y-109333000D02*
X98149000Y-108990000D01*
X99509000Y-106910000D02*
X99509000Y-105508000D01*
X99589000Y-110418000D02*
X99589000Y-108990000D01*
X98829000Y-110045000D02*
X98829000Y-108990000D01*
X97829000Y-108627000D02*
X97829000Y-107273000D01*
X98469000Y-109735000D02*
X98469000Y-108990000D01*
X98469000Y-106910000D02*
X98469000Y-106165000D01*
X99069000Y-106910000D02*
X99069000Y-105703000D01*
X97909000Y-108865000D02*
X97909000Y-107035000D01*
X98909000Y-106910000D02*
X98909000Y-105801000D01*
X99710000Y-110451000D02*
X99710000Y-108990000D01*
X99469000Y-106910000D02*
X99469000Y-105522000D01*
X98269000Y-109504000D02*
X98269000Y-108990000D01*
X100070000Y-110515000D02*
X100070000Y-108990000D01*
X99389000Y-110348000D02*
X99389000Y-108990000D01*
X98589000Y-109851000D02*
X98589000Y-108990000D01*
X99349000Y-106910000D02*
X99349000Y-105568000D01*
X98189000Y-106910000D02*
X98189000Y-106507000D01*
X99229000Y-110279000D02*
X99229000Y-108990000D01*
X98349000Y-106910000D02*
X98349000Y-106297000D01*
X98069000Y-109201000D02*
X98069000Y-108990000D01*
X103154775Y-109425000D02*
X102654775Y-109425000D01*
X99349000Y-110332000D02*
X99349000Y-108990000D01*
X98629000Y-106910000D02*
X98629000Y-106013000D01*
X99990000Y-106910000D02*
X99990000Y-105394000D01*
X98349000Y-109603000D02*
X98349000Y-108990000D01*
X98949000Y-110125000D02*
X98949000Y-108990000D01*
X98069000Y-106910000D02*
X98069000Y-106699000D01*
X100030000Y-106910000D02*
X100030000Y-105389000D01*
X98309000Y-109555000D02*
X98309000Y-108990000D01*
X99790000Y-110470000D02*
X99790000Y-108990000D01*
X98549000Y-109814000D02*
X98549000Y-108990000D01*
X99189000Y-106910000D02*
X99189000Y-105640000D01*
X99549000Y-110405000D02*
X99549000Y-108990000D01*
X100350000Y-110530000D02*
X100350000Y-105370000D01*
X98269000Y-106910000D02*
X98269000Y-106396000D01*
X99309000Y-110315000D02*
X99309000Y-108990000D01*
X100110000Y-110519000D02*
X100110000Y-108990000D01*
X99750000Y-110461000D02*
X99750000Y-108990000D01*
X98429000Y-109693000D02*
X98429000Y-108990000D01*
X100310000Y-110530000D02*
X100310000Y-105370000D01*
X99870000Y-110486000D02*
X99870000Y-108990000D01*
X98189000Y-109393000D02*
X98189000Y-108990000D01*
X102904775Y-109675000D02*
X102904775Y-109175000D01*
X99990000Y-110506000D02*
X99990000Y-108990000D01*
X98229000Y-106910000D02*
X98229000Y-106450000D01*
X99670000Y-106910000D02*
X99670000Y-105459000D01*
X97789000Y-108468000D02*
X97789000Y-107432000D01*
X99029000Y-110174000D02*
X99029000Y-108990000D01*
X99109000Y-106910000D02*
X99109000Y-105682000D01*
X98869000Y-110072000D02*
X98869000Y-108990000D01*
X100150000Y-110523000D02*
X100150000Y-105377000D01*
X98949000Y-106910000D02*
X98949000Y-105775000D01*
X97989000Y-109048000D02*
X97989000Y-106852000D01*
X98509000Y-106910000D02*
X98509000Y-106124000D01*
X98509000Y-109776000D02*
X98509000Y-108990000D01*
X97749000Y-108234000D02*
X97749000Y-107666000D01*
X99269000Y-110298000D02*
X99269000Y-108990000D01*
X99429000Y-110364000D02*
X99429000Y-108990000D01*
X98749000Y-109985000D02*
X98749000Y-108990000D01*
X102970000Y-107950000D02*
G75*
G03*
X102970000Y-107950000I-2620000J0D01*
G01*
X126573200Y-116431670D02*
X117943200Y-116431670D01*
X126573200Y-117612620D02*
X117943200Y-117612620D01*
X126573200Y-116904050D02*
X117943200Y-116904050D01*
X126573200Y-118085000D02*
X117943200Y-118085000D01*
X126573200Y-115723100D02*
X117943200Y-115723100D01*
X126573200Y-117022145D02*
X117943200Y-117022145D01*
X126573200Y-116785955D02*
X117943200Y-116785955D01*
X117943200Y-106355000D02*
X117533200Y-106355000D01*
X126573200Y-105445000D02*
X117943200Y-105445000D01*
X126573200Y-116313575D02*
X117943200Y-116313575D01*
X126573200Y-117966905D02*
X117943200Y-117966905D01*
X126573200Y-118205000D02*
X126573200Y-102845000D01*
X117943200Y-118205000D02*
X117943200Y-102845000D01*
X117943200Y-107075000D02*
X117533200Y-107075000D01*
X126573200Y-115841195D02*
X117943200Y-115841195D01*
X126573200Y-117848810D02*
X117943200Y-117848810D01*
X117943200Y-111435000D02*
X117533200Y-111435000D01*
X126573200Y-110525000D02*
X117943200Y-110525000D01*
X117943200Y-117235000D02*
X117593200Y-117235000D01*
X126573200Y-117730715D02*
X117943200Y-117730715D01*
X117943200Y-108895000D02*
X117533200Y-108895000D01*
X126573200Y-102845000D02*
X117943200Y-102845000D01*
X117943200Y-109615000D02*
X117533200Y-109615000D01*
X126573200Y-115959290D02*
X117943200Y-115959290D01*
X126573200Y-117140240D02*
X117943200Y-117140240D01*
X126573200Y-117258335D02*
X117943200Y-117258335D01*
X117943200Y-116515000D02*
X117593200Y-116515000D01*
X117943200Y-114695000D02*
X117533200Y-114695000D01*
X117943200Y-113975000D02*
X117533200Y-113975000D01*
X115373200Y-118205000D02*
X115373200Y-116875000D01*
X126573200Y-118205000D02*
X117943200Y-118205000D01*
X126573200Y-117494525D02*
X117943200Y-117494525D01*
X126573200Y-107985000D02*
X117943200Y-107985000D01*
X126573200Y-113065000D02*
X117943200Y-113065000D01*
X126573200Y-116195480D02*
X117943200Y-116195480D01*
X116483200Y-118205000D02*
X115373200Y-118205000D01*
X117943200Y-112155000D02*
X117533200Y-112155000D01*
X126573200Y-116549765D02*
X117943200Y-116549765D01*
X117943200Y-103815000D02*
X117533200Y-103815000D01*
X126573200Y-117376430D02*
X117943200Y-117376430D01*
X117943200Y-104535000D02*
X117533200Y-104535000D01*
X126573200Y-115605000D02*
X117943200Y-115605000D01*
X126573200Y-116077385D02*
X117943200Y-116077385D01*
X126573200Y-116667860D02*
X117943200Y-116667860D01*
X108998000Y-76100000D02*
X115538000Y-76100000D01*
X115538000Y-78840000D02*
X115538000Y-78510000D01*
X115538000Y-76100000D02*
X115538000Y-76430000D01*
X108998000Y-78510000D02*
X108998000Y-78840000D01*
X108998000Y-78840000D02*
X115538000Y-78840000D01*
X108998000Y-76430000D02*
X108998000Y-76100000D01*
X105260000Y-76350000D02*
X103020000Y-76350000D01*
X105260000Y-83590000D02*
X103020000Y-83590000D01*
X105260000Y-76350000D02*
X105260000Y-83590000D01*
X103020000Y-76350000D02*
X103020000Y-83590000D01*
X120865000Y-71700000D02*
X122375000Y-71700000D01*
X125506000Y-74970000D02*
X125506000Y-64730000D01*
X122375000Y-74970000D02*
X122375000Y-64730000D01*
X120865000Y-67999000D02*
X122375000Y-67999000D01*
X120865000Y-74970000D02*
X120865000Y-64730000D01*
X120865000Y-64730000D02*
X125506000Y-64730000D01*
X120865000Y-74970000D02*
X125506000Y-74970000D01*
%LPC*%
D13*
X67056000Y-123444000D03*
D14*
X71374000Y-122555000D03*
X94234000Y-122555000D03*
D15*
X94234000Y-77470000D03*
X94234000Y-80010000D03*
X94234000Y-82550000D03*
X94234000Y-85090000D03*
X94234000Y-87630000D03*
X94234000Y-90170000D03*
X94234000Y-92710000D03*
X94234000Y-95250000D03*
X94234000Y-97790000D03*
X94234000Y-100330000D03*
X94234000Y-102870000D03*
X94234000Y-105410000D03*
X94234000Y-107950000D03*
X71374000Y-107950000D03*
X71374000Y-105410000D03*
X71374000Y-102870000D03*
X71374000Y-100330000D03*
X71374000Y-97790000D03*
X71374000Y-95250000D03*
X71374000Y-92710000D03*
X71374000Y-90170000D03*
X71374000Y-87630000D03*
X71374000Y-85090000D03*
X71374000Y-82550000D03*
X71374000Y-80010000D03*
X71374000Y-77470000D03*
D16*
X116483200Y-96495000D03*
D17*
X116483200Y-93955000D03*
X116483200Y-91415000D03*
X116483200Y-88875000D03*
X116483200Y-86335000D03*
X116483200Y-83795000D03*
D18*
X109474000Y-119888000D03*
D19*
X104394000Y-119888000D03*
X99314000Y-119888000D03*
D20*
X85090000Y-102362000D03*
D21*
X85090000Y-94742000D03*
D18*
X77216000Y-62484000D03*
D19*
X82296000Y-62484000D03*
X87376000Y-62484000D03*
X92456000Y-62484000D03*
D20*
X77470000Y-80772000D03*
D21*
X77470000Y-73152000D03*
D20*
X88900000Y-102362000D03*
D21*
X88900000Y-94742000D03*
D13*
X67056000Y-58928000D03*
D22*
X81783000Y-80762000D03*
D21*
X84323000Y-80762000D03*
X84323000Y-73142000D03*
X81783000Y-73142000D03*
D20*
X88646000Y-80772000D03*
D21*
X88646000Y-73152000D03*
D20*
X86868000Y-85090000D03*
D21*
X79248000Y-85090000D03*
D13*
X123923200Y-123444000D03*
D23*
X120650000Y-78740000D03*
D24*
X123190000Y-78740000D03*
D25*
X114300000Y-100457000D03*
X106680000Y-100457000D03*
X109220000Y-100457000D03*
X104140000Y-100457000D03*
X111760000Y-100457000D03*
X104140000Y-59690000D03*
X114300000Y-59690000D03*
X109220000Y-59690000D03*
X101600000Y-59690000D03*
X106680000Y-59690000D03*
X111760000Y-59690000D03*
X101600000Y-100457000D03*
X116840000Y-59690000D03*
X99060000Y-59690000D03*
X99060000Y-100457000D03*
X116840000Y-100457000D03*
D22*
X104282500Y-72390000D03*
D21*
X109362500Y-72390000D03*
X109362500Y-64770000D03*
X104282500Y-64770000D03*
D22*
X101600000Y-107950000D03*
D20*
X99100000Y-107950000D03*
D16*
X116483200Y-116875000D03*
D17*
X116483200Y-114335000D03*
X116483200Y-111795000D03*
X116483200Y-109255000D03*
X116483200Y-106715000D03*
X116483200Y-104175000D03*
D20*
X108458000Y-77470000D03*
D21*
X116078000Y-77470000D03*
D13*
X123923200Y-58928000D03*
D20*
X104140000Y-77470000D03*
X104140000Y-82470000D03*
D26*
X124135000Y-72390000D03*
D27*
X124135000Y-69850000D03*
X124135000Y-67310000D03*
M02*
