G04 #@! TF.GenerationSoftware,KiCad,Pcbnew,5.1.10-88a1d61d58~88~ubuntu20.04.1*
G04 #@! TF.CreationDate,2021-06-06T22:27:07+02:00*
G04 #@! TF.ProjectId,master-wt32-eth01,6d617374-6572-42d7-9774-33322d657468,rev?*
G04 #@! TF.SameCoordinates,PX3a22d00PY8062360*
G04 #@! TF.FileFunction,Copper,L2,Bot*
G04 #@! TF.FilePolarity,Positive*
%FSLAX46Y46*%
G04 Gerber Fmt 4.6, Leading zero omitted, Abs format (unit mm)*
G04 Created by KiCad (PCBNEW 5.1.10-88a1d61d58~88~ubuntu20.04.1) date 2021-06-06 22:27:07*
%MOMM*%
%LPD*%
G01*
G04 APERTURE LIST*
G04 #@! TA.AperFunction,ComponentPad*
%ADD10O,1.600000X1.600000*%
G04 #@! TD*
G04 #@! TA.AperFunction,ComponentPad*
%ADD11R,1.600000X1.600000*%
G04 #@! TD*
G04 #@! TA.AperFunction,ComponentPad*
%ADD12C,1.600000*%
G04 #@! TD*
G04 #@! TA.AperFunction,ComponentPad*
%ADD13O,3.048000X1.524000*%
G04 #@! TD*
G04 #@! TA.AperFunction,ComponentPad*
%ADD14C,3.000000*%
G04 #@! TD*
G04 #@! TA.AperFunction,ComponentPad*
%ADD15R,3.000000X3.000000*%
G04 #@! TD*
G04 #@! TA.AperFunction,WasherPad*
%ADD16C,3.810000*%
G04 #@! TD*
G04 #@! TA.AperFunction,ComponentPad*
%ADD17O,1.524000X3.048000*%
G04 #@! TD*
G04 #@! TA.AperFunction,ComponentPad*
%ADD18O,3.000000X1.700000*%
G04 #@! TD*
G04 #@! TA.AperFunction,ComponentPad*
%ADD19R,3.000000X1.700000*%
G04 #@! TD*
G04 #@! TA.AperFunction,ComponentPad*
%ADD20O,3.000000X1.600000*%
G04 #@! TD*
G04 #@! TA.AperFunction,Conductor*
%ADD21C,0.500000*%
G04 #@! TD*
G04 #@! TA.AperFunction,Conductor*
%ADD22C,0.250000*%
G04 #@! TD*
G04 APERTURE END LIST*
D10*
X79756000Y-102616000D03*
X77216000Y-94996000D03*
X77216000Y-102616000D03*
D11*
X79756000Y-94996000D03*
D10*
X73152000Y-94996000D03*
D12*
X73152000Y-102616000D03*
D13*
X90170000Y-107442000D03*
X90170000Y-76962000D03*
X90170000Y-79502000D03*
X90170000Y-82042000D03*
X90170000Y-84582000D03*
X90170000Y-87122000D03*
X90170000Y-89662000D03*
X90170000Y-92202000D03*
X90170000Y-94742000D03*
X90170000Y-97282000D03*
X90170000Y-99822000D03*
X90170000Y-102362000D03*
X90170000Y-104902000D03*
X67310000Y-107442000D03*
X67310000Y-104902000D03*
X67310000Y-102362000D03*
X67310000Y-99822000D03*
X67310000Y-97282000D03*
X67310000Y-94742000D03*
X67310000Y-92202000D03*
X67310000Y-89662000D03*
X67310000Y-87122000D03*
X67310000Y-84582000D03*
X67310000Y-82042000D03*
X67310000Y-79502000D03*
X67310000Y-76962000D03*
D10*
X77724000Y-73660000D03*
X82804000Y-81280000D03*
X80264000Y-73660000D03*
X80264000Y-81280000D03*
X82804000Y-73660000D03*
D11*
X77724000Y-81280000D03*
D14*
X89408000Y-60452000D03*
D15*
X94488000Y-60452000D03*
D16*
X104140000Y-98806000D03*
X119380000Y-68834000D03*
D17*
X105410000Y-104267000D03*
X107950000Y-104267000D03*
X110490000Y-104267000D03*
X113030000Y-104267000D03*
X115570000Y-104267000D03*
X118110000Y-104267000D03*
X105410000Y-63500000D03*
X107950000Y-63500000D03*
X110490000Y-63500000D03*
X113030000Y-63500000D03*
X115570000Y-63500000D03*
X118110000Y-63500000D03*
X120650000Y-104267000D03*
X102870000Y-104267000D03*
X102870000Y-63500000D03*
X120650000Y-63500000D03*
D10*
X83566000Y-94996000D03*
D12*
X83566000Y-102616000D03*
D14*
X105410000Y-120904000D03*
X100330000Y-120904000D03*
D15*
X95250000Y-120904000D03*
D14*
X79248000Y-60452000D03*
D15*
X84328000Y-60452000D03*
D14*
X69088000Y-60452000D03*
D15*
X74168000Y-60452000D03*
D18*
X113030000Y-109220000D03*
X113030000Y-111760000D03*
X113030000Y-114300000D03*
X113030000Y-116840000D03*
X113030000Y-119380000D03*
D19*
X113030000Y-121920000D03*
D20*
X113030000Y-86360000D03*
X113030000Y-88900000D03*
X113030000Y-91440000D03*
X113030000Y-93980000D03*
X113030000Y-96520000D03*
D19*
X113030000Y-99060000D03*
D21*
X69088000Y-65024000D02*
X77724000Y-73660000D01*
X69088000Y-60452000D02*
X69088000Y-65024000D01*
X94488000Y-63881000D02*
X94488000Y-60452000D01*
X113030000Y-82423000D02*
X94488000Y-63881000D01*
X113030000Y-86360000D02*
X113030000Y-82423000D01*
X84709000Y-73660000D02*
X82804000Y-73660000D01*
X94488000Y-63881000D02*
X84709000Y-73660000D01*
X80264000Y-71755000D02*
X80264000Y-73660000D01*
X74168000Y-65659000D02*
X80264000Y-71755000D01*
X74168000Y-60452000D02*
X74168000Y-65659000D01*
X80264000Y-75057000D02*
X80264000Y-73660000D01*
X84963000Y-82931000D02*
X84963000Y-79756000D01*
X77216000Y-90678000D02*
X84963000Y-82931000D01*
X77216000Y-94996000D02*
X77216000Y-90678000D01*
X84963000Y-79756000D02*
X80264000Y-75057000D01*
X84963000Y-76835000D02*
X84963000Y-79756000D01*
X89535000Y-72263000D02*
X84963000Y-76835000D01*
X94393000Y-72263000D02*
X89535000Y-72263000D01*
X111030000Y-88900000D02*
X94393000Y-72263000D01*
X113030000Y-88900000D02*
X111030000Y-88900000D01*
X102870000Y-102243000D02*
X102870000Y-104267000D01*
X103767000Y-101346000D02*
X102870000Y-102243000D01*
X115570000Y-101346000D02*
X103767000Y-101346000D01*
X116332000Y-100584000D02*
X115570000Y-101346000D01*
X116332000Y-94996000D02*
X116332000Y-100584000D01*
X115316000Y-93980000D02*
X116332000Y-94996000D01*
X113030000Y-93980000D02*
X115316000Y-93980000D01*
X100330000Y-106807000D02*
X100330000Y-120904000D01*
X102870000Y-104267000D02*
X100330000Y-106807000D01*
X77216000Y-102616000D02*
X77216000Y-104648000D01*
X77089000Y-104775000D02*
X77216000Y-104648000D01*
X71628000Y-104775000D02*
X77089000Y-104775000D01*
X69215000Y-102362000D02*
X71628000Y-104775000D01*
X67310000Y-102362000D02*
X69215000Y-102362000D01*
X100330000Y-111633000D02*
X100330000Y-120904000D01*
X84201000Y-111633000D02*
X100330000Y-111633000D01*
X77216000Y-104648000D02*
X84201000Y-111633000D01*
X79248000Y-58547000D02*
X79248000Y-60452000D01*
X81915000Y-55880000D02*
X79248000Y-58547000D01*
X116078000Y-55880000D02*
X81915000Y-55880000D01*
X120650000Y-60452000D02*
X116078000Y-55880000D01*
X120650000Y-63500000D02*
X120650000Y-60452000D01*
X102870000Y-60960000D02*
X102870000Y-63500000D01*
X98806000Y-56896000D02*
X102870000Y-60960000D01*
X85852000Y-56896000D02*
X98806000Y-56896000D01*
X84328000Y-58420000D02*
X85852000Y-56896000D01*
X84328000Y-60452000D02*
X84328000Y-58420000D01*
D22*
X87757000Y-104902000D02*
X90170000Y-104902000D01*
X86487000Y-103632000D02*
X87757000Y-104902000D01*
X86487000Y-97917000D02*
X86487000Y-103632000D01*
X83566000Y-94996000D02*
X86487000Y-97917000D01*
X116967000Y-113284000D02*
X115443000Y-111760000D01*
X115570000Y-124714000D02*
X116967000Y-123317000D01*
X76454000Y-124714000D02*
X115570000Y-124714000D01*
X115443000Y-111760000D02*
X113030000Y-111760000D01*
X64389000Y-93726000D02*
X64389000Y-112649000D01*
X116967000Y-123317000D02*
X116967000Y-113284000D01*
X64389000Y-112649000D02*
X76454000Y-124714000D01*
X65913000Y-92202000D02*
X64389000Y-93726000D01*
X67310000Y-92202000D02*
X65913000Y-92202000D01*
X73152000Y-90932000D02*
X82804000Y-81280000D01*
X73152000Y-94996000D02*
X73152000Y-90932000D01*
X79756000Y-96012000D02*
X73152000Y-102616000D01*
X79756000Y-94996000D02*
X79756000Y-96012000D01*
M02*
