G04 #@! TF.GenerationSoftware,KiCad,Pcbnew,5.1.10-88a1d61d58~88~ubuntu20.04.1*
G04 #@! TF.CreationDate,2021-06-06T22:27:07+02:00*
G04 #@! TF.ProjectId,master-wt32-eth01,6d617374-6572-42d7-9774-33322d657468,rev?*
G04 #@! TF.SameCoordinates,PX3a22d00PY8062360*
G04 #@! TF.FileFunction,Legend,Bot*
G04 #@! TF.FilePolarity,Positive*
%FSLAX46Y46*%
G04 Gerber Fmt 4.6, Leading zero omitted, Abs format (unit mm)*
G04 Created by KiCad (PCBNEW 5.1.10-88a1d61d58~88~ubuntu20.04.1) date 2021-06-06 22:27:07*
%MOMM*%
%LPD*%
G01*
G04 APERTURE LIST*
%ADD10O,1.600000X1.600000*%
%ADD11R,1.600000X1.600000*%
%ADD12C,1.600000*%
%ADD13O,3.048000X1.524000*%
%ADD14C,2.032000*%
%ADD15C,3.000000*%
%ADD16R,3.000000X3.000000*%
%ADD17C,3.810000*%
%ADD18O,1.524000X3.048000*%
%ADD19O,3.000000X1.700000*%
%ADD20R,3.000000X1.700000*%
%ADD21O,3.000000X1.600000*%
G04 APERTURE END LIST*
%LPC*%
D10*
X79756000Y-102616000D03*
X77216000Y-94996000D03*
X77216000Y-102616000D03*
D11*
X79756000Y-94996000D03*
D10*
X73152000Y-94996000D03*
D12*
X73152000Y-102616000D03*
D13*
X90170000Y-107442000D03*
X90170000Y-76962000D03*
X90170000Y-79502000D03*
X90170000Y-82042000D03*
X90170000Y-84582000D03*
X90170000Y-87122000D03*
X90170000Y-89662000D03*
X90170000Y-92202000D03*
X90170000Y-94742000D03*
X90170000Y-97282000D03*
X90170000Y-99822000D03*
X90170000Y-102362000D03*
X90170000Y-104902000D03*
X67310000Y-107442000D03*
X67310000Y-104902000D03*
X67310000Y-102362000D03*
X67310000Y-99822000D03*
X67310000Y-97282000D03*
X67310000Y-94742000D03*
X67310000Y-92202000D03*
X67310000Y-89662000D03*
X67310000Y-87122000D03*
X67310000Y-84582000D03*
X67310000Y-82042000D03*
X67310000Y-79502000D03*
X67310000Y-76962000D03*
D14*
X90170000Y-122047000D03*
X67310000Y-122047000D03*
D10*
X77724000Y-73660000D03*
X82804000Y-81280000D03*
X80264000Y-73660000D03*
X80264000Y-81280000D03*
X82804000Y-73660000D03*
D11*
X77724000Y-81280000D03*
D15*
X89408000Y-60452000D03*
D16*
X94488000Y-60452000D03*
D17*
X104140000Y-98806000D03*
X119380000Y-68834000D03*
D18*
X105410000Y-104267000D03*
X107950000Y-104267000D03*
X110490000Y-104267000D03*
X113030000Y-104267000D03*
X115570000Y-104267000D03*
X118110000Y-104267000D03*
X105410000Y-63500000D03*
X107950000Y-63500000D03*
X110490000Y-63500000D03*
X113030000Y-63500000D03*
X115570000Y-63500000D03*
X118110000Y-63500000D03*
X120650000Y-104267000D03*
X102870000Y-104267000D03*
X102870000Y-63500000D03*
X120650000Y-63500000D03*
D10*
X83566000Y-94996000D03*
D12*
X83566000Y-102616000D03*
D15*
X105410000Y-120904000D03*
X100330000Y-120904000D03*
D16*
X95250000Y-120904000D03*
D15*
X79248000Y-60452000D03*
D16*
X84328000Y-60452000D03*
D15*
X69088000Y-60452000D03*
D16*
X74168000Y-60452000D03*
D19*
X113030000Y-109220000D03*
X113030000Y-111760000D03*
X113030000Y-114300000D03*
X113030000Y-116840000D03*
X113030000Y-119380000D03*
D20*
X113030000Y-121920000D03*
D21*
X113030000Y-86360000D03*
X113030000Y-88900000D03*
X113030000Y-91440000D03*
X113030000Y-93980000D03*
X113030000Y-96520000D03*
D20*
X113030000Y-99060000D03*
M02*
