M48
METRIC
T1C0.762
T2C0.800
T3C1.000
T4C1.520
T5C2.032
T6C0.762
%
G90
G05
T1
X67.31Y-76.962
X67.31Y-79.502
X67.31Y-82.042
X67.31Y-84.582
X67.31Y-87.122
X67.31Y-89.662
X67.31Y-92.202
X67.31Y-94.742
X67.31Y-97.282
X67.31Y-99.822
X67.31Y-102.362
X67.31Y-104.902
X67.31Y-107.442
X90.17Y-76.962
X90.17Y-79.502
X90.17Y-82.042
X90.17Y-84.582
X90.17Y-87.122
X90.17Y-89.662
X90.17Y-92.202
X90.17Y-94.742
X90.17Y-97.282
X90.17Y-99.822
X90.17Y-102.362
X90.17Y-104.902
X90.17Y-107.442
X102.87Y-63.5
X102.87Y-104.267
X105.41Y-63.5
X105.41Y-104.267
X107.95Y-63.5
X107.95Y-104.267
X110.49Y-63.5
X110.49Y-104.267
X113.03Y-63.5
X113.03Y-104.267
X115.57Y-63.5
X115.57Y-104.267
X118.11Y-63.5
X118.11Y-104.267
X120.65Y-63.5
X120.65Y-104.267
T2
X73.152Y-94.996
X73.152Y-102.616
X77.216Y-94.996
X77.216Y-102.616
X77.724Y-73.66
X77.724Y-81.28
X79.756Y-94.996
X79.756Y-102.616
X80.264Y-73.66
X80.264Y-81.28
X82.804Y-73.66
X82.804Y-81.28
X83.566Y-94.996
X83.566Y-102.616
T3
X113.03Y-86.36
X113.03Y-88.9
X113.03Y-91.44
X113.03Y-93.98
X113.03Y-96.52
X113.03Y-99.06
X113.03Y-109.22
X113.03Y-111.76
X113.03Y-114.3
X113.03Y-116.84
X113.03Y-119.38
X113.03Y-121.92
T4
X69.088Y-60.452
X74.168Y-60.452
X79.248Y-60.452
X84.328Y-60.452
X89.408Y-60.452
X94.488Y-60.452
X95.25Y-120.904
X100.33Y-120.904
X105.41Y-120.904
T5
X67.31Y-122.047
X90.17Y-122.047
T6
X104.14Y-98.806
X119.38Y-68.834
T0
M30
