M48
METRIC
T1C0.762
T2C0.800
T3C1.000
T4C1.520
T5C2.032
T6C3.200
%
G90
G05
T1
X72.517Y-78.613
X72.517Y-81.153
X72.517Y-83.693
X72.517Y-86.233
X72.517Y-88.773
X72.517Y-91.313
X72.517Y-93.853
X72.517Y-96.393
X72.517Y-98.933
X72.517Y-101.473
X72.517Y-104.013
X72.517Y-106.553
X72.517Y-109.093
X95.377Y-78.613
X95.377Y-81.153
X95.377Y-83.693
X95.377Y-86.233
X95.377Y-88.773
X95.377Y-91.313
X95.377Y-93.853
X95.377Y-96.393
X95.377Y-98.933
X95.377Y-101.473
X95.377Y-104.013
X95.377Y-106.553
X95.377Y-109.093
X112.522Y-63.5
X112.522Y-104.267
X115.062Y-63.5
X115.062Y-104.267
X117.602Y-63.5
X117.602Y-104.267
X120.142Y-63.5
X120.142Y-104.267
X122.682Y-63.5
X122.682Y-104.267
X125.222Y-63.5
X125.222Y-104.267
X127.762Y-63.5
X127.762Y-104.267
X130.302Y-63.5
X130.302Y-104.267
T2
X69.215Y-68.66
X69.215Y-73.66
X76.835Y-68.199
X76.835Y-75.819
X78.867Y-93.218
X78.867Y-100.838
X80.264Y-104.902
X81.915Y-68.199
X81.915Y-75.819
X83.058Y-93.218
X83.058Y-100.838
X85.598Y-93.218
X85.598Y-100.838
X86.233Y-68.199
X86.233Y-75.819
X87.884Y-104.902
X89.789Y-93.218
X89.789Y-100.838
X91.313Y-68.199
X91.313Y-75.819
X98.552Y-69.088
X98.552Y-74.088
X101.727Y-82.931
X101.727Y-90.551
X103.632Y-68.707
X103.632Y-71.207
X103.632Y-74.93
X103.632Y-77.43
X104.267Y-82.931
X104.267Y-90.551
X106.807Y-82.931
X106.807Y-90.551
T3
X122.301Y-86.36
X122.301Y-88.9
X122.301Y-91.44
X122.301Y-93.98
X122.301Y-96.52
X122.301Y-99.06
X122.301Y-109.22
X122.301Y-111.76
X122.301Y-114.3
X122.301Y-116.84
X122.301Y-119.38
X122.301Y-121.92
T4
X74.295Y-61.849
X79.375Y-61.849
X84.455Y-61.849
X89.535Y-61.849
X94.615Y-61.849
X99.695Y-61.849
X102.235Y-119.761
X107.315Y-119.761
X112.395Y-119.761
T5
X72.517Y-123.698
X95.377Y-123.698
T6
X66.929Y-58.039
X66.929Y-123.571
X106.299Y-109.855
X129.921Y-58.039
T0
M30
