G04 #@! TF.GenerationSoftware,KiCad,Pcbnew,5.1.10-88a1d61d58~88~ubuntu20.04.1*
G04 #@! TF.CreationDate,2021-06-06T22:27:07+02:00*
G04 #@! TF.ProjectId,master-wt32-eth01,6d617374-6572-42d7-9774-33322d657468,rev?*
G04 #@! TF.SameCoordinates,PX3a22d00PY8062360*
G04 #@! TF.FileFunction,Copper,L1,Top*
G04 #@! TF.FilePolarity,Positive*
%FSLAX46Y46*%
G04 Gerber Fmt 4.6, Leading zero omitted, Abs format (unit mm)*
G04 Created by KiCad (PCBNEW 5.1.10-88a1d61d58~88~ubuntu20.04.1) date 2021-06-06 22:27:07*
%MOMM*%
%LPD*%
G01*
G04 APERTURE LIST*
G04 #@! TA.AperFunction,ComponentPad*
%ADD10O,1.600000X1.600000*%
G04 #@! TD*
G04 #@! TA.AperFunction,ComponentPad*
%ADD11R,1.600000X1.600000*%
G04 #@! TD*
G04 #@! TA.AperFunction,ComponentPad*
%ADD12C,1.600000*%
G04 #@! TD*
G04 #@! TA.AperFunction,ComponentPad*
%ADD13O,3.048000X1.524000*%
G04 #@! TD*
G04 #@! TA.AperFunction,ComponentPad*
%ADD14C,2.032000*%
G04 #@! TD*
G04 #@! TA.AperFunction,ComponentPad*
%ADD15C,3.000000*%
G04 #@! TD*
G04 #@! TA.AperFunction,ComponentPad*
%ADD16R,3.000000X3.000000*%
G04 #@! TD*
G04 #@! TA.AperFunction,WasherPad*
%ADD17C,3.810000*%
G04 #@! TD*
G04 #@! TA.AperFunction,ComponentPad*
%ADD18O,1.524000X3.048000*%
G04 #@! TD*
G04 #@! TA.AperFunction,ComponentPad*
%ADD19O,3.000000X1.700000*%
G04 #@! TD*
G04 #@! TA.AperFunction,ComponentPad*
%ADD20R,3.000000X1.700000*%
G04 #@! TD*
G04 #@! TA.AperFunction,ComponentPad*
%ADD21O,3.000000X1.600000*%
G04 #@! TD*
G04 #@! TA.AperFunction,Conductor*
%ADD22C,0.500000*%
G04 #@! TD*
G04 #@! TA.AperFunction,Conductor*
%ADD23C,0.250000*%
G04 #@! TD*
G04 APERTURE END LIST*
D10*
X79756000Y-102616000D03*
X77216000Y-94996000D03*
X77216000Y-102616000D03*
D11*
X79756000Y-94996000D03*
D10*
X73152000Y-94996000D03*
D12*
X73152000Y-102616000D03*
D13*
X90170000Y-107442000D03*
X90170000Y-76962000D03*
X90170000Y-79502000D03*
X90170000Y-82042000D03*
X90170000Y-84582000D03*
X90170000Y-87122000D03*
X90170000Y-89662000D03*
X90170000Y-92202000D03*
X90170000Y-94742000D03*
X90170000Y-97282000D03*
X90170000Y-99822000D03*
X90170000Y-102362000D03*
X90170000Y-104902000D03*
X67310000Y-107442000D03*
X67310000Y-104902000D03*
X67310000Y-102362000D03*
X67310000Y-99822000D03*
X67310000Y-97282000D03*
X67310000Y-94742000D03*
X67310000Y-92202000D03*
X67310000Y-89662000D03*
X67310000Y-87122000D03*
X67310000Y-84582000D03*
X67310000Y-82042000D03*
X67310000Y-79502000D03*
X67310000Y-76962000D03*
D14*
X90170000Y-122047000D03*
X67310000Y-122047000D03*
D10*
X77724000Y-73660000D03*
X82804000Y-81280000D03*
X80264000Y-73660000D03*
X80264000Y-81280000D03*
X82804000Y-73660000D03*
D11*
X77724000Y-81280000D03*
D15*
X89408000Y-60452000D03*
D16*
X94488000Y-60452000D03*
D17*
X104140000Y-98806000D03*
X119380000Y-68834000D03*
D18*
X105410000Y-104267000D03*
X107950000Y-104267000D03*
X110490000Y-104267000D03*
X113030000Y-104267000D03*
X115570000Y-104267000D03*
X118110000Y-104267000D03*
X105410000Y-63500000D03*
X107950000Y-63500000D03*
X110490000Y-63500000D03*
X113030000Y-63500000D03*
X115570000Y-63500000D03*
X118110000Y-63500000D03*
X120650000Y-104267000D03*
X102870000Y-104267000D03*
X102870000Y-63500000D03*
X120650000Y-63500000D03*
D10*
X83566000Y-94996000D03*
D12*
X83566000Y-102616000D03*
D15*
X105410000Y-120904000D03*
X100330000Y-120904000D03*
D16*
X95250000Y-120904000D03*
D15*
X79248000Y-60452000D03*
D16*
X84328000Y-60452000D03*
D15*
X69088000Y-60452000D03*
D16*
X74168000Y-60452000D03*
D19*
X113030000Y-109220000D03*
X113030000Y-111760000D03*
X113030000Y-114300000D03*
X113030000Y-116840000D03*
X113030000Y-119380000D03*
D20*
X113030000Y-121920000D03*
D21*
X113030000Y-86360000D03*
X113030000Y-88900000D03*
X113030000Y-91440000D03*
X113030000Y-93980000D03*
X113030000Y-96520000D03*
D20*
X113030000Y-99060000D03*
D22*
X77724000Y-75057000D02*
X77724000Y-73660000D01*
X79502000Y-76835000D02*
X77724000Y-75057000D01*
X81026000Y-76835000D02*
X79502000Y-76835000D01*
X82804000Y-75057000D02*
X81026000Y-76835000D01*
X82804000Y-73660000D02*
X82804000Y-75057000D01*
X83566000Y-109220000D02*
X95250000Y-120904000D01*
X95250000Y-122809000D02*
X95250000Y-120904000D01*
X97155000Y-124714000D02*
X95250000Y-122809000D01*
X116713000Y-124714000D02*
X97155000Y-124714000D01*
X120650000Y-120777000D02*
X116713000Y-124714000D01*
X120650000Y-104267000D02*
X120650000Y-120777000D01*
X83566000Y-106045000D02*
X83566000Y-109220000D01*
X83566000Y-102616000D02*
X83566000Y-106045000D01*
X72771000Y-106045000D02*
X83566000Y-106045000D01*
X70739000Y-104013000D02*
X72771000Y-106045000D01*
X70739000Y-100838000D02*
X70739000Y-104013000D01*
X69723000Y-99822000D02*
X70739000Y-100838000D01*
X67310000Y-99822000D02*
X69723000Y-99822000D01*
X116713000Y-91440000D02*
X120650000Y-95377000D01*
X120650000Y-95377000D02*
X120650000Y-104267000D01*
X113030000Y-91440000D02*
X116713000Y-91440000D01*
D23*
X85344000Y-84963000D02*
X72771000Y-84963000D01*
X98298000Y-83312000D02*
X86995000Y-83312000D01*
X72771000Y-84963000D02*
X70612000Y-87122000D01*
X114772722Y-92665010D02*
X107651010Y-92665010D01*
X70612000Y-87122000D02*
X67310000Y-87122000D01*
X107651010Y-92665010D02*
X98298000Y-83312000D01*
X116332000Y-94224288D02*
X114772722Y-92665010D01*
X116332000Y-97663000D02*
X116332000Y-94224288D01*
X114935000Y-99060000D02*
X116332000Y-97663000D01*
X86995000Y-83312000D02*
X85344000Y-84963000D01*
X113030000Y-99060000D02*
X114935000Y-99060000D01*
X69469000Y-89662000D02*
X67310000Y-89662000D01*
X73279000Y-85852000D02*
X69469000Y-89662000D01*
X99695000Y-85852000D02*
X73279000Y-85852000D01*
X110363000Y-96520000D02*
X99695000Y-85852000D01*
X113030000Y-96520000D02*
X110363000Y-96520000D01*
X96139000Y-102598756D02*
X96139000Y-96397000D01*
X107840244Y-114300000D02*
X96139000Y-102598756D01*
X113030000Y-114300000D02*
X107840244Y-114300000D01*
X96139000Y-96397000D02*
X91944000Y-92202000D01*
X91944000Y-92202000D02*
X90170000Y-92202000D01*
X111506000Y-119380000D02*
X91948000Y-99822000D01*
X113030000Y-119380000D02*
X111506000Y-119380000D01*
X91948000Y-99822000D02*
X90170000Y-99822000D01*
X91821000Y-102362000D02*
X90170000Y-102362000D01*
X111379000Y-121920000D02*
X91821000Y-102362000D01*
X113030000Y-121920000D02*
X111379000Y-121920000D01*
D22*
X74803000Y-68453000D02*
X74803000Y-78359000D01*
X74803000Y-78359000D02*
X77724000Y-81280000D01*
X79248000Y-64008000D02*
X74803000Y-68453000D01*
X79248000Y-60452000D02*
X79248000Y-64008000D01*
X85471000Y-74295000D02*
X80264000Y-79502000D01*
X80264000Y-79502000D02*
X80264000Y-81280000D01*
X85471000Y-61595000D02*
X85471000Y-74295000D01*
X84328000Y-60452000D02*
X85471000Y-61595000D01*
D23*
X93218000Y-104902000D02*
X90170000Y-104902000D01*
X105410000Y-117094000D02*
X93218000Y-104902000D01*
X105410000Y-120904000D02*
X105410000Y-117094000D01*
X79756000Y-100711000D02*
X79756000Y-102616000D01*
X81661000Y-98806000D02*
X79756000Y-100711000D01*
X81661000Y-91948000D02*
X81661000Y-98806000D01*
X86487000Y-87122000D02*
X81661000Y-91948000D01*
X90170000Y-87122000D02*
X86487000Y-87122000D01*
X91944000Y-89662000D02*
X90170000Y-89662000D01*
X97028000Y-94746000D02*
X91944000Y-89662000D01*
X97028000Y-102780634D02*
X97028000Y-94746000D01*
X103467366Y-109220000D02*
X97028000Y-102780634D01*
X113030000Y-109220000D02*
X103467366Y-109220000D01*
X95123000Y-97921000D02*
X91944000Y-94742000D01*
X95123000Y-102289878D02*
X95123000Y-97921000D01*
X109673122Y-116840000D02*
X95123000Y-102289878D01*
X113030000Y-116840000D02*
X109673122Y-116840000D01*
X91944000Y-94742000D02*
X90170000Y-94742000D01*
X89408000Y-71374000D02*
X89408000Y-60452000D01*
X82804000Y-77978000D02*
X89408000Y-71374000D01*
X82804000Y-81280000D02*
X82804000Y-77978000D01*
M02*
