G04 #@! TF.GenerationSoftware,KiCad,Pcbnew,5.1.10-88a1d61d58~90~ubuntu20.04.1*
G04 #@! TF.CreationDate,2021-07-14T18:43:21+02:00*
G04 #@! TF.ProjectId,master-wt32-eth01,6d617374-6572-42d7-9774-33322d657468,rev?*
G04 #@! TF.SameCoordinates,PX3a22d00PY8062360*
G04 #@! TF.FileFunction,Legend,Top*
G04 #@! TF.FilePolarity,Positive*
%FSLAX46Y46*%
G04 Gerber Fmt 4.6, Leading zero omitted, Abs format (unit mm)*
G04 Created by KiCad (PCBNEW 5.1.10-88a1d61d58~90~ubuntu20.04.1) date 2021-07-14 18:43:21*
%MOMM*%
%LPD*%
G01*
G04 APERTURE LIST*
%ADD10C,0.150000*%
%ADD11C,0.120000*%
%ADD12C,3.200000*%
%ADD13O,1.524000X3.048000*%
%ADD14O,3.048000X1.524000*%
%ADD15C,2.032000*%
%ADD16R,1.600000X1.600000*%
%ADD17O,1.600000X1.600000*%
%ADD18C,1.600000*%
%ADD19C,3.000000*%
%ADD20R,3.000000X3.000000*%
%ADD21O,3.000000X1.700000*%
%ADD22R,3.000000X1.700000*%
%ADD23O,3.000000X1.600000*%
G04 APERTURE END LIST*
D10*
X106346666Y-92670380D02*
X106965714Y-92670380D01*
X106632380Y-93051333D01*
X106775238Y-93051333D01*
X106870476Y-93098952D01*
X106918095Y-93146571D01*
X106965714Y-93241809D01*
X106965714Y-93479904D01*
X106918095Y-93575142D01*
X106870476Y-93622761D01*
X106775238Y-93670380D01*
X106489523Y-93670380D01*
X106394285Y-93622761D01*
X106346666Y-93575142D01*
X103854285Y-92765619D02*
X103901904Y-92718000D01*
X103997142Y-92670380D01*
X104235238Y-92670380D01*
X104330476Y-92718000D01*
X104378095Y-92765619D01*
X104425714Y-92860857D01*
X104425714Y-92956095D01*
X104378095Y-93098952D01*
X103806666Y-93670380D01*
X104425714Y-93670380D01*
X101885714Y-93670380D02*
X101314285Y-93670380D01*
X101600000Y-93670380D02*
X101600000Y-92670380D01*
X101504761Y-92813238D01*
X101409523Y-92908476D01*
X101314285Y-92956095D01*
X113967142Y-57015571D02*
X114110000Y-57063190D01*
X114157619Y-57110809D01*
X114205238Y-57206047D01*
X114205238Y-57348904D01*
X114157619Y-57444142D01*
X114110000Y-57491761D01*
X114014761Y-57539380D01*
X113633809Y-57539380D01*
X113633809Y-56539380D01*
X113967142Y-56539380D01*
X114062380Y-56587000D01*
X114110000Y-56634619D01*
X114157619Y-56729857D01*
X114157619Y-56825095D01*
X114110000Y-56920333D01*
X114062380Y-56967952D01*
X113967142Y-57015571D01*
X113633809Y-57015571D01*
X114633809Y-57539380D02*
X114633809Y-56872714D01*
X114633809Y-57063190D02*
X114681428Y-56967952D01*
X114729047Y-56920333D01*
X114824285Y-56872714D01*
X114919523Y-56872714D01*
X115252857Y-57539380D02*
X115252857Y-56872714D01*
X115252857Y-56539380D02*
X115205238Y-56587000D01*
X115252857Y-56634619D01*
X115300476Y-56587000D01*
X115252857Y-56539380D01*
X115252857Y-56634619D01*
X116157619Y-57491761D02*
X116062380Y-57539380D01*
X115871904Y-57539380D01*
X115776666Y-57491761D01*
X115729047Y-57444142D01*
X115681428Y-57348904D01*
X115681428Y-57063190D01*
X115729047Y-56967952D01*
X115776666Y-56920333D01*
X115871904Y-56872714D01*
X116062380Y-56872714D01*
X116157619Y-56920333D01*
X116586190Y-57539380D02*
X116586190Y-56539380D01*
X116681428Y-57158428D02*
X116967142Y-57539380D01*
X116967142Y-56872714D02*
X116586190Y-57253666D01*
X118157619Y-57539380D02*
X118157619Y-56539380D01*
X118490952Y-57253666D01*
X118824285Y-56539380D01*
X118824285Y-57539380D01*
X119729047Y-57539380D02*
X119729047Y-57015571D01*
X119681428Y-56920333D01*
X119586190Y-56872714D01*
X119395714Y-56872714D01*
X119300476Y-56920333D01*
X119729047Y-57491761D02*
X119633809Y-57539380D01*
X119395714Y-57539380D01*
X119300476Y-57491761D01*
X119252857Y-57396523D01*
X119252857Y-57301285D01*
X119300476Y-57206047D01*
X119395714Y-57158428D01*
X119633809Y-57158428D01*
X119729047Y-57110809D01*
X120157619Y-57491761D02*
X120252857Y-57539380D01*
X120443333Y-57539380D01*
X120538571Y-57491761D01*
X120586190Y-57396523D01*
X120586190Y-57348904D01*
X120538571Y-57253666D01*
X120443333Y-57206047D01*
X120300476Y-57206047D01*
X120205238Y-57158428D01*
X120157619Y-57063190D01*
X120157619Y-57015571D01*
X120205238Y-56920333D01*
X120300476Y-56872714D01*
X120443333Y-56872714D01*
X120538571Y-56920333D01*
X120871904Y-56872714D02*
X121252857Y-56872714D01*
X121014761Y-56539380D02*
X121014761Y-57396523D01*
X121062380Y-57491761D01*
X121157619Y-57539380D01*
X121252857Y-57539380D01*
X121967142Y-57491761D02*
X121871904Y-57539380D01*
X121681428Y-57539380D01*
X121586190Y-57491761D01*
X121538571Y-57396523D01*
X121538571Y-57015571D01*
X121586190Y-56920333D01*
X121681428Y-56872714D01*
X121871904Y-56872714D01*
X121967142Y-56920333D01*
X122014761Y-57015571D01*
X122014761Y-57110809D01*
X121538571Y-57206047D01*
X122443333Y-57539380D02*
X122443333Y-56872714D01*
X122443333Y-57063190D02*
X122490952Y-56967952D01*
X122538571Y-56920333D01*
X122633809Y-56872714D01*
X122729047Y-56872714D01*
X111800476Y-58522714D02*
X111990952Y-59189380D01*
X112181428Y-58713190D01*
X112371904Y-59189380D01*
X112562380Y-58522714D01*
X112800476Y-58522714D02*
X113181428Y-58522714D01*
X112943333Y-58189380D02*
X112943333Y-59046523D01*
X112990952Y-59141761D01*
X113086190Y-59189380D01*
X113181428Y-59189380D01*
X113419523Y-58189380D02*
X114038571Y-58189380D01*
X113705238Y-58570333D01*
X113848095Y-58570333D01*
X113943333Y-58617952D01*
X113990952Y-58665571D01*
X114038571Y-58760809D01*
X114038571Y-58998904D01*
X113990952Y-59094142D01*
X113943333Y-59141761D01*
X113848095Y-59189380D01*
X113562380Y-59189380D01*
X113467142Y-59141761D01*
X113419523Y-59094142D01*
X114419523Y-58284619D02*
X114467142Y-58237000D01*
X114562380Y-58189380D01*
X114800476Y-58189380D01*
X114895714Y-58237000D01*
X114943333Y-58284619D01*
X114990952Y-58379857D01*
X114990952Y-58475095D01*
X114943333Y-58617952D01*
X114371904Y-59189380D01*
X114990952Y-59189380D01*
X115419523Y-58808428D02*
X116181428Y-58808428D01*
X117038571Y-59141761D02*
X116943333Y-59189380D01*
X116752857Y-59189380D01*
X116657619Y-59141761D01*
X116610000Y-59046523D01*
X116610000Y-58665571D01*
X116657619Y-58570333D01*
X116752857Y-58522714D01*
X116943333Y-58522714D01*
X117038571Y-58570333D01*
X117086190Y-58665571D01*
X117086190Y-58760809D01*
X116610000Y-58856047D01*
X117371904Y-58522714D02*
X117752857Y-58522714D01*
X117514761Y-58189380D02*
X117514761Y-59046523D01*
X117562380Y-59141761D01*
X117657619Y-59189380D01*
X117752857Y-59189380D01*
X118086190Y-59189380D02*
X118086190Y-58189380D01*
X118514761Y-59189380D02*
X118514761Y-58665571D01*
X118467142Y-58570333D01*
X118371904Y-58522714D01*
X118229047Y-58522714D01*
X118133809Y-58570333D01*
X118086190Y-58617952D01*
X119181428Y-58189380D02*
X119276666Y-58189380D01*
X119371904Y-58237000D01*
X119419523Y-58284619D01*
X119467142Y-58379857D01*
X119514761Y-58570333D01*
X119514761Y-58808428D01*
X119467142Y-58998904D01*
X119419523Y-59094142D01*
X119371904Y-59141761D01*
X119276666Y-59189380D01*
X119181428Y-59189380D01*
X119086190Y-59141761D01*
X119038571Y-59094142D01*
X118990952Y-58998904D01*
X118943333Y-58808428D01*
X118943333Y-58570333D01*
X118990952Y-58379857D01*
X119038571Y-58284619D01*
X119086190Y-58237000D01*
X119181428Y-58189380D01*
X120467142Y-59189380D02*
X119895714Y-59189380D01*
X120181428Y-59189380D02*
X120181428Y-58189380D01*
X120086190Y-58332238D01*
X119990952Y-58427476D01*
X119895714Y-58475095D01*
X121562380Y-58522714D02*
X121800476Y-59189380D01*
X122038571Y-58522714D01*
X122943333Y-59189380D02*
X122371904Y-59189380D01*
X122657619Y-59189380D02*
X122657619Y-58189380D01*
X122562380Y-58332238D01*
X122467142Y-58427476D01*
X122371904Y-58475095D01*
X123371904Y-59094142D02*
X123419523Y-59141761D01*
X123371904Y-59189380D01*
X123324285Y-59141761D01*
X123371904Y-59094142D01*
X123371904Y-59189380D01*
X124371904Y-59189380D02*
X123800476Y-59189380D01*
X124086190Y-59189380D02*
X124086190Y-58189380D01*
X123990952Y-58332238D01*
X123895714Y-58427476D01*
X123800476Y-58475095D01*
X104060666Y-98703380D02*
X104679714Y-98703380D01*
X104346380Y-99084333D01*
X104489238Y-99084333D01*
X104584476Y-99131952D01*
X104632095Y-99179571D01*
X104679714Y-99274809D01*
X104679714Y-99512904D01*
X104632095Y-99608142D01*
X104584476Y-99655761D01*
X104489238Y-99703380D01*
X104203523Y-99703380D01*
X104108285Y-99655761D01*
X104060666Y-99608142D01*
X102132095Y-100829571D02*
X102465428Y-100829571D01*
X102608285Y-101353380D02*
X102132095Y-101353380D01*
X102132095Y-100353380D01*
X102608285Y-100353380D01*
X103036857Y-100686714D02*
X103036857Y-101353380D01*
X103036857Y-100781952D02*
X103084476Y-100734333D01*
X103179714Y-100686714D01*
X103322571Y-100686714D01*
X103417809Y-100734333D01*
X103465428Y-100829571D01*
X103465428Y-101353380D01*
X104370190Y-101353380D02*
X104370190Y-100829571D01*
X104322571Y-100734333D01*
X104227333Y-100686714D01*
X104036857Y-100686714D01*
X103941619Y-100734333D01*
X104370190Y-101305761D02*
X104274952Y-101353380D01*
X104036857Y-101353380D01*
X103941619Y-101305761D01*
X103894000Y-101210523D01*
X103894000Y-101115285D01*
X103941619Y-101020047D01*
X104036857Y-100972428D01*
X104274952Y-100972428D01*
X104370190Y-100924809D01*
X104846380Y-101353380D02*
X104846380Y-100353380D01*
X104846380Y-100734333D02*
X104941619Y-100686714D01*
X105132095Y-100686714D01*
X105227333Y-100734333D01*
X105274952Y-100781952D01*
X105322571Y-100877190D01*
X105322571Y-101162904D01*
X105274952Y-101258142D01*
X105227333Y-101305761D01*
X105132095Y-101353380D01*
X104941619Y-101353380D01*
X104846380Y-101305761D01*
X105894000Y-101353380D02*
X105798761Y-101305761D01*
X105751142Y-101210523D01*
X105751142Y-100353380D01*
X106655904Y-101305761D02*
X106560666Y-101353380D01*
X106370190Y-101353380D01*
X106274952Y-101305761D01*
X106227333Y-101210523D01*
X106227333Y-100829571D01*
X106274952Y-100734333D01*
X106370190Y-100686714D01*
X106560666Y-100686714D01*
X106655904Y-100734333D01*
X106703523Y-100829571D01*
X106703523Y-100924809D01*
X106227333Y-101020047D01*
X103584523Y-95893380D02*
X103013095Y-95893380D01*
X103298809Y-95893380D02*
X103298809Y-94893380D01*
X103203571Y-95036238D01*
X103108333Y-95131476D01*
X103013095Y-95179095D01*
X104013095Y-95512428D02*
X104775000Y-95512428D01*
X105203571Y-94988619D02*
X105251190Y-94941000D01*
X105346428Y-94893380D01*
X105584523Y-94893380D01*
X105679761Y-94941000D01*
X105727380Y-94988619D01*
X105775000Y-95083857D01*
X105775000Y-95179095D01*
X105727380Y-95321952D01*
X105155952Y-95893380D01*
X105775000Y-95893380D01*
X99394047Y-97019571D02*
X99060714Y-97019571D01*
X99060714Y-97543380D02*
X99060714Y-96543380D01*
X99536904Y-96543380D01*
X99917857Y-97543380D02*
X99917857Y-96876714D01*
X99917857Y-96543380D02*
X99870238Y-96591000D01*
X99917857Y-96638619D01*
X99965476Y-96591000D01*
X99917857Y-96543380D01*
X99917857Y-96638619D01*
X100775000Y-97495761D02*
X100679761Y-97543380D01*
X100489285Y-97543380D01*
X100394047Y-97495761D01*
X100346428Y-97400523D01*
X100346428Y-97019571D01*
X100394047Y-96924333D01*
X100489285Y-96876714D01*
X100679761Y-96876714D01*
X100775000Y-96924333D01*
X100822619Y-97019571D01*
X100822619Y-97114809D01*
X100346428Y-97210047D01*
X101394047Y-97543380D02*
X101298809Y-97495761D01*
X101251190Y-97400523D01*
X101251190Y-96543380D01*
X102203571Y-97543380D02*
X102203571Y-96543380D01*
X102203571Y-97495761D02*
X102108333Y-97543380D01*
X101917857Y-97543380D01*
X101822619Y-97495761D01*
X101775000Y-97448142D01*
X101727380Y-97352904D01*
X101727380Y-97067190D01*
X101775000Y-96971952D01*
X101822619Y-96924333D01*
X101917857Y-96876714D01*
X102108333Y-96876714D01*
X102203571Y-96924333D01*
X103298809Y-96876714D02*
X103679761Y-96876714D01*
X103441666Y-96543380D02*
X103441666Y-97400523D01*
X103489285Y-97495761D01*
X103584523Y-97543380D01*
X103679761Y-97543380D01*
X104155952Y-97543380D02*
X104060714Y-97495761D01*
X104013095Y-97448142D01*
X103965476Y-97352904D01*
X103965476Y-97067190D01*
X104013095Y-96971952D01*
X104060714Y-96924333D01*
X104155952Y-96876714D01*
X104298809Y-96876714D01*
X104394047Y-96924333D01*
X104441666Y-96971952D01*
X104489285Y-97067190D01*
X104489285Y-97352904D01*
X104441666Y-97448142D01*
X104394047Y-97495761D01*
X104298809Y-97543380D01*
X104155952Y-97543380D01*
X105632142Y-97495761D02*
X105775000Y-97543380D01*
X106013095Y-97543380D01*
X106108333Y-97495761D01*
X106155952Y-97448142D01*
X106203571Y-97352904D01*
X106203571Y-97257666D01*
X106155952Y-97162428D01*
X106108333Y-97114809D01*
X106013095Y-97067190D01*
X105822619Y-97019571D01*
X105727380Y-96971952D01*
X105679761Y-96924333D01*
X105632142Y-96829095D01*
X105632142Y-96733857D01*
X105679761Y-96638619D01*
X105727380Y-96591000D01*
X105822619Y-96543380D01*
X106060714Y-96543380D01*
X106203571Y-96591000D01*
X106536904Y-96876714D02*
X106775000Y-97543380D01*
X107013095Y-96876714D02*
X106775000Y-97543380D01*
X106679761Y-97781476D01*
X106632142Y-97829095D01*
X106536904Y-97876714D01*
X107346428Y-97495761D02*
X107441666Y-97543380D01*
X107632142Y-97543380D01*
X107727380Y-97495761D01*
X107775000Y-97400523D01*
X107775000Y-97352904D01*
X107727380Y-97257666D01*
X107632142Y-97210047D01*
X107489285Y-97210047D01*
X107394047Y-97162428D01*
X107346428Y-97067190D01*
X107346428Y-97019571D01*
X107394047Y-96924333D01*
X107489285Y-96876714D01*
X107632142Y-96876714D01*
X107727380Y-96924333D01*
X108060714Y-96876714D02*
X108441666Y-96876714D01*
X108203571Y-96543380D02*
X108203571Y-97400523D01*
X108251190Y-97495761D01*
X108346428Y-97543380D01*
X108441666Y-97543380D01*
X109155952Y-97495761D02*
X109060714Y-97543380D01*
X108870238Y-97543380D01*
X108775000Y-97495761D01*
X108727380Y-97400523D01*
X108727380Y-97019571D01*
X108775000Y-96924333D01*
X108870238Y-96876714D01*
X109060714Y-96876714D01*
X109155952Y-96924333D01*
X109203571Y-97019571D01*
X109203571Y-97114809D01*
X108727380Y-97210047D01*
X109632142Y-97543380D02*
X109632142Y-96876714D01*
X109632142Y-96971952D02*
X109679761Y-96924333D01*
X109775000Y-96876714D01*
X109917857Y-96876714D01*
X110013095Y-96924333D01*
X110060714Y-97019571D01*
X110060714Y-97543380D01*
X110060714Y-97019571D02*
X110108333Y-96924333D01*
X110203571Y-96876714D01*
X110346428Y-96876714D01*
X110441666Y-96924333D01*
X110489285Y-97019571D01*
X110489285Y-97543380D01*
X95147095Y-56570571D02*
X95480428Y-56570571D01*
X95623285Y-57094380D02*
X95147095Y-57094380D01*
X95147095Y-56094380D01*
X95623285Y-56094380D01*
X96051857Y-56427714D02*
X96051857Y-57094380D01*
X96051857Y-56522952D02*
X96099476Y-56475333D01*
X96194714Y-56427714D01*
X96337571Y-56427714D01*
X96432809Y-56475333D01*
X96480428Y-56570571D01*
X96480428Y-57094380D01*
X97385190Y-57094380D02*
X97385190Y-56570571D01*
X97337571Y-56475333D01*
X97242333Y-56427714D01*
X97051857Y-56427714D01*
X96956619Y-56475333D01*
X97385190Y-57046761D02*
X97289952Y-57094380D01*
X97051857Y-57094380D01*
X96956619Y-57046761D01*
X96909000Y-56951523D01*
X96909000Y-56856285D01*
X96956619Y-56761047D01*
X97051857Y-56713428D01*
X97289952Y-56713428D01*
X97385190Y-56665809D01*
X97861380Y-57094380D02*
X97861380Y-56094380D01*
X97861380Y-56475333D02*
X97956619Y-56427714D01*
X98147095Y-56427714D01*
X98242333Y-56475333D01*
X98289952Y-56522952D01*
X98337571Y-56618190D01*
X98337571Y-56903904D01*
X98289952Y-56999142D01*
X98242333Y-57046761D01*
X98147095Y-57094380D01*
X97956619Y-57094380D01*
X97861380Y-57046761D01*
X98909000Y-57094380D02*
X98813761Y-57046761D01*
X98766142Y-56951523D01*
X98766142Y-56094380D01*
X99670904Y-57046761D02*
X99575666Y-57094380D01*
X99385190Y-57094380D01*
X99289952Y-57046761D01*
X99242333Y-56951523D01*
X99242333Y-56570571D01*
X99289952Y-56475333D01*
X99385190Y-56427714D01*
X99575666Y-56427714D01*
X99670904Y-56475333D01*
X99718523Y-56570571D01*
X99718523Y-56665809D01*
X99242333Y-56761047D01*
X95893095Y-114879380D02*
X95321666Y-114879380D01*
X95607380Y-114879380D02*
X95607380Y-113879380D01*
X95512142Y-114022238D01*
X95416904Y-114117476D01*
X95321666Y-114165095D01*
X96226428Y-113879380D02*
X96464523Y-114879380D01*
X96655000Y-114165095D01*
X96845476Y-114879380D01*
X97083571Y-113879380D01*
X97464523Y-114879380D02*
X97464523Y-114212714D01*
X97464523Y-113879380D02*
X97416904Y-113927000D01*
X97464523Y-113974619D01*
X97512142Y-113927000D01*
X97464523Y-113879380D01*
X97464523Y-113974619D01*
X97940714Y-114879380D02*
X97940714Y-114212714D01*
X97940714Y-114403190D02*
X97988333Y-114307952D01*
X98035952Y-114260333D01*
X98131190Y-114212714D01*
X98226428Y-114212714D01*
X98940714Y-114831761D02*
X98845476Y-114879380D01*
X98655000Y-114879380D01*
X98559761Y-114831761D01*
X98512142Y-114736523D01*
X98512142Y-114355571D01*
X98559761Y-114260333D01*
X98655000Y-114212714D01*
X98845476Y-114212714D01*
X98940714Y-114260333D01*
X98988333Y-114355571D01*
X98988333Y-114450809D01*
X98512142Y-114546047D01*
X100489000Y-114498428D02*
X101250904Y-114498428D01*
X100869952Y-114879380D02*
X100869952Y-114117476D01*
X101631857Y-113879380D02*
X102250904Y-113879380D01*
X101917571Y-114260333D01*
X102060428Y-114260333D01*
X102155666Y-114307952D01*
X102203285Y-114355571D01*
X102250904Y-114450809D01*
X102250904Y-114688904D01*
X102203285Y-114784142D01*
X102155666Y-114831761D01*
X102060428Y-114879380D01*
X101774714Y-114879380D01*
X101679476Y-114831761D01*
X101631857Y-114784142D01*
X102679476Y-114784142D02*
X102727095Y-114831761D01*
X102679476Y-114879380D01*
X102631857Y-114831761D01*
X102679476Y-114784142D01*
X102679476Y-114879380D01*
X103060428Y-113879380D02*
X103679476Y-113879380D01*
X103346142Y-114260333D01*
X103489000Y-114260333D01*
X103584238Y-114307952D01*
X103631857Y-114355571D01*
X103679476Y-114450809D01*
X103679476Y-114688904D01*
X103631857Y-114784142D01*
X103584238Y-114831761D01*
X103489000Y-114879380D01*
X103203285Y-114879380D01*
X103108047Y-114831761D01*
X103060428Y-114784142D01*
X103965190Y-113879380D02*
X104298523Y-114879380D01*
X104631857Y-113879380D01*
X106807095Y-113927000D02*
X106711857Y-113879380D01*
X106569000Y-113879380D01*
X106426142Y-113927000D01*
X106330904Y-114022238D01*
X106283285Y-114117476D01*
X106235666Y-114307952D01*
X106235666Y-114450809D01*
X106283285Y-114641285D01*
X106330904Y-114736523D01*
X106426142Y-114831761D01*
X106569000Y-114879380D01*
X106664238Y-114879380D01*
X106807095Y-114831761D01*
X106854714Y-114784142D01*
X106854714Y-114450809D01*
X106664238Y-114450809D01*
X107283285Y-114879380D02*
X107283285Y-113879380D01*
X107854714Y-114879380D01*
X107854714Y-113879380D01*
X108330904Y-114879380D02*
X108330904Y-113879380D01*
X108569000Y-113879380D01*
X108711857Y-113927000D01*
X108807095Y-114022238D01*
X108854714Y-114117476D01*
X108902333Y-114307952D01*
X108902333Y-114450809D01*
X108854714Y-114641285D01*
X108807095Y-114736523D01*
X108711857Y-114831761D01*
X108569000Y-114879380D01*
X108330904Y-114879380D01*
X110641000Y-114879380D02*
X110641000Y-113879380D01*
X110879095Y-113879380D01*
X111021952Y-113927000D01*
X111117190Y-114022238D01*
X111164809Y-114117476D01*
X111212428Y-114307952D01*
X111212428Y-114450809D01*
X111164809Y-114641285D01*
X111117190Y-114736523D01*
X111021952Y-114831761D01*
X110879095Y-114879380D01*
X110641000Y-114879380D01*
X111593380Y-114593666D02*
X112069571Y-114593666D01*
X111498142Y-114879380D02*
X111831476Y-113879380D01*
X112164809Y-114879380D01*
X112355285Y-113879380D02*
X112926714Y-113879380D01*
X112641000Y-114879380D02*
X112641000Y-113879380D01*
X113212428Y-114593666D02*
X113688619Y-114593666D01*
X113117190Y-114879380D02*
X113450523Y-113879380D01*
X113783857Y-114879380D01*
X82780714Y-56062619D02*
X82828333Y-56015000D01*
X82923571Y-55967380D01*
X83161666Y-55967380D01*
X83256904Y-56015000D01*
X83304523Y-56062619D01*
X83352142Y-56157857D01*
X83352142Y-56253095D01*
X83304523Y-56395952D01*
X82733095Y-56967380D01*
X83352142Y-56967380D01*
X84209285Y-56300714D02*
X84209285Y-56967380D01*
X83971190Y-55919761D02*
X83733095Y-56634047D01*
X84352142Y-56634047D01*
X84590238Y-55967380D02*
X84923571Y-56967380D01*
X85256904Y-55967380D01*
X86304523Y-56919761D02*
X86447380Y-56967380D01*
X86685476Y-56967380D01*
X86780714Y-56919761D01*
X86828333Y-56872142D01*
X86875952Y-56776904D01*
X86875952Y-56681666D01*
X86828333Y-56586428D01*
X86780714Y-56538809D01*
X86685476Y-56491190D01*
X86495000Y-56443571D01*
X86399761Y-56395952D01*
X86352142Y-56348333D01*
X86304523Y-56253095D01*
X86304523Y-56157857D01*
X86352142Y-56062619D01*
X86399761Y-56015000D01*
X86495000Y-55967380D01*
X86733095Y-55967380D01*
X86875952Y-56015000D01*
X87209285Y-56300714D02*
X87447380Y-56967380D01*
X87685476Y-56300714D02*
X87447380Y-56967380D01*
X87352142Y-57205476D01*
X87304523Y-57253095D01*
X87209285Y-57300714D01*
X88018809Y-56919761D02*
X88114047Y-56967380D01*
X88304523Y-56967380D01*
X88399761Y-56919761D01*
X88447380Y-56824523D01*
X88447380Y-56776904D01*
X88399761Y-56681666D01*
X88304523Y-56634047D01*
X88161666Y-56634047D01*
X88066428Y-56586428D01*
X88018809Y-56491190D01*
X88018809Y-56443571D01*
X88066428Y-56348333D01*
X88161666Y-56300714D01*
X88304523Y-56300714D01*
X88399761Y-56348333D01*
X88733095Y-56300714D02*
X89114047Y-56300714D01*
X88875952Y-55967380D02*
X88875952Y-56824523D01*
X88923571Y-56919761D01*
X89018809Y-56967380D01*
X89114047Y-56967380D01*
X89828333Y-56919761D02*
X89733095Y-56967380D01*
X89542619Y-56967380D01*
X89447380Y-56919761D01*
X89399761Y-56824523D01*
X89399761Y-56443571D01*
X89447380Y-56348333D01*
X89542619Y-56300714D01*
X89733095Y-56300714D01*
X89828333Y-56348333D01*
X89875952Y-56443571D01*
X89875952Y-56538809D01*
X89399761Y-56634047D01*
X90304523Y-56967380D02*
X90304523Y-56300714D01*
X90304523Y-56395952D02*
X90352142Y-56348333D01*
X90447380Y-56300714D01*
X90590238Y-56300714D01*
X90685476Y-56348333D01*
X90733095Y-56443571D01*
X90733095Y-56967380D01*
X90733095Y-56443571D02*
X90780714Y-56348333D01*
X90875952Y-56300714D01*
X91018809Y-56300714D01*
X91114047Y-56348333D01*
X91161666Y-56443571D01*
X91161666Y-56967380D01*
X73454047Y-56062619D02*
X73501666Y-56015000D01*
X73596904Y-55967380D01*
X73835000Y-55967380D01*
X73930238Y-56015000D01*
X73977857Y-56062619D01*
X74025476Y-56157857D01*
X74025476Y-56253095D01*
X73977857Y-56395952D01*
X73406428Y-56967380D01*
X74025476Y-56967380D01*
X74882619Y-56300714D02*
X74882619Y-56967380D01*
X74644523Y-55919761D02*
X74406428Y-56634047D01*
X75025476Y-56634047D01*
X75263571Y-55967380D02*
X75596904Y-56967380D01*
X75930238Y-55967380D01*
X77358809Y-56443571D02*
X77025476Y-56443571D01*
X77025476Y-56967380D02*
X77025476Y-55967380D01*
X77501666Y-55967380D01*
X77882619Y-56967380D02*
X77882619Y-56300714D01*
X77882619Y-55967380D02*
X77835000Y-56015000D01*
X77882619Y-56062619D01*
X77930238Y-56015000D01*
X77882619Y-55967380D01*
X77882619Y-56062619D01*
X78739761Y-56919761D02*
X78644523Y-56967380D01*
X78454047Y-56967380D01*
X78358809Y-56919761D01*
X78311190Y-56824523D01*
X78311190Y-56443571D01*
X78358809Y-56348333D01*
X78454047Y-56300714D01*
X78644523Y-56300714D01*
X78739761Y-56348333D01*
X78787380Y-56443571D01*
X78787380Y-56538809D01*
X78311190Y-56634047D01*
X79358809Y-56967380D02*
X79263571Y-56919761D01*
X79215952Y-56824523D01*
X79215952Y-55967380D01*
X80168333Y-56967380D02*
X80168333Y-55967380D01*
X80168333Y-56919761D02*
X80073095Y-56967380D01*
X79882619Y-56967380D01*
X79787380Y-56919761D01*
X79739761Y-56872142D01*
X79692142Y-56776904D01*
X79692142Y-56491190D01*
X79739761Y-56395952D01*
X79787380Y-56348333D01*
X79882619Y-56300714D01*
X80073095Y-56300714D01*
X80168333Y-56348333D01*
X116983000Y-122435380D02*
X116983000Y-121435380D01*
X117649666Y-121435380D02*
X117840142Y-121435380D01*
X117935380Y-121483000D01*
X118030619Y-121578238D01*
X118078238Y-121768714D01*
X118078238Y-122102047D01*
X118030619Y-122292523D01*
X117935380Y-122387761D01*
X117840142Y-122435380D01*
X117649666Y-122435380D01*
X117554428Y-122387761D01*
X117459190Y-122292523D01*
X117411571Y-122102047D01*
X117411571Y-121768714D01*
X117459190Y-121578238D01*
X117554428Y-121483000D01*
X117649666Y-121435380D01*
X118935380Y-121768714D02*
X118935380Y-122435380D01*
X118697285Y-121387761D02*
X118459190Y-122102047D01*
X119078238Y-122102047D01*
X116983000Y-119578380D02*
X116983000Y-118578380D01*
X117649666Y-118578380D02*
X117840142Y-118578380D01*
X117935380Y-118626000D01*
X118030619Y-118721238D01*
X118078238Y-118911714D01*
X118078238Y-119245047D01*
X118030619Y-119435523D01*
X117935380Y-119530761D01*
X117840142Y-119578380D01*
X117649666Y-119578380D01*
X117554428Y-119530761D01*
X117459190Y-119435523D01*
X117411571Y-119245047D01*
X117411571Y-118911714D01*
X117459190Y-118721238D01*
X117554428Y-118626000D01*
X117649666Y-118578380D01*
X118983000Y-118578380D02*
X118506809Y-118578380D01*
X118459190Y-119054571D01*
X118506809Y-119006952D01*
X118602047Y-118959333D01*
X118840142Y-118959333D01*
X118935380Y-119006952D01*
X118983000Y-119054571D01*
X119030619Y-119149809D01*
X119030619Y-119387904D01*
X118983000Y-119483142D01*
X118935380Y-119530761D01*
X118840142Y-119578380D01*
X118602047Y-119578380D01*
X118506809Y-119530761D01*
X118459190Y-119483142D01*
X115998809Y-117038380D02*
X115998809Y-116038380D01*
X116665476Y-116038380D02*
X116855952Y-116038380D01*
X116951190Y-116086000D01*
X117046428Y-116181238D01*
X117094047Y-116371714D01*
X117094047Y-116705047D01*
X117046428Y-116895523D01*
X116951190Y-116990761D01*
X116855952Y-117038380D01*
X116665476Y-117038380D01*
X116570238Y-116990761D01*
X116475000Y-116895523D01*
X116427380Y-116705047D01*
X116427380Y-116371714D01*
X116475000Y-116181238D01*
X116570238Y-116086000D01*
X116665476Y-116038380D01*
X118046428Y-117038380D02*
X117475000Y-117038380D01*
X117760714Y-117038380D02*
X117760714Y-116038380D01*
X117665476Y-116181238D01*
X117570238Y-116276476D01*
X117475000Y-116324095D01*
X118903571Y-116371714D02*
X118903571Y-117038380D01*
X118665476Y-115990761D02*
X118427380Y-116705047D01*
X119046428Y-116705047D01*
X115998809Y-114498380D02*
X115998809Y-113498380D01*
X116665476Y-113498380D02*
X116855952Y-113498380D01*
X116951190Y-113546000D01*
X117046428Y-113641238D01*
X117094047Y-113831714D01*
X117094047Y-114165047D01*
X117046428Y-114355523D01*
X116951190Y-114450761D01*
X116855952Y-114498380D01*
X116665476Y-114498380D01*
X116570238Y-114450761D01*
X116475000Y-114355523D01*
X116427380Y-114165047D01*
X116427380Y-113831714D01*
X116475000Y-113641238D01*
X116570238Y-113546000D01*
X116665476Y-113498380D01*
X118046428Y-114498380D02*
X117475000Y-114498380D01*
X117760714Y-114498380D02*
X117760714Y-113498380D01*
X117665476Y-113641238D01*
X117570238Y-113736476D01*
X117475000Y-113784095D01*
X118951190Y-113498380D02*
X118475000Y-113498380D01*
X118427380Y-113974571D01*
X118475000Y-113926952D01*
X118570238Y-113879333D01*
X118808333Y-113879333D01*
X118903571Y-113926952D01*
X118951190Y-113974571D01*
X118998809Y-114069809D01*
X118998809Y-114307904D01*
X118951190Y-114403142D01*
X118903571Y-114450761D01*
X118808333Y-114498380D01*
X118570238Y-114498380D01*
X118475000Y-114450761D01*
X118427380Y-114403142D01*
X115998809Y-111958380D02*
X115998809Y-110958380D01*
X116665476Y-110958380D02*
X116855952Y-110958380D01*
X116951190Y-111006000D01*
X117046428Y-111101238D01*
X117094047Y-111291714D01*
X117094047Y-111625047D01*
X117046428Y-111815523D01*
X116951190Y-111910761D01*
X116855952Y-111958380D01*
X116665476Y-111958380D01*
X116570238Y-111910761D01*
X116475000Y-111815523D01*
X116427380Y-111625047D01*
X116427380Y-111291714D01*
X116475000Y-111101238D01*
X116570238Y-111006000D01*
X116665476Y-110958380D01*
X117427380Y-110958380D02*
X118046428Y-110958380D01*
X117713095Y-111339333D01*
X117855952Y-111339333D01*
X117951190Y-111386952D01*
X117998809Y-111434571D01*
X118046428Y-111529809D01*
X118046428Y-111767904D01*
X117998809Y-111863142D01*
X117951190Y-111910761D01*
X117855952Y-111958380D01*
X117570238Y-111958380D01*
X117475000Y-111910761D01*
X117427380Y-111863142D01*
X118951190Y-110958380D02*
X118475000Y-110958380D01*
X118427380Y-111434571D01*
X118475000Y-111386952D01*
X118570238Y-111339333D01*
X118808333Y-111339333D01*
X118903571Y-111386952D01*
X118951190Y-111434571D01*
X118998809Y-111529809D01*
X118998809Y-111767904D01*
X118951190Y-111863142D01*
X118903571Y-111910761D01*
X118808333Y-111958380D01*
X118570238Y-111958380D01*
X118475000Y-111910761D01*
X118427380Y-111863142D01*
X115998809Y-109418380D02*
X115998809Y-108418380D01*
X116665476Y-108418380D02*
X116855952Y-108418380D01*
X116951190Y-108466000D01*
X117046428Y-108561238D01*
X117094047Y-108751714D01*
X117094047Y-109085047D01*
X117046428Y-109275523D01*
X116951190Y-109370761D01*
X116855952Y-109418380D01*
X116665476Y-109418380D01*
X116570238Y-109370761D01*
X116475000Y-109275523D01*
X116427380Y-109085047D01*
X116427380Y-108751714D01*
X116475000Y-108561238D01*
X116570238Y-108466000D01*
X116665476Y-108418380D01*
X117427380Y-108418380D02*
X118046428Y-108418380D01*
X117713095Y-108799333D01*
X117855952Y-108799333D01*
X117951190Y-108846952D01*
X117998809Y-108894571D01*
X118046428Y-108989809D01*
X118046428Y-109227904D01*
X117998809Y-109323142D01*
X117951190Y-109370761D01*
X117855952Y-109418380D01*
X117570238Y-109418380D01*
X117475000Y-109370761D01*
X117427380Y-109323142D01*
X118903571Y-108418380D02*
X118713095Y-108418380D01*
X118617857Y-108466000D01*
X118570238Y-108513619D01*
X118475000Y-108656476D01*
X118427380Y-108846952D01*
X118427380Y-109227904D01*
X118475000Y-109323142D01*
X118522619Y-109370761D01*
X118617857Y-109418380D01*
X118808333Y-109418380D01*
X118903571Y-109370761D01*
X118951190Y-109323142D01*
X118998809Y-109227904D01*
X118998809Y-108989809D01*
X118951190Y-108894571D01*
X118903571Y-108846952D01*
X118808333Y-108799333D01*
X118617857Y-108799333D01*
X118522619Y-108846952D01*
X118475000Y-108894571D01*
X118427380Y-108989809D01*
X116792523Y-99591761D02*
X116935380Y-99639380D01*
X117173476Y-99639380D01*
X117268714Y-99591761D01*
X117316333Y-99544142D01*
X117363952Y-99448904D01*
X117363952Y-99353666D01*
X117316333Y-99258428D01*
X117268714Y-99210809D01*
X117173476Y-99163190D01*
X116983000Y-99115571D01*
X116887761Y-99067952D01*
X116840142Y-99020333D01*
X116792523Y-98925095D01*
X116792523Y-98829857D01*
X116840142Y-98734619D01*
X116887761Y-98687000D01*
X116983000Y-98639380D01*
X117221095Y-98639380D01*
X117363952Y-98687000D01*
X118363952Y-99544142D02*
X118316333Y-99591761D01*
X118173476Y-99639380D01*
X118078238Y-99639380D01*
X117935380Y-99591761D01*
X117840142Y-99496523D01*
X117792523Y-99401285D01*
X117744904Y-99210809D01*
X117744904Y-99067952D01*
X117792523Y-98877476D01*
X117840142Y-98782238D01*
X117935380Y-98687000D01*
X118078238Y-98639380D01*
X118173476Y-98639380D01*
X118316333Y-98687000D01*
X118363952Y-98734619D01*
X119268714Y-99639380D02*
X118792523Y-99639380D01*
X118792523Y-98639380D01*
X116768714Y-97051761D02*
X116911571Y-97099380D01*
X117149666Y-97099380D01*
X117244904Y-97051761D01*
X117292523Y-97004142D01*
X117340142Y-96908904D01*
X117340142Y-96813666D01*
X117292523Y-96718428D01*
X117244904Y-96670809D01*
X117149666Y-96623190D01*
X116959190Y-96575571D01*
X116863952Y-96527952D01*
X116816333Y-96480333D01*
X116768714Y-96385095D01*
X116768714Y-96289857D01*
X116816333Y-96194619D01*
X116863952Y-96147000D01*
X116959190Y-96099380D01*
X117197285Y-96099380D01*
X117340142Y-96147000D01*
X117768714Y-97099380D02*
X117768714Y-96099380D01*
X118006809Y-96099380D01*
X118149666Y-96147000D01*
X118244904Y-96242238D01*
X118292523Y-96337476D01*
X118340142Y-96527952D01*
X118340142Y-96670809D01*
X118292523Y-96861285D01*
X118244904Y-96956523D01*
X118149666Y-97051761D01*
X118006809Y-97099380D01*
X117768714Y-97099380D01*
X118721095Y-96813666D02*
X119197285Y-96813666D01*
X118625857Y-97099380D02*
X118959190Y-96099380D01*
X119292523Y-97099380D01*
X117221095Y-93607000D02*
X117125857Y-93559380D01*
X116983000Y-93559380D01*
X116840142Y-93607000D01*
X116744904Y-93702238D01*
X116697285Y-93797476D01*
X116649666Y-93987952D01*
X116649666Y-94130809D01*
X116697285Y-94321285D01*
X116744904Y-94416523D01*
X116840142Y-94511761D01*
X116983000Y-94559380D01*
X117078238Y-94559380D01*
X117221095Y-94511761D01*
X117268714Y-94464142D01*
X117268714Y-94130809D01*
X117078238Y-94130809D01*
X117697285Y-94559380D02*
X117697285Y-93559380D01*
X118268714Y-94559380D01*
X118268714Y-93559380D01*
X118744904Y-94559380D02*
X118744904Y-93559380D01*
X118983000Y-93559380D01*
X119125857Y-93607000D01*
X119221095Y-93702238D01*
X119268714Y-93797476D01*
X119316333Y-93987952D01*
X119316333Y-94130809D01*
X119268714Y-94321285D01*
X119221095Y-94416523D01*
X119125857Y-94511761D01*
X118983000Y-94559380D01*
X118744904Y-94559380D01*
X116506809Y-91019380D02*
X117125857Y-91019380D01*
X116792523Y-91400333D01*
X116935380Y-91400333D01*
X117030619Y-91447952D01*
X117078238Y-91495571D01*
X117125857Y-91590809D01*
X117125857Y-91828904D01*
X117078238Y-91924142D01*
X117030619Y-91971761D01*
X116935380Y-92019380D01*
X116649666Y-92019380D01*
X116554428Y-91971761D01*
X116506809Y-91924142D01*
X117554428Y-91924142D02*
X117602047Y-91971761D01*
X117554428Y-92019380D01*
X117506809Y-91971761D01*
X117554428Y-91924142D01*
X117554428Y-92019380D01*
X117935380Y-91019380D02*
X118554428Y-91019380D01*
X118221095Y-91400333D01*
X118363952Y-91400333D01*
X118459190Y-91447952D01*
X118506809Y-91495571D01*
X118554428Y-91590809D01*
X118554428Y-91828904D01*
X118506809Y-91924142D01*
X118459190Y-91971761D01*
X118363952Y-92019380D01*
X118078238Y-92019380D01*
X117983000Y-91971761D01*
X117935380Y-91924142D01*
X118840142Y-91019380D02*
X119173476Y-92019380D01*
X119506809Y-91019380D01*
X114379666Y-88527000D02*
X114284428Y-88479380D01*
X114141571Y-88479380D01*
X113998714Y-88527000D01*
X113903476Y-88622238D01*
X113855857Y-88717476D01*
X113808238Y-88907952D01*
X113808238Y-89050809D01*
X113855857Y-89241285D01*
X113903476Y-89336523D01*
X113998714Y-89431761D01*
X114141571Y-89479380D01*
X114236809Y-89479380D01*
X114379666Y-89431761D01*
X114427285Y-89384142D01*
X114427285Y-89050809D01*
X114236809Y-89050809D01*
X114855857Y-89479380D02*
X114855857Y-88479380D01*
X115427285Y-89479380D01*
X115427285Y-88479380D01*
X115903476Y-89479380D02*
X115903476Y-88479380D01*
X116141571Y-88479380D01*
X116284428Y-88527000D01*
X116379666Y-88622238D01*
X116427285Y-88717476D01*
X116474904Y-88907952D01*
X116474904Y-89050809D01*
X116427285Y-89241285D01*
X116379666Y-89336523D01*
X116284428Y-89431761D01*
X116141571Y-89479380D01*
X115903476Y-89479380D01*
X116903476Y-89479380D02*
X116903476Y-88479380D01*
X117284428Y-88479380D01*
X117379666Y-88527000D01*
X117427285Y-88574619D01*
X117474904Y-88669857D01*
X117474904Y-88812714D01*
X117427285Y-88907952D01*
X117379666Y-88955571D01*
X117284428Y-89003190D01*
X116903476Y-89003190D01*
X117808238Y-88479380D02*
X118046333Y-89479380D01*
X118236809Y-88765095D01*
X118427285Y-89479380D01*
X118665380Y-88479380D01*
X119617761Y-89479380D02*
X119284428Y-89003190D01*
X119046333Y-89479380D02*
X119046333Y-88479380D01*
X119427285Y-88479380D01*
X119522523Y-88527000D01*
X119570142Y-88574619D01*
X119617761Y-88669857D01*
X119617761Y-88812714D01*
X119570142Y-88907952D01*
X119522523Y-88955571D01*
X119427285Y-89003190D01*
X119046333Y-89003190D01*
X116792523Y-86034619D02*
X116840142Y-85987000D01*
X116935380Y-85939380D01*
X117173476Y-85939380D01*
X117268714Y-85987000D01*
X117316333Y-86034619D01*
X117363952Y-86129857D01*
X117363952Y-86225095D01*
X117316333Y-86367952D01*
X116744904Y-86939380D01*
X117363952Y-86939380D01*
X118221095Y-86272714D02*
X118221095Y-86939380D01*
X117983000Y-85891761D02*
X117744904Y-86606047D01*
X118363952Y-86606047D01*
X118602047Y-85939380D02*
X118935380Y-86939380D01*
X119268714Y-85939380D01*
D11*
X111252000Y-62230000D02*
X131572000Y-62230000D01*
X111252000Y-105537000D02*
X111252000Y-62230000D01*
X131572000Y-105537000D02*
X111252000Y-105537000D01*
X131572000Y-62230000D02*
X131572000Y-105537000D01*
X112522000Y-95250000D02*
X112522000Y-83820000D01*
X112522000Y-83820000D02*
X125222000Y-83820000D01*
X125222000Y-83820000D02*
X125222000Y-95250000D01*
X125222000Y-95250000D02*
X112522000Y-95250000D01*
X130302000Y-95250000D02*
X130302000Y-86360000D01*
X130302000Y-86360000D02*
X126492000Y-86360000D01*
X126492000Y-86360000D02*
X126492000Y-95250000D01*
X126492000Y-95250000D02*
X130302000Y-95250000D01*
X130302000Y-72390000D02*
X130302000Y-82550000D01*
X130302000Y-82550000D02*
X118872000Y-82550000D01*
X118872000Y-82550000D02*
X118872000Y-72390000D01*
X118872000Y-72390000D02*
X130302000Y-72390000D01*
X129794000Y-87630000D02*
G75*
G03*
X129794000Y-87630000I-762000J0D01*
G01*
X92202000Y-130048000D02*
X75692000Y-130048000D01*
X92202000Y-109093000D02*
X92202000Y-130048000D01*
X75692000Y-109093000D02*
X92202000Y-109093000D01*
X75692000Y-130048000D02*
X75692000Y-109093000D01*
X95377000Y-69723000D02*
X72517000Y-69723000D01*
X96647000Y-123698000D02*
X96647000Y-70993000D01*
X72517000Y-124968000D02*
X95377000Y-124968000D01*
X71247000Y-70993000D02*
X71247000Y-123698000D01*
X95377000Y-69723000D02*
G75*
G02*
X96647000Y-70993000I0J-1270000D01*
G01*
X71247000Y-70993000D02*
G75*
G02*
X72517000Y-69723000I1270000J0D01*
G01*
X96647000Y-123698000D02*
G75*
G02*
X95377000Y-124968000I-1270000J0D01*
G01*
X72517000Y-124968000D02*
G75*
G02*
X71247000Y-123698000I0J1270000D01*
G01*
X93213000Y-71009000D02*
X93213000Y-69239000D01*
X93213000Y-69239000D02*
X84613000Y-69239000D01*
X84613000Y-69239000D02*
X84613000Y-74779000D01*
X84613000Y-74779000D02*
X93213000Y-74779000D01*
X93213000Y-74779000D02*
X93213000Y-73009000D01*
X93213000Y-73009000D02*
G75*
G02*
X93213000Y-71009000I0J1000000D01*
G01*
X83815000Y-71009000D02*
X83815000Y-69239000D01*
X83815000Y-69239000D02*
X75215000Y-69239000D01*
X75215000Y-69239000D02*
X75215000Y-74779000D01*
X75215000Y-74779000D02*
X83815000Y-74779000D01*
X83815000Y-74779000D02*
X83815000Y-73009000D01*
X83815000Y-73009000D02*
G75*
G02*
X83815000Y-71009000I0J1000000D01*
G01*
X99672000Y-67968000D02*
X99672000Y-75208000D01*
X97432000Y-67968000D02*
X97432000Y-75208000D01*
X99672000Y-67968000D02*
X97432000Y-67968000D01*
X99672000Y-75208000D02*
X97432000Y-75208000D01*
X68095000Y-74780000D02*
X68095000Y-67540000D01*
X70335000Y-74780000D02*
X70335000Y-67540000D01*
X68095000Y-74780000D02*
X70335000Y-74780000D01*
X68095000Y-67540000D02*
X70335000Y-67540000D01*
X106252000Y-69957000D02*
G75*
G03*
X106252000Y-69957000I-2620000J0D01*
G01*
X106212000Y-69957000D02*
X101052000Y-69957000D01*
X106212000Y-69997000D02*
X101052000Y-69997000D01*
X106211000Y-70037000D02*
X101053000Y-70037000D01*
X106210000Y-70077000D02*
X101054000Y-70077000D01*
X106208000Y-70117000D02*
X101056000Y-70117000D01*
X106205000Y-70157000D02*
X101059000Y-70157000D01*
X106201000Y-70197000D02*
X104672000Y-70197000D01*
X102592000Y-70197000D02*
X101063000Y-70197000D01*
X106197000Y-70237000D02*
X104672000Y-70237000D01*
X102592000Y-70237000D02*
X101067000Y-70237000D01*
X106193000Y-70277000D02*
X104672000Y-70277000D01*
X102592000Y-70277000D02*
X101071000Y-70277000D01*
X106188000Y-70317000D02*
X104672000Y-70317000D01*
X102592000Y-70317000D02*
X101076000Y-70317000D01*
X106182000Y-70357000D02*
X104672000Y-70357000D01*
X102592000Y-70357000D02*
X101082000Y-70357000D01*
X106175000Y-70397000D02*
X104672000Y-70397000D01*
X102592000Y-70397000D02*
X101089000Y-70397000D01*
X106168000Y-70437000D02*
X104672000Y-70437000D01*
X102592000Y-70437000D02*
X101096000Y-70437000D01*
X106160000Y-70477000D02*
X104672000Y-70477000D01*
X102592000Y-70477000D02*
X101104000Y-70477000D01*
X106152000Y-70517000D02*
X104672000Y-70517000D01*
X102592000Y-70517000D02*
X101112000Y-70517000D01*
X106143000Y-70557000D02*
X104672000Y-70557000D01*
X102592000Y-70557000D02*
X101121000Y-70557000D01*
X106133000Y-70597000D02*
X104672000Y-70597000D01*
X102592000Y-70597000D02*
X101131000Y-70597000D01*
X106123000Y-70637000D02*
X104672000Y-70637000D01*
X102592000Y-70637000D02*
X101141000Y-70637000D01*
X106112000Y-70678000D02*
X104672000Y-70678000D01*
X102592000Y-70678000D02*
X101152000Y-70678000D01*
X106100000Y-70718000D02*
X104672000Y-70718000D01*
X102592000Y-70718000D02*
X101164000Y-70718000D01*
X106087000Y-70758000D02*
X104672000Y-70758000D01*
X102592000Y-70758000D02*
X101177000Y-70758000D01*
X106074000Y-70798000D02*
X104672000Y-70798000D01*
X102592000Y-70798000D02*
X101190000Y-70798000D01*
X106060000Y-70838000D02*
X104672000Y-70838000D01*
X102592000Y-70838000D02*
X101204000Y-70838000D01*
X106046000Y-70878000D02*
X104672000Y-70878000D01*
X102592000Y-70878000D02*
X101218000Y-70878000D01*
X106030000Y-70918000D02*
X104672000Y-70918000D01*
X102592000Y-70918000D02*
X101234000Y-70918000D01*
X106014000Y-70958000D02*
X104672000Y-70958000D01*
X102592000Y-70958000D02*
X101250000Y-70958000D01*
X105997000Y-70998000D02*
X104672000Y-70998000D01*
X102592000Y-70998000D02*
X101267000Y-70998000D01*
X105980000Y-71038000D02*
X104672000Y-71038000D01*
X102592000Y-71038000D02*
X101284000Y-71038000D01*
X105961000Y-71078000D02*
X104672000Y-71078000D01*
X102592000Y-71078000D02*
X101303000Y-71078000D01*
X105942000Y-71118000D02*
X104672000Y-71118000D01*
X102592000Y-71118000D02*
X101322000Y-71118000D01*
X105922000Y-71158000D02*
X104672000Y-71158000D01*
X102592000Y-71158000D02*
X101342000Y-71158000D01*
X105900000Y-71198000D02*
X104672000Y-71198000D01*
X102592000Y-71198000D02*
X101364000Y-71198000D01*
X105879000Y-71238000D02*
X104672000Y-71238000D01*
X102592000Y-71238000D02*
X101385000Y-71238000D01*
X105856000Y-71278000D02*
X104672000Y-71278000D01*
X102592000Y-71278000D02*
X101408000Y-71278000D01*
X105832000Y-71318000D02*
X104672000Y-71318000D01*
X102592000Y-71318000D02*
X101432000Y-71318000D01*
X105807000Y-71358000D02*
X104672000Y-71358000D01*
X102592000Y-71358000D02*
X101457000Y-71358000D01*
X105781000Y-71398000D02*
X104672000Y-71398000D01*
X102592000Y-71398000D02*
X101483000Y-71398000D01*
X105754000Y-71438000D02*
X104672000Y-71438000D01*
X102592000Y-71438000D02*
X101510000Y-71438000D01*
X105727000Y-71478000D02*
X104672000Y-71478000D01*
X102592000Y-71478000D02*
X101537000Y-71478000D01*
X105697000Y-71518000D02*
X104672000Y-71518000D01*
X102592000Y-71518000D02*
X101567000Y-71518000D01*
X105667000Y-71558000D02*
X104672000Y-71558000D01*
X102592000Y-71558000D02*
X101597000Y-71558000D01*
X105636000Y-71598000D02*
X104672000Y-71598000D01*
X102592000Y-71598000D02*
X101628000Y-71598000D01*
X105603000Y-71638000D02*
X104672000Y-71638000D01*
X102592000Y-71638000D02*
X101661000Y-71638000D01*
X105569000Y-71678000D02*
X104672000Y-71678000D01*
X102592000Y-71678000D02*
X101695000Y-71678000D01*
X105533000Y-71718000D02*
X104672000Y-71718000D01*
X102592000Y-71718000D02*
X101731000Y-71718000D01*
X105496000Y-71758000D02*
X104672000Y-71758000D01*
X102592000Y-71758000D02*
X101768000Y-71758000D01*
X105458000Y-71798000D02*
X104672000Y-71798000D01*
X102592000Y-71798000D02*
X101806000Y-71798000D01*
X105417000Y-71838000D02*
X104672000Y-71838000D01*
X102592000Y-71838000D02*
X101847000Y-71838000D01*
X105375000Y-71878000D02*
X104672000Y-71878000D01*
X102592000Y-71878000D02*
X101889000Y-71878000D01*
X105331000Y-71918000D02*
X104672000Y-71918000D01*
X102592000Y-71918000D02*
X101933000Y-71918000D01*
X105285000Y-71958000D02*
X104672000Y-71958000D01*
X102592000Y-71958000D02*
X101979000Y-71958000D01*
X105237000Y-71998000D02*
X104672000Y-71998000D01*
X102592000Y-71998000D02*
X102027000Y-71998000D01*
X105186000Y-72038000D02*
X104672000Y-72038000D01*
X102592000Y-72038000D02*
X102078000Y-72038000D01*
X105132000Y-72078000D02*
X104672000Y-72078000D01*
X102592000Y-72078000D02*
X102132000Y-72078000D01*
X105075000Y-72118000D02*
X104672000Y-72118000D01*
X102592000Y-72118000D02*
X102189000Y-72118000D01*
X105015000Y-72158000D02*
X104672000Y-72158000D01*
X102592000Y-72158000D02*
X102249000Y-72158000D01*
X104951000Y-72198000D02*
X104672000Y-72198000D01*
X102592000Y-72198000D02*
X102313000Y-72198000D01*
X104883000Y-72238000D02*
X104672000Y-72238000D01*
X102592000Y-72238000D02*
X102381000Y-72238000D01*
X104810000Y-72278000D02*
X102454000Y-72278000D01*
X104730000Y-72318000D02*
X102534000Y-72318000D01*
X104643000Y-72358000D02*
X102621000Y-72358000D01*
X104547000Y-72398000D02*
X102717000Y-72398000D01*
X104437000Y-72438000D02*
X102827000Y-72438000D01*
X104309000Y-72478000D02*
X102955000Y-72478000D01*
X104150000Y-72518000D02*
X103114000Y-72518000D01*
X103916000Y-72558000D02*
X103348000Y-72558000D01*
X105107000Y-67152225D02*
X105107000Y-67652225D01*
X105357000Y-67402225D02*
X104857000Y-67402225D01*
X106252000Y-76180000D02*
G75*
G03*
X106252000Y-76180000I-2620000J0D01*
G01*
X106212000Y-76180000D02*
X101052000Y-76180000D01*
X106212000Y-76220000D02*
X101052000Y-76220000D01*
X106211000Y-76260000D02*
X101053000Y-76260000D01*
X106210000Y-76300000D02*
X101054000Y-76300000D01*
X106208000Y-76340000D02*
X101056000Y-76340000D01*
X106205000Y-76380000D02*
X101059000Y-76380000D01*
X106201000Y-76420000D02*
X104672000Y-76420000D01*
X102592000Y-76420000D02*
X101063000Y-76420000D01*
X106197000Y-76460000D02*
X104672000Y-76460000D01*
X102592000Y-76460000D02*
X101067000Y-76460000D01*
X106193000Y-76500000D02*
X104672000Y-76500000D01*
X102592000Y-76500000D02*
X101071000Y-76500000D01*
X106188000Y-76540000D02*
X104672000Y-76540000D01*
X102592000Y-76540000D02*
X101076000Y-76540000D01*
X106182000Y-76580000D02*
X104672000Y-76580000D01*
X102592000Y-76580000D02*
X101082000Y-76580000D01*
X106175000Y-76620000D02*
X104672000Y-76620000D01*
X102592000Y-76620000D02*
X101089000Y-76620000D01*
X106168000Y-76660000D02*
X104672000Y-76660000D01*
X102592000Y-76660000D02*
X101096000Y-76660000D01*
X106160000Y-76700000D02*
X104672000Y-76700000D01*
X102592000Y-76700000D02*
X101104000Y-76700000D01*
X106152000Y-76740000D02*
X104672000Y-76740000D01*
X102592000Y-76740000D02*
X101112000Y-76740000D01*
X106143000Y-76780000D02*
X104672000Y-76780000D01*
X102592000Y-76780000D02*
X101121000Y-76780000D01*
X106133000Y-76820000D02*
X104672000Y-76820000D01*
X102592000Y-76820000D02*
X101131000Y-76820000D01*
X106123000Y-76860000D02*
X104672000Y-76860000D01*
X102592000Y-76860000D02*
X101141000Y-76860000D01*
X106112000Y-76901000D02*
X104672000Y-76901000D01*
X102592000Y-76901000D02*
X101152000Y-76901000D01*
X106100000Y-76941000D02*
X104672000Y-76941000D01*
X102592000Y-76941000D02*
X101164000Y-76941000D01*
X106087000Y-76981000D02*
X104672000Y-76981000D01*
X102592000Y-76981000D02*
X101177000Y-76981000D01*
X106074000Y-77021000D02*
X104672000Y-77021000D01*
X102592000Y-77021000D02*
X101190000Y-77021000D01*
X106060000Y-77061000D02*
X104672000Y-77061000D01*
X102592000Y-77061000D02*
X101204000Y-77061000D01*
X106046000Y-77101000D02*
X104672000Y-77101000D01*
X102592000Y-77101000D02*
X101218000Y-77101000D01*
X106030000Y-77141000D02*
X104672000Y-77141000D01*
X102592000Y-77141000D02*
X101234000Y-77141000D01*
X106014000Y-77181000D02*
X104672000Y-77181000D01*
X102592000Y-77181000D02*
X101250000Y-77181000D01*
X105997000Y-77221000D02*
X104672000Y-77221000D01*
X102592000Y-77221000D02*
X101267000Y-77221000D01*
X105980000Y-77261000D02*
X104672000Y-77261000D01*
X102592000Y-77261000D02*
X101284000Y-77261000D01*
X105961000Y-77301000D02*
X104672000Y-77301000D01*
X102592000Y-77301000D02*
X101303000Y-77301000D01*
X105942000Y-77341000D02*
X104672000Y-77341000D01*
X102592000Y-77341000D02*
X101322000Y-77341000D01*
X105922000Y-77381000D02*
X104672000Y-77381000D01*
X102592000Y-77381000D02*
X101342000Y-77381000D01*
X105900000Y-77421000D02*
X104672000Y-77421000D01*
X102592000Y-77421000D02*
X101364000Y-77421000D01*
X105879000Y-77461000D02*
X104672000Y-77461000D01*
X102592000Y-77461000D02*
X101385000Y-77461000D01*
X105856000Y-77501000D02*
X104672000Y-77501000D01*
X102592000Y-77501000D02*
X101408000Y-77501000D01*
X105832000Y-77541000D02*
X104672000Y-77541000D01*
X102592000Y-77541000D02*
X101432000Y-77541000D01*
X105807000Y-77581000D02*
X104672000Y-77581000D01*
X102592000Y-77581000D02*
X101457000Y-77581000D01*
X105781000Y-77621000D02*
X104672000Y-77621000D01*
X102592000Y-77621000D02*
X101483000Y-77621000D01*
X105754000Y-77661000D02*
X104672000Y-77661000D01*
X102592000Y-77661000D02*
X101510000Y-77661000D01*
X105727000Y-77701000D02*
X104672000Y-77701000D01*
X102592000Y-77701000D02*
X101537000Y-77701000D01*
X105697000Y-77741000D02*
X104672000Y-77741000D01*
X102592000Y-77741000D02*
X101567000Y-77741000D01*
X105667000Y-77781000D02*
X104672000Y-77781000D01*
X102592000Y-77781000D02*
X101597000Y-77781000D01*
X105636000Y-77821000D02*
X104672000Y-77821000D01*
X102592000Y-77821000D02*
X101628000Y-77821000D01*
X105603000Y-77861000D02*
X104672000Y-77861000D01*
X102592000Y-77861000D02*
X101661000Y-77861000D01*
X105569000Y-77901000D02*
X104672000Y-77901000D01*
X102592000Y-77901000D02*
X101695000Y-77901000D01*
X105533000Y-77941000D02*
X104672000Y-77941000D01*
X102592000Y-77941000D02*
X101731000Y-77941000D01*
X105496000Y-77981000D02*
X104672000Y-77981000D01*
X102592000Y-77981000D02*
X101768000Y-77981000D01*
X105458000Y-78021000D02*
X104672000Y-78021000D01*
X102592000Y-78021000D02*
X101806000Y-78021000D01*
X105417000Y-78061000D02*
X104672000Y-78061000D01*
X102592000Y-78061000D02*
X101847000Y-78061000D01*
X105375000Y-78101000D02*
X104672000Y-78101000D01*
X102592000Y-78101000D02*
X101889000Y-78101000D01*
X105331000Y-78141000D02*
X104672000Y-78141000D01*
X102592000Y-78141000D02*
X101933000Y-78141000D01*
X105285000Y-78181000D02*
X104672000Y-78181000D01*
X102592000Y-78181000D02*
X101979000Y-78181000D01*
X105237000Y-78221000D02*
X104672000Y-78221000D01*
X102592000Y-78221000D02*
X102027000Y-78221000D01*
X105186000Y-78261000D02*
X104672000Y-78261000D01*
X102592000Y-78261000D02*
X102078000Y-78261000D01*
X105132000Y-78301000D02*
X104672000Y-78301000D01*
X102592000Y-78301000D02*
X102132000Y-78301000D01*
X105075000Y-78341000D02*
X104672000Y-78341000D01*
X102592000Y-78341000D02*
X102189000Y-78341000D01*
X105015000Y-78381000D02*
X104672000Y-78381000D01*
X102592000Y-78381000D02*
X102249000Y-78381000D01*
X104951000Y-78421000D02*
X104672000Y-78421000D01*
X102592000Y-78421000D02*
X102313000Y-78421000D01*
X104883000Y-78461000D02*
X104672000Y-78461000D01*
X102592000Y-78461000D02*
X102381000Y-78461000D01*
X104810000Y-78501000D02*
X102454000Y-78501000D01*
X104730000Y-78541000D02*
X102534000Y-78541000D01*
X104643000Y-78581000D02*
X102621000Y-78581000D01*
X104547000Y-78621000D02*
X102717000Y-78621000D01*
X104437000Y-78661000D02*
X102827000Y-78661000D01*
X104309000Y-78701000D02*
X102955000Y-78701000D01*
X104150000Y-78741000D02*
X103114000Y-78741000D01*
X103916000Y-78781000D02*
X103348000Y-78781000D01*
X105107000Y-73375225D02*
X105107000Y-73875225D01*
X105357000Y-73625225D02*
X104857000Y-73625225D01*
X80237000Y-93758000D02*
X79907000Y-93758000D01*
X80237000Y-100298000D02*
X80237000Y-93758000D01*
X79907000Y-100298000D02*
X80237000Y-100298000D01*
X77497000Y-93758000D02*
X77827000Y-93758000D01*
X77497000Y-100298000D02*
X77497000Y-93758000D01*
X77827000Y-100298000D02*
X77497000Y-100298000D01*
X81728000Y-94378000D02*
X81728000Y-96028000D01*
X86928000Y-94378000D02*
X81728000Y-94378000D01*
X86928000Y-99678000D02*
X86928000Y-94378000D01*
X81728000Y-99678000D02*
X86928000Y-99678000D01*
X81728000Y-98028000D02*
X81728000Y-99678000D01*
X81728000Y-96028000D02*
G75*
G02*
X81728000Y-98028000I0J-1000000D01*
G01*
X91159000Y-93758000D02*
X90829000Y-93758000D01*
X91159000Y-100298000D02*
X91159000Y-93758000D01*
X90829000Y-100298000D02*
X91159000Y-100298000D01*
X88419000Y-93758000D02*
X88749000Y-93758000D01*
X88419000Y-100298000D02*
X88419000Y-93758000D01*
X88749000Y-100298000D02*
X88419000Y-100298000D01*
X99307000Y-91691000D02*
X99307000Y-81791000D01*
X109227000Y-91691000D02*
X109227000Y-81791000D01*
X99307000Y-91691000D02*
X109227000Y-91691000D01*
X99307000Y-81791000D02*
X109227000Y-81791000D01*
X99067000Y-91931000D02*
X99067000Y-90547000D01*
X99067000Y-91931000D02*
X100450000Y-91931000D01*
X101092000Y-88771000D02*
X102362000Y-88771000D01*
X102362000Y-88771000D02*
X102362000Y-84711000D01*
X102362000Y-84711000D02*
X101092000Y-84711000D01*
X101092000Y-84711000D02*
X101092000Y-88771000D01*
X101212000Y-88771000D02*
X101212000Y-87417667D01*
X101332000Y-88771000D02*
X101332000Y-87417667D01*
X101452000Y-88771000D02*
X101452000Y-87417667D01*
X101572000Y-88771000D02*
X101572000Y-87417667D01*
X101692000Y-88771000D02*
X101692000Y-87417667D01*
X101812000Y-88771000D02*
X101812000Y-87417667D01*
X101932000Y-88771000D02*
X101932000Y-87417667D01*
X102052000Y-88771000D02*
X102052000Y-87417667D01*
X102172000Y-88771000D02*
X102172000Y-87417667D01*
X102292000Y-88771000D02*
X102292000Y-87417667D01*
X101092000Y-87417667D02*
X102362000Y-87417667D01*
X103632000Y-88771000D02*
X104902000Y-88771000D01*
X104902000Y-88771000D02*
X104902000Y-84711000D01*
X104902000Y-84711000D02*
X103632000Y-84711000D01*
X103632000Y-84711000D02*
X103632000Y-88771000D01*
X103752000Y-88771000D02*
X103752000Y-87417667D01*
X103872000Y-88771000D02*
X103872000Y-87417667D01*
X103992000Y-88771000D02*
X103992000Y-87417667D01*
X104112000Y-88771000D02*
X104112000Y-87417667D01*
X104232000Y-88771000D02*
X104232000Y-87417667D01*
X104352000Y-88771000D02*
X104352000Y-87417667D01*
X104472000Y-88771000D02*
X104472000Y-87417667D01*
X104592000Y-88771000D02*
X104592000Y-87417667D01*
X104712000Y-88771000D02*
X104712000Y-87417667D01*
X104832000Y-88771000D02*
X104832000Y-87417667D01*
X103632000Y-87417667D02*
X104902000Y-87417667D01*
X106172000Y-88771000D02*
X107442000Y-88771000D01*
X107442000Y-88771000D02*
X107442000Y-84711000D01*
X107442000Y-84711000D02*
X106172000Y-84711000D01*
X106172000Y-84711000D02*
X106172000Y-88771000D01*
X106292000Y-88771000D02*
X106292000Y-87417667D01*
X106412000Y-88771000D02*
X106412000Y-87417667D01*
X106532000Y-88771000D02*
X106532000Y-87417667D01*
X106652000Y-88771000D02*
X106652000Y-87417667D01*
X106772000Y-88771000D02*
X106772000Y-87417667D01*
X106892000Y-88771000D02*
X106892000Y-87417667D01*
X107012000Y-88771000D02*
X107012000Y-87417667D01*
X107132000Y-88771000D02*
X107132000Y-87417667D01*
X107252000Y-88771000D02*
X107252000Y-87417667D01*
X107372000Y-88771000D02*
X107372000Y-87417667D01*
X106172000Y-87417667D02*
X107442000Y-87417667D01*
X92075000Y-59309000D02*
X102235000Y-59309000D01*
X92075000Y-58039000D02*
X92075000Y-65659000D01*
X92075000Y-65659000D02*
X102235000Y-65659000D01*
X102235000Y-65659000D02*
X102235000Y-58039000D01*
X102235000Y-58039000D02*
X92075000Y-58039000D01*
X87344000Y-105942000D02*
X87344000Y-106272000D01*
X87344000Y-106272000D02*
X80804000Y-106272000D01*
X80804000Y-106272000D02*
X80804000Y-105942000D01*
X87344000Y-103862000D02*
X87344000Y-103532000D01*
X87344000Y-103532000D02*
X80804000Y-103532000D01*
X80804000Y-103532000D02*
X80804000Y-103862000D01*
X99695000Y-123571000D02*
X99695000Y-115951000D01*
X114935000Y-123571000D02*
X114935000Y-115951000D01*
X99695000Y-122301000D02*
X114935000Y-122301000D01*
X99695000Y-115951000D02*
X114935000Y-115951000D01*
X99695000Y-123571000D02*
X114935000Y-123571000D01*
X81915000Y-59309000D02*
X92075000Y-59309000D01*
X81915000Y-58039000D02*
X81915000Y-65659000D01*
X81915000Y-65659000D02*
X92075000Y-65659000D01*
X92075000Y-65659000D02*
X92075000Y-58039000D01*
X92075000Y-58039000D02*
X81915000Y-58039000D01*
X71755000Y-59309000D02*
X81915000Y-59309000D01*
X71755000Y-58039000D02*
X71755000Y-65659000D01*
X71755000Y-65659000D02*
X81915000Y-65659000D01*
X81915000Y-65659000D02*
X81915000Y-58039000D01*
X81915000Y-58039000D02*
X71755000Y-58039000D01*
X122301000Y-123250000D02*
X121191000Y-123250000D01*
X121191000Y-123250000D02*
X121191000Y-121920000D01*
X132391000Y-123250000D02*
X132391000Y-107890000D01*
X132391000Y-107890000D02*
X123761000Y-107890000D01*
X123761000Y-123250000D02*
X123761000Y-107890000D01*
X132391000Y-123250000D02*
X123761000Y-123250000D01*
X132391000Y-110490000D02*
X123761000Y-110490000D01*
X132391000Y-113030000D02*
X123761000Y-113030000D01*
X132391000Y-115570000D02*
X123761000Y-115570000D01*
X132391000Y-118110000D02*
X123761000Y-118110000D01*
X132391000Y-120650000D02*
X123761000Y-120650000D01*
X123761000Y-108860000D02*
X123351000Y-108860000D01*
X123761000Y-109580000D02*
X123351000Y-109580000D01*
X123761000Y-111400000D02*
X123351000Y-111400000D01*
X123761000Y-112120000D02*
X123351000Y-112120000D01*
X123761000Y-113940000D02*
X123351000Y-113940000D01*
X123761000Y-114660000D02*
X123351000Y-114660000D01*
X123761000Y-116480000D02*
X123351000Y-116480000D01*
X123761000Y-117200000D02*
X123351000Y-117200000D01*
X123761000Y-119020000D02*
X123351000Y-119020000D01*
X123761000Y-119740000D02*
X123351000Y-119740000D01*
X123761000Y-121560000D02*
X123411000Y-121560000D01*
X123761000Y-122280000D02*
X123411000Y-122280000D01*
X132391000Y-120768100D02*
X123761000Y-120768100D01*
X132391000Y-120886195D02*
X123761000Y-120886195D01*
X132391000Y-121004290D02*
X123761000Y-121004290D01*
X132391000Y-121122385D02*
X123761000Y-121122385D01*
X132391000Y-121240480D02*
X123761000Y-121240480D01*
X132391000Y-121358575D02*
X123761000Y-121358575D01*
X132391000Y-121476670D02*
X123761000Y-121476670D01*
X132391000Y-121594765D02*
X123761000Y-121594765D01*
X132391000Y-121712860D02*
X123761000Y-121712860D01*
X132391000Y-121830955D02*
X123761000Y-121830955D01*
X132391000Y-121949050D02*
X123761000Y-121949050D01*
X132391000Y-122067145D02*
X123761000Y-122067145D01*
X132391000Y-122185240D02*
X123761000Y-122185240D01*
X132391000Y-122303335D02*
X123761000Y-122303335D01*
X132391000Y-122421430D02*
X123761000Y-122421430D01*
X132391000Y-122539525D02*
X123761000Y-122539525D01*
X132391000Y-122657620D02*
X123761000Y-122657620D01*
X132391000Y-122775715D02*
X123761000Y-122775715D01*
X132391000Y-122893810D02*
X123761000Y-122893810D01*
X132391000Y-123011905D02*
X123761000Y-123011905D01*
X132391000Y-123130000D02*
X123761000Y-123130000D01*
X132391000Y-100270000D02*
X123761000Y-100270000D01*
X132391000Y-100151905D02*
X123761000Y-100151905D01*
X132391000Y-100033810D02*
X123761000Y-100033810D01*
X132391000Y-99915715D02*
X123761000Y-99915715D01*
X132391000Y-99797620D02*
X123761000Y-99797620D01*
X132391000Y-99679525D02*
X123761000Y-99679525D01*
X132391000Y-99561430D02*
X123761000Y-99561430D01*
X132391000Y-99443335D02*
X123761000Y-99443335D01*
X132391000Y-99325240D02*
X123761000Y-99325240D01*
X132391000Y-99207145D02*
X123761000Y-99207145D01*
X132391000Y-99089050D02*
X123761000Y-99089050D01*
X132391000Y-98970955D02*
X123761000Y-98970955D01*
X132391000Y-98852860D02*
X123761000Y-98852860D01*
X132391000Y-98734765D02*
X123761000Y-98734765D01*
X132391000Y-98616670D02*
X123761000Y-98616670D01*
X132391000Y-98498575D02*
X123761000Y-98498575D01*
X132391000Y-98380480D02*
X123761000Y-98380480D01*
X132391000Y-98262385D02*
X123761000Y-98262385D01*
X132391000Y-98144290D02*
X123761000Y-98144290D01*
X132391000Y-98026195D02*
X123761000Y-98026195D01*
X132391000Y-97908100D02*
X123761000Y-97908100D01*
X123761000Y-99420000D02*
X123411000Y-99420000D01*
X123761000Y-98700000D02*
X123411000Y-98700000D01*
X123761000Y-96880000D02*
X123351000Y-96880000D01*
X123761000Y-96160000D02*
X123351000Y-96160000D01*
X123761000Y-94340000D02*
X123351000Y-94340000D01*
X123761000Y-93620000D02*
X123351000Y-93620000D01*
X123761000Y-91800000D02*
X123351000Y-91800000D01*
X123761000Y-91080000D02*
X123351000Y-91080000D01*
X123761000Y-89260000D02*
X123351000Y-89260000D01*
X123761000Y-88540000D02*
X123351000Y-88540000D01*
X123761000Y-86720000D02*
X123351000Y-86720000D01*
X123761000Y-86000000D02*
X123351000Y-86000000D01*
X132391000Y-97790000D02*
X123761000Y-97790000D01*
X132391000Y-95250000D02*
X123761000Y-95250000D01*
X132391000Y-92710000D02*
X123761000Y-92710000D01*
X132391000Y-90170000D02*
X123761000Y-90170000D01*
X132391000Y-87630000D02*
X123761000Y-87630000D01*
X132391000Y-100390000D02*
X123761000Y-100390000D01*
X123761000Y-100390000D02*
X123761000Y-85030000D01*
X132391000Y-85030000D02*
X123761000Y-85030000D01*
X132391000Y-100390000D02*
X132391000Y-85030000D01*
X121191000Y-100390000D02*
X121191000Y-99060000D01*
X122301000Y-100390000D02*
X121191000Y-100390000D01*
D10*
X105537095Y-106107380D02*
X105537095Y-105107380D01*
X105537095Y-105583571D02*
X106108523Y-105583571D01*
X106108523Y-106107380D02*
X106108523Y-105107380D01*
X107013285Y-105440714D02*
X107013285Y-106107380D01*
X106775190Y-105059761D02*
X106537095Y-105774047D01*
X107156142Y-105774047D01*
X66167095Y-119823380D02*
X66167095Y-118823380D01*
X66167095Y-119299571D02*
X66738523Y-119299571D01*
X66738523Y-119823380D02*
X66738523Y-118823380D01*
X67119476Y-118823380D02*
X67738523Y-118823380D01*
X67405190Y-119204333D01*
X67548047Y-119204333D01*
X67643285Y-119251952D01*
X67690904Y-119299571D01*
X67738523Y-119394809D01*
X67738523Y-119632904D01*
X67690904Y-119728142D01*
X67643285Y-119775761D01*
X67548047Y-119823380D01*
X67262333Y-119823380D01*
X67167095Y-119775761D01*
X67119476Y-119728142D01*
X129159095Y-54291380D02*
X129159095Y-53291380D01*
X129159095Y-53767571D02*
X129730523Y-53767571D01*
X129730523Y-54291380D02*
X129730523Y-53291380D01*
X130159095Y-53386619D02*
X130206714Y-53339000D01*
X130301952Y-53291380D01*
X130540047Y-53291380D01*
X130635285Y-53339000D01*
X130682904Y-53386619D01*
X130730523Y-53481857D01*
X130730523Y-53577095D01*
X130682904Y-53719952D01*
X130111476Y-54291380D01*
X130730523Y-54291380D01*
X66167095Y-54291380D02*
X66167095Y-53291380D01*
X66167095Y-53767571D02*
X66738523Y-53767571D01*
X66738523Y-54291380D02*
X66738523Y-53291380D01*
X67738523Y-54291380D02*
X67167095Y-54291380D01*
X67452809Y-54291380D02*
X67452809Y-53291380D01*
X67357571Y-53434238D01*
X67262333Y-53529476D01*
X67167095Y-53577095D01*
X132294380Y-66801904D02*
X133103904Y-66801904D01*
X133199142Y-66754285D01*
X133246761Y-66706666D01*
X133294380Y-66611428D01*
X133294380Y-66420952D01*
X133246761Y-66325714D01*
X133199142Y-66278095D01*
X133103904Y-66230476D01*
X132294380Y-66230476D01*
X133294380Y-65230476D02*
X133294380Y-65801904D01*
X133294380Y-65516190D02*
X132294380Y-65516190D01*
X132437238Y-65611428D01*
X132532476Y-65706666D01*
X132580095Y-65801904D01*
X111974380Y-101314047D02*
X111974380Y-101123571D01*
X112022000Y-101028333D01*
X112117238Y-100933095D01*
X112307714Y-100885476D01*
X112641047Y-100885476D01*
X112831523Y-100933095D01*
X112926761Y-101028333D01*
X112974380Y-101123571D01*
X112974380Y-101314047D01*
X112926761Y-101409285D01*
X112831523Y-101504523D01*
X112641047Y-101552142D01*
X112307714Y-101552142D01*
X112117238Y-101504523D01*
X112022000Y-101409285D01*
X111974380Y-101314047D01*
X111974380Y-100456904D02*
X112783904Y-100456904D01*
X112879142Y-100409285D01*
X112926761Y-100361666D01*
X112974380Y-100266428D01*
X112974380Y-100075952D01*
X112926761Y-99980714D01*
X112879142Y-99933095D01*
X112783904Y-99885476D01*
X111974380Y-99885476D01*
X111974380Y-99552142D02*
X111974380Y-98980714D01*
X112974380Y-99266428D02*
X111974380Y-99266428D01*
X112593428Y-98647380D02*
X112593428Y-97885476D01*
X130754380Y-68452857D02*
X129754380Y-68452857D01*
X130754380Y-67976666D02*
X129754380Y-67976666D01*
X130754380Y-67405238D01*
X129754380Y-67405238D01*
X130373428Y-66929047D02*
X130373428Y-66167142D01*
X130754380Y-66548095D02*
X129992476Y-66548095D01*
X129754380Y-101949047D02*
X129754380Y-101758571D01*
X129802000Y-101663333D01*
X129897238Y-101568095D01*
X130087714Y-101520476D01*
X130421047Y-101520476D01*
X130611523Y-101568095D01*
X130706761Y-101663333D01*
X130754380Y-101758571D01*
X130754380Y-101949047D01*
X130706761Y-102044285D01*
X130611523Y-102139523D01*
X130421047Y-102187142D01*
X130087714Y-102187142D01*
X129897238Y-102139523D01*
X129802000Y-102044285D01*
X129754380Y-101949047D01*
X129754380Y-101091904D02*
X130563904Y-101091904D01*
X130659142Y-101044285D01*
X130706761Y-100996666D01*
X130754380Y-100901428D01*
X130754380Y-100710952D01*
X130706761Y-100615714D01*
X130659142Y-100568095D01*
X130563904Y-100520476D01*
X129754380Y-100520476D01*
X129754380Y-100187142D02*
X129754380Y-99615714D01*
X130754380Y-99901428D02*
X129754380Y-99901428D01*
X130373428Y-99282380D02*
X130373428Y-98520476D01*
X130754380Y-98901428D02*
X129992476Y-98901428D01*
X112974380Y-67817857D02*
X111974380Y-67817857D01*
X112974380Y-67341666D02*
X111974380Y-67341666D01*
X112974380Y-66770238D01*
X111974380Y-66770238D01*
X112593428Y-66294047D02*
X112593428Y-65532142D01*
X71755095Y-75271380D02*
X71755095Y-76080904D01*
X71802714Y-76176142D01*
X71850333Y-76223761D01*
X71945571Y-76271380D01*
X72136047Y-76271380D01*
X72231285Y-76223761D01*
X72278904Y-76176142D01*
X72326523Y-76080904D01*
X72326523Y-75271380D01*
X72755095Y-75366619D02*
X72802714Y-75319000D01*
X72897952Y-75271380D01*
X73136047Y-75271380D01*
X73231285Y-75319000D01*
X73278904Y-75366619D01*
X73326523Y-75461857D01*
X73326523Y-75557095D01*
X73278904Y-75699952D01*
X72707476Y-76271380D01*
X73326523Y-76271380D01*
X94465380Y-72737095D02*
X93465380Y-72737095D01*
X93465380Y-72499000D01*
X93513000Y-72356142D01*
X93608238Y-72260904D01*
X93703476Y-72213285D01*
X93893952Y-72165666D01*
X94036809Y-72165666D01*
X94227285Y-72213285D01*
X94322523Y-72260904D01*
X94417761Y-72356142D01*
X94465380Y-72499000D01*
X94465380Y-72737095D01*
X93560619Y-71784714D02*
X93513000Y-71737095D01*
X93465380Y-71641857D01*
X93465380Y-71403761D01*
X93513000Y-71308523D01*
X93560619Y-71260904D01*
X93655857Y-71213285D01*
X93751095Y-71213285D01*
X93893952Y-71260904D01*
X94465380Y-71832333D01*
X94465380Y-71213285D01*
X85067380Y-72737095D02*
X84067380Y-72737095D01*
X84067380Y-72499000D01*
X84115000Y-72356142D01*
X84210238Y-72260904D01*
X84305476Y-72213285D01*
X84495952Y-72165666D01*
X84638809Y-72165666D01*
X84829285Y-72213285D01*
X84924523Y-72260904D01*
X85019761Y-72356142D01*
X85067380Y-72499000D01*
X85067380Y-72737095D01*
X85067380Y-71213285D02*
X85067380Y-71784714D01*
X85067380Y-71499000D02*
X84067380Y-71499000D01*
X84210238Y-71594238D01*
X84305476Y-71689476D01*
X84353095Y-71784714D01*
X101159142Y-71754666D02*
X101206761Y-71802285D01*
X101254380Y-71945142D01*
X101254380Y-72040380D01*
X101206761Y-72183238D01*
X101111523Y-72278476D01*
X101016285Y-72326095D01*
X100825809Y-72373714D01*
X100682952Y-72373714D01*
X100492476Y-72326095D01*
X100397238Y-72278476D01*
X100302000Y-72183238D01*
X100254380Y-72040380D01*
X100254380Y-71945142D01*
X100302000Y-71802285D01*
X100349619Y-71754666D01*
X100587714Y-70897523D02*
X101254380Y-70897523D01*
X100206761Y-71135619D02*
X100921047Y-71373714D01*
X100921047Y-70754666D01*
X67322142Y-71326666D02*
X67369761Y-71374285D01*
X67417380Y-71517142D01*
X67417380Y-71612380D01*
X67369761Y-71755238D01*
X67274523Y-71850476D01*
X67179285Y-71898095D01*
X66988809Y-71945714D01*
X66845952Y-71945714D01*
X66655476Y-71898095D01*
X66560238Y-71850476D01*
X66465000Y-71755238D01*
X66417380Y-71612380D01*
X66417380Y-71517142D01*
X66465000Y-71374285D01*
X66512619Y-71326666D01*
X66417380Y-70993333D02*
X66417380Y-70374285D01*
X66798333Y-70707619D01*
X66798333Y-70564761D01*
X66845952Y-70469523D01*
X66893571Y-70421904D01*
X66988809Y-70374285D01*
X67226904Y-70374285D01*
X67322142Y-70421904D01*
X67369761Y-70469523D01*
X67417380Y-70564761D01*
X67417380Y-70850476D01*
X67369761Y-70945714D01*
X67322142Y-70993333D01*
X107739142Y-70123666D02*
X107786761Y-70171285D01*
X107834380Y-70314142D01*
X107834380Y-70409380D01*
X107786761Y-70552238D01*
X107691523Y-70647476D01*
X107596285Y-70695095D01*
X107405809Y-70742714D01*
X107262952Y-70742714D01*
X107072476Y-70695095D01*
X106977238Y-70647476D01*
X106882000Y-70552238D01*
X106834380Y-70409380D01*
X106834380Y-70314142D01*
X106882000Y-70171285D01*
X106929619Y-70123666D01*
X106929619Y-69742714D02*
X106882000Y-69695095D01*
X106834380Y-69599857D01*
X106834380Y-69361761D01*
X106882000Y-69266523D01*
X106929619Y-69218904D01*
X107024857Y-69171285D01*
X107120095Y-69171285D01*
X107262952Y-69218904D01*
X107834380Y-69790333D01*
X107834380Y-69171285D01*
X107739142Y-76346666D02*
X107786761Y-76394285D01*
X107834380Y-76537142D01*
X107834380Y-76632380D01*
X107786761Y-76775238D01*
X107691523Y-76870476D01*
X107596285Y-76918095D01*
X107405809Y-76965714D01*
X107262952Y-76965714D01*
X107072476Y-76918095D01*
X106977238Y-76870476D01*
X106882000Y-76775238D01*
X106834380Y-76632380D01*
X106834380Y-76537142D01*
X106882000Y-76394285D01*
X106929619Y-76346666D01*
X107834380Y-75394285D02*
X107834380Y-75965714D01*
X107834380Y-75680000D02*
X106834380Y-75680000D01*
X106977238Y-75775238D01*
X107072476Y-75870476D01*
X107120095Y-75965714D01*
X79446380Y-96178666D02*
X78970190Y-96512000D01*
X79446380Y-96750095D02*
X78446380Y-96750095D01*
X78446380Y-96369142D01*
X78494000Y-96273904D01*
X78541619Y-96226285D01*
X78636857Y-96178666D01*
X78779714Y-96178666D01*
X78874952Y-96226285D01*
X78922571Y-96273904D01*
X78970190Y-96369142D01*
X78970190Y-96750095D01*
X78446380Y-95845333D02*
X78446380Y-95226285D01*
X78827333Y-95559619D01*
X78827333Y-95416761D01*
X78874952Y-95321523D01*
X78922571Y-95273904D01*
X79017809Y-95226285D01*
X79255904Y-95226285D01*
X79351142Y-95273904D01*
X79398761Y-95321523D01*
X79446380Y-95416761D01*
X79446380Y-95702476D01*
X79398761Y-95797714D01*
X79351142Y-95845333D01*
X80180380Y-97789904D02*
X80989904Y-97789904D01*
X81085142Y-97742285D01*
X81132761Y-97694666D01*
X81180380Y-97599428D01*
X81180380Y-97408952D01*
X81132761Y-97313714D01*
X81085142Y-97266095D01*
X80989904Y-97218476D01*
X80180380Y-97218476D01*
X80180380Y-96837523D02*
X80180380Y-96218476D01*
X80561333Y-96551809D01*
X80561333Y-96408952D01*
X80608952Y-96313714D01*
X80656571Y-96266095D01*
X80751809Y-96218476D01*
X80989904Y-96218476D01*
X81085142Y-96266095D01*
X81132761Y-96313714D01*
X81180380Y-96408952D01*
X81180380Y-96694666D01*
X81132761Y-96789904D01*
X81085142Y-96837523D01*
X90114380Y-97067666D02*
X89638190Y-97401000D01*
X90114380Y-97639095D02*
X89114380Y-97639095D01*
X89114380Y-97258142D01*
X89162000Y-97162904D01*
X89209619Y-97115285D01*
X89304857Y-97067666D01*
X89447714Y-97067666D01*
X89542952Y-97115285D01*
X89590571Y-97162904D01*
X89638190Y-97258142D01*
X89638190Y-97639095D01*
X89209619Y-96686714D02*
X89162000Y-96639095D01*
X89114380Y-96543857D01*
X89114380Y-96305761D01*
X89162000Y-96210523D01*
X89209619Y-96162904D01*
X89304857Y-96115285D01*
X89400095Y-96115285D01*
X89542952Y-96162904D01*
X90114380Y-96734333D01*
X90114380Y-96115285D01*
X98711761Y-88074333D02*
X98759380Y-87931476D01*
X98759380Y-87693380D01*
X98711761Y-87598142D01*
X98664142Y-87550523D01*
X98568904Y-87502904D01*
X98473666Y-87502904D01*
X98378428Y-87550523D01*
X98330809Y-87598142D01*
X98283190Y-87693380D01*
X98235571Y-87883857D01*
X98187952Y-87979095D01*
X98140333Y-88026714D01*
X98045095Y-88074333D01*
X97949857Y-88074333D01*
X97854619Y-88026714D01*
X97807000Y-87979095D01*
X97759380Y-87883857D01*
X97759380Y-87645761D01*
X97807000Y-87502904D01*
X97759380Y-87169571D02*
X98759380Y-86931476D01*
X98045095Y-86741000D01*
X98759380Y-86550523D01*
X97759380Y-86312428D01*
X98759380Y-85407666D02*
X98759380Y-85979095D01*
X98759380Y-85693380D02*
X97759380Y-85693380D01*
X97902238Y-85788619D01*
X97997476Y-85883857D01*
X98045095Y-85979095D01*
X96821666Y-66381380D02*
X96821666Y-67095666D01*
X96774047Y-67238523D01*
X96678809Y-67333761D01*
X96535952Y-67381380D01*
X96440714Y-67381380D01*
X97202619Y-66381380D02*
X97821666Y-66381380D01*
X97488333Y-66762333D01*
X97631190Y-66762333D01*
X97726428Y-66809952D01*
X97774047Y-66857571D01*
X97821666Y-66952809D01*
X97821666Y-67190904D01*
X97774047Y-67286142D01*
X97726428Y-67333761D01*
X97631190Y-67381380D01*
X97345476Y-67381380D01*
X97250238Y-67333761D01*
X97202619Y-67286142D01*
X83907333Y-105354380D02*
X83574000Y-104878190D01*
X83335904Y-105354380D02*
X83335904Y-104354380D01*
X83716857Y-104354380D01*
X83812095Y-104402000D01*
X83859714Y-104449619D01*
X83907333Y-104544857D01*
X83907333Y-104687714D01*
X83859714Y-104782952D01*
X83812095Y-104830571D01*
X83716857Y-104878190D01*
X83335904Y-104878190D01*
X84859714Y-105354380D02*
X84288285Y-105354380D01*
X84574000Y-105354380D02*
X84574000Y-104354380D01*
X84478761Y-104497238D01*
X84383523Y-104592476D01*
X84288285Y-104640095D01*
X106981666Y-124293380D02*
X106981666Y-125007666D01*
X106934047Y-125150523D01*
X106838809Y-125245761D01*
X106695952Y-125293380D01*
X106600714Y-125293380D01*
X107886428Y-124626714D02*
X107886428Y-125293380D01*
X107648333Y-124245761D02*
X107410238Y-124960047D01*
X108029285Y-124960047D01*
X86534666Y-66381380D02*
X86534666Y-67095666D01*
X86487047Y-67238523D01*
X86391809Y-67333761D01*
X86248952Y-67381380D01*
X86153714Y-67381380D01*
X86963238Y-66476619D02*
X87010857Y-66429000D01*
X87106095Y-66381380D01*
X87344190Y-66381380D01*
X87439428Y-66429000D01*
X87487047Y-66476619D01*
X87534666Y-66571857D01*
X87534666Y-66667095D01*
X87487047Y-66809952D01*
X86915619Y-67381380D01*
X87534666Y-67381380D01*
X76501666Y-66381380D02*
X76501666Y-67095666D01*
X76454047Y-67238523D01*
X76358809Y-67333761D01*
X76215952Y-67381380D01*
X76120714Y-67381380D01*
X77501666Y-67381380D02*
X76930238Y-67381380D01*
X77215952Y-67381380D02*
X77215952Y-66381380D01*
X77120714Y-66524238D01*
X77025476Y-66619476D01*
X76930238Y-66667095D01*
X126347666Y-124142380D02*
X126347666Y-124856666D01*
X126300047Y-124999523D01*
X126204809Y-125094761D01*
X126061952Y-125142380D01*
X125966714Y-125142380D01*
X127252428Y-124142380D02*
X127061952Y-124142380D01*
X126966714Y-124190000D01*
X126919095Y-124237619D01*
X126823857Y-124380476D01*
X126776238Y-124570952D01*
X126776238Y-124951904D01*
X126823857Y-125047142D01*
X126871476Y-125094761D01*
X126966714Y-125142380D01*
X127157190Y-125142380D01*
X127252428Y-125094761D01*
X127300047Y-125047142D01*
X127347666Y-124951904D01*
X127347666Y-124713809D01*
X127300047Y-124618571D01*
X127252428Y-124570952D01*
X127157190Y-124523333D01*
X126966714Y-124523333D01*
X126871476Y-124570952D01*
X126823857Y-124618571D01*
X126776238Y-124713809D01*
X126347666Y-101282380D02*
X126347666Y-101996666D01*
X126300047Y-102139523D01*
X126204809Y-102234761D01*
X126061952Y-102282380D01*
X125966714Y-102282380D01*
X127300047Y-101282380D02*
X126823857Y-101282380D01*
X126776238Y-101758571D01*
X126823857Y-101710952D01*
X126919095Y-101663333D01*
X127157190Y-101663333D01*
X127252428Y-101710952D01*
X127300047Y-101758571D01*
X127347666Y-101853809D01*
X127347666Y-102091904D01*
X127300047Y-102187142D01*
X127252428Y-102234761D01*
X127157190Y-102282380D01*
X126919095Y-102282380D01*
X126823857Y-102234761D01*
X126776238Y-102187142D01*
%LPC*%
D12*
X106299000Y-109855000D03*
X66929000Y-123571000D03*
X129921000Y-58039000D03*
X66929000Y-58039000D03*
D13*
X115062000Y-104267000D03*
X117602000Y-104267000D03*
X120142000Y-104267000D03*
X122682000Y-104267000D03*
X125222000Y-104267000D03*
X127762000Y-104267000D03*
X115062000Y-63500000D03*
X117602000Y-63500000D03*
X120142000Y-63500000D03*
X122682000Y-63500000D03*
X125222000Y-63500000D03*
X127762000Y-63500000D03*
X130302000Y-104267000D03*
X112522000Y-104267000D03*
X112522000Y-63500000D03*
X130302000Y-63500000D03*
D14*
X72517000Y-109093000D03*
X72517000Y-78613000D03*
X72517000Y-81153000D03*
X72517000Y-83693000D03*
X72517000Y-86233000D03*
X72517000Y-88773000D03*
X72517000Y-91313000D03*
X72517000Y-93853000D03*
X72517000Y-96393000D03*
X72517000Y-98933000D03*
X72517000Y-101473000D03*
X72517000Y-104013000D03*
X72517000Y-106553000D03*
X95377000Y-109093000D03*
X95377000Y-106553000D03*
X95377000Y-104013000D03*
X95377000Y-101473000D03*
X95377000Y-98933000D03*
X95377000Y-96393000D03*
X95377000Y-93853000D03*
X95377000Y-91313000D03*
X95377000Y-88773000D03*
X95377000Y-86233000D03*
X95377000Y-83693000D03*
X95377000Y-81153000D03*
X95377000Y-78613000D03*
D15*
X95377000Y-123698000D03*
X72517000Y-123698000D03*
D16*
X91313000Y-68199000D03*
D17*
X86233000Y-75819000D03*
X86233000Y-68199000D03*
X91313000Y-75819000D03*
D16*
X81915000Y-68199000D03*
D17*
X76835000Y-75819000D03*
X76835000Y-68199000D03*
X81915000Y-75819000D03*
D18*
X98552000Y-74088000D03*
X98552000Y-69088000D03*
X69215000Y-68660000D03*
X69215000Y-73660000D03*
X103632000Y-71207000D03*
D16*
X103632000Y-68707000D03*
D18*
X103632000Y-77430000D03*
D16*
X103632000Y-74930000D03*
D17*
X78867000Y-93218000D03*
D18*
X78867000Y-100838000D03*
D17*
X83058000Y-93218000D03*
X85598000Y-100838000D03*
X85598000Y-93218000D03*
D16*
X83058000Y-100838000D03*
D17*
X89789000Y-93218000D03*
D18*
X89789000Y-100838000D03*
D17*
X101727000Y-82931000D03*
X106807000Y-90551000D03*
X104267000Y-82931000D03*
X104267000Y-90551000D03*
X106807000Y-82931000D03*
D16*
X101727000Y-90551000D03*
D19*
X94615000Y-61849000D03*
D20*
X99695000Y-61849000D03*
D17*
X80264000Y-104902000D03*
D18*
X87884000Y-104902000D03*
D19*
X112395000Y-119761000D03*
X107315000Y-119761000D03*
D20*
X102235000Y-119761000D03*
D19*
X84455000Y-61849000D03*
D20*
X89535000Y-61849000D03*
D19*
X74295000Y-61849000D03*
D20*
X79375000Y-61849000D03*
D21*
X122301000Y-109220000D03*
X122301000Y-111760000D03*
X122301000Y-114300000D03*
X122301000Y-116840000D03*
X122301000Y-119380000D03*
D22*
X122301000Y-121920000D03*
D23*
X122301000Y-86360000D03*
X122301000Y-88900000D03*
X122301000Y-91440000D03*
X122301000Y-93980000D03*
X122301000Y-96520000D03*
D22*
X122301000Y-99060000D03*
M02*
