G04 #@! TF.GenerationSoftware,KiCad,Pcbnew,5.99.0-unknown-9f841da98e~134~ubuntu20.04.1*
G04 #@! TF.CreationDate,2021-11-20T11:12:31+01:00*
G04 #@! TF.ProjectId,wt32-esp01-programmer,77743332-2d65-4737-9030-312d70726f67,rev?*
G04 #@! TF.SameCoordinates,Original*
G04 #@! TF.FileFunction,Copper,L2,Bot*
G04 #@! TF.FilePolarity,Positive*
%FSLAX46Y46*%
G04 Gerber Fmt 4.6, Leading zero omitted, Abs format (unit mm)*
G04 Created by KiCad (PCBNEW 5.99.0-unknown-9f841da98e~134~ubuntu20.04.1) date 2021-11-20 11:12:31*
%MOMM*%
%LPD*%
G01*
G04 APERTURE LIST*
G04 #@! TA.AperFunction,ComponentPad*
%ADD10C,1.778000*%
G04 #@! TD*
G04 #@! TA.AperFunction,ComponentPad*
%ADD11R,1.600000X1.600000*%
G04 #@! TD*
G04 #@! TA.AperFunction,ComponentPad*
%ADD12O,1.600000X1.600000*%
G04 #@! TD*
G04 #@! TA.AperFunction,ComponentPad*
%ADD13O,3.048000X1.524000*%
G04 #@! TD*
G04 #@! TA.AperFunction,Conductor*
%ADD14C,0.700000*%
G04 #@! TD*
G04 APERTURE END LIST*
D10*
X138176000Y-87630000D03*
X138176000Y-90170000D03*
X135636000Y-87630000D03*
X135636000Y-90170000D03*
X133096000Y-87630000D03*
X133096000Y-90170000D03*
X130556000Y-87630000D03*
X130556000Y-90170000D03*
D11*
X138811000Y-107569000D03*
D12*
X138811000Y-105029000D03*
X131191000Y-105029000D03*
X131191000Y-107569000D03*
D13*
X120396000Y-65151000D03*
X120396000Y-67691000D03*
X120396000Y-70231000D03*
X120396000Y-72771000D03*
X120396000Y-75311000D03*
X120396000Y-77851000D03*
X120396000Y-80391000D03*
X120396000Y-82931000D03*
X120396000Y-85471000D03*
X120396000Y-88011000D03*
X120396000Y-90551000D03*
X120396000Y-93091000D03*
X120396000Y-95631000D03*
X97536000Y-95631000D03*
X97536000Y-93091000D03*
X97536000Y-90551000D03*
X97536000Y-88011000D03*
X97536000Y-85471000D03*
X97536000Y-82931000D03*
X97536000Y-80391000D03*
X97536000Y-77851000D03*
X97536000Y-75311000D03*
X97536000Y-72771000D03*
X97536000Y-70231000D03*
X97536000Y-67691000D03*
X97536000Y-65151000D03*
D14*
X131699000Y-83947000D02*
X133096000Y-85344000D01*
X108585000Y-76962000D02*
X108585000Y-90678000D01*
X128270000Y-100330000D02*
X131191000Y-97409000D01*
X108585000Y-90678000D02*
X118237000Y-100330000D01*
X138811000Y-105029000D02*
X131191000Y-97409000D01*
X126746000Y-92964000D02*
X126746000Y-85979000D01*
X131191000Y-97409000D02*
X126746000Y-92964000D01*
X128778000Y-83947000D02*
X131699000Y-83947000D01*
X101854000Y-70231000D02*
X108585000Y-76962000D01*
X126746000Y-85979000D02*
X128778000Y-83947000D01*
X97536000Y-70231000D02*
X101854000Y-70231000D01*
X133096000Y-85344000D02*
X133096000Y-87630000D01*
X118237000Y-100330000D02*
X128270000Y-100330000D01*
X100838000Y-61849000D02*
X122809000Y-61849000D01*
X97536000Y-65151000D02*
X100838000Y-61849000D01*
X141986000Y-88900000D02*
X140716000Y-90170000D01*
X122809000Y-61849000D02*
X141986000Y-81026000D01*
X140716000Y-90170000D02*
X138176000Y-90170000D01*
X141986000Y-81026000D02*
X141986000Y-88900000D01*
M02*
