M48
METRIC
T1C0.762
T2C0.800
T3C2.032
%
G90
G05
T1
X97.536Y-65.151
X97.536Y-67.691
X97.536Y-70.231
X97.536Y-72.771
X97.536Y-75.311
X97.536Y-77.851
X97.536Y-80.391
X97.536Y-82.931
X97.536Y-85.471
X97.536Y-88.011
X97.536Y-90.551
X97.536Y-93.091
X97.536Y-95.631
X120.396Y-65.151
X120.396Y-67.691
X120.396Y-70.231
X120.396Y-72.771
X120.396Y-75.311
X120.396Y-77.851
X120.396Y-80.391
X120.396Y-82.931
X120.396Y-85.471
X120.396Y-88.011
X120.396Y-90.551
X120.396Y-93.091
X120.396Y-95.631
X130.556Y-87.63
X130.556Y-90.17
X133.096Y-87.63
X133.096Y-90.17
X135.636Y-87.63
X135.636Y-90.17
X138.176Y-87.63
X138.176Y-90.17
T2
X131.191Y-105.029
X131.191Y-107.569
X138.811Y-105.029
X138.811Y-107.569
T3
X97.536Y-110.236
X120.396Y-110.236
T0
M30
