%FSLAX45Y45*%
G04 Gerber Fmt 4.5, Leading zero omitted, Abs format (unit mm)*
G04 Created by KiCad (PCBNEW 5.99.0-unknown-9f841da98e~134~ubuntu20.04.1) date 2021-11-20 11:12:31*
%MOMM*%
%LPD*%
G01*
G04 APERTURE LIST*
%TA.AperFunction,Profile*%
%ADD10C,0.050000*%
%TD*%
%ADD11C,0.200000*%
%ADD12C,0.076200*%
%ADD13C,0.080000*%
%ADD14C,0.203200*%
G04 APERTURE END LIST*
D10*
X9271000Y-11303000D02*
X9271000Y-5207000D01*
X14478000Y-5080000D02*
G75*
G02*
X14605000Y-5207000I0J-127000D01*
G01*
X14605000Y-5207000D02*
X14605000Y-11303000D01*
X14605000Y-11303000D02*
G75*
G02*
X14478000Y-11430000I-127000J0D01*
G01*
X9398000Y-5080000D02*
X14478000Y-5080000D01*
X14478000Y-11430000D02*
X9398000Y-11430000D01*
X9398000Y-11430000D02*
G75*
G02*
X9271000Y-11303000I0J127000D01*
G01*
X9271000Y-5207000D02*
G75*
G02*
X9398000Y-5080000I127000J0D01*
G01*
D11*
D12*
X9715500Y-6477000D02*
X9791700Y-6553200D01*
X9791700Y-6477000D02*
X9715500Y-6553200D01*
X9715500Y-6731000D02*
X9791700Y-6807200D01*
X9791700Y-6731000D02*
X9715500Y-6807200D01*
X9715500Y-6985000D02*
X9791700Y-7061200D01*
X9791700Y-6985000D02*
X9715500Y-7061200D01*
X9715500Y-7239000D02*
X9791700Y-7315200D01*
X9791700Y-7239000D02*
X9715500Y-7315200D01*
X9715500Y-7493000D02*
X9791700Y-7569200D01*
X9791700Y-7493000D02*
X9715500Y-7569200D01*
X9715500Y-7747000D02*
X9791700Y-7823200D01*
X9791700Y-7747000D02*
X9715500Y-7823200D01*
X9715500Y-8001000D02*
X9791700Y-8077200D01*
X9791700Y-8001000D02*
X9715500Y-8077200D01*
X9715500Y-8255000D02*
X9791700Y-8331200D01*
X9791700Y-8255000D02*
X9715500Y-8331200D01*
X9715500Y-8509000D02*
X9791700Y-8585200D01*
X9791700Y-8509000D02*
X9715500Y-8585200D01*
X9715500Y-8763000D02*
X9791700Y-8839200D01*
X9791700Y-8763000D02*
X9715500Y-8839200D01*
X9715500Y-9017000D02*
X9791700Y-9093200D01*
X9791700Y-9017000D02*
X9715500Y-9093200D01*
X9715500Y-9271000D02*
X9791700Y-9347200D01*
X9791700Y-9271000D02*
X9715500Y-9347200D01*
X9715500Y-9525000D02*
X9791700Y-9601200D01*
X9791700Y-9525000D02*
X9715500Y-9601200D01*
X12001500Y-6477000D02*
X12077700Y-6553200D01*
X12077700Y-6477000D02*
X12001500Y-6553200D01*
X12001500Y-6731000D02*
X12077700Y-6807200D01*
X12077700Y-6731000D02*
X12001500Y-6807200D01*
X12001500Y-6985000D02*
X12077700Y-7061200D01*
X12077700Y-6985000D02*
X12001500Y-7061200D01*
X12001500Y-7239000D02*
X12077700Y-7315200D01*
X12077700Y-7239000D02*
X12001500Y-7315200D01*
X12001500Y-7493000D02*
X12077700Y-7569200D01*
X12077700Y-7493000D02*
X12001500Y-7569200D01*
X12001500Y-7747000D02*
X12077700Y-7823200D01*
X12077700Y-7747000D02*
X12001500Y-7823200D01*
X12001500Y-8001000D02*
X12077700Y-8077200D01*
X12077700Y-8001000D02*
X12001500Y-8077200D01*
X12001500Y-8255000D02*
X12077700Y-8331200D01*
X12077700Y-8255000D02*
X12001500Y-8331200D01*
X12001500Y-8509000D02*
X12077700Y-8585200D01*
X12077700Y-8509000D02*
X12001500Y-8585200D01*
X12001500Y-8763000D02*
X12077700Y-8839200D01*
X12077700Y-8763000D02*
X12001500Y-8839200D01*
X12001500Y-9017000D02*
X12077700Y-9093200D01*
X12077700Y-9017000D02*
X12001500Y-9093200D01*
X12001500Y-9271000D02*
X12077700Y-9347200D01*
X12077700Y-9271000D02*
X12001500Y-9347200D01*
X12001500Y-9525000D02*
X12077700Y-9601200D01*
X12077700Y-9525000D02*
X12001500Y-9601200D01*
X13017500Y-8724900D02*
X13093700Y-8801100D01*
X13093700Y-8724900D02*
X13017500Y-8801100D01*
X13017500Y-8978900D02*
X13093700Y-9055100D01*
X13093700Y-8978900D02*
X13017500Y-9055100D01*
X13271500Y-8724900D02*
X13347700Y-8801100D01*
X13347700Y-8724900D02*
X13271500Y-8801100D01*
X13271500Y-8978900D02*
X13347700Y-9055100D01*
X13347700Y-8978900D02*
X13271500Y-9055100D01*
X13525500Y-8724900D02*
X13601700Y-8801100D01*
X13601700Y-8724900D02*
X13525500Y-8801100D01*
X13525500Y-8978900D02*
X13601700Y-9055100D01*
X13601700Y-8978900D02*
X13525500Y-9055100D01*
X13779500Y-8724900D02*
X13855700Y-8801100D01*
X13855700Y-8724900D02*
X13779500Y-8801100D01*
X13779500Y-8978900D02*
X13855700Y-9055100D01*
X13855700Y-8978900D02*
X13779500Y-9055100D01*
D13*
X13159100Y-10502900D02*
G75*
G03*
X13159100Y-10502900I-40000J0D01*
G01*
X13159100Y-10756900D02*
G75*
G03*
X13159100Y-10756900I-40000J0D01*
G01*
X13921100Y-10502900D02*
G75*
G03*
X13921100Y-10502900I-40000J0D01*
G01*
X13921100Y-10756900D02*
G75*
G03*
X13921100Y-10756900I-40000J0D01*
G01*
D14*
X9753600Y-10922000D02*
X9753600Y-11125200D01*
X9652000Y-11023600D02*
X9855200Y-11023600D01*
X12039600Y-10922000D02*
X12039600Y-11125200D01*
X11938000Y-11023600D02*
X12141200Y-11023600D01*
D11*
X9521119Y-11747976D02*
X9521119Y-11547976D01*
X9568738Y-11547976D01*
X9597310Y-11557500D01*
X9616357Y-11576548D01*
X9625881Y-11595595D01*
X9635405Y-11633690D01*
X9635405Y-11662262D01*
X9625881Y-11700357D01*
X9616357Y-11719405D01*
X9597310Y-11738452D01*
X9568738Y-11747976D01*
X9521119Y-11747976D01*
X9721119Y-11747976D02*
X9721119Y-11614643D01*
X9721119Y-11652738D02*
X9730643Y-11633690D01*
X9740167Y-11624167D01*
X9759214Y-11614643D01*
X9778262Y-11614643D01*
X9844929Y-11747976D02*
X9844929Y-11614643D01*
X9844929Y-11547976D02*
X9835405Y-11557500D01*
X9844929Y-11567024D01*
X9854452Y-11557500D01*
X9844929Y-11547976D01*
X9844929Y-11567024D01*
X9968738Y-11747976D02*
X9949690Y-11738452D01*
X9940167Y-11719405D01*
X9940167Y-11547976D01*
X10073500Y-11747976D02*
X10054452Y-11738452D01*
X10044929Y-11719405D01*
X10044929Y-11547976D01*
X10302071Y-11747976D02*
X10302071Y-11547976D01*
X10368738Y-11690833D01*
X10435405Y-11547976D01*
X10435405Y-11747976D01*
X10616357Y-11747976D02*
X10616357Y-11643214D01*
X10606833Y-11624167D01*
X10587786Y-11614643D01*
X10549690Y-11614643D01*
X10530643Y-11624167D01*
X10616357Y-11738452D02*
X10597310Y-11747976D01*
X10549690Y-11747976D01*
X10530643Y-11738452D01*
X10521119Y-11719405D01*
X10521119Y-11700357D01*
X10530643Y-11681309D01*
X10549690Y-11671786D01*
X10597310Y-11671786D01*
X10616357Y-11662262D01*
X10711595Y-11614643D02*
X10711595Y-11814643D01*
X10711595Y-11624167D02*
X10730643Y-11614643D01*
X10768738Y-11614643D01*
X10787786Y-11624167D01*
X10797310Y-11633690D01*
X10806833Y-11652738D01*
X10806833Y-11709881D01*
X10797310Y-11728928D01*
X10787786Y-11738452D01*
X10768738Y-11747976D01*
X10730643Y-11747976D01*
X10711595Y-11738452D01*
X10892548Y-11728928D02*
X10902071Y-11738452D01*
X10892548Y-11747976D01*
X10883024Y-11738452D01*
X10892548Y-11728928D01*
X10892548Y-11747976D01*
X10892548Y-11624167D02*
X10902071Y-11633690D01*
X10892548Y-11643214D01*
X10883024Y-11633690D01*
X10892548Y-11624167D01*
X10892548Y-11643214D01*
D12*
X9187300Y-12039400D02*
X9263500Y-12115600D01*
X9263500Y-12039400D02*
X9187300Y-12115600D01*
D11*
X9559214Y-11967976D02*
X9578262Y-11967976D01*
X9597310Y-11977500D01*
X9606833Y-11987024D01*
X9616357Y-12006071D01*
X9625881Y-12044167D01*
X9625881Y-12091786D01*
X9616357Y-12129881D01*
X9606833Y-12148928D01*
X9597310Y-12158452D01*
X9578262Y-12167976D01*
X9559214Y-12167976D01*
X9540167Y-12158452D01*
X9530643Y-12148928D01*
X9521119Y-12129881D01*
X9511595Y-12091786D01*
X9511595Y-12044167D01*
X9521119Y-12006071D01*
X9530643Y-11987024D01*
X9540167Y-11977500D01*
X9559214Y-11967976D01*
X9711595Y-12148928D02*
X9721119Y-12158452D01*
X9711595Y-12167976D01*
X9702071Y-12158452D01*
X9711595Y-12148928D01*
X9711595Y-12167976D01*
X9787786Y-11967976D02*
X9921119Y-11967976D01*
X9835405Y-12167976D01*
X10083024Y-11967976D02*
X10044929Y-11967976D01*
X10025881Y-11977500D01*
X10016357Y-11987024D01*
X9997310Y-12015595D01*
X9987786Y-12053690D01*
X9987786Y-12129881D01*
X9997310Y-12148928D01*
X10006833Y-12158452D01*
X10025881Y-12167976D01*
X10063976Y-12167976D01*
X10083024Y-12158452D01*
X10092548Y-12148928D01*
X10102071Y-12129881D01*
X10102071Y-12082262D01*
X10092548Y-12063214D01*
X10083024Y-12053690D01*
X10063976Y-12044167D01*
X10025881Y-12044167D01*
X10006833Y-12053690D01*
X9997310Y-12063214D01*
X9987786Y-12082262D01*
X10178262Y-11987024D02*
X10187786Y-11977500D01*
X10206833Y-11967976D01*
X10254452Y-11967976D01*
X10273500Y-11977500D01*
X10283024Y-11987024D01*
X10292548Y-12006071D01*
X10292548Y-12025119D01*
X10283024Y-12053690D01*
X10168738Y-12167976D01*
X10292548Y-12167976D01*
X10378262Y-12167976D02*
X10378262Y-12034643D01*
X10378262Y-12053690D02*
X10387786Y-12044167D01*
X10406833Y-12034643D01*
X10435405Y-12034643D01*
X10454452Y-12044167D01*
X10463976Y-12063214D01*
X10463976Y-12167976D01*
X10463976Y-12063214D02*
X10473500Y-12044167D01*
X10492548Y-12034643D01*
X10521119Y-12034643D01*
X10540167Y-12044167D01*
X10549690Y-12063214D01*
X10549690Y-12167976D01*
X10644929Y-12167976D02*
X10644929Y-12034643D01*
X10644929Y-12053690D02*
X10654452Y-12044167D01*
X10673500Y-12034643D01*
X10702071Y-12034643D01*
X10721119Y-12044167D01*
X10730643Y-12063214D01*
X10730643Y-12167976D01*
X10730643Y-12063214D02*
X10740167Y-12044167D01*
X10759214Y-12034643D01*
X10787786Y-12034643D01*
X10806833Y-12044167D01*
X10816357Y-12063214D01*
X10816357Y-12167976D01*
X11206833Y-11958452D02*
X11035405Y-12215595D01*
X11463976Y-11967976D02*
X11483024Y-11967976D01*
X11502071Y-11977500D01*
X11511595Y-11987024D01*
X11521119Y-12006071D01*
X11530643Y-12044167D01*
X11530643Y-12091786D01*
X11521119Y-12129881D01*
X11511595Y-12148928D01*
X11502071Y-12158452D01*
X11483024Y-12167976D01*
X11463976Y-12167976D01*
X11444928Y-12158452D01*
X11435405Y-12148928D01*
X11425881Y-12129881D01*
X11416357Y-12091786D01*
X11416357Y-12044167D01*
X11425881Y-12006071D01*
X11435405Y-11987024D01*
X11444928Y-11977500D01*
X11463976Y-11967976D01*
X11616357Y-12148928D02*
X11625881Y-12158452D01*
X11616357Y-12167976D01*
X11606833Y-12158452D01*
X11616357Y-12148928D01*
X11616357Y-12167976D01*
X11749690Y-11967976D02*
X11768738Y-11967976D01*
X11787786Y-11977500D01*
X11797309Y-11987024D01*
X11806833Y-12006071D01*
X11816357Y-12044167D01*
X11816357Y-12091786D01*
X11806833Y-12129881D01*
X11797309Y-12148928D01*
X11787786Y-12158452D01*
X11768738Y-12167976D01*
X11749690Y-12167976D01*
X11730643Y-12158452D01*
X11721119Y-12148928D01*
X11711595Y-12129881D01*
X11702071Y-12091786D01*
X11702071Y-12044167D01*
X11711595Y-12006071D01*
X11721119Y-11987024D01*
X11730643Y-11977500D01*
X11749690Y-11967976D01*
X11883024Y-11967976D02*
X12006833Y-11967976D01*
X11940167Y-12044167D01*
X11968738Y-12044167D01*
X11987786Y-12053690D01*
X11997309Y-12063214D01*
X12006833Y-12082262D01*
X12006833Y-12129881D01*
X11997309Y-12148928D01*
X11987786Y-12158452D01*
X11968738Y-12167976D01*
X11911595Y-12167976D01*
X11892548Y-12158452D01*
X11883024Y-12148928D01*
X12130643Y-11967976D02*
X12149690Y-11967976D01*
X12168738Y-11977500D01*
X12178262Y-11987024D01*
X12187786Y-12006071D01*
X12197309Y-12044167D01*
X12197309Y-12091786D01*
X12187786Y-12129881D01*
X12178262Y-12148928D01*
X12168738Y-12158452D01*
X12149690Y-12167976D01*
X12130643Y-12167976D01*
X12111595Y-12158452D01*
X12102071Y-12148928D01*
X12092548Y-12129881D01*
X12083024Y-12091786D01*
X12083024Y-12044167D01*
X12092548Y-12006071D01*
X12102071Y-11987024D01*
X12111595Y-11977500D01*
X12130643Y-11967976D01*
X12321119Y-11967976D02*
X12340167Y-11967976D01*
X12359214Y-11977500D01*
X12368738Y-11987024D01*
X12378262Y-12006071D01*
X12387786Y-12044167D01*
X12387786Y-12091786D01*
X12378262Y-12129881D01*
X12368738Y-12148928D01*
X12359214Y-12158452D01*
X12340167Y-12167976D01*
X12321119Y-12167976D01*
X12302071Y-12158452D01*
X12292548Y-12148928D01*
X12283024Y-12129881D01*
X12273500Y-12091786D01*
X12273500Y-12044167D01*
X12283024Y-12006071D01*
X12292548Y-11987024D01*
X12302071Y-11977500D01*
X12321119Y-11967976D01*
X12463976Y-11967976D02*
X12463976Y-12006071D01*
X12540167Y-11967976D02*
X12540167Y-12006071D01*
X12835405Y-12244167D02*
X12825881Y-12234643D01*
X12806833Y-12206071D01*
X12797309Y-12187024D01*
X12787786Y-12158452D01*
X12778262Y-12110833D01*
X12778262Y-12072738D01*
X12787786Y-12025119D01*
X12797309Y-11996548D01*
X12806833Y-11977500D01*
X12825881Y-11948928D01*
X12835405Y-11939405D01*
X12892548Y-11967976D02*
X13016357Y-11967976D01*
X12949690Y-12044167D01*
X12978262Y-12044167D01*
X12997309Y-12053690D01*
X13006833Y-12063214D01*
X13016357Y-12082262D01*
X13016357Y-12129881D01*
X13006833Y-12148928D01*
X12997309Y-12158452D01*
X12978262Y-12167976D01*
X12921119Y-12167976D01*
X12902071Y-12158452D01*
X12892548Y-12148928D01*
X13187786Y-12034643D02*
X13187786Y-12167976D01*
X13140167Y-11958452D02*
X13092548Y-12101309D01*
X13216357Y-12101309D01*
X13444928Y-12167976D02*
X13444928Y-11967976D01*
X13530643Y-12167976D02*
X13530643Y-12063214D01*
X13521119Y-12044167D01*
X13502071Y-12034643D01*
X13473500Y-12034643D01*
X13454452Y-12044167D01*
X13444928Y-12053690D01*
X13654452Y-12167976D02*
X13635405Y-12158452D01*
X13625881Y-12148928D01*
X13616357Y-12129881D01*
X13616357Y-12072738D01*
X13625881Y-12053690D01*
X13635405Y-12044167D01*
X13654452Y-12034643D01*
X13683024Y-12034643D01*
X13702071Y-12044167D01*
X13711595Y-12053690D01*
X13721119Y-12072738D01*
X13721119Y-12129881D01*
X13711595Y-12148928D01*
X13702071Y-12158452D01*
X13683024Y-12167976D01*
X13654452Y-12167976D01*
X13835405Y-12167976D02*
X13816357Y-12158452D01*
X13806833Y-12139405D01*
X13806833Y-11967976D01*
X13987786Y-12158452D02*
X13968738Y-12167976D01*
X13930643Y-12167976D01*
X13911595Y-12158452D01*
X13902071Y-12139405D01*
X13902071Y-12063214D01*
X13911595Y-12044167D01*
X13930643Y-12034643D01*
X13968738Y-12034643D01*
X13987786Y-12044167D01*
X13997309Y-12063214D01*
X13997309Y-12082262D01*
X13902071Y-12101309D01*
X14073500Y-12158452D02*
X14092548Y-12167976D01*
X14130643Y-12167976D01*
X14149690Y-12158452D01*
X14159214Y-12139405D01*
X14159214Y-12129881D01*
X14149690Y-12110833D01*
X14130643Y-12101309D01*
X14102071Y-12101309D01*
X14083024Y-12091786D01*
X14073500Y-12072738D01*
X14073500Y-12063214D01*
X14083024Y-12044167D01*
X14102071Y-12034643D01*
X14130643Y-12034643D01*
X14149690Y-12044167D01*
X14225881Y-12244167D02*
X14235405Y-12234643D01*
X14254452Y-12206071D01*
X14263976Y-12187024D01*
X14273500Y-12158452D01*
X14283024Y-12110833D01*
X14283024Y-12072738D01*
X14273500Y-12025119D01*
X14263976Y-11996548D01*
X14254452Y-11977500D01*
X14235405Y-11948928D01*
X14225881Y-11939405D01*
D13*
X9263500Y-12341500D02*
G75*
G03*
X9263500Y-12341500I-40000J0D01*
G01*
D11*
X9559214Y-12231976D02*
X9578262Y-12231976D01*
X9597310Y-12241500D01*
X9606833Y-12251024D01*
X9616357Y-12270071D01*
X9625881Y-12308167D01*
X9625881Y-12355786D01*
X9616357Y-12393881D01*
X9606833Y-12412928D01*
X9597310Y-12422452D01*
X9578262Y-12431976D01*
X9559214Y-12431976D01*
X9540167Y-12422452D01*
X9530643Y-12412928D01*
X9521119Y-12393881D01*
X9511595Y-12355786D01*
X9511595Y-12308167D01*
X9521119Y-12270071D01*
X9530643Y-12251024D01*
X9540167Y-12241500D01*
X9559214Y-12231976D01*
X9711595Y-12412928D02*
X9721119Y-12422452D01*
X9711595Y-12431976D01*
X9702071Y-12422452D01*
X9711595Y-12412928D01*
X9711595Y-12431976D01*
X9835405Y-12317690D02*
X9816357Y-12308167D01*
X9806833Y-12298643D01*
X9797310Y-12279595D01*
X9797310Y-12270071D01*
X9806833Y-12251024D01*
X9816357Y-12241500D01*
X9835405Y-12231976D01*
X9873500Y-12231976D01*
X9892548Y-12241500D01*
X9902071Y-12251024D01*
X9911595Y-12270071D01*
X9911595Y-12279595D01*
X9902071Y-12298643D01*
X9892548Y-12308167D01*
X9873500Y-12317690D01*
X9835405Y-12317690D01*
X9816357Y-12327214D01*
X9806833Y-12336738D01*
X9797310Y-12355786D01*
X9797310Y-12393881D01*
X9806833Y-12412928D01*
X9816357Y-12422452D01*
X9835405Y-12431976D01*
X9873500Y-12431976D01*
X9892548Y-12422452D01*
X9902071Y-12412928D01*
X9911595Y-12393881D01*
X9911595Y-12355786D01*
X9902071Y-12336738D01*
X9892548Y-12327214D01*
X9873500Y-12317690D01*
X10035405Y-12231976D02*
X10054452Y-12231976D01*
X10073500Y-12241500D01*
X10083024Y-12251024D01*
X10092548Y-12270071D01*
X10102071Y-12308167D01*
X10102071Y-12355786D01*
X10092548Y-12393881D01*
X10083024Y-12412928D01*
X10073500Y-12422452D01*
X10054452Y-12431976D01*
X10035405Y-12431976D01*
X10016357Y-12422452D01*
X10006833Y-12412928D01*
X9997310Y-12393881D01*
X9987786Y-12355786D01*
X9987786Y-12308167D01*
X9997310Y-12270071D01*
X10006833Y-12251024D01*
X10016357Y-12241500D01*
X10035405Y-12231976D01*
X10225881Y-12231976D02*
X10244929Y-12231976D01*
X10263976Y-12241500D01*
X10273500Y-12251024D01*
X10283024Y-12270071D01*
X10292548Y-12308167D01*
X10292548Y-12355786D01*
X10283024Y-12393881D01*
X10273500Y-12412928D01*
X10263976Y-12422452D01*
X10244929Y-12431976D01*
X10225881Y-12431976D01*
X10206833Y-12422452D01*
X10197310Y-12412928D01*
X10187786Y-12393881D01*
X10178262Y-12355786D01*
X10178262Y-12308167D01*
X10187786Y-12270071D01*
X10197310Y-12251024D01*
X10206833Y-12241500D01*
X10225881Y-12231976D01*
X10378262Y-12431976D02*
X10378262Y-12298643D01*
X10378262Y-12317690D02*
X10387786Y-12308167D01*
X10406833Y-12298643D01*
X10435405Y-12298643D01*
X10454452Y-12308167D01*
X10463976Y-12327214D01*
X10463976Y-12431976D01*
X10463976Y-12327214D02*
X10473500Y-12308167D01*
X10492548Y-12298643D01*
X10521119Y-12298643D01*
X10540167Y-12308167D01*
X10549690Y-12327214D01*
X10549690Y-12431976D01*
X10644929Y-12431976D02*
X10644929Y-12298643D01*
X10644929Y-12317690D02*
X10654452Y-12308167D01*
X10673500Y-12298643D01*
X10702071Y-12298643D01*
X10721119Y-12308167D01*
X10730643Y-12327214D01*
X10730643Y-12431976D01*
X10730643Y-12327214D02*
X10740167Y-12308167D01*
X10759214Y-12298643D01*
X10787786Y-12298643D01*
X10806833Y-12308167D01*
X10816357Y-12327214D01*
X10816357Y-12431976D01*
X11206833Y-12222452D02*
X11035405Y-12479595D01*
X11463976Y-12231976D02*
X11483024Y-12231976D01*
X11502071Y-12241500D01*
X11511595Y-12251024D01*
X11521119Y-12270071D01*
X11530643Y-12308167D01*
X11530643Y-12355786D01*
X11521119Y-12393881D01*
X11511595Y-12412928D01*
X11502071Y-12422452D01*
X11483024Y-12431976D01*
X11463976Y-12431976D01*
X11444928Y-12422452D01*
X11435405Y-12412928D01*
X11425881Y-12393881D01*
X11416357Y-12355786D01*
X11416357Y-12308167D01*
X11425881Y-12270071D01*
X11435405Y-12251024D01*
X11444928Y-12241500D01*
X11463976Y-12231976D01*
X11616357Y-12412928D02*
X11625881Y-12422452D01*
X11616357Y-12431976D01*
X11606833Y-12422452D01*
X11616357Y-12412928D01*
X11616357Y-12431976D01*
X11749690Y-12231976D02*
X11768738Y-12231976D01*
X11787786Y-12241500D01*
X11797309Y-12251024D01*
X11806833Y-12270071D01*
X11816357Y-12308167D01*
X11816357Y-12355786D01*
X11806833Y-12393881D01*
X11797309Y-12412928D01*
X11787786Y-12422452D01*
X11768738Y-12431976D01*
X11749690Y-12431976D01*
X11730643Y-12422452D01*
X11721119Y-12412928D01*
X11711595Y-12393881D01*
X11702071Y-12355786D01*
X11702071Y-12308167D01*
X11711595Y-12270071D01*
X11721119Y-12251024D01*
X11730643Y-12241500D01*
X11749690Y-12231976D01*
X11883024Y-12231976D02*
X12006833Y-12231976D01*
X11940167Y-12308167D01*
X11968738Y-12308167D01*
X11987786Y-12317690D01*
X11997309Y-12327214D01*
X12006833Y-12346262D01*
X12006833Y-12393881D01*
X11997309Y-12412928D01*
X11987786Y-12422452D01*
X11968738Y-12431976D01*
X11911595Y-12431976D01*
X11892548Y-12422452D01*
X11883024Y-12412928D01*
X12197309Y-12431976D02*
X12083024Y-12431976D01*
X12140167Y-12431976D02*
X12140167Y-12231976D01*
X12121119Y-12260548D01*
X12102071Y-12279595D01*
X12083024Y-12289119D01*
X12378262Y-12231976D02*
X12283024Y-12231976D01*
X12273500Y-12327214D01*
X12283024Y-12317690D01*
X12302071Y-12308167D01*
X12349690Y-12308167D01*
X12368738Y-12317690D01*
X12378262Y-12327214D01*
X12387786Y-12346262D01*
X12387786Y-12393881D01*
X12378262Y-12412928D01*
X12368738Y-12422452D01*
X12349690Y-12431976D01*
X12302071Y-12431976D01*
X12283024Y-12422452D01*
X12273500Y-12412928D01*
X12463976Y-12231976D02*
X12463976Y-12270071D01*
X12540167Y-12231976D02*
X12540167Y-12270071D01*
X12835405Y-12508167D02*
X12825881Y-12498643D01*
X12806833Y-12470071D01*
X12797309Y-12451024D01*
X12787786Y-12422452D01*
X12778262Y-12374833D01*
X12778262Y-12336738D01*
X12787786Y-12289119D01*
X12797309Y-12260548D01*
X12806833Y-12241500D01*
X12825881Y-12212928D01*
X12835405Y-12203405D01*
X12997309Y-12298643D02*
X12997309Y-12431976D01*
X12949690Y-12222452D02*
X12902071Y-12365309D01*
X13025881Y-12365309D01*
X13254452Y-12431976D02*
X13254452Y-12231976D01*
X13340167Y-12431976D02*
X13340167Y-12327214D01*
X13330643Y-12308167D01*
X13311595Y-12298643D01*
X13283024Y-12298643D01*
X13263976Y-12308167D01*
X13254452Y-12317690D01*
X13463976Y-12431976D02*
X13444928Y-12422452D01*
X13435405Y-12412928D01*
X13425881Y-12393881D01*
X13425881Y-12336738D01*
X13435405Y-12317690D01*
X13444928Y-12308167D01*
X13463976Y-12298643D01*
X13492548Y-12298643D01*
X13511595Y-12308167D01*
X13521119Y-12317690D01*
X13530643Y-12336738D01*
X13530643Y-12393881D01*
X13521119Y-12412928D01*
X13511595Y-12422452D01*
X13492548Y-12431976D01*
X13463976Y-12431976D01*
X13644928Y-12431976D02*
X13625881Y-12422452D01*
X13616357Y-12403405D01*
X13616357Y-12231976D01*
X13797309Y-12422452D02*
X13778262Y-12431976D01*
X13740167Y-12431976D01*
X13721119Y-12422452D01*
X13711595Y-12403405D01*
X13711595Y-12327214D01*
X13721119Y-12308167D01*
X13740167Y-12298643D01*
X13778262Y-12298643D01*
X13797309Y-12308167D01*
X13806833Y-12327214D01*
X13806833Y-12346262D01*
X13711595Y-12365309D01*
X13883024Y-12422452D02*
X13902071Y-12431976D01*
X13940167Y-12431976D01*
X13959214Y-12422452D01*
X13968738Y-12403405D01*
X13968738Y-12393881D01*
X13959214Y-12374833D01*
X13940167Y-12365309D01*
X13911595Y-12365309D01*
X13892548Y-12355786D01*
X13883024Y-12336738D01*
X13883024Y-12327214D01*
X13892548Y-12308167D01*
X13911595Y-12298643D01*
X13940167Y-12298643D01*
X13959214Y-12308167D01*
X14035405Y-12508167D02*
X14044928Y-12498643D01*
X14063976Y-12470071D01*
X14073500Y-12451024D01*
X14083024Y-12422452D01*
X14092548Y-12374833D01*
X14092548Y-12336738D01*
X14083024Y-12289119D01*
X14073500Y-12260548D01*
X14063976Y-12241500D01*
X14044928Y-12212928D01*
X14035405Y-12203405D01*
X9163500Y-12505500D02*
X9163500Y-12705500D01*
X9063500Y-12605500D02*
X9263500Y-12605500D01*
X9511595Y-12515024D02*
X9521119Y-12505500D01*
X9540167Y-12495976D01*
X9587786Y-12495976D01*
X9606833Y-12505500D01*
X9616357Y-12515024D01*
X9625881Y-12534071D01*
X9625881Y-12553119D01*
X9616357Y-12581690D01*
X9502071Y-12695976D01*
X9625881Y-12695976D01*
X9711595Y-12676928D02*
X9721119Y-12686452D01*
X9711595Y-12695976D01*
X9702071Y-12686452D01*
X9711595Y-12676928D01*
X9711595Y-12695976D01*
X9844929Y-12495976D02*
X9863976Y-12495976D01*
X9883024Y-12505500D01*
X9892548Y-12515024D01*
X9902071Y-12534071D01*
X9911595Y-12572167D01*
X9911595Y-12619786D01*
X9902071Y-12657881D01*
X9892548Y-12676928D01*
X9883024Y-12686452D01*
X9863976Y-12695976D01*
X9844929Y-12695976D01*
X9825881Y-12686452D01*
X9816357Y-12676928D01*
X9806833Y-12657881D01*
X9797310Y-12619786D01*
X9797310Y-12572167D01*
X9806833Y-12534071D01*
X9816357Y-12515024D01*
X9825881Y-12505500D01*
X9844929Y-12495976D01*
X9978262Y-12495976D02*
X10102071Y-12495976D01*
X10035405Y-12572167D01*
X10063976Y-12572167D01*
X10083024Y-12581690D01*
X10092548Y-12591214D01*
X10102071Y-12610262D01*
X10102071Y-12657881D01*
X10092548Y-12676928D01*
X10083024Y-12686452D01*
X10063976Y-12695976D01*
X10006833Y-12695976D01*
X9987786Y-12686452D01*
X9978262Y-12676928D01*
X10178262Y-12515024D02*
X10187786Y-12505500D01*
X10206833Y-12495976D01*
X10254452Y-12495976D01*
X10273500Y-12505500D01*
X10283024Y-12515024D01*
X10292548Y-12534071D01*
X10292548Y-12553119D01*
X10283024Y-12581690D01*
X10168738Y-12695976D01*
X10292548Y-12695976D01*
X10378262Y-12695976D02*
X10378262Y-12562643D01*
X10378262Y-12581690D02*
X10387786Y-12572167D01*
X10406833Y-12562643D01*
X10435405Y-12562643D01*
X10454452Y-12572167D01*
X10463976Y-12591214D01*
X10463976Y-12695976D01*
X10463976Y-12591214D02*
X10473500Y-12572167D01*
X10492548Y-12562643D01*
X10521119Y-12562643D01*
X10540167Y-12572167D01*
X10549690Y-12591214D01*
X10549690Y-12695976D01*
X10644929Y-12695976D02*
X10644929Y-12562643D01*
X10644929Y-12581690D02*
X10654452Y-12572167D01*
X10673500Y-12562643D01*
X10702071Y-12562643D01*
X10721119Y-12572167D01*
X10730643Y-12591214D01*
X10730643Y-12695976D01*
X10730643Y-12591214D02*
X10740167Y-12572167D01*
X10759214Y-12562643D01*
X10787786Y-12562643D01*
X10806833Y-12572167D01*
X10816357Y-12591214D01*
X10816357Y-12695976D01*
X11206833Y-12486452D02*
X11035405Y-12743595D01*
X11463976Y-12495976D02*
X11483024Y-12495976D01*
X11502071Y-12505500D01*
X11511595Y-12515024D01*
X11521119Y-12534071D01*
X11530643Y-12572167D01*
X11530643Y-12619786D01*
X11521119Y-12657881D01*
X11511595Y-12676928D01*
X11502071Y-12686452D01*
X11483024Y-12695976D01*
X11463976Y-12695976D01*
X11444928Y-12686452D01*
X11435405Y-12676928D01*
X11425881Y-12657881D01*
X11416357Y-12619786D01*
X11416357Y-12572167D01*
X11425881Y-12534071D01*
X11435405Y-12515024D01*
X11444928Y-12505500D01*
X11463976Y-12495976D01*
X11616357Y-12676928D02*
X11625881Y-12686452D01*
X11616357Y-12695976D01*
X11606833Y-12686452D01*
X11616357Y-12676928D01*
X11616357Y-12695976D01*
X11749690Y-12495976D02*
X11768738Y-12495976D01*
X11787786Y-12505500D01*
X11797309Y-12515024D01*
X11806833Y-12534071D01*
X11816357Y-12572167D01*
X11816357Y-12619786D01*
X11806833Y-12657881D01*
X11797309Y-12676928D01*
X11787786Y-12686452D01*
X11768738Y-12695976D01*
X11749690Y-12695976D01*
X11730643Y-12686452D01*
X11721119Y-12676928D01*
X11711595Y-12657881D01*
X11702071Y-12619786D01*
X11702071Y-12572167D01*
X11711595Y-12534071D01*
X11721119Y-12515024D01*
X11730643Y-12505500D01*
X11749690Y-12495976D01*
X11930643Y-12581690D02*
X11911595Y-12572167D01*
X11902071Y-12562643D01*
X11892548Y-12543595D01*
X11892548Y-12534071D01*
X11902071Y-12515024D01*
X11911595Y-12505500D01*
X11930643Y-12495976D01*
X11968738Y-12495976D01*
X11987786Y-12505500D01*
X11997309Y-12515024D01*
X12006833Y-12534071D01*
X12006833Y-12543595D01*
X11997309Y-12562643D01*
X11987786Y-12572167D01*
X11968738Y-12581690D01*
X11930643Y-12581690D01*
X11911595Y-12591214D01*
X11902071Y-12600738D01*
X11892548Y-12619786D01*
X11892548Y-12657881D01*
X11902071Y-12676928D01*
X11911595Y-12686452D01*
X11930643Y-12695976D01*
X11968738Y-12695976D01*
X11987786Y-12686452D01*
X11997309Y-12676928D01*
X12006833Y-12657881D01*
X12006833Y-12619786D01*
X11997309Y-12600738D01*
X11987786Y-12591214D01*
X11968738Y-12581690D01*
X12130643Y-12495976D02*
X12149690Y-12495976D01*
X12168738Y-12505500D01*
X12178262Y-12515024D01*
X12187786Y-12534071D01*
X12197309Y-12572167D01*
X12197309Y-12619786D01*
X12187786Y-12657881D01*
X12178262Y-12676928D01*
X12168738Y-12686452D01*
X12149690Y-12695976D01*
X12130643Y-12695976D01*
X12111595Y-12686452D01*
X12102071Y-12676928D01*
X12092548Y-12657881D01*
X12083024Y-12619786D01*
X12083024Y-12572167D01*
X12092548Y-12534071D01*
X12102071Y-12515024D01*
X12111595Y-12505500D01*
X12130643Y-12495976D01*
X12321119Y-12495976D02*
X12340167Y-12495976D01*
X12359214Y-12505500D01*
X12368738Y-12515024D01*
X12378262Y-12534071D01*
X12387786Y-12572167D01*
X12387786Y-12619786D01*
X12378262Y-12657881D01*
X12368738Y-12676928D01*
X12359214Y-12686452D01*
X12340167Y-12695976D01*
X12321119Y-12695976D01*
X12302071Y-12686452D01*
X12292548Y-12676928D01*
X12283024Y-12657881D01*
X12273500Y-12619786D01*
X12273500Y-12572167D01*
X12283024Y-12534071D01*
X12292548Y-12515024D01*
X12302071Y-12505500D01*
X12321119Y-12495976D01*
X12463976Y-12495976D02*
X12463976Y-12534071D01*
X12540167Y-12495976D02*
X12540167Y-12534071D01*
X12835405Y-12772167D02*
X12825881Y-12762643D01*
X12806833Y-12734071D01*
X12797309Y-12715024D01*
X12787786Y-12686452D01*
X12778262Y-12638833D01*
X12778262Y-12600738D01*
X12787786Y-12553119D01*
X12797309Y-12524548D01*
X12806833Y-12505500D01*
X12825881Y-12476928D01*
X12835405Y-12467405D01*
X12902071Y-12515024D02*
X12911595Y-12505500D01*
X12930643Y-12495976D01*
X12978262Y-12495976D01*
X12997309Y-12505500D01*
X13006833Y-12515024D01*
X13016357Y-12534071D01*
X13016357Y-12553119D01*
X13006833Y-12581690D01*
X12892548Y-12695976D01*
X13016357Y-12695976D01*
X13254452Y-12695976D02*
X13254452Y-12495976D01*
X13340167Y-12695976D02*
X13340167Y-12591214D01*
X13330643Y-12572167D01*
X13311595Y-12562643D01*
X13283024Y-12562643D01*
X13263976Y-12572167D01*
X13254452Y-12581690D01*
X13463976Y-12695976D02*
X13444928Y-12686452D01*
X13435405Y-12676928D01*
X13425881Y-12657881D01*
X13425881Y-12600738D01*
X13435405Y-12581690D01*
X13444928Y-12572167D01*
X13463976Y-12562643D01*
X13492548Y-12562643D01*
X13511595Y-12572167D01*
X13521119Y-12581690D01*
X13530643Y-12600738D01*
X13530643Y-12657881D01*
X13521119Y-12676928D01*
X13511595Y-12686452D01*
X13492548Y-12695976D01*
X13463976Y-12695976D01*
X13644928Y-12695976D02*
X13625881Y-12686452D01*
X13616357Y-12667405D01*
X13616357Y-12495976D01*
X13797309Y-12686452D02*
X13778262Y-12695976D01*
X13740167Y-12695976D01*
X13721119Y-12686452D01*
X13711595Y-12667405D01*
X13711595Y-12591214D01*
X13721119Y-12572167D01*
X13740167Y-12562643D01*
X13778262Y-12562643D01*
X13797309Y-12572167D01*
X13806833Y-12591214D01*
X13806833Y-12610262D01*
X13711595Y-12629309D01*
X13883024Y-12686452D02*
X13902071Y-12695976D01*
X13940167Y-12695976D01*
X13959214Y-12686452D01*
X13968738Y-12667405D01*
X13968738Y-12657881D01*
X13959214Y-12638833D01*
X13940167Y-12629309D01*
X13911595Y-12629309D01*
X13892548Y-12619786D01*
X13883024Y-12600738D01*
X13883024Y-12591214D01*
X13892548Y-12572167D01*
X13911595Y-12562643D01*
X13940167Y-12562643D01*
X13959214Y-12572167D01*
X14035405Y-12772167D02*
X14044928Y-12762643D01*
X14063976Y-12734071D01*
X14073500Y-12715024D01*
X14083024Y-12686452D01*
X14092548Y-12638833D01*
X14092548Y-12600738D01*
X14083024Y-12553119D01*
X14073500Y-12524548D01*
X14063976Y-12505500D01*
X14044928Y-12476928D01*
X14035405Y-12467405D01*
M02*
