G04 #@! TF.GenerationSoftware,KiCad,Pcbnew,5.99.0-unknown-9f841da98e~134~ubuntu20.04.1*
G04 #@! TF.CreationDate,2021-11-20T11:12:31+01:00*
G04 #@! TF.ProjectId,wt32-esp01-programmer,77743332-2d65-4737-9030-312d70726f67,rev?*
G04 #@! TF.SameCoordinates,Original*
G04 #@! TF.FileFunction,Copper,L1,Top*
G04 #@! TF.FilePolarity,Positive*
%FSLAX46Y46*%
G04 Gerber Fmt 4.6, Leading zero omitted, Abs format (unit mm)*
G04 Created by KiCad (PCBNEW 5.99.0-unknown-9f841da98e~134~ubuntu20.04.1) date 2021-11-20 11:12:31*
%MOMM*%
%LPD*%
G01*
G04 APERTURE LIST*
G04 #@! TA.AperFunction,ComponentPad*
%ADD10C,1.778000*%
G04 #@! TD*
G04 #@! TA.AperFunction,ComponentPad*
%ADD11R,1.600000X1.600000*%
G04 #@! TD*
G04 #@! TA.AperFunction,ComponentPad*
%ADD12O,1.600000X1.600000*%
G04 #@! TD*
G04 #@! TA.AperFunction,ComponentPad*
%ADD13C,2.032000*%
G04 #@! TD*
G04 #@! TA.AperFunction,ComponentPad*
%ADD14O,3.048000X1.524000*%
G04 #@! TD*
G04 #@! TA.AperFunction,Conductor*
%ADD15C,0.700000*%
G04 #@! TD*
G04 APERTURE END LIST*
D10*
X138176000Y-87630000D03*
X138176000Y-90170000D03*
X135636000Y-87630000D03*
X135636000Y-90170000D03*
X133096000Y-87630000D03*
X133096000Y-90170000D03*
X130556000Y-87630000D03*
X130556000Y-90170000D03*
D11*
X138811000Y-107569000D03*
D12*
X138811000Y-105029000D03*
X131191000Y-105029000D03*
X131191000Y-107569000D03*
D13*
X120396000Y-110236000D03*
X97536000Y-110236000D03*
D14*
X120396000Y-65151000D03*
X120396000Y-67691000D03*
X120396000Y-70231000D03*
X120396000Y-72771000D03*
X120396000Y-75311000D03*
X120396000Y-77851000D03*
X120396000Y-80391000D03*
X120396000Y-82931000D03*
X120396000Y-85471000D03*
X120396000Y-88011000D03*
X120396000Y-90551000D03*
X120396000Y-93091000D03*
X120396000Y-95631000D03*
X97536000Y-95631000D03*
X97536000Y-93091000D03*
X97536000Y-90551000D03*
X97536000Y-88011000D03*
X97536000Y-85471000D03*
X97536000Y-82931000D03*
X97536000Y-80391000D03*
X97536000Y-77851000D03*
X97536000Y-75311000D03*
X97536000Y-72771000D03*
X97536000Y-70231000D03*
X97536000Y-67691000D03*
X97536000Y-65151000D03*
D15*
X125476000Y-107569000D02*
X115189000Y-97282000D01*
X116713000Y-88011000D02*
X120396000Y-88011000D01*
X115189000Y-97282000D02*
X115189000Y-89535000D01*
X131191000Y-107569000D02*
X125476000Y-107569000D01*
X115189000Y-89535000D02*
X116713000Y-88011000D01*
X138176000Y-87630000D02*
X140843000Y-87630000D01*
X142494000Y-89281000D02*
X142494000Y-108585000D01*
X125857000Y-92075000D02*
X124333000Y-90551000D01*
X140843000Y-87630000D02*
X142494000Y-89281000D01*
X125857000Y-102362000D02*
X125857000Y-92075000D01*
X131880999Y-105718999D02*
X131191000Y-105029000D01*
X140208000Y-110871000D02*
X137231002Y-110871000D01*
X128524000Y-105029000D02*
X125857000Y-102362000D01*
X124333000Y-90551000D02*
X120396000Y-90551000D01*
X137231002Y-110871000D02*
X132079001Y-105718999D01*
X142494000Y-108585000D02*
X140208000Y-110871000D01*
X132079001Y-105718999D02*
X131880999Y-105718999D01*
X131191000Y-105029000D02*
X128524000Y-105029000D01*
X97536000Y-67691000D02*
X101600000Y-67691000D01*
X118237000Y-61849000D02*
X122809000Y-61849000D01*
X130556000Y-69596000D02*
X130556000Y-87630000D01*
X122809000Y-61849000D02*
X130556000Y-69596000D01*
X101600000Y-67691000D02*
X103759000Y-65532000D01*
X114554000Y-65532000D02*
X118237000Y-61849000D01*
X103759000Y-65532000D02*
X114554000Y-65532000D01*
X130556000Y-90170000D02*
X130683000Y-90297000D01*
X130683000Y-90297000D02*
X130683000Y-101016500D01*
X130683000Y-101016500D02*
X137235500Y-107569000D01*
X137235500Y-107569000D02*
X138811000Y-107569000D01*
M02*
