G04 #@! TF.GenerationSoftware,KiCad,Pcbnew,5.99.0-unknown-9f841da98e~134~ubuntu20.04.1*
G04 #@! TF.CreationDate,2021-11-20T11:12:31+01:00*
G04 #@! TF.ProjectId,wt32-esp01-programmer,77743332-2d65-4737-9030-312d70726f67,rev?*
G04 #@! TF.SameCoordinates,Original*
G04 #@! TF.FileFunction,Soldermask,Top*
G04 #@! TF.FilePolarity,Negative*
%FSLAX46Y46*%
G04 Gerber Fmt 4.6, Leading zero omitted, Abs format (unit mm)*
G04 Created by KiCad (PCBNEW 5.99.0-unknown-9f841da98e~134~ubuntu20.04.1) date 2021-11-20 11:12:31*
%MOMM*%
%LPD*%
G01*
G04 APERTURE LIST*
%ADD10C,1.778000*%
%ADD11R,1.600000X1.600000*%
%ADD12O,1.600000X1.600000*%
%ADD13C,2.032000*%
%ADD14O,3.048000X1.524000*%
G04 APERTURE END LIST*
D10*
X138176000Y-87630000D03*
X138176000Y-90170000D03*
X135636000Y-87630000D03*
X135636000Y-90170000D03*
X133096000Y-87630000D03*
X133096000Y-90170000D03*
X130556000Y-87630000D03*
X130556000Y-90170000D03*
D11*
X138811000Y-107569000D03*
D12*
X138811000Y-105029000D03*
X131191000Y-105029000D03*
X131191000Y-107569000D03*
D13*
X120396000Y-110236000D03*
X97536000Y-110236000D03*
D14*
X120396000Y-65151000D03*
X120396000Y-67691000D03*
X120396000Y-70231000D03*
X120396000Y-72771000D03*
X120396000Y-75311000D03*
X120396000Y-77851000D03*
X120396000Y-80391000D03*
X120396000Y-82931000D03*
X120396000Y-85471000D03*
X120396000Y-88011000D03*
X120396000Y-90551000D03*
X120396000Y-93091000D03*
X120396000Y-95631000D03*
X97536000Y-95631000D03*
X97536000Y-93091000D03*
X97536000Y-90551000D03*
X97536000Y-88011000D03*
X97536000Y-85471000D03*
X97536000Y-82931000D03*
X97536000Y-80391000D03*
X97536000Y-77851000D03*
X97536000Y-75311000D03*
X97536000Y-72771000D03*
X97536000Y-70231000D03*
X97536000Y-67691000D03*
X97536000Y-65151000D03*
M02*
