G04 #@! TF.GenerationSoftware,KiCad,Pcbnew,5.99.0-unknown-9f841da98e~134~ubuntu20.04.1*
G04 #@! TF.CreationDate,2021-11-20T11:12:31+01:00*
G04 #@! TF.ProjectId,wt32-esp01-programmer,77743332-2d65-4737-9030-312d70726f67,rev?*
G04 #@! TF.SameCoordinates,Original*
G04 #@! TF.FileFunction,Legend,Top*
G04 #@! TF.FilePolarity,Positive*
%FSLAX46Y46*%
G04 Gerber Fmt 4.6, Leading zero omitted, Abs format (unit mm)*
G04 Created by KiCad (PCBNEW 5.99.0-unknown-9f841da98e~134~ubuntu20.04.1) date 2021-11-20 11:12:31*
%MOMM*%
%LPD*%
G01*
G04 APERTURE LIST*
%ADD10C,0.150000*%
%ADD11C,0.120000*%
%ADD12C,1.778000*%
%ADD13R,1.600000X1.600000*%
%ADD14O,1.600000X1.600000*%
%ADD15C,2.032000*%
%ADD16O,3.048000X1.524000*%
G04 APERTURE END LIST*
D10*
X142819380Y-111831190D02*
X141819380Y-111831190D01*
X141819380Y-111450238D01*
X141867000Y-111355000D01*
X141914619Y-111307380D01*
X142009857Y-111259761D01*
X142152714Y-111259761D01*
X142247952Y-111307380D01*
X142295571Y-111355000D01*
X142343190Y-111450238D01*
X142343190Y-111831190D01*
X142819380Y-110688333D02*
X142771761Y-110783571D01*
X142724142Y-110831190D01*
X142628904Y-110878809D01*
X142343190Y-110878809D01*
X142247952Y-110831190D01*
X142200333Y-110783571D01*
X142152714Y-110688333D01*
X142152714Y-110545476D01*
X142200333Y-110450238D01*
X142247952Y-110402619D01*
X142343190Y-110355000D01*
X142628904Y-110355000D01*
X142724142Y-110402619D01*
X142771761Y-110450238D01*
X142819380Y-110545476D01*
X142819380Y-110688333D01*
X142152714Y-110021666D02*
X142819380Y-109831190D01*
X142343190Y-109640714D01*
X142819380Y-109450238D01*
X142152714Y-109259761D01*
X142771761Y-108497857D02*
X142819380Y-108593095D01*
X142819380Y-108783571D01*
X142771761Y-108878809D01*
X142676523Y-108926428D01*
X142295571Y-108926428D01*
X142200333Y-108878809D01*
X142152714Y-108783571D01*
X142152714Y-108593095D01*
X142200333Y-108497857D01*
X142295571Y-108450238D01*
X142390809Y-108450238D01*
X142486047Y-108926428D01*
X142819380Y-108021666D02*
X142152714Y-108021666D01*
X142343190Y-108021666D02*
X142247952Y-107974047D01*
X142200333Y-107926428D01*
X142152714Y-107831190D01*
X142152714Y-107735952D01*
X103911238Y-53887714D02*
X104101714Y-54554380D01*
X104292190Y-54078190D01*
X104482666Y-54554380D01*
X104673142Y-53887714D01*
X104911238Y-53887714D02*
X105292190Y-53887714D01*
X105054095Y-53554380D02*
X105054095Y-54411523D01*
X105101714Y-54506761D01*
X105196952Y-54554380D01*
X105292190Y-54554380D01*
X105530285Y-53554380D02*
X106149333Y-53554380D01*
X105816000Y-53935333D01*
X105958857Y-53935333D01*
X106054095Y-53982952D01*
X106101714Y-54030571D01*
X106149333Y-54125809D01*
X106149333Y-54363904D01*
X106101714Y-54459142D01*
X106054095Y-54506761D01*
X105958857Y-54554380D01*
X105673142Y-54554380D01*
X105577904Y-54506761D01*
X105530285Y-54459142D01*
X106530285Y-53649619D02*
X106577904Y-53602000D01*
X106673142Y-53554380D01*
X106911238Y-53554380D01*
X107006476Y-53602000D01*
X107054095Y-53649619D01*
X107101714Y-53744857D01*
X107101714Y-53840095D01*
X107054095Y-53982952D01*
X106482666Y-54554380D01*
X107101714Y-54554380D01*
X107530285Y-54173428D02*
X108292190Y-54173428D01*
X109149333Y-54506761D02*
X109054095Y-54554380D01*
X108863619Y-54554380D01*
X108768380Y-54506761D01*
X108720761Y-54411523D01*
X108720761Y-54030571D01*
X108768380Y-53935333D01*
X108863619Y-53887714D01*
X109054095Y-53887714D01*
X109149333Y-53935333D01*
X109196952Y-54030571D01*
X109196952Y-54125809D01*
X108720761Y-54221047D01*
X109577904Y-54506761D02*
X109673142Y-54554380D01*
X109863619Y-54554380D01*
X109958857Y-54506761D01*
X110006476Y-54411523D01*
X110006476Y-54363904D01*
X109958857Y-54268666D01*
X109863619Y-54221047D01*
X109720761Y-54221047D01*
X109625523Y-54173428D01*
X109577904Y-54078190D01*
X109577904Y-54030571D01*
X109625523Y-53935333D01*
X109720761Y-53887714D01*
X109863619Y-53887714D01*
X109958857Y-53935333D01*
X110435047Y-53887714D02*
X110435047Y-54887714D01*
X110435047Y-53935333D02*
X110530285Y-53887714D01*
X110720761Y-53887714D01*
X110816000Y-53935333D01*
X110863619Y-53982952D01*
X110911238Y-54078190D01*
X110911238Y-54363904D01*
X110863619Y-54459142D01*
X110816000Y-54506761D01*
X110720761Y-54554380D01*
X110530285Y-54554380D01*
X110435047Y-54506761D01*
X111530285Y-53554380D02*
X111625523Y-53554380D01*
X111720761Y-53602000D01*
X111768380Y-53649619D01*
X111816000Y-53744857D01*
X111863619Y-53935333D01*
X111863619Y-54173428D01*
X111816000Y-54363904D01*
X111768380Y-54459142D01*
X111720761Y-54506761D01*
X111625523Y-54554380D01*
X111530285Y-54554380D01*
X111435047Y-54506761D01*
X111387428Y-54459142D01*
X111339809Y-54363904D01*
X111292190Y-54173428D01*
X111292190Y-53935333D01*
X111339809Y-53744857D01*
X111387428Y-53649619D01*
X111435047Y-53602000D01*
X111530285Y-53554380D01*
X112816000Y-54554380D02*
X112244571Y-54554380D01*
X112530285Y-54554380D02*
X112530285Y-53554380D01*
X112435047Y-53697238D01*
X112339809Y-53792476D01*
X112244571Y-53840095D01*
X113244571Y-54173428D02*
X114006476Y-54173428D01*
X114482666Y-53887714D02*
X114482666Y-54887714D01*
X114482666Y-53935333D02*
X114577904Y-53887714D01*
X114768380Y-53887714D01*
X114863619Y-53935333D01*
X114911238Y-53982952D01*
X114958857Y-54078190D01*
X114958857Y-54363904D01*
X114911238Y-54459142D01*
X114863619Y-54506761D01*
X114768380Y-54554380D01*
X114577904Y-54554380D01*
X114482666Y-54506761D01*
X115387428Y-54554380D02*
X115387428Y-53887714D01*
X115387428Y-54078190D02*
X115435047Y-53982952D01*
X115482666Y-53935333D01*
X115577904Y-53887714D01*
X115673142Y-53887714D01*
X116149333Y-54554380D02*
X116054095Y-54506761D01*
X116006476Y-54459142D01*
X115958857Y-54363904D01*
X115958857Y-54078190D01*
X116006476Y-53982952D01*
X116054095Y-53935333D01*
X116149333Y-53887714D01*
X116292190Y-53887714D01*
X116387428Y-53935333D01*
X116435047Y-53982952D01*
X116482666Y-54078190D01*
X116482666Y-54363904D01*
X116435047Y-54459142D01*
X116387428Y-54506761D01*
X116292190Y-54554380D01*
X116149333Y-54554380D01*
X117339809Y-53887714D02*
X117339809Y-54697238D01*
X117292190Y-54792476D01*
X117244571Y-54840095D01*
X117149333Y-54887714D01*
X117006476Y-54887714D01*
X116911238Y-54840095D01*
X117339809Y-54506761D02*
X117244571Y-54554380D01*
X117054095Y-54554380D01*
X116958857Y-54506761D01*
X116911238Y-54459142D01*
X116863619Y-54363904D01*
X116863619Y-54078190D01*
X116911238Y-53982952D01*
X116958857Y-53935333D01*
X117054095Y-53887714D01*
X117244571Y-53887714D01*
X117339809Y-53935333D01*
X117816000Y-54554380D02*
X117816000Y-53887714D01*
X117816000Y-54078190D02*
X117863619Y-53982952D01*
X117911238Y-53935333D01*
X118006476Y-53887714D01*
X118101714Y-53887714D01*
X118863619Y-54554380D02*
X118863619Y-54030571D01*
X118816000Y-53935333D01*
X118720761Y-53887714D01*
X118530285Y-53887714D01*
X118435047Y-53935333D01*
X118863619Y-54506761D02*
X118768380Y-54554380D01*
X118530285Y-54554380D01*
X118435047Y-54506761D01*
X118387428Y-54411523D01*
X118387428Y-54316285D01*
X118435047Y-54221047D01*
X118530285Y-54173428D01*
X118768380Y-54173428D01*
X118863619Y-54125809D01*
X119339809Y-54554380D02*
X119339809Y-53887714D01*
X119339809Y-53982952D02*
X119387428Y-53935333D01*
X119482666Y-53887714D01*
X119625523Y-53887714D01*
X119720761Y-53935333D01*
X119768380Y-54030571D01*
X119768380Y-54554380D01*
X119768380Y-54030571D02*
X119816000Y-53935333D01*
X119911238Y-53887714D01*
X120054095Y-53887714D01*
X120149333Y-53935333D01*
X120196952Y-54030571D01*
X120196952Y-54554380D01*
X120673142Y-54554380D02*
X120673142Y-53887714D01*
X120673142Y-53982952D02*
X120720761Y-53935333D01*
X120816000Y-53887714D01*
X120958857Y-53887714D01*
X121054095Y-53935333D01*
X121101714Y-54030571D01*
X121101714Y-54554380D01*
X121101714Y-54030571D02*
X121149333Y-53935333D01*
X121244571Y-53887714D01*
X121387428Y-53887714D01*
X121482666Y-53935333D01*
X121530285Y-54030571D01*
X121530285Y-54554380D01*
X122387428Y-54506761D02*
X122292190Y-54554380D01*
X122101714Y-54554380D01*
X122006476Y-54506761D01*
X121958857Y-54411523D01*
X121958857Y-54030571D01*
X122006476Y-53935333D01*
X122101714Y-53887714D01*
X122292190Y-53887714D01*
X122387428Y-53935333D01*
X122435047Y-54030571D01*
X122435047Y-54125809D01*
X121958857Y-54221047D01*
X122863619Y-54554380D02*
X122863619Y-53887714D01*
X122863619Y-54078190D02*
X122911238Y-53982952D01*
X122958857Y-53935333D01*
X123054095Y-53887714D01*
X123149333Y-53887714D01*
X123482666Y-54173428D02*
X124244571Y-54173428D01*
X125244571Y-54554380D02*
X124673142Y-54554380D01*
X124958857Y-54554380D02*
X124958857Y-53554380D01*
X124863619Y-53697238D01*
X124768380Y-53792476D01*
X124673142Y-53840095D01*
X125673142Y-54459142D02*
X125720761Y-54506761D01*
X125673142Y-54554380D01*
X125625523Y-54506761D01*
X125673142Y-54459142D01*
X125673142Y-54554380D01*
X126339809Y-53554380D02*
X126435047Y-53554380D01*
X126530285Y-53602000D01*
X126577904Y-53649619D01*
X126625523Y-53744857D01*
X126673142Y-53935333D01*
X126673142Y-54173428D01*
X126625523Y-54363904D01*
X126577904Y-54459142D01*
X126530285Y-54506761D01*
X126435047Y-54554380D01*
X126339809Y-54554380D01*
X126244571Y-54506761D01*
X126196952Y-54459142D01*
X126149333Y-54363904D01*
X126101714Y-54173428D01*
X126101714Y-53935333D01*
X126149333Y-53744857D01*
X126196952Y-53649619D01*
X126244571Y-53602000D01*
X126339809Y-53554380D01*
X142422571Y-105314571D02*
X142422571Y-105647904D01*
X142946380Y-105647904D02*
X141946380Y-105647904D01*
X141946380Y-105171714D01*
X142946380Y-104647904D02*
X142898761Y-104743142D01*
X142803523Y-104790761D01*
X141946380Y-104790761D01*
X142946380Y-103838380D02*
X142422571Y-103838380D01*
X142327333Y-103886000D01*
X142279714Y-103981238D01*
X142279714Y-104171714D01*
X142327333Y-104266952D01*
X142898761Y-103838380D02*
X142946380Y-103933619D01*
X142946380Y-104171714D01*
X142898761Y-104266952D01*
X142803523Y-104314571D01*
X142708285Y-104314571D01*
X142613047Y-104266952D01*
X142565428Y-104171714D01*
X142565428Y-103933619D01*
X142517809Y-103838380D01*
X142898761Y-103409809D02*
X142946380Y-103314571D01*
X142946380Y-103124095D01*
X142898761Y-103028857D01*
X142803523Y-102981238D01*
X142755904Y-102981238D01*
X142660666Y-103028857D01*
X142613047Y-103124095D01*
X142613047Y-103266952D01*
X142565428Y-103362190D01*
X142470190Y-103409809D01*
X142422571Y-103409809D01*
X142327333Y-103362190D01*
X142279714Y-103266952D01*
X142279714Y-103124095D01*
X142327333Y-103028857D01*
X142946380Y-102552666D02*
X141946380Y-102552666D01*
X142946380Y-102124095D02*
X142422571Y-102124095D01*
X142327333Y-102171714D01*
X142279714Y-102266952D01*
X142279714Y-102409809D01*
X142327333Y-102505047D01*
X142374952Y-102552666D01*
X127889095Y-63587380D02*
X127889095Y-64396904D01*
X127936714Y-64492142D01*
X127984333Y-64539761D01*
X128079571Y-64587380D01*
X128270047Y-64587380D01*
X128365285Y-64539761D01*
X128412904Y-64492142D01*
X128460523Y-64396904D01*
X128460523Y-63587380D01*
X129460523Y-64587380D02*
X128889095Y-64587380D01*
X129174809Y-64587380D02*
X129174809Y-63587380D01*
X129079571Y-63730238D01*
X128984333Y-63825476D01*
X128889095Y-63873095D01*
X133667666Y-111393761D02*
X133810523Y-111441380D01*
X134048619Y-111441380D01*
X134143857Y-111393761D01*
X134191476Y-111346142D01*
X134239095Y-111250904D01*
X134239095Y-111155666D01*
X134191476Y-111060428D01*
X134143857Y-111012809D01*
X134048619Y-110965190D01*
X133858142Y-110917571D01*
X133762904Y-110869952D01*
X133715285Y-110822333D01*
X133667666Y-110727095D01*
X133667666Y-110631857D01*
X133715285Y-110536619D01*
X133762904Y-110489000D01*
X133858142Y-110441380D01*
X134096238Y-110441380D01*
X134239095Y-110489000D01*
X134572428Y-110441380D02*
X134810523Y-111441380D01*
X135001000Y-110727095D01*
X135191476Y-111441380D01*
X135429571Y-110441380D01*
X136334333Y-111441380D02*
X135762904Y-111441380D01*
X136048619Y-111441380D02*
X136048619Y-110441380D01*
X135953380Y-110584238D01*
X135858142Y-110679476D01*
X135762904Y-110727095D01*
X99314095Y-54443380D02*
X99314095Y-55252904D01*
X99361714Y-55348142D01*
X99409333Y-55395761D01*
X99504571Y-55443380D01*
X99695047Y-55443380D01*
X99790285Y-55395761D01*
X99837904Y-55348142D01*
X99885523Y-55252904D01*
X99885523Y-54443380D01*
X100314095Y-54538619D02*
X100361714Y-54491000D01*
X100456952Y-54443380D01*
X100695047Y-54443380D01*
X100790285Y-54491000D01*
X100837904Y-54538619D01*
X100885523Y-54633857D01*
X100885523Y-54729095D01*
X100837904Y-54871952D01*
X100266476Y-55443380D01*
X100885523Y-55443380D01*
D11*
X140716000Y-42545000D02*
X140716000Y-61595000D01*
X143256000Y-57150000D02*
X143256000Y-91440000D01*
X128016000Y-61595000D02*
X140716000Y-61595000D01*
X128016000Y-61595000D02*
X128016000Y-42545000D01*
X128016000Y-42545000D02*
X140716000Y-42545000D01*
X125476000Y-91440000D02*
X125476000Y-57150000D01*
X125476000Y-57150000D02*
X143256000Y-57150000D01*
X143256000Y-91440000D02*
X125476000Y-91440000D01*
X135677667Y-105664000D02*
X135677667Y-104394000D01*
X137031000Y-104824000D02*
X135677667Y-104824000D01*
X137031000Y-107364000D02*
X135677667Y-107364000D01*
X135677667Y-108204000D02*
X135677667Y-106934000D01*
X132971000Y-106934000D02*
X132971000Y-108204000D01*
X137031000Y-105304000D02*
X135677667Y-105304000D01*
X137031000Y-105544000D02*
X135677667Y-105544000D01*
X139951000Y-102609000D02*
X130051000Y-102609000D01*
X137031000Y-104464000D02*
X135677667Y-104464000D01*
X137031000Y-108204000D02*
X137031000Y-106934000D01*
X137031000Y-107004000D02*
X135677667Y-107004000D01*
X137031000Y-105184000D02*
X135677667Y-105184000D01*
X132971000Y-104394000D02*
X132971000Y-105664000D01*
X137031000Y-104394000D02*
X132971000Y-104394000D01*
X132971000Y-105664000D02*
X137031000Y-105664000D01*
X137031000Y-107964000D02*
X135677667Y-107964000D01*
X139951000Y-109989000D02*
X139951000Y-102609000D01*
X137031000Y-107604000D02*
X135677667Y-107604000D01*
X137031000Y-105064000D02*
X135677667Y-105064000D01*
X139951000Y-109989000D02*
X130051000Y-109989000D01*
X137031000Y-105664000D02*
X137031000Y-104394000D01*
X140191000Y-110229000D02*
X138807000Y-110229000D01*
X137031000Y-107484000D02*
X135677667Y-107484000D01*
X137031000Y-107724000D02*
X135677667Y-107724000D01*
X137031000Y-105424000D02*
X135677667Y-105424000D01*
X132971000Y-108204000D02*
X137031000Y-108204000D01*
X137031000Y-107844000D02*
X135677667Y-107844000D01*
X137031000Y-104704000D02*
X135677667Y-104704000D01*
X130051000Y-109989000D02*
X130051000Y-102609000D01*
X137031000Y-107124000D02*
X135677667Y-107124000D01*
X137031000Y-104584000D02*
X135677667Y-104584000D01*
X137031000Y-107244000D02*
X135677667Y-107244000D01*
X140191000Y-110229000D02*
X140191000Y-108846000D01*
X137031000Y-104944000D02*
X135677667Y-104944000D01*
X137031000Y-106934000D02*
X132971000Y-106934000D01*
X137031000Y-108084000D02*
X135677667Y-108084000D01*
X96266000Y-57531000D02*
X96266000Y-110236000D01*
X100711000Y-116586000D02*
X100711000Y-95631000D01*
X121666000Y-110236000D02*
X121666000Y-57531000D01*
X100711000Y-95631000D02*
X117221000Y-95631000D01*
X97536000Y-111506000D02*
X120396000Y-111506000D01*
X117221000Y-116586000D02*
X100711000Y-116586000D01*
X120396000Y-56261000D02*
X97536000Y-56261000D01*
X117221000Y-95631000D02*
X117221000Y-116586000D01*
X120396000Y-56261000D02*
G75*
G02*
X121666000Y-57531000I0J-1270000D01*
G01*
X96266000Y-57531000D02*
G75*
G02*
X97536000Y-56261000I1270000J0D01*
G01*
X97536000Y-111506000D02*
G75*
G02*
X96266000Y-110236000I0J1270000D01*
G01*
X121666000Y-110236000D02*
G75*
G02*
X120396000Y-111506000I-1270000J0D01*
G01*
%LPC*%
D12*
X138176000Y-87630000D03*
X138176000Y-90170000D03*
X135636000Y-87630000D03*
X135636000Y-90170000D03*
X133096000Y-87630000D03*
X133096000Y-90170000D03*
X130556000Y-87630000D03*
X130556000Y-90170000D03*
D13*
X138811000Y-107569000D03*
D14*
X138811000Y-105029000D03*
X131191000Y-105029000D03*
X131191000Y-107569000D03*
D15*
X120396000Y-110236000D03*
X97536000Y-110236000D03*
D16*
X120396000Y-65151000D03*
X120396000Y-67691000D03*
X120396000Y-70231000D03*
X120396000Y-72771000D03*
X120396000Y-75311000D03*
X120396000Y-77851000D03*
X120396000Y-80391000D03*
X120396000Y-82931000D03*
X120396000Y-85471000D03*
X120396000Y-88011000D03*
X120396000Y-90551000D03*
X120396000Y-93091000D03*
X120396000Y-95631000D03*
X97536000Y-95631000D03*
X97536000Y-93091000D03*
X97536000Y-90551000D03*
X97536000Y-88011000D03*
X97536000Y-85471000D03*
X97536000Y-82931000D03*
X97536000Y-80391000D03*
X97536000Y-77851000D03*
X97536000Y-75311000D03*
X97536000Y-72771000D03*
X97536000Y-70231000D03*
X97536000Y-67691000D03*
X97536000Y-65151000D03*
M02*
